<svg width="1440" height="4761" viewBox="0 0 1440 4761" fill="none" xmlns="http://www.w3.org/2000/svg">
<path d="M147.502 1998.77L140.728 2012.07M101.208 1942.7L104.16 1936.93L104.216 1928.78L103.288 1921.5L101.405 1915.23L98.6507 1910.12L95.1091 1906.24L90.8648 1903.63L86.0584 1902.31H80.7741L75.1526 1903.54L69.3062 1905.96L63.3474 1909.5L57.4166 1914.08L51.5983 1919.56L46.0049 1925.83L40.7206 1932.8L35.858 1940.31L31.4732 1948.23L27.6506 1956.44L24.4463 1964.82L21.9447 1973.16L20.1739 1981.4L13.6529 1983.82L10.28 1987.47L9.35246 1994.64L8.95893 1997.73L8.73407 2004.03L8.62165 2007.46L8.64973 2013.56L8.95894 2017.24L9.46486 2023.42L11.4605 2032.33L14.6367 2040.06L17.4756 2045.15L18.5999 2047.17L23.2095 2053.97L29.0278 2059.17L35.9705 2062.58L43.9249 2064.01L52.7508 2063.39L62.2793 2060.61L72.2856 2055.66L82.5449 2048.61L92.8042 2039.53L102.726 2028.65L112.058 2016.23L120.518 2002.59L127.855 1988.12L133.87 1973.22L138.423 1958.32L141.374 1943.85L142.695 1930.22L142.358 1917.74M36.7293 1925.04L30.4894 1934.71L30.1241 1935.36L24.8679 1944.89L19.9491 1955.43L15.8453 1966.17M17.1664 2022.8L20.7079 2027.81L25.149 2031.52L30.4332 2033.82L36.4483 2034.61L43.1098 2033.79L50.2492 2031.38L57.7258 2027.33L65.3711 2021.76L72.9883 2014.71L80.3806 2006.36L87.3232 1996.94L93.6475 1986.63L99.1847 1975.75L103.794 1964.56L107.336 1953.38L109.725 1942.5M59.1031 2013.08L56.5172 2012.12L53.7908 2012.09L47.3822 2012.04L46.4265 2012.43L38.2753 2015.64L30.5175 2022.44L25.1771 2031.54L23.0409 2041.66M159.701 1957.9L157.171 1952.73L150.79 1947.81L141.374 1943.85L130.3 1941.49L119.197 1941.01L109.697 1942.53M101.939 1886.2L95.0248 1893.9L90.8367 1903.6L89.9092 1913.91L92.3826 1923.36L97.8355 1930.67M160.741 1945.23L160.263 1933.56L157.789 1926.82L155.737 1915.83L152.196 1906.49L147.361 1898.96L141.093 1892.86L132.38 1889.83L122.374 1890.33L112.536 1894.32L104.244 1901.27L98.6788 1910.15L96.908 1918.38L96.6269 1919.68L98.0604 1927.35L98.2853 1928.53M54.9151 2013.72L46.7919 2017.63L40.3271 2024.94L36.4483 2034.66L35.7456 2045.43L38.3877 2055.66M55.9269 1987.64L48.2535 1983.9L38.8093 1981.43L28.9435 1980.56L20.1458 1981.43M160.263 1933.56L158.295 1923.22L155.737 1915.83L149.497 1910.04L140.419 1906.69L129.738 1906.3L118.973 1908.97L109.725 1914.28L103.288 1921.45L100.478 1929.43M76.7828 1894.1L75.1526 1903.49L76.4456 1913.55L80.5774 1922.85L86.8735 1930.05L90.8086 1929.37L94.4907 1929.57L97.8636 1930.64L100.225 1932.21L100.281 1932.38M101.265 1935.89L101.237 1935.81L101.124 1935.19L101.152 1934.77L101.04 1933.81L100.955 1933.22L100.927 1932.86L100.506 1929.51L98.9317 1924.12L96.5707 1919.68L93.5631 1916.27L89.9373 1913.94L85.8054 1912.73L81.252 1912.62L76.4175 1913.58L71.3862 1915.57L66.2706 1918.55L61.155 1922.43L56.1237 1927.12L51.2892 1932.52L46.7076 1938.51L42.4633 1945L38.6688 1951.89L35.3802 1959L32.6256 1966.25L30.4894 1973.5L28.9997 1980.61L28.1846 1987.44L28.1003 1993.88L28.7187 1999.78L30.0678 2005.01L32.1197 2009.48L34.8742 2013.08L38.2753 2015.69L42.2947 2017.24L46.82 2017.66L51.767 2016.93L57.9226 2013.81L59.1874 2013.16L59.2999 2013.11M142.358 1917.74L131.452 1916.78L120.434 1918.52L110.934 1922.74L104.272 1928.78L102.136 1933.84L101.714 1934.88L101.349 1935.75M62.5603 2011.93L58.7096 2018.42L57.782 2027.33L60.0025 2037.48L65.0901 2047.4L72.3137 2055.63L80.6055 2061L88.7849 2062.77L95.6712 2060.78M79.1439 1955.49L74.9839 1961.78L71.2737 1968.47L68.0695 1975.39L65.4555 1982.44M61.0144 2008.64L56.0956 2003.04L48.3097 1999.36L38.725 1998.15L28.6905 1999.64L19.668 2003.61L12.894 2009.48L9.35244 2016.39L9.46486 2023.37M50.6708 1907.9L43.5033 1916.02L36.7574 1925.02L37.2915 1928.02L40.7488 1932.72L46.7076 1938.51L54.3248 1944.5L62.5041 1949.86L70.037 1953.8L75.8553 1955.74L79.172 1955.51L83.7254 1949.72L88.56 1944.55M112.002 1879.06L103.401 1880.07L95.5026 1884.77L89.4032 1892.55L86.0303 1902.33L85.8054 1912.73L88.7849 1922.29L94.5188 1929.65L98.8755 1932.04L100.421 1932.91M59.7496 2012.88L59.6652 2012.85L58.1193 2012.15L53.6221 2010.07L52.4697 2010.04L44.3184 2009.82L34.8461 2013.05L26.5825 2019.35L20.7079 2027.86L18.0377 2037.33L18.9091 2046.47L23.1814 2054M76.7828 1894.1L83.3039 1892.58L89.4594 1892.5L95.081 1893.9L100.056 1896.8L104.244 1901.21L107.505 1907.06L109.781 1914.28L110.962 1922.71L110.934 1932.18L109.725 1942.5L103.148 1945.76L101.096 1955.06L98.0604 1964.62L94.1253 1974.18L89.4032 1983.45L84.0347 1992.25L78.1039 2000.32L71.8078 2007.46L65.2868 2013.53L58.7377 2018.39L52.301 2021.9L46.1454 2024.07L43.166 2033.74L43.3347 2044.53L46.6795 2054.9L52.6945 2063.33L60.5085 2068.67L70.2619 2065.95L78.6098 2067.55L86.0584 2065.27L90.5275 2063.17L95.5588 2060.78L105.256 2054.28L114.869 2045.96L124.172 2035.99L132.858 2024.6L140.7 2012.09L141.065 2011.45L147.165 1999.45L147.502 1998.77L153.011 1985.05L157.087 1971.31L159.673 1957.93L160.712 1945.25L158.239 1939.24L157.761 1926.84L151.521 1921.28L142.302 1917.74L140.391 1906.72L137.018 1897.39L132.324 1889.88L126.477 1884.32L119.619 1880.72L110.54 1881.65L103.401 1880.07L95.6994 1880.35L88.5319 1884.93L81.1676 1886.73L76.7828 1894.1ZM76.7828 1894.1L70.037 1896.96L63.2068 1901.1L56.3766 1906.41L49.7151 1912.73L43.3066 1919.99L37.2634 1928L31.67 1936.62L26.6668 1945.73L22.282 1955.18L18.5999 1964.76L15.7048 1974.35L13.6248 1983.79L12.4443 1992.9L12.1913 2001.53L12.894 2009.48L14.5524 2016.59L17.1664 2022.75L14.1027 2031.49L18.0658 2037.25L23.0409 2041.55L24.3901 2051.22L30.9111 2054.37L38.3596 2055.63L43.8406 2063.98L51.4578 2069.24L60.5085 2068.67L68.997 2070.19L78.6098 2067.55L88.7005 2062.74L98.9879 2055.83L109.219 2046.95L119.113 2036.27L128.389 2024.07L136.765 2010.63L144.017 1996.35L149.919 1981.68L154.332 1966.98L157.115 1952.67L158.267 1939.15L151.971 1933.87L142.611 1930.13L131.565 1928.47L120.434 1929.2L110.849 1932.16L104.132 1936.85L103.064 1945.68L100.253 1950.12L99.0441 1955.49L98.482 1958.01L95.8961 1966.11L92.5794 1974.2L88.5881 1982.08L84.0066 1989.52L79.0034 1996.38L73.6629 2002.45L68.1257 2007.65L62.6728 2011.7L62.5603 2011.76L61.9982 2011.93L61.5766 2012.18L60.2836 2013.02L59.8901 2013.25L56.995 2014.85L52.2167 2021.82L50.2211 2031.24L51.3735 2041.83L55.5615 2052.09L62.1668 2060.5L70.2338 2065.86L80.465 2060.92L90.9491 2053.81L101.405 2044.64L111.552 2033.65L121.053 2021.06L129.653 2007.23L137.13 1992.56L143.229 1977.47L147.783 1962.34L150.706 1947.67L151.943 1933.79L151.521 1921.11L149.469 1909.89L145.928 1900.39L141.037 1892.75L134.966 1887.07L127.911 1883.39L124.397 1882.18L119.619 1880.55L111.974 1878.92L103.738 1879.23L95.6431 1880.18L87.52 1882.18L82.3482 1884.43L79.1439 1885.83L73.8878 1889.07L70.7116 1891.01L65.7646 1894.6L58.0912 1900.59L50.6146 1907.73L49.6589 1912.62L51.5421 1919.34L56.0675 1926.96L62.5885 1934.38L70.1494 1940.53L77.6823 1944.52L84.0909 1945.82L88.5038 1944.33L93.535 1939.86L98.5663 1936.29L98.7069 1936.2L100.787 1935.08L100.984 1934.99M23.0409 2041.61L28.9716 2044.33L35.7737 2045.35L43.3066 2044.56L51.4297 2041.94L59.9463 2037.48L68.6878 2031.21L77.3731 2023.25L85.8055 2013.81L93.7318 2003.07L100.955 1991.35L107.252 1978.93L112.48 1966.17L116.471 1953.41L119.141 1941.01L120.434 1929.26L120.35 1918.5L118.916 1908.97L116.246 1900.84L112.423 1894.27L107.589 1889.38L101.883 1886.2M100.927 1934.71L100.337 1934.69L94.4064 1934.26L86.8173 1930.1L82.7136 1931.62L78.4974 1933.93L74.3094 1936.99L70.1775 1940.73L66.2144 1945.03L62.476 1949.84L59.0469 1955.06L55.955 1960.63L53.2848 1966.39L51.0643 1972.27L49.3778 1978.11L48.2254 1983.87L47.6351 1989.41L47.6633 1994.61L48.2816 1999.39L49.4902 2003.63L57.3042 2007.29L61.5485 2012.26M68.1538 2007.79L65.2306 2013.58L65.3992 2021.79L68.6878 2031.26L74.6748 2040.68L82.5168 2048.63L91.0335 2053.95L98.988 2055.94L105.284 2054.37M135.022 1887.18L129.541 1885.3L126.534 1884.26L116.949 1885.02L107.673 1889.4L100.028 1896.82L95.081 1906.21L93.5631 1916.22L95.4464 1924.85L95.5869 1925.44L98.3696 1929.29L99.3253 1930.64M57.3323 2013.39L55.674 2013.42L50.9237 2013.44L42.2947 2017.24L35.0991 2024.38L30.4332 2033.88L28.9435 2044.42L30.8548 2054.48L35.8861 2062.66L43.2785 2067.8M79.2001 1886L73.5224 1890.05L65.8208 1894.77L63.2068 1901.15L63.3474 1909.44L66.2706 1918.55L71.5829 1927.12L78.4974 1933.93L86.0584 1938L93.1415 1938.85L98.6506 1936.48L98.7912 1936.4M63.6847 1979.6L58.6815 1976.06L51.0924 1972.29L41.9574 1968.84L32.5975 1966.22L24.4463 1964.82L18.5999 1964.82L15.8453 1966.17L12.5848 1976.9L10.8421 1984.89L10.28 1987.47M61.5485 2003.21L60.1993 1997.98L55.3929 1993.18L47.6914 1989.47L38.1347 1987.44L28.1565 1987.42L19.162 1989.38L12.4443 1993.01L8.90271 1997.79M73.691 2002.59L71.7797 2007.48L73.0445 2014.71L77.4012 2023.28L84.3157 2031.99L92.748 2039.53L101.49 2044.78L109.247 2047.03L114.925 2046.02M20.1739 1981.4L19.162 1989.33L18.9934 1996.8L19.6398 2003.69L21.1296 2009.85L23.4625 2015.1L26.5825 2019.35L30.4894 2022.47L35.0991 2024.38L40.3271 2024.94L46.0611 2024.15L51.7108 2016.93L56.995 2015.02M58.1474 1900.76L56.3766 1906.41L57.4167 1913.97L61.155 1922.37L67.0857 1930.44L74.3375 1936.96L81.8704 1941.01L88.5881 1942.05L93.6194 1940.05M79.0315 1996.52L78.0477 2000.37L80.3806 2006.42L85.8054 2013.86L93.6194 2021.68L102.67 2028.65L111.608 2033.77L119.141 2036.35L124.201 2036.07M63.6847 1979.6L61.9139 1985.87L60.7614 1992.03L62.1668 1996.47M84.0347 1989.66L83.9503 1992.28L87.3232 1996.94L93.7599 2003.1L102.417 2009.85L112.03 2016.2L121.137 2021.2L128.417 2024.15L132.914 2024.66M88.6162 1982.22L89.3751 1983.48L93.6756 1986.66L101.012 1991.35L110.4 1996.92L120.462 2002.54L129.71 2007.34L136.765 2010.69L140.7 2012.09M43.4752 1916.05L43.2785 1920.01L45.9768 1925.75L51.2329 1932.46L58.3161 1939.21L66.2144 1944.97L73.7472 1948.91L79.8466 1950.51L83.7255 1949.61M63.4879 1989.52L61.942 1985.9L57.0512 1981.91L49.4341 1978.17L40.1304 1975.22L30.5176 1973.47L21.9728 1973.19L15.761 1974.4L12.641 1976.9M157.143 1971.31L154.388 1967.04L147.867 1962.48L138.451 1958.3L127.461 1955.12L116.555 1953.43L107.336 1953.43L101.068 1955.09L98.5663 1958.16M56.4891 2012.15L53.6221 2010.07L51.261 2007.2L41.8169 2006.7L32.0916 2009.45L23.4625 2015.1L17.1664 2022.86M30.5175 1934.69L31.6981 1936.65L35.858 1940.25L42.4633 1945L50.5865 1950.2L59.0469 1955.12L66.5797 1959L72.1451 1961.3L74.9839 1961.78M68.0976 1975.36L66.0176 1973.33L60.8739 1970.21L53.2848 1966.39L44.3466 1962.46L35.3521 1958.97L27.6225 1956.41L22.282 1955.18L19.9772 1955.4M153.011 1985.05L149.975 1981.74L143.286 1977.58L133.87 1973.16L123.076 1969.17L112.536 1966.17L103.766 1964.59L98.0042 1964.62L95.9523 1966.22M55.9269 1987.64L55.3648 1993.15L55.421 1998.32L56.0675 2003.07L57.3042 2007.29L59.1312 2010.86L60.5928 2012.6M38.3877 2055.66L46.6795 2054.96L55.6177 2052.2L65.0338 2047.4L74.6748 2040.62L84.2876 2031.97L93.6194 2021.62L102.417 2009.85L110.4 1996.92L117.342 1983.23L123.076 1969.17L127.405 1955.12L130.272 1941.46L131.593 1928.56L131.368 1916.75L129.682 1906.3L126.618 1897.44L122.289 1890.3L116.864 1884.99L110.512 1881.56L101.911 1886.17L95.4745 1884.68L88.4757 1884.88L83.2195 1892.55L80.6898 1902.22L81.2239 1912.54L84.7654 1922.04L90.7524 1929.37L98.3696 1933.56L100.646 1933.7M87.5762 1882.35L81.1676 1886.73L73.5224 1890.05L70.037 1897.02L69.2781 1905.93L71.3862 1915.57L76.1083 1924.57L82.7136 1931.62L90.2746 1935.75L94.4064 1934.26L98.3696 1933.62L100.646 1933.76M60.5928 2012.6L59.1312 2010.86L51.261 2007.2L49.4621 2003.61L39.9336 2002.79L30.0116 2004.95L21.1014 2009.82L14.5243 2016.68L11.1513 2024.55L11.4043 2032.33M24.896 1944.86L26.6949 1945.76L31.5013 1948.21L38.6969 1951.86L47.2697 1956.22L55.9832 1960.66L63.5441 1964.51L68.8846 1967.21L71.3018 1968.44M147.502 1998.77L144.045 1996.44L137.186 1992.67L127.826 1988.03L117.342 1983.23L107.308 1978.93L99.1847 1975.75L94.0972 1974.15L92.6356 1974.32M100.871 1935.28L99.8312 1935.64L97.6669 1936.4L93.0853 1938.85L88.5038 1942.08L84.0346 1946.04L79.7342 1950.62L75.7147 1955.77L72.0326 1961.36L68.744 1967.29L65.9051 1973.45L63.5722 1979.71L65.343 1982.55L63.3755 1989.64L62.0544 1996.58L61.4079 2003.3L61.4923 2009.45L61.5204 2009.65L61.8577 2012.01L61.9139 2012.18M152.224 1906.47L145.984 1900.51L137.074 1897.33L126.674 1897.44L116.302 1900.84L107.448 1907.06L101.377 1915.21L98.8755 1924.06L99.8874 1930.47L99.9436 1930.86L100.168 1932.27M100.309 1950.23L100.703 1946.97L101.208 1942.7L101.265 1935.89L101.265 1935.73L101.124 1935.14L100.927 1934.71L100.646 1933.76L100.393 1932.89L100.253 1932.41L100.14 1932.24L99.3253 1930.64L98.2009 1928.5L95.5588 1925.47L92.3826 1923.36L88.7849 1922.23L84.7935 1922.07L80.5212 1922.85L76.0802 1924.54L71.5548 1927.1L67.0294 1930.44L62.5603 1934.52L58.288 1939.24L54.2686 1944.5L50.5584 1950.17L47.2135 1956.22L44.3185 1962.48L41.9012 1968.84L40.0461 1975.19L38.7531 1981.43L38.1066 1987.42L38.0785 1993.07L38.6969 1998.24L39.9618 2002.82L41.845 2006.73L44.3465 2009.85L47.3822 2012.09L50.9518 2013.42L54.9432 2013.75L57.3323 2013.39L58.2599 2013.25L59.075 2013.11L59.2718 2013.08L59.7215 2012.91L60.5647 2012.63L61.6047 2012.38L62.0544 2012.26L62.5885 2011.95L62.7009 2011.9M61.6328 2009.54L61.6047 2009.34L60.2836 2003.52L55.4491 1998.29L47.7195 1994.61L38.1347 1993.01L28.1003 1993.77L19.0215 1996.78L12.2194 2001.55L8.62163 2007.4L9.35244 2016.39L11.1794 2024.52L14.0746 2031.52L14.5805 2040.01L18.9091 2046.41L24.362 2051.25L28.9716 2059.12L36.1391 2064.15L43.2784 2067.69L51.4578 2069.24L60.0588 2070.7L68.997 2070.19M97.7231 1936.4L90.3027 1935.73L86.0865 1938.03L81.8703 1941.07L77.7385 1944.75L73.7753 1949.05L70.037 1953.85L66.5798 1959.05L63.516 1964.59L60.8739 1970.33L58.6815 1976.17L57.0231 1981.99L55.8988 1987.72L60.7333 1992.11L60.1712 1998.01L60.2555 2003.61L60.9863 2008.72L61.6328 2010.89L61.942 2011.93" stroke="#4F00DE" stroke-linecap="round" stroke-linejoin="round"/>
<path d="M203.533 3467.62L186.098 3453.61M130.923 3411.76L112.737 3398.71M109.865 3404.31L129.283 3415.18M188.15 3450.39L206.883 3462.29M183.159 3456.14L198.816 3471.86M117.112 3394.19L133.521 3408.96M108.771 3418.19L96.191 3435.83L98.0371 3443.63L101.524 3451.62L106.447 3459.56L112.737 3467.21L120.121 3474.32L128.394 3480.61L137.213 3485.81L146.307 3489.84L155.4 3492.51L164.152 3493.74L172.219 3493.54L179.398 3491.9L188.081 3480.82L191.568 3476.37L192.731 3474.87M108.498 3410.88L95.986 3428.52L83.6793 3445.81L71.5775 3462.77L71.7144 3470.02L59.8178 3486.7L48.1265 3503.04L36.6402 3519.11L25.359 3534.9L14.283 3550.42L3.41192 3565.67L4.91604 3573.26L7.92445 3581.05L12.3686 3588.71L18.0434 3596.02L24.812 3602.72L32.4695 3608.54L40.7424 3613.32L49.357 3616.88L57.9718 3619.13L66.313 3620.02L74.1074 3619.47L84.6364 3605.94L85.5935 3604.71L96.3278 3590.9L97.285 3589.67L108.224 3575.58L109.181 3574.35L121.283 3558.76L133.658 3542.9L145.281 3527.99L146.238 3526.76L153.417 3525.05L166.271 3508.65L172.356 3505.64L183.911 3490.94L185.483 3488.96L194.577 3477.33L197.243 3473.91L198.747 3471.93M109.865 3404.31L108.361 3406.43L97.4217 3421.88L95.9176 3424.07L85.1834 3439.18L83.7475 3445.74L83.9527 3452.99L85.7987 3460.72L89.2172 3468.72L94.0716 3476.65L100.293 3484.24L107.609 3491.28L115.745 3497.5L124.497 3502.7L133.521 3506.66L142.546 3509.26L151.229 3510.49L159.297 3510.22L166.476 3508.58L179.535 3491.83L185.62 3488.82L190.406 3484.58L195.465 3478.08L199.773 3472.61L203.738 3467.56M189.244 3446.63L208.593 3456.07M179.467 3457.91L192.731 3474.87M188.56 3437.81L175.501 3454.91L176.116 3458.6M122.856 3390.98L137.008 3406.98M141.111 3405.75L138.786 3408.96L134.752 3414.5L132.769 3417.23L128.599 3422.98M100.293 3416.35L97.7635 3419.9L88.0549 3433.64L85.1149 3439.32L83.6108 3441.51L73.0818 3456.34L71.6459 3462.91L59.8178 3479.59L48.1947 3496L36.7769 3512.06L25.5641 3527.86L24.4017 3529.5L14.4879 3543.38L14.4197 3550.63L15.9238 3558.28L19.0005 3566.08L23.4446 3573.8L29.1877 3581.12L36.0247 3587.82L43.7507 3593.7L52.0918 3598.55L60.7751 3602.18L69.4581 3604.5L77.8677 3605.39L85.7304 3604.91L92.7724 3603L103.302 3589.53L104.464 3588.02L115.198 3574.28L116.36 3572.78L127.368 3558.76L128.53 3557.26L139.743 3542.9L140.906 3541.4L153.486 3525.26L159.571 3522.18L170.852 3507.76L172.424 3505.77L177.21 3501.47L185.688 3490.66L190.269 3484.85M180.15 3405L172.014 3415.39L159.16 3432.62L146.649 3449.37M88.0549 3433.57L85.5252 3437.13L83.4741 3440L76.0216 3450.53L73.0134 3456.21L71.4408 3458.39L61.1852 3472.89L59.6811 3479.45L59.8178 3486.7L61.527 3494.42L64.8089 3502.36L69.5264 3510.22L75.543 3517.74L82.722 3524.64L90.7213 3530.73L99.3361 3535.79L108.224 3539.62L117.112 3542.15L125.727 3543.24L133.727 3542.9L140.837 3541.12L146.922 3538.05L159.502 3521.98L164.288 3517.67L174.681 3504.41L177.142 3501.33M189.38 3442.39L208.729 3449.09M175.091 3458.8L185.552 3476.37M76.0216 3450.6L73.4919 3454.15L71.4408 3457.03L64.1936 3467.28L61.1852 3472.96L59.6126 3475.14L49.5622 3489.37L47.9896 3491.55L38.1443 3505.43L36.5717 3507.62L26.9316 3521.23L25.359 3527.79V3535.04L26.9316 3542.69L30.0082 3550.49L34.5206 3558.21L40.3321 3565.6L47.2376 3572.37L55.0318 3578.32L63.4415 3583.17L72.1245 3586.86L80.876 3589.19L89.3539 3590.14L97.2165 3589.67L104.259 3587.82L110.275 3584.61L120.668 3571.34L122.24 3569.36L132.838 3555.82L134.41 3553.84L145.213 3540.03L146.785 3538.05L151.571 3533.74L161.759 3520.82L164.22 3517.67M141.999 3445.61L154.101 3429.27L166.886 3412.04L171.809 3399.46M129.624 3389L141.111 3405.75M187.739 3411.49L176.663 3419.42L163.81 3436.58L151.708 3452.72M64.1936 3467.21L61.6638 3470.77L59.6126 3473.64L52.5706 3483.55L50.0407 3487.11L47.9896 3489.98L41.1525 3499.55L38.1443 3505.23L36.6402 3511.79V3519.04L38.281 3526.7L41.4261 3534.56L46.0069 3542.35L51.8869 3549.81L58.8607 3556.64L66.7233 3562.66L75.2012 3567.58L83.9527 3571.34L92.7042 3573.73L101.182 3574.76L109.113 3574.35L116.224 3572.5L122.24 3569.36L127.026 3564.98L134.547 3555.41L139.196 3549.53L146.922 3539.62L149.11 3536.88L151.571 3533.74M55.1003 3634.58L62.8945 3633.97L74.1756 3619.47L81.2178 3617.56L91.5419 3604.3L92.7042 3602.79L98.7208 3599.58L108.908 3586.59L110.481 3584.61L115.267 3580.23L122.582 3570.93L127.231 3564.98M188.56 3437.81L207.362 3441.57M62.8262 3633.97L69.8 3631.99L79.9189 3619L81.0811 3617.49L87.0978 3614.28L97.0798 3601.56L98.6524 3599.58L103.438 3595.2L112.668 3583.38L115.13 3580.23M145.828 3405.41L137.35 3388.52M69.8682 3632.06L75.8849 3628.77L85.6619 3616.33L87.2345 3614.28L92.0205 3609.83L98.8575 3601.08L101.045 3598.28L103.507 3595.13M137.897 3441.37L148.905 3426.46L161.622 3409.17L163.194 3394.81M143.435 3446.91L133.043 3456.82L120.121 3474.26L107.404 3491.35L94.9604 3508.17L82.722 3524.64L70.6888 3540.85L58.9289 3556.71L47.3743 3572.3L36.0247 3587.61L24.8804 3602.66L13.8727 3617.49M138.923 3442.6L125.59 3449.64L112.737 3467.14L100.157 3484.31L87.7815 3501.13L75.6115 3517.67L63.6466 3533.87L51.9551 3549.81L40.4688 3565.46L29.1877 3580.85L18.1116 3595.96L7.17231 3610.79M135.094 3438.02L119.232 3441.98L106.447 3459.49L93.9349 3476.72L81.6281 3493.6L69.5264 3510.22L57.6984 3526.49L46.0754 3542.49L34.6573 3558.21L23.4446 3573.67L12.3686 3588.84L1.4975 3603.75M132.017 3433.16L114.241 3433.99L101.524 3451.56L89.0805 3468.79L76.8422 3485.74L64.8089 3502.36L53.0491 3518.7L41.4944 3534.7L30.1449 3550.42L19.0005 3565.87L7.99272 3581.05L-2.80972 3595.96M75.8166 3628.77L80.6026 3624.33L87.2345 3615.85L91.8837 3609.9M194.44 3418.53L180.766 3423.73L167.844 3440.89L156.973 3455.32M204.422 3433.85L186.851 3433.1L173.86 3450.19L167.57 3458.46M46.7591 3633.76L57.9718 3619.13L69.3897 3604.3L81.0127 3589.19L92.8409 3573.8L104.874 3558.15L117.112 3542.22L129.624 3525.94L142.341 3509.4L155.332 3492.51L168.527 3475.35L165.451 3461.2L164.767 3458.12M38.2127 3631.58L49.357 3616.95L60.7066 3602.04L72.2612 3586.86L84.0211 3571.41L95.986 3555.68L108.224 3539.69L120.668 3523.35L133.316 3506.73L146.238 3489.78L159.366 3472.55L159.229 3456.41M200.046 3426.12L184.184 3428.38L171.194 3445.47L162.237 3457.3M134.342 3436.86L143.435 3424.41L156.152 3407.12L154.306 3391.39M29.6664 3628.02L40.8107 3613.32L52.0918 3598.35L63.5782 3583.1L75.2696 3567.58L87.1661 3551.79L99.3361 3535.72L111.711 3519.38L124.291 3502.7L137.145 3485.74L150.204 3468.44L153.691 3453.95M137.008 3406.98L134.752 3410.06L132.633 3413L130.513 3415.94L128.53 3418.6M21.4619 3623.3L32.5379 3608.54L43.7507 3593.49L55.1685 3578.18L66.7916 3562.59L78.6197 3546.73L90.7213 3530.59L103.028 3514.18L115.54 3497.43L128.325 3480.41L141.316 3463.04L148.358 3450.67M181.244 3457.09L182.475 3455.45L184.731 3452.51L186.919 3449.64L189.244 3446.63M131.607 3432.21L138.171 3423.18L150.819 3405.82L145.623 3389.27M110.686 3425.99L114.241 3433.99L119.232 3441.98L125.59 3449.71L133.043 3456.82L141.384 3463.11L150.272 3468.38L159.434 3472.48L168.596 3475.21L177.347 3476.51L185.483 3476.37M41.221 3499.69L38.6913 3503.31L30.0765 3515.48L26.9998 3521.16L25.4273 3523.35L15.9922 3536.68L14.4197 3543.24L3.54863 3558.49L3.48035 3565.67L-7.18555 3580.64L-5.74969 3588.23M30.0765 3515.48L27.5468 3519.11L25.4957 3521.98L19.1372 3531L16.0605 3536.75L5.25789 3551.99L3.61706 3558.56L-7.04884 3573.53L-7.18555 3580.71M129.556 3414.57L131.402 3412.04L133.59 3408.96M19.0689 3531L16.5391 3534.63L8.26631 3546.25L5.18962 3551.99L3.61706 3554.18L-5.47628 3566.97L-7.11711 3573.53M8.26631 3546.25L5.73662 3549.87L3.6855 3552.81L-2.33116 3561.29L-5.40784 3567.03M52.6388 3483.55L49.6306 3489.23L48.1265 3495.79L48.1947 3503.04L49.8357 3510.77L53.0491 3518.63L57.6984 3526.42L63.6466 3533.87L70.7571 3540.71L78.6882 3546.73L87.2345 3551.72L96.0543 3555.48L104.874 3557.94L113.421 3558.97L121.351 3558.56L128.462 3556.78L134.479 3553.63L139.265 3549.26M129.693 3427.49L133.18 3422.7L145.828 3405.34M112.737 3398.71L109.045 3403.9L108.224 3405.06L100.225 3416.28L97.285 3421.88L95.9176 3428.45L96.191 3435.69L83.816 3452.99L71.7144 3469.95L73.4919 3477.67L61.527 3494.29L49.7673 3510.63L38.2127 3526.7L26.8631 3542.49L15.7186 3558.01L4.77933 3573.26L-5.95484 3588.23L-3.01487 3595.96L1.3608 3603.54L6.96716 3610.79L13.6675 3617.42L21.2567 3623.24L29.4612 3627.95L38.0076 3631.51L46.5539 3633.7L54.8951 3634.52L66.1763 3619.95L77.6626 3605.12L89.3539 3590.01L101.251 3574.62L113.352 3558.97L125.659 3543.04L138.171 3526.83L146.17 3526.56L158.955 3510.08L172.014 3493.33L185.278 3476.24L192.525 3474.67L198.61 3471.73L203.396 3467.49L206.678 3462.15L208.456 3455.86L208.593 3448.89L207.157 3441.44L204.217 3433.71L199.841 3425.99L194.235 3418.46L187.534 3411.35L179.945 3404.93L171.672 3399.32L162.989 3394.74L154.169 3391.32L145.486 3389.13L137.145 3388.31L129.488 3388.86L122.719 3390.77L117.044 3394.06L112.737 3398.71ZM112.737 3398.71L109.797 3404.31L108.429 3410.88L108.703 3418.19L110.617 3425.99L97.9687 3443.56L85.5935 3460.85L73.4237 3477.81L76.7737 3485.74L81.5597 3493.6L87.6446 3501.19L94.892 3508.17L102.96 3514.32L111.643 3519.45L120.599 3523.35L129.556 3525.94L138.171 3527.11L150.956 3510.63L163.946 3493.81L177.21 3476.65L169.963 3458.94L167.365 3458.53L164.699 3458.12L162.169 3457.37L159.229 3456.48L156.836 3455.39L153.691 3453.95L151.571 3452.72L148.29 3450.8L146.512 3449.44L143.299 3446.98L141.863 3445.61L138.786 3442.67L137.76 3441.37L134.957 3438.02L134.205 3436.86L131.881 3433.16L131.47 3432.21L129.761 3428.31L129.556 3427.49L128.53 3423.59V3423.11V3422.91L128.325 3419.15L128.462 3418.6L129.146 3415.18L129.488 3414.57L130.923 3411.76L133.521 3408.96L136.94 3406.91L141.042 3405.68L145.691 3405.27L150.751 3405.75L156.084 3407.05L161.485 3409.1L166.818 3411.9L171.878 3415.32L176.527 3419.29L180.629 3423.66L184.047 3428.31L186.714 3433.03L188.491 3437.75L189.312 3442.33L189.175 3446.57L188.081 3450.33L186.03 3453.54L184.8 3454.63L183.09 3456.07L181.176 3456.96L179.398 3457.78L177.074 3458.26L176.116 3458.46L175.022 3458.67H172.493H170.1M184.868 3454.7L185.894 3453.4L188.218 3450.39M128.462 3419.22L112.737 3412.65L108.498 3410.88M189.38 3442.39L186.987 3445.54L184.868 3448.34L182.817 3451.01L178.441 3456.68L177.074 3458.46M172.493 3458.87L173.929 3456.96L175.501 3454.91L173.792 3450.19L171.194 3445.47L167.844 3440.89L163.81 3436.58L159.229 3432.69L154.238 3429.27L148.973 3426.53L143.572 3424.48L138.307 3423.25L133.248 3422.84L128.736 3423.46L128.325 3423.59L108.84 3418.26M110.686 3425.99L129.146 3428.24L129.898 3428.31" stroke="#4F00DE" stroke-linecap="round" stroke-linejoin="round"/>
<g filter="url(#filter0_f_5730_137261)">
<circle cx="1450.37" cy="4138.79" r="287.885" fill="#250069" fill-opacity="0.4"/>
</g>
<path d="M1395.45 3977.59L1387.83 4004.15L1380.08 4031.24L1372.15 4058.86L1364.09 4087.06M1473.07 4051.95L1452.77 4040.54L1431.8 4028.78L1410.17 4016.66L1387.83 4004.15L1373.69 4007.72L1365.94 4034.33L1358.05 4061.42L1349.99 4089.08M1381.31 3981.64L1367.7 3985.56L1360.12 4011.2L1352.37 4037.32L1344.48 4063.93L1336.47 4091.07M1367.7 3985.56L1354.57 3989.3L1346.99 4014.5L1339.29 4040.19L1331.44 4066.35L1323.43 4093.01M1354.53 3989.3L1341.88 3992.92L1334.35 4017.67L1326.69 4042.92L1318.84 4068.6L1310.87 4094.77M1387.48 4098.56L1395.19 4070.71L1402.77 4043.4L1410.17 4016.62L1417.44 3990.36M1479.46 4026.53L1459.42 4014.85L1438.76 4002.83L1417.44 3990.41L1395.45 3977.59L1381.31 3981.64L1373.69 4007.72L1360.08 4011.15L1346.95 4014.46L1334.31 4017.67L1322.1 4020.76L1314.44 4045.56L1306.64 4070.8L1298.71 4096.53M1410.08 4109.75L1417.44 4082.26L1424.66 4055.3L1431.75 4028.82L1438.71 4002.87M1432.02 4120.54L1439.07 4093.36L1445.98 4066.71L1452.77 4040.54L1459.42 4014.85M1453.21 4131.02L1459.95 4104.19L1466.55 4077.85L1473.03 4051.99L1479.42 4026.62M1341.88 3992.92L1329.68 3996.4L1322.15 4020.76M1453.21 4131.02L1431.97 4120.54L1410.08 4109.75L1387.44 4098.6L1364.04 4087.06L1349.95 4089.13L1336.38 4091.11L1323.34 4093.01L1310.78 4094.81L1298.67 4096.57M1459.95 4104.15L1439.02 4093.36L1417.44 4082.21L1395.14 4070.71L1372.15 4058.82L1358.01 4061.42L1344.44 4063.89L1331.36 4066.27L1318.76 4068.56L1306.64 4070.76M1349.99 4089.08L1373.12 4100.36L1395.54 4111.29L1417.26 4121.86L1438.32 4132.12L1453.21 4131.02M1323.38 4092.96L1346.07 4103.75L1368.05 4114.24L1389.37 4124.37L1403.03 4123.14L1417.22 4121.86L1431.93 4120.54M1310.87 4094.77L1333.34 4105.34L1355.14 4115.6L1368.14 4114.2L1381.62 4112.74L1395.63 4111.24L1410.17 4109.7M1298.76 4096.53L1321 4106.88L1333.34 4105.34L1346.11 4103.75L1359.37 4102.08L1373.16 4100.36L1387.48 4098.56M1336.42 4091.07L1359.33 4102.08L1381.53 4112.79L1403.07 4123.14L1423.96 4133.18L1438.32 4132.12M1321 4106.88L1342.59 4116.93L1355.1 4115.6L1376.25 4125.56L1389.42 4124.37L1410.12 4134.24L1423.96 4133.23M1342.59 4116.93L1363.56 4126.66L1376.29 4125.52L1396.82 4135.16L1410.17 4134.15M1363.56 4126.71L1383.91 4136.18L1396.82 4135.21M1466.55 4077.81L1445.94 4066.71L1424.66 4055.25L1402.72 4043.45L1380.08 4031.24L1365.94 4034.33L1352.32 4037.32L1339.24 4040.19L1326.64 4042.96L1314.48 4045.6" stroke="#4F00DE" stroke-linecap="round" stroke-linejoin="round"/>
<path d="M1352.24 2426.54L1445.33 2480.81L1535.25 2545.02M1364.86 2411.54L1445.33 2480.81L1528.62 2552.49M1534.43 2532.74L1445.33 2480.81L1357.19 2441.75M1380.67 2412.43L1445.4 2480.81L1514.89 2554.2M1494.57 2549.7L1445.4 2480.75L1370 2460.77M1389.46 2482.19L1445.33 2480.81L1472.45 2460.86M1448.49 2443.68L1445.4 2480.75L1469.51 2539.15M1352.24 2426.54L1348.34 2459.31L1352.49 2472.69L1347.88 2502.81L1356.6 2516.63L1350.24 2543.26L1344.04 2569.07L1338.04 2594.11L1332.24 2618.4L1334.74 2621.37L1337.9 2624.21L1341.42 2626.69L1345.06 2628.67L1348.51 2629.91L1371.06 2617.5L1394.29 2604.77L1418.21 2591.65L1442.89 2578.09L1468.31 2564.15L1494.56 2549.76L1514.83 2554.2L1528.69 2552.43L1535.26 2544.96L1534.44 2532.68L1526.7 2516.81L1512.96 2498.67L1494.38 2479.54L1445.28 2480.74L1400.85 2418.48L1380.55 2412.35L1364.74 2411.47L1354.87 2416.15L1352.24 2426.54ZM1352.24 2426.54L1357.25 2441.75L1369.93 2460.83L1363.16 2489.17L1356.6 2516.63L1369.98 2531.75L1386.95 2546.77L1405.95 2560.29L1425.21 2571.05L1442.95 2578.1L1457.6 2580.88L1485.87 2567.73L1498.1 2566.07L1528.75 2552.5M1357.25 2441.75L1352.49 2472.69L1363.16 2489.17L1379.55 2507.38L1400.3 2525.61L1423.48 2542.14L1446.85 2555.38L1468.25 2564.14L1485.74 2567.72L1514.77 2554.19M1326.57 2641.99L1330.02 2613.13M1369.93 2460.83L1389.47 2482.13L1414.24 2503.67L1441.78 2523.35L1469.45 2539.15M1494.44 2479.61L1472.45 2460.86L1448.48 2443.74L1424.13 2429.31M1326.57 2641.99L1330.63 2615.58L1330.02 2613.13L1333.53 2583.68M1400.9 2418.55L1424.07 2429.23L1445.34 2480.74L1526.7 2516.81M1326.57 2641.99L1332.24 2618.4L1330.63 2615.58L1334.76 2588.48L1333.54 2583.62L1337.11 2553.54L1340.75 2522.81L1344.51 2491.38M1494.57 2549.7L1469.45 2539.15L1446.91 2555.38L1425.14 2571.05L1404.08 2586.19L1383.71 2600.82L1364.04 2615L1344.99 2628.72L1326.51 2641.98M1389.46 2482.19L1379.55 2507.44L1369.98 2531.82L1360.68 2555.37L1351.72 2578.12L1343.03 2600.11L1334.67 2621.43L1326.56 2642.05M1326.57 2641.99L1341.35 2626.75L1356.64 2610.98L1372.5 2594.67L1388.87 2577.77L1405.88 2560.28L1423.48 2542.14L1441.78 2523.35L1445.33 2480.81L1354.99 2416.29M1513.02 2498.68L1445.34 2480.74L1414.24 2503.67L1400.3 2525.61L1386.89 2546.76L1373.94 2567.17L1361.45 2586.85L1349.42 2605.86L1337.77 2624.19L1326.51 2641.92M1381.49 2617.67L1377 2618.47L1351.44 2630.39L1348.44 2629.97L1326.51 2641.98M1353.76 2629.97L1351.51 2630.4L1326.57 2641.99M1348.34 2459.31L1344.51 2491.38L1347.88 2502.81L1343.41 2532.15L1339.01 2560.66L1334.76 2588.48L1338.04 2594.11L1343.1 2600.06L1349.48 2605.87L1356.7 2610.98L1364.1 2615.01L1371.05 2617.57L1377 2618.47L1403.16 2606.28L1430.01 2593.77L1457.53 2580.94L1467.94 2579.36L1491.47 2568.93L1497.91 2566.05M1340.75 2522.81L1343.34 2532.15L1350.17 2543.32L1360.68 2555.37L1374 2567.24L1388.93 2577.84L1404.14 2586.26L1418.27 2591.72L1430.07 2593.78L1438.64 2592.41L1462.44 2581.87L1468.07 2579.37M1337.11 2553.54L1339.01 2560.66L1344.04 2569.07L1351.73 2578.06L1361.51 2586.86L1372.5 2594.67L1383.77 2600.83L1394.29 2604.77L1403.17 2606.22L1409.7 2605.1L1433.9 2594.41L1438.58 2592.34M1409.77 2605.11L1406.17 2606.7L1381.5 2617.61L1378.99 2618.73L1353.76 2629.9L1352.47 2630.49L1326.57 2641.99" stroke="#4F00DE" stroke-linecap="round" stroke-linejoin="round"/>
<path d="M1340.86 581.672L1376.2 548.706L1412.17 515.164L1436.75 508.762L1461.01 502.489L1465.62 491.735L1469.98 481.365" stroke="#4F00DE" stroke-linecap="round" stroke-linejoin="round"/>
<path d="M1341.37 559.972L1367.87 535.199L1394.7 509.979L1430.35 500.825L1465.62 491.735" stroke="#4F00DE" stroke-linecap="round" stroke-linejoin="round"/>
<path d="M1511.39 546.785L1490.2 574.054L1468.5 602.028L1440.27 627.376L1412.49 652.341L1390.79 663.543L1370.05 674.233" stroke="#4F00DE" stroke-linecap="round" stroke-linejoin="round"/>
<path d="M1368.45 628.144L1376.65 594.794L1394.44 578.471L1412.37 561.955L1412.3 538.335" stroke="#4F00DE" stroke-linecap="round" stroke-linejoin="round"/>
<path d="M1489.37 488.471L1511.2 514.46L1533.41 540.897L1529.89 552.995L1502.49 588.842L1474.07 625.905L1454.93 642.996L1435.98 659.895L1412.49 652.342L1389.06 644.788L1382.85 619.887L1376.64 594.795L1358.53 588.138L1340.86 581.672L1333.37 576.935L1326.46 572.519" stroke="#4F00DE" stroke-linecap="round" stroke-linejoin="round"/>
<path d="M1374.6 652.598L1382.85 619.888" stroke="#4F00DE" stroke-linecap="round" stroke-linejoin="round"/>
<path d="M1477.79 683.322L1445.14 675.32L1435.99 659.894" stroke="#4F00DE" stroke-linecap="round" stroke-linejoin="round"/>
<path d="M1462.87 577.959L1437.59 569.957L1412.3 538.335L1412.17 515.163" stroke="#4F00DE" stroke-linecap="round" stroke-linejoin="round"/>
<path d="M1412.36 561.956L1437.58 569.958" stroke="#4F00DE" stroke-linecap="round" stroke-linejoin="round"/>
<path d="M1412.3 538.335L1437.26 546.208" stroke="#4F00DE" stroke-linecap="round" stroke-linejoin="round"/>
<path d="M1360.58 660.15L1346.18 640.883L1331.96 621.871L1328.44 618.799L1325.05 615.79L1325.76 593.962" stroke="#4F00DE" stroke-linecap="round" stroke-linejoin="round"/>
<path d="M1492.44 540.448L1477.78 559.076L1462.87 577.959L1425.61 611.694L1389.06 644.788L1374.6 652.597L1360.58 660.151" stroke="#4F00DE" stroke-linecap="round" stroke-linejoin="round"/>
<path d="M1527.97 658.742L1514.85 676.73L1499.48 683.515L1488.99 683.387L1477.78 683.323L1469.27 668.28L1435.98 659.894L1406.73 674.361L1379.27 687.996" stroke="#4F00DE" stroke-linecap="round" stroke-linejoin="round"/>
<path d="M1543.97 545.568L1545.25 567.396L1540.39 572.389L1535.39 577.51L1515.23 604.267L1494.55 631.665L1481.82 650.1L1469.27 668.279L1445.14 675.321L1423.37 685.627L1402.57 695.549" stroke="#4F00DE" stroke-linecap="round" stroke-linejoin="round"/>
<path d="M1370.31 679.035L1357.51 661.944L1345.47 643.828L1343.3 640.82L1335.1 630.578L1328.25 620.464L1325.05 615.791" stroke="#4F00DE" stroke-linecap="round" stroke-linejoin="round"/>
<path d="M1357.5 661.942L1344.83 644.979L1335.1 630.576" stroke="#4F00DE" stroke-linecap="round" stroke-linejoin="round"/>
<path d="M1536.74 529.117L1543.97 545.569L1552.23 583.208L1553.57 605.228L1547.17 623.343L1540.9 641.011L1527.97 658.742L1518.17 657.91L1507.8 657.014L1481.82 650.1L1454.93 642.995L1440.27 627.376L1425.61 611.693L1410.06 595.114L1394.44 578.471L1385.22 563.428L1376.2 548.705L1367.87 535.199L1359.68 521.884L1354.11 520.284L1348.86 518.812" stroke="#4F00DE" stroke-linecap="round" stroke-linejoin="round"/>
<path d="M1363.2 502.234L1376.33 492.76L1383.88 493.784L1417.93 485.143L1451.48 476.629" stroke="#4F00DE" stroke-linecap="round" stroke-linejoin="round"/>
<path d="M1370.05 674.233L1360.77 662.582L1360.19 661.814L1346.18 640.882L1352.26 614.957L1358.53 588.136L1385.22 563.428L1412.3 538.335" stroke="#4F00DE" stroke-linecap="round" stroke-linejoin="round"/>
<path d="M1377.6 504.984L1383.88 493.782" stroke="#4F00DE" stroke-linecap="round" stroke-linejoin="round"/>
<path d="M1370.18 503.578L1376.33 492.76L1389.9 482.966" stroke="#4F00DE" stroke-linecap="round" stroke-linejoin="round"/>
<path d="M1411.79 477.46L1417.93 485.141L1424.21 493.079L1430.35 500.824L1436.75 508.762L1457.11 533.727L1477.79 559.075L1490.2 574.054L1502.49 588.841L1515.23 604.268L1527.78 619.375L1537.76 621.423L1547.17 623.343" stroke="#4F00DE" stroke-linecap="round" stroke-linejoin="round"/>
<path d="M1379.27 687.996L1374.73 683.387L1368.96 674.809L1360.77 662.583L1360.2 661.815L1351.68 651.253L1345.47 643.827L1343.3 640.819L1328.45 618.799L1330.88 597.867L1325.76 593.962L1326.46 572.518L1330.3 554.275L1334.33 535.583L1348.86 518.812L1363.2 502.233L1370.18 503.577L1383.88 493.783L1389.9 482.965L1411.79 477.46L1433.49 471.955L1451.48 476.628L1469.98 481.365L1499.61 516.764L1529.89 552.994L1535.4 577.511L1540.77 601.836L1527.78 619.375L1514.53 637.234L1507.81 657.014L1501.28 676.345L1477.79 683.323L1454.04 690.3L1439.76 696.765L1423.38 685.627L1406.73 674.361L1390.79 663.543L1374.6 652.597L1368.45 628.144L1352.26 614.958L1336.38 602.028L1330.88 597.867L1333.37 576.935L1335.68 557.027L1338.05 537.119L1354.11 520.284L1370.18 503.577L1377.61 504.985L1424.21 493.079L1469.98 481.365L1489.37 488.47L1508.25 495.383L1522.4 512.155L1536.74 529.118L1533.41 540.896L1540.39 572.39L1545.51 595.498L1547.3 603.564L1537.76 621.423L1528.23 639.154L1518.18 657.91L1508.19 676.538L1488.99 683.387L1469.91 690.172L1456.79 694.845L1452.12 696.509L1439.76 696.765L1425.87 703.103L1402.57 695.549L1379.27 687.996ZM1379.27 687.996L1370.05 674.233L1360.58 660.15L1368.45 628.144L1382.86 619.887L1410.06 595.114L1437.59 569.957L1437.27 546.209L1457.11 533.727L1476.63 521.372L1488.28 519.004L1499.61 516.764L1511.2 514.459L1522.4 512.155" stroke="#4F00DE" stroke-linecap="round" stroke-linejoin="round"/>
<path d="M1341.38 559.971L1335.68 557.026L1330.3 554.273" stroke="#4F00DE" stroke-linecap="round" stroke-linejoin="round"/>
<path d="M1374.73 683.386L1370.31 679.033L1359.81 663.35L1351.68 651.252L1345.79 642.482L1331.96 621.87L1336.38 602.027L1340.86 581.671L1341.37 559.971L1341.95 538.655L1359.68 521.884L1377.61 504.984L1394.7 509.977L1412.17 515.162L1437.26 546.208L1462.87 577.958L1468.5 602.027L1474.07 625.903" stroke="#4F00DE" stroke-linecap="round" stroke-linejoin="round"/>
<path d="M1334.33 535.583L1338.05 537.119L1341.95 538.656" stroke="#4F00DE" stroke-linecap="round" stroke-linejoin="round"/>
<g filter="url(#filter1_f_5730_137261)">
<circle cx="1356.93" cy="265.608" r="235.397" fill="#1B0086"/>
</g>
<g filter="url(#filter2_f_5730_137261)">
<circle cx="-75.4951" cy="309.046" r="235.397" fill="#250069"/>
</g>
<defs>
<filter id="filter0_f_5730_137261" x="828.488" y="3516.91" width="1243.77" height="1243.77" filterUnits="userSpaceOnUse" color-interpolation-filters="sRGB">
<feFlood flood-opacity="0" result="BackgroundImageFix"/>
<feBlend mode="normal" in="SourceGraphic" in2="BackgroundImageFix" result="shape"/>
<feGaussianBlur stdDeviation="167" result="effect1_foregroundBlur_5730_137261"/>
</filter>
<filter id="filter1_f_5730_137261" x="787.535" y="-303.789" width="1138.79" height="1138.79" filterUnits="userSpaceOnUse" color-interpolation-filters="sRGB">
<feFlood flood-opacity="0" result="BackgroundImageFix"/>
<feBlend mode="normal" in="SourceGraphic" in2="BackgroundImageFix" result="shape"/>
<feGaussianBlur stdDeviation="167" result="effect1_foregroundBlur_5730_137261"/>
</filter>
<filter id="filter2_f_5730_137261" x="-644.893" y="-260.352" width="1138.79" height="1138.79" filterUnits="userSpaceOnUse" color-interpolation-filters="sRGB">
<feFlood flood-opacity="0" result="BackgroundImageFix"/>
<feBlend mode="normal" in="SourceGraphic" in2="BackgroundImageFix" result="shape"/>
<feGaussianBlur stdDeviation="167" result="effect1_foregroundBlur_5730_137261"/>
</filter>
</defs>
</svg>
