<svg width="1359" height="358" viewBox="0 0 1359 358" fill="none" xmlns="http://www.w3.org/2000/svg">
  <path d="M1359 358.475H0V0.237274H1359V358.475Z" fill="url(#paint0_linear_12356_231808)"/>
  <mask id="mask0_12356_231808" style="mask-type:alpha" maskUnits="userSpaceOnUse" x="0" y="0" width="1359" height="359">
    <path d="M1359 358.474H0V0.236298H1359V358.474Z" fill="url(#paint1_linear_12356_231808)"/>
  </mask>
  <g mask="url(#mask0_12356_231808)">
    <path d="M420.264 6.51065L411.416 -4.78623L271.336 -23.6143L232.174 21.3845L224.454 57.5341L223.324 99.1438L266.816 160.334L276.042 169.184L321.605 182.928H337.421L406.708 158.075L431.373 123.997L443.988 88.7884L441.728 46.6139L435.703 33.6226L428.172 16.4892L420.264 6.51065Z" fill="url(#paint2_linear_12356_231808)"/>
    <g filter="url(#filter0_f_12356_231808)">
      <circle cx="490.477" cy="-137.002" r="169.523" fill="#FF7E06"/>
    </g>
    <mask id="mask1_12356_231808" style="mask-type:alpha" maskUnits="userSpaceOnUse" x="772" y="-71" width="664" height="299">
      <path d="M1322 227.475H1359.5L1435.5 212.475L1428.5 -50.0254L1248 -70.5254L772.5 -55.0254L873 142.475L892 128.475L929.399 106.066L965.779 166.899L985 187.975L1014 185.475L1045 170.975L1078.5 172.975L1109.5 141.475L1144 130.475L1175.5 142.475L1197.5 193.975L1207.5 176.975L1236 205.475L1263.5 212.475L1289 209.475L1322 227.475Z" fill="black"/>
    </mask>
    <g mask="url(#mask1_12356_231808)">
      <path d="M1033.26 115.101L1009.81 110.11L984.453 102.507L959.672 92.9311L937.734 82.4268" stroke="#4F00DE" stroke-linecap="round" stroke-linejoin="round"/>
      <path d="M1053.86 117.481L1033.26 115.102L1030.13 110.343L1026.7 106.048H1026.53L1007.38 101.928L1007.26 101.87L986.541 95.66L966.171 87.8252L962.979 90.0886L959.671 92.9323" stroke="#4F00DE" stroke-linecap="round" stroke-linejoin="round"/>
      <path d="M981.377 37.7982L966.752 34.3741L951.025 31.9366L937.096 31.1241L925.431 31.9946L916.61 34.6643L911.329 39.249L910.342 45.5169L913.824 53.0034L921.485 61.3605L921.659 61.4766L933.034 70.1819L939.65 70.0658L946.15 69.8337L952.592 69.1372L958.976 67.6863L965.359 65.1328L971.743 61.1864L978.011 55.9632L984.105 49.9275L989.908 43.2535L995.306 35.9991L1000.3 28.3385L1004.71 20.4457L1008.54 12.4368L1011.67 4.42788L1013.7 -2.59437L1015.04 -9.61663L1015.62 -16.6389L1015.5 -23.429L1013.18 -24.8218L1011.5 -26.1567L1010.57 -27.3174" stroke="#4F00DE" stroke-linecap="round" stroke-linejoin="round"/>
      <path d="M978.416 39.8299L969.421 37.6827L955.26 35.5354L942.724 34.8389L932.278 35.6514L924.443 38.0889L919.801 42.2675L919.046 47.9549L922.238 54.687L929.202 62.1735L936.921 62.812L944.466 63.0441L951.952 62.4637L959.38 60.7226L966.693 57.5307L973.831 53.004L980.679 47.5487L987.18 41.3389L993.157 34.4907L998.554 27.1783L1003.37 19.5176L1007.38 11.6828L1010.63 3.73203L1012.54 -3.34824L1013.64 -10.5446L1012.6 -11.3571L1012.02 -12.1116L1011.9 -12.75" stroke="#4F00DE" stroke-linecap="round" stroke-linejoin="round"/>
      <path d="M894.497 34.3164L902.854 36.4638L911.327 39.2494L919.801 42.2673L928.216 45.1691L936.631 47.5485L944.988 49.1154L953.287 49.4056L961.412 48.0708L969.13 45.3431L969.363 45.2271L972.903 43.428L974.005 42.8477L975.572 42.0351L976.965 41.3387L978.996 39.9459L981.898 37.9147L983.175 36.87L984.045 36.2896L985.032 35.3611L985.671 34.9549L990.662 30.7183L991.474 29.8477L996.639 24.2764" stroke="#4F00DE" stroke-linecap="round" stroke-linejoin="round"/>
      <path d="M1006.04 9.76701L1001.75 17.2536L996.697 24.1597L996.639 24.2758L996.291 24.566L991.474 29.8472L990.661 30.6017L990.197 30.9499L985.67 34.9543L984.103 36.4052L983.175 36.8695L981.376 37.798L978.416 39.8292L978.184 39.9454L976.965 40.5837L975.282 41.3962L974.934 41.5703L973.483 42.3248L971.567 43.2533L971.393 43.3114L970.987 43.4855L968.434 44.298H968.376L966.925 44.7622L965.706 44.8783L959.903 45.4587L952.938 44.4721L946.032 42.2668L939.126 39.1909L932.278 35.6507L925.429 31.9945L918.639 28.5705L911.907 25.8428L901.113 28.9187L894.497 34.3159L892.93 41.7444L896.76 50.6819L905.756 60.78L919.568 71.5166L937.733 82.4271L943.014 80.512L948.121 79.1772L966.17 87.8245L969.246 85.7352L972.264 83.6459L975.34 81.0924L978.59 77.9585L981.956 73.7799L985.612 68.3826L989.501 61.8826L993.389 54.6863L997.277 46.9676L1001.11 38.9007L1004.82 30.6017L1008.36 22.2446L1011.61 13.9455L1014.57 5.82058L1016.84 -1.08563L1018.81 -7.81771L1020.38 -14.3176L1021.65 -20.4694L1022.58 -26.1568L1023.1 -31.2059V-31.9023" stroke="#4F00DE" stroke-linecap="round" stroke-linejoin="round"/>
      <path d="M1083.4 114.695L1076.09 110.11L1064.42 112.432L1048.93 112.548L1030.12 110.342L1008.71 105.758L1007.37 101.927L1005.98 98.3291L1004.59 94.6729L1003.49 90.7265L1002.67 86.1997L1002.33 80.8025L1002.62 74.2445L1003.49 66.6999L1004.7 58.5749L1006.27 50.1018L1008.19 41.3385L1010.33 32.5171L1012.71 23.7538L1015.33 15.2226L1017.99 7.0396L1020.55 0.191485L1023.28 -6.30851L1026.18 -12.3441L1029.08 -17.9156L1032.04 -22.9066L1034.94 -27.1431L1035.35 -27.6074" stroke="#4F00DE" stroke-linecap="round" stroke-linejoin="round"/>
      <path d="M1093.96 102.74L1086.07 99.3158L1077.77 96.356L1069.3 93.5704L1060.88 90.6686L1052.87 87.4186L1045.39 83.5303L1038.71 78.7133L1033.14 72.7357L1029.14 66.2938L1029.08 66.2357L1028.67 65.6554L1027.28 62.4634L1026.24 60.2001L1026.12 59.9679L1025.66 58.9233L1025.19 57.8787L1024.55 55.8475L1024.03 54.1644L1023.51 52.5394L1022.64 49.6957L1022.52 48.7091L1022.41 48.2448L1022.29 47.6644L1021.07 41.1065L1021.01 40.7002" stroke="#4F00DE" stroke-linecap="round" stroke-linejoin="round"/>
      <path d="M896.76 50.6826L905.291 51.5531L913.822 53.004L922.237 54.6871L930.652 56.196L936.92 62.812L937.849 63.5664L946.148 69.8343L958.045 76.8565L972.264 83.6466L988.282 89.7984L1004.59 94.6733L1019.79 97.9814L1033.26 99.6644L1044.46 99.7224L1053.05 98.2135L1058.68 95.1956L1060.88 90.6689L1059.66 85.1556L1055.25 79.0619L1048.29 72.8521L1048.17 72.736L1038.83 66.2941L1027.86 60.1423L1027.51 59.9683L1026.82 60.0843" stroke="#4F00DE" stroke-linecap="round" stroke-linejoin="round"/>
      <path d="M1024.32 7.15625L1024.09 7.50445L1023.97 7.7366L1023.91 7.91067L1022.29 13.5982L1021.71 15.6874" stroke="#4F00DE" stroke-linecap="round" stroke-linejoin="round"/>
      <path d="M1022.41 48.2442L1022.52 48.7085L1022.64 49.695L1021.83 50.7977L1020.09 51.4942L1017.59 51.7844L1014.34 51.6682L1010.51 51.0879L1006.27 50.1013L1001.75 48.7085L997.278 46.9674L993.274 45.1683L989.908 43.2531L987.18 41.338L985.207 39.5389L984.162 37.8559L984.046 36.2889V36.0567L985.033 35.3604" stroke="#4F00DE" stroke-linecap="round" stroke-linejoin="round"/>
      <path d="M1091.41 94.2663L1083.92 91.5387L1075.91 89.3333L1067.79 87.3021L1059.66 85.1548L1051.83 82.6012L1044.58 79.4093L1038.13 75.2307L1035.41 71.4004" stroke="#4F00DE" stroke-linecap="round" stroke-linejoin="round"/>
      <path d="M1070.75 117.308L1064.42 112.433L1057.81 108.08H1043.71L1026.7 106.049L1023.16 102.044L1006.16 98.3881L1005.98 98.33L1005.63 98.214L987.412 92.7587L969.246 85.7364L953.113 78.0757L939.648 70.0669L929.84 62.6384L929.202 62.174L921.483 61.3616L913.649 60.7812H905.756" stroke="#4F00DE" stroke-linecap="round" stroke-linejoin="round"/>
      <path d="M970.93 43.5439L968.666 44.2984H968.608L967.332 44.7627L966.461 44.9948L963.385 46.0395L955.666 46.91L947.89 46.2136L944.988 49.1153L944.756 52.9457L947.135 57.4724L951.952 62.4634L958.974 67.6866L967.97 72.9098L978.59 77.9589L990.488 82.5437L1002.67 86.1999L1013.99 88.6954L1024.09 90.0302L1032.62 90.0883L1039.18 89.0436L1043.53 86.8382L1045.39 83.5303L1044.58 79.4098L1041.38 74.825L1036.1 70.008L1032.27 67.3964L1030.01 65.8295" stroke="#4F00DE" stroke-linecap="round" stroke-linejoin="round"/>
      <path d="M971.567 43.2543L963.848 42.0936L954.098 41.5713L946.031 42.2678L940.054 44.241L936.63 47.549L936.281 52.0176L938.951 57.2989L944.464 63.0443L952.589 69.138L962.977 75.2317L975.339 81.0934L989.267 86.4906L1003.49 90.7272L1016.66 93.629L1028.38 95.1379L1038.25 95.1959L1045.79 93.9191L1050.78 91.3076L1052.87 87.4192L1051.83 82.6023L1048.06 77.3211L1041.91 71.7496L1034.24 66.4684L1033.72 66.0622L1028.27 63.0443L1028.21 62.9863" stroke="#4F00DE" stroke-linecap="round" stroke-linejoin="round"/>
      <path d="M1031.4 -6.01745L1031.11 -5.55314L1030.88 -5.32099L1030.76 -5.08883L1027.4 0.192365L1027.11 0.772718L1026.99 1.23696L1024.32 7.1566L1024.03 7.56282L1023.33 7.73695L1022.35 7.79497L1021.13 7.67893L1019.68 7.44677L1018 7.04049L1016.25 6.46013L1014.57 5.82176L1013 5.12536L1011.67 4.4289L1010.63 3.7325L1009.81 3.09413L1009.41 2.51378L1011.21 -4.62459L1011.15 -5.14692L1011.96 -12.9817L1011.73 -19.7718L1011.67 -20.4102" stroke="#4F00DE" stroke-linecap="round" stroke-linejoin="round"/>
      <path d="M1027.34 0.423828L1027.11 0.772026L1026.93 1.00418L1026.82 1.17824L1024.55 6.28538L1024.09 7.5041V7.96841L1022.06 15.2808L1021.71 15.6871L1021.65 15.9192L1020.84 21.1424L1020.32 24.2763L1019.91 33.0976L1020.43 42.0351L1021.83 50.7984L1022.12 51.9011L1024.21 59.3296L1024.61 60.4322L1027.51 67.4546L1031.75 74.9992L1037.09 81.4991L1043.53 86.8383L1050.79 91.3071L1058.68 95.1954L1066.92 98.6775L1075.22 102.102L1083.46 105.7L1091.24 109.762" stroke="#4F00DE" stroke-linecap="round" stroke-linejoin="round"/>
      <path d="M1084.33 85.0978L1077.48 83.1827L1077.19 82.8925L1067.56 74.4194L1054.62 65.656L1039.18 57.1829L1024.03 50.2186L1022.87 49.6963" stroke="#4F00DE" stroke-linecap="round" stroke-linejoin="round"/>
      <path d="M1073.42 75.5792L1067.56 74.4185L1061.23 73.7801L1054.67 73.3158L1048.17 72.7355L1041.91 71.7488L1036.1 70.0078L1032.39 68.0346L1031.4 67.5703" stroke="#4F00DE" stroke-linecap="round" stroke-linejoin="round"/>
      <path d="M965.705 44.8782L959.902 43.8335L954.098 41.5702L948.352 38.4363L942.723 34.8381L937.094 31.1238L931.522 27.6998L926.009 24.9141" stroke="#4F00DE" stroke-linecap="round" stroke-linejoin="round"/>
      <path d="M968.317 44.2991L963.848 42.0937L959.495 39.0179L955.259 35.5358L951.022 31.9376L946.844 28.6296L942.665 25.96" stroke="#4F00DE" stroke-linecap="round" stroke-linejoin="round"/>
      <path d="M1059.38 66.0615L1054.62 65.6552L1049.45 65.7714L1044.17 66.0615L1038.83 66.2937L1033.72 66.0615L1029.66 65.249" stroke="#4F00DE" stroke-linecap="round" stroke-linejoin="round"/>
      <path d="M1007.96 -37.5889L1009.64 -33.2943L1011.5 -26.1559L1011.61 -25.5756L1012.54 -18.7855L1012.6 -11.357L1011.73 -4.04453L1012.54 -3.34806L1013.7 -2.59364L1015.15 -1.83916L1016.84 -1.08474L1018.69 -0.388276L1020.55 0.192077L1022.35 0.656317L1023.92 0.946493L1025.25 1.06261L1026.3 1.00458L1028.5 -2.53562L1029.08 -3.46417L1030.07 -5.14721L1030.18 -5.26325L1033.38 -9.15159L1033.84 -9.73194L1034.88 -11.0668L1039.18 -15.1292L1040.05 -15.9998L1040.34 -16.2319L1045.45 -20.0042L1046.32 -20.6426L1048 -21.1069" stroke="#4F00DE" stroke-linecap="round" stroke-linejoin="round"/>
      <path d="M1050.21 -22.9062L1046.32 -20.6429L1043.71 -20.5848L1040.4 -20.9911L1035.64 -16.4643L1031.29 -11.2412L1027.34 -5.37956L1023.92 0.94623L1021.13 7.67838L1018.63 15.9194L1016.66 24.5666L1015.27 33.5041L1014.51 42.6156L1014.34 51.6691L1014.8 60.4905L1015.96 69.0216L1017.76 76.9724L1020.49 84.0528L1024.09 90.0304L1028.38 95.1375L1033.26 99.6643L1038.42 103.901L1043.71 108.079L1048.93 112.548L1053.86 117.481L1070.75 117.307L1083.4 114.695L1091.24 109.762L1093.96 102.74L1091.41 94.267L1084.33 85.0974L1083.52 84.343L1073.42 75.5796L1072.49 74.9412L1059.38 66.0618L1058.5 65.5975L1042.6 56.8922L1023.68 48.187L1022.35 47.6646" stroke="#4F00DE" stroke-linecap="round" stroke-linejoin="round"/>
      <path d="M1009.81 110.11L1008.71 105.758L985.611 98.7935L962.978 90.0882L943.014 80.5124L926.357 70.5303L919.567 71.5169" stroke="#4F00DE" stroke-linecap="round" stroke-linejoin="round"/>
      <path d="M985.553 34.9542L981.549 33.6774L962.165 29.0926L961.352 28.9185L943.709 26.1328L942.665 25.9587L926.009 24.9141L911.906 25.8426" stroke="#4F00DE" stroke-linecap="round" stroke-linejoin="round"/>
      <path d="M984.452 102.508L985.613 98.7934L986.541 95.6595L987.412 92.7577L988.283 89.7979L989.269 86.4899L990.488 82.5435L992.055 77.6686L994.028 71.6329L996.407 64.5526L998.961 56.8339L1001.75 48.7089L1004.65 40.2358L1007.55 31.6466L1010.51 23.0574L1013.47 14.6423L1016.26 6.45924L1018.69 -0.38888L1021.01 -7.00492L1023.28 -13.2728L1025.37 -19.1343L1027.28 -24.4155L1028.97 -29.0003L1029.2 -29.6387" stroke="#4F00DE" stroke-linecap="round" stroke-linejoin="round"/>
      <path d="M1042.6 56.8916L1039.18 57.1818L1035.41 57.9943L1031.46 59.0389L1027.51 59.9675L1026.59 59.5612" stroke="#4F00DE" stroke-linecap="round" stroke-linejoin="round"/>
      <path d="M1050.9 -22.6737L1048 -21.1068L1047.42 -20.6425L1046.84 -20.2362L1041.67 -16.58L1041.33 -16.2318L1040.92 -15.8836L1035.99 -11.3568L1035.52 -10.7765L1031.4 -6.0176L1031.11 -5.55329L1030.82 -5.03096L1027.4 0.192218L1026.99 0.772571L1026.3 1.00473L1026.24 1.12077L1025.02 3.8484L1023.34 7.7368L1022.52 10.6386L1021.01 15.9198L1020.67 17.893L1019.51 24.567L1018.87 33.5045L1019.04 42.558L1020.09 51.4954L1022.06 60.2587L1024.84 68.6158L1028.56 76.4506L1033.32 83.2987L1039.18 89.0442L1045.8 93.9192L1053.05 98.2138L1060.71 102.16L1068.49 106.049L1076.09 110.111L1083.46 105.7L1086.07 99.3164L1083.92 91.5398L1077.48 83.1827L1070.23 81.7318L1062.74 80.455L1055.25 79.0622L1048.06 77.3211L1041.38 74.8256L1035.41 71.4015L1032.45 68.5577L1031.4 67.5712L1030.71 66.8167L1030.01 65.8301L1029.66 65.2497L1028.33 63.2765L1028.21 62.9864L1026.88 60.1426L1026.82 60.0846L1026.59 59.5623L1026.53 59.4462L1025.54 57.357L1024.9 56.0221L1023.86 52.6561L1022.87 49.6963L1022.81 49.4642L1022.52 48.7097L1022.29 47.7811V47.665L1021.07 41.1071L1021.01 40.7008L1020.43 32.4598L1020.72 23.7545L1021.94 15.8617L1021.83 15.6296L1021.01 15.9198L1019.91 15.9778L1018.63 15.9198L1017.07 15.6296L1015.33 15.2234L1013.47 14.643L1011.61 13.9465L1009.99 13.1921L1008.54 12.4376L1007.38 11.6832L1006.56 10.9868L1006.1 10.3484L1006.04 9.76804L1009.29 1.9913L1011.21 -4.91491L1012.02 -12.1113L1011.96 -12.9818L1011.73 -19.7719L1011.67 -20.4103L1010.68 -26.8522L1010.57 -27.3165L1008.65 -34.1066L1008.48 -34.8031L1007.14 -37.8789" stroke="#4F00DE" stroke-linecap="round" stroke-linejoin="round"/>
      <path d="M1032.68 69.834L1033.14 72.7357L1031.75 74.9991L1028.56 76.45L1023.86 77.1464L1017.76 76.9723L1010.63 76.0437L1002.62 74.2446L994.028 71.6331L985.613 68.3831L978.126 64.843L971.743 61.1867L966.693 57.5305L963.211 54.0483L961.412 50.8564V48.0707L963.386 46.0395L966.287 44.9949L966.925 44.7627" stroke="#4F00DE" stroke-linecap="round" stroke-linejoin="round"/>
      <path d="M974.933 41.5711L972.089 40.9327L959.496 39.0176L948.353 38.4372L939.125 39.1916L932.219 41.397L928.215 45.1693L927.692 50.2183L930.652 56.196L938.951 57.2987L947.134 57.4727L955.259 56.5442L963.21 54.0486L970.929 50.1023L978.299 45.2273L983.464 40.9907L985.205 39.5398L988.803 35.9417L991.589 33.0979L997.335 26.0757L1002.38 18.7052L1006.56 10.9865L1009.81 3.09372L1011.73 -4.04465L1011.21 -4.625" stroke="#4F00DE" stroke-linecap="round" stroke-linejoin="round"/>
      <path d="M1028.33 63.2766L1028.68 65.6561L1027.51 67.4552L1024.85 68.6159L1020.96 69.1382L1015.97 69.0222L1010.05 68.1516L1003.49 66.7007L996.408 64.5535L989.502 61.8838L983.292 58.982L978.01 55.9642L973.832 53.0044L970.93 50.1027L969.363 47.4911V45.2277L970.988 43.4866L971.395 43.3125" stroke="#4F00DE" stroke-linecap="round" stroke-linejoin="round"/>
      <path d="M973.483 42.3251L972.09 40.9322L969.42 37.6823L966.751 34.3743L964.081 31.3564L961.354 28.9189" stroke="#4F00DE" stroke-linecap="round" stroke-linejoin="round"/>
      <path d="M1024.9 56.022L1025.19 57.8792L1024.21 59.3301L1022.06 60.2586L1018.87 60.6649L1014.8 60.4908L1010.04 59.7943L1004.71 58.5756L998.96 56.8345L993.389 54.6873L988.398 52.3659L984.103 49.9283L980.679 47.5489L978.3 45.2275L977.023 43.1382L976.965 41.3391L978.184 39.9463" stroke="#4F00DE" stroke-linecap="round" stroke-linejoin="round"/>
      <path d="M983.929 36.1157L982.71 35.7094L964.081 31.3567L946.844 28.6291L931.523 27.7005L918.639 28.5711L908.831 31.4728L902.854 36.4639L901.635 43.312L905.291 51.553L913.648 60.7807L926.358 70.5305L933.032 70.1823L948.121 79.1778L953.112 78.0751L958.045 76.8564L962.978 75.2314L967.969 72.91L972.96 69.544L978.125 64.8431L983.291 58.9815L988.397 52.3655L993.273 45.1691L997.973 37.4504L1002.38 29.4996L1006.39 21.3747L1009.99 13.1917L1013 5.12482L1015.15 -1.83942L1016.78 -8.74563L1017.82 -15.4777L1018.34 -21.9196V-28.0133L1017.82 -33.5267L1014.92 -34.9775" stroke="#4F00DE" stroke-linecap="round" stroke-linejoin="round"/>
      <path d="M1023.68 48.1865L1022.58 48.7089" stroke="#4F00DE" stroke-linecap="round" stroke-linejoin="round"/>
      <path d="M1021.07 41.1651L1020.43 42.0356L1019.04 42.558L1017.07 42.732L1014.51 42.616L1011.5 42.1517L1008.19 41.3392L1004.65 40.2366L1001.11 38.9017L997.973 37.4508L995.304 36L993.157 34.4911L991.589 33.0982L990.777 31.8214L990.661 30.6027L991.415 29.9062" stroke="#4F00DE" stroke-linecap="round" stroke-linejoin="round"/>
      <path d="M983.118 36.6946L982.711 35.708L981.551 33.6768" stroke="#4F00DE" stroke-linecap="round" stroke-linejoin="round"/>
      <path d="M1020.43 32.4592L1019.91 33.0976L1018.87 33.5039L1017.3 33.6199L1015.27 33.5039L1012.95 33.1556L1010.34 32.5172L1007.55 31.6467L1004.82 30.6021L1002.38 29.4994L1000.29 28.3387L998.554 27.178L997.335 26.0753L996.697 25.0888L996.639 24.2763L996.697 24.1602" stroke="#4F00DE" stroke-linecap="round" stroke-linejoin="round"/>
      <path d="M1020.72 23.7548L1020.32 24.2771L1019.5 24.5673L1018.23 24.6834L1016.66 24.5673L1014.8 24.2771L1012.71 23.7548L1010.51 23.0584L1008.36 22.2459L1006.39 21.3754L1004.71 20.4468L1003.37 19.5182L1002.38 18.7058L1001.86 17.8933L1001.75 17.2549" stroke="#4F00DE" stroke-linecap="round" stroke-linejoin="round"/>
      <path d="M1009.29 1.99023L1009.41 2.51257L1006.1 10.3473L1001.86 17.8919L999.715 20.8517L996.697 25.0883L995.826 26.0749L990.777 31.8204L986.889 35.3605L984.161 37.8561L980.795 40.3515L977.023 43.1373L975.746 43.8336L969.362 47.4899L961.411 50.8559L953.112 52.7131L944.755 52.9452L936.282 52.0166L927.693 50.2175L919.046 47.9541L910.34 45.5167L901.635 43.3113L892.93 41.7444" stroke="#4F00DE" stroke-linecap="round" stroke-linejoin="round"/>
      <path d="M968.434 44.2983H968.318L959.903 43.834L952.939 44.4724L947.89 46.2134L940.055 44.2403L932.22 41.3965L924.444 38.0885L916.609 34.6645L908.832 31.4725L901.113 28.9189" stroke="#4F00DE" stroke-linecap="round" stroke-linejoin="round"/>
      <path d="M1023.86 52.655L1024.44 52.9452L1027.57 54.3961L1035.41 57.9942L1049.45 65.771L1061.23 73.7798L1070.23 81.7307L1075.91 89.3333L1077.77 96.3555L1075.22 102.101L1068.49 106.047L1057.81 108.079L1051.07 103.9L1044.46 99.7216L1038.25 95.1948L1032.62 90.0878L1027.74 84.1681L1023.86 77.1459L1020.95 69.137L1018.87 60.6638L1017.59 51.7845L1017.07 42.7309L1017.3 33.6194L1018.23 24.682L1019.91 15.9767L1022.35 7.79372L1025.25 1.06164L1028.91 -5.26422L1033.32 -11.0097L1038.25 -16.1749L1043.7 -20.5855L1048.29 -23.4873" stroke="#4F00DE" stroke-linecap="round" stroke-linejoin="round"/>
      <path d="M1024.9 56.0222L1026.12 56.5445L1031.46 59.0401L1044.17 66.0623L1054.68 73.3167L1062.74 80.455L1067.79 87.3032L1069.3 93.5711L1066.92 98.6781L1060.71 102.16L1051.08 103.901H1038.43L1023.16 102.044L1019.8 97.9817L1016.66 93.6291L1013.99 88.6961L1011.96 82.8926L1010.63 76.0444L1010.05 68.1516V59.7945L1010.51 51.0892L1011.5 42.1518L1012.95 33.1563L1014.81 24.2769L1017.07 15.6297L1019.68 7.44672L1022.35 0.656548L1025.43 -5.72733L1028.85 -11.6469L1032.56 -17.0442L1036.45 -21.7451L1040.46 -25.6914L1042.95 -25.1691" stroke="#4F00DE" stroke-linecap="round" stroke-linejoin="round"/>
      <path d="M1030.71 66.8159L1031 67.3383L1032.68 69.8338L1034.07 71.2267L1038.13 75.231L1038.72 78.7131L1037.09 81.4989L1033.32 83.2979L1027.75 84.1685L1020.49 84.0524L1011.96 82.8917L1002.33 80.8025L992.055 77.6686L981.957 73.7802L972.961 69.5436L965.359 65.133L959.381 60.7222L955.261 56.5437L953.113 52.7134L953.287 49.4053L955.667 46.9099L959.904 45.459" stroke="#4F00DE" stroke-linecap="round" stroke-linejoin="round"/>
      <g filter="url(#filter1_f_12356_231808)">
        <circle cx="1270.48" cy="-7.00198" r="169.523" fill="url(#paint3_linear_12356_231808)"/>
      </g>
    </g>
    <path d="M238.332 66.2419L272.472 34.3909L307.229 1.9832L330.979 -4.20147L354.418 -10.2625L358.871 -20.6527L363.077 -30.6719" stroke="#4F00DE" stroke-linecap="round" stroke-linejoin="round"/>
    <path d="M427.584 15.4658L435.81 52.4502L442.551 67.7263" stroke="#4F00DE" stroke-linecap="round" stroke-linejoin="round"/>
    <path d="M238.828 45.2762L264.433 21.3415L290.346 -3.02604L324.795 -11.8701L358.873 -20.6523" stroke="#4F00DE" stroke-linecap="round" stroke-linejoin="round"/>
    <path d="M358.871 -20.6523L380.765 5.69433L403.091 32.5358" stroke="#4F00DE" stroke-linecap="round" stroke-linejoin="round"/>
    <path d="M403.093 32.5352L382.621 58.8818L361.656 85.9088L334.381 110.4L307.54 134.52L286.573 145.343L266.535 155.672" stroke="#4F00DE" stroke-linecap="round" stroke-linejoin="round"/>
    <path d="M264.99 111.142L272.907 78.9199L290.1 63.149L307.417 47.1925L307.355 24.3711" stroke="#4F00DE" stroke-linecap="round" stroke-linejoin="round"/>
    <path d="M381.816 -23.8076L402.906 1.3022L424.367 26.8448L420.965 38.5339L394.494 73.168L367.035 108.977L348.542 125.49L330.236 141.818L307.538 134.52L284.902 127.222L278.903 103.164L272.904 78.9198L255.401 72.4877L238.332 66.2412L231.096 61.6645L224.416 57.3971" stroke="#4F00DE" stroke-linecap="round" stroke-linejoin="round"/>
    <path d="M270.926 134.768L278.904 103.164" stroke="#4F00DE" stroke-linecap="round" stroke-linejoin="round"/>
    <path d="M370.624 164.454L339.083 156.723L330.238 141.818" stroke="#4F00DE" stroke-linecap="round" stroke-linejoin="round"/>
    <path d="M356.213 62.654L331.783 54.9232L307.354 24.3709L307.23 1.98242" stroke="#4F00DE" stroke-linecap="round" stroke-linejoin="round"/>
    <path d="M307.416 47.1924L331.784 54.9232" stroke="#4F00DE" stroke-linecap="round" stroke-linejoin="round"/>
    <path d="M307.354 24.3711L331.474 31.9783" stroke="#4F00DE" stroke-linecap="round" stroke-linejoin="round"/>
    <path d="M354.42 -10.2627L369.51 7.98208L384.787 26.4124L403.093 32.5353L420.967 38.5343" stroke="#4F00DE" stroke-linecap="round" stroke-linejoin="round"/>
    <path d="M257.382 142.066L243.466 123.45L229.736 105.081L226.334 102.113L223.057 99.2059L223.737 78.1162" stroke="#4F00DE" stroke-linecap="round" stroke-linejoin="round"/>
    <path d="M384.785 26.4121L370.622 44.4095L356.212 62.6542L320.217 95.2474L284.903 127.222L270.925 134.767L257.381 142.065" stroke="#4F00DE" stroke-linecap="round" stroke-linejoin="round"/>
    <path d="M419.111 140.705L406.433 158.084L391.59 164.64L381.447 164.516L370.624 164.454L362.398 149.92L330.238 141.818L301.974 155.796L275.441 168.969" stroke="#4F00DE" stroke-linecap="round" stroke-linejoin="round"/>
    <path d="M357.14 176.947L336.855 182.946L328.814 183.256" stroke="#4F00DE" stroke-linecap="round" stroke-linejoin="round"/>
    <path d="M434.572 31.3604L435.809 52.4501L431.109 57.2741L426.285 62.2219L406.803 88.0737L386.827 114.544L374.519 132.356L362.397 149.92L339.081 156.724L318.053 166.681L297.953 176.267" stroke="#4F00DE" stroke-linecap="round" stroke-linejoin="round"/>
    <path d="M377.24 170.948L357.14 176.947L345.822 177.195L337.72 180.102L328.814 183.256L320.465 183.565" stroke="#4F00DE" stroke-linecap="round" stroke-linejoin="round"/>
    <path d="M266.782 160.311L254.413 143.797L242.786 126.295L240.683 123.388L232.766 113.493L226.149 103.721L223.057 99.2061" stroke="#4F00DE" stroke-linecap="round" stroke-linejoin="round"/>
    <path d="M254.412 143.797L242.166 127.408L232.766 113.492" stroke="#4F00DE" stroke-linecap="round" stroke-linejoin="round"/>
    <path d="M427.583 15.4651L434.571 31.3598L442.55 67.7256L443.848 89.0008L437.664 106.503L431.603 123.573L419.11 140.705L409.647 139.901L399.628 139.035L374.518 132.355L348.543 125.49L334.38 110.4L320.217 95.2473L305.188 79.2291L290.097 63.149L281.192 48.615L272.471 34.3903L264.431 21.3405L256.515 8.47648L251.134 6.93032L246.062 5.50781" stroke="#4F00DE" stroke-linecap="round" stroke-linejoin="round"/>
    <path d="M434.572 31.3604L441.313 46.822L442.55 67.7262" stroke="#4F00DE" stroke-linecap="round" stroke-linejoin="round"/>
    <path d="M391.588 164.64L377.239 170.948L363.015 171.072L347.677 171.196L339.08 156.724" stroke="#4F00DE" stroke-linecap="round" stroke-linejoin="round"/>
    <path d="M266.535 155.672L257.568 144.415L257.011 143.673L243.467 123.45L249.342 98.4016L255.403 72.4878L281.193 48.615L307.354 24.3711" stroke="#4F00DE" stroke-linecap="round" stroke-linejoin="round"/>
    <path d="M431.605 123.573L419.359 121.78L406.124 119.924L386.828 114.544L367.037 108.978" stroke="#4F00DE" stroke-linecap="round" stroke-linejoin="round"/>
    <path d="M306.859 -34.4453L312.797 -27.0237L318.858 -19.3547L324.795 -11.8713L330.98 -4.20227L350.647 19.9179L370.623 44.4092L382.622 58.8813L394.496 73.1679L406.804 88.0729L418.925 102.669L428.574 104.648L437.665 106.503" stroke="#4F00DE" stroke-linecap="round" stroke-linejoin="round"/>
    <path d="M431.48 85.7236L437.789 87.3935L443.85 89.0015" stroke="#4F00DE" stroke-linecap="round" stroke-linejoin="round"/>
    <path d="M406.433 158.084L400.001 157.898L393.322 157.713L362.398 149.92" stroke="#4F00DE" stroke-linecap="round" stroke-linejoin="round"/>
    <path d="M275.44 168.969L271.049 164.516L265.483 156.228L257.566 144.416L257.01 143.674L248.784 133.469L242.785 126.295L240.682 123.388L226.334 102.113L228.684 81.8887L223.736 78.1161L224.416 57.3974L228.127 39.7711L232.024 21.7119L246.063 5.50807L259.917 -10.5102L266.658 -9.2114L279.893 -18.674L285.707 -29.1261L306.858 -34.4449L327.824 -39.7637L345.203 -35.2489L363.077 -30.6722L391.712 3.529L420.965 38.5342L426.284 62.2215L431.479 85.7233L418.924 102.669L406.122 119.924L399.628 139.035L393.32 157.713L370.622 164.454L347.677 171.195L333.885 177.442L318.053 166.68L301.972 155.795L286.572 145.343L270.925 134.768L264.988 111.142L249.341 98.4018L234.003 85.9088L228.684 81.8887L231.096 61.6649L233.323 42.4306L235.611 23.1962L251.134 6.93057L266.658 -9.2114L273.832 -7.8508L318.856 -19.3543L363.077 -30.6722L381.816 -23.8073L400.061 -17.1278L413.729 -0.924002L427.583 15.4654L424.367 26.8452L431.108 57.2738L436.056 79.6004L437.787 87.3931L428.572 104.648L419.357 121.78L409.647 139.901L399.999 157.898L381.445 164.516L363.015 171.072L350.336 175.586L345.822 177.194L333.885 177.442L320.464 183.565L297.952 176.267L275.44 168.969ZM275.44 168.969L266.534 155.672L257.381 142.066L264.988 111.142L278.903 103.164L305.188 79.2294L331.782 54.9236L331.473 31.9785L350.646 19.9184L369.509 7.98193L380.765 5.69364L391.712 3.529L402.906 1.30254L413.729 -0.924002" stroke="#4F00DE" stroke-linecap="round" stroke-linejoin="round"/>
    <path d="M238.827 45.2749L233.322 42.4299L228.127 39.7705" stroke="#4F00DE" stroke-linecap="round" stroke-linejoin="round"/>
    <path d="M271.05 164.516L266.782 160.311L256.64 145.158L248.785 133.469L243.095 124.996L229.736 105.081L234.004 85.909L238.333 66.2418L238.828 45.2757L239.384 24.6808L256.516 8.47695L273.833 -7.85059L290.346 -3.02651L307.23 1.98305L331.474 31.9787L356.213 62.6546L361.655 85.909L367.036 108.978" stroke="#4F00DE" stroke-linecap="round" stroke-linejoin="round"/>
    <path d="M232.025 21.7119L235.612 23.1962L239.385 24.6805" stroke="#4F00DE" stroke-linecap="round" stroke-linejoin="round"/>
    <path d="M435.809 52.4492L441.808 79.9092L443.849 89.0006" stroke="#4F00DE" stroke-linecap="round" stroke-linejoin="round"/>
    <path d="M965.305 166.488L974.814 188.044L975.766 190.104L988.92 195.968L993.2 197.871L1027.59 218.475L1035.99 281.081L1044.87 285.677L1054.22 290.591H1091.63L1102.72 295.663H1141.24L1154.07 301.051H1193.86H1233.48L1249.65 306.916H1290.7L1309.24 313.097H1351.56L1372.8 319.595H1416.54L1440.95 326.728H1486.12L1508.79 332.909" stroke="#4F00DE" stroke-linecap="round" stroke-linejoin="round"/>
    <path d="M1199.56 276.8L1189.26 207.855L1187.2 194.065" stroke="#4F00DE" stroke-linecap="round" stroke-linejoin="round"/>
    <path d="M929.963 105.625L935.986 184.715L972.282 270.303L1008.58 285.677L1016.98 290.59L1025.7 295.662L1035.05 301.051L1045.03 306.915L1055.65 313.097L1067.06 319.595L1079.11 326.727H1124.28H1169.61H1214.78H1259.95H1305.28L1326.36 334.177H1373.28L1397.84 342.419H1446.5L1474.71 351.136H1508.79" stroke="#4F00DE" stroke-linecap="round" stroke-linejoin="round"/>
    <path d="M826.939 170.133L829.952 244.784L833.279 295.662L836.767 301.05L840.412 306.915L844.374 313.096L848.495 319.594L852.933 326.727H898.263L904.603 334.176L911.577 342.418L919.026 351.135H969.586L979.73 360.645H1032.35H1084.81H1137.43H1190.05H1242.52H1295.14H1347.76H1400.38L1429.07 370.789H1483.91L1508.79 379.031" stroke="#4F00DE" stroke-linecap="round" stroke-linejoin="round"/>
    <path d="M141.602 258.099L154.757 186.775" stroke="#4F00DE" stroke-linecap="round" stroke-linejoin="round"/>
    <path d="M929.963 105.625L965.308 166.488L972.282 270.303L979.573 290.59L987.18 295.662L995.422 301.051L1004.14 306.915L1013.33 313.097L1023.32 319.595L1033.94 326.727H1079.11L1092.11 334.177H1139.02H1185.78H1232.69H1279.61H1326.36L1349.19 342.419H1397.84L1424.31 351.136H1474.71L1505.46 360.646H1508.79" stroke="#4F00DE" stroke-linecap="round" stroke-linejoin="round"/>
    <path d="M792.701 192.48L829.948 244.784" stroke="#4F00DE" stroke-linecap="round" stroke-linejoin="round"/>
    <path d="M762.588 268.559L780.022 290.907L783.192 295.186L787.947 301.05L792.385 306.915L795.08 310.402L799.2 315.632" stroke="#4F00DE" stroke-linecap="round" stroke-linejoin="round"/>
    <path d="M1142.82 131.302L1153.76 187.092L1165.17 218.316L1177.37 281.081L1190.21 285.677L1203.84 290.59H1241.25H1278.49H1315.9L1333.65 295.662H1372.16L1392.13 301.051H1431.76L1454.27 306.915H1495.32L1508.79 310.244" stroke="#4F00DE" stroke-linecap="round" stroke-linejoin="round"/>
    <path d="M179.641 167.756L189.784 181.545L208.646 207.538L212.132 211.342" stroke="#4F00DE" stroke-linecap="round" stroke-linejoin="round"/>
    <path d="M762.588 268.559L763.856 322.606" stroke="#4F00DE" stroke-linecap="round" stroke-linejoin="round"/>
    <path d="M1208.12 219.268L1210.18 227.351L1220.64 269.352" stroke="#4F00DE" stroke-linecap="round" stroke-linejoin="round"/>
    <path d="M171.873 252.551L184.553 202.466" stroke="#4F00DE" stroke-linecap="round" stroke-linejoin="round"/>
    <path d="M82.957 237.177L88.8217 227.35L109.585 193.115" stroke="#4F00DE" stroke-linecap="round" stroke-linejoin="round"/>
    <path d="M790.641 179.801L755.297 214.987L756.089 274.106" stroke="#4F00DE" stroke-linecap="round" stroke-linejoin="round"/>
    <path d="M1508.79 399.318L1494.68 394.246L1460.45 382.042H1403.23H1346.01H1288.8H1231.58H1174.36H1117.14H1059.93L1045.5 370.789L1032.35 360.645L1020.15 351.135L1008.89 342.418L998.431 334.176L988.604 326.727L979.57 319.594L971.169 313.096L963.245 306.915L955.796 301.05L948.822 295.662L942.165 290.59L935.984 184.714L899.53 165.378L863.234 181.386L834.863 172.669L826.938 170.133L790.642 179.801L773.684 203.892L755.298 214.987L742.142 227.35L739.924 229.41L737.705 231.629L735.327 233.69L732.95 236.067L730.414 238.444L727.72 240.822L725.025 243.516L722.172 246.211L719.16 248.905L718.527 249.698L717.893 250.173L717.575 250.649L716.308 251.917L713.455 254.928L710.443 258.098L707.432 261.585L704.103 265.072L700.617 268.717L697.13 272.68L693.326 276.8L689.205 281.08L684.926 285.676L680.487 290.59L679.378 295.662L678.11 301.05L677.318 303.903L675.257 305.488L667.174 306.915L632.939 313.096H590.778H548.46H506.142H463.981H421.663L411.52 319.594H367.933L355.57 326.727H310.399L295.5 334.176H248.585L230.834 342.418L211.656 351.135L191.051 360.645L168.545 370.789L144.136 382.042L117.509 394.246L88.1875 407.719L56.0124 422.459L20.192 438.784L-19.5899 457.011H-69.041" stroke="#4F00DE" stroke-linecap="round" stroke-linejoin="round"/>
    <path d="M993.199 197.87L1000.65 246.37L1008.57 285.677" stroke="#4F00DE" stroke-linecap="round" stroke-linejoin="round"/>
    <path d="M680.487 290.591H643.082H605.678H568.431H531.026H493.621H456.215L448.291 295.663H409.935L400.266 301.051H360.642H321.018H281.394H241.612H201.988H162.363H122.581L103.72 306.916H62.8282L41.2725 313.097H-1.04629L-25.2959 319.595H-69.041" stroke="#4F00DE" stroke-linecap="round" stroke-linejoin="round"/>
    <path d="M84.2227 227.35L109.582 193.115" stroke="#4F00DE" stroke-linecap="round" stroke-linejoin="round"/>
    <path d="M1218.11 191.688L1228.41 232.422" stroke="#4F00DE" stroke-linecap="round" stroke-linejoin="round"/>
    <path d="M1120.15 166.646L1086.71 189.312" stroke="#4F00DE" stroke-linecap="round" stroke-linejoin="round"/>
    <path d="M1120.16 166.646L1153.76 187.093L1187.2 194.066" stroke="#4F00DE" stroke-linecap="round" stroke-linejoin="round"/>
    <path d="M894.773 126.705L899.528 165.378L904.758 242.566L910.306 295.662L916.012 301.051L922.193 306.915L928.85 313.097L935.824 319.595L943.431 326.727H988.603H1033.93L1045.19 334.177L1057.39 342.419H1106.05H1154.71H1203.37H1251.87H1300.52H1349.18L1373.75 351.136H1424.31L1452.84 360.646H1505.46L1508.79 361.596" stroke="#4F00DE" stroke-linecap="round" stroke-linejoin="round"/>
    <path d="M1207.65 177.424L1216.84 186.617L1219.53 189.311L1234.75 204.685L1262.01 212.293L1273.58 236.543L1285.78 248.906H1314.16H1342.53H1370.9H1399.11L1427.48 224.815L1455.85 178.692L1466.63 165.378L1469.64 161.574L1484.22 143.506" stroke="#4F00DE" stroke-linecap="round" stroke-linejoin="round"/>
    <path d="M829.949 244.785L867.354 240.664L904.759 242.566L942.164 290.59H979.57H1016.97H1054.22L1064.21 295.662H1102.72L1114.45 301.051L1126.97 306.915L1140.13 313.097H1182.44H1224.76H1266.92L1285.47 319.595H1329.21L1350.45 326.727H1395.62L1420.19 334.177H1466.95L1495 342.419H1508.79" stroke="#4F00DE" stroke-linecap="round" stroke-linejoin="round"/>
    <path d="M739.924 229.41H718.844H694.593H670.503H646.411L644.984 231.629H620.418L618.515 233.689H593.473L590.937 236.067H565.419L562.249 238.444H536.097L532.294 240.822H505.666L501.228 243.516H474.126L468.736 246.211H441L434.818 248.905L428.478 251.917H399.474H370.469L362.386 254.928H332.747L323.712 258.098H293.282L283.138 261.585L272.36 265.072L260.948 268.717L249.061 272.68L236.539 276.8L223.385 281.08L209.279 285.676L194.538 290.59L178.847 295.662L162.363 301.05L144.612 306.915L125.751 313.096L105.78 319.594H62.0357L39.0537 326.727H-6.27636L-32.5869 334.176H-69.041" stroke="#4F00DE" stroke-linecap="round" stroke-linejoin="round"/>
    <path d="M1508.79 306.914H1495.32L1471.54 301.05H1431.76L1410.68 295.661H1372.17L1353.31 290.589H1315.9L1299.26 285.676H1262.8H1226.51H1190.21H1153.92H1117.62H1081.17H1044.87H1008.58" stroke="#4F00DE" stroke-linecap="round" stroke-linejoin="round"/>
    <path d="M826.939 170.133L859.431 153.808L894.776 126.705L929.962 105.625" stroke="#4F00DE" stroke-linecap="round" stroke-linejoin="round"/>
    <path d="M1508.79 300.576L1487.71 295.663H1449.19L1428.12 290.591H1390.71L1371.85 285.677H1335.55L1318.75 281.081H1283.41H1248.06H1212.72H1177.37H1142.03H1106.68H1071.34" stroke="#4F00DE" stroke-linecap="round" stroke-linejoin="round"/>
    <path d="M1027.6 218.475L1061.99 222.754L1096.38 214.67L1130.78 206.904L1165.17 218.316L1199.56 276.801L1212.72 281.081L1226.51 285.677L1241.25 290.59L1256.62 295.662H1295.14H1333.65L1352.51 301.051H1392.14L1413.38 306.915H1454.27L1478.36 313.097H1508.79" stroke="#4F00DE" stroke-linecap="round" stroke-linejoin="round"/>
    <path d="M1240.45 233.057L1244.26 235.592L1257.41 236.385L1262.48 238.762L1285.78 248.906L1298.46 251.918L1311.62 254.929L1325.57 258.099L1340.15 261.586L1355.36 265.073L1371.37 268.718L1388.17 272.681L1405.92 276.801L1424.78 281.081L1444.6 285.677L1465.52 290.591H1502.76L1508.79 291.859" stroke="#4F00DE" stroke-linecap="round" stroke-linejoin="round"/>
    <path d="M1508.79 290.59H1502.77L1480.89 285.677H1444.6H1408.14L1389.44 281.08H1354.1H1318.75L1302.74 276.801H1268.35H1233.96H1199.56" stroke="#4F00DE" stroke-linecap="round" stroke-linejoin="round"/>
    <path d="M713.773 561.143V556.705L714.249 526.591L714.725 500.439L715.042 477.457L715.358 457.011L715.676 438.784L715.834 422.459L716.151 407.718L716.31 394.246L716.468 382.042L716.627 370.789L716.785 360.645L716.943 351.135L717.102 342.418L717.261 332.116V307.549L717.419 273.313" stroke="#4F00DE" stroke-linecap="round" stroke-linejoin="round"/>
    <path d="M716.308 251.917H689.522H660.517H631.512H602.508H573.503H544.498H515.493H486.488L481.1 254.929L475.552 258.099L469.529 261.585L463.348 265.072L457.008 268.718L450.034 272.68H416.591L398.364 265.706L383.148 259.684L381.406 260.159H379.503L358.899 261.427L358.74 261.585L349.548 266.657L339.721 276.801L329.26 281.081L318.324 285.677L306.754 290.59L294.391 295.662L281.394 301.051L267.446 306.915L252.548 313.097L236.857 319.595L219.897 326.727L201.67 334.177H154.914L133.676 342.418L110.694 351.136L85.968 360.646L59.0236 370.789L29.7018 382.043L-2.31395 394.247L-37.3418 407.719L-69.041 419.765" stroke="#4F00DE" stroke-linecap="round" stroke-linejoin="round"/>
    <path d="M1220.64 269.352L1254.24 272.68H1287.68L1302.74 276.801H1337.14H1371.53H1405.92H1440.47H1474.87H1508.79" stroke="#4F00DE" stroke-linecap="round" stroke-linejoin="round"/>
    <path d="M697.13 272.681H684.609H651.166H617.565H584.122H550.679H517.078H483.636H450.034L442.902 276.801L435.294 281.081H399.949H364.605H329.26H293.915H258.571H223.385H188.04L172.983 285.677H136.687L119.887 290.591H82.4815L63.462 295.663H24.9469H-13.5673L-36.0741 301.051H-69.041" stroke="#4F00DE" stroke-linecap="round" stroke-linejoin="round"/>
    <path d="M1240.77 268.718H1273.42H1306.07H1338.72H1371.37H1404.02H1436.67H1469.32H1501.97H1508.79" stroke="#4F00DE" stroke-linecap="round" stroke-linejoin="round"/>
    <path d="M141.6 258.099L111.169 247.162L80.8965 257.306" stroke="#4F00DE" stroke-linecap="round" stroke-linejoin="round"/>
    <path d="M1027.59 218.474L1019.67 187.408" stroke="#4F00DE" stroke-linecap="round" stroke-linejoin="round"/>
    <path d="M154.754 186.775L184.551 202.466L191.842 205.319" stroke="#4F00DE" stroke-linecap="round" stroke-linejoin="round"/>
    <path d="M859.43 153.809L834.863 172.669" stroke="#4F00DE" stroke-linecap="round" stroke-linejoin="round"/>
    <path d="M342.732 265.071L326.248 268.717H293.598H260.948H228.298H195.648H162.997H130.347H97.6973H65.0469L48.0875 272.679H14.4868H-18.9561L-38.6094 276.8H-69.041" stroke="#4F00DE" stroke-linecap="round" stroke-linejoin="round"/>
    <path d="M991.141 195.334L1019.67 187.409L1053.27 181.861L1086.71 189.311L1096.38 214.67L1106.68 281.08L1117.62 285.676L1129.03 290.59H1166.44H1203.84L1218.27 295.662H1256.62L1273.11 301.05H1312.73H1352.51L1372.48 306.915H1413.37L1436.04 313.096H1478.36L1503.88 319.594H1508.79" stroke="#4F00DE" stroke-linecap="round" stroke-linejoin="round"/>
    <path d="M667.174 306.915H635.792H594.9H553.849H512.957H472.065H431.173L421.663 313.097H379.345L367.933 319.595H324.188H280.443H236.857H193.112L174.726 326.727H129.397L108 334.177H61.0845L36.359 342.418H-12.2997L-40.829 351.136L-69.041 359.694" stroke="#4F00DE" stroke-linecap="round" stroke-linejoin="round"/>
    <path d="M810.93 313.413L814.257 342.418L818.062 351.135L822.024 360.645L826.303 370.789L830.9 382.042L836.13 394.246L841.678 407.718L847.859 422.459L854.674 438.784L862.282 457.011L870.841 477.457L880.509 500.439L891.445 526.591L904.125 556.705L905.869 561.143" stroke="#4F00DE" stroke-linecap="round" stroke-linejoin="round"/>
    <path d="M-69.041 258.099H-40.6703H-10.2388H20.0342L36.2003 254.929L51.5748 251.918L59.4996 248.906L67.1071 246.212L71.5454 244.627" stroke="#4F00DE" stroke-linecap="round" stroke-linejoin="round"/>
    <path d="M765.758 321.814L767.501 350.185L769.403 359.061L771.463 370.79L773.683 382.043L776.218 394.247L778.913 407.719L781.924 422.46L785.094 438.785L788.898 457.012L793.019 477.458L797.615 500.44L802.846 526.591L809.027 556.706L809.819 561.144" stroke="#4F00DE" stroke-linecap="round" stroke-linejoin="round"/>
    <path d="M984.007 187.41L965.305 166.488" stroke="#4F00DE" stroke-linecap="round" stroke-linejoin="round"/>
    <path d="M741.983 286.31L717.891 273.472L717.416 273.313" stroke="#4F00DE" stroke-linecap="round" stroke-linejoin="round"/>
    <path d="M859.432 153.809L863.236 181.387L867.356 240.665L871.795 295.663L876.391 301.051L881.305 306.916L886.535 313.097L892.241 319.595L898.263 326.728H943.435L951.518 334.177L960.235 342.419L969.587 351.136H1020.15H1070.55H1121.11H1171.67H1222.23H1272.63H1323.19H1373.75L1400.38 360.646H1452.84L1483.91 370.79H1508.79" stroke="#4F00DE" stroke-linecap="round" stroke-linejoin="round"/>
    <path d="M1142.03 281.081L1130.78 206.905L1120.16 166.647L1110.17 141.129" stroke="#4F00DE" stroke-linecap="round" stroke-linejoin="round"/>
    <path d="M1262.01 212.293L1289.11 209.44L1316.38 224.339L1319.86 229.411L1321.45 231.63L1329.06 242.566L1342.53 248.906L1356.48 251.917L1371.06 254.929L1386.27 258.099L1402.28 261.586L1419.08 265.073L1436.67 268.718L1455.22 272.681L1474.87 276.801L1495.48 281.081L1508.79 283.934" stroke="#4F00DE" stroke-linecap="round" stroke-linejoin="round"/>
    <path d="M-69.041 243.516H-42.0967H-14.9936H12.1094H39.3702H66.4733L73.2883 242.09" stroke="#4F00DE" stroke-linecap="round" stroke-linejoin="round"/>
    <path d="M742.142 227.35H718.844H695.069H671.454H647.837L646.411 229.41H622.32L620.418 231.629H595.851L593.473 233.689H568.431L565.419 236.067H539.743L536.097 238.444H510.104L505.666 240.822H479.197L474.126 243.516H446.864L441 246.211H413.263H385.526L378.236 248.905L370.469 251.917H341.464L332.747 254.928H303.108L293.282 258.098H263.009L251.914 261.585H220.848H189.783L158.718 256.038L144.929 265.072L130.347 268.717L114.973 272.68L98.965 276.8L82.0056 281.08L64.0958 285.676L45.0763 290.59L24.9469 295.662L3.54995 301.05L-19.1147 306.915L-43.2064 313.096L-69.041 319.594" stroke="#4F00DE" stroke-linecap="round" stroke-linejoin="round"/>
    <path d="M684.926 285.676H681.597H645.302H609.006H572.551H536.256H499.96H463.665L456.215 290.589H418.81L409.935 295.661H371.42H332.906H294.391H255.876H217.362H178.847H140.491L122.581 301.05H82.9567L62.8282 306.914H21.777L-1.04629 313.096H-43.2064H-69.041" stroke="#4F00DE" stroke-linecap="round" stroke-linejoin="round"/>
    <path d="M1289.11 209.44L1301.32 230.837L1314.16 248.906L1327.47 251.917L1341.26 254.929H1371.06H1400.69L1416.54 258.099H1446.98L1464.41 261.586H1495.48L1508.79 263.963" stroke="#4F00DE" stroke-linecap="round" stroke-linejoin="round"/>
    <path d="M1385.64 238.445H1370.58L1357.74 236.067H1333.02" stroke="#4F00DE" stroke-linecap="round" stroke-linejoin="round"/>
    <path d="M1218.11 191.688L1205.11 212.293" stroke="#4F00DE" stroke-linecap="round" stroke-linejoin="round"/>
    <path d="M1221.91 231.947L1216.21 231.63" stroke="#4F00DE" stroke-linecap="round" stroke-linejoin="round"/>
    <path d="M-69.041 285.677H-44.9493H-8.6538L11.3169 281.081H46.6612H82.0056H117.351L133.359 276.801H167.752H202.146L215.618 272.681H249.061H282.503H316.105L337.977 268.718L349.548 266.658L374.431 261.586L378.236 260.793L381.406 260.159" stroke="#4F00DE" stroke-linecap="round" stroke-linejoin="round"/>
    <path d="M138.59 166.804L148.892 171.876L167.436 181.068L185.346 198.82L191.845 205.318L201.037 208.964L214.193 214.194L223.703 227.349L228.299 233.689L230.518 236.701L231.785 238.444L240.345 243.516L254.451 251.916H283.455L293.124 248.905L302.316 246.21H330.053L338.136 243.516H365.398L372.689 240.821H399.316L405.815 238.444H431.808H457.96L463.19 236.066H488.708L493.146 233.689H518.188L521.992 231.629H546.718L549.888 229.41L553.057 227.349H576.673H600.448" stroke="#4F00DE" stroke-linecap="round" stroke-linejoin="round"/>
    <path d="M717.893 250.174V273.473" stroke="#4F00DE" stroke-linecap="round" stroke-linejoin="round"/>
    <path d="M1334.29 237.018L1336.66 236.859" stroke="#4F00DE" stroke-linecap="round" stroke-linejoin="round"/>
    <path d="M252.391 238.444H275.373H301.524H327.518H353.67H379.664L386.479 236.067L392.977 233.689L399.158 231.629L405.182 229.41L410.887 227.35" stroke="#4F00DE" stroke-linecap="round" stroke-linejoin="round"/>
    <path d="M78.8357 257.307L50.465 258.099H20.0342L3.23342 261.586H-27.832L-46.2177 265.073H-69.041" stroke="#4F00DE" stroke-linecap="round" stroke-linejoin="round"/>
    <path d="M1323.66 229.41H1346.17H1370.26H1394.35H1395.94" stroke="#4F00DE" stroke-linecap="round" stroke-linejoin="round"/>
    <path d="M-69.041 248.906H-47.3267H-18.9561H9.41462H37.7853H55.5372" stroke="#4F00DE" stroke-linecap="round" stroke-linejoin="round"/>
    <path d="M1234.75 204.686L1245.84 223.23L1257.41 236.385L1269.46 251.917H1298.46H1327.47H1356.47H1385.48H1414.32L1443.33 238.445L1472.33 213.878L1501.34 214.354L1508.79 206.905" stroke="#4F00DE" stroke-linecap="round" stroke-linejoin="round"/>
    <path d="M1343.48 243.517H1365.03" stroke="#4F00DE" stroke-linecap="round" stroke-linejoin="round"/>
    <path d="M1238.24 265.071H1259.79H1291.65H1323.51H1355.37H1387.22H1419.08H1450.94H1482.8H1508.79" stroke="#4F00DE" stroke-linecap="round" stroke-linejoin="round"/>
    <path d="M732.95 236.067H718.685H693.167H667.649H641.973L640.388 238.445H614.395L612.175 240.822H585.548L582.696 243.517H555.593L552.106 246.211H524.21L519.931 248.906L515.493 251.917L510.738 254.929L505.825 258.099L500.753 261.585L495.206 265.072L489.658 268.718H457.008H424.2L411.203 265.072L404.07 263.012L391.549 259.525L382.991 259.842L374.115 276.801L364.605 281.081L354.619 285.677L344.159 290.59L332.906 295.662L321.018 301.051L308.339 306.915L294.866 313.097L280.443 319.595L265.069 326.727L248.585 334.177H201.67L182.176 342.419L161.254 351.136L138.43 360.646L113.863 370.789L86.9191 382.043L57.5973 394.247L25.4229 407.719L-10.0801 422.459L-49.3876 438.784L-69.041 447.026" stroke="#4F00DE" stroke-linecap="round" stroke-linejoin="round"/>
    <path d="M-69.041 236.067H-48.1192L-33.2207 233.689H-8.17862L5.76951 231.629H30.3364L43.174 229.41L55.6958 227.35" stroke="#4F00DE" stroke-linecap="round" stroke-linejoin="round"/>
    <path d="M1508.79 281.081H1495.47H1460.13L1440.48 276.801L1421.77 272.68L1404.02 268.718L1387.22 265.072L1371.21 261.585L1355.84 258.099L1341.26 254.929H1311.62H1281.98H1252.34H1231.58" stroke="#4F00DE" stroke-linecap="round" stroke-linejoin="round"/>
    <path d="M411.203 265.071H431.49H463.348H495.206H527.064H558.922H590.779H622.637H654.495H686.353H704.104" stroke="#4F00DE" stroke-linecap="round" stroke-linejoin="round"/>
    <path d="M1207.65 177.424L1197.5 194.225" stroke="#4F00DE" stroke-linecap="round" stroke-linejoin="round"/>
    <path d="M740.716 332.433L717.1 342.418H668.442H619.784H571.284H522.625H473.967H425.309H376.809H328.151H279.492H230.834H182.176H133.676H85.0176H36.359L9.57327 351.135L-19.2734 360.645L-50.6553 370.789L-69.041 376.812" stroke="#4F00DE" stroke-linecap="round" stroke-linejoin="round"/>
    <path d="M1077.52 173.303L1086.71 189.311" stroke="#4F00DE" stroke-linecap="round" stroke-linejoin="round"/>
    <path d="M681.28 301.051H678.11H638.327H598.703H559.079H519.297H479.673H440.049L431.173 306.915H390.123L379.345 313.097H337.184H294.866H252.548H210.388H168.069H125.751H83.5905L62.0357 319.595H18.2906L-6.27636 326.727H-51.4478L-69.041 331.482" stroke="#4F00DE" stroke-linecap="round" stroke-linejoin="round"/>
    <path d="M1358.85 447.818L1341.42 438.784L1309.87 422.459L1281.19 407.719L1255.19 394.247L1231.58 382.042L1209.86 370.789L1190.05 360.645L1171.67 351.136L1154.71 342.418L1139.02 334.177L1124.28 326.727L1110.64 319.595H1067.06H1023.31H979.568H935.823H892.237H848.492H830.582" stroke="#4F00DE" stroke-linecap="round" stroke-linejoin="round"/>
    <path d="M1207.65 177.424L1218.11 191.689L1227.78 202.784L1245.84 223.23L1247.9 224.339L1273.58 236.544L1301.32 230.838L1329.05 242.567L1338.88 243.517L1343.79 243.676L1356.79 245.261L1365.03 243.517L1369 242.567L1379.93 240.189H1380.09L1384.69 239.238L1385.64 238.445L1387.38 236.86L1388.33 236.068L1391.03 233.691L1391.66 233.057L1393.56 231.63L1395.62 229.728L1395.94 229.411L1398.32 227.351L1412.42 215.305L1440.16 189.629L1454.58 175.839L1461.87 169.024L1467.9 163.318L1482.95 138.276L1495.63 117.354" stroke="#4F00DE" stroke-linecap="round" stroke-linejoin="round"/>
    <path d="M688.73 295.662H679.378H640.863H602.349H563.834H525.32H486.806H448.291L440.049 301.051H400.266L390.123 306.915H349.23H308.339H267.446H226.554H185.504H144.612H103.72L83.5905 313.097H41.2725L18.2906 319.595H-25.2959L-51.4478 326.727H-69.041" stroke="#4F00DE" stroke-linecap="round" stroke-linejoin="round"/>
    <path d="M693.326 276.801H683.657H649.264H614.87H580.476H546.083H511.689H477.296H442.902H408.508H374.115H339.721H305.327H270.933H236.539H202.146L188.04 281.08H152.695L136.687 285.677H100.391L82.4815 290.59H45.0763H7.67101L-13.5673 295.662H-52.0816L-69.041 299.624" stroke="#4F00DE" stroke-linecap="round" stroke-linejoin="round"/>
    <path d="M266.812 243.516H283.931L292.806 240.822L301.523 238.444L309.765 236.067L317.69 233.689L325.456 231.629L332.747 229.41L339.879 227.35" stroke="#4F00DE" stroke-linecap="round" stroke-linejoin="round"/>
    <path d="M647.837 227.35H624.063H600.447L598.228 229.41L595.851 231.629H571.284L568.431 233.689H543.23L539.743 236.067H514.225L510.104 238.444H483.952L479.197 240.822H452.57L446.864 243.516H419.761H392.5L385.526 246.211H357.789L349.864 248.905L341.464 251.917H312.46L303.108 254.928H273.469L263.009 258.098H232.577H202.305L171.873 252.551L158.718 256.038L143.185 258.732L141.442 258.573L127.653 261.585L113.071 265.072L97.6973 268.717L81.5304 272.68L64.571 276.8L46.6612 281.08L27.6417 285.676L7.671 290.59H-29.7343L-52.0816 295.662H-69.041" stroke="#4F00DE" stroke-linecap="round" stroke-linejoin="round"/>
    <path d="M-69.041 276.009L-52.3989 272.681H-18.9561L-0.253809 268.718H32.3966H65.0469L81.2131 265.073H113.071H144.929H176.787L189.783 261.586L202.305 258.099L214.192 214.195" stroke="#4F00DE" stroke-linecap="round" stroke-linejoin="round"/>
    <path d="M-69.041 272.681H-52.3989L-32.9042 268.718H-0.253809L17.4981 265.073H49.356H81.2131L96.5875 261.586H127.653L141.442 258.574L155.865 255.563L171.873 252.552" stroke="#4F00DE" stroke-linecap="round" stroke-linejoin="round"/>
    <path d="M81.2131 231.63H79.4703L67.1071 233.69L54.1109 236.068L40.7966 238.445L26.6906 240.823L12.1094 243.517L-2.94778 246.212L-18.9561 248.906L-35.4395 251.917L-52.8741 254.929L-69.041 257.782" stroke="#4F00DE" stroke-linecap="round" stroke-linejoin="round"/>
    <path d="M-69.041 254.929H-52.8741H-23.0771H6.56199H36.2003L58.5484 253.026" stroke="#4F00DE" stroke-linecap="round" stroke-linejoin="round"/>
    <path d="M77.8853 236.067H54.1109H28.5928H3.07477H-22.4433L-37.5004 238.445L-53.0327 240.822L-69.041 243.358" stroke="#4F00DE" stroke-linecap="round" stroke-linejoin="round"/>
    <path d="M-69.041 240.822H-53.0327H-26.4057H0.0634984H26.6906H53.3184H74.2394" stroke="#4F00DE" stroke-linecap="round" stroke-linejoin="round"/>
    <path d="M1387.38 236.859L1383.26 236.067H1357.74L1345.38 233.689H1329.69" stroke="#4F00DE" stroke-linecap="round" stroke-linejoin="round"/>
    <path d="M-69.041 221.169L-53.35 229.411H-29.0997H-5.0087H19.083H43.174H67.2657H82.6402" stroke="#4F00DE" stroke-linecap="round" stroke-linejoin="round"/>
    <path d="M230.359 227.35H245.1H268.716H292.49H316.106H339.88H363.496H387.271H410.886H434.661H458.277H481.893H505.668H529.283H553.058" stroke="#4F00DE" stroke-linecap="round" stroke-linejoin="round"/>
    <path d="M259.838 246.211H274.578L283.93 243.516H311.032L319.433 240.822H346.06L353.668 238.444L360.8 236.067L367.774 233.689L374.589 231.629L380.929 229.41L387.269 227.35" stroke="#4F00DE" stroke-linecap="round" stroke-linejoin="round"/>
    <path d="M237.172 231.629H251.594H276.161H300.728H325.454H350.021H374.588H399.155H423.721H448.288H472.855H497.422H521.989L525.793 229.41L529.28 227.35" stroke="#4F00DE" stroke-linecap="round" stroke-linejoin="round"/>
    <path d="M617.725 561.143L618.676 556.705L625.649 526.591L631.831 500.439L637.061 477.457L641.816 457.011L646.096 438.784L649.9 422.459L653.386 407.718L656.398 394.246L659.251 382.042L661.787 370.789L664.164 360.645L666.383 351.135L668.443 342.418L670.346 334.176L672.089 326.727L673.674 319.594L675.259 305.488" stroke="#4F00DE" stroke-linecap="round" stroke-linejoin="round"/>
    <path d="M1320.65 227.35H1334.6H1358.38H1381.99H1398.32" stroke="#4F00DE" stroke-linecap="round" stroke-linejoin="round"/>
    <path d="M1508.79 346.381L1495 342.419H1446.5L1420.19 334.177H1373.27L1350.45 326.727H1305.28L1285.47 319.595H1241.72H1198.14H1154.39H1110.65L1097.97 313.097L1085.92 306.915L1074.83 301.051L1064.21 295.662H1025.69H987.177H948.821H910.306H871.792H833.277L794.763 295.187L781.449 291.383" stroke="#4F00DE" stroke-linecap="round" stroke-linejoin="round"/>
    <path d="M1071.34 281.08L1061.99 222.753L1053.27 181.861L1044.87 170.767" stroke="#4F00DE" stroke-linecap="round" stroke-linejoin="round"/>
    <path d="M138.59 166.804L151.27 171.559L179.64 167.755" stroke="#4F00DE" stroke-linecap="round" stroke-linejoin="round"/>
    <path d="M1369 242.566L1361.07 238.445L1357.27 236.385" stroke="#4F00DE" stroke-linecap="round" stroke-linejoin="round"/>
    <path d="M245.574 236.067H258.571H284.247H309.765H335.283H360.801H386.477H411.995L418.018 233.689L423.724 231.629L429.271 229.41L434.66 227.35" stroke="#4F00DE" stroke-linecap="round" stroke-linejoin="round"/>
    <path d="M790.643 179.801L792.703 192.48L794.764 295.186L796.982 301.05L799.519 306.915L802.055 313.096L802.847 314.839" stroke="#4F00DE" stroke-linecap="round" stroke-linejoin="round"/>
    <path d="M1142.03 281.081L1153.91 285.677L1166.44 290.591L1179.75 295.663L1193.86 301.051L1208.75 306.916L1224.76 313.097L1241.72 319.595L1259.95 326.728L1279.6 334.177L1300.52 342.419L1323.19 351.136L1347.76 360.646L1374.38 370.79L1403.23 382.043L1421.77 389.175" stroke="#4F00DE" stroke-linecap="round" stroke-linejoin="round"/>
    <path d="M1391.66 233.056L1382.63 231.629L1370.26 229.41L1358.38 227.35" stroke="#4F00DE" stroke-linecap="round" stroke-linejoin="round"/>
    <path d="M730.414 238.444H718.685H692.533H666.54H640.388L638.803 240.822H612.176L609.957 243.516H582.696L579.842 246.211H552.106L548.302 248.905L544.498 251.917L540.377 254.928L536.256 258.098L531.818 261.585L527.063 265.072L522.309 268.717L517.078 272.68L511.689 276.8L505.983 281.08L499.96 285.676L493.621 290.59L486.806 295.662L479.673 301.05L472.065 306.915L463.982 313.096L455.264 319.594H411.52L400.742 326.727H355.57L342.257 334.176L328.151 342.418L312.776 351.135L296.134 360.645L278.224 370.789L258.571 382.042L237.332 394.246L213.875 407.718L187.882 422.459L159.352 438.784L127.494 457.011H53.9522L13.6943 477.457H-64.1275L-69.041 479.676" stroke="#4F00DE" stroke-linecap="round" stroke-linejoin="round"/>
    <path d="M1334.6 227.35L1346.17 229.41L1358.06 231.629L1370.42 233.689L1383.26 236.067H1388.33" stroke="#4F00DE" stroke-linecap="round" stroke-linejoin="round"/>
    <path d="M505.668 227.35L501.706 229.41L497.426 231.629L493.147 233.689H468.104L463.191 236.067H437.515H411.997L405.815 238.444H379.664L372.69 240.822H346.062L338.137 243.516H311.034L302.317 246.211H274.58L264.754 248.905L254.452 251.917L243.832 254.928" stroke="#4F00DE" stroke-linecap="round" stroke-linejoin="round"/>
    <path d="M-69.041 235.433L-58.2636 233.689H-33.2207L-18.7974 231.629H5.76952L19.083 229.41L31.9214 227.35" stroke="#4F00DE" stroke-linecap="round" stroke-linejoin="round"/>
    <path d="M1508.79 270.145L1501.97 268.718L1482.8 265.073L1464.41 261.586H1433.35H1402.28H1371.22H1340.15H1308.93H1277.86H1246.8H1236.02" stroke="#4F00DE" stroke-linecap="round" stroke-linejoin="round"/>
    <path d="M-69.041 233.689H-58.2636L-43.3643 231.629H-18.7974L-5.0087 229.41L8.30483 227.35" stroke="#4F00DE" stroke-linecap="round" stroke-linejoin="round"/>
    <path d="M79.4703 233.689H67.1071H42.065H17.0221L3.07477 236.067L-11.3485 238.444L-26.4057 240.822L-42.0967 243.516L-58.5801 246.211L-69.041 247.954" stroke="#4F00DE" stroke-linecap="round" stroke-linejoin="round"/>
    <path d="M-69.041 246.212H-58.5801H-30.8433H-2.94778H24.7891H52.5259H64.7296" stroke="#4F00DE" stroke-linecap="round" stroke-linejoin="round"/>
    <path d="M76.1417 238.444H66.7906L53.3184 240.822L39.3702 243.516L24.7891 246.211L9.41462 248.905L-6.43501 251.917L-23.0771 254.928L-40.6703 258.098L-58.8974 261.585L-69.041 263.328" stroke="#4F00DE" stroke-linecap="round" stroke-linejoin="round"/>
    <path d="M-69.041 261.585H-58.8974H-27.832L-10.2388 258.099L6.562 254.929L22.5695 251.917L37.7853 248.906L52.5259 246.211L66.4733 243.517H72.3379" stroke="#4F00DE" stroke-linecap="round" stroke-linejoin="round"/>
    <path d="M-69.041 283.141L-59.3726 281.081H-24.0282H11.3169L30.1778 276.801H64.571H98.965H133.359L148.574 272.68H182.017H215.618L228.298 268.718L240.502 265.072H272.36H304.218H336.075H342.732L358.424 261.585L358.899 261.427" stroke="#4F00DE" stroke-linecap="round" stroke-linejoin="round"/>
    <path d="M358.424 261.586H345.268H314.203H283.138H251.914L240.502 265.073H208.645H176.787L162.997 268.718L148.574 272.681H114.973H81.5304H48.0875L30.1778 276.801H-4.21621H-38.6094L-59.3726 281.081H-69.041" stroke="#4F00DE" stroke-linecap="round" stroke-linejoin="round"/>
    <path d="M1324.14 229.887L1333.49 231.63H1358.06H1382.63H1393.56" stroke="#4F00DE" stroke-linecap="round" stroke-linejoin="round"/>
    <path d="M700.617 268.718H685.56H652.909H620.259H587.609H554.959H522.309H489.658L483.636 272.68L477.296 276.801L470.639 281.081L463.665 285.677H427.369L418.81 290.59H381.406H344.159H306.754H269.348H231.943H194.538H157.133L140.491 295.662H101.976L82.9567 301.051H43.3327L21.777 306.915H-19.1147H-60.0064L-69.041 309.134" stroke="#4F00DE" stroke-linecap="round" stroke-linejoin="round"/>
    <path d="M689.205 281.081H682.706H647.362H612.018H576.672H541.328H505.983H470.639H435.294L427.369 285.677H390.915H354.619H318.324H282.028H245.733H209.279H172.983L157.133 290.591H119.887L101.976 295.663H63.462L43.3327 301.051H3.54995H-36.0741L-60.0064 306.916H-69.041" stroke="#4F00DE" stroke-linecap="round" stroke-linejoin="round"/>
    <path d="M717.419 273.313L714.09 276.8L713.298 277.751L696.339 295.662L687.146 305.33L673.674 319.594H630.087H586.342H542.597H499.011L491.245 326.727H446.073L436.088 334.176L425.31 342.418L413.899 351.135L401.377 360.645L387.905 370.789L373.165 382.042L356.998 394.246L339.406 407.718L319.91 422.459L298.354 438.784L274.422 457.011L247.478 477.457H169.656H91.6754L51.4175 500.439L5.45363 526.591L-47.0088 556.705L-54.9336 561.143" stroke="#4F00DE" stroke-linecap="round" stroke-linejoin="round"/>
    <path d="M713.455 254.929H688.73H659.09H629.452H599.813H570.174H540.377H510.738H481.1H451.46H421.822L414.848 258.099H384.417H353.985L345.268 261.585L336.075 265.072L326.248 268.718L316.105 272.68L305.327 276.801L293.915 281.081L282.028 285.677L269.348 290.59L255.876 295.662L241.612 301.051L226.554 306.915L210.388 313.097L193.112 319.595H149.366L129.397 326.727H84.2251L61.0845 334.177H14.3282L-12.2997 342.419H-60.7989L-69.041 344.637" stroke="#4F00DE" stroke-linecap="round" stroke-linejoin="round"/>
    <path d="M737.705 231.63H718.685H694.118H669.551H644.984L643.558 233.69H618.515L616.455 236.068H590.937L588.243 238.445H562.249L558.921 240.823H532.294L528.331 243.517H501.228L496.473 246.212H468.736L463.189 248.906L457.484 251.917H428.478L421.822 254.929H392.183H362.386L353.985 258.099H323.712L314.203 261.586L304.218 265.073L293.598 268.718L282.503 272.681L270.933 276.801L258.571 281.081L245.733 285.677L231.943 290.591L217.362 295.663L201.988 301.051L185.504 306.916L168.069 313.097L149.366 319.595H105.78L84.2251 326.728H39.0537L14.3282 334.177H-32.5869L-60.7989 342.419H-69.041" stroke="#4F00DE" stroke-linecap="round" stroke-linejoin="round"/>
    <path d="M1214.62 229.094L1221.91 231.947L1228.41 232.422L1240.46 233.056L1241.72 235.434L1252.34 254.929L1264.86 258.099L1277.86 261.585L1291.65 265.072L1306.07 268.718L1321.29 272.68L1337.14 276.801L1354.1 281.081L1371.85 285.677H1408.15L1428.12 290.59H1465.52L1487.71 295.662H1508.79" stroke="#4F00DE" stroke-linecap="round" stroke-linejoin="round"/>
    <path d="M251.121 237.969L258.571 236.067L267.605 233.689L276.163 231.629L284.564 229.41L292.489 227.35" stroke="#4F00DE" stroke-linecap="round" stroke-linejoin="round"/>
    <path d="M1012.06 185.823L1019.67 187.408" stroke="#4F00DE" stroke-linecap="round" stroke-linejoin="round"/>
    <path d="M1508.79 334.177H1466.94L1440.95 326.727H1395.62L1372.8 319.595H1329.21L1309.24 313.097H1266.92L1249.65 306.915H1208.75H1167.86L1154.07 301.051H1114.45H1074.82H1035.04H995.418H955.794H916.011H876.387H836.763H796.98H789.531" stroke="#4F00DE" stroke-linecap="round" stroke-linejoin="round"/>
    <path d="M735.327 233.689H718.685H693.643H668.6H643.558L641.973 236.067H616.455L614.395 238.444H588.243L585.548 240.822H558.921L555.593 243.516H528.331L524.21 246.211H496.473L491.56 248.905L486.488 251.917H457.484L451.46 254.928L445.121 258.098L438.464 261.585L431.49 265.072L424.2 268.717L416.591 272.68L408.508 276.8L399.949 281.08L390.915 285.676L381.406 290.59L371.42 295.662L360.642 301.05L349.23 306.915L337.184 313.096L324.188 319.594L310.399 326.727H265.069H219.897H174.726L154.914 334.176H108L85.0176 342.418L60.1334 351.135L33.3477 360.645L4.18455 370.789L-27.5147 382.042L-62.0673 394.246L-69.041 396.624" stroke="#4F00DE" stroke-linecap="round" stroke-linejoin="round"/>
    <path d="M201.037 208.965L208.011 207.697" stroke="#4F00DE" stroke-linecap="round" stroke-linejoin="round"/>
    <path d="M1326.68 231.63H1333.49L1345.38 233.69H1370.42H1391.03" stroke="#4F00DE" stroke-linecap="round" stroke-linejoin="round"/>
    <path d="M259.523 240.822H266.181H292.808H319.435L327.519 238.444L335.285 236.067L342.734 233.689L350.025 231.629L356.841 229.41L363.497 227.35" stroke="#4F00DE" stroke-linecap="round" stroke-linejoin="round"/>
    <path d="M-69.041 556.705H-47.0102H48.0875H143.185H238.283H333.381H428.478L448.449 526.591L465.884 500.439L481.258 477.457L494.888 457.011L506.934 438.784L517.87 422.459L527.697 407.719L536.732 394.247L544.815 382.043L552.264 370.789L559.079 360.646L565.419 351.136L571.284 342.418L576.672 334.177L581.586 326.727L586.341 319.595L590.778 313.097L594.9 306.915L598.703 301.051L602.349 295.662L605.678 290.59L609.006 285.677L612.018 281.081L614.87 276.801L617.565 272.68L620.259 268.718L622.636 265.072L625.014 261.585L627.233 258.099L629.452 254.929L631.512 251.917L633.415 248.906L635.316 246.211L637.06 243.517H664.321H691.424H718.527H725.025" stroke="#4F00DE" stroke-linecap="round" stroke-linejoin="round"/>
    <path d="M-69.041 239.238L-63.4936 238.445H-37.5004H-11.3485H14.6447H40.7966H66.7906L77.568 236.385" stroke="#4F00DE" stroke-linecap="round" stroke-linejoin="round"/>
    <path d="M-69.041 238.444H-63.4936L-48.1192 236.067H-22.4433L-8.17862 233.689H17.0221L30.3364 231.629H54.9034L67.2657 229.41L79.3116 227.35" stroke="#4F00DE" stroke-linecap="round" stroke-linejoin="round"/>
    <path d="M1403.55 406.292L1375.02 394.247L1346.01 382.042L1319.54 370.789L1295.14 360.645L1272.63 351.136L1251.87 342.418L1232.69 334.177L1214.78 326.727L1198.14 319.595L1182.44 313.097L1167.86 306.915H1126.97H1085.92H1045.03H1004.14H963.243H922.193H881.301H840.409H799.517H794.287" stroke="#4F00DE" stroke-linecap="round" stroke-linejoin="round"/>
    <path d="M1508.79 320.863L1503.88 319.595H1460.29L1436.04 313.097H1393.72L1372.48 306.915H1331.59L1312.73 301.051L1295.14 295.662L1278.49 290.59L1262.8 285.677L1248.06 281.081L1233.96 276.801L1220.64 269.352L1199.4 221.486L1191.64 203.893L1187.2 194.066L1175.47 142.238L1142.82 131.302L1110.17 141.128L1077.52 173.303L1044.87 170.767L1012.06 185.824L984.008 187.409" stroke="#4F00DE" stroke-linecap="round" stroke-linejoin="round"/>
    <path d="M-69.041 216.731L-62.8598 216.572L-39.0854 227.35H-15.4696H8.30483H31.9214H55.6958H79.3116H84.2251" stroke="#4F00DE" stroke-linecap="round" stroke-linejoin="round"/>
    <path d="M1474.71 423.409L1379.61 500.122L1284.52 556.705H1189.42H1094.32H999.224L980.045 526.591L963.403 500.439L948.822 477.457L935.825 457.011L924.255 438.784L913.794 422.459L904.443 407.718L895.884 394.246L888.118 382.042L881.144 369.996L874.487 359.694L868.464 351.135L862.917 342.418L857.845 334.176L852.932 326.727H840.727L824.878 319.594L810.93 313.413L803.481 316.424L777.963 326.885L765.759 321.813L763.857 322.606L740.716 332.433L717.259 332.116L670.344 334.176H623.429H576.672H529.757H482.843H436.087H389.172H342.257H295.5L279.492 342.418L262.216 351.135L243.672 360.645L223.385 370.789L201.354 382.042L177.421 394.246L150.951 407.718L121.947 422.459L89.7725 438.784L53.9522 457.011H-19.5899L-64.1275 477.457H-69.041" stroke="#4F00DE" stroke-linecap="round" stroke-linejoin="round"/>
    <path d="M81.3717 231.154L79.4703 231.629H54.9033L42.065 233.69L28.5928 236.067L14.6447 238.445L0.0634932 240.822L-14.9936 243.517L-30.8433 246.211L-47.3267 248.906L-64.4448 251.917L-69.041 252.71" stroke="#4F00DE" stroke-linecap="round" stroke-linejoin="round"/>
    <path d="M-69.041 251.917H-64.4448H-35.4395H-6.43501H22.5695H46.0274" stroke="#4F00DE" stroke-linecap="round" stroke-linejoin="round"/>
    <path d="M1382.78 425.628L1375.81 422.459L1343.95 407.718L1315.11 394.246L1288.8 382.042L1264.7 370.789L1242.52 360.645L1222.23 351.135L1203.37 342.418L1185.77 334.176L1169.61 326.727L1154.39 319.594L1140.13 313.096H1097.97H1055.65H1013.33H971.17H928.852H886.533H844.373H802.055L797.934 311.353" stroke="#4F00DE" stroke-linecap="round" stroke-linejoin="round"/>
    <path d="M316.103 227.35L308.653 229.41L300.729 231.629L292.646 233.689L284.245 236.067L275.369 238.444L266.177 240.822L262.373 241.931" stroke="#4F00DE" stroke-linecap="round" stroke-linejoin="round"/>
    <path d="M-69.041 519.459L-31.4771 500.44H51.4161H134.309H217.203H300.097L325.456 477.458L347.963 457.012L367.933 438.785L385.843 422.46L402.168 407.719L416.909 394.247L430.381 382.043L442.585 370.79L453.997 360.646L464.299 351.136L473.967 342.419L482.843 334.177L491.243 326.728H536.415L542.596 319.595L548.46 313.097L553.849 306.916L559.079 301.051L563.834 295.663L568.431 290.591L572.551 285.677L576.672 281.081L580.476 276.801L584.122 272.681L587.609 268.718L590.779 265.073L593.948 261.586L596.96 258.099L599.813 254.929L602.508 251.918L605.043 248.906L607.579 246.212H635.316H663.053H690.79H718.527H722.173" stroke="#4F00DE" stroke-linecap="round" stroke-linejoin="round"/>
    <path d="M-69.041 269.352L-65.5538 268.718H-32.9042L-14.3598 265.072H17.4981L34.2988 261.586H65.5221H96.5875L111.17 247.162L125.117 208.489L154.756 186.775L167.436 181.069L179.639 167.756" stroke="#4F00DE" stroke-linecap="round" stroke-linejoin="round"/>
    <path d="M-69.041 268.717H-65.5538L-46.2177 265.071H-14.3598L3.23342 261.585H34.2988L50.465 258.098L65.8394 252.233L77.0928 243.516L79.4703 241.614L81.0552 240.346L92.3078 231.629L95.1612 229.41L95.4778 229.093L125.117 208.488L138.589 166.804" stroke="#4F00DE" stroke-linecap="round" stroke-linejoin="round"/>
    <path d="M1380.09 240.189L1370.58 238.445H1369L1357.27 236.385L1336.66 236.86L1333.33 236.227" stroke="#4F00DE" stroke-linecap="round" stroke-linejoin="round"/>
    <path d="M233.688 229.41H236.224H260.315H284.565H308.656H332.748H356.839H380.93H405.181H429.272H453.363H477.454H501.705H525.796H549.887H573.979L576.673 227.35" stroke="#4F00DE" stroke-linecap="round" stroke-linejoin="round"/>
    <path d="M521.674 561.143L523.575 556.705L537.047 526.591L548.935 500.439L559.237 477.457L568.43 457.011L576.513 438.784L583.963 422.459L590.461 407.718L596.484 394.246L602.031 382.042L607.103 370.789L611.699 360.645L615.979 351.135L619.783 342.418L623.428 334.176L626.915 326.727L630.085 319.594L632.938 313.096L635.791 306.915L638.326 301.05L640.863 295.662L643.081 290.59L645.301 285.676L647.361 281.08L649.263 276.8L651.165 272.68L652.908 268.717L654.493 265.072L656.078 261.585L657.663 258.098L659.09 254.928L660.516 251.917L661.784 248.905L663.052 246.211L664.32 243.516L665.429 240.822L666.539 238.444L667.648 236.067L668.599 233.689L669.55 231.629L670.502 229.41L671.453 227.35" stroke="#4F00DE" stroke-linecap="round" stroke-linejoin="round"/>
    <path d="M680.488 290.59L681.598 285.676L682.707 281.08L683.658 276.8L684.609 272.68L685.56 268.717L686.353 265.072L687.145 261.585L687.938 258.098L688.73 254.928L689.523 251.917L690.157 248.905L690.791 246.211L691.424 243.516L692.059 240.822L692.534 238.444L693.168 236.067L693.644 233.689L694.119 231.629L694.594 229.41L695.07 227.35" stroke="#4F00DE" stroke-linecap="round" stroke-linejoin="round"/>
    <path d="M718.845 227.35V229.41L718.686 231.629V233.689V236.067V238.444V240.822L718.527 243.516V246.211V248.905V249.698" stroke="#4F00DE" stroke-linecap="round" stroke-linejoin="round"/>
    <path d="M727.72 240.821H718.685H692.058H665.43H638.803L637.06 243.516H609.957L607.579 246.21H579.842L576.672 248.905H548.302H519.931H491.56H463.189H434.818H406.606H378.236H349.864H321.494H293.123H264.752L259.839 246.21L250.488 240.821L246.208 238.444L242.087 236.066L239.393 234.482L236.382 232.738L233.369 230.044L232.577 229.41L230.358 227.349H230.2L214.35 213.243L212.131 211.341L208.645 207.537L189.783 181.544L179.639 167.755L138.589 166.804L109.585 193.114L95.4778 229.093L95.1612 229.41L81.0552 256.988L65.5221 261.585L49.356 265.071L32.3966 268.717L14.4868 272.679L-4.21621 276.8L-24.0282 281.08L-44.9493 285.676L-67.1388 290.589L-69.041 290.906" stroke="#4F00DE" stroke-linecap="round" stroke-linejoin="round"/>
    <path d="M234.479 233.214L236.381 232.739" stroke="#4F00DE" stroke-linecap="round" stroke-linejoin="round"/>
    <path d="M624.063 227.35L622.32 229.41H598.228H573.978L571.284 231.629H546.717L543.23 233.689H518.187L514.225 236.067H488.707L483.952 238.444H457.959L452.57 240.822H425.942H399.315L392.5 243.516H365.397L357.789 246.211H330.052L321.494 248.905L312.46 251.917H283.454L273.469 254.928H243.83L232.577 258.098L220.848 261.585L208.645 265.072L195.648 268.717L182.017 272.68L167.752 276.8L152.695 281.08H117.351L100.391 285.676H64.0958H27.6417H-8.6538L-29.7343 290.59H-67.1388H-69.041" stroke="#4F00DE" stroke-linecap="round" stroke-linejoin="round"/>
    <path d="M234.322 229.886L236.225 229.41L245.1 227.35" stroke="#4F00DE" stroke-linecap="round" stroke-linejoin="round"/>
    <path d="M240.818 233.689H242.562H267.604H292.647H317.689H342.731H367.774H392.975H418.017H443.06H468.102L472.857 231.629L477.453 229.41L481.891 227.35" stroke="#4F00DE" stroke-linecap="round" stroke-linejoin="round"/>
    <path d="M241.295 234.006L242.563 233.689L251.597 231.629L260.314 229.41L268.715 227.35" stroke="#4F00DE" stroke-linecap="round" stroke-linejoin="round"/>
    <path d="M710.446 258.099H687.94H657.667H627.235H596.963H566.531H536.258H505.828H475.555H445.123H414.85L407.401 261.585H406.133" stroke="#4F00DE" stroke-linecap="round" stroke-linejoin="round"/>
    <path d="M1508.79 276.642L1488.82 272.68L1469.32 268.717L1450.94 265.072L1433.35 261.585L1416.55 258.098H1386.27H1355.84H1325.57H1295.14H1264.86H1234.43L1233.64 257.939" stroke="#4F00DE" stroke-linecap="round" stroke-linejoin="round"/>
    <path d="M-69.041 500.44H-31.4771L13.6943 477.458H91.674L127.494 457.012H200.878L228.773 438.785L253.974 422.46L276.639 407.719L297.085 394.247L315.946 382.043L333.064 370.79L348.755 360.646L363.336 351.136L376.809 342.419L389.172 334.177L400.742 326.728H446.072L455.264 319.595H499.009L506.142 313.097L512.957 306.916L519.297 301.051L525.32 295.663L531.026 290.591L536.256 285.677L541.328 281.081L546.083 276.801L550.679 272.681L554.959 268.718L558.921 265.073L562.884 261.586L566.529 258.099L570.174 254.929L573.503 251.918L576.672 248.906H605.043H633.415H661.785H690.156H718.527H719.16" stroke="#4F00DE" stroke-linecap="round" stroke-linejoin="round"/>
    <path d="M1233.8 258.099H1234.43L1246.8 261.585L1259.79 265.072L1273.42 268.718L1287.69 272.68H1321.29H1354.73H1388.17H1421.78H1455.22H1488.82H1508.79" stroke="#4F00DE" stroke-linecap="round" stroke-linejoin="round"/>
    <path d="M707.432 261.586H687.145H656.08H625.014H593.949H562.884H531.819H500.753H469.529H438.465H407.399H407.082" stroke="#4F00DE" stroke-linecap="round" stroke-linejoin="round"/>
    <path d="M1175.47 142.237L1181.65 156.819L1197.5 194.224L1205.11 212.293L1208.12 219.267L1214.62 229.093L1216.2 231.629L1231.58 254.928L1233.64 257.94L1233.8 258.098L1235.7 261.109L1236.02 261.585L1238.23 265.072L1240.77 268.717L1254.24 272.68L1268.35 276.8L1283.41 281.08L1299.26 285.676H1335.55L1353.3 290.59H1390.71L1410.68 295.662H1449.19L1471.54 301.05H1508.79" stroke="#4F00DE" stroke-linecap="round" stroke-linejoin="round"/>
    <path d="M1316.37 224.339L1320.65 227.35L1323.66 229.411L1324.14 229.886L1326.68 231.629L1329.69 233.69L1333.02 236.067L1333.33 236.226L1334.28 237.019L1343.79 243.675L1356.79 245.26L1370.9 248.906L1385.48 251.917L1400.69 254.929H1430.33L1446.97 258.099H1477.41L1495.47 261.585H1508.79" stroke="#4F00DE" stroke-linecap="round" stroke-linejoin="round"/>
    <path d="M-69.041 351.136H-40.829H9.57327H60.1334H110.694H161.254H211.656H262.216H312.776H363.336H413.897H464.299H514.859H565.419H615.98H666.382H716.942L767.502 350.185L818.063 351.136H868.464H919.024L927.108 360.645L935.825 370.789L945.335 382.042L955.796 394.247L967.207 407.719L979.887 422.459H1045.82H1111.76L1132.84 438.784L1156.29 457.011L1182.6 477.457L1212.24 500.439H1287.21L1291.33 497.903L1323.51 477.457L1330.64 472.861L1334.44 470.483L1349.03 457.011L1358.85 447.818L1368.52 438.784L1382.78 425.629L1386.11 422.459L1401.96 407.719L1403.55 406.292L1416.39 394.247L1421.77 389.175L1423.04 388.065" stroke="#4F00DE" stroke-linecap="round" stroke-linejoin="round"/>
    <path d="M-69.041 526.591H5.45221H94.0514H182.651H271.251H359.85L382.991 500.439L403.436 477.457L421.346 457.011L437.513 438.784L451.936 422.459L464.933 407.718L476.82 394.246L487.598 382.042L497.424 370.789L506.459 360.645L514.859 351.135L522.625 342.418L529.757 334.176L536.415 326.727H581.586H626.916H672.087L673.039 326.251L688.73 319.594L717.259 307.549L724.866 301.05L741.984 286.31L756.09 274.106L762.589 268.559" stroke="#4F00DE" stroke-linecap="round" stroke-linejoin="round"/>
    <path d="M1368.52 438.783H1341.42H1272H1202.42L1177.85 422.458L1155.66 407.718L1135.53 394.246L1117.14 382.042L1100.34 370.788L1084.81 360.645L1070.55 351.135L1057.39 342.417H1008.89H960.234H911.576H862.917H814.258L777.963 326.885" stroke="#4F00DE" stroke-linecap="round" stroke-linejoin="round"/>
    <path d="M1349.02 457.012H1303.38L1271.99 438.785L1243.78 422.459L1218.42 407.719L1195.28 394.247L1174.36 382.043L1155.02 370.79L1137.43 360.646L1121.11 351.136L1106.05 342.419L1092.1 334.177H1045.19H998.43H951.515H904.6H857.844L840.727 326.728" stroke="#4F00DE" stroke-linecap="round" stroke-linejoin="round"/>
    <path d="M677.318 303.903L681.281 301.05L688.73 295.661L702.361 285.676L713.297 277.751" stroke="#4F00DE" stroke-linecap="round" stroke-linejoin="round"/>
    <path d="M773.682 203.892L792.701 192.48" stroke="#4F00DE" stroke-linecap="round" stroke-linejoin="round"/>
    <path d="M458.277 227.35L453.363 229.41L448.291 231.629L443.061 233.689L437.514 236.067L431.808 238.444L425.943 240.822L419.762 243.516L413.263 246.211L406.607 248.905L399.475 251.917L392.184 254.928L384.417 258.098L381.881 259.208L379.504 260.158" stroke="#4F00DE" stroke-linecap="round" stroke-linejoin="round"/>
    <path d="M1244.26 235.592L1269.46 251.917L1281.98 254.929L1295.14 258.099L1308.92 261.585L1323.51 265.072L1338.72 268.718L1354.73 272.68L1371.53 276.801L1389.44 281.081H1424.78H1460.13L1480.89 285.677H1508.79" stroke="#4F00DE" stroke-linecap="round" stroke-linejoin="round"/>
    <path d="M975.766 190.104L979.569 198.504L1000.65 246.37L1035.99 281.081H1071.34L1081.17 285.677L1091.63 290.59H1129.03L1141.24 295.662H1179.75H1218.26L1233.48 301.051H1273.1L1290.7 306.915H1331.59L1351.56 313.097H1393.72L1416.54 319.595H1460.29L1486.12 326.727H1508.79" stroke="#4F00DE" stroke-linecap="round" stroke-linejoin="round"/>
    <path d="M243.831 254.928L231.785 238.444" stroke="#4F00DE" stroke-linecap="round" stroke-linejoin="round"/>
  </g>
  <defs>
    <filter id="filter0_f_12356_231808" x="-13.0469" y="-640.525" width="1007.05" height="1007.05" filterUnits="userSpaceOnUse" color-interpolation-filters="sRGB">
      <feFlood flood-opacity="0" result="BackgroundImageFix"/>
      <feBlend mode="normal" in="SourceGraphic" in2="BackgroundImageFix" result="shape"/>
      <feGaussianBlur stdDeviation="167" result="effect1_foregroundBlur_12356_231808"/>
    </filter>
    <filter id="filter1_f_12356_231808" x="766.953" y="-510.525" width="1007.05" height="1007.05" filterUnits="userSpaceOnUse" color-interpolation-filters="sRGB">
      <feFlood flood-opacity="0" result="BackgroundImageFix"/>
      <feBlend mode="normal" in="SourceGraphic" in2="BackgroundImageFix" result="shape"/>
      <feGaussianBlur stdDeviation="167" result="effect1_foregroundBlur_12356_231808"/>
    </filter>
    <linearGradient id="paint0_linear_12356_231808" x1="679.5" y1="358.475" x2="679.5" y2="0.237305" gradientUnits="userSpaceOnUse">
      <stop stop-color="#1A1A1A"/>
      <stop offset="1" stop-color="#1D0052"/>
    </linearGradient>
    <linearGradient id="paint1_linear_12356_231808" x1="679.5" y1="358.474" x2="679.5" y2="0.236328" gradientUnits="userSpaceOnUse">
      <stop stop-color="#1A1A1A"/>
      <stop offset="1" stop-color="#1D0052"/>
    </linearGradient>
    <linearGradient id="paint2_linear_12356_231808" x1="488.714" y1="65.387" x2="343.376" y2="141.391" gradientUnits="userSpaceOnUse">
      <stop stop-color="#C701F9"/>
      <stop offset="1" stop-color="#5C00D1" stop-opacity="0"/>
    </linearGradient>
    <linearGradient id="paint3_linear_12356_231808" x1="1014.09" y1="147.587" x2="1471.16" y2="182.629" gradientUnits="userSpaceOnUse">
      <stop stop-color="#FF7E06"/>
      <stop offset="1" stop-color="#4F00DE"/>
    </linearGradient>
  </defs>
</svg>
