<svg width="41" height="41" viewBox="0 0 41 41" fill="none" xmlns="http://www.w3.org/2000/svg">
<rect x="0.778809" y="0.62793" width="40" height="40" rx="4" fill="#3B99FC"/>
<path d="M13.2393 15.8604C17.4033 11.7835 24.1544 11.7835 28.3184 15.8604L28.8195 16.3511C29.0277 16.5549 29.0277 16.8854 28.8195 17.0892L27.1052 18.7677C27.0011 18.8696 26.8323 18.8696 26.7282 18.7677L26.0386 18.0925C23.1337 15.2483 18.424 15.2483 15.5191 18.0925L14.7805 18.8156C14.6764 18.9175 14.5076 18.9175 14.4035 18.8156L12.6892 17.1371C12.481 16.9333 12.481 16.6028 12.6892 16.3989L13.2393 15.8604ZM31.8637 19.3316L33.3895 20.8254C33.5977 21.0293 33.5977 21.3598 33.3895 21.5636L26.5098 28.2995C26.3016 28.5033 25.9641 28.5033 25.7559 28.2995C25.7559 28.2995 25.7559 28.2995 25.7559 28.2995L20.8731 23.5188C20.8211 23.4679 20.7367 23.4679 20.6846 23.5188C20.6846 23.5188 20.6846 23.5188 20.6846 23.5188L15.802 28.2995C15.5938 28.5033 15.2562 28.5033 15.048 28.2995C15.048 28.2995 15.048 28.2995 15.048 28.2995L8.16817 21.5635C7.95997 21.3597 7.95997 21.0292 8.16817 20.8253L9.69391 19.3315C9.90211 19.1277 10.2397 19.1277 10.4479 19.3315L15.3307 24.1122C15.3827 24.1632 15.4671 24.1632 15.5192 24.1122C15.5192 24.1122 15.5192 24.1122 15.5192 24.1122L20.4018 19.3315C20.61 19.1277 20.9475 19.1277 21.1557 19.3315C21.1557 19.3315 21.1557 19.3315 21.1557 19.3315L26.0385 24.1122C26.0906 24.1632 26.175 24.1632 26.227 24.1122L31.1098 19.3316C31.318 19.1278 31.6555 19.1278 31.8637 19.3316Z" fill="white"/>
</svg>
