<svg width="741" height="99" viewBox="0 0 741 99" fill="none" xmlns="http://www.w3.org/2000/svg">
<g clip-path="url(#clip0_19904_294595)">
<rect x="0.917969" y="0.0478516" width="740" height="98" rx="6" fill="#141414"/>
<path d="M667.723 -212.879L686.86 -144.337L706.317 -74.5672L698.019 -38.0945L689.771 -2.12697L700.704 11.1893L711.309 23.9102" stroke="#313131" stroke-width="0.5" stroke-linecap="round" stroke-linejoin="round"/>
<path d="M603.609 78.8269L547.797 64.0029L522.398 62.404" stroke="#313131" stroke-width="0.5" stroke-linecap="round" stroke-linejoin="round"/>
<path d="M695.736 -197.483L710.152 -146.044L724.936 -93.8828L712.728 -41.0671L700.697 11.2029" stroke="#313131" stroke-width="0.5" stroke-linecap="round" stroke-linejoin="round"/>
<path d="M700.703 11.2019L649.692 22.3356L597.708 33.7079" stroke="#313131" stroke-width="0.5" stroke-linecap="round" stroke-linejoin="round"/>
<path d="M597.695 33.7125L576.413 -12.4739L554.558 -59.807L540.561 -113.896L526.762 -167.139L526.831 -203.101L526.269 -241.019" stroke="#313131" stroke-width="0.5" stroke-linecap="round" stroke-linejoin="round"/>
<path d="M688.862 44.4539L640.089 55.3678L590.469 66.4802L577.041 53.6752L548.756 -6.44391L519.576 -68.7262L510.211 -105.334L500.966 -141.561L526.768 -167.149L552.527 -192.655L589.288 -183.889L626.299 -174.993L647.285 -194.16L667.715 -212.872L678.985 -219.451L689.446 -225.494" stroke="#313131" stroke-width="0.5" stroke-linecap="round" stroke-linejoin="round"/>
<path d="M689.754 -2.11646L654.479 5.49798L618.823 13.2335L597.692 33.7059L577.032 53.6792" stroke="#313131" stroke-width="0.5" stroke-linecap="round" stroke-linejoin="round"/>
<path d="M618.833 13.2348L604.421 -18.5571L589.849 -50.8577L571.009 -122.431L552.528 -192.649L552.128 -216.856L551.759 -240.303" stroke="#313131" stroke-width="0.5" stroke-linecap="round" stroke-linejoin="round"/>
<path d="M577.195 77.1267L547.792 64.0007L544.564 54.2558L541.255 44.257L519.948 -0.243266L498.152 -45.8472L482.689 -74.9986L467.431 -103.725L474.588 -140.046L475.872 -175.485L477.007 -209.407" stroke="#313131" stroke-width="0.5" stroke-linecap="round" stroke-linejoin="round"/>
<path d="M603.608 78.8219L577.198 77.1239L522.397 62.399L492.699 49.2265L473.358 28.5763L454.516 8.39697L440.104 -20.5278L447.832 -32.7668L456.035 -45.7149L482.693 -75.0014L510.209 -105.329L540.565 -113.902L571.005 -122.431L603.225 -131.525L635.571 -140.658L661.485 -142.509L686.851 -144.325L710.149 -146.046L733.109 -147.73L738.977 -153.925L744.461 -159.788" stroke="#313131" stroke-width="0.5" stroke-linecap="round" stroke-linejoin="round"/>
<path d="M577.203 77.1277L551.553 75.3985L522.401 62.4027" stroke="#313131" stroke-width="0.5" stroke-linecap="round" stroke-linejoin="round"/>
<path d="M756.407 -129.807L759.895 -106.229L753.435 -97.0497L741.642 -46.6733L730.03 2.94665" stroke="#313131" stroke-width="0.5" stroke-linecap="round" stroke-linejoin="round"/>
<path d="M454.512 8.3963L465.532 -6.91334L477.33 -23.5185L498.151 -45.8507L519.57 -68.7219" stroke="#313131" stroke-width="0.5" stroke-linecap="round" stroke-linejoin="round"/>
<path d="M755.855 -49.4875L741.648 -46.6623L727.018 -43.8436L712.727 -41.0618L698.01 -38.0756L651.574 -28.3921L604.419 -18.5501L576.418 -12.4722L548.756 -6.43157L519.952 -0.238644L491.698 5.9196L482.249 17.5847L473.359 28.5837" stroke="#313131" stroke-width="0.5" stroke-linecap="round" stroke-linejoin="round"/>
<path d="M505.816 34.7839L499.13 42.1472L492.701 49.2195" stroke="#313131" stroke-width="0.5" stroke-linecap="round" stroke-linejoin="round"/>
<path d="M511.794 -237.567L502.688 -234.751L477.016 -209.413L451.344 -184.075L450.21 -161.62M653.318 -236.904L627.605 -254.276L588.75 -249.792L583.341 -248.987L569.425 -245.905L549.846 -241.936L588.262 -208.313M653.318 -236.904L661.895 -240.951L689.45 -225.492L710.694 -208.102L732.394 -190.157L744.466 -159.791L756.417 -129.806L749.929 -121.596M653.318 -236.904L644.147 -232.529L616.48 -220.543L588.262 -208.313M653.318 -236.904L678.989 -219.449L703.45 -202.939L727.869 -186.345L738.983 -153.927L749.929 -121.596M749.929 -121.596L753.445 -97.049L763.507 -81.8485L755.86 -49.4977L748.344 -17.3982L730.04 2.94743L711.305 23.9189M749.929 -121.596L743.054 -112.844L727.023 -43.8538L711.305 23.9189M711.305 23.9189L644.936 38.6616M711.305 23.9189L688.866 44.456L667.026 64.4541L635.51 71.5763M644.936 38.6616L577.045 53.6774L541.264 44.2514L505.82 34.7882L491.702 5.90943L477.34 -23.5206L456.04 -45.7177L435.196 -67.36L442.003 -102.801L448.983 -138.576L450.21 -161.62M644.936 38.6616L649.689 22.3317L654.492 5.49615L651.579 -28.4022L648.716 -62.8058L617.454 -78.489L603.23 -131.527L589.292 -183.887L588.262 -208.313M644.936 38.6616L640.093 55.37L635.51 71.5763M450.21 -161.62L475.881 -175.49L501.892 -189.608L526.841 -203.11L552.13 -216.859L588.262 -208.313M450.21 -161.62L442.169 -145.296L441.176 -138.06L438.387 -117.737L434.324 -88.2002L430.257 -58.4527L447.838 -32.7695L465.542 -6.91542L482.254 17.5746L499.134 42.1514L510.893 45.277L544.573 54.2503L590.473 66.4824L603.614 78.8191L635.51 71.5763" stroke="#313131" stroke-width="0.5" stroke-linecap="round" stroke-linejoin="round"/>
<path d="M511.795 -237.568L520.48 -240.391L548.099 -243.481L569.426 -245.906L584.883 -247.659L621.202 -251.758L644.148 -232.53L667.72 -212.872L695.74 -197.489L723.214 -182.284L733.116 -147.734L743.055 -112.846L724.941 -93.8889L706.314 -74.5598L648.717 -62.8071L589.852 -50.8621L554.569 -59.8167L519.581 -68.7253" stroke="#313131" stroke-width="0.5" stroke-linecap="round" stroke-linejoin="round"/>
<path d="M547.801 64.0046L506.438 52.8514L492.704 49.2332" stroke="#313131" stroke-width="0.5" stroke-linecap="round" stroke-linejoin="round"/>
<path d="M197.112 71.2666L197.206 125.846L177.223 153.182V208.138L197.301 235.664L222.847 238.586L247.355 241.414L270.921 244.053L293.545 246.598" stroke="#313131" stroke-width="0.5" stroke-linecap="round" stroke-linejoin="round"/>
<path d="M-0.464844 217.286L0.00647798 165.252L0.4778 113.407L0.949121 61.9385" stroke="#313131" stroke-width="0.5" stroke-linecap="round" stroke-linejoin="round"/>
<path d="M144.977 54.4893L144.883 103.695L144.789 153.184L144.695 202.861L144.6 252.821L130.743 264.982L85.6851 266.584L41.7578 268.092" stroke="#313131" stroke-width="0.5" stroke-linecap="round" stroke-linejoin="round"/>
<path d="M10.6523 257.911L11.0293 210.024L11.4063 162.326L11.7837 114.817L12.1607 67.5908" stroke="#313131" stroke-width="0.5" stroke-linecap="round" stroke-linejoin="round"/>
<path d="M35.7266 79.4689L80.4078 75.3213" stroke="#313131" stroke-width="0.5" stroke-linecap="round" stroke-linejoin="round"/>
<path d="M112.651 64.8604L112.557 108.976L112.368 153.186L112.274 197.585L112.085 242.266L98.6997 254.52L85.6914 266.586" stroke="#313131" stroke-width="0.5" stroke-linecap="round" stroke-linejoin="round"/>
<path d="M23.7578 73.4384L67.5907 69.1965L112.649 64.8604" stroke="#313131" stroke-width="0.5" stroke-linecap="round" stroke-linejoin="round"/>
<path d="M43.1758 57.6945L86.6317 53.2642L131.313 48.7394L141.682 36.4851L182.781 32.2432L205.593 51.5674L222.467 77.4901L246.787 83.4288L261.115 108.409L275.537 133.766L293.825 137.536L311.547 141.213" stroke="#313131" stroke-width="0.5" stroke-linecap="round" stroke-linejoin="round"/>
<path d="M22.4375 246.037L22.8145 202.581L23.0975 159.408L23.4745 116.329L23.7571 73.4385" stroke="#313131" stroke-width="0.5" stroke-linecap="round" stroke-linejoin="round"/>
<path d="M12.1602 67.59L55.2387 63.3481L67.5874 69.1925L80.4075 75.3196L112.646 64.8563L144.979 54.4872L177.217 44.1182L205.59 51.5651L232.644 58.6349L258.661 65.4219L283.547 71.9261" stroke="#313131" stroke-width="0.5" stroke-linecap="round" stroke-linejoin="round"/>
<path d="M-0.9375 269.506L41.7641 268.093L54.0184 256.215L98.6996 254.519L130.75 264.982L177.128 263.379L197.3 235.666L197.206 180.615V125.848L177.222 98.511V44.1204L182.784 32.2432L188.156 20.7429L193.341 9.43122L198.432 -1.40918" stroke="#313131" stroke-width="0.5" stroke-linecap="round" stroke-linejoin="round"/>
<path d="M0.945312 61.9359L43.1756 57.694L55.2412 63.3498L86.6315 53.2636L101.619 40.7264L116.325 28.3778L130.653 16.4061L161.666 13.0126L193.338 9.43066L215.397 28.3778L237.171 47.0421L258.664 65.4236L270.258 89.084L281.947 113.121L293.824 137.536L305.89 162.327L294.107 189.853L282.418 217.095L270.918 244.055L259.418 270.731L237.831 286.002L215.868 301.556L193.527 317.487L161.383 318.052L129.899 318.618L98.9802 319.183L80.2213 302.404L61.1801 285.437L41.7616 268.092L10.6544 257.911" stroke="#313131" stroke-width="0.5" stroke-linecap="round" stroke-linejoin="round"/>
<path d="M80.408 75.3213L80.2193 114.158L79.9366 153.184L79.7479 192.398L79.5597 231.706L66.6453 244.149L22.4354 246.034L10.6523 257.911" stroke="#313131" stroke-width="0.5" stroke-linecap="round" stroke-linejoin="round"/>
<path d="M34.6016 233.781L34.8846 194.944L35.1672 156.295L35.4498 117.835L35.7329 79.4697" stroke="#313131" stroke-width="0.5" stroke-linecap="round" stroke-linejoin="round"/>
<path d="M23.7578 73.4351L55.242 63.3488L99.4524 59.0127L112.649 64.857" stroke="#313131" stroke-width="0.5" stroke-linecap="round" stroke-linejoin="round"/>
<path d="M12.1602 67.5925L43.173 57.6947L62.5916 44.7806L81.5388 32.1491L116.322 28.3786L151.86 24.608L188.151 20.7432L210.587 39.7845L237.169 47.0428L262.715 54.0184" stroke="#313131" stroke-width="0.5" stroke-linecap="round" stroke-linejoin="round"/>
<path d="M182.785 32.2432L210.593 39.7843L232.651 58.6372L246.791 83.4288L270.262 89.0846L292.697 94.5519" stroke="#313131" stroke-width="0.5" stroke-linecap="round" stroke-linejoin="round"/>
<path d="M188.152 20.7432L215.395 28.3786L241.6 35.7311" stroke="#313131" stroke-width="0.5" stroke-linecap="round" stroke-linejoin="round"/>
<path d="M193.336 9.43066L220.201 17.2545" stroke="#313131" stroke-width="0.5" stroke-linecap="round" stroke-linejoin="round"/>
<path d="M24.418 48.7386L47.5127 35.8245L81.5423 32.1481L100.112 19.7995L118.399 7.63939L144.605 4.71721L171.282 1.60645" stroke="#313131" stroke-width="0.5" stroke-linecap="round" stroke-linejoin="round"/>
<path d="M197.109 71.2666L222.467 77.488L239.528 103.599L261.115 108.407L281.947 113.12L302.026 117.645" stroke="#313131" stroke-width="0.5" stroke-linecap="round" stroke-linejoin="round"/>
<path d="M47.5117 35.827L70.2295 23.1013L100.111 19.802L130.653 16.4084L144.604 4.71973" stroke="#313131" stroke-width="0.5" stroke-linecap="round" stroke-linejoin="round"/>
<path d="M70.2305 23.101L92.5708 10.5638L118.399 7.6416" stroke="#313131" stroke-width="0.5" stroke-linecap="round" stroke-linejoin="round"/>
<path d="M34.6016 233.782L47.139 221.15L47.3273 187.121L47.6103 153.186L47.7986 119.345L47.9873 85.6924" stroke="#313131" stroke-width="0.5" stroke-linecap="round" stroke-linejoin="round"/>
<path d="M131.312 48.7393L144.981 54.4894" stroke="#313131" stroke-width="0.5" stroke-linecap="round" stroke-linejoin="round"/>
<path d="M86.6289 53.2627L99.449 59.0128L144.978 54.4881" stroke="#313131" stroke-width="0.5" stroke-linecap="round" stroke-linejoin="round"/>
<path d="M35.7266 79.4689L47.9809 85.6904L80.4078 75.3213" stroke="#313131" stroke-width="0.5" stroke-linecap="round" stroke-linejoin="round"/>
<path d="M0.945336 61.9364L12.1627 67.5923L23.757 73.4366L35.7288 79.4696L67.59 69.1947L99.4516 59.0142L131.313 48.7394L177.22 44.1204L197.109 71.2686L217.188 98.511L239.528 103.601L256.684 129.807L275.537 133.766L290.148 159.312L275.82 186.837L261.492 214.173L247.352 241.416L233.213 268.375L210.872 284.023L182.781 281.855L141.211 283.081L100.677 284.212L61.1802 285.437L22.6261 286.568L-0.939951 269.506L-7.63281 244.432L-0.468629 217.284L-7.16149 192.775L0.00269258 165.25L-6.69017 141.213L0.474014 113.405L-6.21885 90.0272L0.945336 61.9364ZM0.945336 61.9364L24.4171 48.7394L62.5941 44.7804L101.619 40.7269L141.682 36.485L151.862 24.6078L161.666 13.0132L171.281 1.60723L198.429 -1.40918L220.204 17.2551L241.602 35.7309L262.717 54.0182L283.55 71.9284L292.694 94.5519L302.026 117.647L311.546 141.213L321.255 165.156L311.923 192.681L302.685 219.829L293.542 246.6L284.587 272.994L263.66 287.982L242.356 303.253L220.675 318.807L198.712 334.549L171.093 334.926L144.038 335.303L129.899 318.618L115.382 301.651L100.677 284.212L85.6889 266.584L54.016 256.215L10.6544 257.912L-0.939951 269.506" stroke="#313131" stroke-width="0.5" stroke-linecap="round" stroke-linejoin="round"/>
<path d="M262.721 54.0166L258.668 65.4226" stroke="#313131" stroke-width="0.5" stroke-linecap="round" stroke-linejoin="round"/>
<path d="M241.6 35.7314L237.169 47.0432L232.645 58.6377" stroke="#313131" stroke-width="0.5" stroke-linecap="round" stroke-linejoin="round"/>
<path d="M220.205 17.2549L215.398 28.3781L210.59 39.7841L205.594 51.5671" stroke="#313131" stroke-width="0.5" stroke-linecap="round" stroke-linejoin="round"/>
<path d="M0.472656 113.403L11.7844 114.817L23.4731 116.325L35.4444 117.833L47.7931 119.341L80.2199 114.157L112.553 108.972L144.885 103.694L177.218 98.509L197.108 71.2666" stroke="#313131" stroke-width="0.5" stroke-linecap="round" stroke-linejoin="round"/>
</g>
<defs>
<clipPath id="clip0_19904_294595">
<rect x="0.917969" y="0.0478516" width="740" height="98" rx="6" fill="white"/>
</clipPath>
</defs>
</svg>
