<svg width="24" height="22" viewBox="0 0 24 22" fill="none" xmlns="http://www.w3.org/2000/svg">
<path d="M22.7428 18.5774C22.7428 19.159 22.5117 19.7169 22.1004 20.1281C21.6892 20.5394 21.1314 20.7704 20.5497 20.7704H3.00553C2.4239 20.7704 1.8661 20.5394 1.45482 20.1281C1.04355 19.7169 0.8125 19.159 0.8125 18.5774V3.22623C0.8125 2.6446 1.04355 2.0868 1.45482 1.67553C1.8661 1.26425 2.4239 1.0332 3.00553 1.0332H8.4881L10.6811 4.32274H20.5497C21.1314 4.32274 21.6892 4.55379 22.1004 4.96507C22.5117 5.37634 22.7428 5.93414 22.7428 6.51577V18.5774Z" stroke="#CCBBFF" stroke-linecap="round" stroke-linejoin="round"/>
<path d="M15.1328 12.4629H11.7635L8.43132 12.4629" stroke="#CCBBFF" stroke-linecap="round" stroke-linejoin="round"/>
<path d="M11.7812 9.1123V12.4631V15.8138" stroke="#CCBBFF" stroke-linecap="round" stroke-linejoin="round"/>
</svg>
