<svg width="14" height="14" viewBox="0 0 14 14" fill="none" xmlns="http://www.w3.org/2000/svg">
<path d="M5.98167 0.208008C5.4418 0.208008 4.94077 0.495752 4.66891 0.962016L3.92678 2.23453H2.61337C1.40693 2.23453 0.417969 3.22349 0.417969 4.42993V10.8472C0.417969 12.0537 1.40693 13.0426 2.61337 13.0426H11.7327C12.9391 13.0426 13.9281 12.0537 13.9281 10.8472V4.42993C13.9281 3.22349 12.9391 2.23453 11.7327 2.23453H10.4193L9.67716 0.962016C9.4053 0.495752 8.90427 0.208008 8.36441 0.208008H5.98167ZM5.98167 1.22127H8.36441C8.54531 1.22127 8.71089 1.31673 8.80177 1.4726L9.69102 2.99645C9.73562 3.0729 9.79946 3.13632 9.8762 3.18042C9.95293 3.22451 10.0399 3.24774 10.1284 3.24779H11.7327C12.3913 3.24779 12.9148 3.77129 12.9148 4.42993V10.8472C12.9148 11.5059 12.3913 12.0294 11.7327 12.0294H2.61337C1.95473 12.0294 1.43123 11.5059 1.43123 10.8472V4.42993C1.43123 3.77129 1.95473 3.24779 2.61337 3.24779H4.2177C4.3062 3.24774 4.39314 3.22451 4.46988 3.18042C4.54661 3.13632 4.61046 3.0729 4.65506 2.99645L5.5443 1.4726C5.63519 1.31673 5.80076 1.22127 5.98167 1.22127ZM7.16512 4.25379C7.03087 4.25589 6.90294 4.31119 6.80943 4.40754C6.71592 4.5039 6.66448 4.63343 6.66641 4.76768V6.7942H4.63989C4.57275 6.79325 4.5061 6.80565 4.4438 6.83069C4.3815 6.85572 4.3248 6.89289 4.27699 6.94003C4.22918 6.98717 4.19121 7.04334 4.1653 7.10528C4.13939 7.16722 4.12604 7.23369 4.12604 7.30083C4.12604 7.36797 4.13939 7.43444 4.1653 7.49638C4.19121 7.55832 4.22918 7.61449 4.27699 7.66163C4.3248 7.70877 4.3815 7.74594 4.4438 7.77097C4.5061 7.79601 4.57275 7.80841 4.63989 7.80746H6.66641V9.83398C6.66546 9.90112 6.67786 9.96777 6.7029 10.0301C6.72793 10.0924 6.7651 10.1491 6.81224 10.1969C6.85938 10.2447 6.91555 10.2827 6.97749 10.3086C7.03942 10.3345 7.1059 10.3478 7.17304 10.3478C7.24018 10.3478 7.30665 10.3345 7.36859 10.3086C7.43053 10.2827 7.4867 10.2447 7.53384 10.1969C7.58098 10.1491 7.61815 10.0924 7.64318 10.0301C7.66821 9.96777 7.68062 9.90112 7.67967 9.83398V7.80746H9.70619C9.77332 7.80841 9.83998 7.79601 9.90228 7.77097C9.96458 7.74594 10.0213 7.70877 10.0691 7.66163C10.1169 7.61449 10.1549 7.55832 10.1808 7.49638C10.2067 7.43444 10.22 7.36797 10.22 7.30083C10.22 7.23369 10.2067 7.16722 10.1808 7.10528C10.1549 7.04334 10.1169 6.98717 10.0691 6.94003C10.0213 6.89289 9.96458 6.85572 9.90228 6.83069C9.83998 6.80565 9.77332 6.79325 9.70619 6.7942H7.67967V4.76768C7.68064 4.69987 7.66799 4.63256 7.64247 4.56973C7.61695 4.50689 7.57907 4.44983 7.53109 4.4019C7.4831 4.35398 7.42599 4.31618 7.36312 4.29074C7.30026 4.2653 7.23293 4.25273 7.16512 4.25379V4.25379Z" fill="white"/>
</svg>
