<svg width="6" height="9" viewBox="0 0 6 9" fill="none" xmlns="http://www.w3.org/2000/svg">
<path d="M0.764692 4.34933C0.766221 4.25339 0.805024 4.16182 0.872884 4.09399L4.56586 0.401019C4.59989 0.365576 4.64065 0.337279 4.68575 0.317786C4.73085 0.298293 4.77939 0.287995 4.82852 0.287495C4.87765 0.286995 4.92639 0.296303 4.97188 0.314875C5.01737 0.333447 5.05869 0.360908 5.09344 0.395651C5.12818 0.430394 5.15564 0.47172 5.17421 0.517209C5.19278 0.562699 5.20209 0.611436 5.20159 0.660568C5.20109 0.709699 5.19079 0.758237 5.1713 0.803339C5.15181 0.848441 5.12351 0.8892 5.08807 0.923228L1.6562 4.3551L5.08807 7.78697C5.12351 7.821 5.15181 7.86176 5.1713 7.90686C5.1908 7.95196 5.2011 8.0005 5.20159 8.04963C5.20209 8.09876 5.19279 8.1475 5.17421 8.19299C5.15564 8.23848 5.12818 8.2798 5.09344 8.31455C5.0587 8.34929 5.01737 8.37675 4.97188 8.39532C4.92639 8.41389 4.87765 8.4232 4.82852 8.4227C4.77939 8.4222 4.73085 8.41191 4.68575 8.39241C4.64065 8.37292 4.59989 8.34462 4.56586 8.30918L0.872884 4.6162C0.837897 4.58123 0.810291 4.53959 0.791706 4.49374C0.773121 4.4479 0.763934 4.39879 0.764692 4.34933Z" fill="white"/>
</svg>
