<svg width="33" height="32" viewBox="0 0 33 32" fill="none" xmlns="http://www.w3.org/2000/svg">
<rect x="0.0605469" width="32" height="32" rx="6" fill="#0F0F0F"/>
<path d="M12.8682 11.6105C12.7661 11.6105 12.6639 11.6494 12.5861 11.7274L11.788 12.5255C11.632 12.6815 11.632 12.9342 11.788 13.0898L14.6982 16L11.788 18.9102C11.632 19.0662 11.632 19.3188 11.788 19.4745L12.5861 20.2726C12.7421 20.4286 12.9947 20.4286 13.1503 20.2726L16.0605 17.3624L18.9707 20.2726C19.1264 20.4286 19.3794 20.4286 19.535 20.2726L20.3331 19.4745C20.4891 19.3184 20.4891 19.0658 20.3331 18.9102L17.4229 16L20.3331 13.0898C20.4891 12.9342 20.4891 12.6811 20.3331 12.5255L19.535 11.7274C19.379 11.5714 19.1264 11.5714 18.9707 11.7274L16.0605 14.6376L13.1503 11.7274C13.0723 11.6494 12.9703 11.6105 12.8682 11.6105Z" fill="white"/>
</svg>
