<svg width="9" height="10" viewBox="0 0 9 10" fill="none" xmlns="http://www.w3.org/2000/svg">
<path d="M1.18197 0.922961C1.0825 0.922961 0.982922 0.960851 0.907116 1.03685L0.129625 1.81434C-0.0223749 1.96634 -0.0223749 2.21244 0.129625 2.36405L2.96474 5.19916L0.129625 8.03427C-0.0223749 8.18627 -0.0223749 8.43237 0.129625 8.58399L0.907116 9.36148C1.05912 9.51348 1.30522 9.51348 1.45683 9.36148L4.29194 6.52637L7.12705 9.36148C7.27866 9.51348 7.52515 9.51348 7.67676 9.36148L8.45425 8.58399C8.60625 8.43199 8.60625 8.18589 8.45425 8.03427L5.61914 5.19916L8.45425 2.36405C8.60625 2.21244 8.60625 1.96595 8.45425 1.81434L7.67676 1.03685C7.52476 0.884852 7.27866 0.884852 7.12705 1.03685L4.29194 3.87196L1.45683 1.03685C1.38083 0.960851 1.28144 0.922961 1.18197 0.922961Z" fill="white"/>
</svg>
