<svg width="17" height="22" viewBox="0 0 17 22" fill="none" xmlns="http://www.w3.org/2000/svg">
<path d="M9.2375 1.19434H2.44167C1.9267 1.19434 1.43283 1.3989 1.0687 1.76304C0.704568 2.12717 0.5 2.62104 0.5 3.136V18.6693C0.5 19.1843 0.704568 19.6782 1.0687 20.0423C1.43283 20.4064 1.9267 20.611 2.44167 20.611H14.0917C14.6066 20.611 15.1005 20.4064 15.4646 20.0423C15.8288 19.6782 16.0333 19.1843 16.0333 18.6693V7.99017L9.2375 1.19434Z" stroke="#CCBBFF" stroke-linecap="round" stroke-linejoin="round"/>
<path d="M11.6172 13.7285H8.24783L4.9157 13.7285" stroke="#CCBBFF" stroke-linecap="round" stroke-linejoin="round"/>
<path d="M9.23438 1.19434V4.99017C9.23438 6.64702 10.5775 7.99017 12.2344 7.99017H16.0302" stroke="#CCBBFF" stroke-linecap="round" stroke-linejoin="round"/>
</svg>
