<svg width="14" height="16" viewBox="0 0 14 16" fill="none" xmlns="http://www.w3.org/2000/svg">
<path d="M0.544312 4.04395H1.94431H13.1443" stroke="#F9012E" stroke-linecap="round" stroke-linejoin="round"/>
<path d="M4.04543 4.04414V2.64414C4.04543 2.27284 4.19293 1.91674 4.45549 1.65419C4.71804 1.39164 5.07413 1.24414 5.44543 1.24414H8.24543C8.61674 1.24414 8.97283 1.39164 9.23538 1.65419C9.49793 1.91674 9.64543 2.27284 9.64543 2.64414V4.04414M11.7454 4.04414V13.8441C11.7454 14.2154 11.5979 14.5715 11.3354 14.8341C11.0728 15.0966 10.7167 15.2441 10.3454 15.2441H3.34543C2.97413 15.2441 2.61804 15.0966 2.35549 14.8341C2.09293 14.5715 1.94543 14.2154 1.94543 13.8441V4.04414H11.7454Z" stroke="#F9012E" stroke-linecap="round" stroke-linejoin="round"/>
<path d="M5.44324 7.54395V11.7439" stroke="#F9012E" stroke-linecap="round" stroke-linejoin="round"/>
<path d="M8.24536 7.54395V11.7439" stroke="#F9012E" stroke-linecap="round" stroke-linejoin="round"/>
</svg>
