<svg width="15" height="12" viewBox="0 0 15 12" fill="none" xmlns="http://www.w3.org/2000/svg">
<path d="M0.710938 1.57715V5.07715H4.21094" stroke="#00BAFF" stroke-linecap="round" stroke-linejoin="round"/>
<path d="M13.5443 10.9102V7.41016H10.0443" stroke="#00BAFF" stroke-linecap="round" stroke-linejoin="round"/>
<path d="M12.0801 4.49374C11.7843 3.6577 11.2814 2.91022 10.6186 2.32106C9.95572 1.73191 9.15441 1.32027 8.28944 1.12455C7.42446 0.928842 6.524 0.955436 5.67208 1.20186C4.82015 1.44827 4.04454 1.90649 3.4176 2.53374L0.710938 5.07707M13.5443 7.4104L10.8376 9.95374C10.2107 10.581 9.43505 11.0392 8.58313 11.2856C7.73121 11.532 6.83075 11.5586 5.96577 11.3629C5.10079 11.1672 4.29949 10.7556 3.63663 10.1664C2.97376 9.57725 2.47095 8.82978 2.1751 7.99374" stroke="#00BAFF" stroke-linecap="round" stroke-linejoin="round"/>
</svg>
