<svg width="20" height="18" viewBox="0 0 20 18" fill="none" xmlns="http://www.w3.org/2000/svg">
<path d="M14.5848 14.0904L14.2648 13.7819L13.9209 14.0635C12.601 15.1446 10.9187 15.7947 9.08679 15.7947C4.87293 15.7947 1.43945 12.3612 1.43945 8.14733C1.43945 3.93348 4.87293 0.5 9.08679 0.5C13.3006 0.5 16.7341 3.93348 16.7341 8.14733C16.7341 9.97926 16.084 11.6615 15.003 12.9815L14.7108 13.3382L15.0428 13.6583L18.4651 16.9574L18.4658 16.9581C18.496 16.9871 18.5201 17.0218 18.5368 17.0603C18.5534 17.0987 18.5621 17.1401 18.5626 17.182C18.563 17.2239 18.5551 17.2654 18.5392 17.3042C18.5234 17.343 18.5 17.3782 18.4704 17.4078L18.8239 17.7613L18.4704 17.4078C18.4408 17.4374 18.4055 17.4608 18.3668 17.4766C18.328 17.4925 18.2864 17.5004 18.2446 17.5C18.2027 17.4996 18.1613 17.4908 18.1229 17.4742C18.0844 17.4575 18.0497 17.4334 18.0207 17.4032L18.014 17.3962L18.007 17.3895L14.5848 14.0904ZM16.1046 8.14733C16.1046 4.26182 12.9723 1.12947 9.08679 1.12947C5.20127 1.12947 2.06892 4.26182 2.06892 8.14733C2.06892 12.0328 5.20127 15.1652 9.08679 15.1652C12.9723 15.1652 16.1046 12.0328 16.1046 8.14733Z" stroke="#CCBBFF"/>
</svg>
