<svg width="45" height="45" viewBox="0 0 19 19" fill="none" xmlns="http://www.w3.org/2000/svg">
<path d="M13.6453 14.9224L13.3253 14.614L12.9815 14.8956C11.6615 15.9766 9.97926 16.6267 8.14733 16.6267C3.93348 16.6267 0.5 13.1932 0.5 8.97936C0.5 4.76551 3.93348 1.33203 8.14733 1.33203C12.3612 1.33203 15.7947 4.76551 15.7947 8.97936C15.7947 10.8113 15.1446 12.4935 14.0635 13.8135L13.7714 14.1703L14.1034 14.4903L17.5256 17.7894L17.5264 17.7901C17.5566 17.8191 17.5807 17.8539 17.5973 17.8923C17.6139 17.9308 17.6227 17.9721 17.6231 18.014C17.6235 18.0559 17.6156 18.0974 17.5998 18.1362C17.5839 18.175 17.5605 18.2102 17.5309 18.2398C17.5013 18.2694 17.4661 18.2928 17.4273 18.3087C17.3885 18.3245 17.347 18.3324 17.3051 18.332C17.2632 18.3316 17.2219 18.3228 17.1834 18.3062C17.145 18.2896 17.1102 18.2655 17.0812 18.2352L17.0745 18.2283L17.0676 18.2216L13.6453 14.9224ZM15.1652 8.97936C15.1652 5.09385 12.0328 1.9615 8.14733 1.9615C4.26182 1.9615 1.12947 5.09385 1.12947 8.97936C1.12947 12.8649 4.26182 15.9972 8.14733 15.9972C12.0328 15.9972 15.1652 12.8649 15.1652 8.97936Z" stroke="#CCBBFF"/>
</svg>
