<svg width="12" height="12" viewBox="0 0 12 12" fill="none" xmlns="http://www.w3.org/2000/svg">
<path fill-rule="evenodd" clip-rule="evenodd" d="M6.51027 1.51602C6.51027 1.18464 6.24164 0.916016 5.91027 0.916016C5.5789 0.916016 5.31027 1.18464 5.31027 1.51602V5.81836H1.00039C0.669021 5.81836 0.400391 6.08699 0.400391 6.41836C0.400391 6.74973 0.669021 7.01836 1.00039 7.01836H5.31027V11.3217C5.31027 11.6531 5.5789 11.9217 5.91027 11.9217C6.24164 11.9217 6.51027 11.6531 6.51027 11.3217V7.01836H10.8061C11.1375 7.01836 11.4061 6.74973 11.4061 6.41836C11.4061 6.08699 11.1375 5.81836 10.8061 5.81836H6.51027V1.51602Z" fill="url(#paint0_linear_14422_257500)"/>
<defs>
<linearGradient id="paint0_linear_14422_257500" x1="9.31234" y1="3.71758" x2="5.49293" y2="13.0539" gradientUnits="userSpaceOnUse">
<stop stop-color="white"/>
<stop offset="1" stop-color="#7427FF"/>
</linearGradient>
</defs>
</svg>
