<svg width="14" height="14" viewBox="0 0 14 14" fill="none"
    xmlns="http://www.w3.org/2000/svg">
    <path d="M5.80979 0.208984C5.26993 0.208984 4.7689 0.496728 4.49704 0.962993L3.7549 2.23551H2.44149C1.23506 2.23551 0.246094 3.22447 0.246094 4.4309V10.8482C0.246094 12.0547 1.23506 13.0436 2.44149 13.0436H11.5608C12.7673 13.0436 13.7562 12.0547 13.7562 10.8482V4.4309C13.7562 3.22447 12.7673 2.23551 11.5608 2.23551H10.2474L9.50529 0.962993C9.23343 0.496728 8.7324 0.208984 8.19253 0.208984H5.80979ZM5.80979 1.22224H8.19253C8.37344 1.22224 8.53901 1.3177 8.6299 1.47358L9.51914 2.99743C9.56374 3.07387 9.62759 3.1373 9.70432 3.18139C9.78106 3.22549 9.868 3.24872 9.9565 3.24877H11.5608C12.2195 3.24877 12.743 3.77226 12.743 4.4309V10.8482C12.743 11.5069 12.2195 12.0304 11.5608 12.0304H2.44149C1.78285 12.0304 1.25935 11.5069 1.25935 10.8482V4.4309C1.25935 3.77226 1.78285 3.24877 2.44149 3.24877H4.04582C4.13432 3.24872 4.22127 3.22549 4.298 3.18139C4.37474 3.1373 4.43858 3.07387 4.48318 2.99743L5.37243 1.47358C5.46331 1.3177 5.62889 1.22224 5.80979 1.22224ZM6.99325 4.25477C6.85899 4.25687 6.73106 4.31217 6.63756 4.40852C6.54405 4.50487 6.49261 4.6344 6.49453 4.76866V6.79518H4.46801C4.40088 6.79423 4.33422 6.80663 4.27192 6.83167C4.20962 6.8567 4.15292 6.89387 4.10511 6.94101C4.0573 6.98814 4.01934 7.04432 3.99342 7.10626C3.96751 7.16819 3.95417 7.23467 3.95417 7.30181C3.95417 7.36895 3.96751 7.43542 3.99342 7.49736C4.01934 7.5593 4.0573 7.61547 4.10511 7.66261C4.15292 7.70975 4.20962 7.74691 4.27192 7.77195C4.33422 7.79698 4.40088 7.80939 4.46801 7.80844H6.49453V9.83496C6.49358 9.90209 6.50599 9.96875 6.53102 10.031C6.55606 10.0933 6.59322 10.15 6.64036 10.1979C6.6875 10.2457 6.74367 10.2836 6.80561 10.3095C6.86755 10.3355 6.93402 10.3488 7.00116 10.3488C7.0683 10.3488 7.13478 10.3355 7.19671 10.3095C7.25865 10.2836 7.31483 10.2457 7.36196 10.1979C7.4091 10.15 7.44627 10.0933 7.4713 10.031C7.49634 9.96875 7.50874 9.90209 7.50779 9.83496V7.80844H9.53431C9.60145 7.80939 9.6681 7.79698 9.7304 7.77195C9.7927 7.74691 9.8494 7.70975 9.89721 7.66261C9.94502 7.61547 9.98299 7.5593 10.0089 7.49736C10.0348 7.43542 10.0482 7.36895 10.0482 7.30181C10.0482 7.23467 10.0348 7.16819 10.0089 7.10626C9.98299 7.04432 9.94502 6.98814 9.89721 6.94101C9.8494 6.89387 9.7927 6.8567 9.7304 6.83167C9.6681 6.80663 9.60145 6.79423 9.53431 6.79518H7.50779V4.76866C7.50877 4.70085 7.49612 4.63353 7.47059 4.5707C7.44507 4.50787 7.4072 4.4508 7.35921 4.40288C7.31123 4.35496 7.25411 4.31716 7.19125 4.29171C7.12839 4.26627 7.06105 4.25371 6.99325 4.25477Z" fill="white"/>
</svg>
