<svg width="18" height="16" viewBox="0 0 18 16" fill="none" xmlns="http://www.w3.org/2000/svg">
<path fill-rule="evenodd" clip-rule="evenodd" d="M13.8903 8.4705C11.8111 8.4705 10.1256 10.156 10.1256 12.2353C10.1256 14.3145 11.8111 16 13.8903 16C15.9695 16 17.6549 14.3145 17.6549 12.2353C17.6549 10.156 15.9695 8.4705 13.8903 8.4705ZM4.10938 8.47082C2.03024 8.47082 0.344727 10.156 0.344727 12.2353C0.344727 14.3145 2.03024 16 4.10938 16C6.18861 16 7.8742 14.3145 7.8742 12.2353C7.8742 10.156 6.18861 8.47082 4.10938 8.47082ZM12.7644 3.76457C12.7644 5.84389 11.079 7.52957 8.99986 7.52957C6.9206 7.52957 5.23517 5.84389 5.23517 3.76457C5.23517 1.68567 6.9206 0 8.99986 0C11.079 0 12.7644 1.68567 12.7644 3.76457Z" fill="#F06A6A"/>
</svg>
