<svg width="15" height="16" viewBox="0 0 15 16" fill="none"
    xmlns="http://www.w3.org/2000/svg">
    <path d="M13.94 7.63009L7.58588 13.8725C6.80745 14.6373 5.75167 15.0669 4.65081 15.0669C3.54995 15.0669 2.49417 14.6373 1.71574 13.8725C0.937316 13.1078 0.5 12.0706 0.5 10.989C0.5 9.90754 0.937316 8.87032 1.71574 8.10557L8.06987 1.86314C8.58882 1.35331 9.29267 1.06689 10.0266 1.06689C10.7605 1.06689 11.4643 1.35331 11.9833 1.86314C12.5022 2.37297 12.7938 3.06445 12.7938 3.78546C12.7938 4.50647 12.5022 5.19795 11.9833 5.70777L5.62225 11.9502C5.36278 12.2051 5.01085 12.3483 4.6439 12.3483C4.27694 12.3483 3.92502 12.2051 3.66554 11.9502C3.40606 11.6953 3.26029 11.3496 3.26029 10.989C3.26029 10.6285 3.40606 10.2828 3.66554 10.0279L9.53567 4.26774" stroke="#00BAFF" stroke-linecap="round" stroke-linejoin="round"/>
</svg>
