<svg viewBox="-5 -5 24 24" fill="none"
    xmlns="http://www.w3.org/2000/svg">
    <path d="M9.79352 8.0418V6.46351C9.79352 5.24318 8.80425 4.25391 7.58392 4.25391H6.63695C6.4627 4.25391 6.32129 4.39532 6.32129 4.56956C6.32129 5.09261 6.74522 5.51654 7.26826 5.51654H7.58392C8.10696 5.51654 8.53089 5.94047 8.53089 6.46351V8.0418H8.12243C7.9283 8.0418 7.83076 8.27602 7.96744 8.41364L8.93809 9.39345C9.06151 9.51813 9.26322 9.51813 9.38664 9.39345L10.3573 8.41364C10.4937 8.27602 10.3958 8.0418 10.202 8.0418H9.79352Z" fill="url(#paint0_linear_12304_10724)"/>
    <path d="M4.12032 6.1486V7.72689C4.12032 8.94722 5.10959 9.93649 6.32992 9.93649H7.2769C7.45114 9.93649 7.59256 9.79508 7.59256 9.62084C7.59256 9.09779 7.16863 8.67386 6.64558 8.67386H6.32992C5.80688 8.67386 5.38295 8.24993 5.38295 7.72689V6.1486H5.79141C5.98554 6.1486 6.08308 5.91438 5.9464 5.77676L4.97575 4.79664C4.85233 4.67195 4.65063 4.67195 4.5272 4.79664L3.55687 5.77676C3.42019 5.91438 3.51805 6.1486 3.71186 6.1486H4.12032Z" fill="url(#paint1_linear_12304_10724)"/>
    <path d="M6.95712 0.240234C5.19784 0.240234 3.43904 0.908371 2.10444 2.24297C-0.564761 4.91217 -0.564761 9.27913 2.10444 11.9483C4.77364 14.6175 9.1406 14.6175 11.8098 11.9483C14.479 9.27913 14.479 4.91217 11.8098 2.24297C10.4752 0.908371 8.7164 0.240234 6.95712 0.240234ZM6.95712 1.61159C8.36456 1.61159 9.77166 2.1459 10.8393 3.21351C12.9745 5.34873 12.9745 8.84258 10.8393 10.9778C8.70336 13.113 5.2102 13.113 3.07498 10.9778C0.939753 8.84189 0.939753 5.34873 3.07498 3.21351C4.14293 2.1459 5.54968 1.61159 6.95712 1.61159Z" fill="url(#paint2_linear_12304_10724)"/>
    <defs>
        <linearGradient id="paint0_linear_12304_10724" x1="8.37103" y1="4.25391" x2="8.37103" y2="9.48696" gradientUnits="userSpaceOnUse">
            <stop stop-color="white"/>
            <stop offset="1" stop-color="#FFD653"/>
        </linearGradient>
        <linearGradient id="paint1_linear_12304_10724" x1="5.54286" y1="4.70312" x2="5.54286" y2="9.93649" gradientUnits="userSpaceOnUse">
            <stop stop-color="white"/>
            <stop offset="1" stop-color="#FFD653"/>
        </linearGradient>
        <linearGradient id="paint2_linear_12304_10724" x1="6.95712" y1="0.240234" x2="6.95712" y2="13.9502" gradientUnits="userSpaceOnUse">
            <stop stop-color="white"/>
            <stop offset="1" stop-color="#FFD653"/>
        </linearGradient>
    </defs>
</svg>
