<svg width="24" height="25" viewBox="0 0 24 25" fill="none" xmlns="http://www.w3.org/2000/svg">
<circle cx="12" cy="12.6875" r="12" fill="#0F0F0F"/>
<circle cx="11.9969" cy="12.6884" r="6.85632" fill="#0F0F0F"/>
<path d="M11.9974 5.83008C10.2375 5.83008 8.47817 6.49842 7.14315 7.83344C4.47312 10.5035 4.47312 14.8718 7.14315 17.5418C9.81319 20.2119 14.1815 20.2119 16.8516 17.5418C19.5216 14.8718 19.5216 10.5035 16.8516 7.83344C15.5165 6.49842 13.7572 5.83008 11.9974 5.83008ZM11.9974 7.20186C13.4052 7.20186 14.8128 7.73634 15.8807 8.80428C18.0166 10.9402 18.0166 14.4351 15.8807 16.571C13.7441 18.7069 10.2499 18.7069 8.11399 16.571C5.9781 14.4344 5.9781 10.9402 8.11399 8.80428C9.18228 7.73634 10.5895 7.20186 11.9974 7.20186Z" fill="#06FFA5"/>
<path d="M10.3468 15.1974L8.63012 13.4807C8.33814 13.1887 8.33814 12.714 8.63012 12.422C8.9221 12.1301 9.39676 12.1301 9.68875 12.422L10.8761 13.6094L14.3096 10.176C14.6016 9.88404 15.0762 9.88404 15.3682 10.176C15.6602 10.468 15.6602 10.9427 15.3682 11.2346L11.4055 15.1974C11.1135 15.4894 10.6388 15.4894 10.3468 15.1974Z" fill="#06FFA5"/>
</svg>
