<svg width="25" height="25" viewBox="0 0 25 25" fill="none" xmlns="http://www.w3.org/2000/svg">
<circle cx="12.8398" cy="12.6265" r="12" fill="#141414"/>
<path d="M15.0416 7.22607H16.1417C16.4334 7.22607 16.7132 7.34197 16.9195 7.54827C17.1258 7.75456 17.2417 8.03436 17.2417 8.32611V16.0264C17.2417 16.3181 17.1258 16.5979 16.9195 16.8042C16.7132 17.0105 16.4334 17.1264 16.1417 17.1264H9.54144C9.2497 17.1264 8.9699 17.0105 8.7636 16.8042C8.5573 16.5979 8.44141 16.3181 8.44141 16.0264V8.32611C8.44141 8.03436 8.5573 7.75456 8.7636 7.54827C8.9699 7.34197 9.2497 7.22607 9.54144 7.22607H10.6415" stroke="#CCBBFF" stroke-width="0.7" stroke-linecap="round" stroke-linejoin="round"/>
<path d="M14.4829 6.12646H11.1828C10.8791 6.12646 10.6328 6.37272 10.6328 6.67648V7.77652C10.6328 8.08029 10.8791 8.32654 11.1828 8.32654H14.4829C14.7867 8.32654 15.033 8.08029 15.033 7.77652V6.67648C15.033 6.37272 14.7867 6.12646 14.4829 6.12646Z" stroke="#CCBBFF" stroke-width="0.7" stroke-linecap="round" stroke-linejoin="round"/>
</svg>
