<svg width="16" height="16" viewBox="0 0 16 16" fill="none" xmlns="http://www.w3.org/2000/svg">
<path d="M0.689453 0V14.3448H10.3651L9.78213 13.2414H1.7929V9.93103H10.9879L11.1722 7.72414H12.2757V5.00808C12.2757 4.44615 12.0772 3.90205 11.7159 3.47198L9.27135 0.563578C8.97121 0.206336 8.52852 0 8.06176 0H0.689453ZM1.7929 1.10345H7.77782C8.6854 1.10345 8.96531 1.48002 8.96531 1.81519C8.96531 2.30761 8.41359 3.03448 8.41359 3.03448C10.8241 4.17545 11.1285 4.25572 11.1663 4.96552H1.7929V1.10345ZM6.40335 6.01078C6.69991 6.01078 6.961 6.06908 7.1679 6.22522L7.0235 6.7403C6.84006 6.58803 6.66442 6.52586 6.39904 6.52586C6.17284 6.52586 6.0165 6.60385 6.0165 6.72468C6.0165 6.8924 6.19247 6.97819 6.48902 7.13847C6.96102 7.39199 7.28482 7.62984 7.28482 8.06681C7.2851 8.63288 6.91832 8.89062 6.33708 8.89062C6.05239 8.89062 5.71667 8.79712 5.48633 8.62554L5.68137 8.13739C5.87227 8.28167 6.10664 8.38739 6.35271 8.38739C6.63381 8.38739 6.76219 8.25063 6.76219 8.03987C6.76219 7.85256 6.5906 7.76686 6.33708 7.62231C6.02094 7.44272 5.52135 7.29056 5.52135 6.74407C5.52135 6.26794 5.94294 6.01078 6.40335 6.01078ZM4.02674 6.01131C4.45984 6.01131 4.78356 6.19471 4.99818 6.56519L4.5456 6.84644C4.39332 6.64369 4.23363 6.56142 4.02674 6.56142C3.64053 6.56142 3.40605 6.90099 3.40605 7.4472C3.40632 7.95809 3.67188 8.33675 4.04236 8.33675C4.21809 8.33675 4.42485 8.22339 4.55368 8.08297L4.97124 8.368C4.73703 8.71531 4.42094 8.89116 4.02674 8.89116C3.35943 8.89116 2.88342 8.27837 2.88342 7.4472C2.88342 6.63175 3.32439 6.01131 4.02674 6.01131ZM7.71532 6.05011H8.25788L8.85863 8.20797L9.4637 6.05011H10.0095L9.1706 8.85183H8.53105L7.71532 6.05011ZM11.9998 8.27586L11.7433 11.8621H9.7929L12.5515 16L15.3101 11.8621H13.3597L13.1032 8.27586H11.9998Z" fill="#06FFA5"/>
</svg>
