<svg width="26" height="27" viewBox="0 0 26 27" fill="none"
    xmlns="http://www.w3.org/2000/svg">
    <path d="M11.8704 8.09766L6.25579 17.4708C6.14003 17.6713 6.07878 17.8986 6.07813 18.1301C6.07748 18.3616 6.13746 18.5892 6.2521 18.7903C6.36673 18.9914 6.53203 19.159 6.73155 19.2764C6.93106 19.3938 7.15784 19.4569 7.38932 19.4595H18.6186C18.85 19.4569 19.0768 19.3938 19.2763 19.2764C19.4758 19.159 19.6411 18.9914 19.7558 18.7903C19.8704 18.5892 19.9304 18.3616 19.9297 18.1301C19.9291 17.8986 19.8678 17.6713 19.7521 17.4708L14.1375 8.09766C14.0193 7.90284 13.8529 7.74177 13.6544 7.62998C13.4558 7.5182 13.2318 7.45947 13.0039 7.45947C12.7761 7.45947 12.5521 7.5182 12.3535 7.62998C12.155 7.74177 11.9886 7.90284 11.8704 8.09766V8.09766Z" stroke="#F93701" stroke-linecap="round" stroke-linejoin="round"/>
    <path d="M13 11.5046V14.1562" stroke="#F93701" stroke-linecap="round" stroke-linejoin="round"/>
    <path d="M13 16.8079H13.0077" stroke="#F93701" stroke-linecap="round" stroke-linejoin="round"/>
</svg>
