<svg width="18" height="17" viewBox="0 0 18 17" fill="none" xmlns="http://www.w3.org/2000/svg">
<path d="M9.08558 16.2952C13.2998 16.2952 16.7161 12.8789 16.7161 8.66468C16.7161 4.45047 13.2998 1.03418 9.08558 1.03418C4.87137 1.03418 1.45508 4.45047 1.45508 8.66468C1.45508 12.8789 4.87137 16.2952 9.08558 16.2952Z" stroke="#CCBBFF" stroke-linecap="round" stroke-linejoin="round"/>
<path d="M9.08026 13.2425C11.6088 13.2425 13.6586 11.1928 13.6586 8.66424C13.6586 6.13571 11.6088 4.08594 9.08026 4.08594C6.55173 4.08594 4.50195 6.13571 4.50195 8.66424C4.50195 11.1928 6.55173 13.2425 9.08026 13.2425Z" stroke="#CCBBFF" stroke-linecap="round" stroke-linejoin="round"/>
<path d="M9.08274 10.1909C9.92558 10.1909 10.6088 9.50761 10.6088 8.66477C10.6088 7.82193 9.92558 7.13867 9.08274 7.13867C8.2399 7.13867 7.55664 7.82193 7.55664 8.66477C7.55664 9.50761 8.2399 10.1909 9.08274 10.1909Z" stroke="#CCBBFF" stroke-linecap="round" stroke-linejoin="round"/>
</svg>
