<svg width="18" height="18" viewBox="0 0 18 18" fill="none" xmlns="http://www.w3.org/2000/svg">
<path d="M8.01794 0.560687C3.98469 0.999084 0.74055 4.24322 0.302153 8.18879C-0.136244 12.3097 2.2311 15.9923 5.82595 17.3951C6.08899 17.4828 6.35203 17.3074 6.35203 16.9567V15.5539C6.35203 15.5539 6.00131 15.6415 5.56291 15.6415C4.3354 15.6415 3.80933 14.5894 3.72165 13.9756C3.63397 13.6249 3.45861 13.3619 3.19557 13.0988C2.93253 13.0112 2.84485 13.0112 2.84485 12.9235C2.84485 12.7481 3.10789 12.7481 3.19557 12.7481C3.72165 12.7481 4.16004 13.3619 4.3354 13.6249C4.7738 14.3263 5.29988 14.5017 5.56291 14.5017C5.91363 14.5017 6.17667 14.414 6.35203 14.3263C6.43971 13.7126 6.70275 13.0988 7.22882 12.7481C5.2122 12.3097 3.72165 11.1699 3.72165 9.24094C3.72165 8.27647 4.16004 7.312 4.7738 6.61056C4.68612 6.4352 4.59844 5.99681 4.59844 5.38305C4.59844 5.03233 4.59844 4.50626 4.86148 3.98018C4.86148 3.98018 6.08899 3.98018 7.3165 5.12001C7.7549 4.94466 8.36865 4.85698 8.98241 4.85698C9.59616 4.85698 10.2099 4.94466 10.736 5.12001C11.8758 3.98018 13.191 3.98018 13.191 3.98018C13.3664 4.50626 13.3664 5.03233 13.3664 5.38305C13.3664 6.08449 13.2787 6.4352 13.191 6.61056C13.8048 7.312 14.2432 8.18879 14.2432 9.24094C14.2432 11.1699 12.7526 12.3097 10.736 12.7481C11.2621 13.1865 11.6128 13.9756 11.6128 14.7647V17.0444C11.6128 17.3074 11.8758 17.5705 12.2265 17.4828C15.4707 16.1676 17.7503 13.0112 17.7503 9.32862C17.7503 4.06786 13.2787 -0.0530679 8.01794 0.560687Z" fill="#298FCA"/>
</svg>
