<svg width="16" height="16" viewBox="0 0 16 16" fill="none" xmlns="http://www.w3.org/2000/svg">
<path d="M6.74707 8.30225C7.04969 8.70682 7.43579 9.04158 7.87916 9.28382C8.32254 9.52605 8.81283 9.6701 9.31677 9.70619C9.82071 9.74228 10.3265 9.66957 10.7999 9.49299C11.2733 9.31641 11.7031 9.04009 12.0603 8.68277L14.1743 6.56875C14.8161 5.90424 15.1713 5.01422 15.1632 4.09041C15.1552 3.16659 14.7847 2.28289 14.1314 1.62963C13.4782 0.976366 12.5944 0.605817 11.6706 0.597789C10.7468 0.589762 9.8568 0.944897 9.19229 1.58671L7.98025 2.7917" stroke="#00BAFF" stroke-linecap="round" stroke-linejoin="round"/>
<path d="M9.56963 6.89342C9.26701 6.48884 8.88091 6.15408 8.43754 5.91185C7.99416 5.66961 7.50388 5.52556 6.99993 5.48947C6.49599 5.45338 5.99018 5.52609 5.51681 5.70267C5.04344 5.87925 4.61358 6.15557 4.25639 6.51289L2.14237 8.62691C1.50056 9.29143 1.14543 10.1814 1.15345 11.1053C1.16148 12.0291 1.53203 12.9128 2.18529 13.566C2.83855 14.2193 3.72226 14.5898 4.64607 14.5979C5.56989 14.6059 6.4599 14.2508 7.12441 13.609L8.32941 12.404" stroke="#00BAFF" stroke-linecap="round" stroke-linejoin="round"/>
</svg>
