<svg width="68" height="57" viewBox="0 0 68 57" fill="none" xmlns="http://www.w3.org/2000/svg">
<path d="M67.2439 17.1682C67.0887 17.8515 66.9644 18.5036 66.7781 19.1558C66.2812 20.895 65.4737 22.4788 64.2004 23.7521C60.1942 27.8205 56.219 31.9199 52.0885 35.8641C47.6164 40.1498 40.5667 39.9635 36.1257 35.6777C35.3182 34.9013 35.225 33.8143 35.9393 33.0069C36.6536 32.2305 37.7716 32.1373 38.6102 32.9137C40.1319 34.3423 41.9021 35.1808 44.0139 35.2119C46.1568 35.274 48.0823 34.6218 49.6351 33.1001C53.5792 29.187 57.5544 25.305 61.4054 21.2987C63.5172 19.0937 64.0762 16.3918 63.1445 13.4725C62.2128 10.5222 60.1321 8.72095 57.0886 8.13088C54.573 7.63399 52.2128 8.22405 50.3494 9.99425C47.5543 12.6651 44.8524 15.4291 42.1195 18.162C41.5605 18.721 40.9704 19.0627 40.163 18.8763C38.8586 18.5347 38.3306 17.1061 39.1071 15.9881C39.1692 15.8949 39.2313 15.8018 39.3244 15.7396C42.2127 12.8825 44.9767 9.90109 47.9891 7.16815C51.4364 4.06253 55.5358 3.41035 59.8526 5.08738C64.0141 6.7023 66.4054 9.83898 67.1508 14.249C67.1818 14.4042 67.2439 14.5285 67.275 14.6527C67.2439 15.5223 67.2439 16.3608 67.2439 17.1682Z" fill="#7427FF"/>
<path d="M11.6829 52.6061C7.49035 52.3887 3.7636 50.1527 1.77601 45.5253C-0.149474 41.0222 0.564818 36.7054 3.91888 33.1339C7.83196 28.9724 11.9003 24.9661 16.0308 21.022C20.4408 16.7984 27.5837 16.9847 31.9626 21.2705C32.7701 22.0469 32.8322 23.1649 32.1489 23.9413C31.4347 24.7177 30.3477 24.7798 29.4781 24.0034C27.8942 22.5438 26.093 21.7052 23.9191 21.7052C21.652 21.6742 19.7575 22.5127 18.1426 24.0655C16.5277 25.6494 14.9438 27.2643 13.3289 28.8792C11.2171 30.991 9.07421 33.1029 6.96239 35.2457C3.17354 39.1278 3.94994 45.2148 8.57731 47.8856C11.4655 49.5626 15.3165 49.19 17.7389 46.8607C20.5339 44.1899 23.2358 41.4259 25.9688 38.693C26.5278 38.134 27.18 37.7613 27.9874 38.0097C29.2297 38.3824 29.7266 39.811 28.9812 40.8669C28.9191 40.9601 28.857 41.0532 28.7638 41.1153C25.9067 43.9415 23.1116 46.8297 20.1923 49.6247C18.1426 51.6434 15.3786 52.6061 11.6829 52.6061Z" fill="#7427FF"/>
<path d="M31.2496 0.773438C31.9949 0.804494 32.585 1.14611 32.8956 1.82935C33.6409 3.53744 34.3552 5.27658 35.0385 7.01573C35.4111 7.97847 34.9453 9.00332 34.0447 9.37599C33.144 9.74867 32.0881 9.40706 31.6533 8.41326C30.8769 6.67411 30.1626 4.93496 29.4794 3.16476C29.0446 1.98462 29.9763 0.773438 31.2496 0.773438Z" fill="#7427FF"/>
<path d="M38.7027 54.1627C38.7027 55.1254 38.1437 55.8708 37.3673 56.0882C36.5598 56.3055 35.6902 55.995 35.3175 55.2496C34.9138 54.4422 34.5722 53.6037 34.2306 52.7651C33.8579 51.8645 33.4542 50.9328 33.1126 50.0011C32.7088 48.9452 33.1126 47.9204 34.0753 47.5166C35.038 47.1129 36.0629 47.5477 36.5287 48.5726C37.243 50.2185 37.8952 51.8645 38.5784 53.5415C38.6406 53.79 38.6716 54.0384 38.7027 54.1627Z" fill="#7427FF"/>
<path d="M37.7695 7.48256C37.8006 7.38939 37.8316 7.10988 37.9248 6.89248C38.608 5.24651 39.2602 3.60053 39.9745 1.98561C40.4404 0.898647 41.4963 0.494918 42.4901 0.929705C43.3596 1.33344 43.8255 2.29617 43.4528 3.1968C42.7696 4.967 42.0242 6.70615 41.2789 8.44529C40.9062 9.28381 40.0056 9.65649 39.1671 9.43909C38.2975 9.25276 37.7695 8.50741 37.7695 7.48256Z" fill="#7427FF"/>
<path d="M23.9485 8.19531C24.0417 8.22637 24.3212 8.25742 24.5386 8.35059C26.2156 9.03383 27.8927 9.71707 29.5697 10.4314C30.3461 10.773 30.7498 11.3941 30.7188 12.2326C30.6877 13.009 30.284 13.6301 29.5386 13.8475C29.1039 13.9718 28.5759 13.9718 28.1722 13.8165C26.4641 13.1643 24.8181 12.4811 23.1411 11.7357C22.2715 11.363 21.8367 10.4935 22.023 9.6239C22.2094 8.78538 22.9237 8.19531 23.9485 8.19531Z" fill="#7427FF"/>
<path d="M44.0735 48.7221C43.9803 48.691 43.7008 48.66 43.4835 48.5668C41.8375 47.9146 40.2226 47.2314 38.5766 46.5482C37.5517 46.1134 37.1169 45.1506 37.4586 44.1879C37.8002 43.2562 38.825 42.6972 39.7567 43.0699C41.558 43.7531 43.3592 44.4984 45.1294 45.3059C45.9369 45.6475 46.2785 46.5792 46.0611 47.3867C45.8127 48.1941 45.0984 48.7221 44.0735 48.7221Z" fill="#7427FF"/>
<path d="M30.2842 49.3803C30.2531 49.4735 30.2531 49.7219 30.1599 49.9393C29.4767 51.6474 28.7935 53.3555 28.0481 55.0326C27.6133 56.0264 26.5574 56.4301 25.6257 56.0264C24.7562 55.6537 24.2593 54.6909 24.6009 53.7593C25.2841 51.958 26.0605 50.1567 26.8369 48.3865C27.1785 47.5791 28.1102 47.2375 28.9177 47.4859C29.7562 47.6722 30.2842 48.3865 30.2842 49.3803Z" fill="#7427FF"/>
</svg>
