<svg width="15" height="16" viewBox="0 0 15 16" fill="none"
    xmlns="http://www.w3.org/2000/svg">
    <path d="M10.8924 0.971802C10.0194 0.971802 9.19964 1.31209 8.58204 1.92914L7.4928 3.01839C6.87574 3.63599 6.53546 4.45574 6.53546 5.32877C6.53546 6.01732 6.74971 6.67071 7.14177 7.22006L6.24825 8.11358C5.69884 7.7217 5.0451 7.50726 4.35697 7.50726C3.48394 7.50726 2.66419 7.84755 2.04659 8.4646L0.957342 9.55384C0.340286 10.1714 0 10.9912 0 11.8642C0 12.7373 0.340286 13.557 0.957342 14.1746C1.5744 14.7922 2.3947 15.132 3.26773 15.132C4.14076 15.132 4.96051 14.7917 5.57811 14.1746L6.66736 13.0854C7.28441 12.4678 7.6247 11.648 7.6247 10.775C7.6247 10.4749 7.58184 10.1822 7.5045 9.90061L6.52482 10.8803C6.49977 11.4026 6.2948 11.9171 5.89723 12.3152L4.80799 13.4045C3.95838 14.2541 2.57654 14.2541 1.72747 13.4045C0.878406 12.5549 0.877862 11.173 1.72747 10.324L2.81671 9.23473C3.24152 8.80993 3.7998 8.59863 4.35804 8.59863C4.74023 8.59863 5.1187 8.70497 5.45791 8.90391L3.97191 10.3899C3.91964 10.4401 3.87791 10.5002 3.84916 10.5667C3.82041 10.6332 3.80522 10.7048 3.80449 10.7773C3.80375 10.8497 3.81748 10.9216 3.84486 10.9887C3.87225 11.0558 3.91275 11.1167 3.96399 11.168C4.01523 11.2192 4.07617 11.2597 4.14326 11.2871C4.21034 11.3145 4.28222 11.3282 4.35468 11.3275C4.42713 11.3267 4.49871 11.3115 4.56523 11.2828C4.63174 11.2541 4.69185 11.2123 4.74204 11.1601L10.1882 5.71384C10.2669 5.63734 10.3207 5.53885 10.3425 5.43127C10.3642 5.3237 10.353 5.21206 10.3102 5.11099C10.2674 5.00992 10.1951 4.92412 10.1027 4.86485C10.0104 4.80558 9.90225 4.7756 9.79255 4.77883C9.65106 4.78305 9.51676 4.84218 9.41812 4.94371L7.93211 6.42972C7.4413 5.59475 7.54693 4.50406 8.26293 3.78852L9.35217 2.69927C9.77698 2.27447 10.3342 2.06317 10.8924 2.06317C11.4507 2.06317 12.0079 2.27501 12.4327 2.69927C13.2823 3.54888 13.2823 4.93072 12.4327 5.77979L11.3434 6.86903C10.9459 7.2666 10.4308 7.47157 9.90849 7.49662L8.92881 8.4763C9.21038 8.55364 9.5031 8.5965 9.80319 8.5965C10.6762 8.5965 11.496 8.25622 12.1136 7.63916L13.2028 6.54992C13.8199 5.93232 14.1602 5.11256 14.1602 4.23953C14.1602 3.3665 13.8199 2.54674 13.2028 1.92914C12.5852 1.31209 11.7655 0.971802 10.8924 0.971802Z" fill="#CCBBFF"/>
</svg>
