<svg width="16" height="16" viewBox="0 0 16 16" fill="none" xmlns="http://www.w3.org/2000/svg">
<path d="M10.2081 0.00889763L0.919675 0.380784C0.912399 0.381055 0.905133 0.381539 0.897885 0.382236C0.892554 0.382663 0.887227 0.383147 0.881906 0.383689C0.694353 0.396926 0.518771 0.480697 0.390483 0.61815C0.262194 0.755602 0.190716 0.936537 0.19043 1.12456V11.4589C0.19043 11.8996 0.32135 12.3302 0.565221 12.6966L2.54668 15.6688C2.61897 15.7772 2.71848 15.8648 2.83525 15.9226C2.95202 15.9805 3.08194 16.0067 3.212 15.9986L15.1124 15.2548C15.3012 15.2429 15.4784 15.1596 15.608 15.0217C15.7375 14.8838 15.8096 14.7017 15.8096 14.5125V2.98399C15.8095 2.79781 15.7395 2.61845 15.6135 2.48136C15.5836 2.44189 15.546 2.4088 15.5031 2.38403C15.5027 2.38354 15.5022 2.38306 15.5017 2.38258C15.4582 2.35099 15.4115 2.3242 15.3622 2.30268L12.3116 0.562369L12.3363 0.578348C11.7132 0.154848 10.9642 -0.0460703 10.2125 0.00889763H10.2081ZM10.2502 0.751217C10.2546 0.751294 10.259 0.751294 10.2633 0.751217C10.8489 0.707624 11.4326 0.862972 11.9179 1.19283C11.9259 1.19848 11.9342 1.20381 11.9426 1.20881L13.8195 2.27944L3.80179 2.60338L2.02662 1.08098L10.2502 0.751217ZM14.3221 3.75245V13.8137L3.90929 14.4645V4.08802L14.3221 3.75245ZM13.1629 5.21676C12.4087 5.26138 11.6502 5.29823 10.8938 5.35476C10.6454 5.37336 10.4609 5.5882 10.4304 5.82398C10.4162 5.93406 10.4463 5.99083 10.5713 5.99975C10.8004 6.01686 11.0277 6.04922 11.2657 6.07674V10.442C11.1958 10.3416 11.1576 10.2886 11.1219 10.2343C10.1475 8.76239 9.16883 7.29314 8.20342 5.81526C8.05764 5.59213 7.92116 5.48474 7.62961 5.51746C6.94757 5.59258 6.25979 5.61495 5.57552 5.66999C5.19619 5.70049 4.97099 6.0327 5.07289 6.39343C5.32949 6.41574 5.5882 6.43865 5.85298 6.4617V12.7329C5.67894 12.782 5.50554 12.8373 5.33001 12.8796C5.15151 12.9228 5.06788 13.0428 5.03367 13.208C5.00615 13.3403 5.03858 13.4072 5.20072 13.3953C5.75781 13.3559 6.31784 13.3315 6.87567 13.298C7.10623 13.2846 7.33739 13.28 7.56423 13.2428C7.87364 13.1915 8.04211 13.0029 8.07558 12.701C7.80038 12.64 7.52356 12.5729 7.24465 12.5194C7.12044 12.4956 7.0783 12.4447 7.07904 12.316C7.0835 10.8612 7.08265 9.40552 7.0834 7.9507C7.0834 7.9031 7.09336 7.85451 7.10228 7.77493C7.14542 7.8322 7.16291 7.85568 7.17928 7.88097C7.93197 9.04944 8.68249 10.2208 9.43965 11.3863C9.76542 11.8876 10.0991 12.3837 10.442 12.8738C10.6904 13.2294 11.0548 13.3422 11.469 13.2559C11.7279 13.2016 11.9766 13.098 12.2302 13.0176C12.3716 12.973 12.4126 12.8817 12.4118 12.7329C12.4066 10.5953 12.4089 8.4584 12.4089 6.32079C12.4089 5.92288 12.4077 5.92322 12.8026 5.84141C13.1656 5.76629 13.2722 5.58864 13.1629 5.21676Z" fill="white"/>
</svg>
