<svg width="13" height="12" viewBox="0 0 13 12" fill="none" xmlns="http://www.w3.org/2000/svg">
<path d="M11.3562 5.83851C11.4512 5.80687 11.5145 5.74358 11.5303 5.66446H11.5461C11.5461 5.64864 11.5461 5.64864 11.5461 5.63282C11.5461 5.61699 11.5461 5.61699 11.5461 5.60117H11.5303C11.5145 5.52206 11.4512 5.45877 11.3562 5.42712C9.12522 4.79421 7.36889 3.03788 6.72016 0.806869C6.68851 0.696109 6.59358 0.632812 6.49864 0.632812C6.4037 0.632812 6.30877 0.696109 6.27712 0.806869C5.62839 3.03788 3.87206 4.79421 1.64104 5.42712C1.54611 5.45877 1.48282 5.52206 1.467 5.60117H1.45117C1.45117 5.61699 1.45117 5.61699 1.45117 5.63282C1.45117 5.64864 1.45117 5.64864 1.45117 5.66446H1.467C1.48282 5.74358 1.54611 5.80687 1.64104 5.83851C3.87206 6.47142 5.62839 8.22775 6.27712 10.4588C6.30877 10.5695 6.4037 10.6328 6.49864 10.6328C6.59358 10.6328 6.68851 10.5695 6.72016 10.4588C7.36889 8.24358 9.12522 6.48725 11.3562 5.83851Z" stroke="#CCBBFF"/>
</svg>
