<svg version="1.2"
    xmlns="http://www.w3.org/2000/svg" viewBox="0 0 24 21" width="24" height="21">
    <style>.a{fill:#8247e5}</style>
    <path class="a" d="m22.8 9.2c0.5 0.3 0.8 0.8 0.8 1.3v5.9c0 0.5-0.3 1-0.8 1.3l-5 2.9c-0.4 0.2-1 0.2-1.4 0l-5-2.9c-0.5-0.3-0.8-0.8-0.8-1.3v-2.1l2.4-1.3v1.9c0 0.6 0.3 1.1 0.7 1.3l2.7 1.6c0.5 0.2 1 0.2 1.4 0l2.6-1.6c0.5-0.3 0.8-0.8 0.8-1.3v-3c0-0.6-0.3-1.1-0.8-1.3l-2.6-1.6c-0.5-0.2-1.1-0.2-1.5 0l-3.4 2-2.3 1.4-3.4 1.9c-0.5 0.3-1 0.3-1.5 0l-5-2.9c-0.5-0.3-0.7-0.8-0.7-1.3v-5.8c0-0.5 0.2-1 0.7-1.2l5.1-3c0.5-0.2 1-0.2 1.5 0l4.9 2.9c0.5 0.3 0.7 0.8 0.7 1.3v2.1l-2.3 1.4v-2.1c0-0.5-0.3-1-0.8-1.3l-2.6-1.6c-0.5-0.2-1-0.2-1.5 0l-2.6 1.6c-0.5 0.3-0.8 0.8-0.8 1.3v3.1c0 0.5 0.3 1 0.8 1.3l2.6 1.6c0.5 0.2 1.1 0.2 1.5 0l3.4-2.1 2.3-1.3 3.5-2c0.5-0.2 1-0.2 1.4 0z"/>
</svg>