<svg width="19" height="19" viewBox="0 0 19 19" fill="none" xmlns="http://www.w3.org/2000/svg">
<path d="M8.06797 3.50245C8.60011 3.37789 9.14493 3.31563 9.69145 3.31691C15.1031 3.31691 18.1954 9.5016 18.1954 9.5016C17.7261 10.3795 17.1665 11.2061 16.5255 11.9677M11.3304 11.1405C11.1181 11.3684 10.862 11.5512 10.5775 11.6779C10.293 11.8047 9.98592 11.8729 9.67451 11.8784C9.3631 11.8838 9.05378 11.8266 8.76499 11.7099C8.4762 11.5933 8.21386 11.4197 7.99363 11.1994C7.7734 10.9792 7.59978 10.7169 7.48313 10.4281C7.36649 10.1393 7.3092 9.82995 7.3147 9.51854C7.32019 9.20713 7.38835 8.90002 7.51511 8.61553C7.64188 8.33104 7.82464 8.07499 8.05251 7.86266M14.2836 14.0937C12.9621 15.1011 11.3529 15.6591 9.69145 15.6863C4.27984 15.6863 1.1875 9.5016 1.1875 9.5016C2.14913 7.70951 3.4829 6.14379 5.09932 4.90947L14.2836 14.0937Z" stroke="#CCBBFF" stroke-linecap="round" stroke-linejoin="round"/>
<path d="M1.1875 0.996582L18.1954 18.0045" stroke="#CCBBFF" stroke-linecap="round" stroke-linejoin="round"/>
</svg>
