<svg width="18" height="18" viewBox="0 0 18 18" fill="none"
    xmlns="http://www.w3.org/2000/svg">
    <path d="M12.7233 15.2343C13.3047 14.8981 13.9735 14.8707 14.5532 15.0936C15.0368 15.2806 15.589 15.1262 15.9182 14.7249C16.5047 14.0098 16.9763 13.2004 17.3073 12.3206C17.4977 11.8164 17.3176 11.2642 16.906 10.9161C16.4464 10.5268 16.1532 9.94547 16.1532 9.2938C16.1532 8.64214 16.4464 8.06078 16.9077 7.6715C17.3176 7.32337 17.4977 6.77116 17.309 6.26698C16.9763 5.38723 16.5047 4.57608 15.9199 3.86267C15.5907 3.4631 15.0385 3.30876 14.5549 3.49397C13.9752 3.71691 13.3047 3.68947 12.7251 3.35334C12.142 3.01722 11.7819 2.44787 11.6875 1.83222C11.6104 1.32803 11.2108 0.925027 10.7083 0.839282C10.247 0.760396 9.77541 0.719238 9.29352 0.719238C8.81163 0.719238 8.34003 0.760396 7.88215 0.839282C7.37968 0.925027 6.98011 1.32803 6.90294 1.83222C6.8069 2.44787 6.44677 3.01722 5.8637 3.35334C5.28234 3.68947 4.61353 3.71691 4.03389 3.49397C3.55028 3.30704 2.99808 3.46138 2.66882 3.86267C2.08232 4.57779 1.61072 5.38723 1.27974 6.26698C1.08938 6.77116 1.26945 7.32337 1.68103 7.6715C2.14062 8.06078 2.43387 8.64214 2.43387 9.2938C2.43387 9.94547 2.14062 10.5268 1.67931 10.9161C1.26945 11.2642 1.08938 11.8164 1.27802 12.3206C1.61072 13.2004 2.08232 14.0115 2.6671 14.7249C2.99636 15.1245 3.54857 15.2788 4.03217 15.0936C4.61181 14.8707 5.28234 14.8981 5.86198 15.2343C6.44505 15.5704 6.80519 16.1397 6.89951 16.7554C6.97668 17.2596 7.37625 17.6626 7.87872 17.7483C8.34003 17.8272 8.81163 17.8684 9.29352 17.8684C9.77541 17.8684 10.247 17.8272 10.7049 17.7483C11.2074 17.6626 11.6069 17.2596 11.6841 16.7554C11.7801 16.1397 12.1403 15.5704 12.7233 15.2343Z" stroke="white" stroke-width="0.9" stroke-linecap="round" stroke-linejoin="round"/>
    <path d="M9.3006 6.21826C7.60004 6.21826 6.22266 7.59564 6.22266 9.2962C6.22266 10.9968 7.60004 12.3741 9.3006 12.3741C11.0012 12.3741 12.3785 10.9968 12.3785 9.2962C12.3785 7.59564 11.0012 6.21826 9.3006 6.21826Z" stroke="white" stroke-width="0.9" stroke-linecap="round" stroke-linejoin="round"/>
</svg>
