<svg width="15" height="16" viewBox="0 0 15 16" fill="none" xmlns="http://www.w3.org/2000/svg">
<path d="M11.4861 5.19478C12.6962 5.19478 13.6772 4.21377 13.6772 3.00364C13.6772 1.79351 12.6962 0.8125 11.4861 0.8125C10.2759 0.8125 9.29492 1.79351 9.29492 3.00364C9.29492 4.21377 10.2759 5.19478 11.4861 5.19478Z" stroke="#CCBBFF" stroke-width="1.18529" stroke-linecap="round" stroke-linejoin="round"/>
<path d="M2.72044 10.3042C3.93057 10.3042 4.91157 9.32315 4.91157 8.11301C4.91157 6.90288 3.93057 5.92188 2.72044 5.92188C1.5103 5.92188 0.529297 6.90288 0.529297 8.11301C0.529297 9.32315 1.5103 10.3042 2.72044 10.3042Z" stroke="#CCBBFF" stroke-linecap="round" stroke-linejoin="round"/>
<path d="M11.4861 15.4213C12.6962 15.4213 13.6772 14.4403 13.6772 13.2302C13.6772 12.0201 12.6962 11.0391 11.4861 11.0391C10.2759 11.0391 9.29492 12.0201 9.29492 13.2302C9.29492 14.4403 10.2759 15.4213 11.4861 15.4213Z" stroke="#CCBBFF" stroke-linecap="round" stroke-linejoin="round"/>
<path d="M4.61133 9.21875L9.59982 12.1257" stroke="#CCBBFF" stroke-linecap="round" stroke-linejoin="round"/>
<path d="M9.59252 4.10938L4.61133 7.01629" stroke="#CCBBFF" stroke-linecap="round" stroke-linejoin="round"/>
</svg>
