<svg width="16" height="19" viewBox="0 0 16 19" fill="none" xmlns="http://www.w3.org/2000/svg">
<path d="M8.60912 7.92381C8.92658 7.95161 9.14787 7.98637 9.36916 7.98753C11.0688 7.99216 12.7673 7.98058 14.467 8.00143C14.7277 8.00491 14.9861 8.14741 15.2456 8.22504C15.117 8.47877 15.0498 8.80203 14.8517 8.97582C12.2043 11.2837 9.53832 13.572 6.87586 15.8637C5.93971 16.6701 5.01283 17.488 4.05235 18.2631C3.87393 18.4068 3.55184 18.3732 3.29695 18.4219C3.3039 18.1751 3.23091 17.8878 3.3317 17.6885C4.35359 15.654 5.40444 13.6345 6.44486 11.6105C6.54682 11.4124 6.63372 11.2061 6.76695 10.9199C6.45066 10.8921 6.22936 10.8562 6.00807 10.8562C4.3084 10.8516 2.60989 10.8632 0.910228 10.8423C0.649543 10.8388 0.39118 10.6963 0.132812 10.6176C0.261417 10.3638 0.328612 10.0406 0.526732 9.86678C3.45335 7.32018 6.3962 4.79211 9.33673 2.26057C9.99481 1.69402 10.6402 1.10893 11.3272 0.579446C11.5103 0.438097 11.8277 0.469378 12.0826 0.421875C12.0745 0.668657 12.1475 0.955991 12.0467 1.15527C11.0248 3.18977 9.97395 5.20921 8.93353 7.23328C8.83041 7.4314 8.74352 7.63647 8.60912 7.92381Z" fill="#FFA700"/>
</svg>
