<svg width="16" height="16" viewBox="0 0 26 26" fill="none" xmlns="http://www.w3.org/2000/svg">
<path fill-rule="evenodd" clip-rule="evenodd" d="M22.2156 0H2.99659C1.34322 0 0.00227694 1.33913 2.41567e-05 2.9925V22.1833C-0.00317302 22.9801 0.31111 23.7454 0.87342 24.31C1.43573 24.8746 2.19975 25.1919 2.99659 25.1919H22.2156C23.0118 25.1909 23.7747 24.873 24.3362 24.3085C24.8976 23.7441 25.2113 22.9794 25.2081 22.1833V2.9925C25.2059 1.34071 23.8674 0.00222463 22.2156 0V0ZM10.8716 18.1448C10.8705 18.4111 10.7634 18.6661 10.574 18.8533C10.3845 19.0404 10.1283 19.1445 9.86197 19.1423H5.66197C5.11265 19.1401 4.66851 18.6941 4.66851 18.1448V5.64577C4.66851 5.09644 5.11265 4.65049 5.66197 4.64827H9.86197C10.412 4.65048 10.8573 5.09578 10.8595 5.64577L10.8716 18.1448ZM20.5639 12.4062C20.5639 12.6728 20.4572 12.9284 20.2675 13.1158C20.0778 13.3032 19.8209 13.4069 19.5543 13.4037H15.3543C14.8043 13.4014 14.359 12.9561 14.3568 12.4062V5.64577C14.359 5.09578 14.8043 4.65048 15.3543 4.64827H19.5543C20.1036 4.65049 20.5477 5.09644 20.5477 5.64577L20.5639 12.4062Z" fill="url(#paint0_linear_13_4)"/>
<defs>
<linearGradient id="paint0_linear_13_4" x1="12.6162" y1="25.1919" x2="12.6162" y2="0" gradientUnits="userSpaceOnUse">
<stop stop-color="#0052CC"/>
<stop offset="1" stop-color="#2684FF"/>
</linearGradient>
</defs>
</svg>
