<svg width="136" height="165" viewBox="0 0 136 165" fill="none" xmlns="http://www.w3.org/2000/svg">
<path d="M94.5507 149.492L65.957 163.48L34.2545 147.318L1.30859 103.183L13.7402 49.7238L39.5382 18.332L69.9975 1.85938L103.876 22.0618L122.524 55.0069L135.578 109.088L109.47 135.817L94.5507 149.492Z" fill="url(#paint0_linear_5730_137261)"/>
<path d="M5.53235 103.043L42.4876 26.5672M65.2188 163.855L108.161 136.848L115.543 113.846L127.876 98.3169L102.354 29.7631M103.569 21.7959L102.309 29.7181L84.124 49.9736L61.8879 58.0759L55.7662 71.7596L5.53235 103.043L4.76727 109.795L22.5472 133.066L33.8003 146.57L65.2188 163.81L94.6118 149.136L108.161 136.758L129.496 115.422L134.583 109.345L134.313 108.085L122.339 54.925L102.264 29.6731L39.4716 18.2849M71.2504 139.953L26.193 109.75M65.2188 163.855L22.5472 133.066M115.543 113.801L71.2504 139.908M54.911 37.5952L102.309 29.7181M39.8769 112.946L55.7662 71.7596L54.911 37.5952M129.541 115.512L131.837 108.895L127.876 98.2719L95.1971 86.7487L55.8113 71.7596M71.2504 139.953L39.9218 112.946L26.193 109.75L5.57741 103.088L1.16628 103.268M122.385 54.97L103.569 21.7959L70.1702 1.40527M13.8146 49.4335L42.5326 26.5672M95.152 86.7487L104.65 115.917M26.193 109.705L22.592 133.066M61.8879 58.0759L59.8173 43.5368M65.3538 49.0284L61.8879 58.1209M65.2188 163.855L71.2054 139.953L95.152 86.7487L84.124 49.9736L59.8624 43.5819L54.9561 37.6402L42.5326 26.5672L39.5167 18.375M59.8173 43.5819L65.3538 49.0284L84.124 49.9736M70.1702 1.40527L39.4716 18.375L13.7698 49.4785L9.71864 66.7182L1.07617 103.268L4.72222 109.84M134.628 109.39L131.837 108.895L115.543 113.801L104.65 115.872L71.2054 139.908M127.876 98.2719L133.953 108.265L134.673 109.435" stroke="#4F00DE" stroke-linecap="round" stroke-linejoin="round"/>
<defs>
<linearGradient id="paint0_linear_5730_137261" x1="205.07" y1="20.0462" x2="66.4877" y2="96.9872" gradientUnits="userSpaceOnUse">
<stop stop-color="#C701F9"/>
<stop offset="1" stop-color="#1C0F32"/>
</linearGradient>
</defs>
</svg>
