<svg width="127" height="154" viewBox="0 0 127 154" fill="none" xmlns="http://www.w3.org/2000/svg">
<path fill-rule="evenodd" clip-rule="evenodd" d="M53.6152 152.543L61.5672 151.844L71.9372 148.782L81.7695 144.591L88.9155 139.272L96.33 133.039L104.765 123.422L113.04 110.419L121.153 90.5398L124.215 75.6033L125.558 61.4187L124.645 49.5985L122.227 38.6378L118.735 30.4711L115.028 24.2923L111.965 18.5433L104.497 10.9674L96.4375 6.29301L88.5394 2.63926L80.6412 0.973769L73.3341 0.705078L66.6718 0.973769L59.4721 2.26318L51.4128 5.59436L42.4934 10.6449L31.3718 18.8116L23.205 27.1396L16.7046 36.5959L12.1915 44.7626L6.71057 57.765L3.27115 69.9614L1.60564 81.6206L1.2832 87.8531V97.3094L3.64739 108.807L5.85027 115.846L7.89196 121.434L11.4918 128.257L14.0708 132.341L17.7243 136.639L23.3658 141.259L27.8791 144.591L32.9296 147.814L40.6128 150.34L47.3826 151.844L53.6152 152.543ZM56.3635 109.608L64.2119 106.099L70.1201 101.483L78.2446 90.3119L82.6762 79.0483L84.7996 65.1997L84.1534 58.0907L82.6762 51.5356L79.6295 46.181L76.7675 44.0576H73.6284L69.2938 46.181L63.4728 49.874L59.3182 54.3055L55.8099 59.014L53.1319 64.2765L50.271 70.6469L48.2392 77.1095L46.9473 83.4799L46.3933 90.3119V97.2361L48.2392 102.683L50.271 107.115L53.1319 108.961L55.8099 109.608H56.3635Z" fill="url(#paint0_linear_5730_137261)"/>
<path d="M3.34348 77.4642L5.74959 65.9402L9.42213 54.6271L14.2766 43.7785M101.404 127.655L102.67 125.122L107.989 118.115L112.675 110.432L116.685 102.243M91.4837 57.3288L98.5333 57.371L106.089 55.5558L113.054 52.1788L118.458 47.7042L121.539 42.7654L121.919 38.0798M105.161 20.7725L99.2509 18.1131L92.7923 16.7623L85.9538 16.8467L78.8621 18.3664L71.6859 21.3213L64.552 25.7114L57.6713 31.4101L51.2128 38.333L45.3452 46.3113L40.2374 55.1759L36.0162 64.6738L32.808 74.5938L30.6551 84.6404L29.6421 94.6026L29.7687 104.185L30.9928 113.218L33.2723 121.45L36.5649 128.711L40.744 134.831L45.7251 139.686L51.3394 143.232L57.4602 145.427M79.1154 44.7494L85.2362 43.6518L91.0616 39.7683L95.7472 33.6052L98.6177 26.0069L99.2931 18.0709L97.6468 10.8947L93.9321 5.49148L88.7399 2.57879M116.643 102.792L116.769 102.285L119.977 93.674L122.468 84.8515L124.114 75.9446L124.874 67.1221L124.705 58.553L123.65 50.3637L121.666 42.7232L118.795 35.8003L115.081 29.7216L110.522 24.6561L105.245 20.7303L104.148 13.8918L100.813 8.69964L95.7472 5.87141L93.5099 4.81609L88.7821 2.57879L81.1838 0.848077L73.0789 0.763672L64.6786 2.36773L59.1487 2.32552L50.7906 5.57594L42.5169 10.4304L34.5387 16.8467L27.067 24.6561L20.2708 33.7318L14.361 43.8207L12.4614 44.074L7.94468 54.205L4.52546 64.8004L2.28816 75.5647L3.47014 77.4642L2.41482 88.8617L2.66809 99.837L4.22994 110.137L4.27214 110.39L5.66518 114.991L7.05822 119.508L11.0262 127.74L13.1791 130.737L16.0073 134.705L19.7221 138.166L21.3683 139.686L21.9171 140.192L26.3494 143.907L32.3859 145.131L38.9711 149.142L46.105 151.59L52.0992 149.775L59.191 150.619L66.536 150.028L73.9232 148.002L77.4691 143.738L84.1809 140.657L90.7239 136.436L96.9291 131.159L102.755 124.954L101.741 120.859L98.5755 115.709L93.6788 110.221L87.7268 105.198L81.6059 101.357L76.1605 99.246L72.1925 99.1194L70.1663 100.935L68.6889 102.581L67.7601 103.425L65.1852 105.494L61.386 107.773L57.5025 109.377L56.1094 109.673L55.3918 109.715L53.1545 109.335L51.2972 108.026L50.6218 107.351L49.8619 106.169L48.089 102.032L47.6669 100.47L46.8648 97.3464L46.6116 95.2781L46.2738 92.4498V89.4949L46.9493 83.1208L48.3423 76.6622L50.4107 70.3303L53.1123 64.2517L56.3627 58.553L59.6131 54.0784L60.1196 53.4874L61.8082 51.6723L64.1721 49.646L65.6073 48.4219L69.6175 45.8891L73.4589 44.2006H73.5855L75.8228 44.1162L77.1314 44.3272L78.0179 44.9182L79.4531 45.8891L79.833 46.1424L85.4051 47.9153L87.9379 50.4903L94.6919 49.8993L101.741 46.9866L108.073 42.1744L112.759 36.0957L115.165 29.6372L114.954 23.7274L112.252 19.1262L109.846 16.4246L107.018 13.2164L100.939 8.61524L94.1009 5.40708L86.6293 3.71857L78.6933 3.67636L70.4196 5.28042L64.763 2.28332L56.2361 5.61814L47.7513 10.5992L39.562 17.1844L31.8793 25.2049L24.9142 34.5339L18.8778 44.876L13.8967 56.0202L10.1397 67.6709L7.64916 79.4905L6.55164 91.1834L6.80491 102.454L8.40901 113.007L11.2795 122.632L15.3319 131.074L20.4396 138.166L26.4338 143.823L29.5154 145.68L33.1879 147.917L37.6625 149.437L40.4907 150.408L46.2316 151.505L53.7877 152.392L61.5549 151.717L66.2405 150.408L68.6044 149.775L69.3642 149.564L74.0921 147.917L81.4371 144.54L83.9277 142.936L88.5289 139.939L90.7661 138.082L95.3251 134.24L97.1825 132.256L101.657 127.486L103.05 125.629L107.398 119.888L108.369 118.326L110.184 115.371L112.506 111.572L112.97 110.432L116.643 102.792ZM116.643 102.792L116.769 102.285L117.445 100.723L120.062 93.674L120.231 93.4629L122.13 86.7511L122.552 84.8515L122.89 83.9228L123.819 78.8151L124.199 75.9024L124.663 74.2561L124.916 71.5123L125.296 66.8266L125.465 64.6316L125.296 55.3025L124.114 46.3957L121.961 38.0798L118.838 30.4815L116.347 26.2602L115.038 24.1073L114.785 23.7274L109.846 18.2398L104.105 13.8918L97.6468 10.8947L90.5972 9.37509H83.0834L75.274 10.9791L67.3802 14.1451L59.5287 18.873L51.9726 25.0782L44.8808 32.6343L38.4223 41.3723L32.808 51.0813L28.1646 61.5078L24.6187 72.3987L22.2548 83.4585L21.1572 94.3916L21.3261 104.945L22.7191 114.823L25.2941 123.814L28.9666 131.708L33.61 138.377L39.0977 143.654L45.303 147.495L52.0148 149.859L57.4602 145.342L63.9188 146.187L70.5884 145.68L77.3425 143.865L79.1576 137.575L85.1096 134.916L90.8928 131.201L96.4226 126.558L101.615 121.07L106.343 114.865L110.522 108.026L114.11 100.723L117.022 93.083L119.218 85.2314L120.653 77.2954L121.286 69.4438L121.117 61.8033L120.146 54.5427L118.373 47.7887L115.798 41.6678L112.463 36.3068L108.411 31.8745L103.725 28.4552L98.4911 26.1335L92.7923 25.036L86.7559 25.1626L80.5084 26.5557L74.1765 29.2151L67.929 33.0986L61.8926 38.1642L56.2361 44.285L51.0861 51.3345L46.6116 59.1439L42.8968 67.502L40.0686 76.1979L38.169 85.0203L37.2403 93.7584L37.3248 102.201L38.3801 110.137L40.3641 117.398L43.2345 123.814L46.8648 129.259L51.2128 133.607L56.1094 136.815L61.4704 138.799L67.1692 139.601L73.0789 139.179L79.0732 137.617M77.5957 43.2297L78.3978 42.5543L82.3235 39.2617L85.574 32.9298L86.8825 25.0782L85.9961 16.8467L83.0834 9.41729L78.5244 3.84517L73.0367 0.848077H67.338L59.1065 2.40998M15.9229 134.747L20.2286 138.335L26.3916 139.644L33.5678 138.377L40.744 134.747L46.907 129.217L51.1706 122.59L52.9435 115.836L52.0148 109.884M70.124 101.146L71.5593 99.2883L73.6277 96.671L74.5142 95.2781L76.7515 91.7322L77.2158 90.8457L79.4109 86.4134L79.5375 86.0335L81.5215 80.8413L83.0834 75.1003M75.6962 44.2006L76.667 43.9896L81.5215 43.0186L86.7981 39.0084L90.8083 32.6765L92.9189 24.8671L92.8345 16.7201L90.555 9.33283L86.4604 3.80297L81.0994 0.848077M70.2507 5.40708L61.8504 8.69964L53.5345 13.6386L45.514 20.1393L38.0001 28.0753L31.1617 37.2777L25.2097 47.4932L20.313 58.5107L16.5983 69.9926L14.1499 81.6433L13.0102 93.1674L13.2213 104.269L14.7409 114.696L17.527 124.194L21.4528 132.51L26.4338 139.517L32.3014 145.089L39.1399 143.569L45.8095 139.517L51.3394 133.481L54.9697 126.304L56.1938 119.044L54.8853 112.67L52.2259 109.293L52.057 109.082L51.2972 108.111M53.5345 152.561L59.1065 150.746L63.9188 146.187L67.2536 139.517L68.6466 131.665L67.8868 123.772L65.1008 116.933L60.6684 112.079L56.1938 110.221L55.2652 109.841M61.3016 151.885L66.4516 150.112L70.6306 145.68L73.2056 139.137L73.7966 131.412L72.3191 123.603L68.9843 116.807L64.2565 111.994L58.8533 109.799M88.0223 68.4307L93.5099 70.3303L100.644 71.4701L108.411 71.6811L115.672 70.9213L121.413 69.3172L124.832 67.1221L125.507 64.6316M76.9625 44.4117L77.4691 44.4961L79.1154 44.7494L82.3235 46.0157L85.194 47.9575L91.7792 47.1555L98.4911 43.8207L104.359 38.4174L108.538 31.7056L110.437 24.6139L109.846 18.1975L106.849 13.3008M73.5433 44.2006L74.4298 43.3564L77.6801 40.317L80.1707 34.1118L80.5928 26.429L78.8621 18.3242L75.2318 10.9791L70.2085 5.40708M10.9418 127.782L15.1631 131.243L21.4528 132.636L28.9666 131.75L36.6072 128.668L43.3189 123.814L48.089 117.904L50.3263 111.783L49.7353 106.338M77.4691 44.4961L78.6089 44.876L82.3235 46.0579L88.6977 45.0871L94.9874 41.4568L100.306 35.6314L103.894 28.413L105.203 20.8569M79.1998 137.575L78.9887 130.104L76.7937 122.505L72.9101 115.878L67.8868 111.15L62.4835 108.955L57.418 109.546M69.4909 45.9735L73.0367 42.3432L74.7252 36.4757L74.2609 29.1306L71.6859 21.3213L67.338 14.1873L61.8504 8.74189L56.025 5.74475L50.664 5.57594M2.92135 106.169L4.14553 110.095L6.97377 119.508L11.1528 122.759L17.5692 124.278L25.3363 123.814L33.3567 121.366L40.4907 117.355L45.7251 112.332L48.3423 107.013L48.0468 102.159M81.1838 144.709L84.0965 140.783L85.1518 134.874L84.1387 127.824L81.226 120.606L76.7937 114.232L71.4749 109.673L66.0716 107.478L61.3016 107.942M53.0279 109.462L54.041 110.137L57.2492 111.446L60.6684 112.037L64.2143 111.91L67.8446 111.108L71.4749 109.63L75.0208 107.478L78.3978 104.734L81.5637 101.483L84.4764 97.7686L87.0514 93.674L89.2464 89.2416L91.0194 84.5982L92.328 79.8281L93.1723 75.0159L93.5099 70.2459L93.3411 65.6447L92.6657 61.2968L91.4837 57.2443L85.9538 55.4292L82.6613 52.0944M84.3076 58.8906L84.5186 63.5762L84.1387 69.3172L83.1256 75.1003L83.6744 76.2823L86.8825 77.9708L92.3702 79.9126L99.3775 81.8544L106.934 83.5429L113.941 84.6826L119.386 85.147L122.595 84.8515L122.932 83.9228M52.9435 64.3361L51.1283 62.2254L46.7382 59.0173L40.3218 55.1337L32.7658 51.1235L25.2097 47.5776L18.7511 45.0026L14.2766 43.7785M1.14844 86.2023L1.4017 96.5022L2.54143 99.837L6.6361 102.581L13.1791 104.354L21.2839 104.903L29.7687 104.1L37.4092 102.074L43.1079 99.1616L46.105 95.7424M88.3178 140.108L90.6395 136.562L90.9772 131.159L89.2042 124.616L85.574 117.862L80.5928 111.868L75.0208 107.478L69.6175 105.325L65.143 105.62M83.9277 56.4845L84.2231 56.78L87.1358 59.5238L92.6657 61.3812L99.7574 61.7611L107.44 60.5791L114.616 58.0042L120.231 54.4161L123.523 50.3637L124.072 46.3957M65.4806 48.5063L68.4355 45.2559L69.322 39.8527L67.9712 33.0142L64.5098 25.6692L59.4442 18.9152L53.4923 13.6808L47.498 10.7259L42.3481 10.4304L38.7178 12.7943L36.7338 14.3984L33.7367 16.8045L31.2039 18.8307L25.7584 24.5294L24.1966 26.1757L18.7089 33.4786L17.8225 34.6605M95.0718 134.367L96.8447 131.286L96.4648 126.473L93.9743 120.563L89.7108 114.4L84.2653 108.871L78.3978 104.734L72.9945 102.581L68.7733 102.707M1.4017 96.5022L1.82383 99.3727L2.62588 104.649L2.87915 106.169L4.10333 110.137L8.19795 113.176L14.6987 114.823H22.6769L30.9928 113.176L38.4223 110.095L43.9521 106.042L46.8226 101.61L46.696 97.4309M84.6874 61.1701L87.8112 63.8718L93.3411 65.7291L100.475 66.4889L108.242 65.9824L115.503 64.2939L121.244 61.6767L124.663 58.5107L125.296 55.2603M2.1615 75.5647L1.14844 86.2445L2.28816 88.9039L6.38278 91.3945L12.968 93.3362L21.115 94.476L29.6421 94.6026L37.3248 93.7584L43.0657 92.0276L46.0628 89.7059M91.4837 57.3288L89.8374 53.6985L84.3076 51.8833L82.1969 48.7596M61.6393 51.7989L64.0455 49.0128L64.1721 44.2428L61.977 38.0798L57.7135 31.3679L51.9304 25.1204L45.514 20.1815L39.3932 17.3111L34.4121 16.8467L31.2461 18.7885M32.9768 148.086L38.8866 149.226L45.303 147.537L51.3816 143.19L56.2361 136.773L59.1487 129.217L59.7397 121.577L57.9668 114.949L54.8008 111.108L54.3365 110.559L54.0832 110.221M57.4602 145.385L61.5549 138.757L63.7077 130.99L63.6233 123.138L61.3438 116.342L57.7979 112.205L57.207 111.53L53.9988 110.221M3.34348 77.4642L7.52255 79.6171L14.1077 81.7277L22.2126 83.4585L30.6974 84.556L38.2534 84.8937L43.8677 84.4293L46.7804 83.2052M59.9508 53.5296L59.3598 49.5194L56.3205 44.2006L51.255 38.2908L44.8386 32.6765L38.0001 28.1598L31.7527 25.3737L26.9404 24.6983L24.2388 26.1757M4.3988 64.8004L5.74959 65.9824L9.97086 67.8398L16.5561 70.1192L24.5765 72.4832L32.8502 74.5938L40.1952 76.1557L45.5562 76.9155L48.2157 76.8311M67.6757 103.594L68.6044 102.75L69.1954 102.285L72.1503 99.2883L75.274 95.3203L78.0179 90.9301L80.3396 86.2445L82.2391 81.3056L83.6321 76.2401L84.5186 71.1323L84.8563 66.0668L84.4764 63.5762M107.187 120.057L107.989 118.157L106.427 114.823L102.67 110.475L97.2247 105.747L90.8506 101.314L84.5186 97.8108L79.0732 95.7424L75.3162 95.3625L73.6699 96.671M84.1387 69.3172L84.5608 71.1745L87.6846 73.2008L93.1723 75.1425L100.264 76.7044L107.947 77.6331L115.123 77.8442L120.737 77.2954L124.199 75.9868L124.663 74.3405M50.284 70.4569L48.0046 69.4016L43.0657 67.3754L36.1428 64.6316L28.1646 61.5501L20.3552 58.5952L13.8123 56.189L9.46433 54.6694L7.86023 54.205M112.295 111.699L112.759 110.559L110.606 107.984L106.3 104.565L100.348 100.681L93.5944 96.8821L87.0514 93.7584L81.6059 91.7322L78.0179 91.0568L76.7515 91.8166M116.685 102.285L114.194 100.681L109.424 98.1907L103.05 95.1936L95.9583 92.0698L89.2042 89.326L83.7588 87.2998L80.3396 86.2867L79.3687 86.4134M81.5637 80.8413L82.2813 81.3478L85.574 82.6986L91.0194 84.6826L97.9001 87.0466L105.245 89.4527L111.957 91.5633L117.107 93.0408L120.062 93.7584L120.231 93.5473M50.4951 107.478L50.7906 107.9L52.057 109.841L54.8008 112.712L57.9246 114.865L61.386 116.258L65.0585 116.891L68.8999 116.722L72.8257 115.793L76.7515 114.147L80.5928 111.825L84.2653 108.828L87.6846 105.282L90.8083 101.23L93.5944 96.7555L95.9583 91.9432L97.9001 86.9199L99.3353 81.7277L100.264 76.4934L100.644 71.3434L100.475 66.3623L99.7574 61.6345L98.4911 57.2443L96.7181 53.3186L94.4808 49.8993L91.7792 47.1133L88.6555 45.0026L85.194 43.6096L81.4793 42.9764L77.5535 43.1453L74.3876 43.9051L73.5011 44.1162L73.2478 44.2006M56.2361 58.6796L55.0119 55.5558L51.255 51.2501L45.4718 46.3113L38.4645 41.4568L31.2461 37.4043L24.872 34.7027L20.2286 33.774L17.9491 34.6605L12.7991 43.4408L12.4192 44.1162M79.6642 46.1846L80.1285 46.6489L82.1969 48.7174L87.769 50.4903L89.8796 53.614L96.8025 53.3186L104.148 50.9124L110.859 46.7756L115.967 41.4568L118.753 35.7158L118.88 30.397L114.827 23.6852L112.126 19.1684M55.9828 109.841L58.8111 109.757L62.4413 108.955L66.0716 107.478L69.6175 105.367L72.9945 102.665L76.1605 99.4149L79.031 95.7424L81.6059 91.6477L83.801 87.2576L85.574 82.6564L86.8825 77.9286L87.7268 73.1586L88.0645 68.4307L84.9408 66.0668L84.7297 61.1701L84.3498 58.8906L83.9699 56.4845L82.7035 52.1788L80.9728 48.3796L80.8883 48.2952L79.4109 46.1424L79.2842 45.9735M88.0223 68.4307L87.8534 63.8718L87.178 59.5238L85.9961 55.5136L84.3498 51.8833L80.9728 48.3374L80.8883 48.253M46.105 92.5764V95.7846L46.8226 101.61L48.2579 106.971L50.3263 111.741L52.9857 115.793L56.1516 119.086L59.7397 121.534L63.7077 123.096L67.929 123.772L72.3191 123.561L76.7937 122.463L81.226 120.563L85.574 117.862L89.753 114.443L93.6366 110.39L97.1825 105.747L100.348 100.639L103.05 95.1514L105.245 89.4105L106.891 83.5007L107.947 77.5487L108.411 71.6811L108.242 65.9824L107.482 60.5791L106.089 55.5558L104.105 51.0391L101.573 47.1133L98.4911 43.8629L94.9452 41.4145L91.0194 39.7683L86.7559 39.0084L82.2813 39.1773L77.6801 40.2748L73.0367 42.301L68.4355 45.2137L64.0455 48.9706L61.0483 52.221L59.9086 53.5296L59.402 54.1206M104.359 38.4596L100.264 35.547L95.705 33.6052L90.7661 32.6765L85.5317 32.8454L80.1285 34.1118L74.683 36.4335L69.322 39.8105L64.1721 44.2006L59.3176 49.4772L54.9275 55.5136L51.0861 62.1832L47.9201 69.3594L45.4718 76.8311L43.8255 84.4293L43.0235 91.9432L43.0657 99.2038L43.9521 106.042L45.6406 112.29L48.0468 117.82L51.1706 122.547L54.8853 126.347L59.1065 129.175L63.7499 130.948L68.6889 131.665L73.7966 131.37L78.9887 130.061L84.1387 127.782L89.162 124.616L93.9743 120.606L98.4911 115.836L102.628 110.432L106.3 104.48L109.424 98.1063L111.957 91.4367L113.857 84.5982L115.123 77.7175L115.672 70.8791L115.503 64.2517L114.616 57.962L113.054 52.0944L110.775 46.8178L107.862 42.2166L104.359 38.4596Z" stroke="#4F00DE" stroke-linecap="round" stroke-linejoin="round"/>
<defs>
<linearGradient id="paint0_linear_5730_137261" x1="110.143" y1="26.326" x2="49.8418" y2="141.528" gradientUnits="userSpaceOnUse">
<stop stop-color="#7427FF"/>
<stop offset="1" stop-color="#4F00DE" stop-opacity="0"/>
</linearGradient>
</defs>
</svg>
