<svg width="45" height="45" viewBox="0 0 45 45" fill="none" xmlns="http://www.w3.org/2000/svg">
<rect width="45" height="45" rx="6" fill="#4F00DE"/>
<path fill-rule="evenodd" clip-rule="evenodd" d="M27.7926 17.7408C27.7753 17.8274 27.706 17.8966 27.6021 17.9313C25.1606 18.6412 23.2385 20.5633 22.5286 22.9875C22.494 23.1087 22.3901 23.178 22.2862 23.178C22.1823 23.178 22.0784 23.1087 22.0438 22.9875C21.3338 20.546 19.4118 18.6239 16.9702 17.9313C16.8663 17.8966 16.7971 17.8274 16.7798 17.7408H16.7624V17.7062V17.6715H16.7798C16.7971 17.585 16.8663 17.5157 16.9702 17.4811C19.4118 16.7884 21.3338 14.8664 22.0438 12.4249C22.0784 12.3036 22.1823 12.2344 22.2862 12.2344C22.3901 12.2344 22.494 12.3036 22.5286 12.4249C23.2385 14.8664 25.1606 16.7884 27.6021 17.4811C27.706 17.5157 27.7753 17.585 27.7926 17.6715H27.8099V17.7062V17.7408H27.7926ZM8.91876 17.7754H8.81486C8.60707 17.7754 8.46855 18.0005 8.57244 18.1737L12.7456 25.3944L16.9187 32.6151C17.0226 32.7882 17.2823 32.7882 17.3862 32.6151L20.4338 27.3164C20.7108 26.8316 20.7281 26.2255 20.4511 25.7407C18.1481 21.5156 13.9057 18.468 8.91876 17.7754ZM35.758 17.7754H35.6541C30.6671 18.4507 26.4247 21.4983 24.1044 25.758C23.8274 26.2428 23.8447 26.8489 24.1217 27.3337L27.1866 32.6324C27.2905 32.8055 27.5503 32.8055 27.6542 32.6324L31.8273 25.4117L36.0004 18.191C36.1043 18.0005 35.9658 17.7754 35.758 17.7754Z" fill="white"/>
</svg>
