<svg width="1053" height="523" viewBox="0 0 1053 523" fill="none" xmlns="http://www.w3.org/2000/svg">
<path d="M52.2474 423.817L132.021 396.429" stroke="#474747" stroke-width="0.5" stroke-linecap="round" stroke-linejoin="round"/>
<path d="M940.066 170.816L1022.46 152.903" stroke="#474747" stroke-width="0.5" stroke-linecap="round" stroke-linejoin="round"/>
<path d="M40.1634 413.255L120.515 388.025" stroke="#474747" stroke-width="0.5" stroke-linecap="round" stroke-linejoin="round"/>
<path d="M932.566 184.236L1015.19 168.649" stroke="#474747" stroke-width="0.5" stroke-linecap="round" stroke-linejoin="round"/>
<path d="M939.809 159.477L1020.33 139.752" stroke="#474747" stroke-width="0.5" stroke-linecap="round" stroke-linejoin="round"/>
<path d="M73.9655 431.796L151.377 402.497" stroke="#474747" stroke-width="0.5" stroke-linecap="round" stroke-linejoin="round"/>
<path d="M37.3996 400.351L116.747 377.703" stroke="#474747" stroke-width="0.5" stroke-linecap="round" stroke-linejoin="round"/>
<path d="M917.039 199.652L998.198 186.926" stroke="#474747" stroke-width="0.5" stroke-linecap="round" stroke-linejoin="round"/>
<path d="M932.214 150.411L1009.53 129.386" stroke="#474747" stroke-width="0.5" stroke-linecap="round" stroke-linejoin="round"/>
<path d="M43.4551 385.547L120.393 365.702" stroke="#474747" stroke-width="0.5" stroke-linecap="round" stroke-linejoin="round"/>
<path d="M105.479 436.614L178.768 406.029" stroke="#474747" stroke-width="0.5" stroke-linecap="round" stroke-linejoin="round"/>
<path d="M893.316 216.725L971.064 207.379" stroke="#474747" stroke-width="0.5" stroke-linecap="round" stroke-linejoin="round"/>
<path d="M917.738 143.574L990.741 121.7" stroke="#474747" stroke-width="0.5" stroke-linecap="round" stroke-linejoin="round"/>
<path d="M57.5742 369.197L130.966 352.23" stroke="#474747" stroke-width="0.5" stroke-linecap="round" stroke-linejoin="round"/>
<path d="M146.76 438.195L213.822 406.812" stroke="#474747" stroke-width="0.5" stroke-linecap="round" stroke-linejoin="round"/>
<path d="M861.586 235.248L934.032 229.712" stroke="#474747" stroke-width="0.5" stroke-linecap="round" stroke-linejoin="round"/>
<path d="M897.072 138.935L964.813 116.698" stroke="#474747" stroke-width="0.5" stroke-linecap="round" stroke-linejoin="round"/>
<path d="M79.082 351.639L147.883 337.675" stroke="#474747" stroke-width="0.5" stroke-linecap="round" stroke-linejoin="round"/>
<path d="M197.174 436.173L256.197 404.709" stroke="#474747" stroke-width="0.5" stroke-linecap="round" stroke-linejoin="round"/>
<path d="M870.766 136.578L932.563 114.315" stroke="#474747" stroke-width="0.5" stroke-linecap="round" stroke-linejoin="round"/>
<path d="M822.273 254.803L887.204 253.44" stroke="#474747" stroke-width="0.5" stroke-linecap="round" stroke-linejoin="round"/>
<path d="M107.246 333.301L170.678 322.317" stroke="#474747" stroke-width="0.5" stroke-linecap="round" stroke-linejoin="round"/>
<path d="M839.547 136.311L894.739 114.429" stroke="#474747" stroke-width="0.5" stroke-linecap="round" stroke-linejoin="round"/>
<path d="M141.262 314.396L198.711 306.404" stroke="#474747" stroke-width="0.5" stroke-linecap="round" stroke-linejoin="round"/>
<path d="M256.07 430.413L305.026 399.641" stroke="#474747" stroke-width="0.5" stroke-linecap="round" stroke-linejoin="round"/>
<path d="M775.953 275L831.511 278.075" stroke="#474747" stroke-width="0.5" stroke-linecap="round" stroke-linejoin="round"/>
<path d="M804.109 138.096L852.304 116.857" stroke="#474747" stroke-width="0.5" stroke-linecap="round" stroke-linejoin="round"/>
<path d="M488.569 347.531L485.366 348.235L461.034 353.521L443.919 357.259L438.323 358.528L435.081 359.088L435.009 359.107L390.3 367.464L345.618 374.194L305.231 378.54L269.935 380.597L240.396 380.263L217.034 377.658L199.995 373.049L189.444 366.471L185.295 358.178L187.298 348.391L195.132 337.349L208.495 325.365L226.885 312.575L249.763 299.275L276.79 285.634L307.247 271.846L340.812 258.15L376.838 244.719L394.42 238.698" stroke="#474747" stroke-width="0.5" stroke-linecap="round" stroke-linejoin="round"/>
<path d="M140.516 381.819L189.443 366.473" stroke="#474747" stroke-width="0.5" stroke-linecap="round" stroke-linejoin="round"/>
<path d="M869.414 186.201L919.536 175.315" stroke="#474747" stroke-width="0.5" stroke-linecap="round" stroke-linejoin="round"/>
<path d="M180.371 295.205L231.276 290.122" stroke="#474747" stroke-width="0.5" stroke-linecap="round" stroke-linejoin="round"/>
<path d="M151.777 389.594L199.997 373.05" stroke="#474747" stroke-width="0.5" stroke-linecap="round" stroke-linejoin="round"/>
<path d="M870.301 176.559L919.624 164.422" stroke="#474747" stroke-width="0.5" stroke-linecap="round" stroke-linejoin="round"/>
<path d="M862.203 197.539L912.024 188.121" stroke="#474747" stroke-width="0.5" stroke-linecap="round" stroke-linejoin="round"/>
<path d="M136.595 372.076L185.293 358.18" stroke="#474747" stroke-width="0.5" stroke-linecap="round" stroke-linejoin="round"/>
<path d="M170.569 395.274L217.036 377.658" stroke="#474747" stroke-width="0.5" stroke-linecap="round" stroke-linejoin="round"/>
<path d="M864.949 168.665L912.741 155.705" stroke="#474747" stroke-width="0.5" stroke-linecap="round" stroke-linejoin="round"/>
<path d="M848.293 210.363L896.989 202.789" stroke="#474747" stroke-width="0.5" stroke-linecap="round" stroke-linejoin="round"/>
<path d="M139.711 360.68L187.298 348.391" stroke="#474747" stroke-width="0.5" stroke-linecap="round" stroke-linejoin="round"/>
<path d="M322.169 421.028L359.481 391.681" stroke="#474747" stroke-width="0.5" stroke-linecap="round" stroke-linejoin="round"/>
<path d="M853.866 162.693L899.317 149.049" stroke="#474747" stroke-width="0.5" stroke-linecap="round" stroke-linejoin="round"/>
<path d="M196.791 398.5L240.394 380.264" stroke="#474747" stroke-width="0.5" stroke-linecap="round" stroke-linejoin="round"/>
<path d="M149.484 347.961L195.131 337.349" stroke="#474747" stroke-width="0.5" stroke-linecap="round" stroke-linejoin="round"/>
<path d="M827.906 224.615L874.197 218.996" stroke="#474747" stroke-width="0.5" stroke-linecap="round" stroke-linejoin="round"/>
<path d="M765.027 141.861L805.851 121.595" stroke="#474747" stroke-width="0.5" stroke-linecap="round" stroke-linejoin="round"/>
<path d="M723.645 295.26L768.047 303.02" stroke="#474747" stroke-width="0.5" stroke-linecap="round" stroke-linejoin="round"/>
<path d="M837.409 158.545L879.858 144.628" stroke="#474747" stroke-width="0.5" stroke-linecap="round" stroke-linejoin="round"/>
<path d="M493.943 335.069L479.96 338.122L454.549 343.698L450.914 344.518L436.456 347.236L427.128 348.964L426.533 349.046L409.663 352.256L371.215 358.087L336.329 361.961L305.618 363.868L279.769 363.78L259.108 361.761L243.888 357.899L234.168 352.409L229.896 345.382L231.056 337.053L237.4 327.644L248.497 317.27L264.169 306.133L283.807 294.549L307.195 282.578L333.725 270.535L363.038 258.518L393.3 247.172" stroke="#474747" stroke-width="0.5" stroke-linecap="round" stroke-linejoin="round"/>
<path d="M223.887 276.066L267.85 273.846" stroke="#474747" stroke-width="0.5" stroke-linecap="round" stroke-linejoin="round"/>
<path d="M165.367 334.148L208.498 325.367" stroke="#474747" stroke-width="0.5" stroke-linecap="round" stroke-linejoin="round"/>
<path d="M230.259 399.092L269.939 380.597" stroke="#474747" stroke-width="0.5" stroke-linecap="round" stroke-linejoin="round"/>
<path d="M801.156 239.877L843.909 236.593" stroke="#474747" stroke-width="0.5" stroke-linecap="round" stroke-linejoin="round"/>
<path d="M608.757 156.521L650.04 147.463L704.052 136.999L756.234 128.337L805.847 121.595L852.297 116.858L894.74 114.428L932.561 114.316L964.807 116.7L990.739 121.7L1009.53 129.386L1020.32 139.753L1022.46 152.903L1015.19 168.65L998.194 186.926L971.065 207.378L934.033 229.712L887.198 253.439L831.51 278.074L768.042 303.021L698.189 327.443L624.808 350.497L623.749 350.858L605.621 334.13L580.884 341.066L551.347 349.366L542.97 351.765L521.492 357.058L494.691 363.776L479.941 367.42L469.475 391.656L393.905 407.973L322.163 421.029L256.066 430.414L197.171 436.173L146.756 438.195L105.474 436.614L73.9637 431.797L52.2445 423.818L40.1635 413.256L37.3997 400.351L43.4545 385.546L57.5754 369.197L79.0818 351.639L107.24 333.302L141.259 314.396L180.367 295.206L223.883 276.068L270.997 257.122L321.1 238.686L373.544 220.933L402.347 211.905" stroke="#474747" stroke-width="0.5" stroke-linecap="round" stroke-linejoin="round"/>
<path d="M816.148 156.303L855.017 142.264" stroke="#474747" stroke-width="0.5" stroke-linecap="round" stroke-linejoin="round"/>
<path d="M186.887 319.516L226.887 312.575" stroke="#474747" stroke-width="0.5" stroke-linecap="round" stroke-linejoin="round"/>
<path d="M270.551 397.008L305.228 378.543" stroke="#474747" stroke-width="0.5" stroke-linecap="round" stroke-linejoin="round"/>
<path d="M722.985 147.5L756.241 128.336" stroke="#474747" stroke-width="0.5" stroke-linecap="round" stroke-linejoin="round"/>
<path d="M768.297 255.928L806.396 255.124" stroke="#474747" stroke-width="0.5" stroke-linecap="round" stroke-linejoin="round"/>
<path d="M790.512 155.847L825.482 141.929" stroke="#474747" stroke-width="0.5" stroke-linecap="round" stroke-linejoin="round"/>
<path d="M213.344 304.332L249.763 299.276" stroke="#474747" stroke-width="0.5" stroke-linecap="round" stroke-linejoin="round"/>
<path d="M271 257.123L307.767 257.679" stroke="#474747" stroke-width="0.5" stroke-linecap="round" stroke-linejoin="round"/>
<path d="M393.904 407.974L418.248 380.868" stroke="#474747" stroke-width="0.5" stroke-linecap="round" stroke-linejoin="round"/>
<path d="M458.804 145.821L491.559 132.265L526.592 127.503" stroke="#474747" stroke-width="0.5" stroke-linecap="round" stroke-linejoin="round"/>
<path d="M409.328 195.078L430.789 167.28L458.804 145.82L459.608 144.217L491.558 132.264L518.133 133.623L545.635 143.908L572.101 162.41L595.564 188.116L614.236 218.96L626.69 252.781L631.997 286.975L631.428 296.07" stroke="#474747" stroke-width="0.5" stroke-linecap="round" stroke-linejoin="round"/>
<path d="M642.713 193.755L655.678 225.743L654.876 232.819L645.097 242.069L626.691 252.782L600.856 264.254L569.437 275.602L534.678 285.994L499.294 294.627L466.018 300.769L437.299 304.069L415.302 304.259L401.312 301.532L396.144 296.055L391.431 261.78" stroke="#474747" stroke-width="0.5" stroke-linecap="round" stroke-linejoin="round"/>
<path d="M655.677 225.742L657.324 238.791L659.829 259.937L659.137 267.137L656.14 287.599" stroke="#474747" stroke-width="0.5" stroke-linecap="round" stroke-linejoin="round"/>
<path d="M666.371 315.152L698.188 327.442" stroke="#474747" stroke-width="0.5" stroke-linecap="round" stroke-linejoin="round"/>
<path d="M316.981 392.199L345.614 374.196" stroke="#474747" stroke-width="0.5" stroke-linecap="round" stroke-linejoin="round"/>
<path d="M761.088 157.102L791.765 143.562" stroke="#474747" stroke-width="0.5" stroke-linecap="round" stroke-linejoin="round"/>
<path d="M430.293 166.873L432.468 164.055" stroke="#474747" stroke-width="0.5" stroke-linecap="round" stroke-linejoin="round"/>
<path d="M558.066 130.17L561.613 131.61" stroke="#474747" stroke-width="0.5" stroke-linecap="round" stroke-linejoin="round"/>
<path d="M244.352 288.854L276.792 285.634" stroke="#474747" stroke-width="0.5" stroke-linecap="round" stroke-linejoin="round"/>
<path d="M729.996 272.357L762.486 274.213" stroke="#474747" stroke-width="0.5" stroke-linecap="round" stroke-linejoin="round"/>
<path d="M678.596 154.768L704.055 137" stroke="#474747" stroke-width="0.5" stroke-linecap="round" stroke-linejoin="round"/>
<path d="M462.657 142.09L491.555 132.266L515.234 126.846" stroke="#474747" stroke-width="0.5" stroke-linecap="round" stroke-linejoin="round"/>
<path d="M532.559 149.186L553.646 170.055L573.057 197.617L589.15 229.768L600.857 264.252L607.19 298.248L607.303 303.845" stroke="#474747" stroke-width="0.5" stroke-linecap="round" stroke-linejoin="round"/>
<path d="M321.102 238.686L350.398 241.86" stroke="#474747" stroke-width="0.5" stroke-linecap="round" stroke-linejoin="round"/>
<path d="M728.429 160.071L754.565 147.133" stroke="#474747" stroke-width="0.5" stroke-linecap="round" stroke-linejoin="round"/>
<path d="M279.113 273.295L307.249 271.846" stroke="#474747" stroke-width="0.5" stroke-linecap="round" stroke-linejoin="round"/>
<path d="M368.591 384.537L390.304 367.463" stroke="#474747" stroke-width="0.5" stroke-linecap="round" stroke-linejoin="round"/>
<path d="M628.951 175.78L655.58 170.725L693.049 164.694L728.429 160.071L761.09 157.101L790.511 155.848L816.15 156.302L837.411 158.545L853.864 162.693L864.946 168.666L870.299 176.56L869.414 186.202L862.199 197.541L848.29 210.364L827.902 224.616L801.155 239.877L768.298 255.928L729.992 272.359L687.01 288.887L654.272 300.203L646.515 302.898L640.229 305.045L630.687 307.987L607.581 315.258L590.779 320.453" stroke="#474747" stroke-width="0.5" stroke-linecap="round" stroke-linejoin="round"/>
<path d="M687.012 288.887L712.809 293.384" stroke="#474747" stroke-width="0.5" stroke-linecap="round" stroke-linejoin="round"/>
<path d="M467.711 139.656L491.556 132.264L507.903 127.961" stroke="#474747" stroke-width="0.5" stroke-linecap="round" stroke-linejoin="round"/>
<path d="M693.052 164.694L714.431 152.413" stroke="#474747" stroke-width="0.5" stroke-linecap="round" stroke-linejoin="round"/>
<path d="M632.395 163.6L650.042 147.462" stroke="#474747" stroke-width="0.5" stroke-linecap="round" stroke-linejoin="round"/>
<path d="M317.219 257.844L340.814 258.151" stroke="#474747" stroke-width="0.5" stroke-linecap="round" stroke-linejoin="round"/>
<path d="M373.547 220.934L395.263 226.601" stroke="#474747" stroke-width="0.5" stroke-linecap="round" stroke-linejoin="round"/>
<path d="M213.899 358.763L234.167 352.408" stroke="#474747" stroke-width="0.5" stroke-linecap="round" stroke-linejoin="round"/>
<path d="M823.738 196.129L844.416 191.591" stroke="#474747" stroke-width="0.5" stroke-linecap="round" stroke-linejoin="round"/>
<path d="M424.19 374.264L438.322 358.528" stroke="#474747" stroke-width="0.5" stroke-linecap="round" stroke-linejoin="round"/>
<path d="M825.004 187.617L845.547 182.575" stroke="#474747" stroke-width="0.5" stroke-linecap="round" stroke-linejoin="round"/>
<path d="M546.822 372.473L542.969 351.765" stroke="#474747" stroke-width="0.5" stroke-linecap="round" stroke-linejoin="round"/>
<path d="M209.702 351.176L229.889 345.382" stroke="#474747" stroke-width="0.5" stroke-linecap="round" stroke-linejoin="round"/>
<path d="M224.057 364.753L243.883 357.899" stroke="#474747" stroke-width="0.5" stroke-linecap="round" stroke-linejoin="round"/>
<path d="M816.844 206.07L837.316 202.204" stroke="#474747" stroke-width="0.5" stroke-linecap="round" stroke-linejoin="round"/>
<path d="M820.984 180.677L840.96 175.248" stroke="#474747" stroke-width="0.5" stroke-linecap="round" stroke-linejoin="round"/>
<path d="M503.32 139.057L516.928 154.452L531.408 177.708L545.703 207.181L558.675 240.631L569.433 275.6L576.937 309.36L577.449 313" stroke="#474747" stroke-width="0.5" stroke-linecap="round" stroke-linejoin="round"/>
<path d="M211.234 342.209L231.053 337.053" stroke="#474747" stroke-width="0.5" stroke-linecap="round" stroke-linejoin="round"/>
<path d="M240.063 368.944L259.107 361.76" stroke="#474747" stroke-width="0.5" stroke-linecap="round" stroke-linejoin="round"/>
<path d="M804.281 217.299L824.169 214.128" stroke="#474747" stroke-width="0.5" stroke-linecap="round" stroke-linejoin="round"/>
<path d="M655.582 170.725L671.954 159.323" stroke="#474747" stroke-width="0.5" stroke-linecap="round" stroke-linejoin="round"/>
<path d="M811.9 175.249L830.95 169.528" stroke="#474747" stroke-width="0.5" stroke-linecap="round" stroke-linejoin="round"/>
<path d="M427.127 348.963L414.781 333.384L409.647 327.745L402.725 311.406L396.145 296.055" stroke="#474747" stroke-width="0.5" stroke-linecap="round" stroke-linejoin="round"/>
<path d="M640.23 305.045L658.649 312.213" stroke="#474747" stroke-width="0.5" stroke-linecap="round" stroke-linejoin="round"/>
<path d="M218.215 332.012L237.396 327.643" stroke="#474747" stroke-width="0.5" stroke-linecap="round" stroke-linejoin="round"/>
<path d="M601.819 357.043L592.41 374.289L589.893 376.119L577.817 385.137L569.901 388.106" stroke="#474747" stroke-width="0.5" stroke-linecap="round" stroke-linejoin="round"/>
<path d="M262.026 371.23L279.765 363.779" stroke="#474747" stroke-width="0.5" stroke-linecap="round" stroke-linejoin="round"/>
<path d="M357.949 242.689L376.841 244.72" stroke="#474747" stroke-width="0.5" stroke-linecap="round" stroke-linejoin="round"/>
<path d="M786.223 229.615L805.042 227.348" stroke="#474747" stroke-width="0.5" stroke-linecap="round" stroke-linejoin="round"/>
<path d="M616.218 352.953L604.955 368.46L601.509 370.848L590.289 378.171L589.057 379.041L584.302 382.011" stroke="#474747" stroke-width="0.5" stroke-linecap="round" stroke-linejoin="round"/>
<path d="M798.086 171.472L815.942 165.608" stroke="#474747" stroke-width="0.5" stroke-linecap="round" stroke-linejoin="round"/>
<path d="M230.348 320.898L248.494 317.27" stroke="#474747" stroke-width="0.5" stroke-linecap="round" stroke-linejoin="round"/>
<path d="M474.408 137.013L491.56 132.263L499.664 129.707" stroke="#474747" stroke-width="0.5" stroke-linecap="round" stroke-linejoin="round"/>
<path d="M289.595 371.398L305.616 363.867" stroke="#474747" stroke-width="0.5" stroke-linecap="round" stroke-linejoin="round"/>
<path d="M577.134 379.999L560.241 385.142L543.079 389.278L526.798 392.099L510.328 381.557" stroke="#474747" stroke-width="0.5" stroke-linecap="round" stroke-linejoin="round"/>
<path d="M779.862 169.339L796.379 163.371" stroke="#474747" stroke-width="0.5" stroke-linecap="round" stroke-linejoin="round"/>
<path d="M762.695 242.781L779.995 241.46" stroke="#474747" stroke-width="0.5" stroke-linecap="round" stroke-linejoin="round"/>
<path d="M247.148 309.074L264.168 306.133" stroke="#474747" stroke-width="0.5" stroke-linecap="round" stroke-linejoin="round"/>
<path d="M465.992 167.177L482.354 163.795L499.784 159.51L516.931 154.453L532.557 149.187" stroke="#474747" stroke-width="0.5" stroke-linecap="round" stroke-linejoin="round"/>
<path d="M757.822 168.771L772.66 162.868" stroke="#474747" stroke-width="0.5" stroke-linecap="round" stroke-linejoin="round"/>
<path d="M322.292 369.421L336.328 361.96" stroke="#474747" stroke-width="0.5" stroke-linecap="round" stroke-linejoin="round"/>
<path d="M631.721 179.507L647.134 176.611L682.171 171L715.028 166.744L745.435 163.993L772.655 162.867L796.38 163.371L815.943 165.607L830.947 169.527L840.959 175.247L845.544 182.575L844.413 191.59L837.313 202.204L824.165 214.129L805.042 227.348L779.992 241.461L749.498 256.261L714.026 271.471L674.309 286.661L655.255 293.232L647.353 295.965L631.19 301.53L631.047 301.568L607.437 308.974L585.587 315.754L581.385 311.869L577.448 313L544.315 322.264L537.788 324.09L510.772 330.866L493.936 335.069L491.501 340.655L482.395 342.633L457.416 348.093L445.269 350.808L439.903 351.783L430.739 353.545L430.144 353.627L400.92 359.068L359.662 365.343L322.286 369.422L289.59 371.399L262.024 371.23L240.057 368.945L224.055 364.752L213.894 358.764L209.702 351.176L211.231 342.209L218.212 332.013L230.344 320.899L247.142 309.074L268.338 296.688L293.304 283.985L321.699 271.135L352.895 258.381L386.514 245.75L393.86 243.242" stroke="#474747" stroke-width="0.5" stroke-linecap="round" stroke-linejoin="round"/>
<path d="M268.34 296.688L283.802 294.549" stroke="#474747" stroke-width="0.5" stroke-linecap="round" stroke-linejoin="round"/>
<path d="M734.172 256.592L749.502 256.262" stroke="#474747" stroke-width="0.5" stroke-linecap="round" stroke-linejoin="round"/>
<path d="M623.68 350.878L614.211 362.435L605.061 368.279L600.81 371.113L590.395 377.99L584.303 382.012L577.817 385.138" stroke="#474747" stroke-width="0.5" stroke-linecap="round" stroke-linejoin="round"/>
<path d="M732.356 169.812L745.443 163.992" stroke="#474747" stroke-width="0.5" stroke-linecap="round" stroke-linejoin="round"/>
<path d="M293.309 283.984L307.193 282.577" stroke="#474747" stroke-width="0.5" stroke-linecap="round" stroke-linejoin="round"/>
<path d="M359.666 365.343L371.212 358.086" stroke="#474747" stroke-width="0.5" stroke-linecap="round" stroke-linejoin="round"/>
<path d="M436.454 347.235L428.378 336.37L415.302 304.258L409.869 269.019L412.536 233.228L423.038 199.346L440.679 169.95L451.739 169.223L465.992 167.176L477.152 145.53L485.559 143.817L491.195 132.054L499.663 129.708L507.906 127.962L515.239 126.845L520.975 126.387L524.88 126.574L526.871 126.812L529.567 127.092L558.067 130.17L561.58 131.773L562.905 132.112L588.747 142.533L593.94 145.227L608.761 156.52L621.258 166.046L621.642 166.328L623.506 168.681L624.837 170.483L628.954 175.779L631.726 179.507L634.181 182.627L642.713 193.754L641.776 200.327L654.876 232.818L659.138 267.138L649.666 276.382L631.999 286.975L607.189 298.248L576.941 309.36L543.549 319.386L509.532 327.654L477.406 333.486L449.747 336.426L428.378 336.37L414.781 333.384L401.312 301.531L396.373 266.699L391.431 261.779L393.299 247.171L393.432 246.518L393.865 243.242L394.421 238.698L395.59 229.828L395.928 227.348L396.396 226.22L402.351 211.904L409.329 195.079L411.852 190.395L428.739 168.833L430.516 167.123L432.47 164.056L455.612 147.139L458.056 145.328L459.609 144.218L462.662 142.089L467.715 139.656L474.408 137.015L482.329 134.353L490.902 131.824L491.56 132.265L503.324 139.057L511.37 136.285L532.558 149.186L545.637 143.908L555.2 139.033L585.424 155.45L611.781 179.3L632.111 208.852L645.097 242.068L649.666 276.382L648.023 290.391" stroke="#474747" stroke-width="0.5" stroke-linecap="round" stroke-linejoin="round"/>
<path d="M701.027 270.715L714.027 271.472" stroke="#474747" stroke-width="0.5" stroke-linecap="round" stroke-linejoin="round"/>
<path d="M641.772 200.328L632.108 208.854L614.233 218.963L589.145 229.77L558.675 240.633L525.121 250.626L490.906 259.023L458.767 265.091L431.08 268.501L409.865 269.02L396.369 266.7" stroke="#474747" stroke-width="0.5" stroke-linecap="round" stroke-linejoin="round"/>
<path d="M703.89 172.35L715.03 166.744" stroke="#474747" stroke-width="0.5" stroke-linecap="round" stroke-linejoin="round"/>
<path d="M542.005 346.705L539.798 334.73" stroke="#474747" stroke-width="0.5" stroke-linecap="round" stroke-linejoin="round"/>
<path d="M321.703 271.135L333.723 270.535" stroke="#474747" stroke-width="0.5" stroke-linecap="round" stroke-linejoin="round"/>
<path d="M400.923 359.066L409.659 352.254" stroke="#474747" stroke-width="0.5" stroke-linecap="round" stroke-linejoin="round"/>
<path d="M672.944 176.25L682.176 171.001" stroke="#474747" stroke-width="0.5" stroke-linecap="round" stroke-linejoin="round"/>
<path d="M663.973 284.883L674.316 286.659" stroke="#474747" stroke-width="0.5" stroke-linecap="round" stroke-linejoin="round"/>
<path d="M352.898 258.381L363.034 258.518" stroke="#474747" stroke-width="0.5" stroke-linecap="round" stroke-linejoin="round"/>
<path d="M491.559 132.266L494.515 141.572L499.784 159.51L506.966 184.876L515.618 216.015L525.123 250.626L534.677 285.994L543.548 319.387L544.319 322.264" stroke="#474747" stroke-width="0.5" stroke-linecap="round" stroke-linejoin="round"/>
<path d="M616.462 325.367L607.823 329.378L580.897 339.368L551.082 348.359L520.752 355.715L492.118 360.767L482.435 361.742L481.533 361.83L481.226 361.835" stroke="#474747" stroke-width="0.5" stroke-linecap="round" stroke-linejoin="round"/>
<path d="M482.328 134.354L491.559 132.266L525.933 129.068" stroke="#474747" stroke-width="0.5" stroke-linecap="round" stroke-linejoin="round"/>
<path d="M485.555 143.818L494.512 141.573L503.321 139.058" stroke="#474747" stroke-width="0.5" stroke-linecap="round" stroke-linejoin="round"/>
<path d="M454.549 343.696L449.748 336.426L437.301 304.068L431.085 268.499L431.598 232.437L438.632 198.56L451.74 169.222L469.82 146.647L477.153 145.53L491.561 132.264L524.881 126.574L526.595 127.502L561.548 131.936L593.941 145.227" stroke="#474747" stroke-width="0.5" stroke-linecap="round" stroke-linejoin="round"/>
<path d="M640.123 181.496L647.139 176.61" stroke="#474747" stroke-width="0.5" stroke-linecap="round" stroke-linejoin="round"/>
<path d="M552.514 392.841L544.102 394.247L526.798 392.1L512.568 393.369L501.382 393.051L494.036 391.242L484.875 387.838" stroke="#474747" stroke-width="0.5" stroke-linecap="round" stroke-linejoin="round"/>
<path d="M445.269 350.809L450.907 344.519" stroke="#474747" stroke-width="0.5" stroke-linecap="round" stroke-linejoin="round"/>
<path d="M544.099 394.248L536.794 394.894L530.611 394.547L517.429 393.685L512.565 393.369L494.855 385.395" stroke="#474747" stroke-width="0.5" stroke-linecap="round" stroke-linejoin="round"/>
<path d="M435.08 359.09L430.742 353.545" stroke="#474747" stroke-width="0.5" stroke-linecap="round" stroke-linejoin="round"/>
<path d="M655.259 293.232L654.274 300.203" stroke="#474747" stroke-width="0.5" stroke-linecap="round" stroke-linejoin="round"/>
<path d="M386.52 245.75L393.432 246.519" stroke="#474747" stroke-width="0.5" stroke-linecap="round" stroke-linejoin="round"/>
<path d="M647.353 295.966L646.513 302.898" stroke="#474747" stroke-width="0.5" stroke-linecap="round" stroke-linejoin="round"/>
<path d="M453.799 373.116L448.168 369.074" stroke="#474747" stroke-width="0.5" stroke-linecap="round" stroke-linejoin="round"/>
<path d="M647.621 315.63L644.837 321.927" stroke="#474747" stroke-width="0.5" stroke-linecap="round" stroke-linejoin="round"/>
<path d="M443.922 357.259L439.91 351.781" stroke="#474747" stroke-width="0.5" stroke-linecap="round" stroke-linejoin="round"/>
<path d="M459.625 371.863L454.281 367.744" stroke="#474747" stroke-width="0.5" stroke-linecap="round" stroke-linejoin="round"/>
<path d="M642.495 317.235L639.927 323.474" stroke="#474747" stroke-width="0.5" stroke-linecap="round" stroke-linejoin="round"/>
<path d="M587.114 361.138L580.886 363.501L556.787 370.806L532.23 376.692L524.269 378.054" stroke="#474747" stroke-width="0.5" stroke-linecap="round" stroke-linejoin="round"/>
<path d="M461.031 353.522L457.418 348.092" stroke="#474747" stroke-width="0.5" stroke-linecap="round" stroke-linejoin="round"/>
<path d="M631.051 301.568L630.69 307.986" stroke="#474747" stroke-width="0.5" stroke-linecap="round" stroke-linejoin="round"/>
<path d="M473.536 368.827L468.84 364.535" stroke="#474747" stroke-width="0.5" stroke-linecap="round" stroke-linejoin="round"/>
<path d="M629.201 321.415L627.189 327.427" stroke="#474747" stroke-width="0.5" stroke-linecap="round" stroke-linejoin="round"/>
<path d="M485.361 348.236L482.395 342.633" stroke="#474747" stroke-width="0.5" stroke-linecap="round" stroke-linejoin="round"/>
<path d="M607.442 308.972L607.584 315.256" stroke="#474747" stroke-width="0.5" stroke-linecap="round" stroke-linejoin="round"/>
<path d="M395.928 227.347L400.422 231.462L412.536 233.227L431.597 232.437L456.325 229.203L485.112 223.571L515.619 216.013L545.708 207.18L573.056 197.617L595.565 188.117L611.781 179.3L620.579 171.855L621.642 166.328" stroke="#474747" stroke-width="0.5" stroke-linecap="round" stroke-linejoin="round"/>
<path d="M634.178 182.627L640.12 181.498L672.942 176.249L703.89 172.351L732.35 169.813L757.819 168.77L779.865 169.339L798.09 171.471L811.899 175.248L820.985 180.677L825.004 187.618L823.738 196.128L816.843 206.07L804.28 217.3L786.225 229.616L762.694 242.782L734.171 256.592L701.029 270.714L663.968 284.885L656.138 287.6L648.021 290.391L631.426 296.071L623.812 298.728L607.299 303.846L581.387 311.869" stroke="#474747" stroke-width="0.5" stroke-linecap="round" stroke-linejoin="round"/>
<path d="M514.863 340.95L512.602 335.389" stroke="#474747" stroke-width="0.5" stroke-linecap="round" stroke-linejoin="round"/>
<path d="M578.059 317.848L578.882 323.795" stroke="#474747" stroke-width="0.5" stroke-linecap="round" stroke-linejoin="round"/>
<path d="M545.5 326.959L547.042 332.713" stroke="#474747" stroke-width="0.5" stroke-linecap="round" stroke-linejoin="round"/>
<path d="M435.013 359.107L431.055 354.694L430.152 353.625" stroke="#474747" stroke-width="0.5" stroke-linecap="round" stroke-linejoin="round"/>
<path d="M536.794 394.894L530.976 394.757L516.023 393.907L513.438 393.752L510.238 393.607L501.378 393.052L486.617 387.447" stroke="#474747" stroke-width="0.5" stroke-linecap="round" stroke-linejoin="round"/>
<path d="M479.953 338.122L477.401 333.487L466.013 300.768L458.766 265.089L456.32 229.204L458.826 195.692L465.987 167.177" stroke="#474747" stroke-width="0.5" stroke-linecap="round" stroke-linejoin="round"/>
<path d="M409.331 195.078L413.085 198.158L423.04 199.346L438.633 198.559L458.833 195.691L482.182 191.053L506.969 184.874L531.413 177.707L553.646 170.054L572.104 162.41L585.426 155.449L592.877 149.598L593.942 145.227" stroke="#474747" stroke-width="0.5" stroke-linecap="round" stroke-linejoin="round"/>
<path d="M538.682 328.863L537.789 324.091" stroke="#474747" stroke-width="0.5" stroke-linecap="round" stroke-linejoin="round"/>
<path d="M623.503 168.681L627.877 167.741L671.952 159.322L714.428 152.413L754.565 147.132L791.768 143.561L825.482 141.929L855.02 142.262L879.86 144.626L899.315 149.049L912.74 155.705L919.624 164.422L919.536 175.316L912.02 188.122L896.986 202.789L874.193 218.995L843.909 236.592L806.397 255.123L762.483 274.214L712.808 293.383L658.647 312.212L647.614 315.631L642.493 317.234L629.197 321.414L616.457 325.367L607.779 328.078L601.239 330.139L590.78 320.453L578.879 323.796L547.04 332.712L539.794 334.731L514.864 340.948L488.567 347.532L482.463 361.579L481.221 361.835L468.84 364.536L454.281 367.743L448.162 369.074L424.19 374.264L368.585 384.538L316.983 392.197L270.552 397.007L230.253 399.093L196.791 398.5L170.564 395.275L151.773 389.594L140.516 381.818L136.595 372.076L139.709 360.68L149.484 347.962L165.363 334.148L186.883 319.516L213.342 304.332L244.348 288.855L279.11 273.296L317.215 257.843L357.944 242.69L395.587 229.828" stroke="#474747" stroke-width="0.5" stroke-linecap="round" stroke-linejoin="round"/>
<path d="M550.107 344.455L551.076 348.359L551.346 349.365" stroke="#474747" stroke-width="0.5" stroke-linecap="round" stroke-linejoin="round"/>
<path d="M624.833 170.484L627.876 167.741" stroke="#474747" stroke-width="0.5" stroke-linecap="round" stroke-linejoin="round"/>
<path d="M494.691 363.777L492.112 360.768L491.348 359.354" stroke="#474747" stroke-width="0.5" stroke-linecap="round" stroke-linejoin="round"/>
<path d="M580.441 335.943L580.896 339.367L580.889 341.065" stroke="#474747" stroke-width="0.5" stroke-linecap="round" stroke-linejoin="round"/>
<path d="M430.793 167.281L433.572 169.311L440.682 169.95L464.086 147.105L491.563 132.265L523.099 131.138L555.203 139.033L560.589 134.969L561.55 131.936" stroke="#474747" stroke-width="0.5" stroke-linecap="round" stroke-linejoin="round"/>
<path d="M510.778 330.866L509.532 327.654L499.294 294.627L490.91 259.022L485.112 223.572L482.181 191.055L482.354 163.795L485.559 143.818" stroke="#474747" stroke-width="0.5" stroke-linecap="round" stroke-linejoin="round"/>
<path d="M458.804 145.821L460.374 146.788L491.559 132.265L520.974 126.387" stroke="#474747" stroke-width="0.5" stroke-linecap="round" stroke-linejoin="round"/>
<path d="M525.929 129.068L526.589 127.504" stroke="#474747" stroke-width="0.5" stroke-linecap="round" stroke-linejoin="round"/>
<path d="M521.495 357.058L520.75 355.715L519.465 352.359" stroke="#474747" stroke-width="0.5" stroke-linecap="round" stroke-linejoin="round"/>
<path d="M607.779 328.078L607.819 329.378L606.989 333.763" stroke="#474747" stroke-width="0.5" stroke-linecap="round" stroke-linejoin="round"/>
<path d="M556.57 369.706L556.787 370.804L560.244 385.142L561.277 390.724" stroke="#474747" stroke-width="0.5" stroke-linecap="round" stroke-linejoin="round"/>
<path d="M580.874 362.885L580.884 363.499L577.133 379.999" stroke="#474747" stroke-width="0.5" stroke-linecap="round" stroke-linejoin="round"/>
<path d="M479.941 367.42L473.535 368.829L459.623 371.862L453.792 373.116L418.249 380.867L359.474 391.682L305.022 399.642L256.194 404.709L213.818 406.812L178.763 406.029L151.375 402.498L132.018 396.43L120.515 388.025L116.747 377.703L120.393 365.702L130.968 352.23L147.882 337.676L170.672 322.318L198.708 306.403L231.272 290.123L267.847 273.847L307.764 257.678L350.397 241.86L395.261 226.601L396.392 226.221" stroke="#474747" stroke-width="0.5" stroke-linecap="round" stroke-linejoin="round"/>
<path d="M426.526 349.047L415.564 335.178L413.94 333.147L409.641 327.746" stroke="#474747" stroke-width="0.5" stroke-linecap="round" stroke-linejoin="round"/>
<path d="M624.811 350.497L624.246 351.265L619.236 357.31L614.211 362.434L606.226 367.734L604.955 368.46L592.41 374.289L577.134 380.001L569.901 388.106L561.275 390.726L552.514 392.842L543.08 389.279L532.229 376.692L531.931 376.155" stroke="#474747" stroke-width="0.5" stroke-linecap="round" stroke-linejoin="round"/>
<path d="M623.75 350.859L623.678 350.878L616.217 352.954L601.818 357.044L587.111 361.139L580.873 362.887L556.567 369.708L546.823 372.473L531.929 376.156L524.267 378.055L510.327 381.558L494.858 385.395L486.619 387.448L484.874 387.839L469.477 391.656" stroke="#474747" stroke-width="0.5" stroke-linecap="round" stroke-linejoin="round"/>
<path d="M621.258 166.045L621.69 165.93L632.398 163.6L678.599 154.767L722.983 147.5L765.028 141.861L804.107 138.097L839.552 136.309L870.769 136.578L897.071 138.936L917.741 143.573L932.216 150.41L939.81 159.476L940.073 170.815L932.568 184.236L917.04 199.651L893.322 216.723L861.591 235.247L822.272 254.802L775.956 274.998L723.644 295.259L666.377 315.152L644.834 321.927L639.928 323.473L627.188 327.426L606.993 333.763L605.626 334.129" stroke="#474747" stroke-width="0.5" stroke-linecap="round" stroke-linejoin="round"/>
<path d="M623.816 298.727L631.106 301.476L631.197 301.529" stroke="#474747" stroke-width="0.5" stroke-linecap="round" stroke-linejoin="round"/>
<path d="M396.369 266.7L398.585 247.065L398.823 245.074L399.787 236.876L400.418 231.464L408.6 209.922L413.08 198.161L433.566 169.313L460.371 146.789L464.079 147.106L469.815 146.649L491.556 132.266L511.366 136.286L518.131 133.626L523.092 131.14L525.929 129.069L560.583 134.971L592.872 149.6L602.998 157.756L620.575 171.857L624.198 176.745L626.951 180.402L629.261 183.56L641.772 200.328" stroke="#474747" stroke-width="0.5" stroke-linecap="round" stroke-linejoin="round"/>
<path d="M585.593 315.753L578.06 317.848L545.502 326.958L538.688 328.861L512.607 335.386L491.508 340.654" stroke="#474747" stroke-width="0.5" stroke-linecap="round" stroke-linejoin="round"/>
<path d="M601.24 330.138L580.439 335.943L550.111 344.455L542.002 346.705L519.465 352.358L491.35 359.352L482.465 361.578" stroke="#474747" stroke-width="0.5" stroke-linecap="round" stroke-linejoin="round"/>
</svg>
