<svg width="742" height="542" viewBox="0 0 742 542" fill="none" xmlns="http://www.w3.org/2000/svg">
<path d="M536.398 160.249L536.598 117.249L570.898 93.5491L588.098 84.1492L604.998 80.4492L621.698 79.5491L638.198 78.0491L654.398 75.6492L670.398 72.4492L686.098 72.9492L701.498 73.3491L718.298 81.3491" stroke="#474747" stroke-width="0.5" stroke-linecap="round" stroke-linejoin="round"/>
<path d="M536.398 160.25L569.298 169.35L603.098 160.95L622.798 155.35L638.398 148.05L650.398 139.45L662.698 131.25L675.398 123.45L688.698 116.05L692.598 88.75" stroke="#474747" stroke-width="0.5" stroke-linecap="round" stroke-linejoin="round"/>
<path d="M486.199 19.5488L514.099 23.3489L530.399 20.449L545.199 29.949L560.199 38.3489L575.399 45.8489L591.399 46.949L607.199 38.5488L622.899 27.1489L648.999 21.749L660.999 32.949" stroke="#474747" stroke-width="0.5" stroke-linecap="round" stroke-linejoin="round"/>
<path d="M545.999 353.85L539.699 326.65L537.999 307.05L539.399 285.95L545.699 262.55L551.799 239.15L554.899 216.95L549.099 198.15L542.899 179.35L536.399 160.25L517.299 154.25L504.799 145.95L494.199 137.05L483.299 128.45L471.899 120.35L469.199 92.7505L492.199 76.1504L509.199 64.1504L525.999 51.8503L542.699 42.6504L558.099 49.2505L573.699 54.9504L590.099 56.6504L606.299 58.0503L622.099 62.6504L624.599 63.2505L638.199 66.3503L654.099 66.8503H669.899L685.399 66.0503L701.499 73.3503L718.899 66.1504" stroke="#474747" stroke-width="0.5" stroke-linecap="round" stroke-linejoin="round"/>
<path d="M470.5 26.1504H497.7L512.5 30.9504L527.5 35.4504L542.7 42.6504L559.1 44.4504L575.4 45.8503L590.7 52.4504L606.7 53.5503L622.5 50.4504L638.2 38.3503L661 32.9504L673.5 43.8503" stroke="#474747" stroke-width="0.5" stroke-linecap="round" stroke-linejoin="round"/>
<path d="M741 70.9492L733.9 96.5491L717.7 102.749L702.8 109.149L688.7 116.049L683.1 134.749L680.7 154.549L684.9 177.049L686.9 198.349L687.7 219.049L689.4 240.049L679.9 249.749L660.6 255.149L638.6 259.449L625.8 268.249L613.8 277.749L598.5 285.749L569.3 296.949L539.4 285.949L525.3 277.349L514.7 267.549L512.7 247.949L517.4 225.349L514.4 205.749L502.5 197.049L484.5 190.949L464.8 185.749L450.7 178.449L436.3 171.449L430 153.249L429.1 132.749L430.2 111.349L434.6 75.8491L462.2 63.7493L477.2 72.7493L492.2 76.1492L507.5 78.6492L522.9 80.4492L538.7 81.5491L554.6 83.4492L570.9 93.5491L603.1 118.249V160.949L596.9 179.849L591.1 198.549L585.6 217.149L570.1 222.549L554.9 216.949L534.9 211.149L529.5 192.349L510.6 186.249L500.6 176.949L488.4 168.649L487.3 148.149L483.3 128.449L481.9 97.2493L507.5 78.6492L524.5 66.9492L540 68.8491L555.8 70.2493L571.8 76.6492L588.1 84.1492L622 110.049L622.8 155.349L616.8 174.249L611.2 193.049L591.1 198.549L569.8 204.749L549.1 198.149L529.5 192.349L523.6 173.349L517.3 154.249L518.8 108.949L554.6 83.4492L571.8 76.6492L588.8 70.5491L605.5 68.5491L622 66.8491L638.2 66.3491L654.4 75.6492L678.2 93.4492L675.4 123.449L670.1 142.349L657.8 150.449L645.9 158.949L634.3 167.749L616.8 174.249L596.9 179.849L569.6 187.149L542.9 179.349L523.6 173.349L508.1 166.049L504.8 145.949L506.6 105.249L538.7 81.5491L555.8 70.2493L572.8 64.0491L588.8 70.5491L605 80.4492L636.9 105.449L638.4 148.049L634.3 167.749L630.9 187.549L626.9 206.749L622.6 225.649L623.4 246.649L625.8 268.249L626.9 289.149L616.3 299.349L604.8 309.349L569.2 318.849L538 307.049L527.8 296.749L517.4 286.749L514.7 267.549L503.5 258.249L501.1 238.949L499 219.249L502.5 197.049L500.6 176.949L497.8 156.949L494.2 137.049L494.3 101.349L522.9 80.4492L540 68.8491L556.9 57.7493L573.7 54.9492L589.5 59.9492L605.5 68.5491L621.7 79.5491L650.5 101.749L650.4 139.449L645.9 158.949L642.2 178.449L630.9 187.549L611.2 193.049L606 211.749L601.4 230.549L607.5 254.049L613.8 277.749L616.3 299.349L618 320.449L604.8 329.849L569.4 336.949L539.7 326.649L529.4 316.249L519.2 306.049L517.4 286.749L504.8 277.849L489.2 270.549L478.5 261.449L467 252.749L454.7 244.649L452.2 225.849L436.9 219.149L432.3 201.049L427 182.949L421.1 164.849L416.5 146.049L411.5 127.249L412.2 106.049L418.7 68.5491L447.4 51.8491L464.4 45.0491L481.2 38.2493L497.7 26.1492L514.1 23.3491L528.9 28.7493L543.9 36.9492L559.1 44.4492L574.5 50.9492L590.1 56.6492L605.9 61.4492L622 66.8491L638.2 78.0491L664.3 97.7493L662.7 131.249L657.8 150.449L653.6 169.649L650.3 189.049L639.2 198.049L637.2 217.849L640.1 239.849L638.6 259.449L637.5 279.249L639.7 300.249L640.2 327.149L627.6 340.649L615.1 354.649L597.6 360.449L569.6 361.149L546 353.849L532.7 342.149L521.1 328.249L505.7 320.849L492.6 310.149L480.1 299.049L467.1 289.149L453.5 280.649L439.1 273.749L437.4 258.349L440.6 237.449L436.9 219.149L422.5 213.049L419.9 193.449L416 173.549L410.9 153.649L404.8 133.449L398 113.149L400.6 92.7493L405.8 65.4492L426.9 54.6492L442 45.7493L455.3 34.0491L470.5 26.1492L486.2 19.5491L502 13.5491L530.4 20.4492L546.4 16.6492L562.2 11.9492L577 13.8491L592 26.3491L607.2 38.5491L622.5 50.4492L638 59.5491L653.8 63.7493L669.9 66.8491L679.7 70.5491L686.1 72.9492L706.5 84.2493L718.3 81.3491L741 70.9492Z" stroke="#474747" stroke-width="0.5" stroke-linecap="round" stroke-linejoin="round"/>
<path d="M455.301 34.0496L481.201 38.2498L495.901 43.6497L512.501 30.9497L528.901 28.7498L545.201 29.9497L561.201 23.5496L577.001 13.8496L592.701 6.84961L607.701 15.5496L622.901 27.1497L638.201 38.3496L653.701 48.8496L669.401 58.6497L686.601 54.2498L700.401 63.9497" stroke="#474747" stroke-width="0.5" stroke-linecap="round" stroke-linejoin="round"/>
<path d="M532.701 342.15L529.401 316.25L527.801 296.75L525.301 277.35L529.101 255.25L535.001 232.05L534.901 211.15" stroke="#474747" stroke-width="0.5" stroke-linecap="round" stroke-linejoin="round"/>
<path d="M520.699 13.25L546.399 16.6499L561.199 23.5498L576.199 36.6499" stroke="#474747" stroke-width="0.5" stroke-linecap="round" stroke-linejoin="round"/>
<path d="M706.502 84.25L702.802 109.15L698.702 128.45L683.102 134.75L670.102 142.35L665.502 161.35L665.102 181.85L670.402 204.75L675.802 227.65L679.902 249.75L681.202 270.55L680.702 290.35L676.402 321.05" stroke="#474747" stroke-width="0.5" stroke-linecap="round" stroke-linejoin="round"/>
<path d="M569.599 361.15L569.399 336.95L569.199 318.85L569.299 296.95L569.599 272.05L569.799 247.25L570.099 222.55L569.799 204.75L569.599 187.15L569.299 169.35L569.199 133.25" stroke="#474747" stroke-width="0.5" stroke-linecap="round" stroke-linejoin="round"/>
<path d="M505.699 320.85L505.199 297.75" stroke="#474747" stroke-width="0.5" stroke-linecap="round" stroke-linejoin="round"/>
<path d="M442 45.749L464.4 45.0488L479.2 56.1489L494.1 60.6489L509.2 64.1489L524.5 66.949L541.4 54.749L556.9 57.749L572.8 64.0488L589.5 59.949L605.9 61.449L622.1 62.6489L638.1 63.449L648.2 65.5488L654.1 66.8489L670.4 72.449L670.6 72.6489L692.6 88.749" stroke="#474747" stroke-width="0.5" stroke-linecap="round" stroke-linejoin="round"/>
<path d="M521.101 328.25L519.201 306.05L505.201 297.75L504.801 277.85L503.501 258.25L491.601 249.45L487.901 230.75L475.301 222.55L470.201 204.25L464.801 185.75L468.201 163.65L470.801 141.75L471.901 120.35" stroke="#474747" stroke-width="0.5" stroke-linecap="round" stroke-linejoin="round"/>
<path d="M733.902 96.5488L725.902 116.949L711.702 121.149L706.402 139.649L697.402 148.649L680.702 154.549L665.502 161.349L653.602 169.649L642.202 178.449L639.202 198.049L626.902 206.749L606.002 211.749L585.602 217.149" stroke="#474747" stroke-width="0.5" stroke-linecap="round" stroke-linejoin="round"/>
<path d="M450.898 265.85L454.698 244.65" stroke="#474747" stroke-width="0.5" stroke-linecap="round" stroke-linejoin="round"/>
<path d="M725.901 116.949L718.601 137.149L712.501 157.249L704.801 159.449L696.001 168.549L684.901 177.049L665.101 181.849L650.301 189.049" stroke="#474747" stroke-width="0.5" stroke-linecap="round" stroke-linejoin="round"/>
<path d="M718.301 81.3491L717.701 102.749L711.701 121.149L698.701 128.449L697.401 148.649L696.001 168.549L695.801 188.849L696.801 209.549L687.701 219.049L675.801 227.649L657.701 233.449L640.101 239.849L623.401 246.649L607.501 254.049L592.301 262.049L569.601 272.049L545.701 262.549L529.101 255.249L512.701 247.949L501.101 238.949L487.901 230.749L483.001 212.249L470.201 204.249L456.601 196.649L450.701 178.449L447.801 158.849L450.001 137.149L451.401 115.649L454.201 86.3491L477.201 72.7493L494.101 60.6492L510.901 48.1492L527.501 35.4492L543.901 36.9492L560.201 38.3491L576.201 36.6492L591.401 46.9492L606.701 53.5491L622.301 59.0491L634.001 62.3491L638.101 63.4492L653.801 63.7493L669.401 58.6492L685.401 66.0491L700.401 63.9492L718.901 66.1492L741.001 70.9492" stroke="#474747" stroke-width="0.5" stroke-linecap="round" stroke-linejoin="round"/>
<path d="M483 212.25L484.5 190.95L488.4 168.65" stroke="#474747" stroke-width="0.5" stroke-linecap="round" stroke-linejoin="round"/>
<path d="M650.301 189.049L651.801 210.349L657.701 233.449L660.601 255.149L659.301 274.749L658.801 294.649L656.601 320.949" stroke="#474747" stroke-width="0.5" stroke-linecap="round" stroke-linejoin="round"/>
<path d="M585.602 217.15L586.102 238.35L592.302 262.05L598.502 285.75L604.802 309.35V329.85L597.602 360.45" stroke="#474747" stroke-width="0.5" stroke-linecap="round" stroke-linejoin="round"/>
<path d="M534.898 211.15L514.398 205.75" stroke="#474747" stroke-width="0.5" stroke-linecap="round" stroke-linejoin="round"/>
<path d="M471.902 120.35L451.402 115.65L430.202 111.35L412.202 106.05L400.602 92.75" stroke="#474747" stroke-width="0.5" stroke-linecap="round" stroke-linejoin="round"/>
<path d="M488.401 168.649L468.201 163.649L447.801 158.849L430.001 153.249L416.501 146.049L404.801 133.449" stroke="#474747" stroke-width="0.5" stroke-linecap="round" stroke-linejoin="round"/>
<path d="M426.898 54.6497L447.398 51.8496L462.198 63.7498" stroke="#474747" stroke-width="0.5" stroke-linecap="round" stroke-linejoin="round"/>
<path d="M712.502 157.25L708.102 177.25L709.802 197.05L705.902 200.25L708.302 221.25L711.602 242.55L715.602 264.15L705.202 273.25L695.002 282.65L680.702 290.35L658.802 294.65L639.702 300.25L628.802 310.25L618.002 320.45L615.102 354.65" stroke="#474747" stroke-width="0.5" stroke-linecap="round" stroke-linejoin="round"/>
<path d="M709.801 197.049L714.101 216.749L719.701 236.349L726.101 255.749L731.601 278.249" stroke="#474747" stroke-width="0.5" stroke-linecap="round" stroke-linejoin="round"/>
<path d="M505.198 297.75L486.098 291.85L474.998 282.75L478.498 261.45L479.698 240.85L475.298 222.55L461.898 214.85L456.598 196.65L442.198 189.55L436.298 171.45L421.098 164.85L410.898 153.65" stroke="#474747" stroke-width="0.5" stroke-linecap="round" stroke-linejoin="round"/>
<path d="M514.4 205.75L510.6 186.25L508.1 166.05L497.8 156.95L487.3 148.15L470.8 141.75L450 137.15L429.1 132.75L411.5 127.25L398 113.15" stroke="#474747" stroke-width="0.5" stroke-linecap="round" stroke-linejoin="round"/>
<path d="M706.4 139.65L704.8 159.45L704.6 179.55L695.8 188.85L686.9 198.35L670.4 204.75L651.8 210.35L637.2 217.85L622.6 225.65L601.4 230.55L586.1 238.35L569.8 247.25L551.8 239.15L535 232.05L517.4 225.35L499 219.25L483 212.25" stroke="#474747" stroke-width="0.5" stroke-linecap="round" stroke-linejoin="round"/>
<path d="M731.598 278.25L717.398 291.55" stroke="#474747" stroke-width="0.5" stroke-linecap="round" stroke-linejoin="round"/>
<path d="M492.602 310.149L486.102 291.849L489.202 270.549L491.602 249.449" stroke="#474747" stroke-width="0.5" stroke-linecap="round" stroke-linejoin="round"/>
<path d="M576.199 36.6497L591.999 26.3496L607.699 15.5496L637.299 10.3496L648.999 21.7498" stroke="#474747" stroke-width="0.5" stroke-linecap="round" stroke-linejoin="round"/>
<path d="M502 13.5491L520.7 13.2493L539 12.3491L562.2 11.9492L577.8 6.34912L592.7 6.84912L623 3.44922L637.3 10.3491" stroke="#474747" stroke-width="0.5" stroke-linecap="round" stroke-linejoin="round"/>
<path d="M462.199 63.7505L479.199 56.1504L495.899 43.6504L510.899 48.1504L525.999 51.8503L541.399 54.7505L558.099 49.2505L574.499 50.9504L590.699 52.4504L606.299 58.0503L622.299 59.0503L637.999 59.5503L653.699 48.8503L673.499 43.8503L686.599 54.2505" stroke="#474747" stroke-width="0.5" stroke-linecap="round" stroke-linejoin="round"/>
<path d="M425 269.349L423.4 251.749L425.2 232.549L422.5 213.049" stroke="#474747" stroke-width="0.5" stroke-linecap="round" stroke-linejoin="round"/>
<path d="M480.098 299.05L474.998 282.75L463.298 274.05L450.898 265.85" stroke="#474747" stroke-width="0.5" stroke-linecap="round" stroke-linejoin="round"/>
<path d="M539 12.3496L554.4 6.84961L577.8 6.34961L605.5 2.34961L623 3.44971" stroke="#474747" stroke-width="0.5" stroke-linecap="round" stroke-linejoin="round"/>
<path d="M466.498 233.049L452.198 225.849L447.598 207.649L432.298 201.049L419.898 193.449" stroke="#474747" stroke-width="0.5" stroke-linecap="round" stroke-linejoin="round"/>
<path d="M454.699 244.649L440.599 237.449L425.199 232.549" stroke="#474747" stroke-width="0.5" stroke-linecap="round" stroke-linejoin="round"/>
<path d="M467.101 289.149L463.301 274.049L467.001 252.749L466.501 233.049" stroke="#474747" stroke-width="0.5" stroke-linecap="round" stroke-linejoin="round"/>
<path d="M453.498 280.65L450.898 265.85L437.398 258.35L423.398 251.75" stroke="#474747" stroke-width="0.5" stroke-linecap="round" stroke-linejoin="round"/>
<path d="M439.1 273.75L425 269.35" stroke="#474747" stroke-width="0.5" stroke-linecap="round" stroke-linejoin="round"/>
<path d="M491.6 249.449L479.7 240.849L466.5 233.049L461.9 214.849L447.6 207.649L442.2 189.549L427 182.949L416 173.549" stroke="#474747" stroke-width="0.5" stroke-linecap="round" stroke-linejoin="round"/>
<path d="M726.101 255.75L715.601 264.15L717.401 291.55L705.301 303.65" stroke="#474747" stroke-width="0.5" stroke-linecap="round" stroke-linejoin="round"/>
<path d="M405.801 65.4492L418.701 68.5491L434.601 75.8491L454.201 86.3491L469.201 92.7493L481.901 97.2493L494.301 101.349L506.601 105.249L518.801 108.949L536.601 117.249L569.201 133.249L603.101 118.249L622.001 110.049L636.901 105.449L650.501 101.749L664.301 97.7493L678.201 93.4492L692.601 88.7493L706.501 84.2493" stroke="#474747" stroke-width="0.5" stroke-linecap="round" stroke-linejoin="round"/>
<path d="M706.398 139.65L718.598 137.15" stroke="#474747" stroke-width="0.5" stroke-linecap="round" stroke-linejoin="round"/>
<path d="M719.699 236.35L711.599 242.55L701.699 251.75L705.199 273.25L705.299 303.65L693.299 316.45L676.399 321.05L656.599 320.95L640.199 327.15" stroke="#474747" stroke-width="0.5" stroke-linecap="round" stroke-linejoin="round"/>
<path d="M714.098 216.75L708.298 221.25L698.798 230.55L689.398 240.05L691.898 261.25L694.998 282.65L693.298 316.45" stroke="#474747" stroke-width="0.5" stroke-linecap="round" stroke-linejoin="round"/>
<path d="M708.098 177.25L704.598 179.55L705.898 200.25L696.798 209.55L698.798 230.55L701.698 251.75L691.898 261.25L681.198 270.55L659.298 274.75L637.498 279.25L626.898 289.15L628.798 310.25L627.598 340.65" stroke="#474747" stroke-width="0.5" stroke-linecap="round" stroke-linejoin="round"/>
<path d="M554.398 6.84961L559.198 5.74976L578.998 0.849609L605.498 2.34961" stroke="#474747" stroke-width="0.5" stroke-linecap="round" stroke-linejoin="round"/>
<path d="M139.398 340.4L139.598 297.4L173.898 273.699L191.098 264.3L207.998 260.6L224.698 259.699L241.198 258.199L257.398 255.8L273.398 252.6L289.098 253.1L304.498 253.5L321.298 261.5" stroke="#474747" stroke-width="0.5" stroke-linecap="round" stroke-linejoin="round"/>
<path d="M139.398 340.4L172.298 349.5L206.098 341.1L225.798 335.5L241.398 328.2L253.398 319.6L265.698 311.4L278.398 303.6L291.698 296.2L295.598 268.9" stroke="#474747" stroke-width="0.5" stroke-linecap="round" stroke-linejoin="round"/>
<path d="M89.1992 199.699L117.099 203.499L133.399 200.599L148.199 210.099L163.199 218.499L178.399 225.999L194.399 227.099L210.199 218.699L225.899 207.299L251.999 201.899L263.999 213.099" stroke="#474747" stroke-width="0.5" stroke-linecap="round" stroke-linejoin="round"/>
<path d="M148.999 534.001L142.699 506.801L140.999 487.201L142.399 466.101L148.699 442.701L154.799 419.301L157.899 397.101L152.099 378.301L145.899 359.501L139.399 340.401L120.299 334.401L107.799 326.101L97.1992 317.201L86.2992 308.601L74.8993 300.501L72.1992 272.901L95.1992 256.301L112.199 244.301L128.999 232.001L145.699 222.801L161.099 229.401L176.699 235.101L193.099 236.801L209.299 238.201L225.099 242.801L227.599 243.401L241.199 246.501L257.099 247.001H272.899L288.399 246.201L304.499 253.501L321.899 246.301" stroke="#474747" stroke-width="0.5" stroke-linecap="round" stroke-linejoin="round"/>
<path d="M73.5 206.301H100.7L115.5 211.101L130.5 215.601L145.7 222.801L162.1 224.601L178.4 226.001L193.7 232.601L209.7 233.701L225.5 230.601L241.2 218.501L264 213.101L276.5 224.001" stroke="#474747" stroke-width="0.5" stroke-linecap="round" stroke-linejoin="round"/>
<path d="M344 251.1L336.9 276.699L320.7 282.9L305.8 289.3L291.7 296.199L286.1 314.9L283.7 334.699L287.9 357.199L289.9 378.5L290.7 399.199L292.4 420.199L282.9 429.9L263.6 435.3L241.6 439.6L228.8 448.4L216.8 457.9L201.5 465.9L172.3 477.1L142.4 466.1L128.3 457.5L117.7 447.699L115.7 428.1L120.4 405.5L117.4 385.9L105.5 377.199L87.5 371.1L67.7999 365.9L53.7 358.6L39.2999 351.6L33 333.4L32.1 312.9L33.2 291.5L37.6 256L65.2 243.9L80.2 252.9L95.2 256.3L110.5 258.8L125.9 260.6L141.7 261.699L157.6 263.6L173.9 273.699L206.1 298.4V341.1L199.9 360L194.1 378.699L188.6 397.3L173.1 402.699L157.9 397.1L137.9 391.3L132.5 372.5L113.6 366.4L103.6 357.1L91.4 348.8L90.2999 328.3L86.2999 308.6L84.9 277.4L110.5 258.8L127.5 247.1L143 249L158.8 250.4L174.8 256.8L191.1 264.3L225 290.199L225.8 335.5L219.8 354.4L214.2 373.199L194.1 378.699L172.8 384.9L152.1 378.3L132.5 372.5L126.6 353.5L120.3 334.4L121.8 289.1L157.6 263.6L174.8 256.8L191.8 250.699L208.5 248.699L225 247L241.2 246.5L257.4 255.8L281.2 273.6L278.4 303.6L273.1 322.5L260.8 330.6L248.9 339.1L237.3 347.9L219.8 354.4L199.9 360L172.6 367.3L145.9 359.5L126.6 353.5L111.1 346.199L107.8 326.1L109.6 285.4L141.7 261.699L158.8 250.4L175.8 244.199L191.8 250.699L208 260.6L239.9 285.6L241.4 328.199L237.3 347.9L233.9 367.699L229.9 386.9L225.6 405.8L226.4 426.8L228.8 448.4L229.9 469.3L219.3 479.5L207.8 489.5L172.2 499L141 487.199L130.8 476.9L120.4 466.9L117.7 447.699L106.5 438.4L104.1 419.1L102 399.4L105.5 377.199L103.6 357.1L100.8 337.1L97.2 317.199L97.2999 281.5L125.9 260.6L143 249L159.9 237.9L176.7 235.1L192.5 240.1L208.5 248.699L224.7 259.699L253.5 281.9L253.4 319.6L248.9 339.1L245.2 358.6L233.9 367.699L214.2 373.199L209 391.9L204.4 410.699L210.5 434.199L216.8 457.9L219.3 479.5L221 500.6L207.8 510L172.4 517.1L142.7 506.8L132.4 496.4L122.2 486.199L120.4 466.9L107.8 458L92.2 450.699L81.5 441.6L70 432.9L57.7 424.8L55.2 406L39.9 399.3L35.2999 381.199L30 363.1L24.1 345L19.5 326.199L14.5 307.4L15.2 286.199L21.7 248.699L50.4 232L67.4 225.199L84.2 218.4L100.7 206.3L117.1 203.5L131.9 208.9L146.9 217.1L162.1 224.6L177.5 231.1L193.1 236.8L208.9 241.6L225 247L241.2 258.199L267.3 277.9L265.7 311.4L260.8 330.6L256.6 349.8L253.3 369.199L242.2 378.199L240.2 398L243.1 420L241.6 439.6L240.5 459.4L242.7 480.4L243.2 507.3L230.6 520.8L218.1 534.8L200.6 540.6L172.6 541.3L149 534L135.7 522.3L124.1 508.4L108.7 501L95.6 490.3L83.1 479.199L70.1 469.3L56.5 460.8L42.1 453.9L40.4 438.5L43.6 417.6L39.9 399.3L25.5 393.199L22.9 373.6L19 353.699L13.9 333.8L7.79993 313.6L1 293.3L3.59998 272.9L8.79993 245.6L29.9 234.8L45 225.9L58.2999 214.199L73.5 206.3L89.2 199.699L105 193.699L133.4 200.6L149.4 196.8L165.2 192.1L180 194L195 206.5L210.2 218.699L225.5 230.6L241 239.699L256.8 243.9L272.9 247L282.7 250.699L289.1 253.1L309.5 264.4L321.3 261.5L344 251.1Z" stroke="#474747" stroke-width="0.5" stroke-linecap="round" stroke-linejoin="round"/>
<path d="M58.3008 214.2L84.2008 218.4L98.9009 223.8L115.501 211.1L131.901 208.9L148.201 210.1L164.201 203.7L180.001 194L195.701 187L210.701 195.7L225.901 207.3L241.201 218.5L256.701 229L272.401 238.8L289.601 234.4L303.401 244.1" stroke="#474747" stroke-width="0.5" stroke-linecap="round" stroke-linejoin="round"/>
<path d="M135.701 522.301L132.401 496.401L130.801 476.901L128.301 457.501L132.101 435.401L138.001 412.201L137.901 391.301" stroke="#474747" stroke-width="0.5" stroke-linecap="round" stroke-linejoin="round"/>
<path d="M123.699 193.4L149.399 196.8L164.199 203.7L179.199 216.8" stroke="#474747" stroke-width="0.5" stroke-linecap="round" stroke-linejoin="round"/>
<path d="M309.502 264.4L305.802 289.3L301.702 308.6L286.102 314.9L273.102 322.5L268.502 341.5L268.102 362L273.402 384.9L278.802 407.8L282.902 429.9L284.202 450.7L283.702 470.5L279.402 501.2" stroke="#474747" stroke-width="0.5" stroke-linecap="round" stroke-linejoin="round"/>
<path d="M172.599 541.3L172.399 517.1L172.199 499L172.299 477.1L172.599 452.2L172.799 427.4L173.099 402.7L172.799 384.9L172.599 367.3L172.299 349.5L172.199 313.4" stroke="#474747" stroke-width="0.5" stroke-linecap="round" stroke-linejoin="round"/>
<path d="M108.699 501L108.199 477.9" stroke="#474747" stroke-width="0.5" stroke-linecap="round" stroke-linejoin="round"/>
<path d="M45 225.899L67.4 225.199L82.2 236.299L97.1 240.799L112.2 244.299L127.5 247.099L144.4 234.899L159.9 237.899L175.8 244.199L192.5 240.099L208.9 241.599L225.1 242.799L241.1 243.599L251.2 245.699L257.1 246.999L273.4 252.599L273.6 252.799L295.6 268.899" stroke="#474747" stroke-width="0.5" stroke-linecap="round" stroke-linejoin="round"/>
<path d="M124.101 508.4L122.201 486.2L108.201 477.9L107.801 458L106.501 438.4L94.6008 429.6L90.9009 410.9L78.3008 402.7L73.2008 384.4L67.8008 365.9L71.2008 343.8L73.8008 321.9L74.9009 300.5" stroke="#474747" stroke-width="0.5" stroke-linecap="round" stroke-linejoin="round"/>
<path d="M336.902 276.699L328.902 297.099L314.702 301.299L309.402 319.799L300.402 328.799L283.702 334.699L268.502 341.499L256.602 349.799L245.202 358.599L242.202 378.199L229.902 386.899L209.002 391.899L188.602 397.299" stroke="#474747" stroke-width="0.5" stroke-linecap="round" stroke-linejoin="round"/>
<path d="M53.8984 446.001L57.6984 424.801" stroke="#474747" stroke-width="0.5" stroke-linecap="round" stroke-linejoin="round"/>
<path d="M328.901 297.1L321.601 317.3L315.501 337.4L307.801 339.6L299.001 348.699L287.901 357.199L268.101 362L253.301 369.199" stroke="#474747" stroke-width="0.5" stroke-linecap="round" stroke-linejoin="round"/>
<path d="M321.301 261.5L320.701 282.9L314.701 301.3L301.701 308.6L300.401 328.8L299.001 348.699L298.801 369L299.801 389.699L290.701 399.199L278.801 407.8L260.701 413.6L243.101 420L226.401 426.8L210.501 434.199L195.301 442.199L172.601 452.199L148.701 442.699L132.101 435.4L115.701 428.1L104.101 419.1L90.9009 410.9L86.0009 392.4L73.2008 384.4L59.6008 376.8L53.7008 358.6L50.8008 339L53.0009 317.3L54.4009 295.8L57.2008 266.5L80.2008 252.9L97.1008 240.8L113.901 228.3L130.501 215.6L146.901 217.1L163.201 218.5L179.201 216.8L194.401 227.1L209.701 233.699L225.301 239.199L237.001 242.5L241.101 243.6L256.801 243.9L272.401 238.8L288.401 246.199L303.401 244.1L321.901 246.3L344.001 251.1" stroke="#474747" stroke-width="0.5" stroke-linecap="round" stroke-linejoin="round"/>
<path d="M86 392.401L87.5 371.101L91.4 348.801" stroke="#474747" stroke-width="0.5" stroke-linecap="round" stroke-linejoin="round"/>
<path d="M253.301 369.199L254.801 390.499L260.701 413.599L263.601 435.299L262.301 454.899L261.801 474.799L259.601 501.099" stroke="#474747" stroke-width="0.5" stroke-linecap="round" stroke-linejoin="round"/>
<path d="M188.602 397.301L189.102 418.501L195.302 442.201L201.502 465.901L207.802 489.501V510.001L200.602 540.601" stroke="#474747" stroke-width="0.5" stroke-linecap="round" stroke-linejoin="round"/>
<path d="M137.898 391.3L117.398 385.9" stroke="#474747" stroke-width="0.5" stroke-linecap="round" stroke-linejoin="round"/>
<path d="M74.9016 300.5L54.4016 295.8L33.2015 291.5L15.2015 286.2L3.60156 272.9" stroke="#474747" stroke-width="0.5" stroke-linecap="round" stroke-linejoin="round"/>
<path d="M91.4009 348.8L71.2008 343.8L50.8008 339L33.0009 333.4L19.5009 326.199L7.80078 313.6" stroke="#474747" stroke-width="0.5" stroke-linecap="round" stroke-linejoin="round"/>
<path d="M29.8984 234.8L50.3984 232L65.1984 243.9" stroke="#474747" stroke-width="0.5" stroke-linecap="round" stroke-linejoin="round"/>
<path d="M315.502 337.4L311.102 357.4L312.802 377.2L308.902 380.4L311.302 401.4L314.602 422.7L318.602 444.3L308.202 453.4L298.002 462.8L283.702 470.5L261.802 474.8L242.702 480.4L231.802 490.4L221.002 500.6L218.102 534.8" stroke="#474747" stroke-width="0.5" stroke-linecap="round" stroke-linejoin="round"/>
<path d="M312.801 377.199L317.101 396.899L322.701 416.499L329.101 435.899L334.601 458.399" stroke="#474747" stroke-width="0.5" stroke-linecap="round" stroke-linejoin="round"/>
<path d="M108.198 477.901L89.0984 472.001L77.9984 462.901L81.4984 441.601L82.6984 421.001L78.2983 402.701L64.8984 395.001L59.5984 376.801L45.1984 369.701L39.2983 351.601L24.0984 345.001L13.8984 333.801" stroke="#474747" stroke-width="0.5" stroke-linecap="round" stroke-linejoin="round"/>
<path d="M117.4 385.901L113.6 366.401L111.1 346.201L100.8 337.101L90.2999 328.301L73.7999 321.901L53 317.301L32.1 312.901L14.5 307.401L1 293.301" stroke="#474747" stroke-width="0.5" stroke-linecap="round" stroke-linejoin="round"/>
<path d="M309.4 319.801L307.8 339.601L307.6 359.701L298.8 369.001L289.9 378.501L273.4 384.901L254.8 390.501L240.2 398.001L225.6 405.801L204.4 410.701L189.1 418.501L172.8 427.401L154.8 419.301L138 412.201L120.4 405.501L102 399.401L86 392.401" stroke="#474747" stroke-width="0.5" stroke-linecap="round" stroke-linejoin="round"/>
<path d="M334.598 458.4L320.398 471.7" stroke="#474747" stroke-width="0.5" stroke-linecap="round" stroke-linejoin="round"/>
<path d="M95.6016 490.3L89.1016 472L92.2015 450.699L94.6016 429.6" stroke="#474747" stroke-width="0.5" stroke-linecap="round" stroke-linejoin="round"/>
<path d="M179.199 216.8L194.999 206.5L210.699 195.7L240.299 190.5L251.999 201.9" stroke="#474747" stroke-width="0.5" stroke-linecap="round" stroke-linejoin="round"/>
<path d="M105 193.699L123.7 193.4L142 192.5L165.2 192.1L180.8 186.5L195.7 187L226 183.6L240.3 190.5" stroke="#474747" stroke-width="0.5" stroke-linecap="round" stroke-linejoin="round"/>
<path d="M65.1992 243.901L82.1992 236.301L98.8993 223.801L113.899 228.301L128.999 232.001L144.399 234.901L161.099 229.401L177.499 231.101L193.699 232.601L209.299 238.201L225.299 239.201L240.999 239.701L256.699 229.001L276.499 224.001L289.599 234.401" stroke="#474747" stroke-width="0.5" stroke-linecap="round" stroke-linejoin="round"/>
<path d="M28 449.499L26.4 431.899L28.2 412.699L25.5 393.199" stroke="#474747" stroke-width="0.5" stroke-linecap="round" stroke-linejoin="round"/>
<path d="M83.0984 479.2L77.9984 462.9L66.2983 454.2L53.8984 446" stroke="#474747" stroke-width="0.5" stroke-linecap="round" stroke-linejoin="round"/>
<path d="M142 192.5L157.4 187L180.8 186.5L208.5 182.5L226 183.6" stroke="#474747" stroke-width="0.5" stroke-linecap="round" stroke-linejoin="round"/>
<path d="M69.4984 413.199L55.1984 406L50.5984 387.8L35.2983 381.199L22.8984 373.6" stroke="#474747" stroke-width="0.5" stroke-linecap="round" stroke-linejoin="round"/>
<path d="M57.6992 424.799L43.5992 417.599L28.1992 412.699" stroke="#474747" stroke-width="0.5" stroke-linecap="round" stroke-linejoin="round"/>
<path d="M70.1008 469.299L66.3008 454.199L70.0009 432.899L69.5009 413.199" stroke="#474747" stroke-width="0.5" stroke-linecap="round" stroke-linejoin="round"/>
<path d="M56.4984 460.8L53.8984 446L40.3984 438.5L26.3984 431.9" stroke="#474747" stroke-width="0.5" stroke-linecap="round" stroke-linejoin="round"/>
<path d="M42.1 453.9L28 449.5" stroke="#474747" stroke-width="0.5" stroke-linecap="round" stroke-linejoin="round"/>
<path d="M94.6 429.599L82.7 420.999L69.5 413.199L64.9 394.999L50.6 387.799L45.2 369.699L30 363.099L19 353.699" stroke="#474747" stroke-width="0.5" stroke-linecap="round" stroke-linejoin="round"/>
<path d="M329.101 435.9L318.601 444.3L320.401 471.7L308.301 483.8" stroke="#474747" stroke-width="0.5" stroke-linecap="round" stroke-linejoin="round"/>
<path d="M8.80078 245.6L21.7008 248.699L37.6008 256L57.2008 266.5L72.2008 272.9L84.9009 277.4L97.3008 281.5L109.601 285.4L121.801 289.1L139.601 297.4L172.201 313.4L206.101 298.4L225.001 290.199L239.901 285.6L253.501 281.9L267.301 277.9L281.201 273.6L295.601 268.9L309.501 264.4" stroke="#474747" stroke-width="0.5" stroke-linecap="round" stroke-linejoin="round"/>
<path d="M309.398 319.801L321.598 317.301" stroke="#474747" stroke-width="0.5" stroke-linecap="round" stroke-linejoin="round"/>
<path d="M322.699 416.5L314.599 422.7L304.699 431.9L308.199 453.4L308.299 483.8L296.299 496.6L279.399 501.2L259.599 501.1L243.199 507.3" stroke="#474747" stroke-width="0.5" stroke-linecap="round" stroke-linejoin="round"/>
<path d="M317.098 396.9L311.298 401.4L301.798 410.7L292.398 420.2L294.898 441.4L297.998 462.8L296.298 496.6" stroke="#474747" stroke-width="0.5" stroke-linecap="round" stroke-linejoin="round"/>
<path d="M311.098 357.4L307.598 359.7L308.898 380.4L299.798 389.7L301.798 410.7L304.698 431.9L294.898 441.4L284.198 450.7L262.298 454.9L240.498 459.4L229.898 469.3L231.798 490.4L230.598 520.8" stroke="#474747" stroke-width="0.5" stroke-linecap="round" stroke-linejoin="round"/>
<path d="M157.398 187L162.198 185.9L181.998 181L208.498 182.5" stroke="#474747" stroke-width="0.5" stroke-linecap="round" stroke-linejoin="round"/>
</svg>
