<svg width="703" height="580" viewBox="0 0 703 580" fill="none" xmlns="http://www.w3.org/2000/svg">
<path d="M388.609 162.654L440.643 114.108L493.62 64.713L529.818 55.2866L565.544 46.0486L572.331 30.2123L578.741 14.9414" stroke="#474747" stroke-width="0.5" stroke-linecap="round" stroke-linejoin="round"/>
<path d="M677.062 85.2617L689.6 141.632L699.875 164.915" stroke="#474747" stroke-width="0.5" stroke-linecap="round" stroke-linejoin="round"/>
<path d="M389.371 130.697L428.396 94.2163L467.893 57.0763L520.399 43.5964L572.338 30.2109" stroke="#474747" stroke-width="0.5" stroke-linecap="round" stroke-linejoin="round"/>
<path d="M572.34 30.2109L605.709 70.3675L639.739 111.278" stroke="#474747" stroke-width="0.5" stroke-linecap="round" stroke-linejoin="round"/>
<path d="M639.741 111.279L608.54 151.436L576.584 192.629L535.014 229.958L494.103 266.721L462.147 283.217L428.746 301.175" stroke="#474747" stroke-width="0.5" stroke-linecap="round" stroke-linejoin="round"/>
<path d="M429.246 231.089L441.312 181.977L467.518 157.94L493.912 133.62L493.817 98.8359" stroke="#474747" stroke-width="0.5" stroke-linecap="round" stroke-linejoin="round"/>
<path d="M607.301 25.4043L639.445 63.6757L672.155 102.607L666.971 120.423L626.625 173.211L584.772 227.79L556.587 252.958L528.685 277.844L494.09 266.721L459.589 255.598L450.445 218.929L441.302 181.977L414.625 172.174L388.608 162.653L377.579 155.678L367.398 149.173" stroke="#474747" stroke-width="0.5" stroke-linecap="round" stroke-linejoin="round"/>
<path d="M438.293 267.099L450.453 218.93" stroke="#474747" stroke-width="0.5" stroke-linecap="round" stroke-linejoin="round"/>
<path d="M590.246 312.344L542.171 300.561L528.691 277.844" stroke="#474747" stroke-width="0.5" stroke-linecap="round" stroke-linejoin="round"/>
<path d="M568.282 157.186L531.048 145.403L493.813 98.8365L493.625 64.7129" stroke="#474747" stroke-width="0.5" stroke-linecap="round" stroke-linejoin="round"/>
<path d="M493.91 133.619L531.05 145.402" stroke="#474747" stroke-width="0.5" stroke-linecap="round" stroke-linejoin="round"/>
<path d="M493.816 98.8359L530.58 110.43" stroke="#474747" stroke-width="0.5" stroke-linecap="round" stroke-linejoin="round"/>
<path d="M565.551 46.0488L588.551 73.8568L611.835 101.948L639.737 111.28L666.979 120.423" stroke="#474747" stroke-width="0.5" stroke-linecap="round" stroke-linejoin="round"/>
<path d="M375.512 221.851L370.328 217.327L365.332 212.896L366.369 180.752" stroke="#474747" stroke-width="0.5" stroke-linecap="round" stroke-linejoin="round"/>
<path d="M611.833 101.947L590.247 129.378L568.283 157.186L513.421 206.863L459.596 255.598L438.292 267.098L417.648 278.222" stroke="#474747" stroke-width="0.5" stroke-linecap="round" stroke-linejoin="round"/>
<path d="M664.148 276.146L644.824 302.635L622.201 312.627L606.741 312.438L590.245 312.344L577.708 290.192L528.69 277.843L485.612 299.147L445.172 319.225" stroke="#474747" stroke-width="0.5" stroke-linecap="round" stroke-linejoin="round"/>
<path d="M569.692 331.387L538.774 340.53L526.52 341.002" stroke="#474747" stroke-width="0.5" stroke-linecap="round" stroke-linejoin="round"/>
<path d="M687.718 109.488L689.603 141.632L682.439 148.985L675.087 156.526L645.394 195.929L614.946 236.274L596.187 263.422L577.711 290.193L542.174 300.562L510.124 315.739L479.488 330.35" stroke="#474747" stroke-width="0.5" stroke-linecap="round" stroke-linejoin="round"/>
<path d="M600.331 322.242L569.695 331.386L552.445 331.763L540.097 336.193L526.523 341.001L513.797 341.472" stroke="#474747" stroke-width="0.5" stroke-linecap="round" stroke-linejoin="round"/>
<path d="M431.977 306.03L413.124 280.861L395.402 254.184L392.197 249.754L380.131 234.672L370.045 219.778L365.332 212.896" stroke="#474747" stroke-width="0.5" stroke-linecap="round" stroke-linejoin="round"/>
<path d="M677.064 85.2625L687.716 109.488L699.876 164.916L701.856 197.343L692.43 224.02L683.191 250.037L664.15 276.148L649.728 274.922L634.457 273.603L596.186 263.422L556.595 252.959L535.008 229.958L513.422 206.863L490.515 182.449L467.515 157.94L453.941 135.788L440.65 114.107L428.395 94.2176L416.329 74.6107L408.128 72.2541L400.398 70.0859" stroke="#474747" stroke-width="0.5" stroke-linecap="round" stroke-linejoin="round"/>
<path d="M687.723 109.488L697.997 133.054L699.883 164.916" stroke="#474747" stroke-width="0.5" stroke-linecap="round" stroke-linejoin="round"/>
<path d="M622.202 312.628L600.333 322.243L578.652 322.432L555.275 322.62L542.172 300.562" stroke="#474747" stroke-width="0.5" stroke-linecap="round" stroke-linejoin="round"/>
<path d="M421.52 45.6706L440.844 31.7195L451.967 33.2277L502.116 20.502L551.51 7.96484" stroke="#474747" stroke-width="0.5" stroke-linecap="round" stroke-linejoin="round"/>
<path d="M396.883 256.644L405.386 211.67L414.624 172.174L453.932 135.788L493.806 98.8359" stroke="#474747" stroke-width="0.5" stroke-linecap="round" stroke-linejoin="round"/>
<path d="M442.73 49.7248L451.968 33.2285" stroke="#474747" stroke-width="0.5" stroke-linecap="round" stroke-linejoin="round"/>
<path d="M683.193 250.035L664.529 247.302L644.357 244.474L614.946 236.273L584.781 227.789" stroke="#474747" stroke-width="0.5" stroke-linecap="round" stroke-linejoin="round"/>
<path d="M431.789 47.6501L440.839 31.7194L460.822 17.2969" stroke="#474747" stroke-width="0.5" stroke-linecap="round" stroke-linejoin="round"/>
<path d="M493.066 9.19141L502.116 20.5031L511.354 32.1919L520.403 43.5979L529.83 55.2867L559.805 92.0498L590.253 129.378L608.54 151.436L626.639 173.211L645.398 195.929L663.873 218.175L678.578 221.192L692.436 224.02" stroke="#474747" stroke-width="0.5" stroke-linecap="round" stroke-linejoin="round"/>
<path d="M683 192.346L692.615 194.891L701.853 197.342" stroke="#474747" stroke-width="0.5" stroke-linecap="round" stroke-linejoin="round"/>
<path d="M644.831 302.636L635.028 302.353L624.847 302.071L577.715 290.193" stroke="#474747" stroke-width="0.5" stroke-linecap="round" stroke-linejoin="round"/>
<path d="M438.479 312.439L445.172 319.226L479.484 330.349L513.797 341.473L534.252 332.14M416.021 284.465L429.241 231.089M370.326 217.326L373.908 186.502M373.908 186.502L366.367 180.752L367.404 149.173L373.06 122.308L378.999 94.7828L400.396 70.0854L421.512 45.671L431.787 47.6506M373.908 186.502L382.015 192.629L405.393 211.671L429.241 231.089M373.908 186.502L377.585 155.678L380.978 126.361L384.466 97.045L408.126 72.2536L431.787 47.6506M431.787 47.6506L451.959 33.2281L460.82 17.2974L493.058 9.1907L525.014 1.08398L551.502 7.96521L578.745 14.9408M431.787 47.6506L442.721 49.7244L511.346 32.1912L578.745 14.9408M578.745 14.9408L622.389 67.069M578.745 14.9408L607.307 25.4041L635.115 35.5847L655.947 60.2819M622.389 67.069L666.976 120.423L675.083 156.526L683.001 192.346L663.865 218.175L644.353 244.475L634.455 273.602L624.84 302.07L590.245 312.345L555.273 322.62L534.252 332.14M622.389 67.069L605.704 70.3683L588.548 73.856L559.797 92.0491L530.575 110.431L531.047 145.403L490.513 182.449L450.451 218.929L429.241 231.089M622.389 67.069L639.451 63.6755L655.947 60.2819M534.252 332.14L510.12 315.738L485.612 299.148L462.139 283.217L438.291 267.098L429.241 231.089M534.252 332.14L552.445 331.763L559.326 329.312L578.65 322.431L606.741 312.439L635.021 302.353L649.725 274.922L664.525 247.302L678.57 221.191L692.616 194.891L689.977 183.014L682.435 148.985L672.161 102.607L677.062 85.262L655.947 60.2819" stroke="#474747" stroke-width="0.5" stroke-linecap="round" stroke-linejoin="round"/>
<path d="M389.367 130.698L380.977 126.362L373.059 122.309" stroke="#474747" stroke-width="0.5" stroke-linecap="round" stroke-linejoin="round"/>
<path d="M438.474 312.439L431.969 306.029M374.586 226.062L382.009 192.629L388.608 162.653L389.362 130.698L390.21 99.3076L416.322 74.6104L442.716 49.7246L467.884 57.0773L493.618 64.7127L530.57 110.431L568.275 157.186L576.571 192.629L584.772 227.79" stroke="#474747" stroke-width="0.5" stroke-linecap="round" stroke-linejoin="round"/>
<path d="M379.004 94.7832L384.471 97.0455L390.221 99.3078" stroke="#474747" stroke-width="0.5" stroke-linecap="round" stroke-linejoin="round"/>
<path d="M689.605 141.633L698.749 183.486L701.86 197.343" stroke="#474747" stroke-width="0.5" stroke-linecap="round" stroke-linejoin="round"/>
<path d="M244.633 341.473L244.727 396.146L244.821 451.102" stroke="#474747" stroke-width="0.5" stroke-linecap="round" stroke-linejoin="round"/>
<path d="M204.664 341.473V396.146" stroke="#474747" stroke-width="0.5" stroke-linecap="round" stroke-linejoin="round"/>
<path d="M224.553 314.23L224.648 368.81L204.664 396.146V451.102L224.742 478.628L250.288 481.55L274.797 484.378L298.363 487.017L320.986 489.562" stroke="#474747" stroke-width="0.5" stroke-linecap="round" stroke-linejoin="round"/>
<path d="M26.9766 460.246L27.4479 408.212L27.9192 356.367L28.3905 304.898" stroke="#474747" stroke-width="0.5" stroke-linecap="round" stroke-linejoin="round"/>
<path d="M19.8086 487.393L20.2799 435.736L20.7512 384.174L21.2226 332.988" stroke="#474747" stroke-width="0.5" stroke-linecap="round" stroke-linejoin="round"/>
<path d="M13.3047 462.791L13.776 411.606L14.2473 360.703" stroke="#474747" stroke-width="0.5" stroke-linecap="round" stroke-linejoin="round"/>
<path d="M6.80078 438.659L7.2721 388.039" stroke="#474747" stroke-width="0.5" stroke-linecap="round" stroke-linejoin="round"/>
<path d="M172.419 297.451L172.324 346.657L172.23 396.146L172.136 445.823L172.042 495.783L158.185 507.944L113.126 509.546L69.1992 511.054" stroke="#474747" stroke-width="0.5" stroke-linecap="round" stroke-linejoin="round"/>
<path d="M38.0938 500.874L38.4707 452.988L38.8477 405.29L39.2251 357.781L39.6021 310.555" stroke="#474747" stroke-width="0.5" stroke-linecap="round" stroke-linejoin="round"/>
<path d="M172.05 495.784L126.143 497.48L94.0928 487.111L62.043 476.742" stroke="#474747" stroke-width="0.5" stroke-linecap="round" stroke-linejoin="round"/>
<path d="M139.524 485.227L94.0884 487.112L81.457 499.178" stroke="#474747" stroke-width="0.5" stroke-linecap="round" stroke-linejoin="round"/>
<path d="M63.168 322.431L107.849 318.283" stroke="#474747" stroke-width="0.5" stroke-linecap="round" stroke-linejoin="round"/>
<path d="M140.093 307.82L139.998 351.936L139.809 396.146L139.715 440.545L139.527 485.226L126.141 497.48L113.133 509.546" stroke="#474747" stroke-width="0.5" stroke-linecap="round" stroke-linejoin="round"/>
<path d="M51.1992 316.398L95.0321 312.156L140.091 307.82" stroke="#474747" stroke-width="0.5" stroke-linecap="round" stroke-linejoin="round"/>
<path d="M70.6172 300.656L114.073 296.226L158.754 291.701L169.123 279.447L210.223 275.205L233.034 294.529L249.908 320.452L274.228 326.391L288.557 351.371L302.979 376.728L321.266 380.498L338.988 384.175" stroke="#474747" stroke-width="0.5" stroke-linecap="round" stroke-linejoin="round"/>
<path d="M49.8789 488.997L50.2559 445.541L50.5389 402.368L50.9159 359.289L51.1985 316.398" stroke="#474747" stroke-width="0.5" stroke-linecap="round" stroke-linejoin="round"/>
<path d="M39.6016 310.554L82.6801 306.312L95.0288 312.156L107.849 318.284L140.087 307.82L172.42 297.451L204.659 287.082L233.032 294.529L260.086 301.599L286.103 308.386L310.989 314.89" stroke="#474747" stroke-width="0.5" stroke-linecap="round" stroke-linejoin="round"/>
<path d="M26.5039 512.468L69.2055 511.054L81.4598 499.177L126.141 497.48L158.191 507.944L204.569 506.341L224.742 478.628L224.647 423.577V368.81L204.664 341.473V287.082L210.225 275.205L215.598 263.705L220.782 252.393L225.873 241.553" stroke="#474747" stroke-width="0.5" stroke-linecap="round" stroke-linejoin="round"/>
<path d="M28.3867 304.898L70.617 300.656L82.6826 306.312L114.073 296.226L129.061 283.688L143.766 271.34L158.094 259.368L189.107 255.975L220.78 252.393L242.838 271.34L264.613 290.004L286.105 308.386L297.7 332.046L309.388 356.083L321.266 380.498L333.332 405.289L321.549 432.814L309.86 460.057L298.36 487.016L286.859 513.693L265.273 528.964L243.309 544.518L220.969 560.448L188.824 561.014L157.34 561.58L126.422 562.145L107.663 545.366L88.6215 528.399L69.203 511.054L38.0958 500.873" stroke="#474747" stroke-width="0.5" stroke-linecap="round" stroke-linejoin="round"/>
<path d="M107.849 318.283L107.661 357.12L107.378 396.146L107.189 435.36L107.001 474.668L94.0867 487.111L49.8768 488.996L38.0938 500.873" stroke="#474747" stroke-width="0.5" stroke-linecap="round" stroke-linejoin="round"/>
<path d="M62.043 476.742L62.326 437.905L62.6086 399.257L62.8913 360.797L63.1743 322.432" stroke="#474747" stroke-width="0.5" stroke-linecap="round" stroke-linejoin="round"/>
<path d="M107.005 474.669L74.5781 464.111" stroke="#474747" stroke-width="0.5" stroke-linecap="round" stroke-linejoin="round"/>
<path d="M264.613 368.811L284.786 396.147L301.376 399.258" stroke="#474747" stroke-width="0.5" stroke-linecap="round" stroke-linejoin="round"/>
<path d="M284.785 396.146L264.801 423.577" stroke="#474747" stroke-width="0.5" stroke-linecap="round" stroke-linejoin="round"/>
<path d="M224.648 368.811L244.727 396.147L264.805 423.578L284.318 426.783L303.265 429.8L321.552 432.816L339.368 435.644" stroke="#474747" stroke-width="0.5" stroke-linecap="round" stroke-linejoin="round"/>
<path d="M264.613 368.811L244.723 396.147L224.645 423.578L204.661 451.103L204.566 506.342L210.222 524.818L215.595 542.823L220.968 560.45L226.153 577.512" stroke="#474747" stroke-width="0.5" stroke-linecap="round" stroke-linejoin="round"/>
<path d="M244.628 341.473L264.612 368.809L264.801 423.577L244.816 451.102L224.738 478.627" stroke="#474747" stroke-width="0.5" stroke-linecap="round" stroke-linejoin="round"/>
<path d="M244.633 341.473L224.648 368.809" stroke="#474747" stroke-width="0.5" stroke-linecap="round" stroke-linejoin="round"/>
<path d="M81.4575 499.177L49.8789 488.996" stroke="#474747" stroke-width="0.5" stroke-linecap="round" stroke-linejoin="round"/>
<path d="M51.1992 316.399L82.6834 306.313L126.894 301.977L140.091 307.821" stroke="#474747" stroke-width="0.5" stroke-linecap="round" stroke-linejoin="round"/>
<path d="M204.664 451.103L172.142 445.824L139.715 440.545L107.194 435.361L74.767 430.082L62.3244 437.906L50.2582 445.541L38.4752 452.988L26.9752 460.247L26.5039 512.469" stroke="#474747" stroke-width="0.5" stroke-linecap="round" stroke-linejoin="round"/>
<path d="M39.6016 310.554L70.6144 300.657L90.033 287.742L108.98 275.111L143.764 271.34L179.301 267.57L215.593 263.705L238.028 282.746L264.61 290.005L290.156 296.98" stroke="#474747" stroke-width="0.5" stroke-linecap="round" stroke-linejoin="round"/>
<path d="M301.372 399.256L284.31 426.781L267.248 454.212L250.281 481.549L233.219 508.885L238.309 526.984L243.305 544.517L248.112 561.768" stroke="#474747" stroke-width="0.5" stroke-linecap="round" stroke-linejoin="round"/>
<path d="M210.227 275.205L238.035 282.746L260.092 301.599L274.232 326.391L297.704 332.047L320.139 337.514" stroke="#474747" stroke-width="0.5" stroke-linecap="round" stroke-linejoin="round"/>
<path d="M215.594 263.705L242.837 271.34L269.042 278.693" stroke="#474747" stroke-width="0.5" stroke-linecap="round" stroke-linejoin="round"/>
<path d="M233.227 508.887L210.227 524.817" stroke="#474747" stroke-width="0.5" stroke-linecap="round" stroke-linejoin="round"/>
<path d="M220.777 252.393L247.643 260.216" stroke="#474747" stroke-width="0.5" stroke-linecap="round" stroke-linejoin="round"/>
<path d="M248.113 561.769L220.965 560.449" stroke="#474747" stroke-width="0.5" stroke-linecap="round" stroke-linejoin="round"/>
<path d="M171.481 578.265L144.805 578.548L126.423 562.146L96.07 562.711L73.2578 546.215" stroke="#474747" stroke-width="0.5" stroke-linecap="round" stroke-linejoin="round"/>
<path d="M269.796 546.216L243.308 544.519L215.594 542.822" stroke="#474747" stroke-width="0.5" stroke-linecap="round" stroke-linejoin="round"/>
<path d="M51.8594 291.701L74.9541 278.786L108.984 275.11L127.553 262.761L145.841 250.601L172.046 247.679L198.723 244.568" stroke="#474747" stroke-width="0.5" stroke-linecap="round" stroke-linejoin="round"/>
<path d="M144.801 578.547L118.595 578.924L96.0664 562.711" stroke="#474747" stroke-width="0.5" stroke-linecap="round" stroke-linejoin="round"/>
<path d="M224.551 314.23L249.908 320.452L266.97 346.563L288.557 351.371L309.389 356.084L329.467 360.608" stroke="#474747" stroke-width="0.5" stroke-linecap="round" stroke-linejoin="round"/>
<path d="M74.9531 278.787L97.6709 266.061L127.552 262.762L158.094 259.368L172.045 247.68" stroke="#474747" stroke-width="0.5" stroke-linecap="round" stroke-linejoin="round"/>
<path d="M291.1 530.944L265.272 528.964L238.312 526.984L215.594 542.821L178.831 543.669L142.822 544.612L107.662 545.366L73.2551 546.214L50.0664 529.53" stroke="#474747" stroke-width="0.5" stroke-linecap="round" stroke-linejoin="round"/>
<path d="M97.6719 266.061L120.012 253.524L145.841 250.602" stroke="#474747" stroke-width="0.5" stroke-linecap="round" stroke-linejoin="round"/>
<path d="M19.8088 487.393L13.3047 462.79L20.2802 435.736L13.776 411.605L20.7515 384.174L14.2473 360.702L21.2228 332.988" stroke="#474747" stroke-width="0.5" stroke-linecap="round" stroke-linejoin="round"/>
<path d="M312.028 515.956L286.859 513.693L260.654 511.337L233.223 508.886L204.567 506.341L172.046 495.783L139.524 485.226L107.003 474.668L62.0389 476.742L49.8789 488.996" stroke="#474747" stroke-width="0.5" stroke-linecap="round" stroke-linejoin="round"/>
<path d="M13.3054 462.791L6.80078 438.66L13.7767 411.606L7.2721 388.04L14.248 360.703" stroke="#474747" stroke-width="0.5" stroke-linecap="round" stroke-linejoin="round"/>
<path d="M6.79981 438.659L0.484375 414.999L7.27113 388.039" stroke="#474747" stroke-width="0.5" stroke-linecap="round" stroke-linejoin="round"/>
<path d="M264.613 368.811L284.126 372.77L301.376 399.258L317.59 402.274L333.332 405.291L348.697 408.119" stroke="#474747" stroke-width="0.5" stroke-linecap="round" stroke-linejoin="round"/>
<path d="M198.537 577.887L188.827 561.014L178.835 543.67L168.655 526.042L158.191 507.943" stroke="#474747" stroke-width="0.5" stroke-linecap="round" stroke-linejoin="round"/>
<path d="M260.652 511.338L265.271 528.965L269.796 546.216" stroke="#474747" stroke-width="0.5" stroke-linecap="round" stroke-linejoin="round"/>
<path d="M286.855 513.693L291.097 530.944" stroke="#474747" stroke-width="0.5" stroke-linecap="round" stroke-linejoin="round"/>
<path d="M62.043 476.742L74.5804 464.11L74.7687 430.081L75.0517 396.146L75.24 362.305L75.4287 328.652" stroke="#474747" stroke-width="0.5" stroke-linecap="round" stroke-linejoin="round"/>
<path d="M158.754 291.701L172.422 297.451" stroke="#474747" stroke-width="0.5" stroke-linecap="round" stroke-linejoin="round"/>
<path d="M114.07 296.227L126.89 301.977L172.42 297.452" stroke="#474747" stroke-width="0.5" stroke-linecap="round" stroke-linejoin="round"/>
<path d="M63.168 322.431L75.4223 328.652L107.849 318.283" stroke="#474747" stroke-width="0.5" stroke-linecap="round" stroke-linejoin="round"/>
<path d="M28.3867 304.898L39.6041 310.554L51.1984 316.399L63.1702 322.431L95.0314 312.157L126.893 301.976L158.754 291.701L204.661 287.082L224.551 314.231L244.629 341.473L266.969 346.563L284.126 372.769L302.979 376.728L317.59 402.273L303.261 429.799L288.933 457.135L274.794 484.378L260.654 511.337L238.313 526.985L210.223 524.817L168.652 526.042L128.118 527.174L88.6216 528.399L50.0675 529.53L26.5015 512.468L19.8086 487.394L26.9728 460.246L20.2799 435.737L27.4441 408.212L20.7512 384.175L27.9154 356.367L21.2226 332.989L28.3867 304.898ZM28.3867 304.898L51.8585 291.701L90.0355 287.742L129.061 283.689L169.123 279.447L179.304 267.57L189.107 255.975L198.722 244.569L225.871 241.553L247.645 260.217L269.043 278.693L290.159 296.98L310.991 314.89L320.135 337.514L329.467 360.609L338.988 384.175L348.697 408.118L339.365 435.643L330.127 462.791L320.983 489.562L312.028 515.956L291.101 530.944L269.797 546.215L248.117 561.769L226.153 577.511L198.534 577.888L171.48 578.265L157.34 561.58L142.824 544.613L128.118 527.174L113.13 509.546L81.4574 499.177L38.0958 500.874L26.5015 512.468" stroke="#474747" stroke-width="0.5" stroke-linecap="round" stroke-linejoin="round"/>
<path d="M290.163 296.98L286.109 308.386" stroke="#474747" stroke-width="0.5" stroke-linecap="round" stroke-linejoin="round"/>
<path d="M269.041 278.693L264.61 290.005L260.086 301.6" stroke="#474747" stroke-width="0.5" stroke-linecap="round" stroke-linejoin="round"/>
<path d="M247.646 260.217L242.839 271.34L238.031 282.746L233.035 294.529" stroke="#474747" stroke-width="0.5" stroke-linecap="round" stroke-linejoin="round"/>
<path d="M27.4492 408.212L38.8548 405.29L50.544 402.368L62.6096 399.257L75.0527 396.146H107.385H139.812H172.239H204.666L224.65 423.577L244.822 451.103L267.258 454.213L288.938 457.135L309.865 460.058L330.132 462.791" stroke="#474747" stroke-width="0.5" stroke-linecap="round" stroke-linejoin="round"/>
<path d="M27.9141 356.367L39.2258 357.781L50.9145 359.289L62.8858 360.797L75.2345 362.305L107.661 357.121L139.994 351.936L172.327 346.657L204.66 341.473L224.549 314.23" stroke="#474747" stroke-width="0.5" stroke-linecap="round" stroke-linejoin="round"/>
</svg>
