<svg width="1577" height="1069" viewBox="0 0 1577 1069" fill="none" xmlns="http://www.w3.org/2000/svg">
<path d="M617.684 120.255L663.09 111.623L701.417 122.154M833.663 96.43L794.991 86.4169L757.181 76.5757L714.02 84.6904L670.168 92.977L625.626 101.437L580.393 109.896M543.619 99.5376L588.852 91.2506L625.626 101.437L663.09 111.796L707.805 103.163L751.829 94.7035L795.163 86.4169L837.806 78.3022L879.759 70.3608L921.022 62.4189L961.593 54.6499L1001.65 47.0537L1041.01 39.457L1079.86 32.0336L1118.01 24.7822L1155.65 17.5312L1195.01 26.3362M655.666 131.132L656.875 175.502L658.083 219.526M876.306 88.1433L837.634 78.3022L799.652 68.6343L757.181 76.5757L720.062 66.9079L677.074 74.8493M701.244 122.154L702.28 166.179L703.316 209.858M620.101 207.786L618.893 164.107L617.684 120.255M746.132 113.522L746.995 157.201L747.859 200.535M580.22 109.724L581.601 153.23L582.982 196.392M1157.03 33.5873L1117.84 24.6098L1079.34 15.8047L1041.18 23.0557L1002.51 30.3072L963.147 37.7306L923.266 45.1544L882.694 52.751L841.605 60.5201L799.824 68.4615L762.533 58.966L720.235 66.7351M790.329 104.89L791.192 148.224L792.055 191.212M543.619 99.5376L545 142.527L546.382 185.342M835.044 182.235L834.354 139.591L833.663 96.6028M876.306 88.1433L876.824 130.787L877.342 173.257M918.432 80.0287L879.587 70.188L841.432 60.6925L804.141 51.3698L762.361 59.1388M918.432 80.0287L918.95 122.327L919.468 164.452M960.385 155.647L960.039 113.867L959.694 71.9144M1155.47 17.5312L1116.8 8.8989L1079.16 15.9775L1041.36 7.34526L1003.2 14.4235L964.528 21.5021L925.338 28.7531L885.457 36.1769L845.058 43.6008L803.968 51.197M1000.44 63.973L1000.61 105.58L1000.78 147.015M1040.49 56.2039L1040.66 97.6388L1040.84 138.728M1080.03 48.6073V89.697V130.614M1118.7 122.327V81.7551V41.0111M1156.85 114.385L1157.03 74.1589L1157.2 33.5873M1194.66 26.1634L1194.49 66.3898L1194.32 106.443M790.329 104.89L751.829 94.7035L714.02 84.6904L677.074 74.8493L633.395 82.964L589.025 91.2506M633.222 82.7911L670.168 92.8047L707.805 102.991L746.132 113.349M1003.37 14.4235L1041.18 23.0557L1079.68 31.8608L1118.87 40.8383M1080.03 48.6073L1040.84 39.457L1002.51 30.4796L964.873 21.6749M1040.49 56.2039L1001.47 46.8809L963.147 37.7306L925.51 28.7531M885.629 36.1769L923.093 45.3272L961.421 54.6499L1000.44 64.1454M845.23 43.6008L882.694 52.9234L920.849 62.4189L959.694 72.0872M543.619 99.5376L580.22 109.896L617.511 120.428L655.666 131.132L701.244 122.327L746.132 113.522L790.329 104.89L833.663 96.43L876.306 88.1433L918.259 80.0287L959.694 71.9144L1000.44 63.973L1040.49 56.2039L1080.03 48.6073L1118.87 41.0111L1157.2 33.5873L1194.84 26.3362M545.173 142.527L581.774 153.23L619.065 164.107L657.047 175.329L702.453 166.179L747.168 157.201L791.192 148.224L834.526 139.419L877.17 130.787L919.123 122.327L960.385 114.04L1000.96 105.753L1041.01 97.6388L1080.37 89.697L1119.05 81.9279L1157.2 74.1589L1194.84 66.5627M546.554 185.342L582.982 196.564L620.101 207.959L658.083 219.526L703.489 210.031L748.031 200.708L791.883 191.385L835.044 182.235L877.515 173.257L919.295 164.452L960.385 155.82L1000.96 147.36L1040.84 138.901L1080.03 130.614L1118.7 122.5L1156.85 114.558L1194.32 106.616M1116.8 8.8989L1078.82 0.439453L1041.36 7.34526M822.268 245.596L781.87 233.511L736.291 243.524M955.033 216.073L914.288 204.506L874.235 193.284L830.901 202.607L786.876 212.102L742.161 221.771L696.755 231.439M658.083 219.526L703.489 210.031L742.334 221.598L782.042 233.511L826.93 223.67L870.955 214.002L914.288 204.506L956.932 195.183L998.885 186.033L1040.15 177.056L1080.72 168.251L1120.77 159.445L1160.14 150.813L1198.98 142.354L1237.13 134.067L1274.77 125.952L1316.03 135.966M776.69 255.609L777.553 300.669L778.417 345.557M822.268 245.596L822.959 290.311L823.65 334.853M736.291 243.351L737.327 288.066L738.363 332.436M867.329 235.582L868.019 279.952L868.71 324.149M997.849 206.578L956.932 195.183L916.878 184.134L874.235 193.284L835.044 182.235L791.883 191.385M696.755 231.266L697.791 275.463L698.827 319.488M912.562 313.618L912.044 269.766L911.526 225.741M660.5 306.885L659.291 263.378L658.083 219.526M955.723 303.259L955.378 259.753L955.033 216.073M1278.4 144.253L1237.13 134.067L1196.56 124.053L1158.41 132.168L1119.74 140.454L1080.37 148.914L1040.49 157.547L999.921 166.179L958.658 174.984L916.706 183.961L877.342 173.085L834.872 182.062M998.366 293.073L998.021 249.912L997.676 206.578M1040.15 283.06L1039.97 240.244L1039.8 197.255M1039.8 197.255L998.885 186.033L958.658 175.156L919.295 164.452L877.515 173.257M1081.24 273.219V230.748V188.105M1121.81 263.551V221.425V178.954M911.526 225.741L870.782 214.002L830.901 202.434L791.883 191.212L748.031 200.535L703.489 209.858M748.031 200.535L787.049 211.93L826.757 223.67L867.329 235.582M1161.69 254.055L1161.86 212.275L1162.03 170.15M1274.77 125.952L1234.2 116.112L1196.74 124.226L1157.03 114.385L1118.87 122.327L1080.2 130.441L1041.01 138.728L1001.13 147.188L960.557 155.647L919.468 164.28M1201.4 161.345L1201.22 203.125L1201.05 244.732M1240.24 152.712L1239.9 194.147L1239.55 235.409M1277.53 226.26L1278.05 185.342L1278.57 144.253M1240.24 152.712L1198.98 142.354L1158.41 132.168L1118.7 122.327M1080.03 130.441L1119.74 140.454L1160.14 150.641L1201.4 161.172M1162.03 170.15L1120.94 159.445L1080.55 149.087L1041.01 138.901M1000.96 147.188L1040.49 157.547L1080.89 168.078L1121.98 178.954M1316.03 135.793L1315.52 176.71L1315 217.454M1081.24 187.932L1040.15 176.883L999.921 166.179L960.385 155.647M658.083 219.526L696.755 231.439L736.291 243.524L776.69 255.782L822.441 245.596L867.329 235.582L911.526 225.741L955.033 216.073L997.849 206.578L1039.97 197.255L1081.41 188.105L1122.15 179.127L1162.21 170.15L1201.57 161.345L1240.42 152.712L1278.57 144.253L1316.21 135.966M659.291 263.205L697.964 275.463L737.327 287.894L777.553 300.669L823.132 290.138L868.019 279.78L912.044 269.593L955.378 259.58L998.021 249.739L1039.97 240.071L1081.24 230.576L1121.81 221.253L1161.69 212.102L1201.05 202.952L1239.72 193.975L1277.88 185.17L1315.34 176.538M660.5 306.885L699 319.488L738.363 332.436L778.417 345.557L823.822 334.68L868.537 323.976L912.562 313.445L955.723 303.087L998.194 292.9L1039.97 282.887L1081.06 273.046L1121.64 263.378L1161.52 253.883L1200.71 244.56L1239.38 235.409L1277.36 226.26L1314.83 217.282M1234.2 116.112L1194.32 106.443L1156.85 114.385M949.681 375.252L906.865 361.44L861.114 372.835M1082.62 341.759L1039.46 328.638L995.95 339.342L951.752 350.218L906.865 361.44L864.912 347.974L819.333 359.024M778.417 345.557L823.822 334.68L864.912 347.974L909.8 337.098L953.824 326.394L997.158 315.862L1039.46 328.638L1082.1 318.107L1124.05 307.748L1165.31 297.562L1205.89 287.549L1245.77 277.707L1285.13 268.04L1323.8 258.371L1361.96 248.876L1399.42 239.553L1442.93 250.947M903.93 386.82L904.448 432.743L904.966 478.322M949.681 375.252L950.026 420.831L950.371 466.064M861.114 372.835L861.804 418.241L862.495 463.474M1039.11 352.808L996.122 339.515L953.997 326.394L912.735 313.618L868.71 324.149L823.995 334.853M868.537 323.976L909.8 336.925L951.925 350.218L994.914 363.858M994.741 363.858L995.086 409.091L995.432 453.978M819.333 359.024L820.024 404.084L820.715 448.799M1039.46 442.066L1039.28 397.523L1039.11 352.636M1405.64 260.098L1362.13 248.531L1319.49 237.309L1281.5 246.631L1242.83 255.954L1203.47 265.45L1163.59 275.118L1123.02 284.959L1081.75 294.972L1039.8 305.158L997.158 315.517L955.723 302.914L912.562 313.273M778.417 345.557L779.28 390.1L780.143 434.469M1082.62 341.759V386.302V430.498M1125.26 330.882V375.08V418.931M1167.39 320.351L1167.21 364.203L1167.04 407.709M1125.26 330.882L1082.1 317.934L1039.8 305.331L998.366 292.9L955.896 303.087M1208.13 396.487L1208.48 353.326L1208.82 309.82M1161.69 254.055L1203.47 265.622L1246.11 277.362L1289.45 289.447M1121.81 263.551L1163.59 275.291L1206.06 287.376L1249.39 299.634M1200.88 244.56L1242.66 255.954L1285.3 267.522L1328.81 279.434M1208.82 309.82L1165.49 297.389L1123.02 285.131L1081.41 273.219M1239.55 235.409L1281.33 246.631L1323.98 258.026L1367.48 269.766M1040.15 283.06L1081.75 295.318L1124.23 307.748L1167.56 320.351M1248.7 385.611L1249.05 342.795L1249.39 299.634M1399.59 239.38L1356.95 228.331L1319.49 237.481L1277.53 226.432L1239.55 235.582L1200.88 244.732L1161.69 254.055L1121.81 263.551L1081.24 273.219L1040.15 283.06L998.366 293.073M1288.41 374.907L1288.93 332.264L1289.45 289.447M1328.81 279.607L1328.29 322.078L1327.77 364.376M1366.1 353.844L1366.79 311.891L1367.48 269.766M1404.08 343.658L1404.77 302.051L1405.46 260.271M1441.37 333.645L1442.24 292.382L1443.1 250.775M778.417 345.557L819.333 359.024L861.114 372.835L903.93 386.82L949.681 375.252L994.741 363.858L1038.94 352.636L1082.45 341.586L1125.26 330.71L1167.39 320.006L1208.82 309.474L1249.57 299.288L1289.62 289.102L1328.98 279.089L1367.65 269.248L1405.81 259.58L1443.27 250.084M779.28 390.272L820.197 404.084L861.977 418.241L904.62 432.743L950.371 420.831L995.259 409.091L1039.46 397.523L1082.79 386.129L1125.43 374.907L1167.39 364.03L1208.65 353.326L1249.22 342.795L1289.1 332.436L1328.29 322.25L1366.96 312.236L1404.95 302.223L1442.41 292.382M780.143 434.642L820.888 448.972L862.495 463.647L904.966 478.494L950.544 466.236L995.259 454.151L1039.28 442.238L1082.62 430.498L1125.09 418.931L1166.87 407.709L1207.96 396.66L1248.36 385.784L1288.24 375.08L1327.43 364.548L1365.93 354.189L1403.91 344.003L1441.2 333.99M1356.95 228.331L1315 217.454L1277.53 226.432M1129.06 499.211L1083.48 483.846L1038.94 468.826L995.259 454.151M1039.46 442.066L1083.14 456.568L1127.85 471.416L1173.43 486.436M1082.62 430.498L1126.47 444.656L1171.18 459.158L1216.94 474.005M992.842 509.225L1038.25 525.108L1084.17 511.987M1576.38 371.109L1539.09 381.813L1493.17 368.864L1448.11 356.089L1403.91 343.658L1365.93 353.844L1327.43 364.203L1288.24 374.734L1248.36 385.438L1207.96 396.315L1166.87 407.364L1125.09 418.586L1082.62 430.153L1039.28 441.893L995.259 453.806L950.544 465.891L904.966 478.149M948.472 493.687L992.842 509.225L1038.59 496.449L1083.48 483.846L1127.68 471.416L1171.01 459.158L1213.66 447.245L1255.61 435.505L1296.87 423.938L1337.44 412.544L1377.32 401.322L1416.51 390.272L1455.01 379.396L1500.94 392.517M1038.25 525.281L1038.42 572.068L1038.59 618.509M1084 512.16V558.602V604.698M992.842 509.225L993.187 555.494L993.533 601.59M1125.26 418.931L1169.11 432.916L1213.83 447.245L1259.58 461.747M1576.38 371.109L1530.46 358.333L1493.17 368.864L1455.19 379.568L1410.13 366.62L1371.63 377.151L1332.43 387.855L1292.55 398.905L1251.98 410.127L1210.72 421.521L1168.77 433.088L1126.12 444.828L1082.79 456.741L1038.77 468.826L993.878 481.256L948.127 493.86L904.62 478.667M1167.04 407.709L1210.89 421.521L1255.78 435.505L1301.53 449.835M1208.13 396.487L1252.15 409.954L1297.04 423.765L1342.79 437.922L1383.37 426.355L1423.25 414.96M1248.7 385.611L1292.73 398.905L1337.61 412.544L1383.37 426.355M1288.41 374.907L1332.43 388.028L1377.32 401.322L1423.25 414.96L1462.44 403.738L1500.94 392.689L1538.92 381.813M1327.6 364.376L1371.63 377.324L1416.51 390.445L1462.44 403.911M1366.1 353.844L1410.13 366.447L1448.11 355.916L1485.4 345.557L1530.46 357.987M1128.89 590.886V545.135V499.039M948.472 493.687L948.817 539.611L949.163 585.189M1173.43 486.436L1173.26 532.014L1173.08 577.42M904.966 478.494L905.484 523.9L906.001 569.133M1216.25 564.299L1216.59 519.238L1216.94 474.005M1259.58 461.747L1259.06 506.635L1258.54 551.35M1300.5 538.747L1301.01 494.377L1301.53 449.835M1342.79 437.922L1342.1 482.12L1341.41 526.144M1383.37 426.355L1382.67 470.207L1381.98 513.886M1421.52 501.801L1422.38 458.467L1423.25 414.96M1462.44 403.738L1461.4 446.9L1460.37 489.889M950.544 466.064L994.05 481.084L1038.59 496.449L1084 512.16L1129.06 499.211L1173.26 486.608L1216.76 474.178L1259.41 461.92L1301.36 449.835L1342.62 438.095M1499.04 478.149L1500.07 435.505L1501.11 392.689M1539.09 381.813L1537.88 424.456L1536.67 466.754M1573.97 455.36L1575.17 413.407L1576.38 371.109M906.174 568.96L949.335 585.016L993.533 601.59L1038.59 618.509L1084.17 604.698L1128.89 591.059L1172.91 577.593L1216.07 564.471L1258.54 551.523L1300.32 538.747L1341.41 526.317L1381.81 514.059L1421.52 501.974L1460.54 490.061L1498.87 478.322L1536.67 466.754L1573.79 455.36M905.656 523.9L948.99 539.611L993.187 555.666L1038.42 572.068L1084.17 558.602L1129.06 545.308L1173.26 532.187L1216.59 519.411L1259.23 506.808L1301.19 494.377L1342.28 482.292L1382.67 470.38L1422.38 458.64L1461.57 447.073L1500.07 435.678L1537.88 424.456L1575.17 413.407M1485.57 345.902L1441.37 333.645L1404.08 343.658" stroke="#474747" stroke-width="0.5" stroke-linecap="round" stroke-linejoin="round"/>
<path d="M75.1193 570.202L120.525 561.57L158.852 572.102M291.099 546.377L252.426 536.364L214.617 526.523L171.455 534.638L127.604 542.924L83.0612 551.384L37.8282 559.844M1.05469 549.485L46.2877 541.198L83.0612 551.384L120.525 561.743L165.24 553.111L209.265 544.651L252.599 536.364L295.242 528.249L337.195 520.308L378.457 512.366L419.029 504.597L459.083 497.001L498.446 489.404L537.291 481.981L575.445 474.729L613.082 467.478L652.445 476.284M113.101 581.079L114.31 625.449L115.519 669.473M333.742 538.091L295.07 528.249L257.088 518.582L214.617 526.523L177.498 516.855L134.51 524.797M158.68 572.102L159.715 616.126L160.752 659.805M77.5366 657.733L76.3282 614.054L75.1193 570.202M203.568 563.469L204.431 607.149L205.294 650.482M37.6554 559.671L39.0366 603.178L40.4179 646.339M614.463 483.535L575.273 474.557L536.773 465.752L498.618 473.003L459.946 480.254L420.583 487.678L380.701 495.102L340.13 502.698L299.041 510.467L257.26 518.409L219.969 508.913L177.671 516.682M247.765 554.837L248.628 598.171L249.491 641.16M1.05469 549.485L2.43593 592.474L3.81718 635.29M292.48 632.182L291.789 589.539L291.099 546.55M333.742 538.091L334.26 580.734L334.778 623.204M375.868 529.976L337.022 520.135L298.868 510.64L261.576 501.317L219.796 509.086M375.868 529.976L376.385 572.274L376.903 614.4M417.82 605.595L417.475 563.815L417.13 521.862M612.909 467.478L574.237 458.846L536.6 465.925L498.791 457.293L460.636 464.371L421.964 471.449L382.773 478.7L342.892 486.124L302.493 493.548L261.404 501.144M457.874 513.92L458.047 555.527L458.219 596.962M497.928 506.151L498.1 547.586L498.273 588.675M537.463 498.555V539.644V580.561M576.136 572.274V531.702V490.958M614.29 564.333L614.463 524.106L614.636 483.535M652.1 476.111L651.927 516.337L651.754 556.391M247.765 554.837L209.265 544.651L171.455 534.638L134.51 524.797L90.8302 532.911L46.4605 541.198M90.6574 532.738L127.604 542.752L165.24 552.938L203.568 563.297M460.809 464.371L498.618 473.003L537.118 481.808L576.308 490.786M537.463 498.555L498.273 489.404L459.946 480.427L422.309 471.622M497.928 506.151L458.91 496.828L420.583 487.678L382.946 478.7M343.065 486.124L380.529 495.274L418.856 504.597L457.874 514.093M302.666 493.548L340.13 502.871L378.285 512.366L417.13 522.034M1.05469 549.485L37.6554 559.844L74.9469 570.375L113.101 581.079L158.68 572.274L203.568 563.469L247.765 554.837L291.099 546.377L333.742 538.091L375.695 529.976L417.13 521.862L457.874 513.92L497.928 506.151L537.463 498.555L576.308 490.958L614.636 483.535L652.272 476.284M2.60833 592.474L39.2095 603.178L76.5006 614.054L114.483 625.276L159.888 616.126L204.603 607.149L248.628 598.171L291.962 589.366L334.605 580.734L376.558 572.274L417.82 563.987L458.392 555.7L498.446 547.586L537.809 539.644L576.481 531.875L614.636 524.106L652.272 516.51M3.98957 635.29L40.4179 646.511L77.5366 657.906L115.519 669.473L160.924 659.978L205.466 650.655L249.319 641.332L292.48 632.182L334.95 623.204L376.731 614.4L417.82 605.767L458.392 597.308L498.273 588.848L537.463 580.561L576.136 572.447L614.29 564.505L651.754 556.564M574.237 458.846L536.255 450.387L498.791 457.293M279.704 695.543L239.305 683.458L193.727 693.471M412.468 666.02L371.724 654.453L331.67 643.231L288.336 652.554L244.312 662.05L199.597 671.718L154.191 681.386M115.519 669.473L160.924 659.978L199.77 671.545L239.478 683.458L284.366 673.617L328.39 663.949L371.724 654.453L414.367 645.131L456.32 635.98L497.583 627.003L538.154 618.198L578.208 609.393L617.571 600.76L656.416 592.301L694.57 584.014L732.207 575.9L773.469 585.913M234.126 705.556L234.989 750.617L235.852 795.504M279.704 695.543L280.395 740.258L281.085 784.8M193.727 693.298L194.763 738.013L195.799 782.384M324.764 685.529L325.455 729.899L326.146 774.097M455.284 656.525L414.367 645.131L374.314 634.081L331.67 643.231L292.48 632.182L249.319 641.332M154.191 681.213L155.227 725.411L156.263 769.435M369.997 763.565L369.479 719.713L368.962 675.689M117.935 756.832L116.727 713.325L115.519 669.473M413.159 753.206L412.814 709.7L412.468 666.02M735.833 594.2L694.57 584.014L653.999 574L615.844 582.115L577.172 590.402L537.809 598.862L497.928 607.494L457.356 616.126L416.094 624.931L374.141 633.909L334.778 623.032L292.307 632.009M455.802 743.02L455.457 699.859L455.112 656.525M497.583 733.007L497.41 690.191L497.237 647.202M497.237 647.202L456.32 635.98L416.094 625.104L376.731 614.4L334.95 623.204M538.672 723.166V680.695V638.052M579.243 713.498V671.373V628.902M368.962 675.689L328.217 663.949L288.336 652.382L249.319 641.16L205.466 650.482L160.924 659.805M205.466 650.482L244.484 661.877L284.193 673.617L324.764 685.529M619.125 704.002L619.297 662.222L619.47 620.097M732.207 575.9L691.636 566.059L654.172 574.173L614.463 564.333L576.308 572.274L537.636 580.389L498.446 588.675L458.565 597.135L417.993 605.595L376.903 614.227M658.833 611.292L658.66 653.072L658.488 694.68M697.678 602.66L697.333 644.095L696.988 685.357M734.97 676.207L735.487 635.29L736.005 594.2M697.678 602.66L656.416 592.301L615.844 582.115L576.136 572.274M537.463 580.389L577.172 590.402L617.571 600.588L658.833 611.119M619.47 620.097L578.38 609.393L537.981 599.034L498.446 588.848M458.392 597.135L497.928 607.494L538.327 618.025L579.416 628.902M773.469 585.74L772.952 626.657L772.434 667.402M538.672 637.879L497.583 626.83L457.356 616.126L417.82 605.595M115.519 669.473L154.191 681.386L193.727 693.471L234.126 705.729L279.877 695.543L324.764 685.529L368.962 675.689L412.468 666.02L455.284 656.525L497.41 647.202L538.845 638.052L579.589 629.075L619.643 620.097L659.006 611.292L697.851 602.66L736.005 594.2L773.642 585.913M116.727 713.153L155.399 725.411L194.763 737.841L234.989 750.617L280.567 740.086L325.455 729.727L369.479 719.54L412.814 709.527L455.457 699.686L497.41 690.018L538.672 680.523L579.243 671.2L619.125 662.05L658.488 652.9L697.16 643.922L735.315 635.117L772.779 626.485M117.935 756.832L156.435 769.435L195.799 782.384L235.852 795.504L281.258 784.628L325.973 773.924L369.997 763.393L413.159 753.034L455.63 742.848L497.41 732.834L538.499 722.993L579.071 713.325L618.952 703.83L658.143 694.507L696.815 685.357L734.797 676.207L772.261 667.229M691.636 566.059L651.754 556.391L614.29 564.333M407.116 825.199L364.3 811.388L318.549 822.782M540.053 791.706L496.892 778.585L453.385 789.289L409.188 800.166L364.3 811.388L322.348 797.922L276.769 808.971M235.852 795.504L281.258 784.628L322.348 797.922L367.235 787.045L411.26 776.341L454.594 765.809L496.892 778.585L539.535 768.054L581.488 757.695L622.75 747.509L663.322 737.496L703.203 727.655L742.566 717.987L781.238 708.319L819.393 698.823L856.857 689.5L900.363 700.895M361.365 836.767L361.883 882.69L362.401 928.269M407.116 825.199L407.461 870.778L407.807 916.011M318.549 822.782L319.24 868.188L319.93 913.421M496.546 802.755L453.558 789.462L411.432 776.341L370.17 763.565L326.146 774.097L281.43 784.8M325.973 773.924L367.235 786.872L409.361 800.166L452.349 813.805M452.177 813.805L452.522 859.038L452.867 903.926M276.769 808.971L277.46 854.031L278.15 898.746M496.892 892.013L496.719 847.471L496.546 802.583M863.072 710.045L819.566 698.478L776.922 687.256L738.94 696.579L700.268 705.902L660.905 715.397L621.024 725.065L580.452 734.906L539.19 744.919L497.237 755.106L454.594 765.464L413.159 752.861L369.997 763.22M235.852 795.504L236.715 840.047L237.579 884.417M540.053 791.706V836.249V880.446M582.696 780.83V825.027V868.879M624.822 770.298L624.649 814.15L624.477 857.657M582.696 780.83L539.535 767.881L497.237 755.278L455.802 742.848L413.332 753.034M665.566 846.435L665.912 803.273L666.257 759.767M619.125 704.002L660.905 715.57L703.548 727.31L746.882 739.395M579.243 713.498L621.024 725.238L663.494 737.323L706.828 749.581M658.315 694.507L700.095 705.902L742.739 717.469L786.245 729.381M666.257 759.767L622.923 747.337L580.452 735.079L538.845 723.166M696.988 685.357L738.768 696.579L781.411 707.973L824.918 719.713M497.583 733.007L539.19 745.265L581.661 757.695L624.994 770.298M706.138 835.558L706.483 792.742L706.828 749.581M857.03 689.328L814.387 678.278L776.922 687.429L734.97 676.379L696.988 685.529L658.315 694.68L619.125 704.002L579.243 713.498L538.672 723.166L497.583 733.007L455.802 743.02M745.846 824.854L746.364 782.211L746.882 739.395M786.245 729.554L785.727 772.025L785.209 814.323M823.536 803.791L824.227 761.839L824.918 719.713M861.518 793.606L862.209 751.998L862.9 710.218M898.81 783.592L899.673 742.33L900.536 700.722M235.852 795.504L276.769 808.971L318.549 822.782L361.365 836.767L407.116 825.199L452.177 813.805L496.374 802.583L539.881 791.533L582.696 780.657L624.822 769.953L666.257 759.422L707.001 749.235L747.055 739.049L786.418 729.036L825.09 719.195L863.245 709.527L900.709 700.031M236.715 840.22L277.632 854.031L319.412 868.188L362.056 882.69L407.807 870.778L452.695 859.038L496.892 847.471L540.226 836.076L582.869 824.854L624.822 813.977L666.084 803.273L706.656 792.742L746.537 782.384L785.727 772.197L824.4 762.184L862.382 752.171L899.846 742.33M237.579 884.589L278.323 898.919L319.93 913.594L362.401 928.441L407.979 916.184L452.695 904.098L496.719 892.186L540.053 880.446L582.524 868.879L624.304 857.657L665.394 846.608L705.792 835.731L745.674 825.027L784.864 814.495L823.364 804.137L861.346 793.951L898.637 783.937M814.387 678.278L772.434 667.402L734.97 676.379M586.495 949.159L540.916 933.793L496.374 918.773L452.695 904.098M496.892 892.013L540.571 906.515L585.286 921.363L630.865 936.383M540.053 880.446L583.905 894.603L628.62 909.105L674.371 923.953M450.277 959.172L495.683 975.055L541.607 961.935M1033.82 821.056L996.527 831.76L950.603 818.811L905.543 806.036L861.346 793.606L823.364 803.791L784.864 814.15L745.674 824.682L705.792 835.386L665.394 846.262L624.304 857.311L582.524 868.533L540.053 880.101L496.719 891.841L452.695 903.753L407.979 915.838L362.401 928.096M405.908 943.634L450.277 959.172L496.028 946.397L540.916 933.793L585.114 921.363L628.447 909.105L671.091 897.193L713.043 885.453L754.306 873.886L794.878 862.491L834.758 851.269L873.949 840.22L912.449 829.343L958.372 842.464M495.683 975.228L495.856 1022.01L496.028 1068.46M541.434 962.107V1008.55V1054.65M450.277 959.172L450.623 1005.44L450.968 1051.54M582.696 868.879L626.548 882.863L671.263 897.193L717.014 911.695M1033.82 821.056L987.895 808.28L950.603 818.811L912.621 829.515L867.561 816.567L829.061 827.099L789.871 837.802L749.99 848.852L709.418 860.074L668.156 871.468L626.203 883.035L583.56 894.775L540.226 906.688L496.201 918.773L451.314 931.204L405.563 943.807L362.056 928.614M624.477 857.657L668.328 871.468L713.216 885.453L758.967 899.782M665.566 846.435L709.591 859.901L754.478 873.713L800.229 887.87L840.801 876.302L880.682 864.908M706.138 835.558L750.162 848.852L795.05 862.491L840.801 876.302M745.846 824.854L789.871 837.975L834.758 851.269L880.682 864.908L919.872 853.686L958.372 842.637L996.354 831.76M785.037 814.323L829.061 827.271L873.949 840.392L919.872 853.859M823.536 803.791L867.561 816.395L905.543 805.863L942.834 795.504L987.895 807.935M586.322 1040.83V995.082V948.986M405.908 943.634L406.253 989.558L406.598 1035.14M630.865 936.383L630.692 981.961L630.519 1027.37M362.401 928.441L362.919 973.847L363.437 1019.08M673.681 1014.25L674.026 969.186L674.371 923.953M717.014 911.695L716.496 956.582L715.979 1001.3M757.931 988.695L758.449 944.324L758.967 899.782M800.229 887.87L799.539 932.067L798.848 976.091M840.801 876.302L840.11 920.154L839.42 963.833M878.956 951.748L879.819 908.415L880.682 864.908M919.872 853.686L918.837 896.847L917.801 939.836M407.979 916.011L451.486 931.031L496.028 946.397L541.434 962.107L586.495 949.159L630.692 936.555L674.198 924.125L716.842 911.868L758.794 899.782L800.057 888.042M956.473 928.096L957.509 885.453L958.545 842.637M996.527 831.76L995.318 874.403L994.11 916.701M1031.4 905.307L1032.61 863.354L1033.82 821.056M363.61 1018.91L406.771 1034.96L450.968 1051.54L496.028 1068.46L541.607 1054.65L586.322 1041.01L630.347 1027.54L673.508 1014.42L715.979 1001.47L757.759 988.695L798.848 976.264L839.247 964.006L878.956 951.921L917.974 940.008L956.301 928.269L994.11 916.701L1031.23 905.307M363.092 973.847L406.426 989.558L450.623 1005.61L495.856 1022.01L541.607 1008.55L586.495 995.255L630.692 982.134L674.026 969.358L716.669 956.755L758.622 944.324L799.712 932.239L840.11 920.327L879.819 908.587L919.009 897.02L957.509 885.625L995.318 874.403L1032.61 863.354M943.007 795.85L898.81 783.592L861.518 793.606" stroke="#474747" stroke-width="0.5" stroke-linecap="round" stroke-linejoin="round"/>
</svg>
