<svg version="1.2" xmlns="http://www.w3.org/2000/svg" viewBox="0 0 818 455" width="818" height="455">
	<title>milestone-empty-bg-svg</title>
	<style>
		.s0 { fill: none;stroke: #474747;stroke-linecap: round;stroke-linejoin: round;stroke-width: .5 } 
	</style>
	<path id="Layer" class="s0" d="m430.9 136.6l-19.8 129.3-19.9 8.5-20.2 8.5-13.6-4.4"/>
	<path id="Layer" class="s0" d="m817.1 260.2l-16.9 8.4-17 8.4-17.3 8.7-17.7 8.7-17.7 8.9-23.8-11.2-23.1-14.7-21.8-17.4-1-0.9-12.6-6.1-9.5-4.8-0.8-0.4-15-11.6-6.9-5.4-0.2-0.1-0.2-0.3-18.1-1.5-18.8 10.4-19.9 49.3-19.2 8.8-22.4-8.2-22.1-8-21.7-8-21.1-90.6-21.4-46-21.3-98.6"/>
	<path id="Layer" class="s0" d="m429.4 39.4l4.2 17.6 16.5 70.6"/>
	<path id="Layer" class="s0" d="m556.8 200.4l-20.4 80.1-19.2 8.7-19.4 8.8-19.8 9-20.1 9-20.3 9.2-20.8 9.3-22.1-8.6-13.3-12.4-8-7.3-21.4 6.3-22-5.8-22-3.8-21.5 0.7-21.8-18.7-21.3-15.4-21.3-21.6-20.2 2.8-20.3-3-19.6 0.2-1 1.2-7.2 8.3-13.3 15.6-19.3-0.8-19.1-1.5-22.1 14.4-19.1-7.1-18.7-7.5-18.5-7.2-22.7 8.4"/>
	<path id="Layer" class="s0" d="m793.6 252.5l-23.3-7.6-16.9 8.2-23-7.7-17.3 8.2-22.6-7.5-17.5 8.1-17.4-0.8-17.7-5.6-18.2 1.5-18.8 19.2-19.4 28.3-19.2 8.9-19.3 9.1-22.8-8.5-22.4-8.3-22.2-8.1-21.7-8.1-21.6-8.1-21.2-7.8-21.2-67.4"/>
	<path id="Layer" class="s0" d="m472.2 117.4l-9.3 30.4-10.6 34.8-20 91.1-19.9 8.6-20.1 8.7-21.3-8.1-20.6-59.3-0.9-2.3-11.1-13.5-9.7-11.8h-0.1l-0.1-0.4-6.4-4.7-5.1-3.9-1.3-1-7.8-5.8-0.6-0.4-21.2 3.2-13.6 16-7.4 8.5-5.7 3.6-15.9 9.9-20.5-0.1-8 2.7-11.9 4.2-5.4 4.8-11.6 10.9-4.5 4.2-21.3 32.1-21.6 26.3-22.4 15-19.9-8.6-19.6-8.4-19.4-8.2-19-8.2-18.9-8-18.5-8"/>
	<path id="Layer" class="s0" d="m455.6 125.1l-6.9-21.4-19.3-64.3"/>
	<path id="Layer" class="s0" d="m513.4 129.5l40.1 44.8 7.6 12.1 14.2 22.7"/>
	<path id="Layer" class="s0" d="m472.2 117.4l16.3 40.2 5.1 13.1-20.2 102.5-19.5 8.6-19.9 8.7-21.6-8.2-21.2-7.9-21.2-35.5 19.9-40.4 19.6-160.5"/>
	<path id="Layer" class="s0" d="m244 187.2l21.1 20.3 20.9 2.9 19.7 44.8"/>
	<path id="Layer" class="s0" d="m817.1 260.2l-23.5-7.7-16.9 8.3-17.1 8.3-17.4 7.4-17.6 8.1-23.3-10.6-17.8 3.4-18.2 8.4-18.6 14.6-19 13.1-23.3-8.4-22.9-8.3-22.7-8.2-22.4-8.1-21.1-69.4-21.7-40.4 19.8-41.2"/>
	<path id="Layer" class="s0" d="m748.2 294.4l-23.6-9.8-17.9 7.5-18.1 8.1-18.5 11.4-23.4-11.2-23.2-13.7-22.6-18.2-22.2-29.2-21.9-38.9"/>
	<path id="Layer" class="s0" d="m408 1l4.9 8.7 16.5 29.7 22.8 73.1 4.8 12"/>
	<path id="Layer" class="s0" d="m472.2 117.4l19 37.2"/>
	<path id="Layer" class="s0" d="m330 306.7l-21.8 34.6-22 26.8-22.5 16"/>
	<path id="Layer" class="s0" d="m352.5 326.1l-21.7 30.6-22.3 21.5-22.6 15.5"/>
	<path id="Layer" class="s0" d="m513.4 129.5l-22.2 25.1"/>
	<path id="Layer" class="s0" d="m712.4 312.3l-23.8-12.1-23.3-14.4-22.7-23.6"/>
	<path id="Layer" class="s0" d="m642.6 262.2l-19.1 24.5-19.1 18.4-19 9-19.4 9.2-19.6 9.3-20.1 9.5-20.2 9.6-20.7 9.6-20.8 10-21.2 6.9-21.6 2.5-21.9 15.1-22.3 15.3-23.4-11-22.9-10.7-22.8-11.2-22.3-10.1-22-10.4-21.7-9.7-21.4-9.9-21.1-10.4-20.8-8.4-20.4-6.7-20.1-6.5-19.9-8.1-19.5-6.5-19.3-6.4-22.6 10.8"/>
	<path id="Layer" class="s0" d="m264.3 217l-20.9 52.5-21.5 30.9-21.9 27.3-22.4 19.5"/>
	<path id="Layer" class="s0" d="m338.4 207.8l9.6-28.1 4.4-9.9 9.7-21.4 5.2-11.7 6.4-15.9"/>
	<path id="Layer" class="s0" d="m362.5 137.3l13.7-25.5"/>
	<path id="Layer" class="s0" d="m286 243.4l-21.3 41.5-21.5 33.9-22.1 19.3-22.5 18.2"/>
	<path id="Layer" class="s0" d="m310.2 258l18.8-21.5"/>
	<path id="Layer" class="s0" d="m307.7 266.7l-21.2 36.9-21.9 22.5-22.1 21.9-22.5 17.5"/>
	<path id="Layer" class="s0" d="m376.4 382.9l-22.2 17.2-22.7 13.1-22.9-9.8"/>
	<path id="Layer" class="s0" d="m244 187.2l-1.3 1.7-7.2 12-12.5 20-3.4 4.8-17.7 25-21.4 33.6-21.7 28.3-22.4 17"/>
	<path id="Layer" class="s0" d="m370 238.9l-18.3-15.9"/>
	<path id="Layer" class="s0" d="m140.5 273l-21.7 25-22.4 14.5"/>
	<path id="Layer" class="s0" d="m515.1 410.3l-24.2-10.4-21.6 9.9-21.9 11.3-23.9-12.6-22.3 12.8-23.6-10.2-22.7 12-23.4-9.9"/>
	<path id="Layer" class="s0" d="m536.3 399.7l-24.3-9.5-23.9-9.6-21.2 7.4-21.5 8.7-21.9 11.8-23.6-12.7-23.5-12.9"/>
	<path id="Layer" class="s0" d="m142.8 256.4l-21.6 15.8-21.9 19.3-22.5 12.6"/>
	<path id="Layer" class="s0" d="m617.6 359.3l-24.2-9-19.9 9.8-20.1 9.8-20.5 10.1-20.9 10.2-21.1 9.7-24-11.9-23.5-9.8-23.3-8.9-23-20.3-14.4-12.2-8.3-7-15.7-12.1-6.7-5.2-22.2-25-22.1-20.8-21.7-23.3-21.7-26.4"/>
	<path id="Layer" class="s0" d="m637.1 349.6l-24-8.9-23.7-8.7-19.6 9.5-20 9.5-20.2 9.7-20.6 10-20.9 9.9-23.5-9.3-23.2-9.2-22.9-9.6-4-3-18.7-13.6-10.3-13.6-5.9-8-6.2-8.1-6.3-8.2-7.8-10.2-8-10.5-2-0.8-20.3-40-11.2-22.9-10.6-21.8-21.1-8.8-20.3 13.2-21.8-9.1"/>
	<path id="Layer" class="s0" d="m675.4 330.6l-24.1-8.5-23.6-8.6-19 9.2-19.3 9.3-23.4-8.7-23-8.5-19.8 9.2-20 9.3-20.3 9.4-20.6 9.6-20.9 9.8-21.3 7.2-21.6 0.7-22.1 12.9-23-12.4-22.6-13.8-22.6-15.4-22-12.1-21.6-3.1-21.4-7.3-21.3-18.4-21-12.9-20.4-3.2-20.2-4.5-19.8-6.8"/>
	<path id="Layer" class="s0" d="m409.5 38l-21.1 62.9-20.4 39.7-8 15.7-12 23.4-19.3 16.3"/>
	<path id="Layer" class="s0" d="m449.7 442.9l-22.7 11.2-24.4-10.4"/>
	<path id="Layer" class="s0" d="m471.9 431.8l-22.2 11.1-24.4-10.7-22.7 11.5-24-10.4"/>
	<path id="Layer" class="s0" d="m38.4 287.7l22.5-9.7 22.3-11.4 21.9-10.6 6.7-2.6 14.9-5.8 21.6-6.6 21.1-6.1 20.9-5.2 15.1-5.8"/>
	<path id="Layer" class="s0" d="m493.7 421l-21.9 10.8-24.4-10.7-22.1 11.1-24.1-10.9-22.6 12-23.7-10.2"/>
	<path id="Layer" class="s0" d="m244 187.2l-1.3 1.7-11.2 10.5-0.8 0.7-6.3 6.1-4 4-10.8 11.2-1.7 1.6-4.8 4.8-5.4 4.8-13.7 11.4-12.5 2.2-9.5 1.7-2.4 1-16.8 7.5-19.1-1.9-4.8 3.6-16.8 12.6-18.9-4.1-18.8-4.8-22.2 8.7-22.7 9.2"/>
	<path id="Layer" class="s0" d="m241.6 374.7l22.6-17 22-28.5 12.5-15.1 9.3-11.2 21.8-15.4 21.5-10.2"/>
	<path id="Layer" class="s0" d="m364.5 140.7l-4.9 6.9-2.9 4.2-3 4.3-6.2 8.8-3 2.5-7.3 5.9-9.2 2.1-2.5 0.7-16.4-6.7-18.6-5.4-18.9 7-19.1 7.2-19.4 7.2-19.6 7.3-20.1 7.4-20.2 7.6-20.4 7.5-20.8 7.8-21.1 7.8-21.4 8-21.7 8-21.9 8.2-22.2 8.3"/>
	<path id="Layer" class="s0" d="m408 1l-19.6 99.9-19.3 106-17.6 15.7"/>
	<path id="Layer" class="s0" d="m557.2 389.4l-20.9 10.3-21.2 10.6-21.3 10.7-24.5-11.2-23.9-13.1-23.6-16-23.3-10.7-23.1-21.5-22.9-22.4"/>
	<path id="Layer" class="s0" d="m349.3 276.5l-19.8-6.8-21.5-9-22.1-17.3"/>
	<path id="Layer" class="s0" d="m783.2 277l-23.6-7.9-23.3-8.7-23.2-6.8-17.3 6.9-17.4-0.2-8.6-2.7-14.4-4.4-11-8.2-11.2-8.4-4.8-1.6-12.8-4.6-4.3-1-10.4-2.4-7.5-1.7-0.1-0.1"/>
	<path id="Layer" class="s0" d="m577.6 379.2l-20.4 10.2-24.3-9.4-23.9-9.3-23.6-9.4-23.1-9-22.9-9-22.6-8.8-21 1.4-21.4-6.1-21.9-3.7-11.9-10.3-10.6-9.1"/>
	<path id="Layer" class="s0" d="m597.7 369.3l-20.1 9.9-24.2-9.3-23.8-9.2-23.5-9-23.2-9-22.9-8.8-22.4-8.7-22.3-8.5-15.3 6.8"/>
	<path id="Layer" class="s0" d="m329.5 269.7l-21.8-3"/>
	<path id="Layer" class="s0" d="m656.4 340.1l-19.3 9.5-19.5 9.7-19.9 10-24.2-9.2-23.7-9.1-23.5-8.9-23.1-8.8-22.8-8.7-22.5-8.6-22.2-8.4-21.9-8.3-20.4 8.9-10.2 4.4"/>
	<path id="Layer" class="s0" d="m533 179.6l20.7-5.2 12.8 9.7 5.3 4.1 4.3 7.5 11.5 19.9"/>
	<path id="Layer" class="s0" d="m553.7 174.4l-18.9 9.5-19.5 27.2-20.2 70.1-19.5 8.7-19.7 8.8-20.2 8.9-20.4 9.1-21.9-8.5-11.3-4.4-10.2-4-3-2.9"/>
	<path id="Layer" class="s0" d="m800.2 268.6l-23.5-7.8-23.3-7.7-17.1 7.3-17.4 5.9-17.6 7.7-15.7-9.4-7.2-4.3-17.6-1.2-18.2 3.1-22.9-12.9-22.2-20.4-4.2-3.7-0.2-0.3-17.8-15.9-18.5-8.6-22-16.5-1.8-4.3-19.6-50.1-41.2-12.1-14.7 8.2-1.5 0.8-5.4 3-19.7 7.2"/>
	<path id="Layer" class="s0" d="m694 321.4l-18.6 9.2-19 9.5-24.1-8.7-23.6-8.7-23.3-8.6-23.1-8.4-22.7-8.3-19.4 8.9-19.8 9.1-22.4-8.4-22.1-8.3-21.9-8.2-20.2 8.8-21.5-8.3-14.8 6.4"/>
	<path id="Layer" class="s0" d="m747.4 237.5l-17 7.9-22.7-7.4-22.4-7.4-22-7.3-21.9-7.2-21.5-7.2-21.3-6.9-19.4-6.5"/>
	<path id="Layer" class="s0" d="m730.5 303.3l-18.1 9-18.4 9.1-23.9-9.8-18.8 10.5-19 9.3-19.2 9.3-19.7 9.6-23.6-8.8-23.4-8.9-23.2-8.6-22.8-8.6-20 9.2-20.4 9.3-20.6 9.4-20.9 9.2-21.4-3.5-21.7-0.5-22 22-22.1 18.9-22.7 14-22.6-9.7-22.3-9.6-22-9.4-21.7-9.2-21.4-9.2-21-9.1-20.8-8.8-20.4-8.8-20.1-8.5"/>
	<path id="Layer" class="s0" d="m409.6 38l19.8 1.4"/>
	<path id="Layer" class="s0" d="m290.5 164l18.7-6.9 18.4-6.8 18.6 5.4 6.1 0.2"/>
	<path id="Layer" class="s0" d="m230.7 200.1l-0.5 0.1-18.1 7-20.3 6.6-20.4 8.6-20.9 6.9-21 7.3-21.4 9.2-21.6 7.3-22.1 8.7-18.5-6.8"/>
	<path id="Layer" class="s0" d="m173.9 242.2l-6.8 1-21.5 4.6-21.9 6.7-18.6 1.5-18.6-2.9-18.7-6.3"/>
	<path id="Layer" class="s0" d="m343.2 167l-15.5-4.4-18.5-5.5"/>
	<path id="Layer" class="s0" d="m327.6 150.3l18.1-6.8 16.8-6.2"/>
	<path id="Layer" class="s0" d="m325.5 176.1l-16.5 3.5-18.8-3.1-18.6-5.5"/>
	<path id="Layer" class="s0" d="m231.5 199.4l-18-6.7"/>
	<path id="Layer" class="s0" d="m167.1 243.2l-18.8-2.2-18.8-4.4-18.6-5.8"/>
	<path id="Layer" class="s0" d="m270.2 184.5l-17.7-6.3"/>
	<path id="Layer" class="s0" d="m680.4 215.6l-17.1 7.7-17.4 7.8-15.7 3.5"/>
	<path id="Layer" class="s0" d="m702.4 222.8l-17.1 7.8-17.1 4.8-17.6 7.1-17.4-5.9-0.5-0.2"/>
	<path id="Layer" class="s0" d="m613.9 228.3l10.1-4.5 17.4-7.7 17.2-7.7"/>
	<path id="Layer" class="s0" d="m601 217.2l1.5-0.6 17.4-7.7 17.2-7.4"/>
	<path id="Layer" class="s0" d="m615.8 194.6l-17.2 7.4-9.1 3.9"/>
	<path id="Layer" class="s0" d="m173.2 207.7l18.6 6.1 16.7 7.2"/>
	<path id="Layer" class="s0" d="m594.9 187.7l-16.6 7"/>
	<path id="Layer" class="s0" d="m457 124.5l15.2-7.1"/>
	<path id="Layer" class="s0" d="m159.6 248.9l-14-1.1-18.9-0.2-18.6-1.8-18.6-7"/>
	<path id="Layer" class="s0" d="m337.2 173.3l-9.1 7.3-11.1 6.4"/>
	<path id="Layer" class="s0" d="m345.7 143.5l11.5 3.4"/>
	<path id="Layer" class="s0" d="m322.1 190.9l6-10.3"/>
	<path id="Layer" class="s0" d="m132 223l18.5 6.3 18.9 5.6 9.7 4.6"/>
	<path id="Layer" class="s0" d="m242.4 188.8l-9.3-3.4"/>
	<path id="Layer" class="s0" d="m220.1 210.2l-8-3-18.7-7.1"/>
	<path id="Layer" class="s0" d="m574.2 180.9l-7.7 3.2"/>
	<path id="Layer" class="s0" d="m196 231.3l-5.7-1.6-18.9-7.3-18.6-7.2"/>
	<path id="Layer" class="s0" d="m724.7 230.1l-17 7.9-17.2 8.1-22.3-10.7-22.3-4.3-21.9-7.3-21.5-7.2-3.2-1"/>
	<path id="Layer" class="s0" d="m765.9 285.7l-23.7-9.2-23.3-10.2-23.1-5.8-22.8-6.3-22.4-11.7-17.4-5.9-0.5-0.2-3.8-1.5-9.3-4.1-5.8-2.4-2.2-1-0.5-0.2-2.2-0.3"/>
	<path id="Layer" class="s0" d="m307.9 180.2l1.1-0.6"/>
	<path id="Layer" class="s0" d="m770.3 244.9l-22.9-7.4-22.7-7.4-22.3-7.3-22-7.2-21.8-7.2-21.5-6.9-21.3-6.9-20.9-6.9-20.7-6.8-20.4-6.7-0.4-0.1"/>
	<path id="Layer" class="s0" d="m408 1l-3.7 13.5-28.1 97.3"/>
	<path id="Layer" class="s0" d="m349.8 221l14.6-64.4 3.6-16 14.4-40.2 5-14.1 20.6-85.3"/>
	<path id="Layer" class="s0" d="m156.8 338.4l22.4-19.1 21.7-31.8 21.2-39.6 21.4-26.9 20.8-4 21.7-6.6 21.2-18.6 21.3 3.8 0.1 0.4v0.2l6.1 22.3 12 44.2"/>
	<path id="Layer" class="s0" d="m349.5 221.3l1.9 1.5 0.4 0.1 17.3-16 20.8-8.4"/>
	<path id="Layer" class="s0" d="m357.7 284.3l-6.4-7.2-0.4-0.5-0.5-0.3-20.5-38.1-0.9-1.7"/>
	<path id="Layer" class="s0" d="m272.4 184.4l8.3-3.8 9.5-4.1 18.9-7.1 18.6-6.8 18.5-6.9 7.8-2.9"/>
	<path id="Layer" class="s0" d="m328 175.4l-1.3 1.2-11 9.4"/>
	<path id="Layer" class="s0" d="m347.5 164.9l-1.8 2.9-2.4 4-14.7 24"/>
</svg>