<svg width="818" height="530" viewBox="0 0 818 530" fill="none" xmlns="http://www.w3.org/2000/svg">
<path d="M340.803 323.545L334.952 299.994L327.2 276.297L317.691 252.746L306.428 230.073L302.624 223.637L293.555 208.277L288.143 200.671L279.22 187.945L263.568 169.367" stroke="#474747" stroke-width="0.5" stroke-linecap="round" stroke-linejoin="round"/>
<path d="M380.007 128.701L396.098 144.938L411.165 163.223L424.915 183.117L437.056 204.327L447.735 226.562L456.365 249.381L463.24 272.493L468.214 295.313L471.139 317.693L472.017 339.05L471.139 359.236L468.36 377.814L463.825 394.49L457.681 409.117L450.075 421.405L441.298 431.206L431.498 438.52L420.819 443.2L417.162 444.224L403.705 448.028L386.005 442.177L372.986 427.841L367.428 408.094L371.23 388.785L378.106 385.42L384.25 380.447L389.808 373.864L391.709 370.354" stroke="#474747" stroke-width="0.5" stroke-linecap="round" stroke-linejoin="round"/>
<path d="M179.752 488.401L157.518 486.645L137.916 475.967L126.653 459.584L126.068 441.445" stroke="#474747" stroke-width="0.5" stroke-linecap="round" stroke-linejoin="round"/>
<path d="M3.48631 350.314L1.58497 328.518L1 306.43L2.02352 284.488" stroke="#474747" stroke-width="0.5" stroke-linecap="round" stroke-linejoin="round"/>
<path d="M489.277 91.5461L506.245 105.296L522.043 121.387L536.671 139.233L549.982 158.542L561.685 179.167L571.631 200.67L579.823 222.758L585.967 244.992L590.209 266.934L592.403 288.291L592.696 308.77L591.087 327.932L587.722 345.632L582.457 361.43L566.804 366.843L547.203 364.502L529.503 354.555L518.971 340.659L517.655 325.446L520.142 317.4L520.288 317.108L520.873 314.914L522.921 304.089V303.358L523.214 301.31L523.945 290.778L523.799 281.27L523.652 277.613L523.214 273.371L522.336 265.91L522.189 263.862L520.58 255.232L520.288 254.354L519.702 252.306L516.192 239.58L515.9 238.849L510.78 225.099L510.341 224.075L508 218.662L504.343 211.056L503.466 208.862L495.859 195.55L495.274 194.526L492.495 190.43L486.205 181.069L485.913 180.776L476.258 168.781L468.651 161.028L465.434 157.664L463.678 156.201L460.752 154.007L460.314 153.861L459.436 153.276L455.925 150.496L454.023 148.156L450.951 146.693L449.635 146.547L438.664 140.842L436.031 139.233L430.18 133.821L417.893 129.286L405.751 126.36L393.611 125.336L386.15 109.831L384.541 89.6446L389.514 70.9208L399.315 59.0723L417.307 60.3888L435.592 64.192L453.877 70.7746L471.87 79.8438L489.277 91.5461ZM489.277 91.5461L500.979 88.6205L510.926 96.9585L511.219 97.251L517.363 102.224L520.873 105.735L522.043 106.905L522.336 107.198L528.041 113.049L532.867 118.022L541.059 127.677L545.155 132.797L547.203 135.43L552.03 142.012L554.517 145.815L558.613 151.959L559.344 152.837L560.222 154.153L561.538 155.616L571.631 174.194L581.139 195.111L582.457 198.33L587.722 212.957L588.893 216.468L594.744 237.825L598.693 259.035L600.887 279.514L601.034 299.262L600.595 303.065L600.449 304.674V305.991L600.01 310.379L599.717 314.036L599.279 317.547L597.523 326.616L597.377 327.201V327.347L595.914 334.369L594.012 340.366L592.257 345.779L590.94 349.582L588.6 353.531L582.457 361.43L578.214 370.5L577.922 371.67L575.874 375.181L560.222 380.593L552.323 392.149L543.107 401.364L533.16 408.239L521.897 412.482L510.341 414.091L494.104 409.702L481.816 396.245L476.697 377.96L479.037 365.234L480.207 358.797L489.423 347.095L491.471 344.608L498.638 343.145L505.514 340.22L506.977 339.196L507.123 339.05L511.803 335.685L513.413 334.515L514.144 333.345L517.655 325.446" stroke="#474747" stroke-width="0.5" stroke-linecap="round" stroke-linejoin="round"/>
<path d="M458.265 219.395L466.164 239.581L466.603 242.945L470.698 254.648L472.308 259.914L473.039 265.18L475.087 273.079L476.696 280.1L477.574 287.414L477.72 287.853L479.329 299.848L480.499 308.917L481.084 324.276L481.231 325.739L481.377 329.542L481.084 330.274L481.231 332.029L481.084 334.808L480.792 340.952L480.646 343.585L480.499 348.412V348.851L479.037 358.798L477.72 366.697L475.672 374.157L474.795 377.961L473.478 382.788L470.26 390.394L469.09 393.174L468.359 394.929L467.627 396.831L465.872 399.317L463.677 402.243L460.313 408.679L455.193 415.116L450.074 421.405L432.666 426.379L413.065 421.698L397.267 409.264L388.49 391.565L393.756 382.495L397.852 371.671L400.924 359.53L402.679 346.072L403.118 331.59L402.533 320.034L402.24 316.231V315.353" stroke="#474747" stroke-width="0.5" stroke-linecap="round" stroke-linejoin="round"/>
<path d="M129.872 523.653L113.05 510.049L104.566 490.301L106.468 468.799L112.758 459.729L118.024 452.269L118.17 451.976L120.364 450.514" stroke="#474747" stroke-width="0.5" stroke-linecap="round" stroke-linejoin="round"/>
<path d="M547.35 135.283L549.689 138.209" stroke="#474747" stroke-width="0.5" stroke-linecap="round" stroke-linejoin="round"/>
<path d="M139.232 333.345L136.16 312.72L134.551 291.802L134.404 270.592L135.575 249.674" stroke="#474747" stroke-width="0.5" stroke-linecap="round" stroke-linejoin="round"/>
<path d="M636.873 80.7224L633.069 77.5044L632.192 76.773L621.513 67.7038L621.221 67.4111L611.713 61.1212L604.984 56.4402L604.545 56.1477L594.598 56.294L582.018 65.3632L570.609 80.2837L562.563 97.9834L560.808 113.05L564.465 119.34L565.489 121.095L569.146 123.582L570.609 124.606L576.167 128.409L582.896 134.261L586.406 137.332L590.503 141.575L591.234 142.452L593.428 144.646L596.061 147.279L599.133 151.375L599.718 151.96L604.838 158.397L610.982 167.758L612.737 170.391L614.784 174.341L618.881 181.655V181.801L619.758 183.264L624.732 194.82L625.61 196.575L626.195 198.331L629.267 207.254L630.29 210.326L631.168 213.397L632.631 219.541L633.801 224.076L635.118 231.975L636.141 237.826L636.726 244.555L637.165 251.284V253.478L637.019 258.597V264.156L635.556 276.297L635.118 278.345L634.678 279.808L632.923 287.561L630.436 294.289V294.436L629.998 295.606L629.705 296.337L629.12 297.361L628.389 298.093L626.341 300.726L620.49 306.284L618.734 307.454L615.37 309.502L614.053 310.234L606.885 313.013L605.569 315.061L598.548 325.593L597.524 327.202L597.085 330.859L596.939 333.053L595.768 345.341L602.351 363.333L615.516 375.62L630.875 378.985L642.577 375.182L653.403 368.891L663.349 360.261L672.126 349.144L679.586 335.979L693.19 330.567L694.068 329.835L694.799 328.226L700.357 317.84L700.504 317.548L703.869 307.893L706.063 303.212L708.842 290.34L710.158 287.122L710.597 283.904L710.89 281.271L711.036 280.832L711.328 278.784V278.199L712.499 269.568L713.084 250.991L711.768 231.39L708.549 211.057L703.429 190.724L696.555 170.245L687.778 150.205L677.246 131.042L666.275 114.367L665.251 112.758L662.618 109.539L661.74 108.515L652.525 96.9595L652.232 96.6668L652.085 96.3744L651.647 95.9355L651.208 95.4967L641.115 84.9645L640.237 84.2332L636.873 80.7224ZM636.873 80.7224L628.096 81.7465L611.859 67.85L601.912 61.1212L594.598 56.294L576.898 47.0783L574.558 46.2007L558.906 40.3495L554.518 39.3257L540.621 36.1074L529.651 45.6155L522.19 61.8526L519.85 81.4538L523.507 98.4223L530.967 106.906L531.405 107.638L531.845 107.93L543.108 110.71L549.983 113.343L554.372 115.098L563.88 120.218" stroke="#474747" stroke-width="0.5" stroke-linecap="round" stroke-linejoin="round"/>
<path d="M500.979 88.6218L492.787 83.2096L489.57 81.1617L489.13 80.8692L483.719 77.2122L476.843 73.7015L466.019 68.2891L453.877 70.7759L441.59 82.1855L431.79 100.032L427.693 119.194L430.18 133.822L437.201 137.479L442.321 140.112L450.952 146.695L454.024 149.62L455.926 150.498L459.583 152.984L460.752 154.009L465.434 158.25" stroke="#474747" stroke-width="0.5" stroke-linecap="round" stroke-linejoin="round"/>
<path d="M266.205 483.281L250.115 470.701L241.338 451.246L242.362 431.06L248.945 427.403L254.649 417.895L258.745 411.02" stroke="#474747" stroke-width="0.5" stroke-linecap="round" stroke-linejoin="round"/>
<path d="M140.988 392.442L139.819 392.295L132.651 387.614L128.994 385.42L128.263 384.835L127.531 374.449" stroke="#474747" stroke-width="0.5" stroke-linecap="round" stroke-linejoin="round"/>
<path d="M140.256 529.504L120.508 526.286L104.564 512.536L97.1035 492.788L99.737 470.993L107.051 460.899L112.024 454.024L118.753 451.099L120.362 450.514L122.41 449.051" stroke="#474747" stroke-width="0.5" stroke-linecap="round" stroke-linejoin="round"/>
<path d="M83.2079 414.092L64.1917 420.528L47.5161 433.547L38.3008 449.345L38.8858 463.095" stroke="#474747" stroke-width="0.5" stroke-linecap="round" stroke-linejoin="round"/>
<path d="M252.745 414.383L248.943 420.526L242.36 431.058L235.192 432.814L227.586 432.668L219.687 430.766L215.006 428.426" stroke="#474747" stroke-width="0.5" stroke-linecap="round" stroke-linejoin="round"/>
<path d="M123.434 446.711L114.657 450.368L105.442 454.317L101.054 460.022L92.5691 471.286L89.0586 492.935L95.4947 512.683" stroke="#474747" stroke-width="0.5" stroke-linecap="round" stroke-linejoin="round"/>
<path d="M177.118 513.706L159.272 521.313L138.355 518.387L120.801 505.076L111.439 485.767L112.463 464.703L117.876 456.804L122.118 450.66" stroke="#474747" stroke-width="0.5" stroke-linecap="round" stroke-linejoin="round"/>
<path d="M560.224 380.593L541.062 377.521L524.093 366.55L514.146 351.191L518.973 340.659L522.485 328.811L520.875 314.914" stroke="#474747" stroke-width="0.5" stroke-linecap="round" stroke-linejoin="round"/>
<path d="M466.017 68.2881L465.285 67.9956L461.335 66.5328L448.755 61.9982H448.463L447.878 61.7056L445.684 61.2668L429.886 57.9023L417.305 60.3892L406.627 72.0915L400.045 90.8151L399.752 111.002L405.75 126.361L409.699 129.286L416.428 133.967L416.72 134.114L427.545 136.6L436.03 139.233L438.662 140.842" stroke="#474747" stroke-width="0.5" stroke-linecap="round" stroke-linejoin="round"/>
<path d="M383.224 283.173L379.274 264.449L376.788 245.14L376.057 233.584" stroke="#474747" stroke-width="0.5" stroke-linecap="round" stroke-linejoin="round"/>
<path d="M340.801 323.545L323.687 331.444L302.769 336.418L282.436 337.441L269.125 333.931L266.346 327.348" stroke="#474747" stroke-width="0.5" stroke-linecap="round" stroke-linejoin="round"/>
<path d="M320.912 464.703L304.09 472.895L284.489 470.993L266.497 459.291L255.672 441.152L254.795 421.99L260.06 414.822" stroke="#474747" stroke-width="0.5" stroke-linecap="round" stroke-linejoin="round"/>
<path d="M274.099 488.108L255.96 485.621L245.136 485.182L234.019 482.111L222.755 476.552L222.609 476.259L213.832 467.775L210.468 464.411L209.59 460.754" stroke="#474747" stroke-width="0.5" stroke-linecap="round" stroke-linejoin="round"/>
<path d="M120.801 439.837L102.808 437.35L96.08 431.06L89.4974 423.161L83.207 414.092" stroke="#474747" stroke-width="0.5" stroke-linecap="round" stroke-linejoin="round"/>
<path d="M208.128 466.167L198.035 481.087L192.331 494.545L185.31 505.516L167.317 513.122L145.96 510.343L127.675 497.617L117.582 479.039L122.702 470.263L126.652 459.584L129.577 447.297L128.699 430.621" stroke="#474747" stroke-width="0.5" stroke-linecap="round" stroke-linejoin="round"/>
<path d="M392.443 449.93L375.475 444.079L363.48 429.597L359.092 409.704L363.919 390.249L372.988 380.448L376.207 376.937L383.081 375.328" stroke="#474747" stroke-width="0.5" stroke-linecap="round" stroke-linejoin="round"/>
<path d="M441.294 431.206L424.033 436.179L405.017 430.913L390.097 417.602L382.197 399.025L384.246 380.447" stroke="#474747" stroke-width="0.5" stroke-linecap="round" stroke-linejoin="round"/>
<path d="M113.634 433.253L96.0809 431.059L77.5032 438.08L61.9975 453.147L54.6836 471.87L57.0242 488.4" stroke="#474747" stroke-width="0.5" stroke-linecap="round" stroke-linejoin="round"/>
<path d="M498.642 343.146L496.009 346.657L488.11 357.336L485.623 376.352L491.767 394.637L505.078 408.094L521.9 412.483L533.017 408.241L548.23 402.682L558.47 395.953L567.686 386.884L575.877 375.182L577.925 371.671L578.656 371.086L582.606 365.381L583.776 363.772L584.508 362.602L588.603 353.532L590.944 349.583" stroke="#474747" stroke-width="0.5" stroke-linecap="round" stroke-linejoin="round"/>
<path d="M510.926 96.9594L505.514 80.1374L506.099 60.3897L512.243 44.1526L522.628 34.6445L540.913 35.9611L551.738 36.5462" stroke="#474747" stroke-width="0.5" stroke-linecap="round" stroke-linejoin="round"/>
<path d="M591.818 203.012L595.036 220.272L599.717 236.948L605.568 252.746L612.59 267.374L620.489 280.832L629.266 292.973L630.436 294.289" stroke="#474747" stroke-width="0.5" stroke-linecap="round" stroke-linejoin="round"/>
<path d="M386.15 372.401L385.126 372.255L381.908 371.378L379.275 370.5L371.522 367.428L364.208 362.601L357.187 356.457L353.822 357.188" stroke="#474747" stroke-width="0.5" stroke-linecap="round" stroke-linejoin="round"/>
<path d="M378.839 370.646L361.871 375.035L353.825 382.788L353.24 383.373" stroke="#474747" stroke-width="0.5" stroke-linecap="round" stroke-linejoin="round"/>
<path d="M489.279 91.5469L475.675 102.079L462.802 118.462L454.903 135.43L454.025 148.157L456.805 150.351L459.438 152.984L460.316 153.862" stroke="#474747" stroke-width="0.5" stroke-linecap="round" stroke-linejoin="round"/>
<path d="M389.371 372.256L389.225 372.402L384.543 377.961L378.107 385.421L375.182 404.583L381.911 423.892L395.954 437.789L414.384 443.347L431.499 438.52" stroke="#474747" stroke-width="0.5" stroke-linecap="round" stroke-linejoin="round"/>
<path d="M505.515 340.221L502.443 344.463L495.422 354.117L493.959 372.841L501.126 390.687L515.462 403.852L533.161 408.24L537.257 406.924L548.228 402.682" stroke="#474747" stroke-width="0.5" stroke-linecap="round" stroke-linejoin="round"/>
<path d="M388.197 277.467L392.878 293.704L388.344 301.164" stroke="#474747" stroke-width="0.5" stroke-linecap="round" stroke-linejoin="round"/>
<path d="M259.475 406.192L242.799 403.559L225.099 411.019L215.884 421.843L215.299 422.721" stroke="#474747" stroke-width="0.5" stroke-linecap="round" stroke-linejoin="round"/>
<path d="M511.804 335.686L508.293 340.805L502.149 349.29L501.564 367.428L509.756 384.689L525.115 397.415L543.107 401.365L558.467 395.952" stroke="#474747" stroke-width="0.5" stroke-linecap="round" stroke-linejoin="round"/>
<path d="M614.051 310.378L612.15 313.304L605.274 324.421L604.689 342.267L612.443 359.821L626.485 371.962L642.575 375.18L657.058 368.89L667.882 362.6L677.829 353.97L686.606 342.999L686.898 342.56V342.414L687.922 340.658V340.512L688.361 339.781L693.188 330.565L694.066 329.834L694.651 328.371L699.917 314.621L703.867 307.892L706.061 303.211" stroke="#474747" stroke-width="0.5" stroke-linecap="round" stroke-linejoin="round"/>
<path d="M214.859 433.838L204.766 447.003L186.335 454.317L163.515 454.171L143.183 446.418L131.188 433.546L131.481 418.333L130.457 405.021" stroke="#474747" stroke-width="0.5" stroke-linecap="round" stroke-linejoin="round"/>
<path d="M75.0176 280.101L58.4884 280.978L38.4479 278.784L19.1395 273.957L6.70584 268.106L4.36523 262.84" stroke="#474747" stroke-width="0.5" stroke-linecap="round" stroke-linejoin="round"/>
<path d="M179.752 488.4L183.848 472.456L186.334 454.317L186.919 434.131L185.75 412.482L183.117 392.441" stroke="#474747" stroke-width="0.5" stroke-linecap="round" stroke-linejoin="round"/>
<path d="M252.157 401.22L235.92 398.733L229.046 392.443L222.61 384.836L216.466 375.913L214.418 372.256L211.492 367.137" stroke="#474747" stroke-width="0.5" stroke-linecap="round" stroke-linejoin="round"/>
<path d="M448.756 61.9985L462.945 54.2456L478.743 48.3945L495.126 45.0302L512.241 44.1523L529.648 45.6151L547.348 49.711L564.755 56.2935L582.016 65.3628L598.838 76.6263L614.636 90.2301L629.703 105.589L643.453 122.85L655.74 141.428L666.565 161.322L675.488 181.947L682.656 203.157L688.068 224.514L691.433 245.432L692.749 266.057L692.164 285.659L689.677 303.944L685.435 320.912L679.584 335.978" stroke="#474747" stroke-width="0.5" stroke-linecap="round" stroke-linejoin="round"/>
<path d="M499.223 338.904L483.864 344.317L480.646 343.585" stroke="#474747" stroke-width="0.5" stroke-linecap="round" stroke-linejoin="round"/>
<path d="M243.674 266.789L243.381 265.619L253.328 258.744L270.442 248.65L289.459 238.411L306.427 230.073L315.789 226.27" stroke="#474747" stroke-width="0.5" stroke-linecap="round" stroke-linejoin="round"/>
<path d="M392.877 293.703L398.728 308.916L394.778 318.132" stroke="#474747" stroke-width="0.5" stroke-linecap="round" stroke-linejoin="round"/>
<path d="M506.686 339.197L506.101 339.344L499.957 341.538L491.473 344.61L483.866 344.317L480.502 348.413" stroke="#474747" stroke-width="0.5" stroke-linecap="round" stroke-linejoin="round"/>
<path d="M348.702 412.189L340.803 426.232L323.981 434.278L303.356 433.985L283.316 425.647L270.151 411.312L267.518 395.514" stroke="#474747" stroke-width="0.5" stroke-linecap="round" stroke-linejoin="round"/>
<path d="M122.556 196.867L106.612 196.282L90.6676 186.189L78.3804 168.635L73.5527 148.595L77.649 131.773L89.0584 123.143" stroke="#474747" stroke-width="0.5" stroke-linecap="round" stroke-linejoin="round"/>
<path d="M620.487 306.283L619.901 307.161L618.438 309.794L612.295 320.033L612.733 337.294L621.803 354.409L636.869 365.965L653.399 368.89L667.881 362.601" stroke="#474747" stroke-width="0.5" stroke-linecap="round" stroke-linejoin="round"/>
<path d="M235.339 252.893L233.584 250.26" stroke="#474747" stroke-width="0.5" stroke-linecap="round" stroke-linejoin="round"/>
<path d="M724.201 280.393L722.885 296.337L730.344 312.72L743.949 325.008L760.771 330.42L775.691 327.056" stroke="#474747" stroke-width="0.5" stroke-linecap="round" stroke-linejoin="round"/>
<path d="M614.349 308.039L608.644 310.379L599.721 314.036" stroke="#474747" stroke-width="0.5" stroke-linecap="round" stroke-linejoin="round"/>
<path d="M215.588 414.676L205.495 426.817L186.917 434.131L163.952 435.155L143.473 429.157L131.477 418.333L130.6 402.534V402.096" stroke="#474747" stroke-width="0.5" stroke-linecap="round" stroke-linejoin="round"/>
<path d="M132.211 192.333L116.413 191.602L101.492 181.07L90.6676 162.638L87.4492 141.721L92.569 124.752L104.711 115.244" stroke="#474747" stroke-width="0.5" stroke-linecap="round" stroke-linejoin="round"/>
<path d="M624.588 306.576L626.636 322.082L637.753 337.148L654.575 347.095L672.128 349.143L686.61 343" stroke="#474747" stroke-width="0.5" stroke-linecap="round" stroke-linejoin="round"/>
<path d="M599.72 151.959L598.842 167.611L599.281 183.555L601.036 199.5L603.962 214.859L608.058 229.633L613.178 243.676L619.467 256.695L626.488 268.543L634.242 279.221L632.194 284.78L629.268 292.972L630 295.605" stroke="#474747" stroke-width="0.5" stroke-linecap="round" stroke-linejoin="round"/>
<path d="M214.71 319.303L212.37 303.944L211.199 288.292L211.053 272.641L211.931 257.281" stroke="#474747" stroke-width="0.5" stroke-linecap="round" stroke-linejoin="round"/>
<path d="M142.305 189.408L126.8 188.677L112.903 177.706L103.687 158.689L102.225 137.333L108.515 119.779L121.241 110.125" stroke="#474747" stroke-width="0.5" stroke-linecap="round" stroke-linejoin="round"/>
<path d="M47.8085 476.698L46.3457 461.485L54.6832 444.224L70.7738 430.035L89.4979 423.16L106.759 425.062L115.828 433.546L117.291 435.301" stroke="#474747" stroke-width="0.5" stroke-linecap="round" stroke-linejoin="round"/>
<path d="M124.898 444.517L109.832 442.031L91.5469 449.637L84.5251 444.664L77.504 438.081L70.775 430.036L64.1925 420.528L58.1949 409.703L52.7831 397.708L47.8097 384.689L43.7135 370.793L40.4958 356.165L38.0088 340.952L36.546 325.446L36.1074 309.795L36.6924 294.143L38.4473 278.784L41.2272 263.863L45.0299 249.382L50.1496 235.778L56.1472 223.344L63.3147 211.934L71.5064 201.695L80.7224 193.21L90.6691 186.189L101.494 181.069L112.904 177.705L125.045 176.242L137.478 176.827L150.205 179.46L157.226 187.067L160.444 190.431" stroke="#474747" stroke-width="0.5" stroke-linecap="round" stroke-linejoin="round"/>
<path d="M626.341 300.725L624.293 304.528L618.881 314.036L620.197 330.566L630.29 346.802L646.235 357.627L663.349 360.26L677.831 353.97" stroke="#474747" stroke-width="0.5" stroke-linecap="round" stroke-linejoin="round"/>
<path d="M378.543 368.014L374.741 366.551L364.208 362.602L353.822 365.088" stroke="#474747" stroke-width="0.5" stroke-linecap="round" stroke-linejoin="round"/>
<path d="M214.715 394.051L204.475 405.022L185.752 412.482L162.786 414.676L142.307 410.727L130.605 402.096L130.459 401.95L130.166 399.609" stroke="#474747" stroke-width="0.5" stroke-linecap="round" stroke-linejoin="round"/>
<path d="M352.066 395.805L344.459 408.824L327.637 416.723L306.72 417.308L286.241 410.579L272.636 398L269.564 383.811" stroke="#474747" stroke-width="0.5" stroke-linecap="round" stroke-linejoin="round"/>
<path d="M498.491 337.733L493.518 336.416L484.01 333.783L481.084 334.807" stroke="#474747" stroke-width="0.5" stroke-linecap="round" stroke-linejoin="round"/>
<path d="M729.905 273.518L729.467 288.584L737.951 304.09L752.432 315.353L769.986 320.181L785.198 316.524L793.683 306.138L801.435 293.997" stroke="#474747" stroke-width="0.5" stroke-linecap="round" stroke-linejoin="round"/>
<path d="M197.014 115.536L208.277 105.589L223.051 96.081L238.703 88.9135L255.525 84.3787L272.786 82.6234L286.244 81.4531L303.797 82.3309" stroke="#474747" stroke-width="0.5" stroke-linecap="round" stroke-linejoin="round"/>
<path d="M720.397 278.783L720.104 279.076H719.812L718.349 279.368L713.229 281.124L710.596 283.903" stroke="#474747" stroke-width="0.5" stroke-linecap="round" stroke-linejoin="round"/>
<path d="M216.319 227.878L213.979 225.537" stroke="#474747" stroke-width="0.5" stroke-linecap="round" stroke-linejoin="round"/>
<path d="M212.082 121.388L213.691 106.76L223.053 96.082" stroke="#474747" stroke-width="0.5" stroke-linecap="round" stroke-linejoin="round"/>
<path d="M485.912 180.777L485.326 195.405L486.058 214.421L488.398 233.145L491.909 251.284L496.883 268.837L503.172 285.367L510.34 300.872L518.678 315.061L520.141 317.402" stroke="#474747" stroke-width="0.5" stroke-linecap="round" stroke-linejoin="round"/>
<path d="M629.268 297.652L632.047 312.134L643.895 325.884L661.595 334.661L679.587 335.977" stroke="#474747" stroke-width="0.5" stroke-linecap="round" stroke-linejoin="round"/>
<path d="M370.938 361.284L357.188 356.457L353.385 352.215" stroke="#474747" stroke-width="0.5" stroke-linecap="round" stroke-linejoin="round"/>
<path d="M637.019 258.598L635.41 260.207L626.487 268.545L620.49 280.832L622.538 289.901" stroke="#474747" stroke-width="0.5" stroke-linecap="round" stroke-linejoin="round"/>
<path d="M477.72 366.697L468.358 377.814L450.512 383.226L429.594 381.325L411.748 372.841L400.924 359.529L400.631 345.486" stroke="#474747" stroke-width="0.5" stroke-linecap="round" stroke-linejoin="round"/>
<path d="M205.79 217.2L204.181 215.883L200.231 212.519L194.82 208.131L190.577 205.205L188.676 203.888L183.556 200.524L172 194.527L170.976 193.941L169.513 193.649L160.444 190.431L156.201 189.553L151.082 188.529L149.327 188.09L149.034 188.383L142.305 189.407L132.212 192.332L122.557 196.867L116.56 200.963L116.121 201.255L113.635 202.864L97.3978 202.572L80.7222 193.21L66.9714 176.681L60.8281 157.811L63.6073 142.305L77.5038 132.358L89.0596 123.142L104.712 115.244L121.241 110.124L138.502 107.783L156.494 108.222L174.779 111.587L188.968 112.757L197.014 115.536L198.915 116.121L199.062 116.267L199.5 116.414L206.814 118.901L212.08 121.387L214.859 122.85L224.514 127.531L228.317 130.018L237.386 135.869L242.067 138.794L248.503 144.207L257.28 151.228L258.743 152.545" stroke="#474747" stroke-width="0.5" stroke-linecap="round" stroke-linejoin="round"/>
<path d="M208.861 316.523H194.672L175.216 319.01L156.2 323.691L143.328 328.811L139.232 333.345L143.474 353.386" stroke="#474747" stroke-width="0.5" stroke-linecap="round" stroke-linejoin="round"/>
<path d="M308.627 214.275L322.67 215.445L334.226 213.836L336.42 209.594" stroke="#474747" stroke-width="0.5" stroke-linecap="round" stroke-linejoin="round"/>
<path d="M212.812 221.442L218.079 208.277L230.804 192.333L247.188 178.29L263.571 169.367" stroke="#474747" stroke-width="0.5" stroke-linecap="round" stroke-linejoin="round"/>
<path d="M734.883 265.473L735.175 279.369L729.471 288.585L722.888 296.337L715.428 302.335L707.236 306.87L704.311 307.747" stroke="#474747" stroke-width="0.5" stroke-linecap="round" stroke-linejoin="round"/>
<path d="M75.0156 280.1L77.6491 266.35L81.306 253.185L85.9865 240.897L91.5455 229.634L100.761 222.174" stroke="#474747" stroke-width="0.5" stroke-linecap="round" stroke-linejoin="round"/>
<path d="M206.664 259.913L208.713 246.016L211.638 232.705L213.978 225.537" stroke="#474747" stroke-width="0.5" stroke-linecap="round" stroke-linejoin="round"/>
<path d="M582.6 365.381L591.816 375.767L603.81 376.937L618.731 380.447" stroke="#474747" stroke-width="0.5" stroke-linecap="round" stroke-linejoin="round"/>
<path d="M206.667 259.914L192.771 260.791L173.169 259.621L153.715 256.842L140.257 253.331L135.576 249.674L138.355 229.049" stroke="#474747" stroke-width="0.5" stroke-linecap="round" stroke-linejoin="round"/>
<path d="M604.986 56.4406L604.84 56.1481L603.377 42.8367L607.034 25.722L615.372 14.8974L625.904 13.4346L643.311 12.8496" stroke="#474747" stroke-width="0.5" stroke-linecap="round" stroke-linejoin="round"/>
<path d="M693.482 330.859L701.088 342.415L714.839 348.852L727.273 347.681L741.901 344.61L753.895 341.099" stroke="#474747" stroke-width="0.5" stroke-linecap="round" stroke-linejoin="round"/>
<path d="M110.122 424.624L103.539 412.775L97.5426 399.756L92.2764 385.713L88.0345 370.939L84.5232 355.434L82.0369 339.636L80.7205 323.691L80.2812 307.747L81.0126 291.803L82.7683 276.443" stroke="#474747" stroke-width="0.5" stroke-linecap="round" stroke-linejoin="round"/>
<path d="M632.922 287.561L636.286 300.579L632.044 312.135L626.631 322.082L620.195 330.567L612.735 337.295L604.69 342.269L595.766 345.341L592.256 345.78" stroke="#474747" stroke-width="0.5" stroke-linecap="round" stroke-linejoin="round"/>
<path d="M681.635 20.1623L692.899 12.9947L706.795 6.41211" stroke="#474747" stroke-width="0.5" stroke-linecap="round" stroke-linejoin="round"/>
<path d="M704.744 121.387L707.378 124.166" stroke="#474747" stroke-width="0.5" stroke-linecap="round" stroke-linejoin="round"/>
<path d="M150.64 359.236L147.129 346.802L143.326 328.81L140.693 310.233L139.23 291.363L139.084 272.2L140.254 253.33L142.887 234.753L146.836 216.614L152.249 199.354L156.198 189.553" stroke="#474747" stroke-width="0.5" stroke-linecap="round" stroke-linejoin="round"/>
<path d="M563.443 39.3259L575.146 33.621L590.651 28.5013L607.034 25.7219L623.856 25.2832L640.825 27.1847L658.085 31.5731L675.054 38.3019L691.729 47.3713L707.82 58.6346L723.033 71.946L737.076 87.0127L750.094 103.835L761.651 121.827L771.451 140.99L779.643 160.883L786.079 181.216L790.467 201.549L793.101 221.735L793.686 241.337L792.37 259.914L789.151 277.468L784.324 293.412L777.887 307.747L769.988 320.181L760.773 330.421L750.387 338.466L734.297 332.615L721.717 319.742L715.427 302.335L717.621 285.952L724.204 280.393L729.908 273.079L731.225 271.616" stroke="#474747" stroke-width="0.5" stroke-linecap="round" stroke-linejoin="round"/>
<path d="M598.252 17.9688L590.645 28.5007L588.451 45.3228L589.183 48.2484" stroke="#474747" stroke-width="0.5" stroke-linecap="round" stroke-linejoin="round"/>
<path d="M321.788 85.8418L308.915 87.1583L296.042 98.7144L287.119 117.438L284.779 137.478L289.313 154.447L299.846 163.077" stroke="#474747" stroke-width="0.5" stroke-linecap="round" stroke-linejoin="round"/>
<path d="M338.174 183.702L340.514 170.976L349.876 154.885L364.504 139.233L380.009 128.701" stroke="#474747" stroke-width="0.5" stroke-linecap="round" stroke-linejoin="round"/>
<path d="M445.686 61.2674L456.071 53.6608L471.43 45.1767L487.814 39.1793L504.928 35.6686L522.628 34.6445L534.184 35.0834L540.912 35.9611L551.883 36.6925L556.857 37.7165L560.953 38.7404L561.538 38.8866L563.44 39.3256L569.583 40.7883" stroke="#474747" stroke-width="0.5" stroke-linecap="round" stroke-linejoin="round"/>
<path d="M698.167 114.366L694.803 110.709L699.191 99.4459L709.284 85.6957L723.034 71.9455L736.346 62.2911L745.415 59.6582" stroke="#474747" stroke-width="0.5" stroke-linecap="round" stroke-linejoin="round"/>
<path d="M738.826 255.965L739.704 268.837L749.797 281.564L765.741 290.487L784.319 293.412L799.824 289.463L807.724 279.955" stroke="#474747" stroke-width="0.5" stroke-linecap="round" stroke-linejoin="round"/>
<path d="M523.8 281.27L514.584 290.192L510.342 300.871" stroke="#474747" stroke-width="0.5" stroke-linecap="round" stroke-linejoin="round"/>
<path d="M140.986 392.443L140.401 379.716L138.354 364.064" stroke="#474747" stroke-width="0.5" stroke-linecap="round" stroke-linejoin="round"/>
<path d="M320.326 172L322.374 173.024" stroke="#474747" stroke-width="0.5" stroke-linecap="round" stroke-linejoin="round"/>
<path d="M330.568 88.9142L341.393 82.3317L356.752 76.1879L372.696 72.3847L389.518 70.9219L406.633 72.0922L424.04 75.8954L441.594 82.1853L458.855 90.962L475.677 102.079L491.913 115.537L507.273 131.042L521.316 148.303L534.334 167.173L545.744 187.213L555.545 208.278L563.59 229.781L569.734 251.576L573.976 273.225L576.317 294.289L576.609 314.476L575.147 333.492L571.782 351.046L566.808 366.844L560.226 380.594" stroke="#474747" stroke-width="0.5" stroke-linecap="round" stroke-linejoin="round"/>
<path d="M107.782 211.348L98.1275 219.394L81.5976 219.54L63.3128 211.933L47.3685 198.037L38.5918 182.093L39.3232 168.781" stroke="#474747" stroke-width="0.5" stroke-linecap="round" stroke-linejoin="round"/>
<path d="M247.332 396.83L245.43 394.782L229.047 392.441L214.857 397.854" stroke="#474747" stroke-width="0.5" stroke-linecap="round" stroke-linejoin="round"/>
<path d="M563.881 120.217L565.49 121.095" stroke="#474747" stroke-width="0.5" stroke-linecap="round" stroke-linejoin="round"/>
<path d="M461.338 66.5324L462.947 54.245L471.431 45.1758" stroke="#474747" stroke-width="0.5" stroke-linecap="round" stroke-linejoin="round"/>
<path d="M522.924 303.357L524.825 315.645L536.235 326.177L554.812 333.052L575.146 333.491L591.09 327.932L598.257 319.009L599.282 317.546" stroke="#474747" stroke-width="0.5" stroke-linecap="round" stroke-linejoin="round"/>
<path d="M115.683 201.841L114.221 202.865L105.444 210.472L98.1299 219.395L91.5474 229.634L75.0174 229.927L56.1476 223.344L39.3256 211.057L29.5253 196.722L29.3789 184.873" stroke="#474747" stroke-width="0.5" stroke-linecap="round" stroke-linejoin="round"/>
<path d="M240.165 386.444L231.534 377.521L216.467 375.912L212.664 377.082" stroke="#474747" stroke-width="0.5" stroke-linecap="round" stroke-linejoin="round"/>
<path d="M183.555 200.523L175.948 190.723L175.803 173.169L183.409 153.129L196.282 136.453L211.495 126.945L224.513 127.53" stroke="#474747" stroke-width="0.5" stroke-linecap="round" stroke-linejoin="round"/>
<path d="M683.682 4.36523L682.658 6.55942" stroke="#474747" stroke-width="0.5" stroke-linecap="round" stroke-linejoin="round"/>
<path d="M311.108 167.172L304.672 161.028L301.892 159.127L298.967 142.743L303.209 123.435L313.595 105.15L327.199 93.7399L339.778 92.1309" stroke="#474747" stroke-width="0.5" stroke-linecap="round" stroke-linejoin="round"/>
<path d="M171.998 194.527L170.974 193.942L163.075 184.141L161.027 165.71L166.732 144.792L178.288 127.531L193.062 117.877L206.812 118.901" stroke="#474747" stroke-width="0.5" stroke-linecap="round" stroke-linejoin="round"/>
<path d="M582.019 23.3809L575.144 33.6204L574.705 42.5433" stroke="#474747" stroke-width="0.5" stroke-linecap="round" stroke-linejoin="round"/>
<path d="M630.875 378.985L618.735 380.448L606.154 379.278H606.008L598.84 377.522L591.819 375.767L579.678 372.402L578.654 371.086" stroke="#474747" stroke-width="0.5" stroke-linecap="round" stroke-linejoin="round"/>
<path d="M511.221 97.2516L523.508 98.4219L535.942 101.494L548.522 106.467L560.809 113.05L566.368 116.853L572.804 121.241L584.214 131.042L591.089 138.21L595.038 142.306L599.866 148.449L602.791 152.252L604.839 154.739L613.469 167.904L613.762 168.343L614.786 170.098L620.93 181.362L621.661 182.825L626.781 194.527L628.244 197.745L631.316 206.814L633.51 213.251L637.605 228.902L640.092 244.408L641.262 259.621L640.97 274.249L639.361 287.999L636.289 300.579L648.869 312.866L667.154 320.18L685.439 320.912L699.92 314.622L701.529 308.624L704.309 297.8L706.796 279.369L707.381 259.621L706.064 238.996L702.699 217.785L697.288 196.282L690.119 174.926L680.904 154.008L669.933 133.968L657.499 114.951L643.457 97.3978L629.999 83.6476L628.097 81.7461" stroke="#474747" stroke-width="0.5" stroke-linecap="round" stroke-linejoin="round"/>
<path d="M234.166 249.528L242.65 240.605L258.448 228.464L276.733 216.762L293.555 208.278L303.502 205.645" stroke="#474747" stroke-width="0.5" stroke-linecap="round" stroke-linejoin="round"/>
<path d="M352.069 336.855L344.609 346.51L327.494 354.409L306.43 358.212L285.804 357.042L272.054 351.191L268.982 342.56" stroke="#474747" stroke-width="0.5" stroke-linecap="round" stroke-linejoin="round"/>
<path d="M103.542 412.775L94.1801 404.876L77.3581 403.852L58.1954 409.703L40.9348 421.405L30.8417 435.448L30.6953 447.589" stroke="#474747" stroke-width="0.5" stroke-linecap="round" stroke-linejoin="round"/>
<path d="M635.557 276.297L639.36 287.999L652.379 298.385L671.102 304.236L689.68 303.944L704.308 297.8L708.842 290.34L710.159 287.122" stroke="#474747" stroke-width="0.5" stroke-linecap="round" stroke-linejoin="round"/>
<path d="M228.316 130.018L225.537 118.023L228.755 100.031L238.702 88.9141" stroke="#474747" stroke-width="0.5" stroke-linecap="round" stroke-linejoin="round"/>
<path d="M427.547 136.6L417.893 129.286L413.65 114.073L415.845 94.3253L424.036 75.8942L435.592 64.1919L447.88 61.7051" stroke="#474747" stroke-width="0.5" stroke-linecap="round" stroke-linejoin="round"/>
<path d="M681.928 8.02148L692.899 12.995L703.87 25.136L706.941 31.4261" stroke="#474747" stroke-width="0.5" stroke-linecap="round" stroke-linejoin="round"/>
<path d="M510.34 414.091L498.345 413.213L497.028 412.774L488.544 410.58L482.693 408.971L470.991 405.753L466.018 399.463" stroke="#474747" stroke-width="0.5" stroke-linecap="round" stroke-linejoin="round"/>
<path d="M341.684 188.529L329.981 190.723L312.72 187.651L295.021 180.483L280.978 170.536L274.834 160.882L275.127 160.297" stroke="#474747" stroke-width="0.5" stroke-linecap="round" stroke-linejoin="round"/>
<path d="M675.345 97.543L669.347 107.636L666.275 114.365" stroke="#474747" stroke-width="0.5" stroke-linecap="round" stroke-linejoin="round"/>
<path d="M556.857 37.717L566.511 31.1344L582.017 23.3816L598.254 17.9694L615.369 14.8974L632.922 14.4586L643.308 12.8496L661.007 14.7511L663.348 15.3363L668.321 16.5066L673.295 17.6767L678.269 18.847L678.707 18.9932L681.633 20.1635L696.261 25.8683L699.771 27.6237L706.939 31.4269L713.376 34.9377L718.056 38.1557L724.932 42.8367L729.905 46.201L745.411 59.6588L759.892 74.8716L773.057 91.5475L784.759 109.686L794.706 128.849L802.898 148.742L809.334 168.929L813.869 189.262L816.356 209.156L808.749 216.177L809.334 236.217L808.018 255.233L804.8 273.079L799.826 289.463L793.243 303.944L785.198 316.524L775.69 327.056L765.305 335.248L753.894 341.099L739.267 344.317L723.761 338.173L712.351 324.716L707.232 306.87L710.304 289.901L717.618 285.952L723.322 279.223L724.2 278.199H724.347L727.126 274.981L729.905 273.079L731.221 271.617L734.878 265.473L738.828 255.965L741.754 245.579L743.655 234.315L744.24 222.321L743.655 209.741L743.07 202.427L741.9 197.014L739.998 187.799L739.12 184.581L735.463 173.464L729.612 159.275L722.444 145.671L715.277 134.261L714.253 132.944L707.378 124.168L704.891 121.242L698.162 114.367L694.798 110.71L688.508 105.883L683.827 102.665L678.122 98.7151L675.782 96.8134L670.808 94.7657L667.298 92.864L658.375 89.207L656.327 88.4756L645.21 85.5501L639.651 80.4303L636.871 77.9436L632.776 62.7306L634.239 44.4458L640.821 27.1848L650.768 16.3602L661.007 14.7511" stroke="#474747" stroke-width="0.5" stroke-linecap="round" stroke-linejoin="round"/>
<path d="M193.209 388.347L181.799 385.129L159.419 386.007L142.158 392.735" stroke="#474747" stroke-width="0.5" stroke-linecap="round" stroke-linejoin="round"/>
<path d="M214.857 122.849L225.536 118.022L240.164 114.365L255.377 112.902L271.175 114.073L287.119 117.437L303.21 123.435L319.155 131.626L334.806 142.305L349.873 154.884L364.208 169.659L377.666 186.042L389.953 204.034L400.778 223.197L410.432 243.383L418.331 264.008L424.475 284.926L429.156 305.844L431.789 326.177L432.813 345.778L432.081 364.209L429.595 381.324L425.499 396.829L419.94 410.287L413.065 421.697L405.02 430.912L395.951 437.788L386.004 442.176L375.472 444.077L364.501 443.492L353.237 440.274L343.583 426.67" stroke="#474747" stroke-width="0.5" stroke-linecap="round" stroke-linejoin="round"/>
<path d="M349.287 195.111L353.09 183.994L364.208 169.658L380.152 155.177L396.096 144.937L407.506 142.012" stroke="#474747" stroke-width="0.5" stroke-linecap="round" stroke-linejoin="round"/>
<path d="M517.364 102.225L506.247 105.296L491.911 115.536L477.723 130.749L468.068 146.254L465.436 157.957L468.653 161.029" stroke="#474747" stroke-width="0.5" stroke-linecap="round" stroke-linejoin="round"/>
<path d="M741.752 245.578L743.068 257.28L753.601 268.251L770.276 275.565L789.146 277.467L804.798 273.078L812.551 264.155" stroke="#474747" stroke-width="0.5" stroke-linecap="round" stroke-linejoin="round"/>
<path d="M543.108 110.71L535.94 101.494L534.186 84.9646L538.427 65.8021L547.351 49.7115L558.907 40.3496L569.585 40.7885L574.704 42.5438L584.944 46.4934L587.284 47.2248" stroke="#474747" stroke-width="0.5" stroke-linecap="round" stroke-linejoin="round"/>
<path d="M532.865 118.023L522.041 121.388L507.267 131.042L491.762 144.939L480.351 158.835L476.256 168.782" stroke="#474747" stroke-width="0.5" stroke-linecap="round" stroke-linejoin="round"/>
<path d="M491.619 337.148L480.795 340.952" stroke="#474747" stroke-width="0.5" stroke-linecap="round" stroke-linejoin="round"/>
<path d="M448.463 61.9982L456.069 53.6602" stroke="#474747" stroke-width="0.5" stroke-linecap="round" stroke-linejoin="round"/>
<path d="M297.506 197.16L308.33 200.524L325.884 202.718L338.025 200.67L339.927 195.258" stroke="#474747" stroke-width="0.5" stroke-linecap="round" stroke-linejoin="round"/>
<path d="M149.034 188.09L137.771 187.505L125.044 176.242L117.438 157.079L117.584 135.284L125.191 117.584L138.502 107.783" stroke="#474747" stroke-width="0.5" stroke-linecap="round" stroke-linejoin="round"/>
<path d="M547.204 135.43L536.671 139.233L521.312 148.302L504.636 160.736L491.764 172.877L486.205 181.069" stroke="#474747" stroke-width="0.5" stroke-linecap="round" stroke-linejoin="round"/>
<path d="M410.873 145.669L415.846 135.722L416.724 134.113" stroke="#474747" stroke-width="0.5" stroke-linecap="round" stroke-linejoin="round"/>
<path d="M381.908 371.377L379.275 370.5L371.522 367.428L354.407 371.67L353.822 372.255" stroke="#474747" stroke-width="0.5" stroke-linecap="round" stroke-linejoin="round"/>
<path d="M248.503 144.207L243.092 134.406L240.166 114.366L244.7 95.7887L255.525 84.3789" stroke="#474747" stroke-width="0.5" stroke-linecap="round" stroke-linejoin="round"/>
<path d="M341.976 187.506L338.173 183.996L337.734 183.264L334.662 180.631L332.614 179.022L326.471 173.756L321.058 170.831L314.329 165.564L304.674 161.03L301.895 159.128L289.315 154.447L276.881 151.668L270.592 134.261L271.177 114.074L278.491 95.0582L290.632 83.5022L303.797 82.332L321.789 85.8426L325.153 87.0129L328.81 88.1832L330.566 88.9146L339.781 92.1326L341.244 92.7178L347.681 96.0821L348.997 96.6672L356.458 100.47L357.628 101.056L372.694 110.856L372.84 111.003L374.888 112.319L390.979 125.63L391.71 126.069" stroke="#474747" stroke-width="0.5" stroke-linecap="round" stroke-linejoin="round"/>
<path d="M233.438 374.888L225.539 367.135L211.35 365.818" stroke="#474747" stroke-width="0.5" stroke-linecap="round" stroke-linejoin="round"/>
<path d="M363.626 353.239L353.24 349.729" stroke="#474747" stroke-width="0.5" stroke-linecap="round" stroke-linejoin="round"/>
<path d="M97.5424 399.755L88.7657 393.026L72.0894 392.295L52.781 397.707L34.7883 407.947L24.1102 420.088L23.2324 430.474" stroke="#474747" stroke-width="0.5" stroke-linecap="round" stroke-linejoin="round"/>
<path d="M520.58 255.38L531.259 257.574L549.397 256.257L569.73 251.576L585.967 244.994L594.744 237.826" stroke="#474747" stroke-width="0.5" stroke-linecap="round" stroke-linejoin="round"/>
<path d="M94.6176 234.315L85.9866 240.897L69.311 241.482L50.1483 235.777L32.3027 225.245L21.624 212.958L20.8926 202.572" stroke="#474747" stroke-width="0.5" stroke-linecap="round" stroke-linejoin="round"/>
<path d="M325.15 87.012L333.635 80.137L348.848 71.2138L364.792 64.6313L381.761 60.5356L394.341 58.0487L411.894 56.5859L429.886 57.9025" stroke="#474747" stroke-width="0.5" stroke-linecap="round" stroke-linejoin="round"/>
<path d="M194.82 208.131L193.357 205.937L190.285 200.963L188.676 199.208L190.285 182.825L199.793 163.955L213.836 148.01L229.487 138.648L242.068 138.795" stroke="#474747" stroke-width="0.5" stroke-linecap="round" stroke-linejoin="round"/>
<path d="M637.021 264.156L640.971 274.25L654.282 282.734L673.298 286.829L692.169 285.659L706.797 279.369L707.528 278.053L712.501 269.569" stroke="#474747" stroke-width="0.5" stroke-linecap="round" stroke-linejoin="round"/>
<path d="M63.3145 480.356L71.9455 486.646L80.5758 490.888L89.0596 492.936L97.105 492.79L104.565 490.303L111.441 485.769L117.584 479.04L117.877 458.707" stroke="#474747" stroke-width="0.5" stroke-linecap="round" stroke-linejoin="round"/>
<path d="M523.947 290.777L525.849 301.456L537.404 310.232L556.129 315.06L576.608 314.474L592.698 308.77L598.695 301.894L601.036 299.261" stroke="#474747" stroke-width="0.5" stroke-linecap="round" stroke-linejoin="round"/>
<path d="M343 292.68L334.955 299.994L317.986 307.893L297.215 314.183L277.468 317.547L264.156 316.523L262.4 311.989" stroke="#474747" stroke-width="0.5" stroke-linecap="round" stroke-linejoin="round"/>
<path d="M266.204 483.28L275.859 478.453L284.489 470.993L292.096 461.046L298.386 448.612L303.359 433.984L306.724 417.309L308.332 399.024V379.276L306.431 358.212L302.774 336.416L297.216 314.182L289.902 291.948L280.978 270.006L270.446 248.649L258.452 228.463L245.14 209.593L230.804 192.332L215.592 176.973L199.794 163.954L183.41 153.129L166.735 144.791L150.205 138.94L133.676 135.868L117.585 135.283L102.226 137.331L87.4513 141.72L73.5548 148.595L60.829 157.81L49.1267 168.927L38.5944 182.092L29.5255 196.72L21.6259 212.957L15.1898 230.511L10.2164 248.942L6.7059 268.104L4.51172 287.852" stroke="#474747" stroke-width="0.5" stroke-linecap="round" stroke-linejoin="round"/>
<path d="M465.287 67.9951L475.234 64.3381L490.447 61.2663L506.099 60.3887L522.189 61.8515L538.426 65.8009L554.517 71.9445L570.608 80.2825L585.967 90.8145L600.741 103.394L614.638 117.876L627.51 133.967L638.92 151.374L649.013 169.951L657.497 189.26L664.226 209.154L669.346 229.194L672.418 248.942L673.734 268.251L673.295 286.828L671.101 304.235L667.152 320.18L661.593 334.661L654.572 347.095L646.233 357.627L636.872 365.965L626.486 371.962L615.515 375.619L603.813 376.936L591.818 364.502L588.746 353.97" stroke="#474747" stroke-width="0.5" stroke-linecap="round" stroke-linejoin="round"/>
<path d="M705.041 120.949L710.746 111.88L722.156 99.5922L737.076 87.0123L751.119 77.9431L759.896 74.8711" stroke="#474747" stroke-width="0.5" stroke-linecap="round" stroke-linejoin="round"/>
<path d="M201.693 384.982L201.401 374.303L199.207 356.75" stroke="#474747" stroke-width="0.5" stroke-linecap="round" stroke-linejoin="round"/>
<path d="M359.822 207.839L365.088 198.623L377.669 186.043L394.783 172.878L411.166 163.224L422.137 159.713" stroke="#474747" stroke-width="0.5" stroke-linecap="round" stroke-linejoin="round"/>
<path d="M740.146 187.944L750.679 188.675L767.208 186.335L786.078 181.215L801.584 174.779L809.336 168.928" stroke="#474747" stroke-width="0.5" stroke-linecap="round" stroke-linejoin="round"/>
<path d="M554.373 115.098L551.593 111.002L548.521 106.467V90.523L554.519 71.9455L564.759 56.2938L576.899 47.0781L587.285 47.2245L589.187 48.2484L604.546 56.1475" stroke="#474747" stroke-width="0.5" stroke-linecap="round" stroke-linejoin="round"/>
<path d="M244.843 394.783L237.969 386.884L222.61 384.836L213.979 387.762" stroke="#474747" stroke-width="0.5" stroke-linecap="round" stroke-linejoin="round"/>
<path d="M341.24 92.716L341.387 82.3302L348.847 71.2129" stroke="#474747" stroke-width="0.5" stroke-linecap="round" stroke-linejoin="round"/>
<path d="M632.629 219.541L622.828 222.467L608.054 229.634L599.131 237.387L599.862 242.214" stroke="#474747" stroke-width="0.5" stroke-linecap="round" stroke-linejoin="round"/>
<path d="M335.685 270.299L327.201 276.296L310.233 284.342L289.9 291.948L270.737 297.507L258.889 299.116" stroke="#474747" stroke-width="0.5" stroke-linecap="round" stroke-linejoin="round"/>
<path d="M567.247 130.604L565.784 133.822L564.467 136.162L561.25 145.085L559.494 152.692" stroke="#474747" stroke-width="0.5" stroke-linecap="round" stroke-linejoin="round"/>
<path d="M743.654 234.314L745.117 244.554L756.088 253.77L773.056 259.328L792.366 259.913L808.017 255.232L815.624 246.895" stroke="#474747" stroke-width="0.5" stroke-linecap="round" stroke-linejoin="round"/>
<path d="M417.014 152.984L426.229 157.519L442.759 161.761L455.485 161.03L460.166 155.325" stroke="#474747" stroke-width="0.5" stroke-linecap="round" stroke-linejoin="round"/>
<path d="M678.709 18.9922L668.762 20.7475L658.083 31.5721L649.892 48.5404L646.674 66.3865L649.014 81.1606L661.009 86.1342L672.858 92.5705L676.368 95.7885L684.267 100.616L695.092 110.124L702.845 118.462L705.039 120.948L708.842 125.776L714.254 132.943L715.278 134.26" stroke="#474747" stroke-width="0.5" stroke-linecap="round" stroke-linejoin="round"/>
<path d="M89.6451 247.479L81.3077 253.184L64.7778 253.916L45.0301 249.381L26.7453 240.751L15.1894 230.511L13.873 221.734" stroke="#474747" stroke-width="0.5" stroke-linecap="round" stroke-linejoin="round"/>
<path d="M129.867 523.653L138.352 518.387L145.958 510.342L152.395 499.81L157.514 486.645L161.317 471.432L163.511 454.171L163.951 435.155L162.78 414.676L160.147 395.221" stroke="#474747" stroke-width="0.5" stroke-linecap="round" stroke-linejoin="round"/>
<path d="M545.158 132.797L554.958 135.138L565.491 133.821L567.246 130.603L570.611 124.605" stroke="#474747" stroke-width="0.5" stroke-linecap="round" stroke-linejoin="round"/>
<path d="M714.4 132.798L721.276 125.484L734.002 115.098L750.092 103.834L764.574 95.2038L773.058 91.5469" stroke="#474747" stroke-width="0.5" stroke-linecap="round" stroke-linejoin="round"/>
<path d="M516.193 239.581L526.141 239.727L543.694 236.07L563.588 229.78L579.825 222.759L588.894 216.469" stroke="#474747" stroke-width="0.5" stroke-linecap="round" stroke-linejoin="round"/>
<path d="M735.463 173.463L745.41 172.147L761.208 167.612L779.639 160.883L794.999 153.862L802.898 148.742" stroke="#474747" stroke-width="0.5" stroke-linecap="round" stroke-linejoin="round"/>
<path d="M813.869 189.262L806.117 195.552L790.464 201.549L771.302 205.206L754.334 205.499L743.07 202.427L741.9 197.014" stroke="#474747" stroke-width="0.5" stroke-linecap="round" stroke-linejoin="round"/>
<path d="M700.354 317.84L702.402 327.64L712.641 341.391L727.269 347.681L739.264 344.316L750.381 338.465L765.302 335.247" stroke="#474747" stroke-width="0.5" stroke-linecap="round" stroke-linejoin="round"/>
<path d="M92.2768 385.713L84.085 380.3L67.4094 380.008L47.8082 384.689L29.5233 393.319L18.1132 403.412L16.6504 412.043" stroke="#474747" stroke-width="0.5" stroke-linecap="round" stroke-linejoin="round"/>
<path d="M591.818 203.012L601.034 199.501L616.539 195.991L624.731 194.82" stroke="#474747" stroke-width="0.5" stroke-linecap="round" stroke-linejoin="round"/>
<path d="M445.83 194.672L447.586 185.018L451.096 172.73L455.485 161.028L459.434 153.275" stroke="#474747" stroke-width="0.5" stroke-linecap="round" stroke-linejoin="round"/>
<path d="M227.438 362.309L220.271 355.727L205.643 354.557L197.744 356.605" stroke="#474747" stroke-width="0.5" stroke-linecap="round" stroke-linejoin="round"/>
<path d="M449.635 146.547L442.321 140.111L441.443 126.361L447.587 108.222L458.851 90.961L471.87 79.8438L483.718 77.2109" stroke="#474747" stroke-width="0.5" stroke-linecap="round" stroke-linejoin="round"/>
<path d="M369.33 221.735L376.059 214.567L389.956 204.035L408.094 192.333L424.916 183.117L435.594 179.021L436.765 179.607L437.788 180.777L440.422 185.311L445.249 193.503L445.834 194.673L446.565 196.867L447.443 199.647L457.682 221.003L466.167 243.091L472.895 265.326L477.576 287.414L480.502 308.917L471.14 317.694L453.147 324.13L431.791 326.178L413.507 323.252L402.681 316.523L402.243 316.377" stroke="#474747" stroke-width="0.5" stroke-linecap="round" stroke-linejoin="round"/>
<path d="M259.473 408.239L257.132 408.093L256.547 408.385L239.433 416.138L232.265 414.383L225.097 411.018L218.076 405.899L215.15 403.266" stroke="#474747" stroke-width="0.5" stroke-linecap="round" stroke-linejoin="round"/>
<path d="M333.345 180.338L331.736 178.729L326.471 173.755L327.056 159.566L334.808 142.305L348.12 125.483L362.894 114.513L374.888 112.318" stroke="#474747" stroke-width="0.5" stroke-linecap="round" stroke-linejoin="round"/>
<path d="M589.771 185.165L599.28 183.556L615.077 181.947L618.881 181.801" stroke="#474747" stroke-width="0.5" stroke-linecap="round" stroke-linejoin="round"/>
<path d="M305.99 209.74L308.33 200.524L312.718 187.652L318.131 175.803L320.325 172" stroke="#474747" stroke-width="0.5" stroke-linecap="round" stroke-linejoin="round"/>
<path d="M476.846 73.7014L475.236 64.3396L478.747 48.3951L487.816 39.1797" stroke="#474747" stroke-width="0.5" stroke-linecap="round" stroke-linejoin="round"/>
<path d="M513.415 334.809L508.295 342.854V360.115L517.51 376.644L533.747 388.639L552.325 392.15L567.684 386.884" stroke="#474747" stroke-width="0.5" stroke-linecap="round" stroke-linejoin="round"/>
<path d="M490.446 332.614L481.377 330.273" stroke="#474747" stroke-width="0.5" stroke-linecap="round" stroke-linejoin="round"/>
<path d="M328.807 88.182L333.634 80.1367" stroke="#474747" stroke-width="0.5" stroke-linecap="round" stroke-linejoin="round"/>
<path d="M510.342 224.074L519.558 221.88L536.233 216.029L555.542 208.276L571.632 200.67L580.995 195.111" stroke="#474747" stroke-width="0.5" stroke-linecap="round" stroke-linejoin="round"/>
<path d="M658.373 89.207L652.668 96.8135L652.521 96.9599" stroke="#474747" stroke-width="0.5" stroke-linecap="round" stroke-linejoin="round"/>
<path d="M291.947 189.262L295.019 180.485L301.016 167.027L302.772 164.102" stroke="#474747" stroke-width="0.5" stroke-linecap="round" stroke-linejoin="round"/>
<path d="M495.275 194.527L502.296 188.384L516.632 178.144L534.331 167.173L549.983 158.543L560.077 154.301" stroke="#474747" stroke-width="0.5" stroke-linecap="round" stroke-linejoin="round"/>
<path d="M621.221 67.4102L611.859 67.8491L598.84 76.6258L585.968 90.8148L576.313 107.344L572.803 121.241L576.167 128.408" stroke="#474747" stroke-width="0.5" stroke-linecap="round" stroke-linejoin="round"/>
<path d="M85.6957 261.669L77.6504 266.35L61.1205 267.082L41.2272 263.863L22.3566 257.135L10.2158 248.943L8.31445 241.775" stroke="#474747" stroke-width="0.5" stroke-linecap="round" stroke-linejoin="round"/>
<path d="M377.811 236.509L385.71 231.682L400.777 223.197L419.939 213.104L437.053 204.327L447.439 199.646H448.756" stroke="#474747" stroke-width="0.5" stroke-linecap="round" stroke-linejoin="round"/>
<path d="M794.705 128.848L786.66 133.382L771.447 140.989L753.747 149.327L738.681 155.909L729.611 159.274" stroke="#474747" stroke-width="0.5" stroke-linecap="round" stroke-linejoin="round"/>
<path d="M209.446 363.039L205.643 354.555L201.254 342.56L197.597 329.834L194.672 316.523L192.77 302.772L191.746 288.73V274.687L192.77 260.79L194.672 247.04L197.744 233.875L201.839 221.295L204.18 215.883" stroke="#474747" stroke-width="0.5" stroke-linecap="round" stroke-linejoin="round"/>
<path d="M637.162 251.283L641.258 259.621L654.716 265.911L673.732 268.251L692.748 266.057L707.376 259.621L713.081 250.99" stroke="#474747" stroke-width="0.5" stroke-linecap="round" stroke-linejoin="round"/>
<path d="M784.762 109.686L776.424 113.781L761.65 121.827L744.535 131.627L730.639 140.258L722.447 145.67" stroke="#474747" stroke-width="0.5" stroke-linecap="round" stroke-linejoin="round"/>
<path d="M667.299 92.8629L661.009 86.1341L660.424 71.945L665.397 54.8304L675.052 38.3009L686.461 27.7689L696.262 25.8672" stroke="#474747" stroke-width="0.5" stroke-linecap="round" stroke-linejoin="round"/>
<path d="M566.51 31.1328L561.537 38.8855" stroke="#474747" stroke-width="0.5" stroke-linecap="round" stroke-linejoin="round"/>
<path d="M503.467 208.862L511.512 204.619L527.164 196.72L545.741 187.212L561.685 179.167L571.34 174.34L571.925 174.193" stroke="#474747" stroke-width="0.5" stroke-linecap="round" stroke-linejoin="round"/>
<path d="M615.373 309.502L614.056 310.233L606.888 313.013L599.721 314.037" stroke="#474747" stroke-width="0.5" stroke-linecap="round" stroke-linejoin="round"/>
<path d="M523.654 277.613L524.239 280.685L525.41 286.536L536.966 293.265L555.689 296.191L576.315 294.289L592.405 288.292L600.889 279.515" stroke="#474747" stroke-width="0.5" stroke-linecap="round" stroke-linejoin="round"/>
<path d="M158.981 395.075L159.42 386.006L158.835 372.548L156.787 356.896" stroke="#474747" stroke-width="0.5" stroke-linecap="round" stroke-linejoin="round"/>
<path d="M333.196 264.156L332.611 255.233V239.728L333.928 224.515L335.683 213.544L336.415 209.594L338.024 200.671L339.925 195.259L342.119 188.384V187.652" stroke="#474747" stroke-width="0.5" stroke-linecap="round" stroke-linejoin="round"/>
<path d="M663.35 15.3354L670.956 10.5081L679.002 6.70491L683.682 4.36448L694.361 1L706.795 6.41242L717.619 18.5534L724.494 35.083L724.933 42.8359" stroke="#474747" stroke-width="0.5" stroke-linecap="round" stroke-linejoin="round"/>
<path d="M88.0365 370.939L79.9912 366.844H63.6077L43.7136 370.793L24.9902 377.668L12.9951 385.714L11.0938 392.296" stroke="#474747" stroke-width="0.5" stroke-linecap="round" stroke-linejoin="round"/>
<path d="M744.24 222.32L745.996 230.951L757.113 238.265L774.227 241.922L793.683 241.337L809.334 236.217L816.941 228.464" stroke="#474747" stroke-width="0.5" stroke-linecap="round" stroke-linejoin="round"/>
<path d="M508.297 342.854L502.153 349.29L495.425 354.117L488.111 357.335L480.211 358.798H479.041" stroke="#474747" stroke-width="0.5" stroke-linecap="round" stroke-linejoin="round"/>
<path d="M185.019 354.848L182.093 346.803L178.143 333.199L175.218 319.01L173.17 304.528L172.146 289.608V274.541L173.17 259.621L175.364 244.993L178.583 230.804L182.825 217.346L188.237 204.62L188.676 203.889" stroke="#474747" stroke-width="0.5" stroke-linecap="round" stroke-linejoin="round"/>
<path d="M222.317 348.704L215.735 343.292L201.253 342.561L182.09 346.803L163.806 354.702L161.758 356.311" stroke="#474747" stroke-width="0.5" stroke-linecap="round" stroke-linejoin="round"/>
<path d="M384.247 374.742L383.222 375.181L378.834 380.155L371.227 388.785L363.913 390.248L356.307 390.101L352.65 389.078" stroke="#474747" stroke-width="0.5" stroke-linecap="round" stroke-linejoin="round"/>
<path d="M635.121 231.975L627.368 234.754L613.179 243.677L605.572 252.746L606.304 259.329" stroke="#474747" stroke-width="0.5" stroke-linecap="round" stroke-linejoin="round"/>
<path d="M549.984 113.342L545.157 120.217L541.061 127.677" stroke="#474747" stroke-width="0.5" stroke-linecap="round" stroke-linejoin="round"/>
<path d="M402.239 316.23L398.729 308.916" stroke="#474747" stroke-width="0.5" stroke-linecap="round" stroke-linejoin="round"/>
<path d="M84.5249 355.434L76.9189 352.801L60.3889 353.093L40.4956 356.165L21.3329 361.285L8.89926 366.99L6.70508 371.671" stroke="#474747" stroke-width="0.5" stroke-linecap="round" stroke-linejoin="round"/>
<path d="M81.0152 291.803L73.4091 294.436L56.8792 295.167L36.693 294.143L17.2375 291.51L4.51172 287.854" stroke="#474747" stroke-width="0.5" stroke-linecap="round" stroke-linejoin="round"/>
<path d="M207.838 378.838L201.401 374.303L181.361 370.5L158.834 372.548L140.403 379.715L132.65 387.615" stroke="#474747" stroke-width="0.5" stroke-linecap="round" stroke-linejoin="round"/>
<path d="M687.779 150.205L680.904 154.008L666.569 161.322L649.016 169.953L632.339 177.852L621.661 182.825L619.76 183.264" stroke="#474747" stroke-width="0.5" stroke-linecap="round" stroke-linejoin="round"/>
<path d="M636.143 237.825L640.092 244.408L653.404 248.65L672.42 248.942L691.436 245.432L706.064 238.995L711.769 231.389" stroke="#474747" stroke-width="0.5" stroke-linecap="round" stroke-linejoin="round"/>
<path d="M470.991 405.753L464.115 402.535" stroke="#474747" stroke-width="0.5" stroke-linecap="round" stroke-linejoin="round"/>
<path d="M614.783 174.34L615.076 181.946L616.539 195.989L619.172 209.447L622.829 222.466L627.363 234.753L632.922 246.309L637.164 253.477" stroke="#474747" stroke-width="0.5" stroke-linecap="round" stroke-linejoin="round"/>
<path d="M82.0395 339.635L74.5792 338.318L58.1957 338.903L38.0095 340.951L18.5547 344.17L5.97461 347.68" stroke="#474747" stroke-width="0.5" stroke-linecap="round" stroke-linejoin="round"/>
<path d="M80.2826 307.746L72.8223 308.916L56.2931 309.794H36.1069L16.505 309.063L3.63273 307.892L1 306.43" stroke="#474747" stroke-width="0.5" stroke-linecap="round" stroke-linejoin="round"/>
<path d="M488.4 233.145L494.983 229.342L508.733 225.538L510.781 225.1" stroke="#474747" stroke-width="0.5" stroke-linecap="round" stroke-linejoin="round"/>
<path d="M124.167 446.565L116.707 445.248L98.5682 452.854L85.111 469.677L80.5762 490.887L85.9881 510.196L88.7679 512.682L98.5682 521.752L100.177 523.361" stroke="#474747" stroke-width="0.5" stroke-linecap="round" stroke-linejoin="round"/>
<path d="M295.459 162.053L301.017 167.026L318.132 175.803L330.566 178.582" stroke="#474747" stroke-width="0.5" stroke-linecap="round" stroke-linejoin="round"/>
<path d="M718.347 279.369L711.033 280.832" stroke="#474747" stroke-width="0.5" stroke-linecap="round" stroke-linejoin="round"/>
<path d="M80.5764 323.691H73.1161L56.7326 324.276L36.5464 325.447L16.9452 326.763L4.21867 327.787L1.58594 328.518" stroke="#474747" stroke-width="0.5" stroke-linecap="round" stroke-linejoin="round"/>
<path d="M181.505 392.589L181.797 385.128L181.358 370.501L179.311 354.117" stroke="#474747" stroke-width="0.5" stroke-linecap="round" stroke-linejoin="round"/>
<path d="M218.075 334.222L211.784 330.126L197.596 329.834L178.14 333.198L159.563 339.488L147.13 346.802L143.473 353.385L145.813 361.138" stroke="#474747" stroke-width="0.5" stroke-linecap="round" stroke-linejoin="round"/>
<path d="M323.396 241.628L330.857 241.189L332.612 239.727" stroke="#474747" stroke-width="0.5" stroke-linecap="round" stroke-linejoin="round"/>
<path d="M257.279 151.228L264.593 150.643L276.881 151.666L286.389 158.98L288.437 160.443" stroke="#474747" stroke-width="0.5" stroke-linecap="round" stroke-linejoin="round"/>
<path d="M209.153 220.564L201.839 221.296L182.823 217.346L164.538 209.155L152.251 199.354L148.594 189.992" stroke="#474747" stroke-width="0.5" stroke-linecap="round" stroke-linejoin="round"/>
<path d="M743.654 209.74L745.41 216.908L756.527 222.174L773.641 223.783L793.097 221.735L808.748 216.177" stroke="#474747" stroke-width="0.5" stroke-linecap="round" stroke-linejoin="round"/>
<path d="M611.713 61.121L619.027 60.9746L632.777 62.7301L646.673 66.387L660.423 71.9455L673.881 79.4059L686.9 88.6213L699.187 99.446L710.743 111.88L721.276 125.484L730.637 140.258L738.683 155.91L745.411 172.146L750.678 188.676L754.335 205.498L756.529 222.174L757.114 238.265L756.09 253.77L753.603 268.252L749.8 281.563L744.387 293.558L737.951 304.09L730.344 312.72L721.714 319.742L712.352 324.715L702.406 327.641L694.799 328.226" stroke="#474747" stroke-width="0.5" stroke-linecap="round" stroke-linejoin="round"/>
<path d="M522.193 263.862L522.632 265.764L523.656 271.03L534.92 275.565L553.497 276.442L573.976 273.224L590.213 266.934L598.697 259.035" stroke="#474747" stroke-width="0.5" stroke-linecap="round" stroke-linejoin="round"/>
<path d="M621.515 67.7025L621.369 67.4099L619.029 60.9736L618.736 42.5425L623.856 25.2817L632.926 14.457L650.771 16.3585L668.764 20.7469L686.463 27.7684L703.871 37.1302L710.453 41.6648L720.546 48.6863L736.344 62.2901L751.119 77.942L764.576 95.2028L776.424 113.78L786.664 133.382L795.002 153.861L801.585 174.778L806.119 195.55L808.752 216.175" stroke="#474747" stroke-width="0.5" stroke-linecap="round" stroke-linejoin="round"/>
<path d="M440.42 185.311L447.587 185.018L451.537 181.361" stroke="#474747" stroke-width="0.5" stroke-linecap="round" stroke-linejoin="round"/>
<path d="M256.837 408.241L249.815 406.778L242.794 403.56L235.918 398.732L218.073 405.9L215.439 408.826" stroke="#474747" stroke-width="0.5" stroke-linecap="round" stroke-linejoin="round"/>
<path d="M486.057 214.421L492.932 212.666L504.341 211.057" stroke="#474747" stroke-width="0.5" stroke-linecap="round" stroke-linejoin="round"/>
<path d="M718.057 38.1538L724.493 35.082" stroke="#474747" stroke-width="0.5" stroke-linecap="round" stroke-linejoin="round"/>
<path d="M485.326 195.404L492.348 195.551H495.859" stroke="#474747" stroke-width="0.5" stroke-linecap="round" stroke-linejoin="round"/>
<path d="M662.619 109.538L669.348 107.637" stroke="#474747" stroke-width="0.5" stroke-linecap="round" stroke-linejoin="round"/>
<path d="M507.998 218.662L508.729 225.537L511.509 240.019L515.458 253.915L520.14 266.934L523.212 273.37" stroke="#474747" stroke-width="0.5" stroke-linecap="round" stroke-linejoin="round"/>
<path d="M591.23 142.451L590.352 149.18L589.328 167.172L589.767 185.164L589.182 186.335L591.23 205.497" stroke="#474747" stroke-width="0.5" stroke-linecap="round" stroke-linejoin="round"/>
<path d="M431.791 172.146L438.374 173.463L451.099 172.732L455.341 168.051" stroke="#474747" stroke-width="0.5" stroke-linecap="round" stroke-linejoin="round"/>
<path d="M670.81 94.7656L666.714 100.178L661.74 108.516" stroke="#474747" stroke-width="0.5" stroke-linecap="round" stroke-linejoin="round"/>
<path d="M688.506 105.881L684.264 100.615L686.897 88.62L695.381 73.5534L707.815 58.6329L720.541 48.6861L729.903 46.1992" stroke="#474747" stroke-width="0.5" stroke-linecap="round" stroke-linejoin="round"/>
<path d="M216.613 228.171L211.64 232.706L197.743 233.876L178.58 230.804L159.711 224.368L146.838 216.615L142.742 209.009L148.593 189.992L149.032 188.676" stroke="#474747" stroke-width="0.5" stroke-linecap="round" stroke-linejoin="round"/>
<path d="M214.126 242.213L208.714 246.016L194.671 247.04L175.362 244.992L156.053 240.458L142.888 234.753L138.354 229.048L142.742 209.008" stroke="#474747" stroke-width="0.5" stroke-linecap="round" stroke-linejoin="round"/>
<path d="M600.451 305.99L606.741 307.599" stroke="#474747" stroke-width="0.5" stroke-linecap="round" stroke-linejoin="round"/>
<path d="M586.407 137.332L584.213 131.042L589.333 118.608L600.743 103.395L614.639 90.2302L628.097 81.7461" stroke="#474747" stroke-width="0.5" stroke-linecap="round" stroke-linejoin="round"/>
<path d="M379.271 264.448L384.684 260.645L388.195 259.475" stroke="#474747" stroke-width="0.5" stroke-linecap="round" stroke-linejoin="round"/>
<path d="M670.956 10.5078L668.322 16.5054" stroke="#474747" stroke-width="0.5" stroke-linecap="round" stroke-linejoin="round"/>
<path d="M118.169 451.977L112.026 454.025L105.443 454.318L98.568 452.855L91.5469 449.637" stroke="#474747" stroke-width="0.5" stroke-linecap="round" stroke-linejoin="round"/>
<path d="M398.877 133.382H399.9L405.313 132.943" stroke="#474747" stroke-width="0.5" stroke-linecap="round" stroke-linejoin="round"/>
<path d="M320.029 234.753L320.615 228.463L322.663 215.444L325.88 202.718L329.977 190.723L334.365 181.215" stroke="#474747" stroke-width="0.5" stroke-linecap="round" stroke-linejoin="round"/>
<path d="M356.455 100.469L354.846 94.3255L356.747 76.1869L364.792 64.6309" stroke="#474747" stroke-width="0.5" stroke-linecap="round" stroke-linejoin="round"/>
<path d="M348.994 96.6658L354.845 94.3254L369.327 90.9609L384.54 89.6445L400.045 90.8147L415.843 94.3254L431.788 100.03L447.586 108.222L462.799 118.461L477.719 130.749L491.762 144.938L504.635 160.736L516.63 178.143L527.161 196.72L536.231 216.029L543.691 236.069L549.396 256.256L553.491 276.442L555.686 296.19L556.125 315.06L554.808 333.052L551.737 349.582L547.202 364.502L541.058 377.521L533.744 388.638L525.114 397.415L515.459 403.851L505.073 408.093L494.102 409.702L482.693 408.971L473.038 397.707L471.283 395.66L470.259 390.394" stroke="#474747" stroke-width="0.5" stroke-linecap="round" stroke-linejoin="round"/>
<path d="M436.764 179.314L438.373 173.463L442.761 161.761L448.173 150.79L450.514 147.279" stroke="#474747" stroke-width="0.5" stroke-linecap="round" stroke-linejoin="round"/>
<path d="M633.799 224.075L637.602 228.903L650.475 230.804L669.345 229.195L688.068 224.514L702.696 217.785L708.547 211.057" stroke="#474747" stroke-width="0.5" stroke-linecap="round" stroke-linejoin="round"/>
<path d="M554.807 145.816L560.658 145.085L563.291 140.111" stroke="#474747" stroke-width="0.5" stroke-linecap="round" stroke-linejoin="round"/>
<path d="M590.502 141.574L589.77 147.572L588.6 166.88L589.477 185.75L591.818 203.011L591.233 205.498L594.89 224.222L599.132 237.387L599.863 242.214L604.252 254.062L606.299 259.329L611.126 269.568L613.76 275.273L618.88 283.903L622.537 289.901L628.388 298.092" stroke="#474747" stroke-width="0.5" stroke-linecap="round" stroke-linejoin="round"/>
<path d="M393.61 274.98L388.197 277.467" stroke="#474747" stroke-width="0.5" stroke-linecap="round" stroke-linejoin="round"/>
<path d="M272.932 166.588L274.833 160.883" stroke="#474747" stroke-width="0.5" stroke-linecap="round" stroke-linejoin="round"/>
<path d="M237.385 135.869L243.09 134.407L256.547 133.236L270.59 134.26L284.78 137.478L298.968 142.744L313.158 150.205L327.054 159.566L340.511 170.976L353.091 183.995L365.087 198.623L376.057 214.567L385.712 231.682L394.196 249.528L401.363 267.959L406.922 286.536L411.018 305.114L413.505 323.252L414.528 340.806L413.943 357.482L411.749 372.841L408.239 386.737L403.265 398.878L397.268 409.264L390.1 417.602L381.909 423.892L372.985 427.842L363.477 429.597L353.531 429.158L343.73 426.525" stroke="#474747" stroke-width="0.5" stroke-linecap="round" stroke-linejoin="round"/>
<path d="M397.85 290.486L392.877 293.705" stroke="#474747" stroke-width="0.5" stroke-linecap="round" stroke-linejoin="round"/>
<path d="M212.372 303.943L206.812 302.48L192.77 302.773L173.168 304.528L153.86 307.308L140.695 310.233L136.16 312.72" stroke="#474747" stroke-width="0.5" stroke-linecap="round" stroke-linejoin="round"/>
<path d="M563.878 120.217L560.66 124.752L554.955 135.137L552.029 141.866" stroke="#474747" stroke-width="0.5" stroke-linecap="round" stroke-linejoin="round"/>
<path d="M226.268 239.727L223.928 234.754L230.802 223.637L245.138 209.594L262.545 196.721L279.221 187.945L289.753 186.189" stroke="#474747" stroke-width="0.5" stroke-linecap="round" stroke-linejoin="round"/>
<path d="M211.054 272.64L205.642 273.956L191.746 274.688L172.145 274.541L152.543 273.664L139.086 272.201L134.404 270.592" stroke="#474747" stroke-width="0.5" stroke-linecap="round" stroke-linejoin="round"/>
<path d="M533.014 118.023L536.524 122.119L541.059 127.678L545.155 132.798L547.203 135.431L549.689 138.21L552.03 142.013L554.517 145.816L558.759 151.521L559.344 152.838L560.075 154.301L571.631 174.194L580.701 193.357L580.994 195.112L588.892 216.469" stroke="#474747" stroke-width="0.5" stroke-linecap="round" stroke-linejoin="round"/>
<path d="M211.203 288.291H205.791L191.748 288.73L172.147 289.608L152.691 290.485L139.234 291.363L134.553 291.802" stroke="#474747" stroke-width="0.5" stroke-linecap="round" stroke-linejoin="round"/>
<path d="M673.295 17.6758L678.123 15.4816L681.926 8.02145L682.657 6.55866L694.36 1" stroke="#474747" stroke-width="0.5" stroke-linecap="round" stroke-linejoin="round"/>
<path d="M492.496 190.432L492.35 195.551L492.935 212.666L494.982 229.342L498.201 245.725L502.589 261.523L508.001 276.297L514.584 290.194L521.897 302.774L520.289 309.21L518.68 315.061L520.289 317.109" stroke="#474747" stroke-width="0.5" stroke-linecap="round" stroke-linejoin="round"/>
<path d="M596.057 147.279L595.033 142.306L601.762 131.481L614.635 117.877L629.702 105.59L643.452 97.3983L651.643 95.9355" stroke="#474747" stroke-width="0.5" stroke-linecap="round" stroke-linejoin="round"/>
<path d="M600.596 303.066L604.838 305.846L607.325 307.455L609.372 307.747L614.346 308.04L618.734 307.455" stroke="#474747" stroke-width="0.5" stroke-linecap="round" stroke-linejoin="round"/>
<path d="M525.701 107.344L529.212 110.708L545.157 120.216L560.662 124.751L569.146 123.581" stroke="#474747" stroke-width="0.5" stroke-linecap="round" stroke-linejoin="round"/>
<path d="M699.771 27.6221L703.868 25.1353L717.618 18.5527" stroke="#474747" stroke-width="0.5" stroke-linecap="round" stroke-linejoin="round"/>
<path d="M424.479 161.906L426.233 157.518L432.085 145.669L435.742 139.672" stroke="#474747" stroke-width="0.5" stroke-linecap="round" stroke-linejoin="round"/>
<path d="M376.787 245.139L381.175 243.676" stroke="#474747" stroke-width="0.5" stroke-linecap="round" stroke-linejoin="round"/>
<path d="M519.704 252.307L515.462 253.916L502.589 261.522L496.885 268.836" stroke="#474747" stroke-width="0.5" stroke-linecap="round" stroke-linejoin="round"/>
<path d="M600.451 304.674L604.84 305.844" stroke="#474747" stroke-width="0.5" stroke-linecap="round" stroke-linejoin="round"/>
<path d="M356.892 344.023L352.65 342.707" stroke="#474747" stroke-width="0.5" stroke-linecap="round" stroke-linejoin="round"/>
<path d="M515.898 238.85L511.51 240.02L498.199 245.725L491.908 251.283" stroke="#474747" stroke-width="0.5" stroke-linecap="round" stroke-linejoin="round"/>
<path d="M211.642 468.361L208.424 465.436" stroke="#474747" stroke-width="0.5" stroke-linecap="round" stroke-linejoin="round"/>
<path d="M630.291 210.324L633.509 213.25L645.943 212.957L664.228 209.154L682.659 203.156L697.287 196.281L703.43 190.723" stroke="#474747" stroke-width="0.5" stroke-linecap="round" stroke-linejoin="round"/>
<path d="M641.111 84.9648L645.208 85.55" stroke="#474747" stroke-width="0.5" stroke-linecap="round" stroke-linejoin="round"/>
<path d="M636.724 244.555L632.921 246.31L619.463 256.696L612.588 267.374L613.759 275.273" stroke="#474747" stroke-width="0.5" stroke-linecap="round" stroke-linejoin="round"/>
<path d="M594.893 224.222L595.038 220.273L603.961 214.861L619.174 209.448L629.268 207.254" stroke="#474747" stroke-width="0.5" stroke-linecap="round" stroke-linejoin="round"/>
<path d="M279.662 174.193L280.978 170.536L285.513 160.297" stroke="#474747" stroke-width="0.5" stroke-linecap="round" stroke-linejoin="round"/>
<path d="M633.068 77.5039L636.872 77.9428L644.332 79.9906L649.013 81.1609L656.327 88.4748" stroke="#474747" stroke-width="0.5" stroke-linecap="round" stroke-linejoin="round"/>
<path d="M584.943 46.4926L588.454 45.3223L603.375 42.8356L618.734 42.543L634.24 44.4447L649.891 48.5404L665.397 54.8304L680.609 63.1682L695.384 73.5542L709.28 85.6952L722.153 99.5917L734.001 115.097L744.534 131.627L753.749 149.326L761.209 167.611L767.207 186.335L771.302 205.205L773.643 223.782L774.228 241.921L773.058 259.328L770.279 275.565L765.744 290.485L759.746 303.797L752.432 315.353L743.949 325.007L734.294 332.614L723.762 338.172L712.645 341.39L701.089 342.414L689.094 341.098L688.363 339.781" stroke="#474747" stroke-width="0.5" stroke-linecap="round" stroke-linejoin="round"/>
<path d="M316.814 228.317L320.618 228.463L332.027 227.293L333.929 224.514" stroke="#474747" stroke-width="0.5" stroke-linecap="round" stroke-linejoin="round"/>
<path d="M331.001 258.889L330.709 255.232L330.855 241.189L332.025 227.293L334.22 213.835L337.438 200.816L341.533 189.114L342.118 188.383L342.411 188.09" stroke="#474747" stroke-width="0.5" stroke-linecap="round" stroke-linejoin="round"/>
<path d="M604.838 158.397V154.74L613.176 145.817L627.511 133.968L643.455 122.851L657.498 114.952L665.251 112.758" stroke="#474747" stroke-width="0.5" stroke-linecap="round" stroke-linejoin="round"/>
<path d="M531.263 107.93L529.215 110.709L528.045 113.049" stroke="#474747" stroke-width="0.5" stroke-linecap="round" stroke-linejoin="round"/>
<path d="M678.123 15.4824L678.269 18.8469" stroke="#474747" stroke-width="0.5" stroke-linecap="round" stroke-linejoin="round"/>
<path d="M212.516 449.053L215.588 450.515L224.511 453.002L233.141 453.148L241.333 451.247L248.94 447.151L255.668 441.154L261.519 432.962L266.493 423.015L264.299 405.9" stroke="#474747" stroke-width="0.5" stroke-linecap="round" stroke-linejoin="round"/>
<path d="M262.545 407.508L259.473 406.192L252.159 401.219L248.21 397.708L247.771 397.269L245.43 394.782L240.164 386.444L233.436 374.888L227.438 362.308L222.318 348.704L218.076 334.223L214.711 319.302L208.86 316.523L206.813 302.48L205.789 288.291L205.643 273.956L206.666 259.913L211.932 257.28L214.126 242.213L217.052 228.756" stroke="#474747" stroke-width="0.5" stroke-linecap="round" stroke-linejoin="round"/>
<path d="M389.227 372.401H386.155L384.838 372.108L381.62 369.914L378.548 368.013L376.5 366.111L370.942 361.284L363.628 353.238L356.899 344.023L352.511 336.416L351.926 335.539L351.779 335.246" stroke="#474747" stroke-width="0.5" stroke-linecap="round" stroke-linejoin="round"/>
<path d="M686.9 342.561L689.533 343.731L702.26 347.388" stroke="#474747" stroke-width="0.5" stroke-linecap="round" stroke-linejoin="round"/>
<path d="M686.9 342.414L689.533 343.731" stroke="#474747" stroke-width="0.5" stroke-linecap="round" stroke-linejoin="round"/>
<path d="M400.923 307.016L398.729 308.917" stroke="#474747" stroke-width="0.5" stroke-linecap="round" stroke-linejoin="round"/>
<path d="M625.611 196.574L628.244 197.744L639.946 195.112L657.5 189.26L675.492 181.946L690.12 174.925L696.557 170.244" stroke="#474747" stroke-width="0.5" stroke-linecap="round" stroke-linejoin="round"/>
<path d="M492.784 83.2086L491.614 80.7217L490.443 61.2667L495.125 45.0298L504.926 35.668" stroke="#474747" stroke-width="0.5" stroke-linecap="round" stroke-linejoin="round"/>
<path d="M390.975 125.629L393.608 125.336L405.31 132.943L413.941 133.82L416.428 133.966" stroke="#474747" stroke-width="0.5" stroke-linecap="round" stroke-linejoin="round"/>
<path d="M481.084 324.275L482.84 326.177L490.446 332.613L495.42 335.831L498.491 337.733L500.247 338.465L501.271 338.903L506.683 339.196L507.122 339.05" stroke="#474747" stroke-width="0.5" stroke-linecap="round" stroke-linejoin="round"/>
<path d="M413.947 133.82L415.849 135.722L432.086 145.669L448.176 150.789L455.344 150.496" stroke="#474747" stroke-width="0.5" stroke-linecap="round" stroke-linejoin="round"/>
<path d="M447.002 196.574L448.903 195.258" stroke="#474747" stroke-width="0.5" stroke-linecap="round" stroke-linejoin="round"/>
<path d="M522.34 265.91L520.146 266.934L508.005 276.296L503.178 285.365" stroke="#474747" stroke-width="0.5" stroke-linecap="round" stroke-linejoin="round"/>
<path d="M612.736 170.39L613.761 168.342L623.269 161.321L638.92 151.374L655.742 141.427L669.931 133.967L677.245 131.041" stroke="#474747" stroke-width="0.5" stroke-linecap="round" stroke-linejoin="round"/>
<path d="M190.576 205.204L188.236 204.619L185.456 203.01L170.536 194.819L169.512 193.648" stroke="#474747" stroke-width="0.5" stroke-linecap="round" stroke-linejoin="round"/>
<path d="M713.233 281.123L710.893 281.269" stroke="#474747" stroke-width="0.5" stroke-linecap="round" stroke-linejoin="round"/>
<path d="M341.832 434.863L340.076 433.547" stroke="#474747" stroke-width="0.5" stroke-linecap="round" stroke-linejoin="round"/>
<path d="M522.334 107.199H524.382" stroke="#474747" stroke-width="0.5" stroke-linecap="round" stroke-linejoin="round"/>
<path d="M489.572 81.1606L491.62 80.7217L505.517 80.1367L519.852 81.4531L534.187 84.9638L548.522 90.5225L562.565 97.9827L576.315 107.345L589.334 118.608L601.768 131.481L613.178 145.816L623.271 161.321L632.34 177.851L639.946 195.112L645.944 212.958L650.479 230.804L653.404 248.65L654.721 265.911L654.282 282.733L652.38 298.385L648.87 312.866L643.896 325.885L637.752 337.148L630.292 346.803L621.808 354.409L612.446 359.822L602.353 363.332L591.821 364.502L583.776 363.771" stroke="#474747" stroke-width="0.5" stroke-linecap="round" stroke-linejoin="round"/>
<path d="M523.214 301.311L521.896 302.773" stroke="#474747" stroke-width="0.5" stroke-linecap="round" stroke-linejoin="round"/>
<path d="M482.842 326.177L481.232 325.738" stroke="#474747" stroke-width="0.5" stroke-linecap="round" stroke-linejoin="round"/>
<path d="M589.771 147.572L590.356 149.181L599.133 151.375" stroke="#474747" stroke-width="0.5" stroke-linecap="round" stroke-linejoin="round"/>
<path d="M579.676 372.401L578.213 371.67" stroke="#474747" stroke-width="0.5" stroke-linecap="round" stroke-linejoin="round"/>
<path d="M521.896 302.773L522.921 304.09" stroke="#474747" stroke-width="0.5" stroke-linecap="round" stroke-linejoin="round"/>
<path d="M164.243 356.019L163.805 354.702L159.563 339.489L156.198 323.691L153.858 307.308L152.687 290.486L152.541 273.664L153.712 256.842L156.052 240.458L159.709 224.368L164.536 209.155L170.534 194.819L170.826 194.234" stroke="#474747" stroke-width="0.5" stroke-linecap="round" stroke-linejoin="round"/>
<path d="M687.92 340.66L689.091 341.099L693.04 343.001L702.256 347.389L714.836 348.852" stroke="#474747" stroke-width="0.5" stroke-linecap="round" stroke-linejoin="round"/>
<path d="M248.209 397.708L247.331 396.83L245.575 394.783L237.969 386.883L231.533 377.522L225.536 367.136L220.27 355.726L215.735 343.292L211.785 330.127L208.859 316.523" stroke="#474747" stroke-width="0.5" stroke-linecap="round" stroke-linejoin="round"/>
<path d="M711.326 278.784L712.497 278.491L719.664 278.93L720.396 278.784L727.125 274.98" stroke="#474747" stroke-width="0.5" stroke-linecap="round" stroke-linejoin="round"/>
<path d="M329.537 255.232H330.708H332.609" stroke="#474747" stroke-width="0.5" stroke-linecap="round" stroke-linejoin="round"/>
<path d="M460.752 154.301L460.167 155.325L458.119 160.883L455.34 168.051L451.537 181.362L448.903 195.259L448.611 199.355" stroke="#474747" stroke-width="0.5" stroke-linecap="round" stroke-linejoin="round"/>
<path d="M268.252 161.907L269.423 161.761L274.542 160.444L275.127 160.298L277.175 159.713" stroke="#474747" stroke-width="0.5" stroke-linecap="round" stroke-linejoin="round"/>
<path d="M349.287 409.118L350.311 409.411L359.088 409.704L367.426 408.094L375.179 404.584L382.2 399.025L388.49 391.565L389.807 373.865" stroke="#474747" stroke-width="0.5" stroke-linecap="round" stroke-linejoin="round"/>
<path d="M652.084 96.373L652.67 96.8118L666.712 100.176L675.343 97.5432L675.489 97.2507" stroke="#474747" stroke-width="0.5" stroke-linecap="round" stroke-linejoin="round"/>
<path d="M199.059 116.267L199.644 115.682L213.686 106.759L228.753 100.03L244.697 95.7881L261.373 94.1791L278.488 95.0567L296.041 98.7137L313.595 105.15L331.002 114.073L348.116 125.483L364.5 139.233L380.151 155.177L394.779 172.877L408.091 192.332L419.939 213.104L430.179 234.899L438.809 257.134L445.392 279.807L450.365 302.187L453.144 324.129L454.169 345.193L453.291 364.941L450.512 383.226L446.123 399.755L440.126 414.237L432.665 426.378L424.035 436.179L414.38 443.346L403.702 448.027L392.439 449.929L380.736 449.344L369.034 445.541L364.5 443.493L353.529 429.157L350.311 409.41L350.749 407.947L356.308 390.101L369.18 376.79L376.202 376.936L383.223 375.18L384.248 374.742L389.221 372.401L389.367 372.255L391.707 370.353L394.341 365.819L397.998 356.31L400.63 345.486L402.093 333.93V333.491L402.532 320.765L402.24 316.23V315.352L400.923 307.015L400.045 300.578L397.851 290.485L396.388 284.341L393.609 274.98L391.415 268.105L388.197 259.474L385.271 252.16L382.785 247.04L381.176 243.676L377.811 236.508L376.056 233.583L369.327 221.734L359.819 207.838L349.286 195.111L342.412 188.09L342.119 187.651L341.972 187.505L338.17 183.994L334.366 181.215L333.342 180.337L330.563 178.582L326.467 175.656L322.371 173.023L320.47 171.707L311.108 167.172L302.77 164.1L299.844 163.076L295.456 162.052L288.435 160.443L285.509 160.297L277.318 159.712H277.171L264.591 150.643L256.546 133.235L255.376 112.903L261.373 94.1791L272.783 82.623L290.629 83.5007L308.914 87.1577L327.199 93.7402L345.191 102.81L362.891 114.512L380.005 128.701L391.707 126.068L397.851 132.358L398.875 133.382L399.607 133.967L407.506 142.012L410.87 145.669L411.748 146.693L416.575 152.837L422.134 159.712L424.181 162.637L430.618 171.853L435.591 179.021L436.469 180.63L439.248 185.457L445.538 196.282L446.562 196.867L448.61 199.354L448.756 199.646L458.264 219.394L457.679 221.003L447.732 226.561L430.179 234.899L410.431 243.383L394.194 249.527L385.271 252.16" stroke="#474747" stroke-width="0.5" stroke-linecap="round" stroke-linejoin="round"/>
<path d="M588.6 166.881L589.331 167.174L598.839 167.612L610.981 167.758" stroke="#474747" stroke-width="0.5" stroke-linecap="round" stroke-linejoin="round"/>
<path d="M199.5 116.415L199.646 115.683L208.277 105.59" stroke="#474747" stroke-width="0.5" stroke-linecap="round" stroke-linejoin="round"/>
<path d="M124.02 446.711H123.435L116.706 445.249L109.832 442.03L102.81 437.35L84.5249 444.664L69.7513 460.462L63.3145 480.356" stroke="#474747" stroke-width="0.5" stroke-linecap="round" stroke-linejoin="round"/>
<path d="M372.841 111.002V110.855L369.33 90.9614L372.694 72.3841L381.764 60.5356L399.317 59.0728L411.897 56.5859" stroke="#474747" stroke-width="0.5" stroke-linecap="round" stroke-linejoin="round"/>
<path d="M372.689 110.856H372.836L386.147 109.832L399.751 111.002L413.647 114.074L427.69 119.194L441.44 126.362L454.898 135.431L468.063 146.255L480.351 158.835L491.761 172.878L502.293 188.384L511.509 204.621L519.554 221.881L526.136 239.728L531.256 257.574L534.913 275.566L536.961 293.266L537.399 310.234L536.229 326.178L533.596 341.245L529.501 354.556L524.088 366.551L517.505 376.644L509.753 384.69L501.123 390.687L491.761 394.637L481.814 396.246L471.282 395.661L468.356 394.929" stroke="#474747" stroke-width="0.5" stroke-linecap="round" stroke-linejoin="round"/>
<path d="M402.095 333.784L394.782 318.132L388.345 301.164L383.226 283.172L388.199 277.467L384.688 260.645L382.787 247.041" stroke="#474747" stroke-width="0.5" stroke-linecap="round" stroke-linejoin="round"/>
<path d="M348.556 315.061L351.775 335.247L352.068 336.856L352.653 342.707L353.238 349.729L353.384 352.215L353.823 357.189V357.774V365.088V371.232V372.255V377.521L353.238 383.373L352.653 389.078L352.068 395.806L349.873 406.192L349.288 409.118L348.703 412.19L343.729 426.525L343.583 426.671L340.511 432.669L339.926 433.546L339.78 433.839L335.831 441.299L335.099 442.908L328.809 454.318L320.91 464.704L311.841 472.456L309.792 473.48L294.872 480.648L284.779 485.768L266.202 483.281L255.962 485.621L240.749 472.749L233.143 453.148L235.19 432.815L242.797 421.405L246.308 416.139L253.914 412.628L259.326 410.142L260.058 409.849" stroke="#474747" stroke-width="0.5" stroke-linecap="round" stroke-linejoin="round"/>
<path d="M560.369 154.154L561.539 155.617" stroke="#474747" stroke-width="0.5" stroke-linecap="round" stroke-linejoin="round"/>
<path d="M212.662 377.084L212.37 374.451L211.492 367.137" stroke="#474747" stroke-width="0.5" stroke-linecap="round" stroke-linejoin="round"/>
<path d="M675.486 97.252L678.12 98.7147" stroke="#474747" stroke-width="0.5" stroke-linecap="round" stroke-linejoin="round"/>
<path d="M501.273 338.904H499.224L491.618 337.149L484.012 333.785L481.232 332.029" stroke="#474747" stroke-width="0.5" stroke-linecap="round" stroke-linejoin="round"/>
<path d="M125.339 443.055L121.682 440.568L120.95 439.983L117.293 435.302L115.831 433.547L110.125 424.624L100.179 415.554L83.2101 414.092L77.3589 403.852L72.0927 392.296L67.4122 380.009L63.6089 366.844L60.3904 353.093L58.1963 338.904L56.7335 324.276L56.2949 309.795L56.8799 295.167L58.4891 280.978L61.1218 267.082L64.7788 253.916L69.3136 241.483L75.0183 229.927L81.6009 219.541L89.0612 210.325L97.3994 202.573L106.615 196.283L116.416 191.602L126.802 188.676L137.772 187.506L149.035 188.384L151.083 188.53" stroke="#474747" stroke-width="0.5" stroke-linecap="round" stroke-linejoin="round"/>
<path d="M422.572 159.566L424.474 162.053L425.351 162.931" stroke="#474747" stroke-width="0.5" stroke-linecap="round" stroke-linejoin="round"/>
<path d="M89.6445 517.949L87.7431 516.194L79.8442 508.587L76.3337 505.223L71.9453 486.645L77.5036 466.02L91.5465 449.637" stroke="#474747" stroke-width="0.5" stroke-linecap="round" stroke-linejoin="round"/>
<path d="M222.759 476.553L222.613 476.406L211.642 468.361L208.424 465.289" stroke="#474747" stroke-width="0.5" stroke-linecap="round" stroke-linejoin="round"/>
<path d="M311.843 472.455L309.795 473.479L301.749 477.575L295.021 480.647L275.859 478.453L258.744 466.165L248.943 447.149V427.402L254.795 421.989L259.914 413.359L262.108 408.678L262.84 407.654L264.156 406.045" stroke="#474747" stroke-width="0.5" stroke-linecap="round" stroke-linejoin="round"/>
<path d="M123.436 448.467L122.704 449.198L122.412 450.222L122.266 450.807L122.704 470.262L133.383 487.816L152.399 499.811L174.341 502.005L192.479 494.545L195.99 489.279L202.572 479.185" stroke="#474747" stroke-width="0.5" stroke-linecap="round" stroke-linejoin="round"/>
<path d="M481.377 329.542L481.084 330.274L472.016 339.05L454.169 345.194L432.812 345.779L414.528 340.806L403.118 331.59L402.533 320.766" stroke="#474747" stroke-width="0.5" stroke-linecap="round" stroke-linejoin="round"/>
<path d="M595.917 334.37L593.284 338.173L587.725 345.633L571.781 351.046L551.741 349.583L533.602 341.245L522.485 328.811L524.825 315.646L525.849 301.457L525.556 286.537L524.825 280.247L523.655 271.031L522.631 265.765L522.046 262.547L520.583 255.233L520.291 254.355" stroke="#474747" stroke-width="0.5" stroke-linecap="round" stroke-linejoin="round"/>
<path d="M380.736 449.344L379.42 448.905L369.034 445.54L365.524 444.809L361.282 443.346L353.236 440.274L341.827 434.862L340.51 432.668" stroke="#474747" stroke-width="0.5" stroke-linecap="round" stroke-linejoin="round"/>
<path d="M234.022 482.11L223.344 472.163L220.71 469.677L210.471 464.411L209.008 463.387" stroke="#474747" stroke-width="0.5" stroke-linecap="round" stroke-linejoin="round"/>
<path d="M121.68 440.567L120.949 439.982L119.924 439.105L113.635 433.253L106.759 425.062L100.177 415.554L94.1791 404.875L88.7672 393.027L84.086 380.301L79.9905 366.843L76.9185 352.8L74.5779 338.319L73.1151 323.691L72.8223 308.916L73.408 294.435L75.0164 280.1L82.7696 276.443L85.6952 261.669L89.6443 247.479L94.6184 234.314L100.762 222.173L107.783 211.349L114.512 202.864L115.682 201.841L116.56 200.963" stroke="#474747" stroke-width="0.5" stroke-linecap="round" stroke-linejoin="round"/>
<path d="M385.565 372.549L369.182 376.791L361.868 375.036L354.407 371.671L353.822 371.232" stroke="#474747" stroke-width="0.5" stroke-linecap="round" stroke-linejoin="round"/>
<path d="M250.986 281.416L251.571 282.001L262.835 277.759L280.973 270.006L300.721 260.937L317.69 252.745L326.612 248.064" stroke="#474747" stroke-width="0.5" stroke-linecap="round" stroke-linejoin="round"/>
<path d="M514.144 333.346L513.412 334.516L514.144 351.192L508.293 360.115L501.564 367.429L493.958 372.841L485.619 376.352L476.696 377.961H474.795" stroke="#474747" stroke-width="0.5" stroke-linecap="round" stroke-linejoin="round"/>
<path d="M114.367 202.865L105.444 210.472L89.0608 210.326L71.5073 201.695L56.5873 186.482L49.127 168.929L50.8819 154.447" stroke="#474747" stroke-width="0.5" stroke-linecap="round" stroke-linejoin="round"/>
<path d="M258.157 299.262L257.279 296.629" stroke="#474747" stroke-width="0.5" stroke-linecap="round" stroke-linejoin="round"/>
<path d="M473.48 382.787L469.53 387.468L463.825 394.489L446.125 399.755L425.5 396.83L408.239 386.737L397.854 371.67L398 356.311" stroke="#474747" stroke-width="0.5" stroke-linecap="round" stroke-linejoin="round"/>
<path d="M212.374 374.449L207.839 378.837L201.988 384.835L204.474 405.021L205.499 426.817L204.767 447.003L202.135 465.142L198.038 481.086L179.753 488.4L174.342 502.004L167.32 513.121L159.274 521.313L150.206 526.871L140.258 529.504L129.872 529.212L122.558 528.041L117.146 527.31L110.564 526.14L95.4968 512.682L85.9886 510.195L76.3348 505.222L66.6803 498.054L63.3154 480.355L54.6851 471.87L46.3477 461.485L38.3023 449.343L30.842 435.447L24.113 420.088L18.1155 403.412L12.9957 385.712L8.90018 366.989L5.97461 347.68" stroke="#474747" stroke-width="0.5" stroke-linecap="round" stroke-linejoin="round"/>
<path d="M321.35 170.391L314.328 165.564L313.158 150.204L319.156 131.627L331.004 114.074L345.193 102.81L357.627 101.055" stroke="#474747" stroke-width="0.5" stroke-linecap="round" stroke-linejoin="round"/>
<path d="M629.705 296.336L629.12 297.36L628.827 298.53L624.585 306.575L618.88 314.036L612.298 320.033L605.276 324.422L597.523 327.201H597.377" stroke="#474747" stroke-width="0.5" stroke-linecap="round" stroke-linejoin="round"/>
<path d="M353.824 377.522L347.535 387.762L346.364 389.517L329.396 397.416L308.331 399.025L287.707 393.905L273.956 383.373L270.592 370.939" stroke="#474747" stroke-width="0.5" stroke-linecap="round" stroke-linejoin="round"/>
<path d="M676.661 95.3505L672.857 92.5713L673.882 79.4063L680.61 63.1692L691.727 47.3712L703.869 37.1317L713.377 34.9375" stroke="#474747" stroke-width="0.5" stroke-linecap="round" stroke-linejoin="round"/>
<path d="M480.501 348.851L471.725 358.506L471.14 359.237L453.293 364.942L432.083 364.211L413.944 357.482L402.681 346.072L402.096 333.492" stroke="#474747" stroke-width="0.5" stroke-linecap="round" stroke-linejoin="round"/>
<path d="M353.822 357.774L347.825 366.551L346.508 368.745L329.54 376.644L308.329 379.277L287.558 376.059L273.662 367.721L270.443 357.043" stroke="#474747" stroke-width="0.5" stroke-linecap="round" stroke-linejoin="round"/>
<path d="M739.119 184.58L739.997 187.798L741.46 193.942L743.362 202.426L745.409 216.908L745.994 230.951L745.117 244.554L743.069 257.281L739.705 268.837L735.17 279.369L744.385 293.558L759.744 303.797L777.883 307.747L793.242 303.944L801.434 293.997L807.724 279.954L812.551 264.156L815.623 246.895L816.94 228.464L816.355 209.155" stroke="#474747" stroke-width="0.5" stroke-linecap="round" stroke-linejoin="round"/>
<path d="M476.699 280.1L477.577 287.414L468.215 295.313L450.369 302.188L429.158 305.845L411.02 305.113L400.049 300.579" stroke="#474747" stroke-width="0.5" stroke-linecap="round" stroke-linejoin="round"/>
<path d="M472.311 259.914L473.042 265.18L463.242 272.494L445.396 279.808L424.478 284.928L406.925 286.537L396.393 284.343" stroke="#474747" stroke-width="0.5" stroke-linecap="round" stroke-linejoin="round"/>
<path d="M149.325 188.091H149.032L147.277 186.336L137.476 176.827L131.771 157.665L133.673 135.869L142.596 118.17L156.492 108.223L171.12 109.539L176.386 110.563L188.967 112.757" stroke="#474747" stroke-width="0.5" stroke-linecap="round" stroke-linejoin="round"/>
<path d="M466.165 239.58L466.603 242.944L456.364 249.381L438.81 257.134L418.331 264.009L401.363 267.958L391.416 268.104" stroke="#474747" stroke-width="0.5" stroke-linecap="round" stroke-linejoin="round"/>
<path d="M407.506 142.012L410.724 145.961L416.575 152.836L419.793 156.347L422.28 159.565L424.474 162.052L425.351 162.93L430.618 170.536L431.788 172.145L436.322 178.728L436.762 179.605L437.785 180.776" stroke="#474747" stroke-width="0.5" stroke-linecap="round" stroke-linejoin="round"/>
<path d="M580.705 193.355L581.29 194.965" stroke="#474747" stroke-width="0.5" stroke-linecap="round" stroke-linejoin="round"/>
<path d="M201.987 384.836L201.695 384.982L193.211 388.347L183.118 392.443L181.508 392.589L160.152 395.222L158.982 395.075L142.16 392.735L140.404 392.443L139.965 393.466L142.305 410.727L143.476 429.158L143.183 446.419L141.282 461.925L137.917 475.968L133.383 487.816L127.677 497.617L120.803 505.077L113.05 510.05L104.566 512.537L95.4961 512.684" stroke="#474747" stroke-width="0.5" stroke-linecap="round" stroke-linejoin="round"/>
<path d="M565.931 133.82L563.298 140.11L561.251 145.084L558.764 151.52" stroke="#474747" stroke-width="0.5" stroke-linecap="round" stroke-linejoin="round"/>
<path d="M266.936 160.591L275.419 159.859L277.175 159.713H277.321" stroke="#474747" stroke-width="0.5" stroke-linecap="round" stroke-linejoin="round"/>
<path d="M261.668 408.239H259.474L257.133 408.093L249.819 406.776L232.266 414.383L219.687 430.766L215.59 450.514L220.71 469.676L230.95 472.455L240.751 472.748L250.112 470.7L258.743 466.165L266.496 459.29L273.37 450.221L278.929 438.811L283.318 425.646L286.243 410.579L287.706 393.904L287.56 376.058L285.804 357.042L282.44 337.44L277.467 317.546L270.738 297.506L262.839 277.759L253.331 258.742L242.652 240.604L230.803 223.635L218.077 208.276L204.473 194.672L190.284 182.824L175.803 173.169L161.029 165.709L146.254 160.589L131.773 157.664L117.437 157.079L103.687 158.688L90.6685 162.637L78.3812 168.635L66.971 176.68L56.5858 186.481L47.3698 198.037L39.3245 211.055L32.3034 225.244L26.7444 240.75L22.356 257.133L19.1383 273.955L17.2363 291.509L16.5049 309.062L16.9442 326.762L18.5534 344.169L21.3325 361.284L24.9895 377.667L29.5243 393.319L34.7897 407.947L40.9337 421.404L47.5163 433.545L54.6838 444.224L61.9977 453.147L69.7509 460.461L77.5034 466.019L85.1102 469.676L92.5698 471.285L99.738 470.993L106.466 468.798L112.464 464.703L117.876 458.705L122.411 450.953L122.996 449.343L123.435 448.466L124.02 446.857V446.71L124.166 446.564V446.418L124.898 444.516L125.337 443.053L126.068 441.444L128.701 430.62L130.164 418.332L130.457 405.021V401.949L130.164 399.609L128.555 385.127L127.531 374.449L138.355 364.063L145.816 361.137L150.643 359.236L156.787 356.895L161.76 356.31L164.246 356.018L179.314 354.116L185.018 354.847L197.745 356.603L199.208 356.749L209.447 363.039L211.056 364.063L211.348 365.818L211.495 367.135L212.373 374.449L212.665 377.082L213.396 382.64V382.787L213.981 387.76L214.713 394.05L214.859 397.853L215.152 403.266L215.444 408.824L215.59 414.675L215.298 422.721L215.005 428.426L214.859 433.838L212.518 449.051L212.226 451.099L209.593 460.753L209.008 463.094V463.386L208.423 465.288V465.434L208.13 466.165L202.718 478.892L202.572 479.184L195.696 489.424L192.479 494.544L192.039 495.275L185.311 505.514L177.119 513.706L168.05 519.118L161.906 521.751L150.204 526.871L129.871 523.653L120.509 526.286L110.563 526.14L100.177 523.361L89.6442 517.948L87.7429 516.193L79.1126 509.903L77.0648 507.855L71.7987 502.882L66.6789 498.054L57.0244 488.4L47.8091 476.698L38.886 463.094L34.7897 455.341L30.6942 447.588L23.2338 430.474L16.6513 412.042L11.093 392.295L6.70464 371.669L3.48622 350.313L5.97325 347.68L4.21762 327.786L3.63265 307.892L4.51046 287.852L2.02344 284.487L4.36404 262.838L8.31385 241.774L13.8722 221.734L20.8932 202.571L29.3778 184.872L35.0826 175.656L39.3245 168.781L50.8804 154.445L63.6069 142.304L74.5778 133.381L77.6498 131.772L92.5698 124.751L108.515 119.778L125.19 117.583L142.597 118.168L160.444 121.387L178.289 127.53L196.282 136.453L213.835 148.009L230.803 162.052L247.187 178.289L262.546 196.72L276.735 216.76L289.461 238.41L300.725 260.936L310.233 284.341L317.985 307.892L323.69 331.443L327.494 354.409L329.541 376.643L329.396 397.414L327.64 416.723L323.983 434.277L318.717 449.49L311.988 462.508L304.089 472.894L295.02 480.647L284.781 485.767L274.102 488.107L262.692 487.668L257.573 486.937L252.891 486.206L245.139 485.182L233.29 474.503L230.95 472.455L224.513 453L227.585 432.668L239.434 416.138H246.309L252.745 414.383L258.743 411.018L260.059 409.848L262.107 408.678L263.131 408.093L264.302 405.899V405.752L267.519 395.513L269.567 383.811L270.591 370.938L270.445 357.042L268.982 342.56L266.349 327.347L264.155 316.522L262.4 311.988L258.45 299.115L257.28 296.629L251.575 282.001L250.99 281.415L243.676 266.788L243.383 265.617L235.338 252.891L233.875 249.966L226.269 239.726L223.197 236.069L217.053 228.755L216.615 228.17L216.322 227.878L214.128 224.806L211.933 223.489L209.154 220.564L205.79 217.199L200.962 209.446L198.33 207.252L190.284 200.962L188.675 199.207L175.949 190.723L163.076 184.14L150.204 179.459L146.254 160.589L150.204 138.94L160.444 121.387L174.779 111.586L193.064 117.876L211.495 126.945L229.487 138.647L246.894 152.836L263.57 169.366L274.833 168.342L279.661 174.193L289.754 186.188L291.948 189.26L297.506 197.159L303.504 205.643L305.991 209.739L308.624 214.274L315.791 226.268L316.815 228.316L319.741 234.021L320.033 234.753L323.398 241.628L326.616 248.064L329.541 255.232L330.712 258.157L331.004 258.889L332.613 262.692L333.198 264.155L335.685 270.298L342.999 292.679L348.558 315.06L340.805 323.544L344.608 346.51L346.51 368.744L346.363 389.515L344.462 408.824L340.805 426.231L338.611 432.668L335.539 441.444L318.717 449.49L298.384 448.612L278.929 438.811L266.496 423.013L270.153 411.311L272.639 398L273.955 383.372L273.663 367.72L272.054 351.19L269.128 333.93L264.74 316.669L259.767 301.748L258.889 299.115L254.501 288.437L251.868 282.001L248.065 274.394L247.48 273.224L243.676 265.325L240.604 260.205L234.168 249.527L233.437 248.503L223.929 234.753L217.492 227L214.567 223.928L212.811 221.441L211.787 220.417L200.962 209.446L204.473 194.672L215.59 176.972L230.803 162.052L246.894 152.836L258.743 152.544L266.934 160.589L268.251 161.906L268.397 162.052L272.932 166.587L274.833 168.342" stroke="#474747" stroke-width="0.5" stroke-linecap="round" stroke-linejoin="round"/>
<path d="M467.631 396.83L465.875 399.316L463.681 402.242L457.683 409.117L440.13 414.237L419.944 410.287L403.268 398.877L393.76 382.494L394.345 365.818" stroke="#474747" stroke-width="0.5" stroke-linecap="round" stroke-linejoin="round"/>
<path d="M214.568 223.489L212.812 221.441" stroke="#474747" stroke-width="0.5" stroke-linecap="round" stroke-linejoin="round"/>
<path d="M720.104 279.076L718.202 281.27L710.304 289.901L709.279 290.193" stroke="#474747" stroke-width="0.5" stroke-linecap="round" stroke-linejoin="round"/>
<path d="M609.371 307.746L607.324 307.453L600.01 310.379" stroke="#474747" stroke-width="0.5" stroke-linecap="round" stroke-linejoin="round"/>
<path d="M212.224 451.1L208.713 456.074L205.348 460.755L202.131 465.143L183.846 472.457L161.318 471.433L141.278 461.925L129.576 447.297L131.185 433.547L130.161 418.334" stroke="#474747" stroke-width="0.5" stroke-linecap="round" stroke-linejoin="round"/>
<path d="M343.582 426.672L340.51 432.669L340.071 433.547L337.292 438.813L335.829 441.3L328.808 454.318L311.986 462.51L292.092 461.047L273.368 450.223L261.519 432.962L260.057 414.823L262.69 407.948L264.153 406.046L264.299 405.9V405.754" stroke="#474747" stroke-width="0.5" stroke-linecap="round" stroke-linejoin="round"/>
<path d="M522.045 106.906L524.386 107.199L525.702 107.345L531.407 107.638L531.846 107.93" stroke="#474747" stroke-width="0.5" stroke-linecap="round" stroke-linejoin="round"/>
</svg>
