<svg width="720" height="220" viewBox="0 0 720 220" fill="none" xmlns="http://www.w3.org/2000/svg">
<path d="M718.821 218.82L689.854 218.595L660.942 218.313L632.088 218.088L603.289 217.862L574.49 217.58L545.692 217.355L516.95 217.073L488.151 216.848L459.296 216.622L430.498 216.397L401.756 216.171L373.014 215.89L344.328 215.664L315.699 215.439L287.013 215.213L258.383 214.988L229.697 214.763L201.068 214.594L172.382 214.368L143.809 214.143L115.236 213.861L86.6629 213.635L58.09 213.41L29.5168 213.185L1 212.959" stroke="#474747" stroke-width="0.5" stroke-linecap="round" stroke-linejoin="round"/>
<path d="M712.681 201.858L684.333 201.633L655.929 201.407L627.638 201.295L599.403 201.125L571.281 200.9L543.158 200.562L515.036 200.224L486.745 199.886L458.397 199.66L430.162 199.378L401.983 199.153L373.861 198.927L345.796 198.646L317.786 198.42L289.72 198.251L261.654 198.082L233.476 197.913L205.41 197.8L177.288 197.631L149.222 197.406L121.269 197.124L93.2026 196.899L65.1933 196.617L37.2401 196.391L9.23047 196.166" stroke="#474747" stroke-width="0.5" stroke-linecap="round" stroke-linejoin="round"/>
<path d="M706.762 185.626L678.865 185.57L650.912 185.683L623.072 186.021L595.513 186.246L568.236 186.077L540.903 185.457L513.232 184.556L485.335 183.88L457.382 183.372L429.654 183.09L402.039 182.809L374.593 182.583L347.26 182.358L319.87 182.132L292.48 181.963L264.922 181.851L237.25 181.907L209.579 181.963H182.02L154.574 181.625L127.072 181.231L99.5136 180.836L72.0676 180.554L44.6218 180.329L17.1758 180.104" stroke="#474747" stroke-width="0.5" stroke-linecap="round" stroke-linejoin="round"/>
<path d="M700.954 170.465L673.565 170.803L646.006 172.043L618.335 174.185L591.34 176.157L565.359 176.383L561.921 175.199L561.02 174.917L560.456 174.748L553.468 172.607L548.79 171.142L547.268 170.691L543.492 169.563L536.391 167.365L509.509 160.603L482.063 156.714L454.617 155.474L427.622 155.982L401.303 157.052L378.704 157.728H375.717H373.181L351.709 157.672H350.3L324.714 156.545L298.621 154.911L272.02 153.727L245.081 153.783L218.086 155.925L210.196 157.165L210.14 157.278L209.971 157.447L207.886 158.968L204.842 160.264L201.01 161.335L196.614 162.068L191.88 162.406L187.146 162.35L182.694 161.955L178.693 161.166L175.48 160.039L174.353 155.7L174.24 150.909L175.086 146.006L176.889 141.272L179.538 136.933L182.863 133.326L186.695 130.621L190.753 128.986L195.769 129.606L200.503 131.297L204.729 134.058L208.167 137.665L209.238 139.525L210.703 141.723L211.211 142.963L211.774 144.823L211.943 146.513L212.056 151.247L210.985 152.938L208.787 154.516L205.575 155.925L201.517 157.052L196.839 157.785L191.824 158.179L186.752 158.123L182.018 157.672L177.791 156.827L174.353 155.7L171.93 154.234L171.817 149.5L172.832 144.654L174.917 140.089L177.904 136.031L181.736 132.706L185.906 130.113L190.753 128.986L195.712 129.212L195.994 129.268L198.079 129.663L199.827 129.832L200.447 130.564L200.897 130.79L203.264 132.142L203.997 132.593L204.617 132.931L205.18 133.382L206.928 134.96L208.055 136.257L208.506 137.102L210.027 139.525L210.478 140.314L210.591 141.892L209.633 143.47L207.547 144.935L204.504 146.232L200.672 147.246L196.276 147.979L191.542 148.317H186.808L182.299 147.866L178.298 147.077L175.086 146.006L172.832 144.654L171.592 143.188L171.535 141.61L173.169 138.511L173.733 137.384L174.691 136.031L176.269 134.34L177.002 133.72L181.059 131.184L185.737 129.494L186.019 129.099L190.753 128.986L195.431 128.592L197.065 128.648L198.192 128.986L198.699 129.155L199.827 129.775L199.939 129.832L200.447 130.113L202.081 131.015L203.772 131.917L204.617 132.931L204.729 134.058L204.053 135.185L202.532 136.2L200.39 137.102L197.685 137.834L194.529 138.342L191.204 138.567H187.822L184.667 138.285L181.849 137.722L179.538 136.933L177.904 136.031L177.058 134.96L177.002 133.833L177.734 132.762L179.256 131.748L181.059 130.959L181.623 130.339L182.638 129.719L184.892 129.155L186.188 128.817L186.526 128.761L190.753 128.986L194.078 128.197L194.98 128.367L195.431 128.817L195.712 129.212L195.769 129.606L195.487 130.001L194.98 130.339L194.191 130.677L193.176 130.959L190.753 128.986L187.315 128.423L185.906 128.704L184.159 129.043L182.638 129.719L181.567 130.395L181.059 130.677L179.256 131.748L177.734 132.762L177.002 133.551" stroke="#474747" stroke-width="0.5" stroke-linecap="round" stroke-linejoin="round"/>
<path d="M695.432 156.32L668.55 157.447L641.498 160.716L614.391 166.408L606.05 168.55L596.863 170.917L591.397 172.326L590.721 172.495L587.846 173.227L584.07 173.509" stroke="#474747" stroke-width="0.5" stroke-linecap="round" stroke-linejoin="round"/>
<path d="M690.36 142.23L664.041 143.865L637.947 148.543L612.08 156.714L607.684 158.856" stroke="#474747" stroke-width="0.5" stroke-linecap="round" stroke-linejoin="round"/>
<path d="M685.51 127.297L659.586 127.973L633.549 130.284L612.641 133.665" stroke="#474747" stroke-width="0.5" stroke-linecap="round" stroke-linejoin="round"/>
<path d="M680.666 113.094L655.249 113.206L629.719 113.883L605.316 114.841" stroke="#474747" stroke-width="0.5" stroke-linecap="round" stroke-linejoin="round"/>
<path d="M529.293 135.694L505.397 132.988L478.571 134.397L452.309 140.596L428.921 149.783L426.723 150.403" stroke="#474747" stroke-width="0.5" stroke-linecap="round" stroke-linejoin="round"/>
<path d="M129.605 60.7395L106.329 54.9909L82.8281 52.3984" stroke="#474747" stroke-width="0.5" stroke-linecap="round" stroke-linejoin="round"/>
<path d="M71.5039 71.2773L95.3993 71.672L119.126 72.4045L142.57 73.0809L165.902 73.2498L189.516 73.1373L213.637 73.0245L238.096 73.8698L262.667 76.4059L286.957 80.6327L291.015 81.478" stroke="#474747" stroke-width="0.5" stroke-linecap="round" stroke-linejoin="round"/>
<path d="M77.418 61.2461L101.144 62.3732L124.758 64.9093L145.667 67.1072L147.695 67.3326" stroke="#474747" stroke-width="0.5" stroke-linecap="round" stroke-linejoin="round"/>
<path d="M427.176 51.4393L449.888 51.2137L473.107 51.0447L496.439 50.9883H519.77L543.103 51.1011L566.378 51.2137L589.597 51.3265L612.816 51.4954L636.035 51.6083L659.254 51.7772" stroke="#474747" stroke-width="0.5" stroke-linecap="round" stroke-linejoin="round"/>
<path d="M93.1992 29.3477L115.686 31.1512L130.17 33.7434H130.339" stroke="#474747" stroke-width="0.5" stroke-linecap="round" stroke-linejoin="round"/>
<path d="M98.6094 17.6816L120.758 18.527L135.016 19.3162" stroke="#474747" stroke-width="0.5" stroke-linecap="round" stroke-linejoin="round"/>
<path d="M384.847 28.6706L384.566 28.5016L366.306 24.8948L355.147 31.4884L351.822 30.6431L349.342 29.5159L347.877 28.2762L347.426 26.9798L348.103 25.7402L349.85 24.5002L352.498 23.4859L355.993 22.6405L366.306 24.8948L382.875 29.7416L384.678 28.6144L401.755 36.3352L406.038 39.6041L416.915 47.8884L419.958 51.4952L429.088 62.4849L430.722 65.7537L437.541 79.2795L438.556 83.6188L441.768 97.2009L441.599 115.123L437.936 129.099L436.978 132.142L434.949 135.58L428.975 145.893V147.641L426.777 150.289L426.27 150.458L425.537 150.571L415.957 152.262L404.291 154.291L400.458 154.967L389.581 156.151L375.887 157.672L375.605 157.785L373.182 157.728L356.387 157.616H351.71L340.213 156.094L327.251 154.403L326.011 154.178L322.629 145.668L319.698 129.268L319.586 111.008L322.291 91.9598L327.588 73.4184L335.197 56.5112L344.552 42.2527L355.147 31.4884L359.148 32.1648L363.601 32.503H368.166L372.674 32.2212L376.732 31.6577L380.226 30.8123L393.47 40.8438L398.599 38.7023L401.755 36.3352L402.882 33.7991L401.867 31.263L393.583 28.727L391.272 27.9944L385.636 26.2473L384.678 25.9655L383.1 24.7256L382.65 24.3312L380.79 23.6548L377.296 22.8095L373.294 22.1895L368.955 21.8516L366.306 24.8948L368.166 32.503L369.969 44.2252L371.603 59.4416L372.843 77.1941L373.745 96.3556L374.196 115.799V134.171L373.689 150.346L373.182 157.672" stroke="#474747" stroke-width="0.5" stroke-linecap="round" stroke-linejoin="round"/>
<path d="M1 212.959L9.2282 196.165L17.1746 180.103L24.7828 164.605L32.1093 149.727L39.2103 135.356L46.0296 121.492L52.6232 108.079L59.1043 95.1727L65.36 82.8306L71.5029 71.2774L77.4204 61.2459L82.8307 52.3977L87.9028 42.197L93.2004 29.3477L98.6107 17.6816" stroke="#474747" stroke-width="0.5" stroke-linecap="round" stroke-linejoin="round"/>
<path d="M29.5156 213.185L37.2367 196.391L44.6195 180.329L51.6642 164.831L58.5396 149.952L65.1335 135.581L71.4453 121.661L77.6446 108.304L83.6185 95.3423L89.536 83.0002L95.3971 71.6723L101.146 62.3734L106.331 54.9905L110.726 45.4662L115.686 31.1516L120.758 18.5273" stroke="#474747" stroke-width="0.5" stroke-linecap="round" stroke-linejoin="round"/>
<path d="M58.0898 213.41L65.1909 196.615L72.0663 180.553L78.6038 165.168L84.972 150.402L91.0588 135.862L96.9199 121.886L102.612 108.473L108.135 95.5669L113.602 83.2811L119.125 72.404L124.76 64.9087L129.607 60.7383L143.583 65.5286L147.867 67.1629L149.05 67.3883L154.573 67.4447" stroke="#474747" stroke-width="0.5" stroke-linecap="round" stroke-linejoin="round"/>
<path d="M86.6602 213.636L93.1976 196.898L99.5098 180.836L105.596 165.676L111.401 151.193L117.037 136.371L122.447 122.169L127.632 108.699L132.704 95.737L137.607 83.5641L142.567 73.0816L147.864 67.1641L149.048 67.3894" stroke="#474747" stroke-width="0.5" stroke-linecap="round" stroke-linejoin="round"/>
<path d="M393.469 40.8438L405.135 54.4259L414.603 70.7695L421.196 88.9166L424.521 107.683L424.352 125.887L420.746 142.399L415.955 152.262" stroke="#474747" stroke-width="0.5" stroke-linecap="round" stroke-linejoin="round"/>
<path d="M115.234 213.86L121.265 197.122L127.069 181.23L132.649 166.464L137.89 152.656L143.075 137.102L147.978 122.562L152.655 108.98L157.22 96.0175L161.673 83.7317L165.899 73.2492L169.957 67.6699" stroke="#474747" stroke-width="0.5" stroke-linecap="round" stroke-linejoin="round"/>
<path d="M143.812 214.143L149.223 197.405L154.576 181.625L159.818 167.536L164.552 155.644L169.286 138.342L173.569 123.126L177.852 109.544L181.91 96.5817L185.855 84.0706L189.518 73.1373L193.069 65.7545L216.851 63.4438L240.803 62.373L264.755 62.5984L288.538 63.8945L297.611 64.6273" stroke="#474747" stroke-width="0.5" stroke-linecap="round" stroke-linejoin="round"/>
<path d="M172.383 214.368L177.286 197.63L182.02 181.963L186.697 168.663L187.994 166.352V166.014L187.768 165.789L187.148 162.351L186.754 158.124L186.641 153.334L186.81 148.318L187.205 143.246L187.825 138.568L188.67 134.454L189.685 131.185L190.755 128.987L193.01 128.029L194.024 128.198L194.982 128.367L197.067 128.649" stroke="#474747" stroke-width="0.5" stroke-linecap="round" stroke-linejoin="round"/>
<path d="M201.066 214.595L205.406 197.8L209.576 181.964L213.691 167.818L218.086 155.927L221.975 139.64L225.807 126.227L228.907 114.448L231.95 101.486L235.106 87.2838L238.093 73.8709L240.798 62.3741L243.504 52.3988L246.209 41.8038L248.519 29.5742L250.717 18.3027" stroke="#474747" stroke-width="0.5" stroke-linecap="round" stroke-linejoin="round"/>
<path d="M229.699 214.764L233.475 197.913L237.251 181.908L241.083 167.029L245.085 153.785L249.03 140.823L252.355 130.96L254.553 121.493L256.976 108.474L260.076 92.2997L262.668 76.4068L264.753 62.5993L266.782 50.8771L268.924 39.8311L270.952 28.5597L272.981 17.9082" stroke="#474747" stroke-width="0.5" stroke-linecap="round" stroke-linejoin="round"/>
<path d="M258.383 214.989L261.651 198.082L264.92 181.851L268.302 166.747L272.021 153.729L275.854 144.148L278.615 139.132L279.573 132.707L281.32 119.407L284.589 100.415L286.956 80.6334L288.534 63.8952L289.999 50.6513L291.634 39.1545L293.324 28.2212L295.128 17.8516" stroke="#474747" stroke-width="0.5" stroke-linecap="round" stroke-linejoin="round"/>
<path d="M287.012 215.213L289.717 198.25L292.478 181.963L295.409 166.859L298.621 154.911L302.003 149.275" stroke="#474747" stroke-width="0.5" stroke-linecap="round" stroke-linejoin="round"/>
<path d="M315.699 215.439L317.784 198.419L319.87 182.132L322.18 167.197L324.716 156.546L327.252 154.404" stroke="#474747" stroke-width="0.5" stroke-linecap="round" stroke-linejoin="round"/>
<path d="M344.328 215.665L345.793 198.645L347.259 182.358L348.724 167.536L350.302 157.674" stroke="#474747" stroke-width="0.5" stroke-linecap="round" stroke-linejoin="round"/>
<path d="M438.047 128.987L438.216 128.875L452.869 120.928L477.159 110.728L502.069 104.19L527.091 101.147L552.001 100.133L554.988 100.076" stroke="#474747" stroke-width="0.5" stroke-linecap="round" stroke-linejoin="round"/>
<path d="M305.892 50.8206L290 50.6514L266.781 50.877L243.505 52.3985L220.23 55.8364L197.179 61.8103L193.066 65.7553L183.147 66.6006L174.298 67.3332L169.959 67.6714H167.536L160.717 67.5586L154.573 67.446L153.39 65.5299L151.248 59.1614L150.009 51.4968L149.727 42.987L150.459 34.1389L152.094 25.5163L154.63 17.5699L157.842 10.8071L161.562 5.67849L163.534 5.79132H165.676L167.761 5.67849L169.734 5.45312L171.481 5.05851L177.173 9.6235L182.245 15.8792L186.415 23.3746L189.402 31.7156L191.093 40.3946L191.318 48.8481L190.078 56.6253L187.486 63.2756L181.569 64.6846L174.749 65.6425L167.536 66.1496L160.266 66.0935L153.39 65.5299L147.303 64.4589L144.373 57.9778L142.682 50.2571L142.4 41.7471L143.528 33.0117L146.064 24.5017L149.727 16.7246L154.404 10.2435L159.815 5.39671L161.562 5.67849L165.507 2.40989L174.298 3.48062L182.583 6.52385L189.966 11.3706L195.94 17.7389L197.461 20.4442L200.392 25.0653L201.068 26.756L202.252 30.9264L202.533 33.4625L200.674 35.9424L200.843 44.396L197.011 46.7628L195.432 54.6528L190.078 56.6253L183.316 58.2596L175.595 59.3306L167.367 59.8942L159.082 59.8378L151.248 59.1614L144.373 57.9778L138.85 56.2871L134.961 54.2585L134.623 53.5821L134.059 51.046L132.707 46.3121L132.425 37.8585L130.34 35.4914L130.509 33.8007L132.143 27.1506L135.976 19.4296L141.611 12.7231L148.712 7.42562L156.828 3.93137L165.507 2.40989L174.242 2.91705L174.637 3.0296L177.398 3.87496L182.527 5.17134L183.316 5.62208L187.317 8.27098L189.853 9.79246L190.642 10.5817L194.249 14.2449L195.771 15.71L196.503 17.0063L198.476 20.3878L199.997 22.9238L200.223 25.2345L198.476 27.6014L194.813 29.7431L189.402 31.7156L182.696 33.2371L174.918 34.3078L166.634 34.8153L158.293 34.7588L150.459 34.1389L143.528 33.0117L138.004 31.3774L134.116 29.4049L132.143 27.1506L132.2 24.8399L135.018 19.317L135.976 17.3445L137.723 15.372L141.499 11.1452L141.611 11.0324L143.02 9.45453L146.909 6.9746L148.656 6.07311L156.828 3.3678L157.279 2.80422L165.507 2.40989L173.735 2.35348L174.242 2.91705L174.298 3.48062L173.791 4.04419L172.833 4.60776L171.481 5.05851L165.507 2.40989L158.293 2.24065L157.448 2.63526L156.208 2.86064L152.714 3.81882L151.53 4.15674L149.671 5.17134L148.712 6.29848V7.42562L149.727 8.49635L151.643 9.45453L154.404 10.2435L157.842 10.8071L161.731 11.0888L165.845 11.1452L169.959 10.8635L173.791 10.356L177.173 9.6235L179.822 8.72173L181.681 7.651L182.583 6.52385L182.527 5.39671L181.456 4.32598L179.483 3.42421L178.243 3.14242L175.088 2.35348L173.341 1.95887L172.721 1.84632L165.507 2.40989L163.365 1.16992L161.393 1.3953L159.646 1.78991L158.575 2.07169L157.955 2.24065L157.729 2.29707L155.644 2.86064L154.235 3.25525L151.53 4.15674" stroke="#474747" stroke-width="0.5" stroke-linecap="round" stroke-linejoin="round"/>
<path d="M348.555 24.8402L349.851 24.502L366.307 24.8966" stroke="#474747" stroke-width="0.5" stroke-linecap="round" stroke-linejoin="round"/>
<path d="M586.379 99.7945L601.483 99.7381L626.224 99.6816H651.133L676.043 99.7945" stroke="#474747" stroke-width="0.5" stroke-linecap="round" stroke-linejoin="round"/>
<path d="M223.664 46.1979L225.975 31.8268L228.398 19.1465" stroke="#474747" stroke-width="0.5" stroke-linecap="round" stroke-linejoin="round"/>
<path d="M293.773 126.847L281.318 119.407L256.972 108.474L231.949 101.486L206.814 97.9917L181.904 96.5828L157.219 96.0192L132.704 95.7374L108.132 95.5684L83.6169 95.3431L59.1016 95.1738" stroke="#474747" stroke-width="0.5" stroke-linecap="round" stroke-linejoin="round"/>
<path d="M435.57 65.4734L449.829 64.5717L473.668 63.3881L497.563 62.712L521.459 62.4863H545.241L568.855 62.5992L592.469 62.712L616.082 62.8245L639.696 62.9938L663.253 63.1627" stroke="#474747" stroke-width="0.5" stroke-linecap="round" stroke-linejoin="round"/>
<path d="M314.909 151.924L309.725 141.554L306.005 124.985L305.836 106.838L309.274 88.1272L316.149 70.1493L325.955 53.9185L338.072 40.4492" stroke="#474747" stroke-width="0.5" stroke-linecap="round" stroke-linejoin="round"/>
<path d="M415.676 39.6055L427.06 39.6616L449.772 39.718L472.484 39.7744L495.308 39.8873L518.189 39.9998L541.07 40.1126L563.952 40.2252L586.832 40.338L609.657 40.4508L632.482 40.6198L655.306 40.7326" stroke="#474747" stroke-width="0.5" stroke-linecap="round" stroke-linejoin="round"/>
<path d="M647.867 19.7676L651.53 30.0808L655.306 40.7326L659.251 51.7783L663.253 63.1626L667.367 74.9412L671.65 87.1708L676.046 99.7947L680.667 113.095L685.514 127.297L690.36 142.232L695.433 156.321L700.955 170.467L706.76 185.627L712.678 201.858L718.821 218.821" stroke="#474747" stroke-width="0.5" stroke-linecap="round" stroke-linejoin="round"/>
<path d="M625.715 19.6543L629.04 29.9678L632.478 40.6193L636.028 51.6089L639.692 62.9932L643.411 74.7718L647.243 87.0011L651.132 99.6815L655.246 113.207L659.586 127.973L664.038 143.866L668.546 157.448L673.562 170.804L678.86 185.57L684.326 201.632L689.849 218.595" stroke="#474747" stroke-width="0.5" stroke-linecap="round" stroke-linejoin="round"/>
<path d="M603.57 19.4844L606.614 29.7976L609.657 40.4493L612.813 51.4951L616.082 62.823L619.463 74.6016L622.845 86.8312L626.226 99.6805L629.72 113.883L633.552 130.283L637.948 148.542L641.499 160.715L646.007 172.043L650.91 185.682L655.926 201.405L660.942 218.312" stroke="#474747" stroke-width="0.5" stroke-linecap="round" stroke-linejoin="round"/>
<path d="M581.477 19.373L584.125 29.6866L586.83 40.338L589.592 51.3277L592.466 62.7119L595.453 74.4905L598.497 86.7199L601.483 99.7384L603.963 113.039" stroke="#474747" stroke-width="0.5" stroke-linecap="round" stroke-linejoin="round"/>
<path d="M559.328 19.2598L561.639 29.573L563.95 40.2245L566.373 51.2141L568.852 62.5984L571.445 74.377L574.094 86.663L576.066 96.5255L576.235 97.258V97.3708" stroke="#474747" stroke-width="0.5" stroke-linecap="round" stroke-linejoin="round"/>
<path d="M537.238 19.1465L539.155 29.46L541.071 40.1115L543.1 51.1011L545.241 62.4851L547.439 74.3201L549.693 86.7187L552.004 100.132L552.229 101.541" stroke="#474747" stroke-width="0.5" stroke-linecap="round" stroke-linejoin="round"/>
<path d="M515.09 19.0352L516.668 29.292L518.189 39.9999L519.767 50.9895L521.458 62.4863L523.262 74.4905L525.121 87.3399L527.094 101.147L529.348 116.477L530.813 127.917" stroke="#474747" stroke-width="0.5" stroke-linecap="round" stroke-linejoin="round"/>
<path d="M492.996 18.9219L494.236 29.179L495.307 39.8868L496.434 50.989L497.561 62.7115L498.914 75.3919L500.435 89.3683L502.07 104.19L503.76 118.561L505.395 132.989L506.916 149.05L509.509 160.604L511.538 171.255L513.229 184.556L515.032 200.223L516.948 217.074" stroke="#474747" stroke-width="0.5" stroke-linecap="round" stroke-linejoin="round"/>
<path d="M470.961 18.8086L471.806 29.1221L472.482 39.7736L473.102 51.045L473.666 63.3872L474.399 77.5893L475.582 93.8764L477.16 110.727L478.006 124.309L478.569 134.397L480.091 145.33L482.063 156.715L483.81 169.282L485.332 183.879L486.741 199.884L488.15 216.848" stroke="#474747" stroke-width="0.5" stroke-linecap="round" stroke-linejoin="round"/>
<path d="M448.926 18.6973L449.433 29.0105L449.771 39.7184L449.884 51.2152L449.828 64.5719L449.94 81.4227L450.955 101.317L452.871 120.929L453.096 134.286L452.307 140.598L452.983 146.29L454.618 155.476L456.196 168.269L457.379 183.373L458.394 199.66L459.295 216.623" stroke="#474747" stroke-width="0.5" stroke-linecap="round" stroke-linejoin="round"/>
<path d="M404.915 18.4707L404.746 28.784L404.633 32.4472" stroke="#474747" stroke-width="0.5" stroke-linecap="round" stroke-linejoin="round"/>
<path d="M426.892 18.584L427.061 28.8975V39.6615L426.836 51.0458" stroke="#474747" stroke-width="0.5" stroke-linecap="round" stroke-linejoin="round"/>
<path d="M565.363 176.383L568.237 186.076L571.281 200.898L574.493 217.58" stroke="#474747" stroke-width="0.5" stroke-linecap="round" stroke-linejoin="round"/>
<path d="M533.633 127.466L538.423 118.618L545.073 110.953L553.245 104.923L562.431 100.809L572.125 98.9492L580.184 102.331L581.424 101.654L590.046 106.557L597.655 113.377L603.629 121.661L607.742 130.96L609.659 140.71" stroke="#474747" stroke-width="0.5" stroke-linecap="round" stroke-linejoin="round"/>
<path d="M375.604 157.785L375.21 167.76L374.59 182.582L373.857 198.926L373.012 215.889" stroke="#474747" stroke-width="0.5" stroke-linecap="round" stroke-linejoin="round"/>
<path d="M529.121 143.189L530.755 150.009L531.319 152.432L532.559 154.912L532.728 158.068L536.391 167.367L538.871 174.186L540.9 185.457L543.154 200.561L545.69 217.356" stroke="#474747" stroke-width="0.5" stroke-linecap="round" stroke-linejoin="round"/>
<path d="M532.673 121.322L531.884 124.14L531.602 125.098L530.813 128.198L529.348 133.664L531.095 136.989L535.153 140.146L541.352 142.963L549.354 145.33L558.71 146.965L568.798 147.866L578.998 147.979L588.804 147.19L597.484 145.668L604.584 143.471L609.657 140.709" stroke="#474747" stroke-width="0.5" stroke-linecap="round" stroke-linejoin="round"/>
<path d="M338.074 27.0933L339.089 18.0762" stroke="#474747" stroke-width="0.5" stroke-linecap="round" stroke-linejoin="round"/>
<path d="M546.368 104.697L544.339 106.67L543.269 107.684L540.056 110.784L538.816 112.024" stroke="#474747" stroke-width="0.5" stroke-linecap="round" stroke-linejoin="round"/>
<path d="M132.426 37.8585L134.116 29.4049L137.723 21.3457L143.021 14.2449L149.728 8.49635L157.336 4.49494L165.508 2.40989L169.509 1.16992" stroke="#474747" stroke-width="0.5" stroke-linecap="round" stroke-linejoin="round"/>
<path d="M200.674 35.9407L198.476 27.5997L194.362 19.7661L188.669 13.0032L181.681 7.64931L173.791 4.04251L165.507 2.4082L158.349 4.94428L151.643 9.45285L145.782 15.5957L141.16 23.0911L138.004 31.3757L136.539 39.9983L136.821 48.5082L138.85 56.2854L142.457 62.9357L147.303 64.4572L149.67 67.2189" stroke="#474747" stroke-width="0.5" stroke-linecap="round" stroke-linejoin="round"/>
<path d="M129.605 60.739L133.269 52.7362L133.325 52.4544L132.987 51.9473" stroke="#474747" stroke-width="0.5" stroke-linecap="round" stroke-linejoin="round"/>
<path d="M197.009 46.7622L196.783 38.3086L194.811 29.7425L191.148 21.6833L186.075 14.5261L179.82 8.72113L172.831 4.60717L165.505 2.40929L156.826 3.14183L154.741 3.59258L149.669 5.17074L148.654 6.07251L141.609 11.0882V12.7225L143.018 14.2443L145.78 15.5968L149.725 16.724L154.628 17.5693L160.207 17.9637L166.069 18.0201L171.93 17.6819L177.453 16.8929L182.243 15.8786L186.075 14.5261L188.668 13.0043L189.964 11.37L189.851 9.79186L188.33 8.27038L183.314 5.62149L182.525 5.17074L181.454 4.32538L176.495 2.80363L175.086 2.35288L173.564 2.18365L172.831 1.84572L171.253 1.45111L169.506 1.16933L167.534 1.05664L165.505 2.40929L159.813 5.39611L158.348 4.94537L157.333 4.49434L156.826 3.93077V3.14183L157.446 2.63467L158.291 2.24006L159.644 1.78931L165.505 2.40929L169.732 5.45253L173.789 10.3554L177.453 16.8929L180.44 24.7265L182.694 33.2365L183.934 42.0283L184.159 50.5383L183.314 58.259L181.567 64.684L181.229 65.2475" stroke="#474747" stroke-width="0.5" stroke-linecap="round" stroke-linejoin="round"/>
<path d="M196.953 57.3017L197.967 55.3856L201.575 53.5256L223.666 46.1992" stroke="#474747" stroke-width="0.5" stroke-linecap="round" stroke-linejoin="round"/>
<path d="M441.77 82.9995L449.941 81.4214L474.4 77.5892L498.916 75.3913L523.262 74.4895L547.439 74.3203L571.447 74.3767L595.456 74.4895L619.464 74.6021L643.416 74.7713L667.367 74.9403" stroke="#474747" stroke-width="0.5" stroke-linecap="round" stroke-linejoin="round"/>
<path d="M581.424 98.8916L580.747 98.7227L572.125 98.948L569.138 103.118L566.263 109.374L563.615 117.433L561.36 126.732L559.67 136.82L558.711 146.964L558.43 156.658L558.881 165.224L560.008 172.212L560.966 174.748" stroke="#474747" stroke-width="0.5" stroke-linecap="round" stroke-linejoin="round"/>
<path d="M173.734 2.35352L174.242 2.46606L176.496 2.80426L179.483 3.42425" stroke="#474747" stroke-width="0.5" stroke-linecap="round" stroke-linejoin="round"/>
<path d="M198.477 20.3876L206.423 20.1623L228.402 19.1477L250.719 18.3023L272.981 17.908L295.129 17.8516L317.165 17.9641L339.088 18.0769L361.067 18.1898L382.99 18.3587L404.913 18.4715L426.892 18.5841L448.928 18.6969L470.963 18.8095L492.999 18.9223L515.091 19.0351L537.239 19.1477L559.331 19.2605L581.48 19.373L603.572 19.4859L625.72 19.6548L647.868 19.7677" stroke="#474747" stroke-width="0.5" stroke-linecap="round" stroke-linejoin="round"/>
<path d="M443.684 104.133L450.954 101.315L475.582 93.8757L500.435 89.3671L525.12 87.3382L549.691 86.7182L574.094 86.6621L598.497 86.7182L622.843 86.8311L647.246 87L671.648 87.1693" stroke="#474747" stroke-width="0.5" stroke-linecap="round" stroke-linejoin="round"/>
<path d="M340.215 156.096L338.242 148.6L336.382 132.369L336.27 113.997L338.016 94.7229L341.454 75.7869L346.357 58.3162L352.387 43.4943L359.15 32.1665L366.308 24.8965L384.68 25.9672" stroke="#474747" stroke-width="0.5" stroke-linecap="round" stroke-linejoin="round"/>
<path d="M356.387 157.617L355.598 150.178L354.922 134.003V115.631L355.542 96.2441L356.838 77.0827L358.698 59.3301L361.009 44.1699L363.601 32.5041L366.306 24.8959L377.296 22.8105L380.79 23.6559L382.706 24.1069L385.299 24.7266L387.44 25.1212L393.921 26.812" stroke="#474747" stroke-width="0.5" stroke-linecap="round" stroke-linejoin="round"/>
<path d="M576.352 103.176L580.297 109.488L583.678 117.547L586.327 126.902L588.074 136.99L588.806 147.191L588.468 156.884L587.116 165.45L584.805 172.382L584.072 173.509L583.622 173.566" stroke="#474747" stroke-width="0.5" stroke-linecap="round" stroke-linejoin="round"/>
<path d="M339.703 26.4745L346.41 24.8966L348.101 24.502" stroke="#474747" stroke-width="0.5" stroke-linecap="round" stroke-linejoin="round"/>
<path d="M338.074 40.4492L344.555 42.2525L352.389 43.4925L361.012 44.1686L369.972 44.225L378.708 43.6614L386.711 42.5343L393.473 40.8436" stroke="#474747" stroke-width="0.5" stroke-linecap="round" stroke-linejoin="round"/>
<path d="M398.434 28.7285L404.746 28.7849L427.063 28.8978L449.437 29.0103L471.811 29.1231L494.241 29.1795L516.671 29.2921L539.158 29.4613L561.644 29.5739L584.13 29.6867L606.617 29.7992L629.047 29.9685L651.534 30.081" stroke="#474747" stroke-width="0.5" stroke-linecap="round" stroke-linejoin="round"/>
<path d="M535.661 116.363L529.349 116.476L503.763 118.561L478.008 124.31L453.098 134.285L433.936 144.88L428.977 147.642L426.159 150.065L425.539 150.572" stroke="#474747" stroke-width="0.5" stroke-linecap="round" stroke-linejoin="round"/>
<path d="M197.011 46.7627L191.318 48.848L184.161 50.5388L175.933 51.6659L167.141 52.2859L158.293 52.2295L150.009 51.4967L142.682 50.257L136.821 48.5098L132.707 46.312L130.622 43.8885L130.34 35.4913L130.509 33.8006L130.34 32.9552L131.242 29.0102L131.749 26.6995L132.2 24.8398" stroke="#474747" stroke-width="0.5" stroke-linecap="round" stroke-linejoin="round"/>
<path d="M307.864 150.459L303.638 146.12L303.525 145.951L302.06 143.414L297.1 134.904L294.902 131.072" stroke="#474747" stroke-width="0.5" stroke-linecap="round" stroke-linejoin="round"/>
<path d="M382.989 18.3574L382.707 24.0495" stroke="#474747" stroke-width="0.5" stroke-linecap="round" stroke-linejoin="round"/>
<path d="M426.27 150.459L427.622 155.982L428.862 167.93L429.651 183.09L430.158 199.377L430.496 216.397" stroke="#474747" stroke-width="0.5" stroke-linecap="round" stroke-linejoin="round"/>
<path d="M198.195 128.987L199.491 124.084L203.211 111.009L206.818 97.9909L210.312 84.9726L213.637 73.0248L216.849 63.4441L220.231 55.8358L223.669 46.1987L246.211 41.803L268.924 39.8305L291.635 39.1541L314.235 39.0977H317.447" stroke="#474747" stroke-width="0.5" stroke-linecap="round" stroke-linejoin="round"/>
<path d="M428.923 53.244L430.896 57.8654L429.092 62.4865L423.569 66.8826L414.608 70.7712L402.661 73.9272L388.458 76.1251L372.848 77.1958L356.842 77.0833L341.457 75.7869L327.593 73.4201L316.152 70.1512L307.755 66.0936L302.852 61.6412L301.781 57.0201L304.374 52.4551L305.895 50.8208L310.517 45.974L313.898 42.4236L316.265 39.9437L317.561 39.0983L329.283 31.9411L331.087 30.814L339.259 28.3905L341.795 27.6015L347.149 26.0236L348.107 25.7418L366.31 24.8965L376.736 31.6593L386.712 42.5362L395.56 56.9072L402.661 73.9272L407.676 92.5815L410.156 111.63L410.043 129.946L407.338 146.29L404.295 154.293" stroke="#474747" stroke-width="0.5" stroke-linecap="round" stroke-linejoin="round"/>
<path d="M533.633 127.466L537.465 130.453L543.326 133.102L550.878 135.243L559.67 136.821L569.194 137.667L578.831 137.723L588.074 136.99L596.246 135.581L602.952 133.552L607.742 130.96L610.391 128.03L610.73 124.986" stroke="#474747" stroke-width="0.5" stroke-linecap="round" stroke-linejoin="round"/>
<path d="M288.988 102.217L284.593 100.414L260.077 92.2982L235.111 87.2822L210.314 84.9718L185.855 84.07L161.678 83.7318L137.613 83.5629L113.605 83.2811L89.5404 82.9993L65.3633 82.8301" stroke="#474747" stroke-width="0.5" stroke-linecap="round" stroke-linejoin="round"/>
<path d="M566.597 174.861L561.919 175.199L561.75 175.03" stroke="#474747" stroke-width="0.5" stroke-linecap="round" stroke-linejoin="round"/>
<path d="M132.426 37.8575L136.54 39.999L142.401 41.7461L149.728 42.9861L158.068 43.6622L166.916 43.7186L175.708 43.155L183.936 42.0279L191.094 40.3936L196.786 38.3082L200.674 35.9414" stroke="#474747" stroke-width="0.5" stroke-linecap="round" stroke-linejoin="round"/>
<path d="M208.789 159.871L209.859 157.898L210.085 157.278L210.987 152.939L210.874 148.205L209.634 143.471L207.323 139.018L204.055 135.186L200.053 132.086L195.488 130.001L190.754 128.987L189.458 128.029L188.331 128.198L187.091 128.367L186.302 128.649L186.02 129.1L185.739 129.381L185.795 129.945L186.077 130.283L186.697 130.621L187.486 130.903L188.5 131.072L190.754 128.987L191.825 127.916L193.009 128.029L194.079 128.198L195.432 128.592L195.714 128.874L197.404 129.269L198.081 129.663L200.448 130.34L202.082 131.016L202.195 131.072L203.773 131.917L204.618 132.763L205.125 133.214L205.182 133.383L207.83 136.088L208.056 136.257L208.169 137.666L207.323 139.018L205.464 140.315L202.815 141.442L199.433 142.344L195.545 142.963L191.374 143.302L187.204 143.245L183.259 142.907L179.708 142.231L176.89 141.273L174.918 140.089L173.847 138.793L173.734 137.384L177.003 133.834" stroke="#474747" stroke-width="0.5" stroke-linecap="round" stroke-linejoin="round"/>
<path d="M334.526 28.5028L331.088 30.8135L329.736 33.3496L330.468 35.8856L333.286 38.3089L338.076 40.4506L351.828 30.6442L366.311 24.896L380.626 23.656L382.711 24.276L385.304 24.7267L391.954 26.3613L393.926 26.8121L398.435 28.7282L398.83 28.8974L401.591 30.5881L403.676 31.8278L404.634 32.7296L410.552 36.6746L415.399 39.6053L416.92 40.5632L418.442 44.2264L416.92 47.8896L412.411 51.3838L405.141 54.4271L395.561 56.9067L384.12 58.5974L371.609 59.4428L358.703 59.3303L346.361 58.3157L335.202 56.5124L325.96 53.9199L319.14 50.7639L315.139 47.2135L314.181 43.5503L316.266 39.9432L317.45 39.0978L321.169 36.5617L327.087 33.0114L330.186 31.0953L331.314 30.4189L334.526 28.5028ZM334.526 28.5028L334.977 28.3338L338.02 27.3756L344.67 25.8539L348.39 24.6706L352.504 23.4871L352.673 23.4306L355.998 22.6417L360.056 22.0781L366.311 24.896L385.191 27.2628L389.08 28.6717L402.887 33.8003L411.566 39.6053L418.442 44.2264L425.036 51.4403L430.897 57.8649L435.293 65.4731L437.209 68.5728L439.519 73.8703L441.774 83.0003L443.859 91.341L441.774 97.2021L435.236 102.725L424.528 107.685L410.157 111.63L393.025 114.391L374.201 115.8L354.927 115.631L336.273 113.997L319.591 111.01L305.84 106.839L295.809 101.767L290.06 96.075L293.442 82.0421L294.343 78.266L301.219 64.9096L302.853 61.6407L311.983 50.9328L315.139 47.2135L326.016 39.1542L330.468 35.8856L347.545 28.4464L347.883 28.2774L366.311 24.896L380.232 30.8135L382.88 29.7428L398.604 38.7035L412.411 51.3838L423.57 66.8821L431.348 84.4092L435.236 102.725L435.067 120.816L430.84 137.554L420.752 142.401L407.339 146.289L391.278 148.994L373.694 150.347L355.604 150.178L338.246 148.6L322.635 145.669L309.729 141.555L300.317 136.596L294.907 131.073L293.78 126.846L290.286 114.053L290.06 96.075L288.82 90.2139L291.018 81.4785L293.16 72.856L297.612 64.6278L301.782 57.0196L307.418 50.8767L314.181 43.5503L320.887 39.1542L329.736 33.3496L343.487 28.39L347.432 26.981L366.311 24.896L383.106 24.7267L384.346 25.0649L388.516 26.1357L398.153 28.7282L398.83 28.8974L401.873 31.2642L403.564 32.335L404.634 32.7296L412.524 37.1817L415.68 39.6053L416.92 40.5632L419.062 42.8174L423.739 47.777L426.839 51.0456L427.177 51.4403L428.924 53.2435L431.122 57.3013L432.193 59.2738L435.293 65.4731L439.519 73.8703L437.547 79.2806L431.348 84.4092L421.203 88.9178L407.678 92.581L391.503 95.117L373.751 96.3567L355.547 96.2442L338.02 94.7224L322.296 91.961L309.278 88.1285L299.81 83.451L294.343 78.266L293.16 72.856" stroke="#474747" stroke-width="0.5" stroke-linecap="round" stroke-linejoin="round"/>
<path d="M306.454 150.177L303.41 147.528L279.571 132.706L254.549 121.491L228.906 114.446L203.208 111.009L177.847 109.543L152.655 108.98L127.633 108.698L102.61 108.472L77.6436 108.303L52.6211 108.078" stroke="#474747" stroke-width="0.5" stroke-linecap="round" stroke-linejoin="round"/>
<path d="M208.055 160.998L209.971 157.447L210.027 157.222L210.929 155.869L211.042 155.419L212.056 151.248" stroke="#474747" stroke-width="0.5" stroke-linecap="round" stroke-linejoin="round"/>
<path d="M609.318 156.207L606.669 159.194L602.668 165.844" stroke="#474747" stroke-width="0.5" stroke-linecap="round" stroke-linejoin="round"/>
<path d="M173.172 138.512L169.283 138.342L143.077 137.103L117.04 136.37L91.0595 135.863L65.1352 135.581L39.2109 135.355" stroke="#474747" stroke-width="0.5" stroke-linecap="round" stroke-linejoin="round"/>
<path d="M360.727 22.0216L361.065 18.1895" stroke="#474747" stroke-width="0.5" stroke-linecap="round" stroke-linejoin="round"/>
<path d="M364.449 21.7949L366.309 24.8946" stroke="#474747" stroke-width="0.5" stroke-linecap="round" stroke-linejoin="round"/>
<path d="M206.311 162.125L207.889 158.968L208.79 154.516L208.678 149.782L207.55 144.936L205.465 140.314L202.535 136.2L198.984 132.819L194.983 130.339L190.756 128.986L187.488 130.903L184.444 133.89L181.852 137.722L179.71 142.23L178.301 147.077L177.625 152.093L177.794 156.827L178.696 161.166L180.386 164.717L183.824 165.393L187.769 165.788H190.024" stroke="#474747" stroke-width="0.5" stroke-linecap="round" stroke-linejoin="round"/>
<path d="M556.512 99.3437L559.837 98.3855L564.007 97.8219L565.811 97.4837L567.896 97.1455L570.206 96.9766L572.123 98.9491L582.098 100.978L591.397 105.148L599.512 111.348L602.499 114.954L605.993 119.125L610.389 128.029L612.418 137.554L612.08 147.134L610.896 151.023L612.08 156.715L614.391 166.409L618.336 174.186L623.07 186.021L627.635 201.294L632.087 218.088" stroke="#474747" stroke-width="0.5" stroke-linecap="round" stroke-linejoin="round"/>
<path d="M313.895 42.4221L314.233 39.0968L315.642 28.2764L317.163 17.9629" stroke="#474747" stroke-width="0.5" stroke-linecap="round" stroke-linejoin="round"/>
<path d="M191.937 165.506L191.881 162.407L191.824 158.18L191.712 153.39L191.542 148.317L191.373 143.302L191.204 138.567L191.035 134.454L190.866 131.185L190.753 128.987L190.641 127.916" stroke="#474747" stroke-width="0.5" stroke-linecap="round" stroke-linejoin="round"/>
<path d="M203.66 163.139L204.844 160.265L205.576 155.925L205.464 151.135L204.505 146.232L202.815 141.441L200.391 137.102L197.461 133.439L194.192 130.677L190.754 128.986L185.908 130.113L181.117 131.973" stroke="#474747" stroke-width="0.5" stroke-linecap="round" stroke-linejoin="round"/>
<path d="M594.67 170.24L591.965 171.086L591.57 171.536" stroke="#474747" stroke-width="0.5" stroke-linecap="round" stroke-linejoin="round"/>
<path d="M200.224 164.041L201.014 161.336L201.521 157.053L201.351 152.262L200.675 147.246L199.435 142.343L197.688 137.835L195.547 133.946L193.18 130.959" stroke="#474747" stroke-width="0.5" stroke-linecap="round" stroke-linejoin="round"/>
<path d="M537.517 113.263L536.953 115.969L538.418 118.617L541.8 121.21L546.985 123.521L553.635 125.38L561.356 126.733L569.753 127.466L578.207 127.522L586.322 126.902L593.536 125.662L599.397 123.915L603.624 121.661L605.991 119.125L606.272 116.42L605.089 114.842L604.356 113.883L603.962 113.038L601.426 110.333L599.904 108.586L598.495 107.064L595.396 105.035L591.732 102.837L590.605 102.048L588.689 100.752L586.378 99.7942L585.758 99.5124L581.983 98.498" stroke="#474747" stroke-width="0.5" stroke-linecap="round" stroke-linejoin="round"/>
<path d="M196.221 164.717L196.615 162.068L196.841 157.785L196.672 152.994L196.277 147.979L195.544 142.963L194.53 138.342L193.347 134.284L192.05 131.128L190.754 128.986L188.331 128.197L187.316 128.423L186.527 128.761" stroke="#474747" stroke-width="0.5" stroke-linecap="round" stroke-linejoin="round"/>
<path d="M144.316 64.853L142.456 62.9369L139.075 61.1333L137.328 59.1044L135.524 56.0612L134.115 53.8069L133.833 53.2997L133.27 52.7362L132.932 52.9051L110.727 45.4661L87.9023 42.1973" stroke="#474747" stroke-width="0.5" stroke-linecap="round" stroke-linejoin="round"/>
<path d="M140.878 62.8811L139.075 61.134L135.637 55.3293L134.961 54.2586L134.623 53.5822L133.439 52.3987L132.988 51.9479L132.875 51.5533L131.072 45.4668L130.621 43.8887" stroke="#474747" stroke-width="0.5" stroke-linecap="round" stroke-linejoin="round"/>
<path d="M570.207 96.9766H572.631L575.054 97.1455" stroke="#474747" stroke-width="0.5" stroke-linecap="round" stroke-linejoin="round"/>
<path d="M576.347 103.175L574.037 103.344L571.557 103.288L569.134 103.119L566.936 102.725L561.863 108.642L557.355 116.363L553.635 125.38L550.874 135.243L549.352 145.33L549.07 154.968L550.085 163.646L552.339 170.804L553.297 172.269" stroke="#474747" stroke-width="0.5" stroke-linecap="round" stroke-linejoin="round"/>
<path d="M400.461 154.967L401.306 157.052L401.87 167.873L402.039 182.807L401.982 199.151L401.757 216.171" stroke="#474747" stroke-width="0.5" stroke-linecap="round" stroke-linejoin="round"/>
<path d="M427.962 147.416L426.328 148.825" stroke="#474747" stroke-width="0.5" stroke-linecap="round" stroke-linejoin="round"/>
<path d="M303.692 149.614L303.41 147.529L303.523 145.951" stroke="#474747" stroke-width="0.5" stroke-linecap="round" stroke-linejoin="round"/>
<path d="M163.367 1.1691L165.453 1L167.538 1.05641" stroke="#474747" stroke-width="0.5" stroke-linecap="round" stroke-linejoin="round"/>
<path d="M572.631 96.9766L572.124 98.9491L571.56 103.289L570.94 109.77L570.32 117.998L569.757 127.466L569.193 137.667L568.798 147.867L568.46 157.561L568.348 166.07V172.946L568.404 174.749" stroke="#474747" stroke-width="0.5" stroke-linecap="round" stroke-linejoin="round"/>
<path d="M195.772 15.7085L195.941 17.7375L194.363 19.7664L191.15 21.6825L186.416 23.3732L180.443 24.7257L173.623 25.6275L166.353 26.0785L159.027 26.0221L152.095 25.5149L146.065 24.5003L141.162 23.0914L137.724 21.3443L135.977 19.4282V17.3431L137.329 15.9342L140.88 11.8764L141.612 11.031L143.021 9.45312" stroke="#474747" stroke-width="0.5" stroke-linecap="round" stroke-linejoin="round"/>
<path d="M184.16 129.043L186.077 128.592" stroke="#474747" stroke-width="0.5" stroke-linecap="round" stroke-linejoin="round"/>
<path d="M176.777 163.759L175.537 162.519L173.677 159.42L173.001 158.574L171.987 157.165L171.93 156.94L170.69 152.657L170.578 150.966L170.521 147.923L170.465 146.176" stroke="#474747" stroke-width="0.5" stroke-linecap="round" stroke-linejoin="round"/>
<path d="M160.719 67.558L160.268 66.0929L159.085 59.8372L158.296 52.229L158.07 43.6626L158.296 34.7583L159.028 26.0229L160.212 17.9637L161.734 11.0883L163.537 5.79078L165.51 2.40935L171.258 1.45117L172.836 1.84578L173.287 1.90192" stroke="#474747" stroke-width="0.5" stroke-linecap="round" stroke-linejoin="round"/>
<path d="M541.634 167.536L540.619 166.409L536.731 158.688L534.871 149.727L535.153 140.146L537.464 130.453L541.803 121.21L547.833 113.039L555.216 106.332L563.444 101.542L572.123 98.9492L582.211 100.189" stroke="#474747" stroke-width="0.5" stroke-linecap="round" stroke-linejoin="round"/>
<path d="M167.534 67.6705V66.1488L167.365 59.8934L167.14 52.2852L166.915 43.7188L166.633 34.8144L166.351 26.0791L166.069 18.0198L165.844 11.1444L165.675 5.7905L165.506 2.40907L165.449 1" stroke="#474747" stroke-width="0.5" stroke-linecap="round" stroke-linejoin="round"/>
<path d="M546.65 169.959L545.748 168.832L542.592 161.393L541.07 152.601L541.352 142.964L543.325 133.102L546.988 123.521L552.004 114.842L558.146 107.572L564.966 102.218L572.123 98.9492L581.422 101.654" stroke="#474747" stroke-width="0.5" stroke-linecap="round" stroke-linejoin="round"/>
<path d="M351.71 157.617L350.301 157.674" stroke="#474747" stroke-width="0.5" stroke-linecap="round" stroke-linejoin="round"/>
<path d="M384.566 28.5029L385.186 27.2629L384.679 25.9668" stroke="#474747" stroke-width="0.5" stroke-linecap="round" stroke-linejoin="round"/>
<path d="M191.828 127.916H190.644L189.461 128.029" stroke="#474747" stroke-width="0.5" stroke-linecap="round" stroke-linejoin="round"/>
<path d="M193.178 130.959L192.05 131.128L190.867 131.185H189.684L188.5 131.072" stroke="#474747" stroke-width="0.5" stroke-linecap="round" stroke-linejoin="round"/>
<path d="M174.466 66.7124L174.747 65.6417L175.593 59.3298L175.931 51.6652L175.705 43.1552L174.916 34.3071L173.62 25.6281L171.93 17.6817L169.957 10.8627L167.759 5.67773L165.505 2.40913L161.391 1.39453" stroke="#474747" stroke-width="0.5" stroke-linecap="round" stroke-linejoin="round"/>
<path d="M178.298 164.492L177.509 163.703L175.481 160.04L173.226 158.687L171.93 154.235L170.69 152.657L170.521 147.923L170.465 146.176L171.536 141.611" stroke="#474747" stroke-width="0.5" stroke-linecap="round" stroke-linejoin="round"/>
<path d="M202.594 35.66L203.552 35.5471L225.982 31.8275L248.525 29.5732L270.955 28.5589L293.329 28.2207L315.646 28.2771L334.864 28.3335" stroke="#474747" stroke-width="0.5" stroke-linecap="round" stroke-linejoin="round"/>
<path d="M186.926 64.0081L187.489 63.2756L192.167 61.4721L195.435 54.6528L199.043 52.3985L200.789 49.9753L200.959 49.2989L202.706 41.8599L202.593 35.6606L202.537 33.4625L200.395 25.0653L200 22.9238" stroke="#474747" stroke-width="0.5" stroke-linecap="round" stroke-linejoin="round"/>
<path d="M181.115 131.975L181.735 132.707L182.862 133.327L184.44 133.891L186.468 134.229L188.666 134.454H191.033L193.344 134.285L195.542 133.947L197.458 133.44L198.98 132.82L200.051 132.087L200.501 131.298L200.445 130.34L199.825 129.777L198.698 129.157L198.191 129.1L196.5 128.762L194.81 128.48L190.752 128.988L185.736 129.382L183.989 129.72L181.622 130.34L181.34 130.509L181.058 130.904L181.115 131.975ZM181.115 131.975L177.057 134.962L173.845 138.794L171.59 143.19L170.52 147.867L171.816 149.502L174.239 150.911L177.621 152.094L181.847 152.883L186.638 153.334L191.71 153.39L196.669 152.996L201.347 152.263L205.461 151.136L208.673 149.784L210.871 148.205L211.942 146.515L210.702 141.724L210.477 140.315" stroke="#474747" stroke-width="0.5" stroke-linecap="round" stroke-linejoin="round"/>
<path d="M582.211 100.189L582.098 100.978L581.422 101.655" stroke="#474747" stroke-width="0.5" stroke-linecap="round" stroke-linejoin="round"/>
<path d="M180.723 165.112L180.385 164.718L177.511 163.703L175.538 162.519L174.468 161.167L173.453 159.533L173.002 158.574L171.988 157.053L164.549 155.644L137.892 152.657L111.404 151.192L84.9723 150.403L58.5408 149.952L32.1094 149.727" stroke="#474747" stroke-width="0.5" stroke-linecap="round" stroke-linejoin="round"/>
<path d="M184.046 165.676L183.82 165.394L182.693 161.956L182.017 157.673L181.848 152.883L182.298 147.867L183.257 142.907L184.666 138.286L186.469 134.228L188.498 131.072" stroke="#474747" stroke-width="0.5" stroke-linecap="round" stroke-linejoin="round"/>
<path d="M587.73 173.059L587.843 173.228L591.337 176.158L595.508 186.246L599.397 201.124L603.285 217.863" stroke="#474747" stroke-width="0.5" stroke-linecap="round" stroke-linejoin="round"/>
<path d="M183.145 66.6003L185.624 65.755L191.429 63.7261L197.177 61.81L201.573 53.5254L202.757 42.8739L203.546 35.5475L206.42 20.1621" stroke="#474747" stroke-width="0.5" stroke-linecap="round" stroke-linejoin="round"/>
<path d="M308.147 150.515L308.091 150.458L304.765 144.541L300.313 136.594L296.03 119.8L295.805 101.766L299.806 83.4498L307.753 66.0919L319.136 50.7626L333.282 38.3077L349.344 29.5159L366.308 24.8948L373.296 22.1895" stroke="#474747" stroke-width="0.5" stroke-linecap="round" stroke-linejoin="round"/>
<path d="M303.64 149.613H303.584L302.062 149.163L275.856 144.147L249.03 140.821L221.979 139.638L210.031 139.525" stroke="#474747" stroke-width="0.5" stroke-linecap="round" stroke-linejoin="round"/>
<path d="M565.363 176.384L561.418 176.046L538.875 174.186L511.542 171.256L483.814 169.283L456.199 168.269L428.866 167.93L401.871 167.874L375.214 167.762L348.726 167.536L322.182 167.198L295.412 166.86L268.304 166.747L241.084 167.029L213.694 167.818L186.699 168.663L159.817 167.536L132.653 166.465L105.601 165.676L78.6062 165.169L51.6676 164.831L24.7852 164.605" stroke="#474747" stroke-width="0.5" stroke-linecap="round" stroke-linejoin="round"/>
<path d="M334.52 28.5021L334.97 28.3331L338.014 27.3749L339.704 26.4731L341.79 25.966L348.158 24.5006L352.497 23.4863L366.305 24.8953L372.673 32.2217L378.703 43.6621L384.114 58.5967L388.453 76.1239L391.497 95.1163L393.018 114.39L392.962 132.763L391.271 148.994L389.58 156.151" stroke="#474747" stroke-width="0.5" stroke-linecap="round" stroke-linejoin="round"/>
<path d="M443.859 91.34L443.69 104.133L443.634 109.149L441.605 115.123L435.067 120.815L424.359 125.887L410.045 129.945L392.968 132.763L374.201 134.171L354.927 134.003L336.386 132.368L319.704 129.268L306.009 124.985L296.034 119.8L290.286 114.052L289.046 108.078L288.989 102.217L288.82 90.2129" stroke="#474747" stroke-width="0.5" stroke-linecap="round" stroke-linejoin="round"/>
<path d="M326.01 154.179L314.907 151.925L308.144 150.516L307.862 150.46L306.454 150.178L303.692 149.614H303.636L302.058 149.164L278.613 139.132L252.351 130.96L225.807 126.226L199.488 124.085L173.563 123.126L147.977 122.563L122.447 122.169L96.9177 121.887L71.4442 121.661L46.0273 121.492" stroke="#474747" stroke-width="0.5" stroke-linecap="round" stroke-linejoin="round"/>
<path d="M612.815 134.285L612.646 138.512L612.42 143.809L612.082 147.134L609.264 150.291L606.672 159.195L601.938 161.844L598.105 168.663" stroke="#474747" stroke-width="0.5" stroke-linecap="round" stroke-linejoin="round"/>
<path d="M610.894 151.023L609.316 156.208L607.681 158.857L605.99 161.506L604.863 163.309" stroke="#474747" stroke-width="0.5" stroke-linecap="round" stroke-linejoin="round"/>
<path d="M443.629 109.15L442.107 114.673L441.544 116.759L438.951 126.396L437.937 129.101L436.979 132.144L430.836 137.554L423.848 150.122" stroke="#474747" stroke-width="0.5" stroke-linecap="round" stroke-linejoin="round"/>
<path d="M585.76 99.5116L581.928 98.6099L579.392 98.0463L577.25 97.5391L572.122 98.9481L566.937 102.724L564.965 102.217L563.443 101.541L562.428 100.808L562.034 100.075L562.147 99.2863L562.879 98.5535L564.006 97.8209L565.753 97.4263L567.895 97.1445L572.122 98.9481L575.052 97.1445L576.236 97.3702L577.25 97.5391L579.392 98.0463L580.745 98.7227L581.759 99.3988L583.055 99.7934L590.72 102.161L591.621 103.682L591.396 105.147L590.043 106.556L587.676 107.796L584.351 108.811L580.294 109.487L575.729 109.825L570.938 109.769L566.261 109.374L561.865 108.642L558.145 107.571L555.215 106.331L553.242 104.922L552.397 103.4L552.679 101.935L554.088 100.526L554.989 100.075L556.511 99.3427L561.076 98.4973L564.119 97.9338L572.122 98.9481L579.223 98.0463L581.646 98.7791L583.901 99.5116L585.028 99.7934L588.691 100.752L590.607 102.048L591.227 102.329L591.791 102.668L595.397 105.035L598.497 107.063L599.793 109.205L599.511 111.347L597.652 113.376L594.214 115.123L589.48 116.588L583.675 117.546L577.138 118.053L570.318 117.997L563.612 117.433L557.356 116.362L552.002 114.841L547.832 113.037L545.071 110.952L543.887 108.811L544.338 106.669L546.367 104.697L551.552 101.879L552.228 101.541L552.848 101.202L554.088 100.526L556.173 100.075L559.216 99.3988L562.26 98.7227L562.879 98.5535L572.122 98.9481L581.759 99.3988L582.21 100.188L591.621 103.682L599.793 109.205L604.358 113.883L605.091 114.841L606.274 116.419L610.727 124.985L612.643 133.664L612.812 134.284L612.417 137.553L609.656 140.709L609.261 150.289L604.189 153.107L597.145 155.362L588.466 156.883L578.716 157.616L568.459 157.56L558.427 156.658L549.072 154.967L541.069 152.6L534.87 149.726L530.812 146.513L531.094 136.989L533.63 127.465L531.996 124.365L532.672 121.322L534.25 118.729L535.659 116.362L536.448 115.01L537.518 113.263L538.815 112.023L543.267 107.683L544.281 106.669H544.338L546.423 105.486L551.833 102.386L552.679 101.935L557.751 100.526L561.64 99.4552L562.147 99.2863L572.122 98.9481L578.434 102.78L580.181 102.329L587.676 107.796L594.214 115.123L599.399 123.914L602.949 133.551L604.584 143.47L604.189 153.107L601.935 161.843L595.228 163.984L587.113 165.45L577.927 166.182L568.346 166.069L558.878 165.224L550.086 163.646L542.591 161.392L536.73 158.687L532.954 155.587L532.559 153.896L530.812 146.513L529.121 143.188L529.291 135.693L529.347 133.664L530.08 130.339L530.812 128.197L531.996 124.365L536.73 116.362L536.955 115.968L543.887 108.811L552.397 103.4L562.034 100.075L572.122 98.9481L576.349 103.175L578.434 102.78L584.351 108.811L589.48 116.588L593.538 125.661L596.243 135.58L597.483 145.668L597.145 155.362L595.228 163.984L591.96 171.085L584.802 172.381L576.743 173.058L568.346 172.945L560.005 172.212L552.341 170.803L545.747 168.831L540.618 166.408L537.237 163.702L534.813 159.137L532.728 158.067L532.672 158.01L506.917 149.05L480.091 145.33L452.983 146.288L428.918 149.782L426.721 150.402H426.608L426.27 150.458" stroke="#474747" stroke-width="0.5" stroke-linecap="round" stroke-linejoin="round"/>
<path d="M197.969 55.385L198.702 53.976L199.772 51.9471L200.787 49.9746" stroke="#474747" stroke-width="0.5" stroke-linecap="round" stroke-linejoin="round"/>
<path d="M559.84 98.3842L563.278 97.8206L565.814 97.4824L572.126 98.9478L574.042 103.344L575.733 109.825L577.142 118.053L578.212 127.521L578.832 137.721L579.001 147.978L578.719 157.616L577.931 166.182L576.747 173.057L576.409 174.185" stroke="#474747" stroke-width="0.5" stroke-linecap="round" stroke-linejoin="round"/>
<path d="M210.199 157.165L210.932 155.869" stroke="#474747" stroke-width="0.5" stroke-linecap="round" stroke-linejoin="round"/>
<path d="M195.547 59.1044L197.294 55.723L199.041 52.398L200.844 44.3954L202.704 41.8594" stroke="#474747" stroke-width="0.5" stroke-linecap="round" stroke-linejoin="round"/>
<path d="M360.051 22.0767L360.727 22.0203L364.447 21.7949L368.955 21.8513" stroke="#474747" stroke-width="0.5" stroke-linecap="round" stroke-linejoin="round"/>
<path d="M532.562 154.912L532.957 155.589L533.802 157.279L534.817 159.139" stroke="#474747" stroke-width="0.5" stroke-linecap="round" stroke-linejoin="round"/>
</svg>
