<svg width="671" height="557" viewBox="0 0 671 557" fill="none" xmlns="http://www.w3.org/2000/svg">
<path d="M80.5686 88.741L139.32 69.4657L199.921 77.3302L261.756 85.3487L324.825 93.5215L389.281 101.848L455.126 110.329M584.04 27.8311L523.592 20.892L477.331 37.8542L417.038 30.7611L367.693 48.1861L316.035 66.3817L255.125 58.6716L200.075 77.3302L142.25 96.9138M506.322 90.1291L441.557 81.9563L378.179 73.9378L316.035 66.0733L261.911 85.1947L205.01 105.241M601.464 52.5035L538.858 45.102L477.485 37.8542L429.066 55.5875L378.334 74.0918L325.134 93.5215L269.158 114.03M248.804 33.6908L307.708 40.7843L357.979 23.6677L405.936 7.32245L464.224 13.9529M555.049 70.8538L491.364 63.1437L428.912 55.5875L367.693 48.1861L307.708 40.9383L255.125 58.8259L195.295 51.2701L139.32 69.6201M645.72 34.9245L584.04 27.8311L538.704 45.102L491.209 63.1437L441.557 82.1106L389.436 102.003L334.54 122.82M523.592 20.892L464.224 14.1072L417.038 30.7611L357.824 23.822L299.844 17.0369L248.804 33.8452L195.295 51.4241M405.936 7.47643L348.726 1L299.844 17.0369M81.9563 156.59L111.409 160.908L143.175 165.534L205.627 174.632L269.467 183.884L334.54 193.29L401.001 203.005L454.509 180.029L499.228 160.754L505.396 158.132L553.816 137.315L600.076 117.423L644.178 98.4559M81.3396 122.82L142.712 131.455L205.318 140.245L269.312 149.189L334.694 158.286L401.464 167.539L455.126 145.334L506.167 124.208L554.741 104.161L601.002 85.0403L645.257 66.6904M80.5686 88.741L142.095 97.0682L204.856 105.549L269.004 114.184L334.54 122.974L401.464 131.918L455.28 110.638L506.322 90.2831L555.049 71.0078L601.464 52.6578L645.72 35.0789M401.464 131.764L401.31 167.384L401.155 202.851M334.54 193.29V158.132V122.82M454.664 180.029L454.972 145.334L455.28 110.484M269.158 114.03L269.312 149.034L269.467 183.884M205.01 105.395L205.318 140.091L205.627 174.632M142.25 97.0682L142.712 131.455L143.175 165.534M505.396 158.132L505.859 124.208L506.322 90.1291M81.9563 156.59L81.3396 122.82L80.723 88.8954M555.049 70.8538L554.432 104.161L553.816 137.315M601.464 52.5035L600.847 85.0403L600.231 117.423M645.72 34.9245L644.949 66.8444L644.178 98.6102M463.299 226.136L384.347 223.977L305.858 221.818L227.678 219.659L149.805 217.5L72.3954 215.341M462.991 262.219L384.347 259.906L306.012 257.593L227.986 255.28L150.422 252.967L73.1664 250.654M462.528 298.302L384.039 295.989L305.858 293.676L228.14 291.363L150.731 289.05L73.6295 286.737M415.496 196.837L471.472 198.379M248.957 180.8L242.789 192.057L227.678 219.505L227.986 255.434L228.294 291.209M179.413 170.777L167.23 190.052L149.96 217.346L150.422 253.121L150.885 288.742M345.642 194.987L318.657 194.216L242.789 192.211L167.23 190.206L91.9794 188.202L79.0266 206.244L72.5498 215.341L73.1664 251.116L73.7838 286.737M124.208 162.758L110.175 162.45L91.8251 188.048M471.472 198.379L463.299 226.136L462.991 262.219M462.528 298.302L470.701 268.541L471.009 233.537L471.317 198.379L479.028 172.165M492.751 188.664L493.06 163.375M392.829 201.771L384.347 223.977L384.193 260.06L384.039 295.989M470.701 268.387L474.556 254.2L478.411 240.322L485.658 213.799L486.121 180.646L490.747 164.455M486.275 166.305L486.121 180.646L478.873 206.244L478.565 240.322M473.322 172.01L479.336 172.165M485.812 213.799L492.751 188.664L499.228 164.917V160.754M320.045 191.132L318.657 194.061L305.858 221.664V257.593V293.368M480.107 168.926L479.182 172.01L478.873 206.244L471.163 233.383L462.991 262.219L462.682 298.148M110.329 162.45L111.409 160.908M142.095 319.12L173.244 350.577L252.504 343.175M195.757 290.13L219.351 312.026L252.659 343.021L330.839 335.774M281.032 292.751L295.527 305.395L330.839 336.082L408.094 328.988M110.946 287.662L112.642 289.359L142.095 319.12L219.351 312.181L295.527 305.395L370.777 298.611L408.094 328.835L484.27 321.741L559.367 314.802M76.7135 286.583L85.657 295.835L113.413 324.825L142.712 355.511L173.861 388.048L252.967 380.492L330.993 373.091L407.94 365.689L483.962 358.441L558.904 351.348M33.6912 209.636L58.6716 234.771L59.2882 268.387L59.9056 301.849L84.115 327.909L86.12 330.068L113.876 359.983L143.175 391.595L151.039 400.076L174.323 425.211L253.275 417.347L331.148 409.636L407.94 402.081L483.654 394.525L558.442 387.123M518.195 285.503L464.687 290.284M33.6912 209.636L78.8722 206.089M483.499 394.679L483.962 358.441L484.425 321.895L452.967 297.994M174.169 425.211L173.707 388.048L173.244 350.577M252.659 343.175L252.812 380.338L252.967 417.347M330.993 335.928V372.936V409.636M407.632 402.081L407.786 365.534L407.94 328.835M34.4622 242.635L35.2332 275.326L60.0592 302.157M143.175 391.749L142.712 355.511L142.25 319.12M112.642 289.359L113.259 324.825L113.876 360.137M86.12 330.222L85.5026 295.835L85.349 286.737M366.768 295.372L370.777 298.611L397.146 296.298M33.6912 209.636L34.4622 242.481L59.2882 268.387L73.6295 283.345M73.0128 249.42L58.6716 234.925M112.642 289.359L127.137 288.125M58.6716 234.771L72.8585 233.691M558.133 387.277L558.596 359.058L558.75 351.194L559.367 314.956L518.195 285.503L479.336 257.747L473.63 258.21M474.71 254.355L479.336 257.747M670.547 392.211L587.124 367.539L558.442 375.712M549.035 388.202L615.651 408.557M296.143 450.346L378.95 479.028L440.786 460.523M298.456 412.875L357.824 432.767L440.786 460.523L500.77 442.636M101.694 347.03L61.4477 333.615L1 348.264M2.85073 417.501L71.3165 442.79L142.866 469.159L217.809 496.761L296.298 525.597L378.642 555.974L440.168 536.391L499.845 517.424L557.825 499.074L614.109 481.186L668.697 463.916M1.92537 382.959L70.5454 407.478L142.404 433.075L217.5 459.907L296.143 487.971L378.642 517.424L440.323 498.457L500.154 480.107L558.287 462.22L614.726 444.949L669.468 428.141M212.566 421.356L217.192 422.898L296.143 450.192L357.824 432.612L417.655 415.496L500.77 442.482L559.058 425.211L615.651 408.403L670.547 392.058M69.9288 372.011L114.493 360.754M378.95 479.028L378.796 517.578L378.642 555.974M440.168 536.391L440.477 498.611L440.786 460.523M296.298 525.597L296.143 488.125L295.989 450.346M499.845 517.578L500.307 480.261L500.77 442.79M559.058 425.365L558.442 462.374L557.825 499.228M217.809 496.761L217.5 460.061L217.192 423.052M615.651 408.557L614.88 445.103L614.109 481.341M559.058 425.365L475.789 399.151L417.655 415.65L383.268 404.548M668.697 464.07L669.622 428.295L670.547 392.211M142.866 469.159L142.404 433.229L141.941 396.992M71.3165 442.79L70.6998 407.478L69.9288 372.011M2.85073 417.501L1.92537 382.959L1 348.264M558.75 359.058L587.124 367.539M61.4477 333.615L84.115 328.063M466.691 396.221L475.789 399.151L495.99 393.445M229.065 419.814L217.192 423.052M1.15435 348.264L69.9288 372.011L141.941 396.838L151.039 399.922M141.941 396.992L146.876 395.758" stroke="#474747" stroke-width="0.5" stroke-linecap="round" stroke-linejoin="round"/>
</svg>
