<svg width="19" height="20" viewBox="0 0 19 20" fill="none" xmlns="http://www.w3.org/2000/svg">
<path d="M9.50156 18.7414C14.4169 18.7414 18.4016 14.7567 18.4016 9.84141C18.4016 4.92607 14.4169 0.941406 9.50156 0.941406C4.58623 0.941406 0.601562 4.92607 0.601562 9.84141C0.601562 14.7567 4.58623 18.7414 9.50156 18.7414Z" stroke="#CCBBFF" stroke-linecap="round"/>
<path d="M11.5661 6.63757C12.2221 6.41892 12.55 6.3096 12.7505 6.43636C12.8131 6.47598 12.8661 6.52902 12.9058 6.59166C13.0325 6.79207 12.9232 7.12004 12.7045 7.77599L11.5293 11.3019C11.4673 11.4877 11.4364 11.5806 11.3764 11.6528C11.3567 11.6766 11.3348 11.6985 11.311 11.7182C11.2388 11.7782 11.1459 11.8091 10.9601 11.8711L7.43419 13.0463C6.77825 13.265 6.45028 13.3743 6.24986 13.2476C6.18722 13.2079 6.13418 13.1549 6.09456 13.0923C5.9678 12.8918 6.07712 12.5639 6.29577 11.9079L7.47106 8.38207C7.533 8.19625 7.56397 8.10334 7.62387 8.03115C7.64363 8.00734 7.66555 7.98542 7.68935 7.96567C7.76154 7.90577 7.85445 7.8748 8.04027 7.81286L11.5661 6.63757Z" stroke="#CCBBFF" stroke-linecap="round"/>
</svg>
