<svg width="10" height="13" viewBox="0 0 10 13" fill="none" xmlns="http://www.w3.org/2000/svg">
<path d="M6.93507 1.91113H8.00562C8.28955 1.91113 8.56185 2.02392 8.76262 2.22469C8.96339 2.42546 9.07618 2.69776 9.07618 2.98169V10.4756C9.07618 10.7595 8.96339 11.0318 8.76262 11.2326C8.56185 11.4334 8.28955 11.5462 8.00562 11.5462H1.58228C1.29835 11.5462 1.02605 11.4334 0.825278 11.2326C0.624509 11.0318 0.511719 10.7595 0.511719 10.4756V2.98169C0.511719 2.69776 0.624509 2.42546 0.825278 2.22469C1.02605 2.02392 1.29835 1.91113 1.58228 1.91113H2.65283" stroke="white" stroke-linecap="round" stroke-linejoin="round"/>
<path d="M6.39148 0.84082H3.17981C2.88418 0.84082 2.64453 1.08047 2.64453 1.3761V2.44666C2.64453 2.74228 2.88418 2.98194 3.17981 2.98194H6.39148C6.68711 2.98194 6.92676 2.74228 6.92676 2.44666V1.3761C6.92676 1.08047 6.68711 0.84082 6.39148 0.84082Z" stroke="white" stroke-linecap="round" stroke-linejoin="round"/>
</svg>
