<svg width="145" height="33" viewBox="0 0 145 33" fill="none" xmlns="http://www.w3.org/2000/svg">
<path fill-rule="evenodd" clip-rule="evenodd" d="M30.7954 9.21166C30.7684 9.34662 30.6604 9.45459 30.4985 9.50857C26.6925 10.6153 23.6963 13.6115 22.5896 17.3905C22.5356 17.5794 22.3737 17.6874 22.2117 17.6874C22.0497 17.6874 21.8878 17.5794 21.8338 17.3905C20.7271 13.5845 17.7309 10.5883 13.9249 9.50857C13.7629 9.45459 13.655 9.34662 13.628 9.21166H13.601V9.15767V9.10368H13.628C13.655 8.96872 13.7629 8.86075 13.9249 8.80677C17.7309 7.72706 20.7271 4.73085 21.8338 0.924861C21.8878 0.735911 22.0497 0.62793 22.2117 0.62793C22.3737 0.62793 22.5356 0.735911 22.5896 0.924861C23.6963 4.73085 26.6925 7.72706 30.4985 8.80677C30.6604 8.86075 30.7684 8.96872 30.7954 9.10368H30.8224V9.15767V9.21166H30.7954ZM1.37374 9.26563H1.21179C0.887872 9.26563 0.671927 9.61655 0.833884 9.88648L7.33916 21.1425L13.8444 32.3985C14.0064 32.6684 14.4113 32.6684 14.5732 32.3985L19.324 24.1387C19.7559 23.3829 19.7828 22.4381 19.351 21.6823C15.7609 15.0961 9.14767 10.3453 1.37374 9.26563ZM43.2094 9.26563H43.0474C35.2735 10.3184 28.6603 15.0691 25.0432 21.7093C24.6113 22.4651 24.6383 23.4099 25.0702 24.1657L29.8479 32.4255C30.0099 32.6954 30.4148 32.6954 30.5768 32.4255L37.082 21.1695L43.5873 9.91347C43.7492 9.61654 43.5333 9.26563 43.2094 9.26563Z" fill="url(#paint0_linear_424_21600)"/>
<path fill-rule="evenodd" clip-rule="evenodd" d="M109.706 18.9021C109.706 16.5972 111.272 14.8538 113.518 14.8538C115.705 14.8538 117.241 16.4199 117.241 18.9021C117.241 21.3547 115.705 22.9503 113.518 22.9503C111.243 22.9503 109.706 21.1774 109.706 18.9021ZM120.019 25.0483V7.85059H117.241V14.6469C116.414 13.2581 114.877 12.4603 113.045 12.4603C109.559 12.4603 107.017 15.297 107.017 18.9021C107.017 22.5662 109.559 25.3734 113.045 25.3734C114.877 25.3734 116.414 24.6051 117.241 23.1867V25.0483H120.019ZM80.3643 18.9026C80.3643 16.6273 81.9599 14.8839 84.2352 14.8839C86.5105 14.8839 88.0767 16.6273 88.0767 18.9026C88.0767 21.2075 86.5105 22.9509 84.2352 22.9509C81.9599 22.9509 80.3643 21.1779 80.3643 18.9026ZM90.7657 18.8731C90.8248 15.268 87.9289 12.3722 84.2352 12.4313C80.4825 12.4313 77.7048 15.2089 77.7048 18.8731C77.7048 22.5667 80.4825 25.3444 84.2352 25.3444C87.9289 25.433 90.8248 22.4781 90.7657 18.8731ZM66.2708 12.8767L63.5227 21.5938L60.6564 12.7585H57.6423L61.9861 25.0511H64.7637L67.5414 16.8659L70.2599 25.0511H73.0376L77.4109 12.7585H74.4559L71.6192 21.5938L68.812 12.8767H66.2708ZM104.95 25.048H102.173V18.3403C102.173 16.0059 101.138 14.8535 99.129 14.8535C98.1243 14.8535 97.3264 15.2081 96.6763 15.9172C96.0263 16.5969 95.7012 17.5129 95.7012 18.5767V25.048H92.9236V12.7555H95.7012V14.6171C96.4104 13.3169 97.8583 12.4304 99.7199 12.4304C102.97 12.4304 104.95 14.4693 104.95 18.1334V25.048ZM132.225 17.8413C132.107 16.0093 130.659 14.7387 128.62 14.7387C126.788 14.7387 125.34 15.8911 124.956 17.8413H132.225ZM128.945 23.0125C126.917 23.0125 125.356 21.8717 124.962 19.9394H134.914C134.944 19.5848 134.974 19.1415 134.974 18.6096C134.974 15.0046 132.285 12.4929 128.62 12.4929C124.927 12.4929 122.267 15.2706 122.267 18.9347C122.267 22.6284 125.045 25.406 128.945 25.406C131.369 25.406 133.526 24.3422 134.56 22.7466L132.403 21.3577C131.694 22.3624 130.393 23.0125 128.945 23.0125ZM144.814 15.2579C144.824 15.2614 144.834 15.2648 144.844 15.2684H144.814V15.2579ZM144.814 15.2579V12.6976C144.489 12.5794 144.046 12.5203 143.455 12.5203C141.8 12.5203 140.47 13.4658 139.85 14.9433V12.7567H137.072V25.0492H139.85V18.8143C139.85 17.721 140.175 16.8345 140.854 16.1549C141.504 15.4457 142.391 15.0911 143.425 15.0911C144.027 15.0911 144.49 15.1467 144.814 15.2579Z" fill="#06040A"/>
<defs>
<linearGradient id="paint0_linear_424_21600" x1="38.1219" y1="32.6279" x2="37.4037" y2="0.62793" gradientUnits="userSpaceOnUse">
<stop stop-color="#CCBBFF"/>
<stop offset="0.473958" stop-color="#7427FF"/>
<stop offset="1" stop-color="#00BAFF"/>
</linearGradient>
</defs>
</svg>
