<svg width="132" height="33" viewBox="0 0 132 33" fill="none" xmlns="http://www.w3.org/2000/svg">
<path d="M19.7285 0.5H32.923" stroke="black" stroke-width="0.993388" stroke-linejoin="round"/>
<path d="M7.77344 32.5H21.157" stroke="black" stroke-width="0.993388" stroke-linejoin="round"/>
<path fill-rule="evenodd" clip-rule="evenodd" d="M23.1216 1.54864C22.2206 0.865523 21.0595 0.5 19.7542 0.5C18.9302 0.5 18.0673 0.649863 17.2606 0.932939C13.6281 2.2151 9.97831 4.8835 6.97998 8.45109C4.13265 11.8355 2.12226 15.7444 1.16884 19.745C0.62094 22.0387 -1.04432 29.0198 4.44758 31.6424C5.6426 32.2128 6.88076 32.5 8.13186 32.5C9.38308 32.5 10.5823 32.2189 11.7159 31.7529C11.203 30.566 10.853 29.2286 10.6695 27.7819C9.89845 28.1469 9.08346 28.3663 8.22246 28.3663C8.03263 28.3663 7.8385 28.3538 7.64867 28.333C7.17408 28.2797 7.30714 27.9387 7.48786 27.4756C7.66033 27.0337 7.8762 26.4805 7.64867 25.9601C7.08784 24.678 7.40277 21.8611 7.64867 20.4332C8.66681 14.6177 9.3657 10.9696 14.1673 7.38955C15.8973 6.09906 17.3167 5.2873 18.6325 4.82939C18.844 4.75434 19.1319 4.66413 19.428 4.61966C20.6138 3.42306 21.8566 2.3923 23.1216 1.54864Z" fill="#84BCFF"/>
<path d="M23.1216 1.54864L23.3972 1.96188C23.5309 1.8727 23.6132 1.72433 23.6181 1.56367C23.623 1.40302 23.5498 1.24994 23.4217 1.15284L23.1216 1.54864ZM17.2606 0.932939L17.0961 0.464259L17.0953 0.464565L17.2606 0.932939ZM6.97999 8.45109L7.36007 8.77085L7.36023 8.77065L6.97999 8.45109ZM1.16884 19.745L1.65194 19.8604L1.652 19.8601L1.16884 19.745ZM4.44759 31.6424L4.23355 32.0907L4.23366 32.0907L4.44759 31.6424ZM11.7159 31.7529L11.9047 32.2123C12.028 32.1616 12.1257 32.0636 12.176 31.9401C12.2262 31.8167 12.2247 31.6782 12.1718 31.5559L11.7159 31.7529ZM10.6695 27.7819L11.1623 27.7194C11.1423 27.5615 11.0478 27.4228 10.9082 27.3463C10.7686 27.2698 10.6009 27.2648 10.457 27.3329L10.6695 27.7819ZM7.64868 28.333L7.5933 28.8266L7.59455 28.8267L7.64868 28.333ZM7.48787 27.4756L7.95057 27.6562L7.48787 27.4756ZM7.64868 25.9601L8.10378 25.7612L8.10375 25.7611L7.64868 25.9601ZM7.64868 20.4332L7.15943 20.3475L7.15919 20.3489L7.64868 20.4332ZM14.1673 7.38955L14.4642 7.78775L14.4643 7.78768L14.1673 7.38955ZM18.6325 4.82939L18.7957 5.29849L18.7985 5.2975L18.6325 4.82939ZM19.428 4.61966L19.5018 5.11085C19.6076 5.09496 19.7055 5.0453 19.7808 4.96928L19.428 4.61966ZM23.4217 1.15284C22.4226 0.39541 21.1522 0.00330609 19.7542 0.00330609V0.996694C20.9667 0.996694 22.0185 1.33564 22.8216 1.94445L23.4217 1.15284ZM19.7542 0.00330609C18.872 0.00330609 17.9537 0.163358 17.0961 0.46426L17.425 1.40162C18.181 1.13637 18.9883 0.996694 19.7542 0.996694V0.00330609ZM17.0953 0.464565C13.3632 1.78187 9.64322 4.51023 6.59975 8.13152L7.36023 8.77065C10.3134 5.25678 13.8929 2.64834 17.4259 1.40131L17.0953 0.464565ZM6.59991 8.13132C3.70652 11.5705 1.65836 15.5485 0.68568 19.6298L1.652 19.8601C2.58617 15.9404 4.55879 12.1005 7.36007 8.77085L6.59991 8.13132ZM0.685739 19.6296C0.412543 20.7733 -0.160902 23.1637 0.048402 25.6127C0.259208 28.0792 1.27484 30.6777 4.23355 32.0907L4.66163 31.1942C2.12844 29.9845 1.23075 27.7812 1.03818 25.5281C0.844113 23.2574 1.37725 21.0104 1.65194 19.8604L0.685739 19.6296ZM4.23366 32.0907C5.49184 32.6912 6.8028 32.9967 8.13187 32.9967V32.0033C6.95872 32.0033 5.79337 31.7344 4.66152 31.1942L4.23366 32.0907ZM8.13187 32.9967C9.45868 32.9967 10.7222 32.6984 11.9047 32.2123L11.5271 31.2935C10.4425 31.7393 9.30749 32.0033 8.13187 32.0033V32.9967ZM12.1718 31.5559C11.68 30.4176 11.3407 29.1265 11.1623 27.7194L10.1768 27.8444C10.3653 29.3307 10.726 30.7143 11.26 31.9499L12.1718 31.5559ZM10.457 27.3329C9.7392 27.6727 8.99667 27.8696 8.22246 27.8696V28.863C9.17027 28.863 10.0577 28.621 10.882 28.2308L10.457 27.3329ZM8.22246 27.8696C8.05387 27.8696 7.87808 27.8584 7.70282 27.8392L7.59455 28.8267C7.79893 28.8491 8.01141 28.863 8.22246 28.863V27.8696ZM7.70406 27.8394C7.63545 27.8317 7.67372 27.8212 7.73174 27.8739C7.76336 27.9026 7.78805 27.9389 7.80321 27.9771C7.8173 28.0126 7.81891 28.0388 7.81909 28.0465C7.81925 28.0533 7.81867 28.0273 7.84427 27.9451C7.86851 27.8672 7.90364 27.7765 7.95057 27.6562L7.02516 27.2951C6.98173 27.4064 6.93246 27.5319 6.89575 27.6499C6.86041 27.7635 6.82234 27.9129 6.82597 28.0695C6.82996 28.242 6.88658 28.4483 7.0641 28.6095C7.22501 28.7555 7.42462 28.8076 7.5933 28.8266L7.70406 27.8394ZM7.95057 27.6562C8.10648 27.2567 8.42721 26.5009 8.10378 25.7612L7.19358 26.1591C7.3252 26.4601 7.21419 26.8107 7.02516 27.2951L7.95057 27.6562ZM8.10375 25.7611C7.87299 25.2335 7.80319 24.3114 7.84249 23.27C7.88081 22.2549 8.0178 21.2164 8.13817 20.5175L7.15919 20.3489C7.03365 21.0779 6.89023 22.1618 6.84981 23.2326C6.81038 24.2772 6.86353 25.4046 7.19362 26.1592L8.10375 25.7611ZM8.13793 20.5189C8.64919 17.5986 9.07037 15.2932 9.9451 13.2702C10.81 11.27 12.1272 9.53024 14.4642 7.78775L13.8705 6.99136C11.4059 8.82894 9.97281 10.7032 9.0333 12.8759C8.10364 15.0259 7.66631 17.4523 7.15943 20.3475L8.13793 20.5189ZM14.4643 7.78768C16.1729 6.51318 17.5462 5.73333 18.7957 5.29849L18.4692 4.36029C17.0871 4.84128 15.6218 5.68495 13.8704 6.99143L14.4643 7.78768ZM18.7985 5.2975C18.9979 5.22676 19.2514 5.14845 19.5018 5.11085L19.3543 4.12848C19.0123 4.17982 18.6901 4.28191 18.4664 4.36128L18.7985 5.2975ZM19.7808 4.96928C20.9451 3.79437 22.1623 2.78543 23.3972 1.96188L22.8461 1.13541C21.5509 1.99916 20.2825 3.05176 19.0752 4.27005L19.7808 4.96928Z" fill="black"/>
<path fill-rule="evenodd" clip-rule="evenodd" d="M28.6047 2.75641C28.5134 2.60666 28.4116 2.46197 28.2997 2.32334H28.3083C27.3549 1.14525 25.8752 0.5 24.1409 0.5C23.3169 0.5 22.454 0.649863 21.6473 0.932939C18.0148 2.2151 14.365 4.8835 11.3667 8.45109C8.51937 11.8355 6.50898 15.7444 5.55555 19.745C5.00766 22.0387 3.3424 29.0198 8.8343 31.6424C10.0293 32.2128 11.2675 32.5 12.5186 32.5C14.0505 32.5 15.5045 32.0786 16.8554 31.4125C16.4654 30.1071 16.2419 28.6651 16.1887 27.1286C15.0948 27.8701 13.904 28.3663 12.6092 28.3663C12.4194 28.3663 12.2252 28.3538 12.0354 28.333C11.5499 28.2785 11.7003 27.7931 11.887 27.1899C12.0571 26.6407 12.2575 25.9938 12.0354 25.4859C12.0135 25.4358 11.9919 25.3865 11.9706 25.338C11.4478 24.1459 11.1304 23.4221 11.3667 22.0501C12.3848 16.2345 13.7524 10.9696 18.5541 7.38955C20.284 6.09906 21.7034 5.2873 23.0192 4.82939C23.3126 4.72532 23.7526 4.5921 24.1581 4.5921C24.3997 4.5921 24.5982 4.6379 24.7664 4.73364C24.7923 4.75029 24.8182 4.76694 24.8441 4.78776C24.7876 4.82303 24.7336 4.86016 24.682 4.89903C24.1179 4.88442 23.7111 5.22349 23.9943 5.88108C23.9076 6.19092 23.9051 6.52868 23.9957 6.87513C24.119 6.73561 24.2431 6.59793 24.3679 6.46211C24.1897 6.24704 24.0684 6.05316 23.9943 5.88108C24.1011 5.49933 24.3358 5.15998 24.682 4.89903C24.9707 4.9065 25.3007 5.00664 25.6004 5.20414C26.5739 4.27359 27.5815 3.4539 28.6047 2.75641Z" fill="#E9FF90"/>
<path d="M28.6048 2.75641L28.8845 3.16683C29.1031 3.0178 29.1666 2.72353 29.0287 2.49767L28.6048 2.75641ZM28.2997 2.32334V1.82664C28.1084 1.82664 27.9341 1.93653 27.8516 2.10914C27.7691 2.28175 27.793 2.4864 27.9132 2.63528L28.2997 2.32334ZM28.3083 2.32334V2.82003C28.4998 2.82003 28.6742 2.71001 28.7566 2.53724C28.8391 2.36446 28.8149 2.15968 28.6944 2.01087L28.3083 2.32334ZM21.6473 0.932939L21.4829 0.464259L21.482 0.464565L21.6473 0.932939ZM11.3667 8.45109L11.7468 8.77085L11.7469 8.77065L11.3667 8.45109ZM5.55556 19.745L6.03866 19.8604L6.03872 19.8601L5.55556 19.745ZM8.83431 31.6424L8.62027 32.0907L8.62038 32.0907L8.83431 31.6424ZM16.8554 31.4125L17.0751 31.858C17.2924 31.7508 17.4007 31.5025 17.3313 31.2703L16.8554 31.4125ZM16.1887 27.1286L16.6851 27.1114C16.6788 26.9307 16.5749 26.7677 16.4138 26.6858C16.2526 26.6039 16.0597 26.616 15.91 26.7175L16.1887 27.1286ZM12.0354 28.333L11.98 28.8266L11.9813 28.8267L12.0354 28.333ZM11.8871 27.1899L11.4126 27.043L11.8871 27.1899ZM12.0354 25.4859L12.4905 25.2869L12.4905 25.2868L12.0354 25.4859ZM11.9706 25.338L12.4255 25.1385L12.4255 25.1385L11.9706 25.338ZM11.3667 22.0501L10.8775 21.9644L10.8772 21.9658L11.3667 22.0501ZM18.5541 7.38955L18.851 7.78775L18.8511 7.78768L18.5541 7.38955ZM23.0192 4.82939L23.1825 5.29849L23.1853 5.2975L23.0192 4.82939ZM24.7664 4.73364L25.0351 4.31591C25.0276 4.31105 25.0199 4.3064 25.0121 4.30195L24.7664 4.73364ZM24.8441 4.78776L25.1072 5.20901C25.2436 5.1238 25.3303 4.97781 25.3399 4.81726C25.3495 4.65671 25.2807 4.50147 25.1553 4.40069L24.8441 4.78776ZM23.9957 6.87514L23.5151 7.00074C23.5615 7.17826 23.702 7.31574 23.8805 7.35829C24.059 7.40084 24.2464 7.34153 24.3679 7.20404L23.9957 6.87514ZM24.3679 6.46211L24.7336 6.79821C24.9016 6.61537 24.9088 6.33651 24.7504 6.14526L24.3679 6.46211ZM25.6004 5.20414L25.3271 5.61889C25.5205 5.74631 25.7763 5.7232 25.9436 5.56318L25.6004 5.20414ZM29.0287 2.49767C28.926 2.3294 28.8118 2.16693 28.6862 2.01139L27.9132 2.63528C28.0114 2.75701 28.1007 2.88393 28.1808 3.01516L29.0287 2.49767ZM28.2997 2.82003H28.3083V1.82664H28.2997V2.82003ZM28.6944 2.01087C27.632 0.698029 25.9999 0.00330609 24.1409 0.00330609V0.996694C25.7504 0.996694 27.0779 1.59246 27.9222 2.6358L28.6944 2.01087ZM24.1409 0.00330609C23.2587 0.00330609 22.3404 0.163358 21.4829 0.46426L21.8118 1.40162C22.5677 1.13637 23.375 0.996694 24.1409 0.996694V0.00330609ZM21.482 0.464565C17.7499 1.78187 14.0299 4.51023 10.9865 8.13152L11.7469 8.77065C14.7001 5.25678 18.2797 2.64834 21.8126 1.40131L21.482 0.464565ZM10.9866 8.13132C8.09324 11.5705 6.04508 15.5485 5.0724 19.6298L6.03872 19.8601C6.97289 15.9404 8.94551 12.1005 11.7468 8.77085L10.9866 8.13132ZM5.07246 19.6296C4.79926 20.7733 4.22582 23.1637 4.43512 25.6127C4.64593 28.0792 5.66156 30.6777 8.62027 32.0907L9.04835 31.1942C6.51515 29.9845 5.61747 27.7812 5.4249 25.5281C5.23083 23.2574 5.76396 21.0104 6.03866 19.8604L5.07246 19.6296ZM8.62038 32.0907C9.87856 32.6912 11.1895 32.9967 12.5186 32.9967V32.0033C11.3454 32.0033 10.1801 31.7344 9.04824 31.1942L8.62038 32.0907ZM12.5186 32.9967C14.1433 32.9967 15.6725 32.5495 17.0751 31.858L16.6358 30.967C15.3365 31.6076 13.9577 32.0033 12.5186 32.0033V32.9967ZM17.3313 31.2703C16.9549 30.0106 16.7371 28.6113 16.6851 27.1114L15.6923 27.1458C15.7468 28.719 15.9758 30.2036 16.3795 31.5547L17.3313 31.2703ZM15.91 26.7175C14.8669 27.4245 13.7724 27.8696 12.6092 27.8696V28.863C14.0357 28.863 15.3228 28.3156 16.4674 27.5397L15.91 26.7175ZM12.6092 27.8696C12.4406 27.8696 12.2648 27.8584 12.0895 27.8392L11.9813 28.8267C12.1856 28.8491 12.3981 28.863 12.6092 28.863V27.8696ZM12.0908 27.8394C12.0523 27.8351 12.1094 27.833 12.1654 27.9015C12.2154 27.9626 12.2058 28.0094 12.2058 27.9678C12.2059 27.9266 12.2155 27.8538 12.245 27.7357C12.2738 27.6205 12.3138 27.491 12.3615 27.3369L11.4126 27.043C11.3289 27.3131 11.2128 27.6702 11.2124 27.9666C11.2122 28.1285 11.2444 28.3446 11.3969 28.5309C11.5554 28.7245 11.7758 28.8036 11.98 28.8266L12.0908 27.8394ZM12.3615 27.3369C12.4444 27.0691 12.5495 26.7333 12.5996 26.3953C12.6498 26.0568 12.6543 25.6617 12.4905 25.2869L11.5803 25.6848C11.6385 25.818 11.6539 26.0003 11.617 26.2495C11.5799 26.4992 11.4998 26.7615 11.4126 27.043L12.3615 27.3369ZM12.4905 25.2868C12.4684 25.2365 12.4467 25.187 12.4255 25.1385L11.5157 25.5375C11.537 25.586 11.5585 25.6351 11.5803 25.6849L12.4905 25.2868ZM12.4255 25.1385C12.1596 24.5322 11.9708 24.0977 11.8681 23.6503C11.7693 23.2199 11.748 22.7629 11.8562 22.1344L10.8772 21.9658C10.7492 22.7093 10.7684 23.3002 10.8999 23.8727C11.0275 24.4283 11.2589 24.9517 11.5157 25.5375L12.4255 25.1385ZM11.856 22.1357C12.8734 16.324 14.2189 11.2414 18.851 7.78775L18.2572 6.99136C13.286 10.6979 11.8963 16.145 10.8775 21.9644L11.856 22.1357ZM18.8511 7.78768C20.5596 6.51318 21.9329 5.73333 23.1825 5.29849L22.856 4.36029C21.4738 4.84128 20.0085 5.68495 18.2571 6.99143L18.8511 7.78768ZM23.1853 5.2975C23.4699 5.19651 23.8425 5.0888 24.1581 5.0888V4.09541C23.6627 4.09541 23.1552 4.25412 22.8531 4.36128L23.1853 5.2975ZM24.1581 5.0888C24.3357 5.0888 24.4445 5.12193 24.5208 5.16533L25.0121 4.30195C24.7519 4.15386 24.4638 4.09541 24.1581 4.09541V5.0888ZM24.4977 5.15137C24.5115 5.16027 24.5187 5.1649 24.525 5.1692C24.5305 5.17294 24.5325 5.17456 24.5328 5.17483L25.1553 4.40069C25.106 4.36101 25.0586 4.331 25.0351 4.31591L24.4977 5.15137ZM24.5809 4.3665C24.5124 4.40931 24.4464 4.45463 24.3831 4.50238L24.981 5.29566C25.0208 5.26568 25.0628 5.23675 25.1072 5.20901L24.5809 4.3665ZM24.4505 5.68462C24.402 5.57211 24.3972 5.50536 24.3988 5.47666C24.3996 5.46293 24.4018 5.45694 24.4022 5.45608C24.4025 5.45536 24.4024 5.4554 24.4029 5.45486C24.4056 5.45164 24.4703 5.3904 24.6692 5.39555L24.6949 4.4025C24.3296 4.39304 23.9089 4.49404 23.6379 4.82109C23.3428 5.17726 23.3506 5.64228 23.5381 6.07754L24.4505 5.68462ZM23.516 5.74724C23.4041 6.14692 23.4037 6.57439 23.5151 7.00074L24.4762 6.74953C24.4066 6.48297 24.411 6.23492 24.4726 6.01492L23.516 5.74724ZM24.3679 7.20404C24.489 7.06693 24.611 6.93164 24.7336 6.79821L24.0022 6.12601C23.8752 6.26421 23.7489 6.4043 23.6235 6.54623L24.3679 7.20404ZM24.7504 6.14526C24.5937 5.95606 24.5011 5.80225 24.4505 5.68462L23.5381 6.07754C23.6356 6.30406 23.7858 6.53803 23.9854 6.77896L24.7504 6.14526ZM24.3831 4.50238C23.9559 4.82438 23.6541 5.25358 23.516 5.74724L24.4726 6.01492C24.5481 5.74507 24.7158 5.49557 24.981 5.29567L24.3831 4.50238ZM24.6692 5.39555C24.8586 5.40046 25.0992 5.46872 25.3271 5.61889L25.8737 4.7894C25.5022 4.54455 25.0829 4.41254 24.6949 4.4025L24.6692 5.39555ZM25.9436 5.56318C26.8988 4.65011 27.8853 3.8479 28.8845 3.16683L28.325 2.34599C27.2776 3.0599 26.249 3.89706 25.2572 4.84511L25.9436 5.56318Z" fill="black"/>
<path fill-rule="evenodd" clip-rule="evenodd" d="M24.5485 6.27085C26.6807 3.99367 29.0209 2.25873 31.3571 1.1957C30.55 0.740422 29.5862 0.5 28.5276 0.5C27.7036 0.5 26.8408 0.649863 26.034 0.932939C22.4015 2.2151 18.7517 4.8835 15.7534 8.45109C12.9061 11.8355 10.8957 15.7444 9.94227 19.745C9.39438 22.0387 7.72912 29.0198 13.221 31.6424C14.416 32.2128 15.6542 32.5 16.9053 32.5C17.0147 32.5 17.1237 32.4978 17.2323 32.4936C16.736 31.24 16.4134 29.8307 16.2682 28.3108C15.9757 28.2558 16.0237 28.1629 16.1177 27.9811C16.1514 27.9159 16.191 27.8392 16.223 27.7487C16.2056 27.4846 16.1934 27.2174 16.1864 26.9474C16.1798 26.9307 16.1727 26.9139 16.1652 26.8968C15.6101 25.6276 15.9131 23.8689 16.1578 22.4485L16.1652 22.405L16.1856 22.289C17.1963 16.5148 18.1711 10.9458 22.9408 7.38955C23.5076 6.96672 24.0411 6.59529 24.5485 6.27085Z" fill="#F8642D"/>
<path d="M24.5485 6.27084L24.8161 6.68931C24.8509 6.66704 24.8828 6.64051 24.9111 6.61033L24.5485 6.27084ZM31.3572 1.1957L31.5629 1.6478C31.733 1.57037 31.8453 1.40396 31.8534 1.21719C31.8615 1.03043 31.764 0.854932 31.6012 0.763086L31.3572 1.1957ZM26.034 0.932939L25.8696 0.464259L25.8687 0.464565L26.034 0.932939ZM15.7534 8.45109L16.1335 8.77085L16.1337 8.77065L15.7534 8.45109ZM9.94228 19.745L10.4254 19.8604L10.4254 19.8601L9.94228 19.745ZM13.221 31.6424L13.007 32.0907L13.0071 32.0907L13.221 31.6424ZM17.2323 32.4936L17.2517 32.9899C17.4127 32.9837 17.5606 32.8997 17.6485 32.7647C17.7364 32.6298 17.7535 32.4605 17.6942 32.3108L17.2323 32.4936ZM16.2682 28.3108L16.7627 28.2636C16.7416 28.0433 16.5775 27.8635 16.36 27.8226L16.2682 28.3108ZM16.1177 27.9811L15.6764 27.753H15.6764L16.1177 27.9811ZM16.223 27.7487L16.6913 27.9141C16.7137 27.8506 16.723 27.7833 16.7186 27.7161L16.223 27.7487ZM16.1864 26.9474L16.683 26.9346C16.6814 26.8758 16.6695 26.8178 16.6477 26.7632L16.1864 26.9474ZM16.1653 26.8968L16.6204 26.6978L16.6203 26.6977L16.1653 26.8968ZM16.1578 22.4485L16.6473 22.5328L16.6473 22.5328L16.1578 22.4485ZM16.1653 22.405L15.676 22.3194L15.6758 22.3207L16.1653 22.405ZM16.1856 22.289L16.6748 22.3747L16.6748 22.3747L16.1856 22.289ZM22.9408 7.38955L23.2377 7.78775L23.2378 7.78768L22.9408 7.38955ZM24.9111 6.61033C27.0072 4.37172 29.2959 2.6793 31.5629 1.6478L31.1514 0.743607C28.7459 1.83817 26.3543 3.61562 24.186 5.93136L24.9111 6.61033ZM31.6012 0.763086C30.711 0.260948 29.6613 0.00330609 28.5276 0.00330609V0.996694C29.5112 0.996694 30.3891 1.2199 31.1131 1.62832L31.6012 0.763086ZM28.5276 0.00330609C27.6455 0.00330609 26.7271 0.163358 25.8696 0.46426L26.1985 1.40162C26.9544 1.13637 27.7617 0.996694 28.5276 0.996694V0.00330609ZM25.8687 0.464565C22.1367 1.78187 18.4167 4.51023 15.3732 8.13152L16.1337 8.77065C19.0869 5.25678 22.6664 2.64834 26.1993 1.40131L25.8687 0.464565ZM15.3734 8.13133C12.48 11.5705 10.4318 15.5485 9.45912 19.6298L10.4254 19.8601C11.3596 15.9404 13.3322 12.1005 16.1335 8.77085L15.3734 8.13133ZM9.45918 19.6296C9.18598 20.7733 8.61254 23.1637 8.82184 25.6127C9.03265 28.0792 10.0483 30.6777 13.007 32.0907L13.4351 31.1942C10.9019 29.9845 10.0042 27.7812 9.81162 25.5281C9.61755 23.2574 10.1507 21.0104 10.4254 19.8604L9.45918 19.6296ZM13.0071 32.0907C14.2653 32.6912 15.5762 32.9967 16.9053 32.9967V32.0033C15.7322 32.0033 14.5668 31.7344 13.435 31.1942L13.0071 32.0907ZM16.9053 32.9967C17.0212 32.9967 17.1367 32.9944 17.2517 32.9899L17.213 31.9973C17.1108 32.0013 17.0082 32.0033 16.9053 32.0033V32.9967ZM17.6942 32.3108C17.2174 31.1066 16.904 29.7438 16.7627 28.2636L15.7738 28.358C15.9227 29.9176 16.2547 31.3735 16.7705 32.6764L17.6942 32.3108ZM16.36 27.8226C16.3045 27.8122 16.3134 27.8077 16.3468 27.8261C16.3929 27.8514 16.4945 27.9273 16.5307 28.0763C16.5459 28.1392 16.543 28.1914 16.5382 28.2234C16.5337 28.2541 16.5265 28.2732 16.5256 28.2756C16.5245 28.2787 16.5255 28.2755 16.532 28.2622C16.5385 28.2488 16.5465 28.2332 16.5589 28.2092L15.6764 27.753C15.6575 27.7898 15.621 27.8587 15.5952 27.9275C15.5712 27.9916 15.5233 28.1375 15.5653 28.3107C15.6143 28.5125 15.7529 28.6333 15.8693 28.6972C15.9731 28.7541 16.0857 28.7818 16.1764 28.7989L16.36 27.8226ZM16.5589 28.2092C16.5919 28.1454 16.6466 28.0408 16.6913 27.9141L15.7546 27.5833C15.7355 27.6376 15.7109 27.6864 15.6764 27.753L16.5589 28.2092ZM16.7186 27.7161C16.7017 27.4587 16.6898 27.1981 16.683 26.9346L15.6899 26.9602C15.697 27.2367 15.7095 27.5105 15.7273 27.7813L16.7186 27.7161ZM16.6477 26.7632C16.639 26.7415 16.6299 26.7197 16.6204 26.6978L15.7102 27.0957C15.7155 27.108 15.7205 27.12 15.7252 27.1316L16.6477 26.7632ZM16.6203 26.6977C16.3872 26.1647 16.3223 25.4964 16.3577 24.7529C16.3929 24.0127 16.524 23.2481 16.6473 22.5328L15.6683 22.3641C15.5468 23.0692 15.4041 23.8942 15.3654 24.7057C15.327 25.514 15.3882 26.3597 15.7102 27.0958L16.6203 26.6977ZM16.6473 22.5328L16.6547 22.4894L15.6758 22.3207L15.6683 22.3641L16.6473 22.5328ZM16.6545 22.4907L16.6748 22.3747L15.6963 22.2034L15.676 22.3194L16.6545 22.4907ZM16.6748 22.3747C17.6925 16.5604 18.6519 11.2069 23.2377 7.78775L22.6439 6.99136C17.6903 10.6847 16.7 16.4693 15.6963 22.2034L16.6748 22.3747ZM23.2378 7.78768C23.7968 7.3707 24.3204 7.00627 24.8161 6.68931L24.281 5.85238C23.7618 6.1843 23.2185 6.56274 22.6438 6.99143L23.2378 7.78768Z" fill="black"/>
<path d="M37.0837 2.32334C36.1303 1.14525 34.6506 0.5 32.9163 0.5C32.0923 0.5 31.2294 0.649863 30.4227 0.932939C26.7902 2.2151 23.1404 4.8835 20.1421 8.45109C17.2948 11.8355 15.2844 15.7444 14.331 19.745C13.7831 22.0387 12.1178 29.0198 17.6097 31.6424C18.8047 32.2128 20.0429 32.5 21.294 32.5C25.854 32.5 29.7238 28.7659 32.239 25.9601C32.8127 25.319 32.9422 24.4781 32.5755 23.708C32.2044 22.9296 31.4193 22.405 30.6168 22.405C30.2329 22.405 29.6677 22.5258 29.163 23.0919L28.9214 23.3583C26.9282 25.5896 24.4476 28.3663 21.3846 28.3663C21.1948 28.3663 21.0006 28.3538 20.8108 28.333C19.8833 28.2289 18.6365 27.7252 18.1705 26.6595C17.6097 25.3773 17.9246 23.5956 18.1705 22.1678C19.1887 16.3522 22.5278 10.9696 27.3295 7.38955C29.0594 6.09906 30.4788 5.2873 31.7946 4.82939C32.088 4.72532 32.528 4.5921 32.9335 4.5921C33.1751 4.5921 33.3736 4.6379 33.5418 4.73364C33.5677 4.75029 33.5936 4.76694 33.6195 4.78776C32.8731 5.254 32.5496 6.04495 32.7739 6.88585C33.0284 7.84747 33.9085 8.54683 34.8706 8.54683C35.2243 8.54683 35.5738 8.45525 35.9103 8.27625C36.9198 7.7434 37.6359 6.79426 37.8732 5.67029C38.1278 4.48387 37.8344 3.26415 37.0751 2.32334H37.0837Z" fill="#F8AFDB" stroke="black" stroke-width="0.9984" stroke-linejoin="round"/>
<path d="M31.3001 28.7231C31.339 28.833 31.4142 28.9056 31.5071 28.9227L31.5074 28.9411C31.526 28.9408 31.526 28.9408 31.5445 28.9406C31.563 28.9403 31.563 28.9403 31.5815 28.94L31.5812 28.9216C31.6736 28.9019 31.7464 28.8272 31.7817 28.7161C32.4805 26.109 34.5033 24.0354 37.1027 23.2429C37.2317 23.2042 37.304 23.0927 37.3023 22.9822C37.3005 22.8717 37.2246 22.7623 37.0943 22.7273C34.4706 22.0098 32.3815 19.9954 31.5986 17.4095C31.5598 17.2996 31.4845 17.227 31.3916 17.2099L31.3913 17.1915C31.3728 17.1918 31.3728 17.1918 31.3543 17.192C31.3358 17.1923 31.3358 17.1923 31.3172 17.1926L31.3175 17.211C31.2252 17.2307 31.1523 17.3054 31.1171 17.4165C30.4183 20.0236 28.3954 22.0972 25.7961 22.8897C25.667 22.9284 25.5947 23.0399 25.5965 23.1504C25.5983 23.2609 25.6742 23.3703 25.8044 23.4053C28.4097 24.123 30.4987 26.1375 31.3001 28.7231Z" fill="#E9FF90"/>
<path d="M31.3001 28.7231L30.8253 28.8704C30.8272 28.8765 30.8293 28.8826 30.8314 28.8887L31.3001 28.7231ZM31.5071 28.9227L32.0041 28.9141C32.0003 28.6779 31.8303 28.4773 31.5977 28.4345L31.5071 28.9227ZM31.5074 28.9411L31.0105 28.9497C31.0149 29.2232 31.2401 29.4414 31.514 29.4374L31.5074 28.9411ZM31.5815 28.94L31.5881 29.4364C31.7202 29.4345 31.8461 29.3801 31.9381 29.2854C32.0301 29.1907 32.0806 29.0633 32.0785 28.9314L31.5815 28.94ZM31.5812 28.9216L31.4777 28.4363C31.2453 28.486 31.0804 28.693 31.0843 28.9302L31.5812 28.9216ZM31.7817 28.7161L32.2554 28.8657C32.2577 28.8585 32.2598 28.8512 32.2618 28.844L31.7817 28.7161ZM37.1027 23.2429L36.9603 22.7675L36.9581 22.7682L37.1027 23.2429ZM37.0943 22.7273L36.9626 23.2061L36.9648 23.2067L37.0943 22.7273ZM31.5986 17.4095L32.0744 17.2654C32.0722 17.2582 32.0699 17.251 32.0674 17.2439L31.5986 17.4095ZM31.3916 17.2099L30.8947 17.2185C30.8985 17.4547 31.0685 17.6553 31.3011 17.6981L31.3916 17.2099ZM31.3913 17.1915L31.8883 17.1829C31.8839 16.9094 31.6587 16.6912 31.3848 16.6952L31.3913 17.1915ZM31.3172 17.1926L31.3107 16.6962C31.1786 16.6981 31.0527 16.7525 30.9607 16.8472C30.8687 16.9419 30.8182 17.0693 30.8203 17.2012L31.3172 17.1926ZM31.3175 17.211L31.4211 17.6963C31.6535 17.6466 31.8183 17.4396 31.8145 17.2024L31.3175 17.211ZM31.1171 17.4165L30.6433 17.2669C30.6411 17.2741 30.6389 17.2813 30.637 17.2886L31.1171 17.4165ZM25.7961 22.8897L25.9385 23.3651L25.9407 23.3644L25.7961 22.8897ZM25.8044 23.4053L25.9371 22.9268L25.934 22.9259L25.8044 23.4053ZM30.8314 28.8887C30.913 29.1198 31.1054 29.3536 31.4166 29.4109L31.5977 28.4345C31.6544 28.445 31.6993 28.472 31.7288 28.5004C31.7568 28.5274 31.7665 28.5509 31.7689 28.5575L30.8314 28.8887ZM31.0102 28.9313L31.0105 28.9497L32.0044 28.9325L32.0041 28.9141L31.0102 28.9313ZM31.514 29.4374C31.5233 29.4373 31.5279 29.4372 31.5325 29.4372C31.5372 29.4371 31.5418 29.437 31.5511 29.4369L31.5379 28.4443C31.5287 28.4444 31.5241 28.4445 31.5194 28.4445C31.5147 28.4446 31.5102 28.4447 31.5009 28.4448L31.514 29.4374ZM31.5511 29.4369C31.5603 29.4368 31.565 29.4367 31.5696 29.4366C31.5742 29.4366 31.5789 29.4365 31.5881 29.4364L31.575 28.4437C31.5657 28.4439 31.5611 28.4439 31.5565 28.444C31.5518 28.4441 31.5472 28.4441 31.5379 28.4443L31.5511 29.4369ZM32.0785 28.9314L32.0782 28.913L31.0843 28.9302L31.0846 28.9487L32.0785 28.9314ZM31.6848 29.407C31.9953 29.3406 32.1811 29.0999 32.2554 28.8657L31.3079 28.5666C31.3102 28.5596 31.3194 28.5353 31.3471 28.507C31.3763 28.477 31.4209 28.4484 31.4777 28.4363L31.6848 29.407ZM32.2618 28.844C32.9156 26.4048 34.81 24.4608 37.2473 23.7176L36.9581 22.7682C34.1967 23.6101 32.0454 25.8133 31.3016 28.5883L32.2618 28.844ZM37.2451 23.7183C37.5886 23.6153 37.8046 23.3051 37.7992 22.9736L36.8053 22.9908C36.8035 22.8802 36.8749 22.7931 36.9603 22.7675L37.2451 23.7183ZM37.7992 22.9736C37.7939 22.6425 37.5688 22.3405 37.2239 22.2479L36.9648 23.2067C36.8804 23.184 36.8071 23.1009 36.8053 22.9908L37.7992 22.9736ZM37.2261 22.2485C34.7648 21.5755 32.8072 19.6858 32.0744 17.2654L31.1229 17.5537C31.9559 20.305 34.1763 22.4442 36.9626 23.2061L37.2261 22.2485ZM32.0674 17.2439C31.9858 17.0128 31.7934 16.779 31.4822 16.7217L31.3011 17.6981C31.2444 17.6877 31.1995 17.6606 31.17 17.6322C31.142 17.6052 31.1322 17.5817 31.1299 17.5751L32.0674 17.2439ZM31.8886 17.2013L31.8883 17.1829L30.8944 17.2001L30.8947 17.2185L31.8886 17.2013ZM31.3848 16.6952C31.3755 16.6953 31.3709 16.6954 31.3662 16.6954C31.3616 16.6955 31.357 16.6956 31.3477 16.6957L31.3609 17.6883C31.3701 17.6882 31.3747 17.6881 31.3794 17.6881C31.384 17.688 31.3887 17.6879 31.3979 17.6878L31.3848 16.6952ZM31.3477 16.6957C31.3385 16.6958 31.3338 16.6959 31.3292 16.696C31.3246 16.696 31.3199 16.6961 31.3107 16.6962L31.3238 17.6889C31.3331 17.6887 31.3377 17.6887 31.3423 17.6886C31.3469 17.6885 31.3516 17.6885 31.3609 17.6883L31.3477 16.6957ZM30.8203 17.2012L30.8206 17.2196L31.8145 17.2024L31.8142 17.1839L30.8203 17.2012ZM31.214 16.7256C30.9035 16.792 30.7177 17.0327 30.6433 17.2669L31.5908 17.566C31.5886 17.573 31.5794 17.5973 31.5517 17.6257C31.5225 17.6556 31.4779 17.6842 31.4211 17.6963L31.214 16.7256ZM30.637 17.2886C29.9832 19.7278 28.0888 21.6718 25.6515 22.415L25.9407 23.3644C28.702 22.5225 30.8533 20.3193 31.5972 17.5443L30.637 17.2886ZM25.6537 22.4143C25.3101 22.5173 25.0942 22.8275 25.0996 23.159L26.0935 23.1418C26.0953 23.2524 26.0239 23.3395 25.9385 23.3651L25.6537 22.4143ZM25.0996 23.159C25.1049 23.4901 25.3299 23.7921 25.6749 23.8847L25.934 22.9259C26.0184 22.9486 26.0917 23.0318 26.0935 23.1418L25.0996 23.159ZM25.6717 23.8838C28.1144 24.5567 30.0741 26.4468 30.8253 28.8704L31.7749 28.5758C30.9233 25.8282 28.705 23.6893 25.9371 22.9268L25.6717 23.8838Z" fill="black"/>
<g clip-path="url(#clip0_1954_107981)">
<path d="M49.0679 15.9435C49.0679 15.9438 49.0683 15.9439 49.0684 15.9436C49.377 15.3471 49.8031 14.8863 50.349 14.5574C50.8953 14.2296 51.5196 14.0645 52.2242 14.0645C53.1304 14.0645 53.8816 14.303 54.4756 14.7789C54.9453 15.1552 55.2927 15.6515 55.5177 16.268C55.6118 16.5257 55.4078 16.7826 55.1335 16.7826H53.9875C53.8024 16.7826 53.6438 16.6598 53.5583 16.4956C53.4541 16.2956 53.3154 16.1298 53.142 15.9985C52.8916 15.8089 52.5806 15.7147 52.2114 15.7147C51.6826 15.7147 51.2645 15.9153 50.957 16.3178C50.6484 16.7203 50.4946 17.2915 50.4946 18.0304C50.4946 18.7693 50.6484 19.3271 50.957 19.7296C51.2657 20.1321 51.6838 20.3327 52.2114 20.3327C52.8501 20.3327 53.3001 20.0766 53.5608 19.5636C53.6442 19.3995 53.8023 19.2782 53.9864 19.2782H55.1305C55.4061 19.2782 55.6102 19.5375 55.5121 19.7951C55.2862 20.3888 54.9387 20.8779 54.4698 21.2612C53.8712 21.7517 53.1222 21.9964 52.2242 21.9964C51.5196 21.9964 50.8941 21.8325 50.349 21.5034C49.8028 21.1756 49.3765 20.7131 49.0679 20.1162C48.7592 19.5192 48.6055 18.8244 48.6055 18.0292C48.6055 17.2345 48.759 16.5388 49.0673 15.9433C49.0674 15.943 49.0679 15.9431 49.0679 15.9435V15.9435Z" fill="white"/>
<path d="M57.8498 21.5083C57.8501 21.5083 57.8503 21.5079 57.85 21.5077C57.2867 21.1799 56.8445 20.7152 56.5232 20.1137C56.2017 19.5131 56.041 18.8195 56.041 18.0329C56.041 17.2463 56.2064 16.5539 56.536 15.952C56.8656 15.3514 57.3175 14.8865 57.8894 14.5574C58.4613 14.2296 59.0996 14.0645 59.8042 14.0645C60.5089 14.0645 61.1471 14.2284 61.719 14.5574C62.2909 14.8853 62.7428 15.3502 63.0724 15.952C63.402 16.5527 63.5674 17.2463 63.5674 18.0329C63.5674 18.8195 63.3974 19.5119 63.0584 20.1137C62.7195 20.7144 62.2618 21.1792 61.6852 21.5083C61.1087 21.8361 60.4634 22.0013 59.7506 22.0013C59.0383 22.0013 58.4131 21.8376 57.8497 21.5089C57.8494 21.5087 57.8495 21.5083 57.8498 21.5083V21.5083ZM60.6964 20.0519C60.6964 20.0516 60.6966 20.0512 60.6969 20.051C60.9913 19.8798 61.2264 19.623 61.4034 19.2819C61.5792 18.9393 61.6678 18.5234 61.6678 18.0341C61.6678 17.3038 61.4849 16.7423 61.1192 16.3484C60.7535 15.9557 60.3074 15.7587 59.7786 15.7587C59.2498 15.7587 58.8084 15.9557 58.4508 16.3484C58.0944 16.7411 57.9162 17.3038 57.9162 18.0341C57.9162 18.7644 58.0898 19.3259 58.438 19.7198C58.7863 20.1125 59.2242 20.3094 59.7518 20.3094C60.0859 20.3094 60.4002 20.2239 60.6959 20.0529C60.6962 20.0527 60.6964 20.0523 60.6964 20.0519V20.0519Z" fill="white"/>
<path d="M75.6574 14.9455C76.2071 15.5241 76.4832 16.3302 76.4832 17.3664V21.449C76.4832 21.6839 76.2928 21.8743 76.0579 21.8743H75.06C74.8251 21.8743 74.6348 21.6839 74.6348 21.449V17.6294C74.6348 17.0287 74.4892 16.5688 74.1992 16.2495C73.9091 15.9302 73.512 15.7712 73.01 15.7712C72.508 15.7712 72.1096 15.9302 71.815 16.2495C71.5203 16.5688 71.3724 17.0287 71.3724 17.6294V21.449C71.3724 21.6839 71.182 21.8743 70.9471 21.8743H69.9492C69.7144 21.8743 69.524 21.6839 69.524 21.449V17.6294C69.524 17.0287 69.3784 16.5688 69.0884 16.2495C68.7984 15.9302 68.4012 15.7712 67.9004 15.7712C67.3995 15.7712 66.9872 15.9302 66.6914 16.2495C66.3967 16.5688 66.2488 17.0287 66.2488 17.6294V21.449C66.2488 21.6839 66.0584 21.8743 65.8235 21.8743H64.8256C64.5908 21.8743 64.4004 21.6839 64.4004 21.449V14.6147C64.4004 14.3798 64.5908 14.1894 64.8256 14.1894H66.0196C66.1462 14.1894 66.2488 14.2921 66.2488 14.4187V14.4187C66.2488 14.6402 66.5616 14.7553 66.7378 14.621C66.8692 14.521 67.0121 14.4326 67.1666 14.3558C67.5405 14.1711 67.9528 14.0781 68.4012 14.0781C68.9731 14.0781 69.4844 14.2053 69.9328 14.4598C70.1475 14.5816 70.3393 14.7284 70.5079 14.9001C70.7471 15.1435 71.2116 15.1471 71.4546 14.9074C71.6179 14.7464 71.804 14.6041 72.013 14.4806C72.4661 14.2127 72.9576 14.0781 73.4852 14.0781C74.3832 14.0781 75.1076 14.3668 75.6574 14.9455Z" fill="white"/>
<path d="M88.9699 14.9455C89.5196 15.5241 89.7957 16.3302 89.7957 17.3664V21.449C89.7957 21.6839 89.6053 21.8743 89.3704 21.8743H88.3725C88.1376 21.8743 87.9473 21.6839 87.9473 21.449V17.6294C87.9473 17.0287 87.8017 16.5688 87.5116 16.2495C87.2216 15.9302 86.8245 15.7712 86.3225 15.7712C85.8205 15.7712 85.4221 15.9302 85.1275 16.2495C84.8328 16.5688 84.6849 17.0287 84.6849 17.6294V21.449C84.6849 21.6839 84.4945 21.8743 84.2596 21.8743H83.2617C83.0269 21.8743 82.8365 21.6839 82.8365 21.449V17.6294C82.8365 17.0287 82.6909 16.5688 82.4009 16.2495C82.1109 15.9302 81.7137 15.7712 81.2129 15.7712C80.712 15.7712 80.2997 15.9302 80.0039 16.2495C79.7092 16.5688 79.5613 17.0287 79.5613 17.6294V21.449C79.5613 21.6839 79.3709 21.8743 79.136 21.8743H78.1381C77.9033 21.8743 77.7129 21.6839 77.7129 21.449V14.6147C77.7129 14.3798 77.9033 14.1894 78.1381 14.1894H79.3321C79.4587 14.1894 79.5613 14.2921 79.5613 14.4187V14.4187C79.5613 14.6402 79.8741 14.7553 80.0503 14.621C80.1817 14.521 80.3246 14.4326 80.4791 14.3558C80.853 14.1711 81.2653 14.0781 81.7137 14.0781C82.2856 14.0781 82.7969 14.2053 83.2453 14.4598C83.46 14.5816 83.6518 14.7284 83.8204 14.9001C84.0596 15.1435 84.5241 15.1471 84.7671 14.9074C84.9304 14.7464 85.1165 14.6041 85.3255 14.4806C85.7785 14.2127 86.2701 14.0781 86.7977 14.0781C87.6957 14.0781 88.4201 14.3668 88.9699 14.9455Z" fill="white"/>
<path d="M97.5077 14.1895C97.7425 14.1895 97.9329 14.3798 97.9329 14.6147V21.449C97.9329 21.6839 97.7425 21.8743 97.5077 21.8743H96.3062C96.1761 21.8743 96.0705 21.7688 96.0705 21.6386V21.6386C96.0705 21.4093 95.7425 21.2899 95.5597 21.4284C95.431 21.5259 95.291 21.6121 95.1399 21.6871C94.7567 21.8767 94.3409 21.9709 93.8925 21.9709C93.3207 21.9709 92.814 21.8437 92.3737 21.5893C91.9335 21.3348 91.5876 20.9605 91.3371 20.4663C91.0867 19.972 90.9609 19.3824 90.9609 18.6973V14.6147C90.9609 14.3798 91.1513 14.1895 91.3862 14.1895H92.3841C92.6189 14.1895 92.8093 14.3798 92.8093 14.6147V18.4197C92.8093 19.0301 92.9549 19.4998 93.2449 19.8277C93.535 20.1555 93.9321 20.3207 94.433 20.3207C94.9338 20.3207 95.3438 20.1568 95.6349 19.8277C95.925 19.4998 96.0705 19.0301 96.0705 18.4197V14.6147C96.0705 14.3798 96.2609 14.1895 96.4958 14.1895H97.5077Z" fill="white"/>
<path d="M105.389 14.9455C105.389 14.9455 105.389 14.9457 105.389 14.9459C105.926 15.5245 106.195 16.3305 106.195 17.3664V21.449C106.195 21.6839 106.004 21.8743 105.769 21.8743H104.772C104.537 21.8743 104.346 21.6839 104.346 21.449V17.6294C104.346 17.019 104.201 16.5504 103.911 16.2214C103.621 15.8935 103.223 15.7284 102.723 15.7284C102.222 15.7284 101.809 15.8923 101.514 16.2214C101.219 16.5492 101.071 17.019 101.071 17.6294V21.449C101.071 21.6839 100.881 21.8743 100.646 21.8743H99.6479C99.4131 21.8743 99.2227 21.6839 99.2227 21.449V14.6147C99.2227 14.3798 99.4131 14.1894 99.6479 14.1894H100.833C100.965 14.1894 101.071 14.2958 101.071 14.4271V14.4271C101.071 14.6561 101.392 14.7744 101.574 14.6354C101.709 14.5318 101.857 14.4407 102.016 14.3619C102.399 14.1723 102.819 14.0781 103.277 14.0781C104.148 14.0781 104.853 14.3667 105.389 14.945C105.39 14.9452 105.389 14.9455 105.389 14.9455V14.9455Z" fill="white"/>
<path d="M107.552 12.9475C107.337 12.731 107.229 12.4594 107.229 12.1365C107.229 11.8135 107.336 11.5419 107.552 11.3254C107.768 11.1089 108.039 11 108.364 11C108.689 11 108.96 11.1089 109.176 11.3254C109.391 11.5431 109.5 11.8135 109.5 12.1365C109.5 12.4594 109.391 12.731 109.176 12.9475C108.96 13.1653 108.689 13.2729 108.364 13.2729C108.039 13.2729 107.768 13.164 107.552 12.9475ZM108.851 14.1892C109.086 14.1892 109.276 14.3796 109.276 14.6144V21.4487C109.276 21.6836 109.086 21.874 108.851 21.874H107.853C107.618 21.874 107.428 21.6836 107.428 21.4487V14.6144C107.428 14.3796 107.618 14.1892 107.853 14.1892H108.851Z" fill="white"/>
<path d="M112.722 15.7848V19.5024C112.722 19.7618 112.781 19.9489 112.9 20.0639C113.019 20.1801 113.219 20.2376 113.501 20.2376H113.934C114.169 20.2376 114.359 20.428 114.359 20.6629V21.4492C114.359 21.684 114.169 21.8744 113.934 21.8744H113.197C111.639 21.8744 110.859 21.0793 110.859 19.489V16.2113C110.859 15.9764 110.669 15.786 110.434 15.786H110.414C110.179 15.786 109.988 15.5956 109.988 15.3608V14.6161C109.988 14.3812 110.179 14.1908 110.414 14.1908H110.434C110.669 14.1908 110.859 14.0004 110.859 13.7656V12.7163C110.859 12.4814 111.05 12.291 111.285 12.291H112.297C112.531 12.291 112.722 12.4814 112.722 12.7163V13.7656C112.722 14.0004 112.912 14.1908 113.147 14.1908H113.934C114.169 14.1908 114.359 14.3812 114.359 14.6161V15.3608C114.359 15.5956 114.169 15.786 113.934 15.786H112.723C112.722 15.786 112.722 15.7855 112.722 15.7848V15.7848Z" fill="white"/>
<path d="M115.287 12.9475C115.071 12.731 114.963 12.4594 114.963 12.1365C114.963 11.8135 115.07 11.5419 115.287 11.3254C115.502 11.1089 115.774 11 116.098 11C116.423 11 116.695 11.1089 116.91 11.3254C117.126 11.5431 117.234 11.8135 117.234 12.1365C117.234 12.4594 117.126 12.731 116.91 12.9475C116.695 13.1653 116.423 13.2729 116.098 13.2729C115.774 13.2729 115.502 13.164 115.287 12.9475ZM116.585 14.1892C116.82 14.1892 117.01 14.3796 117.01 14.6144V21.4487C117.01 21.6836 116.82 21.874 116.585 21.874H115.587C115.352 21.874 115.162 21.6836 115.162 21.4487V14.6144C115.162 14.3796 115.352 14.1892 115.587 14.1892H116.585Z" fill="white"/>
<path d="M125.056 18.6143C125.056 18.6153 125.056 18.6164 125.055 18.6164H120.169C119.921 18.6164 119.72 18.8301 119.783 19.0703C119.872 19.4143 120.032 19.6975 120.263 19.9204C120.589 20.2348 120.99 20.3914 121.465 20.3914C122.058 20.3914 122.503 20.1606 122.801 19.6983C122.89 19.5597 123.036 19.4617 123.201 19.4617H124.362C124.644 19.4617 124.849 19.7332 124.731 19.9901C124.5 20.4965 124.16 20.9283 123.71 21.2856C123.112 21.7615 122.377 22.0001 121.504 22.0001C120.8 22.0001 120.168 21.8361 119.609 21.5071C119.05 21.1792 118.615 20.7144 118.301 20.1125C117.989 19.5119 117.832 18.8182 117.832 18.0316C117.832 17.2451 117.986 16.538 118.294 15.9373C118.603 15.3367 119.034 14.8743 119.588 14.5501C120.143 14.2259 120.781 14.0645 121.503 14.0645C122.225 14.0645 122.822 14.2223 123.371 14.5367C123.921 14.851 124.349 15.2975 124.653 15.875C124.957 16.4536 125.108 17.1166 125.108 17.8653C125.108 18.1428 125.091 18.3922 125.056 18.6135C125.056 18.6138 125.056 18.6141 125.056 18.6143V18.6143ZM123.195 17.3117C123.195 17.3119 123.194 17.3118 123.194 17.3115C123.185 16.8128 123.014 16.413 122.68 16.1123C122.345 15.8113 121.935 15.6609 121.452 15.6609C120.994 15.6609 120.609 15.8064 120.297 16.0976C120.087 16.2931 119.932 16.5398 119.831 16.8375C119.748 17.0814 119.951 17.3111 120.209 17.3111H123.195C123.195 17.3111 123.195 17.3115 123.195 17.3117V17.3117Z" fill="white"/>
<path d="M127.114 21.6628C127.114 21.6616 127.113 21.6606 127.112 21.6601C126.637 21.4339 126.262 21.1259 125.985 20.7386C125.797 20.4761 125.667 20.1939 125.594 19.893C125.537 19.6558 125.734 19.4492 125.978 19.4492H127.014C127.229 19.4492 127.401 19.6173 127.498 19.81C127.569 19.9507 127.672 20.0754 127.807 20.1844C128.05 20.3789 128.351 20.4756 128.712 20.4756C129.074 20.4756 129.34 20.4022 129.538 20.2541C129.736 20.1061 129.835 19.9165 129.835 19.6853C129.835 19.4357 129.714 19.2486 129.472 19.1238C129.23 18.999 128.844 18.8632 128.316 18.7152C127.77 18.577 127.324 18.4339 126.976 18.2858C126.628 18.1378 126.328 17.9115 126.078 17.6057C125.827 17.2999 125.702 16.8888 125.702 16.3714C125.702 15.9456 125.818 15.5579 126.051 15.2068C126.284 14.8557 126.619 14.578 127.055 14.3749C127.491 14.1718 128.003 14.0703 128.594 14.0703C129.465 14.0703 130.16 14.2991 130.681 14.7566C131.096 15.1218 131.362 15.5892 131.479 16.158C131.529 16.3991 131.33 16.6087 131.084 16.6087H130.16C129.939 16.6087 129.766 16.4336 129.676 16.2327C129.614 16.0966 129.525 15.9792 129.407 15.8808C129.191 15.701 128.902 15.6105 128.541 15.6105C128.207 15.6105 127.95 15.6753 127.769 15.805C127.589 15.9346 127.499 16.1145 127.499 16.3457C127.499 16.605 127.622 16.8007 127.868 16.9353C128.115 17.0699 128.497 17.2057 129.016 17.3439C129.545 17.4821 129.981 17.6265 130.324 17.7745C130.668 17.9225 130.965 18.1513 131.215 18.4608C131.466 18.7703 131.596 19.1801 131.604 19.6878C131.604 20.1318 131.488 20.5294 131.255 20.8805C131.022 21.2316 130.687 21.5068 130.251 21.7062C129.815 21.9044 129.306 22.0047 128.725 22.0047C128.145 22.0047 127.591 21.8912 127.116 21.6654C127.115 21.6649 127.114 21.664 127.114 21.6628V21.6628Z" fill="white"/>
</g>
<defs>
<clipPath id="clip0_1954_107981">
<rect width="83" height="11" fill="white" transform="translate(48.6055 11)"/>
</clipPath>
</defs>
</svg>
