<svg width="25" height="25" viewBox="0 0 25 25" fill="none" xmlns="http://www.w3.org/2000/svg">
<rect x="0.5" y="0.5" width="24" height="24" rx="6" fill="#F2BF0C"/>
<path d="M14.0329 8.87467C13.9052 9.00502 13.8336 9.18028 13.8336 9.36281C13.8336 9.54535 13.9052 9.7206 14.0329 9.85096L15.1487 10.9667C15.279 11.0945 15.4543 11.1661 15.6368 11.1661C15.8194 11.1661 15.9946 11.0945 16.125 10.9667L18.754 8.33771C19.1046 9.1126 19.2108 9.97594 19.0583 10.8127C18.9059 11.6495 18.502 12.4199 17.9006 13.0213C17.2992 13.6227 16.5288 14.0266 15.692 14.179C14.8553 14.3315 13.9919 14.2253 13.217 13.8747L8.39837 18.6933C8.12094 18.9707 7.74468 19.1266 7.35234 19.1266C6.96001 19.1266 6.58375 18.9707 6.30632 18.6933C6.0289 18.4159 5.87305 18.0396 5.87305 17.6473C5.87305 17.255 6.0289 16.8787 6.30632 16.6013L11.125 11.7826C10.7743 11.0077 10.6682 10.1444 10.8206 9.30762C10.9731 8.47087 11.3769 7.70044 11.9784 7.09903C12.5798 6.49761 13.3502 6.09377 14.1869 5.94131C15.0237 5.78885 15.887 5.89502 16.6619 6.24567L14.0399 8.8677L14.0329 8.87467Z" stroke="white" stroke-linecap="round"/>
</svg>
