<svg width="25" height="25" viewBox="0 0 25 25" fill="none" xmlns="http://www.w3.org/2000/svg">
<rect x="0.5" y="0.5" width="24" height="24" rx="6" fill="#2A8D5C"/>
<path d="M19.2444 12.062L12.8669 18.3274C12.0856 19.095 11.0259 19.5262 9.92098 19.5262C8.81606 19.5262 7.7564 19.095 6.9751 18.3274C6.19381 17.5598 5.75488 16.5188 5.75488 15.4333C5.75488 14.3478 6.19381 13.3068 6.9751 12.5392L13.3526 6.27379C13.8735 5.76208 14.5799 5.47461 15.3165 5.47461C16.0532 5.47461 16.7596 5.76208 17.2805 6.27379C17.8013 6.7855 18.0939 7.47952 18.0939 8.20319C18.0939 8.92685 17.8013 9.62087 17.2805 10.1326L10.896 16.398C10.6356 16.6539 10.2823 16.7976 9.91404 16.7976C9.54573 16.7976 9.19251 16.6539 8.93208 16.398C8.67165 16.1421 8.52534 15.7951 8.52534 15.4333C8.52534 15.0715 8.67165 14.7245 8.93208 14.4686L14.8238 8.68724" stroke="white" stroke-linecap="round"/>
</svg>
