<svg width="25" height="25" viewBox="0 0 25 25" fill="none" xmlns="http://www.w3.org/2000/svg">
<rect x="0.5" y="0.5" width="24" height="24" rx="6" fill="#2A8D5C"/>
<path d="M14.5572 9.07178H16.6142C17.0644 9.07178 17.5102 9.16045 17.9262 9.33274C18.3421 9.50503 18.72 9.75756 19.0384 10.0759C19.3567 10.3942 19.6093 10.7722 19.7815 11.1881C19.9538 11.6041 20.0425 12.0499 20.0425 12.5001C20.0425 12.9503 19.9538 13.3961 19.7815 13.812C19.6093 14.228 19.3567 14.6059 19.0384 14.9242C18.72 15.2426 18.3421 15.4951 17.9262 15.6674C17.5102 15.8397 17.0644 15.9284 16.6142 15.9284H14.5572M10.4433 15.9284H8.3863C7.93609 15.9284 7.49029 15.8397 7.07435 15.6674C6.65841 15.4951 6.28048 15.2426 5.96213 14.9242C5.3192 14.2813 4.95801 13.4093 4.95801 12.5001C4.95801 11.5908 5.3192 10.7188 5.96213 10.0759C6.60506 9.43297 7.47706 9.07178 8.3863 9.07178H10.4433" stroke="white" stroke-linecap="round"/>
<path d="M9.75781 12.5005H15.2431" stroke="white" stroke-linecap="round"/>
</svg>
