<svg width="25" height="25" viewBox="0 0 25 25" fill="none" xmlns="http://www.w3.org/2000/svg">
<rect x="0.5" y="0.5" width="24" height="24" rx="6" fill="#2A8D5C"/>
<path d="M19.4078 15.4176C18.9307 16.5459 18.1844 17.5402 17.2342 18.3135C16.284 19.0868 15.1589 19.6156 13.9571 19.8536C12.7554 20.0917 11.5136 20.0317 10.3404 19.6789C9.1672 19.3261 8.09827 18.6914 7.22707 17.8301C6.35586 16.9687 5.70891 15.9071 5.34278 14.738C4.97664 13.5689 4.90247 12.3279 5.12675 11.1235C5.35103 9.91914 5.86692 8.78803 6.62934 7.82908C7.39175 6.87013 8.37746 6.11255 9.5003 5.62256" stroke="white" stroke-linecap="round"/>
<path d="M20 12.5C20 11.5151 19.806 10.5398 19.4291 9.62987C19.0522 8.71993 18.4997 7.89314 17.8033 7.1967C17.1069 6.50026 16.2801 5.94781 15.3701 5.5709C14.4602 5.19399 13.4849 5 12.5 5V12.5H20Z" stroke="white" stroke-linecap="round"/>
</svg>
