<svg width="25" height="25" viewBox="0 0 25 25" fill="none" xmlns="http://www.w3.org/2000/svg">
<rect x="0.5" y="0.5" width="24" height="24" rx="6" fill="black"/>
<path d="M15.0452 18.2259V16.9533C15.0452 16.2783 14.7771 15.631 14.2998 15.1537C13.8225 14.6764 13.1751 14.4082 12.5001 14.4082H8.04612C7.3711 14.4082 6.72374 14.6764 6.24643 15.1537C5.76912 15.631 5.50098 16.2783 5.50098 16.9533V18.2259" stroke="white" stroke-linecap="round"/>
<path d="M10.2727 11.8637C11.6783 11.8637 12.8178 10.7242 12.8178 9.31858C12.8178 7.91293 11.6783 6.77344 10.2727 6.77344C8.86704 6.77344 7.72754 7.91293 7.72754 9.31858C7.72754 10.7242 8.86704 11.8637 10.2727 11.8637Z" stroke="white" stroke-linecap="round"/>
<path d="M17.5908 9.95557V13.7733" stroke="white" stroke-linecap="round"/>
<path d="M19.4993 11.8638H15.6816" stroke="white" stroke-linecap="round"/>
</svg>
