<svg width="25" height="25" viewBox="0 0 25 25" fill="none" xmlns="http://www.w3.org/2000/svg">
<rect x="0.5" y="0.5" width="24" height="24" rx="6" fill="black"/>
<path d="M15.6423 7.92875C14.8247 7.88861 13.8498 8.26998 13.0396 9.37397L12.501 10.1033L11.9617 9.37397C11.1507 8.26998 10.1752 7.88861 9.35761 7.92875C8.52594 7.97559 7.78594 8.45064 7.41058 9.2067C7.04125 9.95607 6.98705 11.0667 7.73107 12.4317C8.44967 13.7498 9.91027 15.2887 12.501 16.8543C15.0903 15.2887 16.5502 13.7498 17.2688 12.4317C18.0122 11.0667 17.958 9.95607 17.588 9.2067C17.2126 8.45064 16.4733 7.97559 15.6423 7.92875ZM18.4437 13.074C17.5398 14.7333 15.7667 16.4997 12.8375 18.2058L12.501 18.4066L12.1637 18.2058C9.23383 16.4997 7.46076 14.7333 6.5555 13.074C5.64554 11.4013 5.61209 9.82225 6.21159 8.61122C6.80506 7.41356 7.98265 6.66419 9.29003 6.59728C10.3947 6.53706 11.5435 6.97197 12.5003 7.94213C13.4564 6.97197 14.6052 6.53706 15.7092 6.59728C17.0166 6.66419 18.1942 7.41356 18.7876 8.61122C19.3871 9.82225 19.3537 11.4013 18.4437 13.074Z" fill="white"/>
</svg>
