<svg width="25" height="25" viewBox="0 0 25 25" fill="none" xmlns="http://www.w3.org/2000/svg">
<rect x="0.5" y="0.5" width="24" height="24" rx="6" fill="black"/>
<path d="M5.16406 11.1767C5.16406 8.01337 7.72912 5.45117 10.8932 5.45117H14.0179C17.2314 5.45117 19.8358 8.05631 19.8358 11.2698C19.8358 13.3882 18.6857 15.3349 16.8328 16.3584L11.0686 19.5504V16.9095H11.0206C7.80713 16.981 5.16406 14.3974 5.16406 11.1767ZM10.8932 6.88256C8.51925 6.88256 6.59546 8.80779 6.59546 11.1767C6.59546 13.5886 8.57793 15.5282 10.9884 15.4781L11.2396 15.4709H12.5V17.117L16.1407 15.1059C17.537 14.333 18.4044 12.8658 18.4044 11.2698C18.4044 8.84357 16.4406 6.88256 14.0179 6.88256H10.8932Z" fill="white"/>
</svg>
