<svg width="25" height="25" viewBox="0 0 25 25" fill="none" xmlns="http://www.w3.org/2000/svg">
<rect x="0.5" y="0.5" width="24" height="24" rx="6" fill="black"/>
<path d="M7.60094 7.19531L10.4958 9.89947L9.60488 10.8531L8.25411 9.59247V15.1118C8.25411 15.8303 8.83936 16.4182 9.56047 16.4182H13.1529V17.7245H9.56047C8.1176 17.7245 6.94776 16.5553 6.94776 15.1118V9.59247L5.59699 10.8531L4.70605 9.89947L7.60094 7.19531ZM15.4391 8.58005H11.8466V7.27369H15.4391C16.8819 7.27369 18.0518 8.44288 18.0518 9.8864V15.4057L19.4025 14.1451L20.2935 15.0988L17.3986 17.8029L14.5037 15.0988L15.3946 14.1451L16.7454 15.4057V9.8864C16.7454 9.16791 16.1602 8.58005 15.4391 8.58005Z" fill="white"/>
</svg>
