<svg width="25" height="25" viewBox="0 0 25 25" fill="none" xmlns="http://www.w3.org/2000/svg">
<rect x="0.5" y="0.5" width="24" height="24" rx="6" fill="#5865F2"/>
<path d="M18.5059 11.8643C18.5081 12.7279 18.3063 13.5798 17.917 14.3506C17.4553 15.2743 16.7456 16.0512 15.8674 16.5944C14.9891 17.1375 13.977 17.4254 12.9443 17.4258C12.0807 17.428 11.2288 17.2263 10.458 16.8369L6.72852 18.0801L7.97168 14.3506C7.58233 13.5798 7.38056 12.7279 7.38281 11.8643C7.38321 10.8316 7.6711 9.8195 8.21424 8.94124C8.75738 8.06297 9.53431 7.35327 10.458 6.89162C11.2288 6.50227 12.0807 6.3005 12.9443 6.30275H13.2715C14.6353 6.37799 15.9234 6.95362 16.8892 7.91943C17.855 8.88523 18.4306 10.1733 18.5059 11.5371V11.8643Z" stroke="white" stroke-linecap="round" stroke-linejoin="round"/>
</svg>
