<svg width="25" height="25" viewBox="0 0 25 25" fill="none" xmlns="http://www.w3.org/2000/svg">
<rect x="0.5" y="0.5" width="24" height="24" rx="6" fill="black"/>
<path d="M12.5 15.6025C14.2129 15.6025 15.6016 14.2139 15.6016 12.501C15.6016 10.788 14.2129 9.39941 12.5 9.39941C10.7871 9.39941 9.39844 10.788 9.39844 12.501C9.39844 14.2139 10.7871 15.6025 12.5 15.6025Z" stroke="white" stroke-linecap="round" stroke-linejoin="round"/>
<path d="M15.6016 9.39796V13.2749C15.6016 13.8918 15.8467 14.4835 16.2829 14.9198C16.7191 15.356 17.3108 15.6011 17.9277 15.6011C18.5447 15.6011 19.1364 15.356 19.5726 14.9198C20.0088 14.4835 20.2539 13.8918 20.2539 13.2749V12.4995C20.2538 10.7495 19.6617 9.05095 18.5739 7.6801C17.486 6.30925 15.9664 5.34672 14.2622 4.949C12.558 4.55128 10.7693 4.74177 9.18703 5.4895C7.60478 6.23723 6.322 7.49822 5.54728 9.06743C4.77256 10.6366 4.55145 12.4218 4.91992 14.1326C5.28839 15.8434 6.22475 17.3792 7.57677 18.4904C8.92878 19.6016 10.6169 20.2227 12.3667 20.2528C14.1165 20.2829 15.825 19.7201 17.2144 18.6561" stroke="white" stroke-linecap="round" stroke-linejoin="round"/>
</svg>
