<svg width="25" height="25" viewBox="0 0 25 25" fill="none" xmlns="http://www.w3.org/2000/svg">
<rect x="0.5" y="0.5" width="24" height="24" rx="6" fill="#F2BF0C"/>
<path d="M15.905 4.56641C15.7862 4.57116 15.6673 4.58543 15.5484 4.61396H15.5389L6.49922 7.23884C5.71936 7.45758 5.19629 8.18988 5.19629 9.00303V18.5372C5.19629 19.5549 5.99992 20.4346 7.02229 20.4346H17.9783C18.9959 20.4346 19.8043 19.5596 19.8043 18.5372V10.1585C19.8043 9.13142 19.0007 8.25646 17.9783 8.25646H7.36467L15.8432 5.79325H15.848C15.9716 5.75997 16.0049 5.78374 16.0525 5.82654C16.0952 5.86934 16.1523 5.96444 16.1523 6.11661V7.02961H17.3696V6.11661C17.3696 5.66011 17.1985 5.22263 16.8608 4.92305C16.6136 4.69955 16.2664 4.56641 15.905 4.56641ZM7.02229 9.47379H17.9783C18.3017 9.47379 18.587 9.75435 18.587 10.1585V18.5372C18.587 18.9367 18.3017 19.2172 17.9783 19.2172H7.02229C6.69894 19.2172 6.41363 18.9367 6.41363 18.5372V10.1585C6.41363 9.75435 6.69894 9.47379 7.02229 9.47379ZM16.1523 13.1163C15.4818 13.1163 14.935 13.6631 14.935 14.3336C14.935 15.0041 15.4818 15.551 16.1523 15.551C16.8228 15.551 17.3696 15.0041 17.3696 14.3336C17.3696 13.6631 16.8228 13.1163 16.1523 13.1163Z" fill="white"/>
</svg>
