<svg width="25" height="25" viewBox="0 0 25 25" fill="none" xmlns="http://www.w3.org/2000/svg">
<rect x="0.5" y="0.5" width="24" height="24" rx="6" fill="#5865F2"/>
<path d="M18.5179 11.9504V12.5041C18.5172 13.8019 18.0969 15.0647 17.3199 16.1041C16.5428 17.1435 15.4506 17.904 14.2061 18.2719C12.9615 18.6399 11.6314 18.5957 10.414 18.1459C9.19668 17.6962 8.15732 16.865 7.45096 15.7763C6.7446 14.6875 6.4091 13.3997 6.49449 12.1047C6.57988 10.8097 7.08159 9.57703 7.92479 8.59049C8.76798 7.60395 9.9075 6.9164 11.1734 6.63039C12.4393 6.34438 13.7637 6.47524 14.9491 7.00344" stroke="white" stroke-linecap="round" stroke-linejoin="round"/>
<path d="M18.518 7.68896L12.4998 13.7132L10.6943 11.9077" stroke="white" stroke-linecap="round" stroke-linejoin="round"/>
</svg>
