<svg width="25" height="25" viewBox="0 0 25 25" fill="none" xmlns="http://www.w3.org/2000/svg">
<rect x="0.5" y="0.5" width="24" height="24" rx="6" fill="#F2BF0C"/>
<path fill-rule="evenodd" clip-rule="evenodd" d="M16.2344 11.01C16.7047 11.6371 16.9399 12.4994 16.9399 13.2833C16.9399 14.0671 16.7047 14.851 16.2344 15.4781L17.175 16.1836C17.8021 15.3213 18.1157 14.3023 18.1157 13.2049C18.1157 12.1074 17.7238 11.01 17.0966 10.0693L16.5479 10.5397L16.2344 11.01Z" fill="white"/>
<path fill-rule="evenodd" clip-rule="evenodd" d="M18.0378 16.8895L14.7454 14.3811C14.9806 14.0676 15.1374 13.6756 15.1374 13.2837C15.1374 12.8917 15.059 12.4998 14.8238 12.1863L16.3916 10.7753L18.0378 9.2075C18.1161 9.12911 18.1161 8.89395 18.0378 8.81556L17.881 8.65878C16.7052 7.48296 15.1374 6.77746 13.4912 6.69907V5.75842C13.4912 5.68003 13.4912 5.60164 13.4912 5.60164C13.4912 5.52325 13.4128 5.52325 13.4128 5.44486C13.4128 5.36647 13.3345 5.36647 13.2561 5.36647C13.1777 5.36647 13.1777 5.28809 13.0993 5.28809C13.0209 5.28809 12.9425 5.28809 12.9425 5.36647C12.8641 5.36647 12.8641 5.44486 12.7857 5.44486C12.7074 5.52325 12.7074 5.60164 12.629 5.60164C12.629 5.68003 12.629 5.75842 12.629 5.75842V6.69907C12.237 6.77746 11.8451 6.77746 11.4531 6.93424V5.75842C11.4531 5.68003 11.4531 5.60164 11.4531 5.60164C11.4531 5.52325 11.3747 5.52325 11.3747 5.44486C11.2964 5.36647 11.2964 5.36647 11.218 5.36647C11.1396 5.36647 11.1396 5.28809 11.0612 5.28809C10.9828 5.28809 10.9044 5.28809 10.9044 5.36647C10.826 5.36647 10.826 5.44486 10.7476 5.44486C10.6693 5.52325 10.6693 5.60164 10.6693 5.60164C10.6693 5.68003 10.6693 5.75842 10.6693 5.75842V7.24779C9.33666 7.8749 8.23922 8.89394 7.53373 10.2265C6.82823 11.5591 6.67145 13.0485 6.90662 14.5379C7.22017 16.0273 8.00406 17.2815 9.10149 18.2221C10.1989 19.1628 11.6883 19.7115 13.1777 19.7115H17.9594C18.1161 19.7115 18.1945 19.5547 18.1945 19.4764V17.0463C18.1945 17.0463 18.1161 16.9679 18.0378 16.8895ZM13.2561 18.6141C12.0802 18.6141 10.9044 18.2221 10.0421 17.5167C9.10149 16.8112 8.47438 15.7921 8.16083 14.6163C7.84728 13.4405 7.92567 12.2646 8.396 11.1672C8.86633 10.0698 9.65021 9.2075 10.6693 8.58039V10.3049C10.6693 10.3833 10.6693 10.4617 10.6693 10.4617C10.6693 10.5401 10.7476 10.5401 10.7476 10.6185C10.826 10.6969 10.826 10.6969 10.9044 10.6969C10.9828 10.6969 10.9828 10.7753 11.0612 10.7753C11.1396 10.7753 11.218 10.7753 11.218 10.6969C11.2964 10.6969 11.2964 10.6185 11.3747 10.6185C11.4531 10.5401 11.4531 10.5401 11.4531 10.4617C11.4531 10.3833 11.4531 10.3049 11.4531 10.3049V8.11006C12.0802 7.8749 12.629 7.79651 13.2561 7.79651C14.4319 7.79651 15.5293 8.18845 16.47 8.89394C16.5484 8.97233 16.5484 9.05072 16.47 9.12911L13.9616 11.4808C13.7264 11.4024 13.4912 11.324 13.2561 11.324C13.0209 11.324 12.7074 11.4024 12.4722 11.4808C12.237 11.5591 12.0019 11.7943 11.8451 11.9511C11.6883 12.1863 11.5315 12.4214 11.4531 12.6566C11.3748 12.8917 11.3747 13.2053 11.3747 13.4405C11.4531 13.754 11.5315 13.9892 11.6883 14.2243C11.8451 14.4595 12.0019 14.6163 12.237 14.7731C12.4722 14.9298 12.7074 15.0082 13.0209 15.0866C13.2561 15.165 13.5696 15.0866 13.8048 15.0082L17.0187 17.4383L17.0971 17.5167V18.3789C17.0971 18.4573 17.0187 18.5357 16.9403 18.5357L13.2561 18.6141ZM14.04 13.2837C14.04 13.4405 13.9616 13.5972 13.8832 13.6756C13.8048 13.8324 13.648 13.9108 13.5696 13.9892C13.4128 14.0676 13.2561 14.0676 13.0993 14.0676C12.9425 14.0676 12.7857 13.9892 12.7073 13.8324C12.629 13.754 12.5506 13.5972 12.4722 13.4405C12.4722 13.2837 12.4722 13.1269 12.5506 12.9701C12.629 12.8134 12.7074 12.735 12.8641 12.6566C13.0209 12.5782 13.0993 12.4998 13.2561 12.4998C13.4912 12.4998 13.648 12.5782 13.8048 12.735C13.9616 12.8134 14.04 13.0485 14.04 13.2837Z" fill="white"/>
</svg>
