<svg width="25" height="25" viewBox="0 0 25 25" fill="none" xmlns="http://www.w3.org/2000/svg">
<rect x="0.5" y="0.5" width="24" height="24" rx="6" fill="#FF0F1C"/>
<path d="M20.0326 16.3944C19.8752 17.2203 19.2066 17.8497 18.3806 17.9677C17.0826 18.1643 14.9194 18.4003 12.4807 18.4003C10.0815 18.4003 7.91818 18.1643 6.58088 17.9677C5.7549 17.8497 5.08625 17.2203 4.92892 16.3944C4.77159 15.4897 4.61426 14.1524 4.61426 12.5005C4.61426 10.8485 4.77159 9.51119 4.92892 8.60654C5.08625 7.78056 5.7549 7.15124 6.58088 7.03324C7.87885 6.83658 10.0421 6.60059 12.4807 6.60059C14.9194 6.60059 17.0433 6.83658 18.3806 7.03324C19.2066 7.15124 19.8752 7.78056 20.0326 8.60654C20.1899 9.51119 20.3866 10.8485 20.3866 12.5005C20.3472 14.1524 20.1899 15.4897 20.0326 16.3944Z" stroke="white" stroke-linecap="round"/>
<path d="M11.4486 14.9383C11.2368 15.0618 11.1309 15.1236 11.0459 15.0963C11.0192 15.0877 10.9946 15.0735 10.9737 15.0548C10.9072 14.9952 10.9072 14.8725 10.9072 14.6273V10.3743C10.9072 10.1291 10.9072 10.0065 10.9737 9.9469C10.9946 9.92814 11.0192 9.914 11.0459 9.90539C11.1309 9.87803 11.2368 9.93981 11.4486 10.0634L15.094 12.1899C15.303 12.3118 15.4075 12.3727 15.4259 12.4594C15.4316 12.4867 15.4316 12.5149 15.4259 12.5422C15.4075 12.6289 15.303 12.6899 15.094 12.8118L11.4486 14.9383Z" stroke="white" stroke-linecap="round"/>
</svg>
