<svg width="25" height="25" viewBox="0 0 25 25" fill="none" xmlns="http://www.w3.org/2000/svg">
<rect x="0.5" y="0.5" width="24" height="24" rx="6" fill="#F2BF0C"/>
<path d="M18.5179 11.9499V12.5036C18.5172 13.8014 18.0969 15.0642 17.3199 16.1036C16.5428 17.1431 15.4506 17.9035 14.2061 18.2714C12.9615 18.6394 11.6314 18.5952 10.414 18.1455C9.19668 17.6957 8.15732 16.8645 7.45096 15.7758C6.7446 14.6871 6.4091 13.3992 6.49449 12.1042C6.57988 10.8092 7.08159 9.57654 7.92479 8.59C8.76798 7.60346 9.9075 6.91591 11.1734 6.6299C12.4393 6.3439 13.7637 6.47475 14.9491 7.00295" stroke="white" stroke-linecap="round" stroke-linejoin="round"/>
<path d="M18.518 7.68848L12.4998 13.7127L10.6943 11.9073" stroke="white" stroke-linecap="round" stroke-linejoin="round"/>
</svg>
