<svg width="25" height="25" viewBox="0 0 25 25" fill="none" xmlns="http://www.w3.org/2000/svg">
<rect x="0.5" y="0.5" width="24" height="24" rx="6" fill="#F2BF0C"/>
<path d="M13.0622 6.57193C13.1167 6.13618 13.1439 5.9183 13.0551 5.84843C13.028 5.82711 12.9959 5.81316 12.9618 5.80793C12.8501 5.79077 12.7096 5.95945 12.4284 6.29681L6.55944 13.3396C6.37208 13.5644 6.27841 13.6769 6.29885 13.7721C6.30521 13.8017 6.31825 13.8295 6.33696 13.8534C6.39701 13.9301 6.54334 13.9301 6.836 13.9301H12.092C12.2599 13.9301 12.3438 13.9301 12.3987 13.9743C12.4164 13.9885 12.4315 14.0056 12.4434 14.0249C12.4805 14.0849 12.47 14.1682 12.4492 14.3347L11.9374 18.4294C11.8829 18.8651 11.8557 19.083 11.9445 19.1529C11.9716 19.1742 12.0037 19.1881 12.0378 19.1934C12.1495 19.2105 12.29 19.0419 12.5712 18.7045L18.4402 11.6617C18.6275 11.4369 18.7212 11.3245 18.7008 11.2292C18.6944 11.1996 18.6814 11.1718 18.6627 11.1479C18.6026 11.0712 18.4563 11.0712 18.1636 11.0712H12.9076C12.7398 11.0712 12.6558 11.0712 12.6009 11.027C12.5833 11.0128 12.5682 10.9957 12.5562 10.9764C12.5192 10.9164 12.5296 10.8331 12.5504 10.6666L13.0622 6.57193Z" stroke="white" stroke-linecap="round"/>
</svg>
