<svg width="25" height="25" viewBox="0 0 25 25" fill="none" xmlns="http://www.w3.org/2000/svg">
<rect x="0.5" y="0.5" width="24" height="24" rx="6" fill="#F2BF0C"/>
<path d="M15.2468 7.00586H16.6203C16.9846 7.00586 17.3339 7.15057 17.5915 7.40815C17.8491 7.66572 17.9938 8.01508 17.9938 8.37935V17.9938C17.9938 18.3581 17.8491 18.7074 17.5915 18.965C17.3339 19.2226 16.9846 19.3673 16.6203 19.3673H8.37935C8.01508 19.3673 7.66572 19.2226 7.40815 18.965C7.15057 18.7074 7.00586 18.3581 7.00586 17.9938V8.37935C7.00586 8.01508 7.15057 7.66572 7.40815 7.40815C7.66572 7.15057 8.01508 7.00586 8.37935 7.00586H9.75284" stroke="white" stroke-linecap="round"/>
<path d="M14.5601 5.63281H10.4397C10.0604 5.63281 9.75293 5.94028 9.75293 6.31956V7.69305C9.75293 8.07233 10.0604 8.37979 10.4397 8.37979H14.5601C14.9394 8.37979 15.2469 8.07233 15.2469 7.69305V6.31956C15.2469 5.94028 14.9394 5.63281 14.5601 5.63281Z" stroke="white" stroke-linecap="round"/>
</svg>
