<svg width="172" height="38" viewBox="0 0 172 38" fill="none" xmlns="http://www.w3.org/2000/svg">
<path fill-rule="evenodd" clip-rule="evenodd" d="M35.3941 10.4008C35.3585 10.5515 35.2355 10.6718 35.0538 10.7328C30.6532 12.0214 27.1889 15.51 25.9093 19.9101C25.8469 20.1301 25.6597 20.2558 25.4724 20.2558C25.2852 20.2558 25.0979 20.1301 25.0355 19.9101C23.7559 15.4786 20.2916 11.99 15.891 10.7328C15.7093 10.6718 15.5863 10.5515 15.5507 10.4008C15.5489 10.3929 15.5419 10.3871 15.5337 10.3871C15.5242 10.3871 15.5165 10.3794 15.5165 10.3699V10.3242V10.2785C15.5165 10.269 15.5242 10.2614 15.5337 10.2614C15.5419 10.2614 15.5489 10.2556 15.5507 10.2476C15.5863 10.0969 15.7093 9.97665 15.891 9.91564C20.2916 8.65847 23.7559 5.16983 25.0355 0.738311C25.0979 0.518306 25.2852 0.392578 25.4724 0.392578C25.6597 0.392578 25.8469 0.518306 25.9093 0.738311C27.1889 5.16983 30.6532 8.65847 35.0538 9.91564C35.2355 9.97665 35.3585 10.0969 35.3941 10.2476C35.396 10.2556 35.403 10.2614 35.4111 10.2614C35.4206 10.2614 35.4283 10.269 35.4283 10.2785V10.3242V10.3699C35.4283 10.3794 35.4206 10.3871 35.4111 10.3871C35.403 10.3871 35.396 10.3929 35.3941 10.4008ZM0.681699 10.4482H0.496125C0.12497 10.4482 -0.12247 10.8567 0.0631076 11.1709L7.51714 24.2723L14.9712 37.3737C15.1567 37.6879 15.6207 37.6879 15.8063 37.3737L21.2499 27.7597C21.7447 26.88 21.7757 25.7803 21.2808 24.9006C17.1672 17.2346 9.58942 11.705 0.681699 10.4482ZM50.2613 10.4482H50.4469C50.818 10.4482 51.0655 10.8567 50.8799 11.1709L43.4259 24.2723L35.9718 37.3737C35.7863 37.6879 35.3223 37.6879 35.1367 37.3737L29.6931 27.7597C29.1983 26.88 29.1673 25.7803 29.6622 24.9006C33.7758 17.2346 41.3536 11.705 50.2613 10.4482Z" fill="white"/>
<path d="M66.438 25.5218C66.3534 25.5218 66.2779 25.4688 66.249 25.3893L63.0407 16.5392C62.9932 16.4082 63.0903 16.2697 63.2297 16.2697H65.0486C65.1356 16.2697 65.2127 16.3257 65.2397 16.4085L66.9682 21.7121C67.0275 21.8939 67.2833 21.898 67.3484 21.7181L69.2696 16.4024C69.2984 16.3228 69.374 16.2697 69.4587 16.2697H70.8817C70.9662 16.2697 71.0417 16.3225 71.0706 16.4019L73.0091 21.7198C73.0746 21.8994 73.3302 21.8949 73.3892 21.713L75.1097 16.4087C75.1366 16.3258 75.2138 16.2697 75.3009 16.2697H77.1289C77.2683 16.2697 77.3654 16.4082 77.3178 16.5392L74.1095 25.3893C74.0807 25.4688 74.0051 25.5218 73.9205 25.5218H72.5064C72.422 25.5218 72.3466 25.4691 72.3176 25.3899L70.3584 20.0378C70.294 19.862 70.0455 19.8618 69.9809 20.0375L68.0132 25.3901C67.9842 25.4692 67.9088 25.5218 67.8246 25.5218H66.438Z" fill="white"/>
<path d="M79.0789 17.462C79.9992 16.5378 81.1389 16.0756 82.4978 16.0756C83.8567 16.0756 84.9995 16.5378 85.926 17.462C86.8525 18.3863 87.3158 19.5324 87.3158 20.9004C87.3158 22.2683 86.8525 23.4114 85.926 24.3295C84.9995 25.2476 83.8567 25.7067 82.4978 25.7067C81.1389 25.7067 79.9992 25.2476 79.0789 24.3295C78.1585 23.4114 77.6983 22.2683 77.6983 20.9004C77.6983 19.5324 78.1585 18.3863 79.0789 17.462ZM84.4435 18.9039C83.9185 18.3678 83.2699 18.0998 82.4978 18.0998C81.7257 18.0998 81.0802 18.3678 80.5613 18.9039C80.0425 19.44 79.783 20.1055 79.783 20.9004C79.783 21.6891 80.0425 22.3515 80.5613 22.8876C81.0864 23.4175 81.7319 23.6825 82.4978 23.6825C83.2699 23.6825 83.9185 23.4144 84.4435 22.8783C84.9686 22.3423 85.2311 21.6829 85.2311 20.9004C85.2311 20.1055 84.9686 19.44 84.4435 18.9039Z" fill="white"/>
<path d="M93.8435 16.0756C95.0047 16.0756 95.9282 16.4515 96.6138 17.2032C97.2995 17.955 97.6423 18.9686 97.6423 20.2441V25.3208C97.6423 25.4318 97.5523 25.5218 97.4413 25.5218H95.7215C95.6105 25.5218 95.5205 25.4318 95.5205 25.3208V20.5769C95.5205 19.8375 95.3198 19.2521 94.9183 18.8207C94.5229 18.3894 93.9948 18.1737 93.3339 18.1737C92.8583 18.1737 92.4073 18.2908 91.9811 18.525C91.578 18.7497 91.2602 19.0482 91.0278 19.4205C91.0086 19.4512 90.999 19.4868 90.999 19.523V25.3208C90.999 25.4318 90.909 25.5218 90.798 25.5218H89.0968C88.9858 25.5218 88.8958 25.4318 88.8958 25.3208V16.4707C88.8958 16.3597 88.9858 16.2697 89.0968 16.2697H90.798C90.909 16.2697 90.999 16.3597 90.999 16.4707V16.8309C90.999 17.0317 91.2899 17.128 91.4358 16.99C91.6522 16.7852 91.9051 16.6098 92.1942 16.4638C92.7069 16.205 93.2567 16.0756 93.8435 16.0756Z" fill="white"/>
<path d="M106.616 12.4686C106.616 12.3576 106.706 12.2676 106.817 12.2676H108.528C108.639 12.2676 108.729 12.3576 108.729 12.4686V25.3208C108.729 25.4318 108.639 25.5218 108.528 25.5218H106.817C106.706 25.5218 106.616 25.4318 106.616 25.3208V25.0107C106.616 24.806 106.298 24.7005 106.144 24.835C105.94 25.0124 105.696 25.1705 105.412 25.3092C104.862 25.5742 104.278 25.7067 103.66 25.7067C102.413 25.7067 101.356 25.2414 100.492 24.311C99.633 23.3805 99.2037 22.2375 99.2037 20.8819C99.2037 19.5386 99.633 18.4017 100.492 17.4713C101.356 16.5408 102.413 16.0756 103.66 16.0756C104.272 16.0756 104.856 16.2112 105.412 16.4823C105.696 16.621 105.94 16.7791 106.144 16.9565C106.298 17.091 106.616 16.9855 106.616 16.7809V12.4686ZM104.096 23.701C104.615 23.701 105.106 23.5716 105.569 23.3128C106.02 23.0639 106.36 22.7496 106.589 22.3698C106.607 22.3398 106.616 22.3054 106.616 22.2705V19.5382C106.616 19.5041 106.608 19.4705 106.59 19.4411C106.362 19.0488 106.025 18.7281 105.578 18.4788C105.115 18.2138 104.621 18.0813 104.096 18.0813C103.299 18.0813 102.632 18.3494 102.095 18.8854C101.557 19.4154 101.288 20.0809 101.288 20.8819C101.288 21.6829 101.557 22.3546 102.095 22.8968C102.632 23.4329 103.299 23.701 104.096 23.701Z" fill="white"/>
<path d="M119.37 20.4845C119.37 20.7681 119.354 21.0187 119.323 21.2363C119.31 21.3315 119.227 21.3995 119.13 21.3995H112.471C112.347 21.3995 112.252 21.5098 112.279 21.6304C112.418 22.2728 112.703 22.7843 113.134 23.1649C113.622 23.59 114.24 23.8026 114.988 23.8026C115.513 23.8026 115.994 23.6979 116.433 23.4884C116.8 23.3081 117.089 23.0782 117.3 22.7988C117.368 22.7089 117.493 22.6786 117.588 22.7391L118.942 23.5997C119.032 23.6566 119.062 23.7737 119.006 23.8636C118.659 24.4151 118.15 24.8538 117.48 25.1798C116.751 25.531 115.908 25.7067 114.95 25.7067C114.067 25.7067 113.258 25.4971 112.523 25.0781C111.788 24.653 111.204 24.0676 110.772 23.322C110.346 22.5764 110.132 21.7507 110.132 20.8449C110.132 19.9638 110.342 19.1596 110.762 18.4325C111.189 17.6993 111.766 17.1231 112.495 16.7041C113.23 16.2851 114.036 16.0756 114.913 16.0756C115.735 16.0756 116.485 16.2697 117.165 16.6579C117.851 17.0461 118.388 17.5791 118.777 18.2569C119.172 18.9286 119.37 19.6711 119.37 20.4845ZM112.388 19.5311C112.344 19.656 112.44 19.782 112.572 19.782H116.925C117.044 19.782 117.137 19.6795 117.115 19.563C117.024 19.0828 116.787 18.6845 116.405 18.3678C115.967 17.9981 115.429 17.8133 114.793 17.8133C114.169 17.8133 113.641 17.9889 113.209 18.3401C112.837 18.6369 112.563 19.0339 112.388 19.5311Z" fill="white"/>
<path d="M125.416 16.0756C125.772 16.0756 126.078 16.11 126.335 16.1788C126.422 16.2021 126.477 16.286 126.471 16.3763L126.369 17.9481C126.36 18.0804 126.228 18.1681 126.1 18.1346C125.822 18.0621 125.538 18.0259 125.249 18.0259C124.866 18.0259 124.462 18.1707 124.035 18.4603C123.621 18.7357 123.298 19.107 123.064 19.5744C123.051 19.6014 123.044 19.6313 123.044 19.6616V25.3208C123.044 25.4318 122.954 25.5218 122.843 25.5218H121.142C121.031 25.5218 120.941 25.4318 120.941 25.3208V16.4707C120.941 16.3597 121.031 16.2697 121.142 16.2697H122.843C122.954 16.2697 123.044 16.3597 123.044 16.4707V16.7273C123.044 16.9368 123.378 17.0385 123.529 16.893C123.687 16.7402 123.868 16.6033 124.072 16.4823C124.53 16.2112 124.977 16.0756 125.416 16.0756Z" fill="white"/>
<path d="M136.531 16.2697C136.675 16.2697 136.772 16.4162 136.717 16.5487L132.994 25.3987C132.963 25.4733 132.89 25.5218 132.809 25.5218H131.251C131.17 25.5218 131.097 25.4732 131.066 25.3986L127.352 16.5485C127.296 16.416 127.394 16.2697 127.537 16.2697H129.386C129.469 16.2697 129.543 16.3205 129.574 16.3976L131.846 22.2203C131.913 22.3912 132.155 22.3908 132.221 22.2196L134.468 16.3984C134.498 16.3208 134.572 16.2697 134.656 16.2697H136.531Z" fill="white"/>
<path d="M146.188 20.4845C146.188 20.7681 146.172 21.0187 146.141 21.2363C146.127 21.3315 146.044 21.3995 145.948 21.3995H139.288C139.165 21.3995 139.07 21.5098 139.096 21.6304C139.235 22.2728 139.521 22.7843 139.952 23.1649C140.44 23.59 141.058 23.8026 141.805 23.8026C142.33 23.8026 142.812 23.6979 143.251 23.4884C143.617 23.3081 143.906 23.0782 144.117 22.7988C144.185 22.7089 144.311 22.6786 144.406 22.7391L145.76 23.5997C145.849 23.6566 145.88 23.7737 145.823 23.8636C145.477 24.4151 144.968 24.8538 144.298 25.1798C143.569 25.531 142.725 25.7067 141.768 25.7067C140.885 25.7067 140.076 25.4971 139.341 25.0781C138.605 24.653 138.022 24.0676 137.589 23.322C137.163 22.5764 136.95 21.7507 136.95 20.8449C136.95 19.9638 137.16 19.1596 137.58 18.4325C138.006 17.6993 138.584 17.1231 139.313 16.7041C140.048 16.2851 140.854 16.0756 141.731 16.0756C142.553 16.0756 143.303 16.2697 143.982 16.6579C144.668 17.0461 145.206 17.5791 145.595 18.2569C145.99 18.9286 146.188 19.6711 146.188 20.4845ZM139.205 19.5311C139.161 19.656 139.258 19.782 139.39 19.782H143.743C143.861 19.782 143.955 19.6795 143.933 19.563C143.841 19.0828 143.605 18.6845 143.223 18.3678C142.784 17.9981 142.247 17.8133 141.611 17.8133C140.987 17.8133 140.459 17.9889 140.026 18.3401C139.654 18.6369 139.381 19.0339 139.205 19.5311Z" fill="white"/>
<path d="M152.234 16.0756C152.589 16.0756 152.896 16.11 153.153 16.1788C153.24 16.2021 153.295 16.286 153.289 16.3763L153.186 17.9481C153.178 18.0804 153.046 18.1681 152.917 18.1346C152.639 18.0621 152.356 18.0259 152.067 18.0259C151.684 18.0259 151.279 18.1707 150.853 18.4603C150.439 18.7357 150.115 19.107 149.882 19.5744C149.868 19.6014 149.862 19.6313 149.862 19.6616V25.3208C149.862 25.4318 149.772 25.5218 149.661 25.5218H147.959C147.848 25.5218 147.758 25.4318 147.758 25.3208V16.4707C147.758 16.3597 147.848 16.2697 147.959 16.2697H149.661C149.772 16.2697 149.862 16.3597 149.862 16.4707V16.7273C149.862 16.9368 150.196 17.0385 150.346 16.893C150.505 16.7402 150.686 16.6033 150.89 16.4823C151.347 16.2112 151.795 16.0756 152.234 16.0756Z" fill="white"/>
<path d="M157.622 25.7344C156.868 25.7344 156.121 25.6111 155.379 25.3647C154.701 25.1391 154.144 24.8465 153.709 24.4868C153.638 24.4284 153.621 24.3281 153.664 24.2468L154.301 23.0324C154.363 22.9137 154.522 22.888 154.626 22.9716C154.952 23.2316 155.36 23.45 155.852 23.627C156.457 23.8427 157.025 23.9505 157.557 23.9505C158.014 23.9505 158.384 23.855 158.669 23.664C158.953 23.4668 159.095 23.2203 159.095 22.9246C159.095 22.7212 159.021 22.5487 158.872 22.407C158.724 22.2652 158.53 22.1574 158.289 22.0835C158.048 22.0034 157.773 21.9233 157.464 21.8432C157.155 21.7569 156.837 21.6799 156.51 21.6121C156.188 21.5381 155.873 21.4334 155.565 21.2978C155.256 21.1561 154.981 20.9959 154.74 20.8172C154.499 20.6323 154.305 20.3828 154.156 20.0685C154.008 19.7543 153.934 19.3938 153.934 18.9871C153.934 18.1306 154.267 17.4312 154.935 16.889C155.608 16.3467 156.476 16.0756 157.538 16.0756C158.211 16.0756 158.857 16.1711 159.475 16.3622C160.04 16.5351 160.513 16.7788 160.896 17.0933C160.966 17.1511 160.984 17.2503 160.942 17.3312L160.296 18.5919C160.236 18.7082 160.083 18.7375 159.977 18.661C159.663 18.4339 159.276 18.2499 158.817 18.109C158.261 17.9304 157.767 17.841 157.334 17.841C156.945 17.841 156.633 17.9304 156.399 18.109C156.164 18.2816 156.046 18.5188 156.046 18.8207C156.046 19.0302 156.142 19.2089 156.334 19.3568C156.525 19.4986 156.772 19.6156 157.075 19.7081C157.384 19.8005 157.723 19.8929 158.094 19.9853C158.465 20.0716 158.832 20.1856 159.197 20.3273C159.567 20.4629 159.904 20.6293 160.207 20.8264C160.515 21.0175 160.766 21.2886 160.957 21.6398C161.149 21.9849 161.244 22.3885 161.244 22.8506C161.244 23.6825 160.905 24.3726 160.225 24.921C159.546 25.4633 158.678 25.7344 157.622 25.7344Z" fill="white"/>
<path d="M171.469 20.4845C171.469 20.7681 171.453 21.0187 171.422 21.2363C171.409 21.3315 171.325 21.3995 171.229 21.3995H164.569C164.446 21.3995 164.351 21.5098 164.377 21.6304C164.517 22.2728 164.802 22.7843 165.233 23.1649C165.721 23.59 166.339 23.8026 167.086 23.8026C167.611 23.8026 168.093 23.6979 168.532 23.4884C168.898 23.3081 169.187 23.0782 169.399 22.7988C169.467 22.7089 169.592 22.6786 169.687 22.7391L171.041 23.5997C171.13 23.6566 171.161 23.7737 171.104 23.8636C170.758 24.4151 170.249 24.8538 169.579 25.1798C168.85 25.531 168.007 25.7067 167.049 25.7067C166.166 25.7067 165.357 25.4971 164.622 25.0781C163.887 24.653 163.303 24.0676 162.871 23.322C162.444 22.5764 162.231 21.7507 162.231 20.8449C162.231 19.9638 162.441 19.1596 162.861 18.4325C163.288 17.6993 163.865 17.1231 164.594 16.7041C165.329 16.2851 166.135 16.0756 167.012 16.0756C167.834 16.0756 168.584 16.2697 169.264 16.6579C169.949 17.0461 170.487 17.5791 170.876 18.2569C171.271 18.9286 171.469 19.6711 171.469 20.4845ZM164.486 19.5311C164.442 19.656 164.539 19.782 164.671 19.782H169.024C169.143 19.782 169.236 19.6795 169.214 19.563C169.123 19.0828 168.886 18.6845 168.504 18.3678C168.065 17.9981 167.528 17.8133 166.892 17.8133C166.268 17.8133 165.74 17.9889 165.307 18.3401C164.936 18.6369 164.662 19.0339 164.486 19.5311Z" fill="white"/>
</svg>
