<svg width="58" height="55" viewBox="0 0 58 55" fill="none" xmlns="http://www.w3.org/2000/svg">
<path d="M53.7239 19.0742H53.9102C54.2828 19.0742 54.5311 19.4871 54.3449 19.8046L46.8621 33.0473L39.3793 46.2899C39.193 46.6075 38.7272 46.6075 38.5409 46.2899L33.0763 36.5723C32.5795 35.6831 32.5485 34.5716 33.0453 33.6824C37.1748 25.9337 44.7818 20.3445 53.7239 19.0742Z" fill="#C1B6F6"/>
<path d="M3.95191 19.0742H3.76562C3.39303 19.0742 3.14464 19.4871 3.33093 19.8046L10.8137 33.0473L18.2965 46.2899C18.4828 46.6075 18.9485 46.6075 19.1348 46.2899L24.5995 36.5723C25.0962 35.6831 25.1273 34.5716 24.6305 33.6824C20.501 25.9337 12.894 20.3445 3.95191 19.0742Z" fill="#C1B6F6"/>
<path d="M38.3712 19.3582C38.5521 19.2965 38.6745 19.175 38.7098 19.0226C38.7117 19.0147 38.7186 19.0089 38.7268 19.0089V19.0089C38.7362 19.0089 38.7438 19.0012 38.7438 18.9918C38.7438 18.9756 38.7438 18.9701 38.7438 18.9454C38.7438 18.9206 38.7438 18.9151 38.7438 18.8989C38.7438 18.8895 38.7362 18.8818 38.7268 18.8818V18.8818C38.7186 18.8818 38.7117 18.8761 38.7098 18.8681C38.6745 18.7157 38.5521 18.5942 38.3712 18.5325C33.9933 17.2622 30.5469 13.7372 29.2739 9.25949C29.2118 9.0372 29.0255 8.91016 28.8392 8.91016C28.6529 8.91016 28.4666 9.0372 28.4045 9.25949C27.1315 13.7372 23.6851 17.2622 19.3072 18.5325C19.1263 18.5942 19.0039 18.7157 18.9686 18.8681C18.9667 18.8761 18.9597 18.8818 18.9516 18.8818V18.8818C18.9422 18.8818 18.9346 18.8895 18.9346 18.8989C18.9346 18.9151 18.9346 18.9206 18.9346 18.9454C18.9346 18.9701 18.9346 18.9756 18.9346 18.9918C18.9346 19.0012 18.9422 19.0089 18.9516 19.0089V19.0089C18.9597 19.0089 18.9667 19.0147 18.9686 19.0226C19.0039 19.175 19.1263 19.2965 19.3072 19.3582C23.6851 20.6285 27.1315 24.1535 28.4045 28.6312C28.4666 28.8535 28.6529 28.9805 28.8392 28.9805C29.0255 28.9805 29.2118 28.8535 29.2739 28.6312C30.5469 24.1852 33.9933 20.6602 38.3712 19.3582Z" fill="#C1B6F6"/>
</svg>
