<svg width="39" height="34" viewBox="0 0 39 34" fill="none" xmlns="http://www.w3.org/2000/svg">
<path d="M24.1318 2.82332C23.1901 1.64524 21.7287 1 20.0159 1C19.2021 1 18.3499 1.14986 17.5532 1.43294C13.9656 2.71509 10.361 5.38347 7.39979 8.95102C4.5877 12.3354 2.60219 16.2443 1.66056 20.2448C1.11945 22.5385 -0.5252 29.5196 4.89873 32.1422C6.07896 32.7125 7.3018 32.9998 8.53741 32.9998C13.041 32.9998 16.8629 29.2657 19.3469 26.4599C19.9136 25.8189 17.6516 27.2301 17.2894 26.4599C16.923 25.6815 18.5374 22.9049 17.7449 22.9049C17.3657 22.9049 16.8075 23.0256 16.309 23.5917L16.0704 23.8582C14.102 26.0894 11.652 28.8661 8.62689 28.8661C8.43942 28.8661 8.24768 28.8536 8.06021 28.8327C7.14415 28.7287 5.91279 28.225 5.45263 27.1593C4.89873 25.8771 5.20977 24.0954 5.45263 22.6676C6.45817 16.8521 9.75599 11.4695 14.4982 7.8895C16.2068 6.59902 17.6085 5.78727 18.9081 5.32935C19.1978 5.22528 19.6324 5.09207 20.0329 5.09207C20.2715 5.09207 20.4675 5.13786 20.6337 5.23361C20.6592 5.25026 20.6848 5.26691 20.7104 5.28773C19.9733 5.75396 19.6537 6.5449 19.8753 7.3858C20.1266 8.34741 20.9958 9.04677 21.946 9.04677C22.2954 9.04677 22.6405 8.95519 22.9728 8.77619C23.9698 8.24334 24.6771 7.29421 24.9115 6.17025C25.1629 4.98384 24.8731 3.76413 24.1232 2.82332H24.1318Z" fill="#84BCFF" stroke="white" stroke-width="0.776084" stroke-linejoin="round"/>
<path d="M28.4653 2.82332C27.5236 1.64524 26.0622 1 24.3494 1C23.5356 1 22.6834 1.14986 21.8867 1.43294C18.2991 2.71509 14.6945 5.38347 11.7333 8.95102C8.9212 12.3354 6.93569 16.2443 5.99406 20.2448C5.45295 22.5385 3.8083 29.5196 9.23223 32.1422C10.4125 32.7125 11.6353 32.9998 12.8709 32.9998C17.3745 32.9998 21.1964 29.2657 23.6804 26.4599C24.2471 25.8189 24.3749 24.978 24.0128 24.2078C23.6463 23.4294 22.8709 22.9049 22.0784 22.9049C21.6992 22.9049 21.141 23.0256 20.6425 23.5917L20.4039 23.8582C18.4354 26.0894 15.9855 28.8661 12.9604 28.8661C12.7729 28.8661 12.5812 28.8536 12.3937 28.8327C11.4776 28.7287 10.2463 28.225 9.78613 27.1593C9.23223 25.8771 9.54326 24.0954 9.78613 22.6676C10.7917 16.8521 14.0895 11.4695 18.8317 7.8895C20.5403 6.59902 21.942 5.78727 23.2416 5.32935C23.5313 5.22528 23.9659 5.09207 24.3664 5.09207C24.605 5.09207 24.801 5.13786 24.9672 5.23361C24.9927 5.25026 25.0183 5.26691 25.0439 5.28773C24.3068 5.75396 23.9872 6.5449 24.2088 7.3858C24.4601 8.34741 24.017 7.3858 24.9672 7.3858C22.8306 5.31767 25.2526 4.77986 26.2795 6.17025C27.2765 5.6374 29.0106 7.29421 29.245 6.17025C29.4963 4.98384 29.2066 3.76413 28.4567 2.82332H28.4653Z" fill="#AF9EFF" stroke="white" stroke-width="0.776084" stroke-linejoin="round"/>
<path d="M32.7958 2.82332C31.8542 1.64524 30.3928 1 28.6799 1C27.8661 1 27.014 1.14986 26.2172 1.43294C22.6297 2.71509 19.0251 5.38347 16.0639 8.95102C13.2518 12.3354 11.2663 16.2443 10.3246 20.2448C9.78351 22.5385 8.13886 29.5196 13.5628 32.1422C14.743 32.7125 15.9659 32.9998 17.2015 32.9998C21.7051 32.9998 25.527 29.2657 28.011 26.4599C28.5777 25.8189 28.7055 24.978 28.3433 24.2078C27.9769 23.4294 27.2015 22.9049 26.409 22.9049C26.0297 22.9049 25.4716 23.0256 24.9731 23.5917L24.7345 23.8582C22.766 26.0894 20.3161 28.8661 17.291 28.8661C17.1035 28.8661 16.9117 28.8536 16.7243 28.8327C15.8082 28.7287 14.5769 28.225 14.1167 27.1593C13.5628 25.8771 13.8738 24.0954 14.1167 22.6676C15.1222 16.8521 18.42 11.4695 23.1623 7.8895C24.8708 6.59902 26.2726 5.78727 27.5721 5.32935C27.8619 5.22528 28.2965 5.09207 28.697 5.09207C28.9356 5.09207 29.1316 5.13786 29.2977 5.23361C29.3233 5.25026 29.3489 5.26691 29.3744 5.28773C28.6373 5.75396 28.3178 6.5449 28.5393 7.3858C28.7907 8.34741 29.6599 9.04677 30.6101 9.04677C30.9594 9.04677 31.3046 8.95519 31.6369 8.77619C32.6339 8.24334 33.3412 7.29421 33.5755 6.17025C33.8269 4.98384 33.5372 3.76413 32.7873 2.82332H32.7958Z" fill="#F8AFDB" stroke="white" stroke-width="0.776084" stroke-linejoin="round"/>
<path d="M37.1313 2.82332C36.1896 1.64524 34.7282 1 33.0154 1C32.2016 1 31.3494 1.14986 30.5527 1.43294C26.9651 2.71509 23.3605 5.38347 20.3993 8.95102C17.5872 12.3354 15.6017 16.2443 14.6601 20.2448C14.119 22.5385 12.4743 29.5196 17.8982 32.1422C19.0785 32.7125 20.3013 32.9998 21.5369 32.9998C26.0405 32.9998 29.8624 29.2657 32.3464 26.4599C32.9131 25.8189 33.0409 24.978 32.6788 24.2078C32.3124 23.4294 31.5369 22.9049 30.7444 22.9049C30.3652 22.9049 29.807 23.0256 29.3085 23.5917L29.0699 23.8582C27.1015 26.0894 24.6515 28.8661 21.6264 28.8661C21.4389 28.8661 21.2472 28.8536 21.0597 28.8327C20.1437 28.7287 18.9123 28.225 18.4521 27.1593C17.8982 25.8771 18.2093 24.0954 18.4521 22.6676C19.4577 16.8521 22.7555 11.4695 27.4977 7.8895C29.2063 6.59902 30.6081 5.78727 31.9076 5.32935C32.1973 5.22528 32.6319 5.09207 33.0324 5.09207C33.271 5.09207 33.467 5.13786 33.6332 5.23361C33.6588 5.25026 33.6843 5.26691 33.7099 5.28773C32.9728 5.75396 32.6532 6.5449 32.8748 7.3858C33.1262 8.34741 33.9954 9.04677 34.9455 9.04677C35.2949 9.04677 35.64 8.95519 35.9723 8.77619C36.9694 8.24334 37.6766 7.29421 37.911 6.17025C38.1624 4.98384 37.8726 3.76413 37.1227 2.82332H37.1313Z" fill="#F8642D" stroke="white" stroke-width="0.776084" stroke-linejoin="round"/>
<path d="M19.9912 1H33.0224" stroke="white" stroke-width="0.776084" stroke-linejoin="round"/>
<path d="M8.18311 33H21.401" stroke="white" stroke-width="0.776084" stroke-linejoin="round"/>
<path d="M34.6452 17.2917C34.7376 17.2863 34.8093 17.2456 34.8424 17.1797L34.8565 17.1834C34.8603 17.1695 34.8603 17.1695 34.8641 17.1556C34.8679 17.1417 34.8679 17.1417 34.8717 17.1277L34.8576 17.124C34.8624 17.0506 34.8211 16.98 34.7439 16.9297C32.9031 15.8458 31.7557 13.8854 31.7113 11.769C31.7096 11.6641 31.64 11.586 31.5552 11.5636C31.4704 11.5411 31.3705 11.5744 31.3156 11.6644C30.2013 13.4742 28.2116 14.6047 26.0673 14.6345C25.9749 14.6399 25.9032 14.6807 25.8701 14.7466L25.856 14.7428C25.8522 14.7567 25.8522 14.7567 25.8484 14.7707C25.8446 14.7846 25.8446 14.7846 25.8408 14.7985L25.855 14.8022C25.8501 14.8756 25.8915 14.9462 25.9687 14.9965C27.8094 16.0805 28.9568 18.0408 29.0012 20.1572C29.0029 20.2621 29.0725 20.3403 29.1573 20.3627C29.2421 20.3851 29.3421 20.3519 29.3969 20.2619C30.5074 18.466 32.4972 17.3355 34.6452 17.2917Z" fill="#E9FF90"/>
<path d="M34.6452 17.2917L34.6506 17.679C34.6556 17.6789 34.6606 17.6787 34.6656 17.6784L34.6452 17.2917ZM34.8424 17.1797L34.9444 16.8053C34.7659 16.7581 34.578 16.8429 34.495 17.0081L34.8424 17.1797ZM34.8565 17.1834L34.7545 17.5578C34.9617 17.6126 35.1753 17.4894 35.2317 17.2827L34.8565 17.1834ZM34.8717 17.1277L35.2468 17.227C35.2739 17.1277 35.2603 17.022 35.2091 16.9332C35.1579 16.8444 35.0732 16.7797 34.9737 16.7534L34.8717 17.1277ZM34.8576 17.124L34.4696 17.1011C34.4575 17.285 34.5771 17.4512 34.7555 17.4984L34.8576 17.124ZM34.7439 16.9297L34.958 16.6051C34.9532 16.602 34.9483 16.5989 34.9433 16.596L34.7439 16.9297ZM31.7113 11.769L31.3226 11.7778L31.3226 11.7796L31.7113 11.769ZM31.3156 11.6644L31.6467 11.8654L31.6476 11.8638L31.3156 11.6644ZM26.0673 14.6345L26.0644 14.2472C26.0586 14.2473 26.0528 14.2475 26.047 14.2479L26.0673 14.6345ZM25.8701 14.7466L25.7681 15.1209C25.9466 15.1682 26.1345 15.0833 26.2176 14.9181L25.8701 14.7466ZM25.856 14.7428L25.958 14.3684C25.7509 14.3136 25.5372 14.4368 25.4809 14.6436L25.856 14.7428ZM25.8408 14.7985L25.4657 14.6993C25.4386 14.7986 25.4522 14.9042 25.5034 14.9931C25.5546 15.0819 25.6393 15.1466 25.7388 15.1729L25.8408 14.7985ZM25.855 14.8022L26.2429 14.8252C26.255 14.6412 26.1355 14.4751 25.957 14.4279L25.855 14.8022ZM25.9687 14.9965L25.7545 15.3211C25.7593 15.3243 25.7643 15.3273 25.7693 15.3303L25.9687 14.9965ZM29.0012 20.1572L29.3899 20.1484L29.3899 20.1466L29.0012 20.1572ZM29.3969 20.2619L29.0663 20.0603L29.0649 20.0625L29.3969 20.2619ZM34.6656 17.6784C34.8561 17.6672 35.0774 17.575 35.1898 17.3513L34.495 17.0081C34.5159 16.9664 34.5471 16.9381 34.5751 16.9222C34.6015 16.9072 34.6207 16.9053 34.6249 16.9051L34.6656 17.6784ZM34.7404 17.5541L34.7545 17.5578L34.9585 16.809L34.9444 16.8053L34.7404 17.5541ZM35.2317 17.2827C35.2336 17.2756 35.2345 17.2723 35.2354 17.2687C35.2364 17.2651 35.2373 17.2619 35.2392 17.2548L34.489 17.0564C34.487 17.0634 34.4862 17.0667 34.4852 17.0703C34.4842 17.0739 34.4833 17.0771 34.4814 17.0842L35.2317 17.2827ZM35.2392 17.2548C35.2412 17.2477 35.2421 17.2445 35.243 17.2409C35.244 17.2373 35.2449 17.2341 35.2468 17.227L34.4966 17.0285C34.4946 17.0356 34.4937 17.0388 34.4928 17.0424C34.4918 17.046 34.4909 17.0493 34.489 17.0564L35.2392 17.2548ZM34.9737 16.7534L34.9596 16.7496L34.7555 17.4984L34.7697 17.5021L34.9737 16.7534ZM35.2455 17.1469C35.2619 16.8978 35.1172 16.7088 34.958 16.6051L34.5297 17.2543C34.5262 17.2521 34.5106 17.241 34.4953 17.2149C34.4792 17.1874 34.4666 17.1475 34.4696 17.1011L35.2455 17.1469ZM34.9433 16.596C33.217 15.5794 32.1416 13.7409 32.1 11.7585L31.3226 11.7796C31.3698 14.0299 32.5892 16.1121 34.5444 17.2635L34.9433 16.596ZM32.1 11.7603C32.0954 11.4783 31.9045 11.2546 31.6572 11.1892L31.4532 11.9379C31.3755 11.9174 31.3238 11.8499 31.3226 11.7778L32.1 11.7603ZM31.6572 11.1892C31.4099 11.1238 31.1309 11.2232 30.9836 11.465L31.6476 11.8638C31.61 11.9256 31.5309 11.9585 31.4532 11.9379L31.6572 11.1892ZM30.9846 11.4634C29.9408 13.1587 28.0753 14.2193 26.0644 14.2472L26.0702 15.0218C28.3478 14.9901 30.4618 13.7897 31.6467 11.8654L30.9846 11.4634ZM26.047 14.2479C25.8565 14.259 25.6351 14.3513 25.5227 14.575L26.2176 14.9181C26.1966 14.9599 26.1654 14.9881 26.1374 15.004C26.111 15.019 26.0918 15.0209 26.0877 15.0212L26.047 14.2479ZM25.9722 14.3722L25.958 14.3684L25.754 15.1172L25.7681 15.1209L25.9722 14.3722ZM25.4809 14.6436C25.479 14.6505 25.478 14.654 25.4771 14.6575C25.4761 14.661 25.4752 14.6645 25.4733 14.6714L26.2236 14.8699C26.2255 14.8629 26.2264 14.8595 26.2274 14.856C26.2283 14.8525 26.2293 14.849 26.2311 14.842L25.4809 14.6436ZM25.4733 14.6714C25.4714 14.6784 25.4704 14.6819 25.4695 14.6853C25.4685 14.6888 25.4676 14.6923 25.4657 14.6993L26.216 14.8977C26.2179 14.8908 26.2188 14.8873 26.2198 14.8838C26.2207 14.8803 26.2217 14.8769 26.2236 14.8699L25.4733 14.6714ZM25.7388 15.1729L25.7529 15.1766L25.957 14.4279L25.9429 14.4241L25.7388 15.1729ZM25.467 14.7793C25.4506 15.0284 25.5953 15.2174 25.7545 15.3211L26.1828 14.6719C26.1863 14.6742 26.202 14.6853 26.2172 14.7113C26.2333 14.7389 26.246 14.7787 26.2429 14.8252L25.467 14.7793ZM25.7693 15.3303C27.4955 16.3468 28.5709 18.1854 28.6125 20.1678L29.3899 20.1466C29.3427 17.8963 28.1233 15.8141 26.1681 14.6628L25.7693 15.3303ZM28.6125 20.166C28.6171 20.4479 28.808 20.6717 29.0553 20.7371L29.2594 19.9883C29.337 20.0088 29.3888 20.0763 29.3899 20.1484L28.6125 20.166ZM29.0553 20.7371C29.3026 20.8025 29.5816 20.7031 29.7289 20.4613L29.0649 20.0625C29.1026 20.0006 29.1817 19.9677 29.2594 19.9883L29.0553 20.7371ZM29.7275 20.4635C30.7672 18.7821 32.6334 17.72 34.6506 17.679L34.6398 16.9045C32.3609 16.9509 30.2477 18.1498 29.0663 20.0603L29.7275 20.4635Z" fill="white"/>
</svg>
