<svg width="44" height="33" viewBox="0 0 44 33" fill="none" xmlns="http://www.w3.org/2000/svg">
<path fill-rule="evenodd" clip-rule="evenodd" d="M30.9366 8.98817C30.9096 9.12313 30.8016 9.2311 30.6396 9.28509C26.8336 10.3918 23.8373 13.3881 22.7306 17.1671C22.6766 17.3561 22.5147 17.464 22.3527 17.464C22.1907 17.464 22.0288 17.3561 21.9748 17.1671C20.8681 13.3611 17.8718 10.3648 14.0658 9.28509C13.9038 9.2311 13.7958 9.12313 13.7688 8.98817H13.7418V8.93418V8.88019H13.7688C13.7958 8.74522 13.9038 8.63726 14.0658 8.58327C17.8718 7.50354 20.8681 4.50728 21.9748 0.701233C22.0288 0.51228 22.1907 0.404297 22.3527 0.404297C22.5147 0.404297 22.6766 0.51228 22.7306 0.701233C23.8373 4.50728 26.8336 7.50354 30.6396 8.58327C30.8016 8.63726 30.9096 8.74522 30.9366 8.88019H30.9636V8.93418V8.98817H30.9366ZM1.51389 9.04161H1.35193C1.02801 9.04161 0.812062 9.39254 0.974021 9.66247L7.4794 20.9186L13.9848 32.1748C14.1467 32.4448 14.5516 32.4448 14.7136 32.1748L19.4644 23.9149C19.8963 23.1591 19.9233 22.2143 19.4914 21.4585C15.9013 14.8722 9.28795 10.1213 1.51389 9.04161ZM43.3524 9.04161H43.1904C35.4164 10.0943 28.803 14.8452 25.1859 21.4855C24.754 22.2413 24.781 23.1861 25.2129 23.9419L29.9907 32.2018C30.1527 32.4718 30.5576 32.4718 30.7196 32.2018L37.2249 20.9457L43.7303 9.68946C43.8923 9.39253 43.6763 9.04161 43.3524 9.04161Z" fill="white"/>
</svg>
