<svg width="58" height="55" viewBox="0 0 58 55" fill="none" xmlns="http://www.w3.org/2000/svg">
<g clip-path="url(#clip0_6344_86024)">
<mask id="path-1-outside-1_6344_86024" maskUnits="userSpaceOnUse" x="0.389648" y="0.71875" width="57" height="54" fill="black">
<rect fill="white" x="0.389648" y="0.71875" width="57" height="54"/>
<path fill-rule="evenodd" clip-rule="evenodd" d="M28.8348 2.71875C28.4215 2.71875 28.0407 2.99822 27.9184 3.43393C26.6912 7.74923 23.3711 11.1401 19.1638 12.3609L19.1528 12.3641L19.1419 12.3678C18.8883 12.4542 18.6515 12.6321 18.5321 12.8997C18.4676 12.9864 18.4295 13.094 18.4295 13.2105V13.3033C18.4295 13.4197 18.4676 13.5273 18.5321 13.614C18.6515 13.8816 18.8883 14.0595 19.1419 14.1459L19.1528 14.1497L19.1638 14.1529C23.3711 15.3736 26.6912 18.7645 27.9184 23.0798C28.0407 23.5155 28.4215 23.795 28.8348 23.795C29.248 23.795 29.6287 23.5157 29.7511 23.0803C30.978 18.7972 34.2984 15.4042 38.509 14.1519L38.5184 14.1491L38.5278 14.1459C38.7813 14.0595 39.0181 13.8816 39.1376 13.614C39.202 13.5273 39.2401 13.4197 39.2401 13.3033V13.2105C39.2401 13.094 39.202 12.9864 39.1376 12.8997C39.0181 12.6321 38.7813 12.4542 38.5278 12.3678L38.5169 12.3641L38.5058 12.3609C34.2985 11.1401 30.9784 7.74923 29.7512 3.43393C29.629 2.99822 29.2482 2.71875 28.8348 2.71875ZM53.9088 12.8809C54.6384 12.8809 55.1702 13.6887 54.7772 14.3654L52.251 18.8363C52.7143 18.7462 53.1815 18.6676 53.6524 18.6007L53.6873 18.5957H53.9088C54.6384 18.5957 55.1702 19.4036 54.7772 20.0803L52.235 24.5794C52.8262 24.4556 53.424 24.3505 54.0278 24.2647L54.0627 24.2598H54.2842C55.0139 24.2598 55.5456 25.0676 55.1527 25.7443L40.1888 52.2266L40.1847 52.2337C39.8047 52.8814 38.8635 52.8814 38.4836 52.2337L33.0144 42.5081L33.0138 42.5069C32.4383 41.4769 32.3949 40.1809 32.9802 39.1293C33.1319 38.8448 33.2882 38.5631 33.449 38.2844L32.639 36.844L32.6383 36.8428C32.0629 35.8128 32.0194 34.5168 32.6047 33.4652C32.8205 33.0605 33.0456 32.6615 33.2798 32.2687L32.639 31.1292L32.6383 31.128C32.0629 30.098 32.0194 28.8019 32.6047 27.7504C36.8072 19.8679 44.5479 14.1792 53.6524 12.8858L53.6873 12.8809H53.9088ZM3.39135 24.2598C2.66172 24.2598 2.12997 25.0676 2.52291 25.7443L17.4868 52.2266L17.4909 52.2337C17.8708 52.8814 18.8121 52.8814 19.192 52.2337L24.6611 42.5081L24.6618 42.5069C25.2373 41.4769 25.2807 40.1809 24.6954 39.1293C24.5436 38.8446 24.3873 38.5628 24.2264 38.284L25.0361 36.844L25.0368 36.8428C25.6122 35.8128 25.6557 34.5168 25.0704 33.4652C24.8546 33.0605 24.6295 32.6615 24.3953 32.2687L25.0361 31.1292L25.0368 31.128C25.6122 30.098 25.6557 28.8019 25.0704 27.7504C20.8679 19.8679 13.1272 14.1792 4.02273 12.8858L3.98784 12.8809H3.76632C3.03669 12.8809 2.50494 13.6887 2.89787 14.3654L5.42414 18.8363C4.96085 18.7462 4.49361 18.6676 4.02273 18.6007L3.98784 18.5957H3.76632C3.03669 18.5957 2.50494 19.4036 2.89787 20.0803L5.44005 24.5793C4.84904 24.4555 4.25139 24.3505 3.64776 24.2647L3.61288 24.2598H3.39135Z"/>
</mask>
<path fill-rule="evenodd" clip-rule="evenodd" d="M28.8348 2.71875C28.4215 2.71875 28.0407 2.99822 27.9184 3.43393C26.6912 7.74923 23.3711 11.1401 19.1638 12.3609L19.1528 12.3641L19.1419 12.3678C18.8883 12.4542 18.6515 12.6321 18.5321 12.8997C18.4676 12.9864 18.4295 13.094 18.4295 13.2105V13.3033C18.4295 13.4197 18.4676 13.5273 18.5321 13.614C18.6515 13.8816 18.8883 14.0595 19.1419 14.1459L19.1528 14.1497L19.1638 14.1529C23.3711 15.3736 26.6912 18.7645 27.9184 23.0798C28.0407 23.5155 28.4215 23.795 28.8348 23.795C29.248 23.795 29.6287 23.5157 29.7511 23.0803C30.978 18.7972 34.2984 15.4042 38.509 14.1519L38.5184 14.1491L38.5278 14.1459C38.7813 14.0595 39.0181 13.8816 39.1376 13.614C39.202 13.5273 39.2401 13.4197 39.2401 13.3033V13.2105C39.2401 13.094 39.202 12.9864 39.1376 12.8997C39.0181 12.6321 38.7813 12.4542 38.5278 12.3678L38.5169 12.3641L38.5058 12.3609C34.2985 11.1401 30.9784 7.74923 29.7512 3.43393C29.629 2.99822 29.2482 2.71875 28.8348 2.71875ZM53.9088 12.8809C54.6384 12.8809 55.1702 13.6887 54.7772 14.3654L52.251 18.8363C52.7143 18.7462 53.1815 18.6676 53.6524 18.6007L53.6873 18.5957H53.9088C54.6384 18.5957 55.1702 19.4036 54.7772 20.0803L52.235 24.5794C52.8262 24.4556 53.424 24.3505 54.0278 24.2647L54.0627 24.2598H54.2842C55.0139 24.2598 55.5456 25.0676 55.1527 25.7443L40.1888 52.2266L40.1847 52.2337C39.8047 52.8814 38.8635 52.8814 38.4836 52.2337L33.0144 42.5081L33.0138 42.5069C32.4383 41.4769 32.3949 40.1809 32.9802 39.1293C33.1319 38.8448 33.2882 38.5631 33.449 38.2844L32.639 36.844L32.6383 36.8428C32.0629 35.8128 32.0194 34.5168 32.6047 33.4652C32.8205 33.0605 33.0456 32.6615 33.2798 32.2687L32.639 31.1292L32.6383 31.128C32.0629 30.098 32.0194 28.8019 32.6047 27.7504C36.8072 19.8679 44.5479 14.1792 53.6524 12.8858L53.6873 12.8809H53.9088ZM3.39135 24.2598C2.66172 24.2598 2.12997 25.0676 2.52291 25.7443L17.4868 52.2266L17.4909 52.2337C17.8708 52.8814 18.8121 52.8814 19.192 52.2337L24.6611 42.5081L24.6618 42.5069C25.2373 41.4769 25.2807 40.1809 24.6954 39.1293C24.5436 38.8446 24.3873 38.5628 24.2264 38.284L25.0361 36.844L25.0368 36.8428C25.6122 35.8128 25.6557 34.5168 25.0704 33.4652C24.8546 33.0605 24.6295 32.6615 24.3953 32.2687L25.0361 31.1292L25.0368 31.128C25.6122 30.098 25.6557 28.8019 25.0704 27.7504C20.8679 19.8679 13.1272 14.1792 4.02273 12.8858L3.98784 12.8809H3.76632C3.03669 12.8809 2.50494 13.6887 2.89787 14.3654L5.42414 18.8363C4.96085 18.7462 4.49361 18.6676 4.02273 18.6007L3.98784 18.5957H3.76632C3.03669 18.5957 2.50494 19.4036 2.89787 20.0803L5.44005 24.5793C4.84904 24.4555 4.25139 24.3505 3.64776 24.2647L3.61288 24.2598H3.39135Z" fill="white"/>
<path d="M27.9184 3.43393L29.4713 3.87554L29.4728 3.87013L27.9184 3.43393ZM19.1638 12.3609L18.714 10.8104L18.7138 10.8104L19.1638 12.3609ZM19.1528 12.3641L18.7028 10.8136L18.6671 10.824L18.632 10.836L19.1528 12.3641ZM19.1419 12.3678L18.621 10.8397L18.6209 10.8397L19.1419 12.3678ZM18.5321 12.8997L19.828 13.8625L19.9339 13.7199L20.0063 13.5577L18.5321 12.8997ZM18.5321 13.614L20.0063 12.956L19.9339 12.7938L19.828 12.6512L18.5321 13.614ZM19.1419 14.1459L18.6209 15.674L18.621 15.674L19.1419 14.1459ZM19.1528 14.1497L18.632 15.6778L18.6671 15.6897L18.7028 15.7001L19.1528 14.1497ZM19.1638 14.1529L18.7138 15.7033L18.714 15.7033L19.1638 14.1529ZM27.9184 23.0798L29.4728 22.6436L29.4712 22.6382L27.9184 23.0798ZM29.7511 23.0803L28.1991 22.6357L28.1969 22.6433L29.7511 23.0803ZM38.509 14.1519L38.0489 12.6045L38.0488 12.6045L38.509 14.1519ZM38.5184 14.1491L38.9786 15.6966L39.0093 15.6874L39.0396 15.6771L38.5184 14.1491ZM38.5278 14.1459L38.0068 12.6179L38.0066 12.618L38.5278 14.1459ZM39.1376 13.614L37.8417 12.6512L37.7357 12.7938L37.6633 12.956L39.1376 13.614ZM39.1376 12.8997L37.6633 13.5577L37.7357 13.7199L37.8417 13.8626L39.1376 12.8997ZM38.5278 12.3678L38.0068 13.8958L38.0068 13.8958L38.5278 12.3678ZM38.5169 12.3641L39.0378 10.836L39.0026 10.824L38.9669 10.8136L38.5169 12.3641ZM38.5058 12.3609L38.9558 10.8104L38.9557 10.8104L38.5058 12.3609ZM29.7512 3.43393L28.1969 3.87013L28.1984 3.87554L29.7512 3.43393ZM54.7772 14.3654L53.3811 13.5548L53.3763 13.563L53.3717 13.5712L54.7772 14.3654ZM52.251 18.8363L50.8454 18.0421L49.1237 21.0892L52.5592 20.421L52.251 18.8363ZM53.6524 18.6007L53.8794 20.199L53.8794 20.199L53.6524 18.6007ZM53.6873 18.5957V16.9813H53.5732L53.4602 16.9973L53.6873 18.5957ZM54.7772 20.0803L53.3811 19.2696L53.3763 19.2778L53.3717 19.2861L54.7772 20.0803ZM52.235 24.5794L50.8294 23.7852L49.0747 26.8906L52.5659 26.1596L52.235 24.5794ZM54.0278 24.2647L54.2549 25.8631L54.2549 25.8631L54.0278 24.2647ZM54.0627 24.2598V22.6453H53.9486L53.8356 22.6614L54.0627 24.2598ZM55.1527 25.7443L53.7566 24.9337L53.7518 24.9419L53.7471 24.9501L55.1527 25.7443ZM40.1888 52.2266L41.5816 53.0431L41.5881 53.032L41.5944 53.0209L40.1888 52.2266ZM40.1847 52.2337L41.5772 53.0506L41.5775 53.0501L40.1847 52.2337ZM38.4836 52.2337L37.0764 53.025L37.0836 53.0379L37.0911 53.0506L38.4836 52.2337ZM33.0144 42.5081L31.6055 43.2962L31.6073 43.2994L33.0144 42.5081ZM33.0138 42.5069L31.6044 43.2943L31.6048 43.295L33.0138 42.5069ZM32.9802 39.1293L34.3908 39.9144L34.3979 39.9017L34.4048 39.8888L32.9802 39.1293ZM33.449 38.2844L34.8473 39.0912L35.3069 38.2947L34.8562 37.4931L33.449 38.2844ZM32.639 36.844L31.23 37.6322L31.2318 37.6354L32.639 36.844ZM32.6383 36.8428L31.2289 37.6302L31.2293 37.631L32.6383 36.8428ZM32.6047 33.4652L34.0154 34.2504L34.0224 34.2376L34.0293 34.2248L32.6047 33.4652ZM33.2798 32.2687L34.6666 33.0952L35.1451 32.2922L34.6869 31.4774L33.2798 32.2687ZM32.639 31.1292L31.2305 31.9183L31.2318 31.9205L32.639 31.1292ZM32.6383 31.128L31.2289 31.9154L31.2299 31.9171L32.6383 31.128ZM32.6047 27.7504L34.0154 28.5355L34.0224 28.5228L34.0293 28.5099L32.6047 27.7504ZM53.6524 12.8858L53.8794 14.4842L53.8794 14.4842L53.6524 12.8858ZM53.6873 12.8809V11.2664H53.5732L53.4602 11.2825L53.6873 12.8809ZM2.52291 25.7443L3.92846 24.9501L3.92379 24.9419L3.91902 24.9337L2.52291 25.7443ZM17.4868 52.2266L16.0812 53.0209L16.0876 53.0322L16.0943 53.0435L17.4868 52.2266ZM17.4909 52.2337L18.8834 51.4168L18.8834 51.4168L17.4909 52.2337ZM19.192 52.2337L20.5845 53.0506L20.592 53.0379L20.5992 53.025L19.192 52.2337ZM24.6611 42.5081L26.0683 43.2994L26.0701 43.2962L24.6611 42.5081ZM24.6618 42.5069L26.0708 43.295L26.0712 43.2943L24.6618 42.5069ZM24.6954 39.1293L23.2708 39.8888L23.2777 39.9017L23.2848 39.9144L24.6954 39.1293ZM24.2264 38.284L22.8192 37.4927L22.3684 38.2943L22.828 39.0908L24.2264 38.284ZM25.0361 36.844L26.4433 37.6354L26.4451 37.6322L25.0361 36.844ZM25.0368 36.8428L26.4458 37.631L26.4462 37.6302L25.0368 36.8428ZM25.0704 33.4652L23.6458 34.2248L23.6527 34.2376L23.6598 34.2504L25.0704 33.4652ZM24.3953 32.2687L22.9882 31.4774L22.53 32.2922L23.0085 33.0952L24.3953 32.2687ZM25.0361 31.1292L26.4433 31.9205L26.4446 31.9183L25.0361 31.1292ZM25.0368 31.128L26.4452 31.9171L26.4462 31.9154L25.0368 31.128ZM25.0704 27.7504L23.6458 28.5099L23.6527 28.5228L23.6598 28.5355L25.0704 27.7504ZM4.02273 12.8858L4.24979 11.2874L4.24978 11.2874L4.02273 12.8858ZM3.98784 12.8809L4.2149 11.2825L4.10194 11.2664H3.98784V12.8809ZM2.89787 14.3654L4.30343 13.5712L4.29876 13.563L4.29399 13.5548L2.89787 14.3654ZM5.42414 18.8363L5.11594 20.421L8.55146 21.0892L6.8297 18.0421L5.42414 18.8363ZM4.02273 18.6007L4.24979 17.0023L4.24978 17.0023L4.02273 18.6007ZM3.98784 18.5957L4.2149 16.9973L4.10194 16.9813H3.98784V18.5957ZM2.89787 20.0803L4.30343 19.2861L4.29876 19.2778L4.29399 19.2696L2.89787 20.0803ZM5.44005 24.5793L5.10918 26.1594L8.60028 26.8904L6.8456 23.7851L5.44005 24.5793ZM3.64776 24.2647L3.87482 22.6664L3.87481 22.6664L3.64776 24.2647ZM3.61288 24.2598L3.83993 22.6614L3.72697 22.6453H3.61288V24.2598ZM29.4728 3.87013C29.4036 4.11666 29.16 4.33317 28.8348 4.33317V1.10433C27.6829 1.10433 26.6778 1.87978 26.364 2.99773L29.4728 3.87013ZM19.6137 13.9113C24.3722 12.5306 28.0969 8.70836 29.4712 3.87554L26.3656 2.99233C25.2855 6.7901 22.37 9.74958 18.714 10.8104L19.6137 13.9113ZM19.6028 13.9145L19.6138 13.9113L18.7138 10.8104L18.7028 10.8136L19.6028 13.9145ZM19.6627 13.8959L19.6736 13.8922L18.632 10.836L18.621 10.8397L19.6627 13.8959ZM20.0063 13.5577C19.9045 13.7859 19.7362 13.8708 19.6628 13.8958L18.6209 10.8397C18.0404 11.0376 17.3985 11.4783 17.0578 12.2418L20.0063 13.5577ZM20.0439 13.2105C20.0439 13.452 19.9636 13.6799 19.828 13.8625L17.2361 11.937C16.9716 12.293 16.8151 12.7361 16.8151 13.2105H20.0439ZM20.0439 13.3033V13.2105H16.8151V13.3033H20.0439ZM19.828 12.6512C19.9636 12.8338 20.0439 13.0618 20.0439 13.3033H16.8151C16.8151 13.7777 16.9716 14.2208 17.2362 14.5768L19.828 12.6512ZM19.6628 12.6179C19.7362 12.6429 19.9045 12.7279 20.0063 12.956L17.0578 14.2719C17.3985 15.0354 18.0404 15.4761 18.6209 15.674L19.6628 12.6179ZM19.6736 12.6216L19.6627 12.6178L18.621 15.674L18.632 15.6778L19.6736 12.6216ZM19.6138 12.6024L19.6028 12.5992L18.7028 15.7001L18.7138 15.7033L19.6138 12.6024ZM29.4712 22.6382C28.0969 17.8054 24.3722 13.9831 19.6137 12.6024L18.714 15.7033C22.37 16.7642 25.2855 19.7236 26.3656 23.5214L29.4712 22.6382ZM28.8348 22.1805C29.1599 22.1805 29.4036 22.397 29.4728 22.6436L26.364 23.516C26.6778 24.6341 27.6831 25.4094 28.8348 25.4094V22.1805ZM28.1969 22.6433C28.2662 22.3968 28.5099 22.1805 28.8348 22.1805V25.4094C29.9862 25.4094 30.9911 24.6347 31.3053 23.5172L28.1969 22.6433ZM38.0488 12.6045C33.2983 14.0173 29.5745 17.8343 28.1991 22.6357L31.3031 23.5248C32.3816 19.76 35.2984 16.7911 38.9692 15.6994L38.0488 12.6045ZM38.0583 12.6017L38.0489 12.6045L38.9691 15.6994L38.9786 15.6966L38.0583 12.6017ZM38.0066 12.618L37.9972 12.6211L39.0396 15.6771L39.049 15.6739L38.0066 12.618ZM37.6633 12.956C37.7652 12.7278 37.9335 12.6429 38.0068 12.6179L39.0487 15.674C39.6291 15.4761 40.2711 15.0355 40.6118 14.272L37.6633 12.956ZM37.6257 13.3033C37.6257 13.0618 37.706 12.8338 37.8417 12.6512L40.4335 14.5768C40.698 14.2208 40.8545 13.7777 40.8545 13.3033H37.6257ZM37.6257 13.2105V13.3033H40.8545V13.2105H37.6257ZM37.8417 13.8626C37.706 13.6799 37.6257 13.4519 37.6257 13.2105H40.8545C40.8545 12.7361 40.698 12.293 40.4335 11.9369L37.8417 13.8626ZM38.0068 13.8958C37.9335 13.8708 37.7652 13.7859 37.6633 13.5577L40.6118 12.2418C40.2711 11.4783 39.6291 11.0376 39.0487 10.8397L38.0068 13.8958ZM37.9959 13.8921L38.0068 13.8958L39.0487 10.8398L39.0378 10.836L37.9959 13.8921ZM38.0558 13.9113L38.0669 13.9145L38.9669 10.8136L38.9558 10.8104L38.0558 13.9113ZM28.1984 3.87554C29.5728 8.70836 33.2974 12.5306 38.0559 13.9113L38.9557 10.8104C35.2997 9.74958 32.3841 6.7901 31.3041 2.99233L28.1984 3.87554ZM28.8348 4.33317C28.5096 4.33317 28.2661 4.11666 28.1969 3.87013L31.3056 2.99773C30.9919 1.87978 29.9867 1.10433 28.8348 1.10433V4.33317ZM56.1733 15.1761C57.247 13.327 55.7702 11.2664 53.9088 11.2664V14.4953C53.6585 14.4953 53.4759 14.3578 53.3862 14.2109C53.2843 14.044 53.2505 13.7796 53.3811 13.5548L56.1733 15.1761ZM53.6565 19.6305L56.1828 15.1596L53.3717 13.5712L50.8454 18.0421L53.6565 19.6305ZM53.4253 17.0023C52.9272 17.073 52.4329 17.1563 51.9428 17.2516L52.5592 20.421C52.9956 20.3361 53.4358 20.2621 53.8794 20.199L53.4253 17.0023ZM53.4602 16.9973L53.4253 17.0023L53.8794 20.199L53.9143 20.1941L53.4602 16.9973ZM53.9088 16.9813H53.6873V20.2101H53.9088V16.9813ZM56.1733 20.891C57.247 19.0419 55.7702 16.9813 53.9088 16.9813V20.2101C53.6585 20.2101 53.4759 20.0726 53.3862 19.9257C53.2843 19.7589 53.2505 19.4945 53.3811 19.2696L56.1733 20.891ZM53.6405 25.3736L56.1828 20.8745L53.3717 19.2861L50.8294 23.7852L53.6405 25.3736ZM53.8008 22.6664C53.162 22.7571 52.5296 22.8683 51.9041 22.9993L52.5659 26.1596C53.1228 26.0429 53.686 25.9439 54.2549 25.8631L53.8008 22.6664ZM53.8356 22.6614L53.8008 22.6664L54.2549 25.8631L54.2898 25.8581L53.8356 22.6614ZM54.2842 22.6453H54.0627V25.8742H54.2842V22.6453ZM56.5488 26.555C57.6225 24.7059 56.1456 22.6453 54.2842 22.6453V25.8742C54.034 25.8742 53.8514 25.7367 53.7617 25.5898C53.6598 25.423 53.626 25.1585 53.7566 24.9337L56.5488 26.555ZM41.5944 53.0209L56.5582 26.5385L53.7471 24.9501L38.7833 51.4324L41.5944 53.0209ZM41.5775 53.0501L41.5816 53.0431L38.7961 51.4102L38.792 51.4172L41.5775 53.0501ZM37.0911 53.0506C38.0949 54.7618 40.5735 54.7615 41.5772 53.0506L38.7922 51.4168C39.036 51.0013 39.6321 51.0011 39.8761 51.4168L37.0911 53.0506ZM31.6073 43.2994L37.0764 53.025L39.8907 51.4424L34.4216 41.7168L31.6073 43.2994ZM31.6048 43.295L31.6055 43.2962L34.4234 41.72L34.4227 41.7187L31.6048 43.295ZM31.5695 38.3442C30.6936 39.918 30.7751 41.81 31.6044 43.2943L34.4231 41.7195C34.1015 41.1438 34.0962 40.4437 34.3908 39.9144L31.5695 38.3442ZM32.0506 37.4776C31.8808 37.7719 31.7158 38.0693 31.5556 38.3698L34.4048 39.8888C34.548 39.6202 34.6955 39.3543 34.8473 39.0912L32.0506 37.4776ZM31.2318 37.6354L32.0418 39.0757L34.8562 37.4931L34.0462 36.0527L31.2318 37.6354ZM31.2293 37.631L31.23 37.6322L34.048 36.0559L34.0473 36.0547L31.2293 37.631ZM31.1941 32.6801C30.3181 34.2539 30.3997 36.1459 31.2289 37.6302L34.0477 36.0554C33.7261 35.4798 33.7208 34.7797 34.0154 34.2504L31.1941 32.6801ZM31.893 31.4422C31.6457 31.857 31.408 32.2783 31.1801 32.7057L34.0293 34.2248C34.233 33.8427 34.4455 33.4661 34.6666 33.0952L31.893 31.4422ZM31.2318 31.9205L31.8726 33.06L34.6869 31.4774L34.0462 30.3379L31.2318 31.9205ZM31.2299 31.9171L31.2305 31.9183L34.0474 30.3401L34.0467 30.3389L31.2299 31.9171ZM31.1941 26.9652C30.3181 28.5391 30.3997 30.4311 31.2289 31.9154L34.0477 30.3406C33.7261 29.7649 33.7208 29.0648 34.0154 28.5355L31.1941 26.9652ZM53.4253 11.2874C43.7894 12.6563 35.6147 18.673 31.1801 26.9909L34.0293 28.5099C37.9996 21.0629 45.3064 15.702 53.8794 14.4842L53.4253 11.2874ZM53.4602 11.2825L53.4253 11.2874L53.8794 14.4842L53.9143 14.4792L53.4602 11.2825ZM53.9088 11.2664H53.6873V14.4953H53.9088V11.2664ZM3.91902 24.9337C4.0496 25.1585 4.01582 25.423 3.91392 25.5898C3.82419 25.7367 3.64163 25.8742 3.39135 25.8742V22.6453C1.52997 22.6453 0.0530906 24.7059 1.12679 26.555L3.91902 24.9337ZM18.8923 51.4324L3.92846 24.9501L1.11735 26.5385L16.0812 53.0209L18.8923 51.4324ZM18.8834 51.4168L18.8792 51.4098L16.0943 53.0435L16.0984 53.0506L18.8834 51.4168ZM17.7995 51.4169C18.0434 51.001 18.6396 51.0013 18.8834 51.4168L16.0984 53.0506C17.1021 54.7615 19.5807 54.7618 20.5845 53.0506L17.7995 51.4169ZM23.254 41.7168L17.7848 51.4424L20.5992 53.025L26.0683 43.2994L23.254 41.7168ZM23.2529 41.7187L23.2522 41.72L26.0701 43.2962L26.0708 43.295L23.2529 41.7187ZM23.2848 39.9144C23.5794 40.4437 23.5741 41.1438 23.2525 41.7195L26.0712 43.2943C26.9005 41.81 26.982 39.918 26.106 38.3442L23.2848 39.9144ZM22.828 39.0908C22.9799 39.3541 23.1276 39.6201 23.2708 39.8888L26.12 38.3698C25.9597 38.0692 25.7946 37.7716 25.6247 37.4771L22.828 39.0908ZM23.6289 36.0527L22.8192 37.4927L25.6336 39.0753L26.4433 37.6354L23.6289 36.0527ZM23.6278 36.0547L23.6272 36.0559L26.4451 37.6322L26.4458 37.631L23.6278 36.0547ZM23.6598 34.2504C23.9544 34.7797 23.949 35.4798 23.6274 36.0554L26.4462 37.6302C27.2754 36.1459 27.357 34.2539 26.481 32.6801L23.6598 34.2504ZM23.0085 33.0952C23.2296 33.4661 23.4421 33.8427 23.6458 34.2248L26.495 32.7057C26.2671 32.2783 26.0294 31.857 25.7821 31.4422L23.0085 33.0952ZM23.6289 30.3379L22.9882 31.4774L25.8025 33.06L26.4433 31.9205L23.6289 30.3379ZM23.6284 30.3389L23.6277 30.3401L26.4446 31.9183L26.4452 31.9171L23.6284 30.3389ZM23.6598 28.5355C23.9544 29.0648 23.949 29.7649 23.6274 30.3406L26.4462 31.9154C27.2754 30.4311 27.357 28.5391 26.481 26.9652L23.6598 28.5355ZM3.79567 14.4842C12.3687 15.702 19.6755 21.0629 23.6458 28.5099L26.495 26.9909C22.0604 18.673 13.8857 12.6563 4.24979 11.2874L3.79567 14.4842ZM3.76079 14.4792L3.79568 14.4842L4.24978 11.2874L4.2149 11.2825L3.76079 14.4792ZM3.76632 14.4953H3.98784V11.2664H3.76632V14.4953ZM4.29399 13.5548C4.42457 13.7796 4.39079 14.0441 4.28888 14.2109C4.19916 14.3578 4.0166 14.4953 3.76632 14.4953V11.2664C1.90494 11.2664 0.428056 13.327 1.50176 15.1761L4.29399 13.5548ZM6.8297 18.0421L4.30343 13.5712L1.49232 15.1596L4.01859 19.6305L6.8297 18.0421ZM3.79567 20.199C4.23932 20.2621 4.6795 20.3361 5.11594 20.421L5.73235 17.2516C5.24221 17.1563 4.74791 17.0731 4.24979 17.0023L3.79567 20.199ZM3.76079 20.1941L3.79568 20.199L4.24978 17.0023L4.2149 16.9973L3.76079 20.1941ZM3.76632 20.2101H3.98784V16.9813H3.76632V20.2101ZM4.29399 19.2696C4.42456 19.4945 4.39079 19.7589 4.28888 19.9257C4.19916 20.0726 4.0166 20.2101 3.76632 20.2101V16.9813C1.90494 16.9813 0.428058 19.0419 1.50176 20.891L4.29399 19.2696ZM6.8456 23.7851L4.30343 19.2861L1.49232 20.8745L4.0345 25.3735L6.8456 23.7851ZM3.4207 25.8631C3.98942 25.9439 4.55245 26.0429 5.10918 26.1594L5.77091 22.9991C5.14562 22.8682 4.51337 22.7571 3.87482 22.6664L3.4207 25.8631ZM3.38582 25.8581L3.42071 25.8631L3.87481 22.6664L3.83993 22.6614L3.38582 25.8581ZM3.39135 25.8742H3.61288V22.6453H3.39135V25.8742Z" fill="white" mask="url(#path-1-outside-1_6344_86024)"/>
<path d="M54.093 24.7656H54.2793C54.6519 24.7656 54.9003 25.1785 54.714 25.496L47.2312 38.7387L39.7484 51.9813C39.5621 52.2989 39.0964 52.2989 38.9101 51.9813L33.4455 42.2637C32.9487 41.3745 32.9176 40.263 33.4144 39.3738C37.5439 31.6251 45.1509 26.0359 54.093 24.7656Z" fill="#84BCFF" stroke="black" stroke-width="1.03853"/>
<path d="M53.72 19.1016H53.9063C54.2788 19.1016 54.5272 19.5144 54.3409 19.832L46.8581 33.0746L39.3754 46.3172C39.1891 46.6348 38.7233 46.6348 38.537 46.3172L33.0724 36.5996C32.5756 35.7104 32.5446 34.5989 33.0414 33.7097C37.1709 25.9611 44.7779 20.3718 53.72 19.1016Z" fill="#F8642D" stroke="black" stroke-width="1.03853"/>
<path d="M53.72 13.3867H53.9063C54.2788 13.3867 54.5272 13.7996 54.3409 14.1171L46.8581 27.3598L39.3754 40.6024C39.1891 40.92 38.7233 40.92 38.537 40.6024L33.0724 30.8848C32.5756 29.9956 32.5446 28.8841 33.0414 27.9949C37.1709 20.2462 44.7779 14.657 53.72 13.3867Z" fill="#F8AFDB" stroke="black" stroke-width="1.03853"/>
<path d="M3.57398 24.7656H3.38769C3.0151 24.7656 2.76671 25.1785 2.953 25.496L10.4358 38.7387L17.9186 51.9813C18.1049 52.2989 18.5706 52.2989 18.7569 51.9813L24.2215 42.2637C24.7183 41.3745 24.7494 40.263 24.2526 39.3738C20.1231 31.6251 12.5161 26.0359 3.57398 24.7656Z" fill="#84BCFF" stroke="black" stroke-width="1.03853"/>
<path d="M3.94703 19.1016H3.76073C3.38815 19.1016 3.13975 19.5144 3.32605 19.832L10.8088 33.0746L18.2916 46.3172C18.4779 46.6348 18.9437 46.6348 19.13 46.3172L24.5946 36.5996C25.0914 35.7104 25.1224 34.5989 24.6256 33.7097C20.4961 25.9611 12.8891 20.3718 3.94703 19.1016Z" fill="#F8642D" stroke="black" stroke-width="1.03853"/>
<path d="M3.94703 13.3867H3.76073C3.38815 13.3867 3.13975 13.7996 3.32605 14.1171L10.8088 27.3598L18.2916 40.6024C18.4779 40.92 18.9437 40.92 19.13 40.6024L24.5946 30.8848C25.0914 29.9956 25.1224 28.8841 24.6256 27.9949C20.4961 20.2462 12.8891 14.657 3.94703 13.3867Z" fill="#F8AFDB" stroke="black" stroke-width="1.03853"/>
<path d="M38.3673 13.6707C38.5482 13.609 38.6705 13.4875 38.7059 13.3351C38.7078 13.3272 38.7147 13.3214 38.7229 13.3214V13.3214C38.7323 13.3214 38.7399 13.3137 38.7399 13.3043C38.7399 13.2881 38.7399 13.2826 38.7399 13.2579C38.7399 13.2331 38.7399 13.2276 38.7399 13.2114C38.7399 13.202 38.7323 13.1943 38.7229 13.1943V13.1943C38.7147 13.1943 38.7078 13.1886 38.7059 13.1806C38.6705 13.0282 38.5482 12.9067 38.3673 12.845C33.9894 11.5747 30.543 8.04972 29.27 3.57199C29.2079 3.3497 29.0216 3.22266 28.8353 3.22266C28.649 3.22266 28.4627 3.3497 28.4006 3.57199C27.1276 8.04972 23.6812 11.5747 19.3033 12.845C19.1224 12.9067 19 13.0282 18.9646 13.1806C18.9628 13.1886 18.9558 13.1943 18.9477 13.1943V13.1943C18.9383 13.1943 18.9307 13.202 18.9307 13.2114C18.9307 13.2276 18.9307 13.2331 18.9307 13.2579C18.9307 13.2826 18.9307 13.2881 18.9307 13.3043C18.9307 13.3137 18.9383 13.3214 18.9477 13.3214V13.3214C18.9558 13.3214 18.9628 13.3272 18.9646 13.3351C19 13.4875 19.1224 13.609 19.3033 13.6707C23.6812 14.941 27.1276 18.466 28.4006 22.9437C28.4627 23.166 28.649 23.293 28.8353 23.293C29.0216 23.293 29.2079 23.166 29.27 22.9437C30.543 18.4977 33.9894 14.9727 38.3673 13.6707Z" fill="#E9FF90" stroke="black" stroke-width="1.03853"/>
</g>
<defs>
<clipPath id="clip0_6344_86024">
<rect width="57" height="54" fill="white" transform="translate(0.337891 0.71875)"/>
</clipPath>
</defs>
</svg>
