<svg width="181" height="35" viewBox="0 0 181 35" fill="none" xmlns="http://www.w3.org/2000/svg">
<path fill-rule="evenodd" clip-rule="evenodd" d="M32.9374 9.89332C32.9049 10.031 32.7926 10.1409 32.6265 10.1966C28.6062 11.3738 25.4414 14.561 24.2724 18.5808C24.2153 18.7818 24.0443 18.8966 23.8732 18.8966C23.7021 18.8966 23.531 18.7818 23.474 18.5808C22.305 14.5323 19.1401 11.3451 15.1198 10.1966C14.9538 10.1409 14.8415 10.031 14.8089 9.89332C14.8072 9.88605 14.8008 9.88076 14.7934 9.88076C14.7847 9.88076 14.7777 9.87374 14.7777 9.8651V9.82333V9.78157C14.7777 9.77292 14.7847 9.7659 14.7934 9.7659C14.8008 9.7659 14.8072 9.76061 14.8089 9.75334C14.8415 9.61565 14.9538 9.50581 15.1198 9.45007C19.1401 8.30154 22.305 5.11439 23.474 1.06585C23.531 0.864863 23.7021 0.75 23.8732 0.75C24.0443 0.75 24.2153 0.864863 24.2724 1.06585C25.4414 5.11439 28.6062 8.30154 32.6265 9.45007C32.7926 9.50581 32.9049 9.61565 32.9374 9.75334C32.9391 9.76061 32.9455 9.7659 32.953 9.7659C32.9617 9.7659 32.9687 9.77292 32.9687 9.78157V9.82333V9.8651C32.9687 9.87374 32.9617 9.88076 32.953 9.88076C32.9455 9.88076 32.9391 9.88605 32.9374 9.89332ZM1.22435 9.93619H1.05481C0.715732 9.93619 0.489677 10.3093 0.659216 10.5964L7.46906 22.5655L14.2789 34.5347C14.4484 34.8217 14.8723 34.8217 15.0418 34.5347L20.015 25.7516C20.4671 24.9479 20.4954 23.9433 20.0432 23.1396C16.2851 16.136 9.36225 11.0843 1.22435 9.93619ZM46.5192 9.93634H46.6888C47.0278 9.93634 47.2539 10.3095 47.0844 10.5965L40.2745 22.5657L33.4647 34.5349C33.2951 34.8219 32.8713 34.8219 32.7017 34.5349L27.7286 25.7517C27.2765 24.948 27.2482 23.9434 27.7003 23.1397C31.4585 16.1362 38.3813 11.0845 46.5192 9.93634Z" fill="#AF9EFF"/>
<path d="M62.0583 25.0906C61.9737 25.0906 61.8982 25.0376 61.8694 24.9581L58.2393 14.9448C58.1918 14.8137 58.2889 14.6753 58.4283 14.6753H60.5303C60.6173 14.6753 60.6944 14.7313 60.7214 14.814L62.6957 20.8718C62.755 21.0537 63.0108 21.0578 63.0759 20.8778L65.2697 14.8079C65.2985 14.7283 65.3741 14.6753 65.4588 14.6753H67.0962C67.1807 14.6753 67.2561 14.7281 67.285 14.8074L69.4985 20.8796C69.564 21.0592 69.8196 21.0546 69.8786 20.8727L71.8437 14.8143C71.8706 14.7314 71.9478 14.6753 72.0349 14.6753H74.1471C74.2865 14.6753 74.3836 14.8137 74.3361 14.9448L70.7061 24.9581C70.6772 25.0376 70.6017 25.0906 70.5171 25.0906H68.8897C68.8054 25.0906 68.73 25.0379 68.701 24.9587L66.4656 18.8524C66.4013 18.6766 66.1528 18.6764 66.0882 18.8521L63.8433 24.959C63.8142 25.038 63.7389 25.0906 63.6546 25.0906H62.0583Z" fill="black"/>
<path d="M76.3063 16.0175C77.3424 14.977 78.6253 14.4568 80.1551 14.4568C81.6849 14.4568 82.9713 14.977 84.0143 16.0175C85.0573 17.058 85.5789 18.3482 85.5789 19.8881C85.5789 21.4281 85.0573 22.7148 84.0143 23.7484C82.9713 24.7819 81.6849 25.2987 80.1551 25.2987C78.6253 25.2987 77.3424 24.7819 76.3063 23.7484C75.2702 22.7148 74.7521 21.4281 74.7521 19.8881C74.7521 18.3482 75.2702 17.058 76.3063 16.0175ZM82.3454 17.6407C81.7544 17.0372 81.0243 16.7354 80.1551 16.7354C79.2859 16.7354 78.5592 17.0372 77.9751 17.6407C77.391 18.2442 77.099 18.9933 77.099 19.8881C77.099 20.776 77.391 21.5217 77.9751 22.1252C78.5662 22.7218 79.2928 23.02 80.1551 23.02C81.0243 23.02 81.7544 22.7183 82.3454 22.1148C82.9365 21.5113 83.232 20.7691 83.232 19.8881C83.232 18.9933 82.9365 18.2442 82.3454 17.6407Z" fill="black"/>
<path d="M92.9272 14.4568C94.2345 14.4568 95.2741 14.8799 96.0459 15.7262C96.8178 16.5724 97.2037 17.7135 97.2037 19.1494V24.8896C97.2037 25.0006 97.1137 25.0906 97.0027 25.0906H95.0162C94.9051 25.0906 94.8151 25.0006 94.8151 24.8896V19.524C94.8151 18.6916 94.5891 18.0326 94.1372 17.547C93.6921 17.0615 93.0976 16.8187 92.3536 16.8187C91.8181 16.8187 91.3105 16.9505 90.8307 17.2141C90.3748 17.4682 90.0158 17.8063 89.7539 18.2281C89.7348 18.2589 89.7251 18.2945 89.7251 18.3307V24.8896C89.7251 25.0006 89.6351 25.0906 89.5241 25.0906H87.5585C87.4474 25.0906 87.3574 25.0006 87.3574 24.8896V14.8763C87.3574 14.7653 87.4474 14.6753 87.5585 14.6753H89.5241C89.6351 14.6753 89.7251 14.7653 89.7251 14.8763V15.3933C89.7251 15.5941 90.0128 15.6881 90.1549 15.5462C90.4119 15.2897 90.7171 15.0722 91.0706 14.8938C91.6478 14.6024 92.2667 14.4568 92.9272 14.4568Z" fill="black"/>
<path d="M107.306 10.3709C107.306 10.2599 107.396 10.1699 107.507 10.1699H109.483C109.594 10.1699 109.684 10.2599 109.684 10.3709V24.8896C109.684 25.0006 109.594 25.0906 109.483 25.0906H107.507C107.396 25.0906 107.306 25.0006 107.306 24.8896V24.4226C107.306 24.2179 106.993 24.1162 106.843 24.2555C106.6 24.4806 106.303 24.6792 105.95 24.8513C105.331 25.1496 104.674 25.2987 103.978 25.2987C102.574 25.2987 101.385 24.775 100.411 23.7276C99.4447 22.6801 98.9614 21.3934 98.9614 19.8673C98.9614 18.3551 99.4447 17.0753 100.411 16.0279C101.385 14.9805 102.574 14.4568 103.978 14.4568C104.667 14.4568 105.324 14.6094 105.95 14.9146C106.303 15.0867 106.6 15.2853 106.843 15.5103C106.993 15.6496 107.306 15.548 107.306 15.3433V10.3709ZM104.469 23.0408C105.053 23.0408 105.606 22.8952 106.127 22.6038C106.637 22.3225 107.021 21.9667 107.279 21.5365C107.297 21.5065 107.306 21.4721 107.306 21.4372V18.3481C107.306 18.314 107.297 18.2805 107.28 18.251C107.023 17.8069 106.642 17.4439 106.137 17.162C105.616 16.8638 105.06 16.7146 104.469 16.7146C103.572 16.7146 102.821 17.0164 102.216 17.6199C101.611 18.2164 101.308 18.9656 101.308 19.8673C101.308 20.7691 101.611 21.5252 102.216 22.1356C102.821 22.7391 103.572 23.0408 104.469 23.0408Z" fill="black"/>
<path d="M121.663 19.4199C121.663 19.7482 121.645 20.0371 121.608 20.2869C121.594 20.382 121.51 20.45 121.414 20.45H113.867C113.743 20.45 113.649 20.5603 113.674 20.681C113.828 21.4177 114.152 22.0032 114.644 22.4373C115.193 22.916 115.888 23.1553 116.73 23.1553C117.321 23.1553 117.863 23.0374 118.357 22.8015C118.779 22.5941 119.109 22.3285 119.348 22.0046C119.415 21.9139 119.541 21.8836 119.636 21.9441L121.202 22.9396C121.291 22.9965 121.321 23.1136 121.266 23.2037C120.875 23.8341 120.298 24.3347 119.535 24.7056C118.715 25.101 117.766 25.2987 116.688 25.2987C115.694 25.2987 114.783 25.0629 113.955 24.5912C113.128 24.1125 112.471 23.4536 111.984 22.6142C111.504 21.7749 111.264 20.8454 111.264 19.8257C111.264 18.8338 111.501 17.9285 111.973 17.11C112.453 16.2846 113.103 15.636 113.924 15.1643C114.751 14.6926 115.659 14.4568 116.646 14.4568C117.571 14.4568 118.416 14.6753 119.181 15.1123C119.953 15.5493 120.558 16.1493 120.996 16.9123C121.441 17.6684 121.663 18.5043 121.663 19.4199ZM113.792 18.378C113.749 18.5032 113.846 18.6291 113.978 18.6291H118.939C119.057 18.6291 119.151 18.5267 119.13 18.41C119.031 17.8572 118.763 17.3996 118.326 17.0372C117.832 16.621 117.227 16.4129 116.511 16.4129C115.808 16.4129 115.214 16.6106 114.727 17.006C114.301 17.3462 113.989 17.8036 113.792 18.378Z" fill="black"/>
<path d="M128.469 14.4568C128.879 14.4568 129.23 14.4971 129.523 14.5779C129.61 14.6019 129.665 14.6858 129.659 14.776L129.54 16.5977C129.531 16.73 129.399 16.8177 129.271 16.7831C128.948 16.6958 128.618 16.6522 128.282 16.6522C127.85 16.6522 127.395 16.8152 126.915 17.1412C126.447 17.4523 126.082 17.872 125.819 18.4006C125.806 18.4276 125.799 18.4576 125.799 18.4878V24.8896C125.799 25.0006 125.709 25.0906 125.598 25.0906H123.632C123.521 25.0906 123.431 25.0006 123.431 24.8896V14.8763C123.431 14.7653 123.521 14.6753 123.632 14.6753H125.598C125.709 14.6753 125.799 14.7653 125.799 14.8763V15.292C125.799 15.5016 126.127 15.5993 126.273 15.4488C126.468 15.2475 126.696 15.0694 126.957 14.9146C127.471 14.6094 127.976 14.4568 128.469 14.4568Z" fill="black"/>
<path d="M141.02 14.6753C141.164 14.6753 141.261 14.8217 141.206 14.9542L136.994 24.9675C136.963 25.0421 136.89 25.0906 136.809 25.0906H135.021C134.94 25.0906 134.867 25.042 134.836 24.9674L130.634 14.9541C130.579 14.8216 130.676 14.6753 130.82 14.6753H132.956C133.039 14.6753 133.113 14.726 133.143 14.8032L135.732 21.4347C135.799 21.6056 136.041 21.6051 136.107 21.434L138.666 14.8039C138.696 14.7264 138.77 14.6753 138.853 14.6753H141.02Z" fill="black"/>
<path d="M151.853 19.4199C151.853 19.7482 151.834 20.0371 151.797 20.2869C151.783 20.382 151.7 20.45 151.604 20.45H144.056C143.933 20.45 143.838 20.5603 143.863 20.681C144.018 21.4177 144.341 22.0032 144.833 22.4373C145.382 22.916 146.078 23.1553 146.919 23.1553C147.51 23.1553 148.053 23.0374 148.546 22.8015C148.968 22.5941 149.299 22.3285 149.538 22.0046C149.605 21.9139 149.73 21.8836 149.825 21.9441L151.391 22.9396C151.481 22.9965 151.511 23.1136 151.455 23.2037C151.064 23.8341 150.488 24.3347 149.725 24.7056C148.904 25.101 147.955 25.2987 146.877 25.2987C145.883 25.2987 144.972 25.0629 144.145 24.5912C143.317 24.1125 142.66 23.4536 142.173 22.6142C141.694 21.7749 141.454 20.8454 141.454 19.8257C141.454 18.8338 141.69 17.9285 142.163 17.11C142.643 16.2846 143.293 15.636 144.113 15.1643C144.941 14.6926 145.848 14.4568 146.836 14.4568C147.761 14.4568 148.605 14.6753 149.37 15.1123C150.142 15.5493 150.747 16.1493 151.185 16.9123C151.63 17.6684 151.853 18.5043 151.853 19.4199ZM143.982 18.378C143.939 18.5032 144.035 18.6291 144.167 18.6291H149.128C149.247 18.6291 149.34 18.5267 149.319 18.41C149.22 17.8572 148.952 17.3996 148.515 17.0372C148.021 16.621 147.416 16.4129 146.7 16.4129C145.998 16.4129 145.403 16.6106 144.917 17.006C144.49 17.3462 144.179 17.8036 143.982 18.378Z" fill="black"/>
<path d="M158.659 14.4568C159.068 14.4568 159.419 14.4971 159.712 14.5779C159.799 14.6019 159.854 14.6858 159.848 14.776L159.729 16.5977C159.721 16.73 159.589 16.8177 159.461 16.7831C159.137 16.6958 158.807 16.6522 158.471 16.6522C158.04 16.6522 157.584 16.8152 157.105 17.1412C156.637 17.4523 156.272 17.872 156.009 18.4006C155.995 18.4276 155.989 18.4576 155.989 18.4878V24.8896C155.989 25.0006 155.899 25.0906 155.788 25.0906H153.822C153.711 25.0906 153.621 25.0006 153.621 24.8896V14.8763C153.621 14.7653 153.711 14.6753 153.822 14.6753H155.788C155.899 14.6753 155.989 14.7653 155.989 14.8763V15.292C155.989 15.5016 156.317 15.5993 156.462 15.4488C156.657 15.2475 156.885 15.0694 157.146 14.9146C157.661 14.6094 158.165 14.4568 158.659 14.4568Z" fill="black"/>
<path d="M164.724 25.3299C163.876 25.3299 163.034 25.1912 162.2 24.9137C161.429 24.6572 160.797 24.3236 160.305 23.913C160.234 23.8542 160.217 23.7539 160.259 23.6726L161.001 22.2584C161.064 22.1397 161.222 22.114 161.326 22.1986C161.697 22.5006 162.165 22.7536 162.732 22.9576C163.413 23.2004 164.053 23.3218 164.651 23.3218C165.166 23.3218 165.583 23.2143 165.903 22.9992C166.223 22.7772 166.383 22.4998 166.383 22.1668C166.383 21.9379 166.299 21.7437 166.132 21.5841C165.965 21.4246 165.746 21.3032 165.475 21.22C165.204 21.1298 164.895 21.0396 164.547 20.9494C164.199 20.8523 163.841 20.7656 163.473 20.6893C163.111 20.6061 162.756 20.4882 162.409 20.3356C162.061 20.176 161.752 19.9957 161.48 19.7945C161.209 19.5864 160.99 19.3055 160.823 18.9517C160.656 18.5979 160.573 18.1921 160.573 17.7343C160.573 16.7701 160.948 15.9828 161.699 15.3724C162.457 14.762 163.434 14.4568 164.63 14.4568C165.388 14.4568 166.115 14.5643 166.81 14.7793C167.454 14.9763 167.992 15.2548 168.425 15.6148C168.495 15.6729 168.513 15.772 168.471 15.853L167.72 17.3182C167.661 17.4345 167.508 17.4638 167.402 17.3863C167.043 17.1218 166.599 16.9083 166.07 16.7458C165.444 16.5447 164.888 16.4441 164.401 16.4441C163.963 16.4441 163.612 16.5447 163.347 16.7458C163.083 16.9401 162.951 17.2071 162.951 17.547C162.951 17.7829 163.059 17.984 163.274 18.1505C163.49 18.3101 163.768 18.4419 164.109 18.5459C164.456 18.6499 164.839 18.754 165.256 18.858C165.673 18.9552 166.087 19.0835 166.497 19.243C166.915 19.3956 167.294 19.5829 167.634 19.8049C167.982 20.0199 168.264 20.3251 168.479 20.7205C168.695 21.109 168.802 21.5633 168.802 22.0836C168.802 23.02 168.42 23.7969 167.655 24.4143C166.89 25.0247 165.913 25.3299 164.724 25.3299Z" fill="black"/>
<path d="M180.313 19.4199C180.313 19.7482 180.294 20.0371 180.257 20.2869C180.243 20.382 180.16 20.45 180.064 20.45H172.516C172.393 20.45 172.298 20.5603 172.323 20.681C172.478 21.4177 172.801 22.0032 173.293 22.4373C173.842 22.916 174.538 23.1553 175.379 23.1553C175.97 23.1553 176.512 23.0374 177.006 22.8015C177.428 22.5941 177.758 22.3285 177.997 22.0046C178.064 21.9139 178.19 21.8836 178.285 21.9441L179.851 22.9396C179.94 22.9965 179.971 23.1136 179.915 23.2037C179.524 23.8341 178.948 24.3347 178.185 24.7056C177.364 25.101 176.415 25.2987 175.337 25.2987C174.343 25.2987 173.432 25.0629 172.605 24.5912C171.777 24.1125 171.12 23.4536 170.633 22.6142C170.153 21.7749 169.913 20.8454 169.913 19.8257C169.913 18.8338 170.15 17.9285 170.623 17.11C171.103 16.2846 171.753 15.636 172.573 15.1643C173.401 14.6926 174.308 14.4568 175.296 14.4568C176.22 14.4568 177.065 14.6753 177.83 15.1123C178.602 15.5493 179.207 16.1493 179.645 16.9123C180.09 17.6684 180.313 18.5043 180.313 19.4199ZM172.441 18.378C172.398 18.5032 172.495 18.6291 172.627 18.6291H177.588C177.707 18.6291 177.8 18.5267 177.779 18.41C177.68 17.8572 177.412 17.3996 176.975 17.0372C176.481 16.621 175.876 16.4129 175.16 16.4129C174.458 16.4129 173.863 16.6106 173.376 17.006C172.95 17.3462 172.638 17.8036 172.441 18.378Z" fill="black"/>
</svg>
