<svg width="162" height="34" viewBox="0 0 162 34" fill="none" xmlns="http://www.w3.org/2000/svg">
<path d="M20.5459 1.41895H33.7404" stroke="black" stroke-width="0.993388" stroke-linejoin="round"/>
<path d="M8.58887 33.4189H21.9724" stroke="black" stroke-width="0.993388" stroke-linejoin="round"/>
<path fill-rule="evenodd" clip-rule="evenodd" d="M23.9383 2.46781C23.0372 1.78455 21.876 1.41895 20.5706 1.41895C19.7466 1.41895 18.8837 1.56881 18.077 1.85188C14.4445 3.13405 10.7947 5.80245 7.79639 9.37003C4.94906 12.7544 2.93867 16.6634 1.98524 20.6639C1.43735 22.9576 -0.227912 29.9388 5.26399 32.5614C6.459 33.1317 7.69716 33.4189 8.94826 33.4189C10.1997 33.4189 11.3991 33.1377 12.5328 32.6716C12.0199 31.4847 11.67 30.1473 11.4865 28.7005C10.7153 29.0657 9.90009 29.2852 9.03886 29.2852C8.84904 29.2852 8.6549 29.2727 8.46508 29.2519C7.99048 29.1987 8.12355 28.8577 8.30427 28.3946C8.47673 27.9526 8.6926 27.3995 8.46508 26.8791C7.90424 25.5969 8.21917 22.78 8.46508 21.3521C9.48322 15.5366 10.1821 11.8886 14.9837 8.3085C16.7137 7.01801 18.1331 6.20625 19.4489 5.74833C19.6606 5.67322 19.9487 5.58293 20.2452 5.5385C21.4308 4.34205 22.6734 3.3114 23.9383 2.46781Z" fill="#84BCFF"/>
<path d="M23.9383 2.46781L24.2139 2.88104C24.3476 2.79186 24.4299 2.6435 24.4348 2.48286C24.4397 2.32221 24.3665 2.16914 24.2384 2.07203L23.9383 2.46781ZM18.077 1.85188L17.9125 1.3832L17.9117 1.38351L18.077 1.85188ZM7.7964 9.37003L8.17647 9.68979L8.17664 9.6896L7.7964 9.37003ZM1.98525 20.6639L2.46835 20.7793L2.46841 20.7791L1.98525 20.6639ZM5.26399 32.5614L5.04996 33.0096L5.05007 33.0097L5.26399 32.5614ZM12.5328 32.6716L12.7217 33.131C12.845 33.0804 12.9427 32.9823 12.9929 32.8588C13.0431 32.7354 13.0416 32.5969 12.9888 32.4746L12.5328 32.6716ZM11.4865 28.7005L11.9793 28.638C11.9593 28.4801 11.8648 28.3414 11.7252 28.2649C11.5856 28.1885 11.4178 28.1835 11.274 28.2516L11.4865 28.7005ZM8.46509 29.2519L8.4097 29.7455L8.41095 29.7456L8.46509 29.2519ZM8.30427 28.3946L8.76698 28.5752L8.30427 28.3946ZM8.46509 26.8791L8.92019 26.6801L8.92015 26.68L8.46509 26.8791ZM8.46509 21.3521L7.97583 21.2665L7.9756 21.2679L8.46509 21.3521ZM14.9838 8.3085L15.2806 8.70669L15.2807 8.70662L14.9838 8.3085ZM19.4489 5.74833L19.6121 6.21744L19.615 6.21644L19.4489 5.74833ZM20.2452 5.5385L20.3188 6.0297C20.4247 6.01383 20.5226 5.96417 20.598 5.88812L20.2452 5.5385ZM24.2384 2.07203C23.2393 1.31444 21.9688 0.922251 20.5706 0.922251V1.91564C21.7833 1.91564 22.8352 2.25465 23.6382 2.86359L24.2384 2.07203ZM20.5706 0.922251C19.6884 0.922251 18.7701 1.0823 17.9125 1.3832L18.2414 2.32056C18.9974 2.05531 19.8047 1.91564 20.5706 1.91564V0.922251ZM17.9117 1.38351C14.1796 2.70081 10.4596 5.42917 7.41616 9.05046L8.17664 9.6896C11.1298 6.17573 14.7094 3.56729 18.2423 2.32026L17.9117 1.38351ZM7.41632 9.05027C4.52293 12.4894 2.47477 16.4674 1.50209 20.5488L2.46841 20.7791C3.40258 16.8593 5.3752 13.0195 8.17647 9.68979L7.41632 9.05027ZM1.50215 20.5485C1.22895 21.6922 0.655505 24.0827 0.864808 26.5316C1.07561 28.9981 2.09125 31.5967 5.04996 33.0096L5.47803 32.1132C2.94484 30.9035 2.04715 28.7002 1.85459 26.447C1.66052 24.1763 2.19365 21.9293 2.46835 20.7793L1.50215 20.5485ZM5.05007 33.0097C6.30825 33.6101 7.61921 33.9156 8.94827 33.9156V32.9223C7.77513 32.9223 6.60977 32.6533 5.47792 32.1131L5.05007 33.0097ZM8.94827 33.9156C10.2753 33.9156 11.539 33.6173 12.7217 33.131L12.344 32.2122C11.2593 32.6582 10.1241 32.9223 8.94827 32.9223V33.9156ZM12.9888 32.4746C12.4969 31.3364 12.1577 30.0452 11.9793 28.638L10.9938 28.763C11.1823 30.2494 11.5429 31.633 12.0769 32.8687L12.9888 32.4746ZM11.274 28.2516C10.556 28.5916 9.81327 28.7885 9.03887 28.7885V29.7819C9.98692 29.7819 10.8746 29.5398 11.6991 29.1494L11.274 28.2516ZM9.03887 28.7885C8.87027 28.7885 8.69449 28.7774 8.51922 28.7582L8.41095 29.7456C8.61533 29.7681 8.82782 29.7819 9.03887 29.7819V28.7885ZM8.52047 28.7583C8.45185 28.7506 8.49012 28.7402 8.54815 28.7928C8.57977 28.8215 8.60446 28.8579 8.61961 28.896C8.63371 28.9315 8.63532 28.9577 8.6355 28.9654C8.63565 28.9722 8.63508 28.9463 8.66068 28.864C8.68492 28.7861 8.72005 28.6954 8.76698 28.5752L7.84156 28.214C7.79813 28.3253 7.74887 28.4509 7.71216 28.5688C7.67681 28.6824 7.63875 28.8319 7.64238 28.9884C7.64637 29.1609 7.70299 29.3673 7.8805 29.5284C8.04141 29.6744 8.24102 29.7266 8.4097 29.7455L8.52047 28.7583ZM8.76698 28.5752C8.92289 28.1757 9.24362 27.4199 8.92019 26.6801L8.00999 27.078C8.1416 27.3791 8.0306 27.7296 7.84156 28.214L8.76698 28.5752ZM8.92015 26.68C8.6894 26.1525 8.61959 25.2303 8.6589 24.189C8.69722 23.1738 8.83421 22.1354 8.95458 21.4364L7.9756 21.2679C7.85006 21.9968 7.70663 23.0807 7.66622 24.1515C7.62679 25.1961 7.67994 26.3235 8.01002 27.0781L8.92015 26.68ZM8.95434 21.4378C9.4656 18.5175 9.88678 16.2121 10.7615 14.1892C11.6264 12.189 12.9436 10.4492 15.2806 8.70669L14.6869 7.9103C12.2223 9.74788 10.7892 11.6221 9.84971 13.7949C8.92005 15.9449 8.48271 18.3712 7.97583 21.2665L8.95434 21.4378ZM15.2807 8.70662C16.9893 7.43212 18.3626 6.65227 19.6121 6.21743L19.2856 5.27923C17.9035 5.76023 16.4382 6.60389 14.6868 7.91037L15.2807 8.70662ZM19.615 6.21644C19.8145 6.14565 20.0683 6.06726 20.3188 6.0297L20.1715 5.04729C19.8293 5.0986 19.5067 5.20079 19.2828 5.28022L19.615 6.21644ZM20.598 5.88812C21.7621 4.71336 22.9792 3.70453 24.2139 2.88104L23.6628 2.05459C22.3677 2.91826 21.0995 3.97074 19.8924 5.18888L20.598 5.88812Z" fill="black"/>
<path fill-rule="evenodd" clip-rule="evenodd" d="M29.4222 3.67542C29.3308 3.52565 29.229 3.38094 29.1171 3.24228H29.1257C28.1723 2.06419 26.6925 1.41895 24.9583 1.41895C24.1343 1.41895 23.2714 1.56881 22.4647 1.85188C18.8322 3.13405 15.1824 5.80245 12.1841 9.37003C9.33675 12.7544 7.32636 16.6634 6.37294 20.6639C5.82504 22.9576 4.15978 29.9388 9.65168 32.5614C10.8467 33.1317 12.0849 33.4189 13.336 33.4189C14.8679 33.4189 16.322 32.9975 17.6729 32.3314C17.2829 31.026 17.0594 29.584 17.0062 28.0475C15.9123 28.789 14.7215 29.2852 13.4266 29.2852C13.2367 29.2852 13.0426 29.2727 12.8528 29.2519C12.3673 29.1974 12.5176 28.712 12.7044 28.1089C12.8745 27.5596 13.0748 26.9128 12.8528 26.4048C12.8309 26.3547 12.8093 26.3054 12.788 26.2569C12.2652 25.0648 11.9478 24.3411 12.1841 22.969C13.2022 17.1535 14.5698 11.8886 19.3714 8.3085C21.1014 7.01801 22.5208 6.20625 23.8366 5.74833C24.1299 5.64426 24.57 5.51105 24.9755 5.51105C25.2171 5.51105 25.4156 5.55684 25.5838 5.65259C25.6097 5.66924 25.6356 5.68589 25.6615 5.7067C25.605 5.74197 25.551 5.7791 25.4994 5.81797C24.9353 5.80336 24.5285 6.14243 24.8117 6.80002C24.7249 7.1099 24.7225 7.4477 24.8131 7.7942C24.9364 7.65466 25.0605 7.51696 25.1853 7.38113C25.0071 7.16604 24.8858 6.97212 24.8117 6.80002C24.9185 6.41827 25.1532 6.07892 25.4994 5.81797C25.7882 5.82545 26.1181 5.9256 26.4179 6.12314C27.3913 5.19259 28.3989 4.37291 29.4222 3.67542Z" fill="#E9FF90"/>
<path d="M29.4222 3.67542L29.7019 4.08584C29.9206 3.93681 29.984 3.64254 29.8462 3.41668L29.4222 3.67542ZM29.1171 3.24228V2.74559C28.9258 2.74559 28.7515 2.85547 28.669 3.02808C28.5865 3.20069 28.6104 3.40535 28.7306 3.55423L29.1171 3.24228ZM29.1257 3.24228V3.73898C29.3172 3.73898 29.4916 3.62896 29.574 3.45618C29.6564 3.2834 29.6323 3.07863 29.5118 2.92982L29.1257 3.24228ZM22.4647 1.85188L22.3002 1.3832L22.2994 1.38351L22.4647 1.85188ZM12.1841 9.37003L12.5642 9.68979L12.5643 9.6896L12.1841 9.37003ZM6.37294 20.6639L6.85605 20.7793L6.85611 20.7791L6.37294 20.6639ZM9.65169 32.5614L9.43765 33.0096L9.43776 33.0097L9.65169 32.5614ZM17.6729 32.3314L17.8926 32.7769C18.1099 32.6697 18.2182 32.4214 18.1488 32.1892L17.6729 32.3314ZM17.0062 28.0475L17.5026 28.0303C17.4964 27.8496 17.3924 27.6866 17.2313 27.6047C17.0701 27.5228 16.8772 27.5349 16.7275 27.6363L17.0062 28.0475ZM12.8528 29.2519L12.7974 29.7455L12.7986 29.7456L12.8528 29.2519ZM12.7044 28.1089L12.23 27.962L12.7044 28.1089ZM12.8528 26.4048L13.3079 26.2058L13.3078 26.2058L12.8528 26.4048ZM12.788 26.257L13.2429 26.0575L13.2429 26.0575L12.788 26.257ZM12.1841 22.969L11.6948 22.8833L11.6946 22.8847L12.1841 22.969ZM19.3715 8.3085L19.6683 8.70669L19.6684 8.70662L19.3715 8.3085ZM23.8366 5.74833L23.9998 6.21744L24.0026 6.21644L23.8366 5.74833ZM25.5838 5.65259L25.8525 5.23486C25.845 5.23 25.8373 5.22534 25.8295 5.2209L25.5838 5.65259ZM25.6615 5.7067L25.9246 6.12796C26.061 6.04275 26.1477 5.89676 26.1573 5.73621C26.1668 5.57566 26.0981 5.42042 25.9727 5.31963L25.6615 5.7067ZM24.8131 7.7942L24.3326 7.91984C24.379 8.09734 24.5195 8.23481 24.6979 8.27736C24.8764 8.3199 25.0638 8.26059 25.1853 8.12311L24.8131 7.7942ZM25.1853 7.38113L25.551 7.71724C25.7191 7.53439 25.7263 7.25552 25.5678 7.06428L25.1853 7.38113ZM26.4179 6.12314L26.1446 6.53787C26.3379 6.66531 26.5937 6.6422 26.7611 6.48218L26.4179 6.12314ZM29.8462 3.41668C29.7435 3.24839 29.6292 3.0859 29.5036 2.93034L28.7306 3.55423C28.8288 3.67597 28.9181 3.80291 28.9982 3.93416L29.8462 3.41668ZM29.1171 3.73898H29.1257V2.74559H29.1171V3.73898ZM29.5118 2.92982C28.4493 1.61697 26.8173 0.922251 24.9583 0.922251V1.91564C26.5678 1.91564 27.8953 2.51141 28.7396 3.55475L29.5118 2.92982ZM24.9583 0.922251C24.0761 0.922251 23.1578 1.0823 22.3002 1.3832L22.6291 2.32056C23.3851 2.05531 24.1924 1.91564 24.9583 1.91564V0.922251ZM22.2994 1.38351C18.5673 2.70081 14.8473 5.42917 11.8039 9.05046L12.5643 9.6896C15.5175 6.17573 19.097 3.56729 22.63 2.32026L22.2994 1.38351ZM11.804 9.05027C8.91062 12.4894 6.86247 16.4674 5.88978 20.5488L6.85611 20.7791C7.79027 16.8593 9.7629 13.0195 12.5642 9.68979L11.804 9.05027ZM5.88984 20.5485C5.61664 21.6922 5.0432 24.0827 5.2525 26.5316C5.46331 28.9981 6.47894 31.5967 9.43765 33.0096L9.86573 32.1132C7.33254 30.9035 6.43485 28.7002 6.24228 26.447C6.04821 24.1763 6.58135 21.9293 6.85605 20.7793L5.88984 20.5485ZM9.43776 33.0097C10.6959 33.6101 12.0069 33.9156 13.336 33.9156V32.9223C12.1628 32.9223 10.9975 32.6533 9.86562 32.1131L9.43776 33.0097ZM13.336 33.9156C14.9607 33.9156 16.49 33.4685 17.8926 32.7769L17.4533 31.8859C16.154 32.5265 14.7751 32.9223 13.336 32.9223V33.9156ZM18.1488 32.1892C17.7724 30.9295 17.5546 29.5301 17.5026 28.0303L16.5098 28.0647C16.5643 29.6379 16.7933 31.1224 17.197 32.4736L18.1488 32.1892ZM16.7275 27.6363C15.6844 28.3434 14.5899 28.7885 13.4266 28.7885V29.7819C14.8531 29.7819 16.1403 29.2345 17.2849 28.4586L16.7275 27.6363ZM13.4266 28.7885C13.258 28.7885 13.0822 28.7774 12.9069 28.7582L12.7986 29.7456C13.003 29.7681 13.2155 29.7819 13.4266 29.7819V28.7885ZM12.9082 28.7583C12.8697 28.754 12.9268 28.752 12.9828 28.8205C13.0328 28.8815 13.0232 28.9284 13.0232 28.8867C13.0233 28.8455 13.0329 28.7728 13.0624 28.6547C13.0912 28.5395 13.1312 28.41 13.1789 28.2558L12.23 27.962C12.1463 28.232 12.0302 28.5891 12.0298 28.8855C12.0296 29.0475 12.0617 29.2636 12.2143 29.4498C12.3728 29.6435 12.5931 29.7226 12.7974 29.7455L12.9082 28.7583ZM13.1789 28.2558C13.2618 27.988 13.3669 27.6523 13.417 27.3142C13.4672 26.9757 13.4717 26.5806 13.3079 26.2058L12.3977 26.6038C12.4559 26.737 12.4713 26.9192 12.4344 27.1685C12.3973 27.4182 12.3171 27.6805 12.23 27.962L13.1789 28.2558ZM13.3078 26.2058C13.2858 26.1554 13.2641 26.1059 13.2429 26.0575L12.3331 26.4564C12.3544 26.505 12.3759 26.554 12.3977 26.6039L13.3078 26.2058ZM13.2429 26.0575C12.977 25.4511 12.7882 25.0166 12.6855 24.5693C12.5866 24.1389 12.5653 23.6818 12.6736 23.0533L11.6946 22.8847C11.5666 23.6282 11.5858 24.2191 11.7173 24.7916C11.8449 25.3472 12.0762 25.8707 12.3331 26.4564L13.2429 26.0575ZM12.6733 23.0547C13.6908 17.243 15.0363 12.1603 19.6683 8.70669L19.0746 7.9103C14.1034 11.6168 12.7136 17.064 11.6948 22.8833L12.6733 23.0547ZM19.6684 8.70662C21.377 7.43212 22.7503 6.65227 23.9998 6.21743L23.6733 5.27923C22.2912 5.76023 20.8259 6.60389 19.0745 7.91037L19.6684 8.70662ZM24.0026 6.21644C24.2873 6.11546 24.6598 6.00774 24.9755 6.00774V5.01435C24.4801 5.01435 23.9726 5.17306 23.6705 5.28022L24.0026 6.21644ZM24.9755 6.00774C25.1531 6.00774 25.2619 6.04088 25.3382 6.08428L25.8295 5.2209C25.5692 5.0728 25.2811 5.01435 24.9755 5.01435V6.00774ZM25.3151 6.07031C25.3289 6.07921 25.3361 6.08385 25.3424 6.08814C25.3478 6.09188 25.3499 6.09351 25.3502 6.09378L25.9727 5.31963C25.9234 5.27995 25.876 5.24995 25.8525 5.23486L25.3151 6.07031ZM25.3983 5.28545C25.3298 5.32825 25.2638 5.37357 25.2004 5.42133L25.7984 6.21461C25.8381 6.18463 25.8802 6.15569 25.9246 6.12796L25.3983 5.28545ZM25.2678 6.60356C25.2194 6.49106 25.2145 6.4243 25.2162 6.39561C25.217 6.38187 25.2192 6.37588 25.2196 6.37503C25.2198 6.3743 25.2198 6.37435 25.2203 6.37381C25.2229 6.37058 25.2877 6.30935 25.4865 6.3145L25.5123 5.32144C25.147 5.31198 24.7263 5.41298 24.4553 5.74004C24.1602 6.0962 24.168 6.56122 24.3555 6.99649L25.2678 6.60356ZM24.3333 6.66618C24.2215 7.06591 24.2211 7.49344 24.3326 7.91984L25.2936 7.66856C25.2239 7.40197 25.2284 7.15389 25.29 6.93387L24.3333 6.66618ZM25.1853 8.12311C25.3065 7.98597 25.4284 7.85068 25.551 7.71724L24.8196 7.04503C24.6926 7.18325 24.5663 7.32335 24.4409 7.46529L25.1853 8.12311ZM25.5678 7.06428C25.4111 6.87504 25.3185 6.72121 25.2678 6.60356L24.3555 6.99649C24.453 7.22303 24.6032 7.45703 24.8028 7.69799L25.5678 7.06428ZM25.2004 5.42132C24.7732 5.74332 24.4715 6.17253 24.3333 6.66618L25.29 6.93387C25.3655 6.66401 25.5331 6.41452 25.7984 6.21461L25.2004 5.42132ZM25.4865 6.3145C25.676 6.3194 25.9167 6.38768 26.1446 6.53787L26.6912 5.70842C26.3196 5.46352 25.9003 5.33149 25.5123 5.32144L25.4865 6.3145ZM26.7611 6.48218C27.7163 5.56912 28.7028 4.76691 29.7019 4.08584L29.1424 3.26501C28.0951 3.97891 27.0664 4.81607 26.0747 5.76411L26.7611 6.48218Z" fill="black"/>
<path fill-rule="evenodd" clip-rule="evenodd" d="M25.3624 7.19079C27.4949 4.91301 29.8356 3.17766 32.1723 2.11449C31.3652 1.65931 30.4015 1.41895 29.343 1.41895C28.519 1.41895 27.6562 1.56881 26.8494 1.85188C23.2169 3.13405 19.5672 5.80245 16.5689 9.37003C13.7215 12.7544 11.7111 16.6634 10.7577 20.6639C10.2098 22.9576 8.54455 29.9388 14.0365 32.5614C15.2315 33.1317 16.4696 33.4189 17.7207 33.4189C17.8299 33.4189 17.9387 33.4168 18.0471 33.4126C17.5508 32.159 17.2282 30.7496 17.083 29.2296C16.7912 29.1746 16.8392 29.0817 16.9331 28.9001C16.9666 28.8352 17.006 28.759 17.0379 28.6692C17.0204 28.404 17.0082 28.1358 17.0012 27.8647C16.9947 27.8485 16.9879 27.8322 16.9807 27.8157C16.4255 26.5465 16.7285 24.7878 16.9732 23.3674L16.9807 23.324L17.001 23.208C18.0117 17.4338 18.9865 11.8648 23.7562 8.3085C24.3225 7.8861 24.8554 7.51499 25.3624 7.19079Z" fill="#F8642D"/>
<path d="M25.3624 7.19079L25.63 7.60923C25.6648 7.58696 25.6967 7.56043 25.725 7.53025L25.3624 7.19079ZM32.1723 2.11449L32.378 2.56659C32.5482 2.48917 32.6604 2.32275 32.6685 2.13597C32.6766 1.94919 32.5791 1.7737 32.4163 1.68186L32.1723 2.11449ZM26.8495 1.85188L26.685 1.3832L26.6841 1.38351L26.8495 1.85188ZM16.5689 9.37003L16.9489 9.68979L16.9491 9.6896L16.5689 9.37003ZM10.7577 20.6639L11.2408 20.7793L11.2409 20.7791L10.7577 20.6639ZM14.0365 32.5614L13.8224 33.0096L13.8225 33.0097L14.0365 32.5614ZM18.0472 33.4126L18.0665 33.9089C18.2274 33.9026 18.3754 33.8187 18.4633 33.6837C18.5512 33.5488 18.5683 33.3795 18.509 33.2297L18.0472 33.4126ZM17.083 29.2296L17.5775 29.1824C17.5564 28.9622 17.3924 28.7825 17.1751 28.7415L17.083 29.2296ZM16.9331 28.9001L16.4919 28.672L16.9331 28.9001ZM17.0379 28.6692L17.506 28.8352C17.5286 28.7715 17.5379 28.7039 17.5335 28.6365L17.0379 28.6692ZM17.0012 27.8647L17.4977 27.8519C17.4962 27.7929 17.4842 27.7347 17.4623 27.6799L17.0012 27.8647ZM16.9807 27.8157L17.4358 27.6167L17.4358 27.6167L16.9807 27.8157ZM16.9732 23.3674L17.4627 23.4517L17.4627 23.4517L16.9732 23.3674ZM16.9807 23.324L16.4914 23.2383L16.4912 23.2397L16.9807 23.324ZM17.001 23.208L17.4902 23.2936L17.4902 23.2936L17.001 23.208ZM23.7562 8.3085L24.0531 8.70669L24.0532 8.70662L23.7562 8.3085ZM25.725 7.53025C27.8214 5.29105 30.1106 3.59823 32.378 2.56659L31.9666 1.66239C29.5606 2.7571 27.1685 4.53497 24.9998 6.85132L25.725 7.53025ZM32.4163 1.68186C31.5262 1.17983 30.4766 0.922251 29.343 0.922251V1.91564C30.3265 1.91564 31.2043 2.13879 31.9283 2.54712L32.4163 1.68186ZM29.343 0.922251C28.4609 0.922251 27.5425 1.0823 26.685 1.3832L27.0139 2.32056C27.7698 2.05531 28.5772 1.91564 29.343 1.91564V0.922251ZM26.6841 1.38351C22.9521 2.70081 19.2321 5.42917 16.1886 9.05046L16.9491 9.6896C19.9023 6.17573 23.4818 3.56729 27.0148 2.32026L26.6841 1.38351ZM16.1888 9.05027C13.2954 12.4894 11.2472 16.4674 10.2745 20.5488L11.2409 20.7791C12.175 16.8593 14.1477 13.0195 16.9489 9.68979L16.1888 9.05027ZM10.2746 20.5485C10.0014 21.6922 9.42797 24.0827 9.63727 26.5316C9.84807 28.9981 10.8637 31.5967 13.8224 33.0096L14.2505 32.1132C11.7173 30.9035 10.8196 28.7002 10.627 26.447C10.433 24.1763 10.9661 21.9293 11.2408 20.7793L10.2746 20.5485ZM13.8225 33.0097C15.0807 33.6101 16.3917 33.9156 17.7207 33.9156V32.9223C16.5476 32.9223 15.3822 32.6533 14.2504 32.1131L13.8225 33.0097ZM17.7207 33.9156C17.8364 33.9156 17.9517 33.9134 18.0665 33.9089L18.0278 32.9163C17.9258 32.9202 17.8234 32.9223 17.7207 32.9223V33.9156ZM18.509 33.2297C18.0322 32.0255 17.7188 30.6627 17.5775 29.1824L16.5886 29.2768C16.7375 30.8365 17.0695 32.2924 17.5853 33.5954L18.509 33.2297ZM17.1751 28.7415C17.1198 28.7311 17.1289 28.7267 17.1626 28.7452C17.209 28.7707 17.3103 28.8469 17.3462 28.9958C17.3614 29.0585 17.3584 29.1107 17.3536 29.1426C17.3491 29.1731 17.342 29.1922 17.341 29.1946C17.3399 29.1976 17.3409 29.1944 17.3474 29.1811C17.3539 29.1677 17.3619 29.1521 17.3743 29.1281L16.4919 28.672C16.4729 28.7087 16.4364 28.7776 16.4107 28.8463C16.3867 28.9103 16.3389 29.0559 16.3806 29.2288C16.4293 29.4306 16.5674 29.5516 16.684 29.6157C16.7878 29.6728 16.9004 29.7006 16.991 29.7177L17.1751 28.7415ZM17.3743 29.1281C17.4071 29.0647 17.4614 28.9609 17.506 28.8352L16.5697 28.5031C16.5506 28.5571 16.5262 28.6056 16.4919 28.672L17.3743 29.1281ZM17.5335 28.6365C17.5165 28.3781 17.5045 28.1165 17.4977 27.8519L16.5047 27.8775C16.5118 28.1551 16.5243 28.4299 16.5423 28.7018L17.5335 28.6365ZM17.4623 27.6799C17.4539 27.659 17.445 27.6379 17.4358 27.6167L16.5256 28.0147C16.5308 28.0265 16.5356 28.0381 16.5401 28.0494L17.4623 27.6799ZM17.4358 27.6167C17.2026 27.0836 17.1377 26.4153 17.1731 25.6719C17.2084 24.9317 17.3395 24.167 17.4627 23.4517L16.4837 23.2831C16.3623 23.9882 16.2195 24.8131 16.1809 25.6246C16.1424 26.433 16.2036 27.2786 16.5256 28.0148L17.4358 27.6167ZM17.4627 23.4517L17.4702 23.4083L16.4912 23.2397L16.4837 23.2831L17.4627 23.4517ZM17.4699 23.4096L17.4902 23.2936L16.5117 23.1223L16.4914 23.2383L17.4699 23.4096ZM17.4902 23.2936C18.508 17.4794 19.4673 12.1259 24.0531 8.70669L23.4593 7.9103C18.5057 11.6037 17.5154 17.3882 16.5117 23.1224L17.4902 23.2936ZM24.0532 8.70662C24.6116 8.29007 25.1347 7.92596 25.63 7.60923L25.0948 6.77234C24.5762 7.10402 24.0333 7.48213 23.4592 7.91037L24.0532 8.70662Z" fill="black"/>
<path d="M37.9001 3.24228C36.9467 2.06419 35.467 1.41895 33.7327 1.41895C32.9087 1.41895 32.0458 1.56881 31.2391 1.85188C27.6066 3.13405 23.9568 5.80245 20.9585 9.37003C18.1112 12.7544 16.1008 16.6634 15.1474 20.6639C14.5995 22.9576 12.9342 29.9388 18.4261 32.5614C19.6211 33.1317 20.8593 33.4189 22.1104 33.4189C26.6704 33.4189 30.5402 29.6848 33.0554 26.8791C33.6291 26.238 33.7586 25.3971 33.3919 24.627C33.0208 23.8485 32.2357 23.324 31.4332 23.324C31.0493 23.324 30.4841 23.4447 29.9794 24.0109L29.7378 24.2773C27.7447 26.5086 25.264 29.2852 22.201 29.2852C22.0112 29.2852 21.817 29.2727 21.6272 29.2519C20.6997 29.1478 19.4529 28.6441 18.9869 27.5784C18.4261 26.2963 18.741 24.5146 18.9869 23.0867C20.0051 17.2712 23.3442 11.8886 28.1459 8.3085C29.8758 7.01801 31.2952 6.20625 32.611 5.74833C32.9044 5.64426 33.3444 5.51105 33.7499 5.51105C33.9915 5.51105 34.19 5.55684 34.3582 5.65259C34.3841 5.66924 34.41 5.68589 34.4359 5.7067C33.6895 6.17295 33.366 6.96389 33.5903 7.80479C33.8448 8.76642 34.7249 9.46578 35.687 9.46578C36.0407 9.46578 36.3902 9.37419 36.7267 9.19519C37.7362 8.66234 38.4523 7.71321 38.6896 6.58923C38.9442 5.40281 38.6508 4.18309 37.8915 3.24228H37.9001Z" fill="#F8AFDB" stroke="black" stroke-width="0.9984" stroke-linejoin="round"/>
<path d="M32.1165 29.64C32.1554 29.75 32.2306 29.8226 32.3236 29.8397L32.3239 29.8581C32.3424 29.8578 32.3424 29.8578 32.3609 29.8576C32.3794 29.8573 32.3794 29.8573 32.3979 29.857L32.3976 29.8386C32.49 29.8189 32.5628 29.7441 32.5981 29.6331C33.2969 27.026 35.3198 24.9524 37.9191 24.1599C38.0481 24.1212 38.1205 24.0097 38.1187 23.8992C38.1169 23.7887 38.041 23.6793 37.9107 23.6443C35.287 22.9268 33.198 20.9124 32.4151 18.3265C32.3762 18.2166 32.3009 18.144 32.208 18.1269L32.2077 18.1085C32.1892 18.1088 32.1892 18.1088 32.1707 18.109C32.1522 18.1093 32.1522 18.1093 32.1336 18.1096L32.1339 18.128C32.0416 18.1477 31.9687 18.2224 31.9335 18.3335C31.2347 20.9406 29.2118 23.0141 26.6125 23.8067C26.4834 23.8454 26.4112 23.9569 26.4129 24.0674C26.4147 24.1779 26.4906 24.2873 26.6208 24.3223C29.2261 25.04 31.3151 27.0545 32.1165 29.64Z" fill="#E9FF90"/>
<path d="M32.1165 29.64L31.6417 29.7873C31.6436 29.7935 31.6457 29.7996 31.6478 29.8056L32.1165 29.64ZM32.3236 29.8397L32.8205 29.8311C32.8167 29.5949 32.6467 29.3943 32.4141 29.3515L32.3236 29.8397ZM32.3239 29.8581L31.8269 29.8667C31.8313 30.1402 32.0565 30.3584 32.3304 30.3544L32.3239 29.8581ZM32.3979 29.857L32.4045 30.3534C32.5366 30.3515 32.6625 30.2971 32.7545 30.2024C32.8465 30.1077 32.897 29.9803 32.8949 29.8484L32.3979 29.857ZM32.3976 29.8386L32.2941 29.3533C32.0617 29.403 31.8969 29.61 31.9007 29.8472L32.3976 29.8386ZM32.5981 29.6331L33.0718 29.7827C33.0741 29.7755 33.0763 29.7682 33.0782 29.761L32.5981 29.6331ZM37.9191 24.1599L37.7767 23.6845L37.7745 23.6852L37.9191 24.1599ZM37.9107 23.6443L37.779 24.1231L37.7812 24.1237L37.9107 23.6443ZM32.4151 18.3265L32.8908 18.1824C32.8886 18.1752 32.8863 18.168 32.8838 18.1609L32.4151 18.3265ZM32.208 18.1269L31.7111 18.1355C31.7149 18.3717 31.8849 18.5723 32.1175 18.6151L32.208 18.1269ZM32.2077 18.1085L32.7047 18.0999C32.7003 17.8264 32.4751 17.6082 32.2012 17.6122L32.2077 18.1085ZM32.1336 18.1096L32.1271 17.6132C31.995 17.6151 31.8691 17.6694 31.7771 17.7642C31.6851 17.8589 31.6346 17.9863 31.6367 18.1182L32.1336 18.1096ZM32.1339 18.128L32.2375 18.6133C32.4699 18.5636 32.6347 18.3566 32.6309 18.1194L32.1339 18.128ZM31.9335 18.3335L31.4597 18.1839C31.4575 18.1911 31.4553 18.1983 31.4534 18.2056L31.9335 18.3335ZM26.6125 23.8067L26.7549 24.2821L26.7571 24.2814L26.6125 23.8067ZM26.6208 24.3223L26.7535 23.8438L26.7504 23.8429L26.6208 24.3223ZM31.6478 29.8056C31.7294 30.0368 31.9218 30.2706 32.233 30.3279L32.4141 29.3515C32.4708 29.3619 32.5157 29.389 32.5452 29.4174C32.5732 29.4444 32.583 29.4679 32.5853 29.4745L31.6478 29.8056ZM31.8266 29.8483L31.8269 29.8667L32.8208 29.8495L32.8205 29.8311L31.8266 29.8483ZM32.3304 30.3544C32.3397 30.3543 32.3443 30.3542 32.3489 30.3542C32.3535 30.3541 32.3583 30.354 32.3675 30.3539L32.3543 29.3612C32.3451 29.3614 32.3404 29.3614 32.3358 29.3615C32.3312 29.3616 32.3265 29.3616 32.3173 29.3618L32.3304 30.3544ZM32.3675 30.3539C32.3768 30.3538 32.3813 30.3537 32.386 30.3536C32.3906 30.3536 32.3952 30.3535 32.4045 30.3534L32.3914 29.3607C32.3821 29.3608 32.3776 29.3609 32.3729 29.361C32.3682 29.361 32.3636 29.3611 32.3543 29.3612L32.3675 30.3539ZM32.8949 29.8484L32.8946 29.83L31.9007 29.8472L31.901 29.8656L32.8949 29.8484ZM32.5012 30.324C32.8117 30.2575 32.9975 30.0169 33.0718 29.7827L32.1244 29.4836C32.1266 29.4766 32.1358 29.4523 32.1635 29.4239C32.1927 29.394 32.2373 29.3654 32.2941 29.3533L32.5012 30.324ZM33.0782 29.761C33.732 27.3218 35.6264 25.3778 38.0637 24.6346L37.7745 23.6852C35.0131 24.5271 32.8618 26.7303 32.118 29.5053L33.0782 29.761ZM38.0615 24.6353C38.405 24.5323 38.621 24.2221 38.6156 23.8906L37.6217 23.9078C37.6199 23.7972 37.6913 23.7101 37.7767 23.6845L38.0615 24.6353ZM38.6156 23.8906C38.6103 23.5595 38.3852 23.2575 38.0403 23.1649L37.7812 24.1237C37.6968 24.101 37.6235 24.0179 37.6217 23.9078L38.6156 23.8906ZM38.0425 23.1655C35.5812 22.4925 33.6236 20.6027 32.8908 18.1824L31.9393 18.4707C32.7723 21.222 34.9928 23.3612 37.779 24.1231L38.0425 23.1655ZM32.8838 18.1609C32.8022 17.9298 32.6098 17.696 32.2986 17.6387L32.1175 18.6151C32.0608 18.6046 32.0159 18.5776 31.9864 18.5492C31.9584 18.5222 31.9486 18.4987 31.9463 18.4921L32.8838 18.1609ZM32.705 18.1183L32.7047 18.0999L31.7108 18.1171L31.7111 18.1355L32.705 18.1183ZM32.2012 17.6122C32.1919 17.6123 32.1873 17.6124 32.1827 17.6124C32.178 17.6125 32.1734 17.6126 32.1641 17.6127L32.1773 18.6053C32.1865 18.6052 32.1912 18.6051 32.1958 18.6051C32.2004 18.605 32.2051 18.6049 32.2143 18.6048L32.2012 17.6122ZM32.1641 17.6127C32.1549 17.6128 32.1503 17.6129 32.1456 17.613C32.141 17.613 32.1363 17.6131 32.1271 17.6132L32.1402 18.6059C32.1495 18.6057 32.1541 18.6057 32.1587 18.6056C32.1634 18.6055 32.168 18.6055 32.1773 18.6053L32.1641 17.6127ZM31.6367 18.1182L31.637 18.1366L32.6309 18.1194L32.6306 18.1009L31.6367 18.1182ZM32.0304 17.6426C31.7199 17.709 31.5341 17.9497 31.4597 18.1839L32.4072 18.483C32.405 18.49 32.3958 18.5143 32.3681 18.5426C32.3389 18.5726 32.2943 18.6012 32.2375 18.6133L32.0304 17.6426ZM31.4534 18.2056C30.7996 20.6448 28.9052 22.5888 26.4679 23.332L26.7571 24.2814C29.5185 23.4395 31.6697 21.2363 32.4136 18.4613L31.4534 18.2056ZM26.4701 23.3313C26.1266 23.4343 25.9106 23.7445 25.916 24.076L26.9099 24.0588C26.9117 24.1694 26.8403 24.2565 26.7549 24.2821L26.4701 23.3313ZM25.916 24.076C25.9213 24.4071 26.1464 24.7091 26.4913 24.8017L26.7504 23.8429C26.8348 23.8656 26.9081 23.9488 26.9099 24.0588L25.916 24.076ZM26.4882 24.8008C28.9308 25.4737 30.8905 27.3638 31.6417 29.7873L32.5913 29.4928C31.7397 26.7452 29.5214 24.6063 26.7535 23.8438L26.4882 24.8008Z" fill="black"/>
<g clip-path="url(#clip0_1800_104918)">
<path d="M47.9504 16.6508C47.9504 16.6512 47.9509 16.6513 47.9511 16.651C48.3749 15.8291 48.96 15.194 49.7096 14.7409C50.4596 14.2891 51.3169 14.0615 52.2844 14.0615C53.5287 14.0615 54.5602 14.3902 55.3759 15.046C56.0688 15.603 56.5678 16.3511 56.8729 17.2902C56.9576 17.5509 56.7542 17.8072 56.4801 17.8072H54.59C54.4047 17.8072 54.2444 17.6853 54.1674 17.5168C54.0199 17.1937 53.8123 16.93 53.5447 16.7266C53.2008 16.4653 52.7738 16.3355 52.2669 16.3355C51.5408 16.3355 50.9666 16.612 50.5444 17.1666C50.1206 17.7212 49.9095 18.5084 49.9095 19.5266C49.9095 20.5448 50.1206 21.3134 50.5444 21.868C50.9682 22.4226 51.5424 22.6991 52.2669 22.6991C53.1861 22.6991 53.8208 22.3113 54.1697 21.5345C54.2452 21.3665 54.4051 21.246 54.5893 21.246H56.4775C56.753 21.246 56.9565 21.5045 56.8683 21.7654C56.5618 22.6711 56.0617 23.4095 55.3679 23.9785C54.5459 24.6545 53.5175 24.9917 52.2844 24.9917C51.3169 24.9917 50.458 24.7658 49.7096 24.3123C48.9595 23.8605 48.3742 23.2233 47.9504 22.4007C47.5265 21.5781 47.3154 20.6206 47.3154 19.5249C47.3154 18.4299 47.5263 17.4712 47.9496 16.6506C47.9498 16.6502 47.9504 16.6503 47.9504 16.6508Z" fill="black"/>
<path d="M60.0081 24.3181C60.0086 24.3181 60.0087 24.3175 60.0083 24.3173C59.2349 23.8655 58.6277 23.2252 58.1865 22.3964C57.7451 21.5687 57.5244 20.6129 57.5244 19.529C57.5244 18.4451 57.7515 17.491 58.2041 16.6616C58.6567 15.8339 59.2772 15.1933 60.0625 14.7399C60.8478 14.2881 61.7242 14.0605 62.6917 14.0605C63.6593 14.0605 64.5357 14.2864 65.321 14.7399C66.1062 15.1917 66.7268 15.8322 67.1794 16.6616C67.632 17.4893 67.8591 18.4451 67.8591 19.529C67.8591 20.6129 67.6256 21.567 67.1602 22.3964C66.6948 23.2241 66.0663 23.8646 65.2746 24.3181C64.483 24.7699 63.5969 24.9974 62.6182 24.9974C61.64 24.9974 60.7816 24.7718 60.0079 24.3189C60.0075 24.3187 60.0077 24.3181 60.0081 24.3181ZM63.9168 22.3112C63.9168 22.3107 63.9171 22.3102 63.9175 22.31C64.3218 22.074 64.6446 21.7201 64.8876 21.2501C65.1291 20.7781 65.2506 20.205 65.2506 19.5307C65.2506 18.5243 64.9995 17.7506 64.4973 17.2078C63.9952 16.6667 63.3826 16.3953 62.6566 16.3953C61.9305 16.3953 61.3243 16.6667 60.8334 17.2078C60.344 17.7489 60.0993 18.5243 60.0993 19.5307C60.0993 20.537 60.3376 21.3108 60.8158 21.8536C61.294 22.3947 61.8953 22.6661 62.6198 22.6661C63.0785 22.6661 63.5101 22.5482 63.9161 22.3125C63.9165 22.3123 63.9168 22.3118 63.9168 22.3112Z" fill="black"/>
<path d="M84.4631 15.2782C85.2179 16.0755 85.597 17.1864 85.597 18.6142V24.4008C85.597 24.6356 85.4066 24.826 85.1717 24.826H83.4841C83.2493 24.826 83.0589 24.6356 83.0589 24.4008V18.9766C83.0589 18.1489 82.859 17.5151 82.4607 17.0751C82.0625 16.6352 81.5172 16.416 80.8279 16.416C80.1386 16.416 79.5916 16.6352 79.187 17.0751C78.7824 17.5151 78.5793 18.1489 78.5793 18.9766V24.4008C78.5793 24.6356 78.3889 24.826 78.154 24.826H76.4664C76.2316 24.826 76.0412 24.6356 76.0412 24.4008V18.9766C76.0412 18.1489 75.8413 17.5151 75.443 17.0751C75.0448 16.6352 74.4994 16.416 73.8117 16.416C73.1241 16.416 72.5579 16.6352 72.1517 17.0751C71.7471 17.5151 71.5439 18.1489 71.5439 18.9766V24.4008C71.5439 24.6356 71.3536 24.826 71.1187 24.826H69.4311C69.1963 24.826 69.0059 24.6356 69.0059 24.4008V14.6617C69.0059 14.4268 69.1963 14.2364 69.4311 14.2364H71.2288C71.4028 14.2364 71.5439 14.3775 71.5439 14.5516C71.5439 14.8565 71.975 15.0147 72.2173 14.8297C72.3971 14.6924 72.5928 14.5712 72.8042 14.4657C73.3176 14.2111 73.8837 14.083 74.4994 14.083C75.2847 14.083 75.9868 14.2583 76.6025 14.6089C76.9859 14.8273 77.316 15.1038 77.5924 15.438C77.8102 15.7015 78.2659 15.7043 78.4884 15.4447C78.7573 15.1309 79.0809 14.8619 79.4589 14.6376C80.081 14.2684 80.7559 14.083 81.4804 14.083C82.7134 14.083 83.7082 14.4808 84.4631 15.2782Z" fill="black"/>
<path d="M102.741 15.2782C103.496 16.0755 103.875 17.1864 103.875 18.6142V24.4008C103.875 24.6356 103.685 24.826 103.45 24.826H101.762C101.528 24.826 101.337 24.6356 101.337 24.4008V18.9766C101.337 18.1489 101.137 17.5151 100.739 17.0751C100.341 16.6352 99.7955 16.416 99.1062 16.416C98.4169 16.416 97.8699 16.6352 97.4653 17.0751C97.0607 17.5151 96.8576 18.1489 96.8576 18.9766V24.4008C96.8576 24.6356 96.6672 24.826 96.4323 24.826H94.7447C94.5099 24.826 94.3195 24.6356 94.3195 24.4008V18.9766C94.3195 18.1489 94.1196 17.5151 93.7214 17.0751C93.3231 16.6352 92.7778 16.416 92.0901 16.416C91.4024 16.416 90.8362 16.6352 90.43 17.0751C90.0254 17.5151 89.8223 18.1489 89.8223 18.9766V24.4008C89.8223 24.6356 89.6319 24.826 89.397 24.826H87.7094C87.4746 24.826 87.2842 24.6356 87.2842 24.4008V14.6617C87.2842 14.4268 87.4746 14.2364 87.7094 14.2364H89.5071C89.6812 14.2364 89.8223 14.3775 89.8223 14.5516C89.8223 14.8565 90.2533 15.0147 90.4956 14.8297C90.6755 14.6924 90.8711 14.5712 91.0825 14.4657C91.5959 14.2111 92.162 14.083 92.7778 14.083C93.563 14.083 94.2651 14.2583 94.8808 14.6089C95.2642 14.8273 95.5943 15.1038 95.8707 15.438C96.0885 15.7015 96.5442 15.7043 96.7667 15.4447C97.0356 15.1309 97.3593 14.8619 97.7372 14.6376C98.3593 14.2684 99.0342 14.083 99.7587 14.083C100.992 14.083 101.987 14.4808 102.741 15.2782Z" fill="black"/>
<path d="M114.619 14.2363C114.854 14.2363 115.044 14.4267 115.044 14.6616V24.4007C115.044 24.6356 114.854 24.8259 114.619 24.8259H112.811C112.632 24.8259 112.487 24.6809 112.487 24.5019C112.487 24.1863 112.035 24.0222 111.783 24.213C111.607 24.3467 111.416 24.4651 111.209 24.568C110.683 24.8293 110.112 24.9591 109.496 24.9591C108.711 24.9591 108.015 24.7838 107.411 24.4332C106.806 24.0826 106.331 23.5667 105.987 22.8857C105.643 22.2047 105.471 21.3922 105.471 20.4482V14.6616C105.471 14.4267 105.661 14.2363 105.896 14.2363H107.584C107.818 14.2363 108.009 14.4267 108.009 14.6616V20.0655C108.009 20.9067 108.209 21.554 108.607 22.0058C109.005 22.4575 109.551 22.6851 110.238 22.6851C110.926 22.6851 111.489 22.4592 111.889 22.0058C112.287 21.554 112.487 20.9067 112.487 20.0655V14.6616C112.487 14.4267 112.677 14.2363 112.912 14.2363H114.619Z" fill="black"/>
<path d="M125.291 15.2782C125.29 15.2782 125.29 15.2785 125.29 15.2788C126.027 16.0761 126.397 17.1867 126.397 18.6142V24.4008C126.397 24.6356 126.206 24.826 125.971 24.826H124.284C124.049 24.826 123.859 24.6356 123.859 24.4008V18.9766C123.859 18.1355 123.659 17.4898 123.26 17.0364C122.862 16.5846 122.317 16.357 121.629 16.357C120.941 16.357 120.375 16.5829 119.969 17.0364C119.564 17.4881 119.361 18.1355 119.361 18.9766V24.4008C119.361 24.6356 119.171 24.826 118.936 24.826H117.249C117.014 24.826 116.823 24.6356 116.823 24.4008V14.6617C116.823 14.4268 117.014 14.2364 117.249 14.2364H119.035C119.215 14.2364 119.361 14.3827 119.361 14.5632C119.361 14.8783 119.803 15.041 120.054 14.8494C120.239 14.7073 120.441 14.5822 120.658 14.4741C121.185 14.2128 121.762 14.083 122.39 14.083C123.586 14.083 124.554 14.4806 125.291 15.2776C125.291 15.2778 125.291 15.2782 125.291 15.2782Z" fill="black"/>
<path d="M128.255 12.5245C127.959 12.2261 127.811 11.8519 127.811 11.4068C127.811 10.9618 127.958 10.5876 128.255 10.2892C128.551 9.99085 128.924 9.84082 129.37 9.84082C129.816 9.84082 130.189 9.99085 130.485 10.2892C130.78 10.5893 130.929 10.9618 130.929 11.4068C130.929 11.8519 130.78 12.2261 130.485 12.5245C130.189 12.8245 129.816 12.9729 129.37 12.9729C128.924 12.9729 128.551 12.8228 128.255 12.5245ZM130.197 14.2355C130.432 14.2355 130.622 14.4259 130.622 14.6607V24.3998C130.622 24.6347 130.432 24.8251 130.197 24.8251H128.509C128.274 24.8251 128.084 24.6347 128.084 24.3998V14.6607C128.084 14.4259 128.274 14.2355 128.509 14.2355H130.197Z" fill="black"/>
<path d="M135.354 16.4345V21.5574C135.354 21.9147 135.436 22.1727 135.599 22.3311C135.762 22.4913 136.037 22.5705 136.424 22.5705H137.177C137.412 22.5705 137.603 22.7609 137.603 22.9957V24.4007C137.603 24.6356 137.412 24.826 137.177 24.826H136.007C133.867 24.826 132.797 23.7302 132.797 21.5388V16.8614C132.797 16.6266 132.606 16.4362 132.372 16.4362H132.026C131.791 16.4362 131.601 16.2458 131.601 16.0109V14.6633C131.601 14.4284 131.791 14.238 132.026 14.238H132.372C132.606 14.238 132.797 14.0476 132.797 13.8128V12.0454C132.797 11.8105 132.987 11.6201 133.222 11.6201H134.929C135.164 11.6201 135.354 11.8105 135.354 12.0454V13.8128C135.354 14.0476 135.545 14.238 135.779 14.238H137.177C137.412 14.238 137.603 14.4284 137.603 14.6633V16.0109C137.603 16.2458 137.412 16.4362 137.177 16.4362H135.356C135.355 16.4362 135.354 16.4354 135.354 16.4345Z" fill="black"/>
<path d="M138.88 12.5245C138.584 12.2261 138.436 11.8519 138.436 11.4068C138.436 10.9618 138.583 10.5876 138.88 10.2892C139.176 9.99085 139.549 9.84082 139.995 9.84082C140.441 9.84082 140.814 9.99085 141.11 10.2892C141.405 10.5893 141.554 10.9618 141.554 11.4068C141.554 11.8519 141.405 12.2261 141.11 12.5245C140.814 12.8245 140.441 12.9729 139.995 12.9729C139.549 12.9729 139.176 12.8228 138.88 12.5245ZM140.822 14.2355C141.057 14.2355 141.247 14.4259 141.247 14.6607V24.3998C141.247 24.6347 141.057 24.8251 140.822 24.8251H139.134C138.899 24.8251 138.709 24.6347 138.709 24.3998V14.6607C138.709 14.4259 138.899 14.2355 139.134 14.2355H140.822Z" fill="black"/>
<path d="M152.289 20.3302C152.29 20.3316 152.289 20.3331 152.287 20.3331H145.407C145.159 20.3331 144.96 20.5457 145.009 20.7889C145.121 21.3402 145.353 21.7869 145.708 22.13C146.156 22.5633 146.706 22.779 147.358 22.779C148.209 22.779 148.838 22.4323 149.246 21.7375C149.33 21.5951 149.477 21.4979 149.642 21.4979H151.547C151.829 21.4979 152.034 21.7685 151.928 22.0302C151.612 22.813 151.116 23.4734 150.442 24.0113C149.62 24.667 148.611 24.9957 147.413 24.9957C146.445 24.9957 145.578 24.7699 144.811 24.3164C144.043 23.8646 143.445 23.2241 143.015 22.3947C142.586 21.567 142.37 20.6112 142.37 19.5273C142.37 18.4434 142.581 17.469 143.005 16.6414C143.429 15.8137 144.021 15.1765 144.782 14.7298C145.543 14.2831 146.42 14.0605 147.411 14.0605C148.403 14.0605 149.222 14.278 149.976 14.7112C150.731 15.1445 151.318 15.7597 151.736 16.5554C152.153 17.3527 152.361 18.2664 152.361 19.298C152.361 19.6804 152.337 20.0241 152.289 20.3291C152.289 20.3295 152.289 20.3299 152.289 20.3302ZM149.734 18.5352C149.734 18.5356 149.733 18.5353 149.733 18.5349C149.72 17.8477 149.485 17.2969 149.026 16.8824C148.567 16.4677 148.004 16.2604 147.341 16.2604C146.712 16.2604 146.183 16.461 145.754 16.8622C145.426 17.1692 145.195 17.568 145.061 18.0578C144.993 18.3061 145.195 18.5344 145.452 18.5344H149.734C149.734 18.5344 149.734 18.5349 149.734 18.5352Z" fill="black"/>
<path d="M155.12 24.5317C155.12 24.5301 155.119 24.5287 155.117 24.528C154.466 24.2163 153.95 23.7918 153.57 23.2581C153.278 22.8485 153.087 22.4043 152.997 21.9269C152.953 21.6871 153.149 21.4814 153.393 21.4814H155.123C155.339 21.4814 155.513 21.6465 155.59 21.8481C155.685 22.0962 155.845 22.3115 156.073 22.4945C156.405 22.7625 156.819 22.8957 157.315 22.8957C157.811 22.8957 158.177 22.7946 158.449 22.5906C158.721 22.3866 158.857 22.1253 158.857 21.8067C158.857 21.4629 158.691 21.2049 158.358 21.033C158.025 20.8611 157.496 20.6739 156.771 20.47C156.021 20.2795 155.409 20.0823 154.931 19.8783C154.452 19.6743 154.041 19.3625 153.698 18.941C153.354 18.5196 153.181 17.9532 153.181 17.2402C153.181 16.6535 153.341 16.1192 153.661 15.6354C153.981 15.1516 154.441 14.7689 155.039 14.4891C155.638 14.2092 156.341 14.0693 157.152 14.0693C158.348 14.0693 159.303 14.3846 160.018 15.015C160.628 15.5541 161.004 16.2545 161.145 17.1154C161.185 17.3582 160.988 17.5672 160.742 17.5672H159.157C158.937 17.5672 158.76 17.3953 158.691 17.186C158.609 16.9394 158.468 16.7317 158.268 16.5642C157.973 16.3164 157.576 16.1916 157.08 16.1916C156.621 16.1916 156.268 16.281 156.02 16.4597C155.772 16.6384 155.649 16.8862 155.649 17.2048C155.649 17.5621 155.818 17.8318 156.156 18.0173C156.495 18.2027 157.019 18.3898 157.733 18.5803C158.459 18.7708 159.057 18.9697 159.529 19.1737C160 19.3776 160.408 19.6929 160.752 20.1193C161.096 20.5458 161.275 21.1105 161.286 21.8101C161.286 22.422 161.126 22.9699 160.806 23.4537C160.487 23.9375 160.026 24.3168 159.428 24.5915C158.83 24.8646 158.131 25.0028 157.333 25.0028C156.536 25.0028 155.775 24.8465 155.123 24.5354C155.122 24.5346 155.121 24.5333 155.12 24.5317Z" fill="black"/>
</g>
<defs>
<clipPath id="clip0_1800_104918">
<rect width="113.969" height="15.1579" fill="white" transform="translate(47.3164 9.83984)"/>
</clipPath>
</defs>
</svg>
