<svg width="14" height="15" viewBox="0 0 14 15" fill="none" xmlns="http://www.w3.org/2000/svg">
<path fill-rule="evenodd" clip-rule="evenodd" d="M0.88 0.75C0.532061 0.75 0.25 1.03206 0.25 1.38V5.91998C0.25 6.26792 0.53206 6.54998 0.88 6.54998H5.41998C5.76792 6.54998 6.04998 6.26792 6.04998 5.91998V1.38C6.04998 1.03206 5.76792 0.75 5.41998 0.75H0.88ZM1.15 5.64998V1.65H5.14998V5.64998H1.15ZM8.58313 0.75C8.23519 0.75 7.95312 1.03206 7.95312 1.38V5.91998C7.95312 6.26792 8.23518 6.54998 8.58312 6.54998H13.1231C13.471 6.54998 13.7531 6.26792 13.7531 5.91998V1.38C13.7531 1.03206 13.471 0.75 13.1231 0.75H8.58313ZM8.85312 5.64998V1.65H12.8531V5.64998H8.85312ZM7.95312 9.07922C7.95312 8.73128 8.23519 8.44922 8.58313 8.44922H13.1231C13.471 8.44922 13.7531 8.73128 13.7531 9.07922V13.6192C13.7531 13.9671 13.471 14.2492 13.1231 14.2492H8.58312C8.23518 14.2492 7.95312 13.9671 7.95312 13.6192V9.07922ZM8.85312 9.34922V13.3492H12.8531V9.34922H8.85312ZM0.88 8.44922C0.532061 8.44922 0.25 8.73128 0.25 9.07922V13.6192C0.25 13.9671 0.53206 14.2492 0.88 14.2492H5.41998C5.76792 14.2492 6.04998 13.9671 6.04998 13.6192V9.07922C6.04998 8.73128 5.76792 8.44922 5.41998 8.44922H0.88ZM1.15 13.3492V9.34922H5.14998V13.3492H1.15Z" fill="url(#paint0_linear_15740_251341)"/>
<defs>
<linearGradient id="paint0_linear_15740_251341" x1="13.909" y1="-15.4746" x2="7.00155" y2="14.2492" gradientUnits="userSpaceOnUse">
<stop stop-color="#7427FF"/>
<stop offset="1" stop-color="#F2C678"/>
</linearGradient>
</defs>
</svg>
