<svg width="15" height="12" viewBox="0 0 15 12" fill="none" xmlns="http://www.w3.org/2000/svg">
<path d="M10.7083 11.4434V10.2767C10.7083 9.65785 10.4625 9.06436 10.0249 8.62678C9.58733 8.18919 8.99384 7.94336 8.375 7.94336H3.70833C3.08949 7.94336 2.496 8.18919 2.05842 8.62678C1.62083 9.06436 1.375 9.65785 1.375 10.2767V11.4434" stroke="white" stroke-linecap="round" stroke-linejoin="round"/>
<path d="M6.04427 5.61003C7.33294 5.61003 8.37761 4.56536 8.37761 3.27669C8.37761 1.98803 7.33294 0.943359 6.04427 0.943359C4.75561 0.943359 3.71094 1.98803 3.71094 3.27669C3.71094 4.56536 4.75561 5.61003 6.04427 5.61003Z" stroke="white" stroke-linecap="round" stroke-linejoin="round"/>
<path d="M14.2109 11.4437V10.277C14.2106 9.76004 14.0385 9.25781 13.7217 8.84921C13.405 8.44061 12.9615 8.14878 12.4609 8.01953" stroke="white" stroke-linecap="round" stroke-linejoin="round"/>
<path d="M10.125 1.01953C10.6269 1.14804 11.0718 1.43994 11.3895 1.84921C11.7071 2.25848 11.8796 2.76185 11.8796 3.27995C11.8796 3.79805 11.7071 4.30141 11.3895 4.71068C11.0718 5.11996 10.6269 5.41186 10.125 5.54036" stroke="white" stroke-linecap="round" stroke-linejoin="round"/>
</svg>
