<svg width="23" height="23" viewBox="0 0 23 23" fill="none"
    xmlns="http://www.w3.org/2000/svg">
    <path d="M15.2898 13.28V10.1078C15.2897 9.96877 15.253 9.83218 15.1834 9.71177C15.1138 9.59137 15.0137 9.49138 14.8933 9.42185L12.1176 7.83574C11.997 7.76614 11.8603 7.72949 11.7211 7.72949C11.5819 7.72949 11.4451 7.76614 11.3246 7.83574L8.54887 9.42185C8.42843 9.49138 8.32839 9.59137 8.2588 9.71177C8.1892 9.83218 8.15249 9.96877 8.15234 10.1078V13.28C8.15249 13.4191 8.1892 13.5557 8.2588 13.6761C8.32839 13.7965 8.42843 13.8965 8.54887 13.966L11.3246 15.5521C11.4451 15.6217 11.5819 15.6584 11.7211 15.6584C11.8603 15.6584 11.997 15.6217 12.1176 15.5521L14.8933 13.966C15.0137 13.8965 15.1138 13.7965 15.1834 13.6761C15.253 13.5557 15.2897 13.4191 15.2898 13.28Z" stroke="white" stroke-width="0.6875" stroke-linecap="round"/>
    <path d="M17.1663 14.1156V9.2726C17.166 9.06028 17.11 8.85175 17.0037 8.66793C16.8975 8.48411 16.7448 8.33147 16.5609 8.22531L12.3233 5.80381C12.1392 5.69755 11.9304 5.6416 11.7179 5.6416C11.5054 5.6416 11.2966 5.69755 11.1125 5.80381L6.87491 8.22531C6.69103 8.33147 6.53831 8.48411 6.43205 8.66793C6.3258 8.85175 6.26975 9.06028 6.26953 9.2726V14.1156C6.26975 14.3279 6.3258 14.5364 6.43205 14.7203C6.53831 14.9041 6.69103 15.0567 6.87491 15.1629L11.1125 17.5844C11.2966 17.6907 11.5054 17.7466 11.7179 17.7466C11.9304 17.7466 12.1392 17.6907 12.3233 17.5844L16.5609 15.1629C16.7448 15.0567 16.8975 14.9041 17.0037 14.7203C17.11 14.5364 17.166 14.3279 17.1663 14.1156Z" stroke="white" stroke-width="0.6875" stroke-linecap="round"/>
</svg>
