<svg width="12" height="13" viewBox="0 0 12 13" fill="none"
    xmlns="http://www.w3.org/2000/svg">
    <path d="M9.01684 4.49385C9.01684 3.6185 8.66911 2.77901 8.05015 2.16005C7.43119 1.54109 6.5917 1.19336 5.71635 1.19336C4.84101 1.19336 4.00152 1.54109 3.38256 2.16005C2.7636 2.77901 2.41587 3.6185 2.41587 4.49385C2.41587 8.34441 0.765625 9.44457 0.765625 9.44457H10.6671C10.6671 9.44457 9.01684 8.34441 9.01684 4.49385Z" stroke="white" stroke-width="0.6875" stroke-linecap="round" stroke-linejoin="round"/>
    <path d="M6.6689 11.6455C6.57219 11.8122 6.43338 11.9506 6.26637 12.0468C6.09936 12.143 5.91 12.1936 5.71726 12.1936C5.52453 12.1936 5.33517 12.143 5.16816 12.0468C5.00115 11.9506 4.86233 11.8122 4.76562 11.6455" stroke="white" stroke-width="0.6875" stroke-linecap="round" stroke-linejoin="round"/>
</svg>
