<svg width="14" height="14" viewBox="0 0 14 14" fill="none" xmlns="http://www.w3.org/2000/svg">
<path d="M12.3209 9.52956C11.9392 10.4324 11.3421 11.2279 10.5818 11.8467C9.82155 12.4654 8.9213 12.8885 7.95975 13.079C6.99821 13.2694 6.00465 13.2214 5.06594 12.9392C4.12723 12.6569 3.27196 12.149 2.57489 11.4598C1.87782 10.7707 1.36018 9.92127 1.06723 8.98585C0.774281 8.05043 0.714936 7.05748 0.894385 6.09383C1.07383 5.13017 1.48661 4.22514 2.09663 3.45787C2.70666 2.69059 3.49535 2.08443 4.39375 1.69238" stroke="white" stroke-linecap="round" stroke-linejoin="round"/>
<path d="M12.7939 7.19426C12.7939 6.40621 12.6387 5.62588 12.3371 4.89782C12.0355 4.16975 11.5935 3.50822 11.0362 2.95098C10.479 2.39375 9.81748 1.95172 9.08942 1.65015C8.36135 1.34858 7.58102 1.19336 6.79297 1.19336V7.19426H12.7939Z" stroke="white" stroke-linecap="round" stroke-linejoin="round"/>
</svg>
