<svg width="15" height="13" viewBox="0 0 15 13" fill="none" xmlns="http://www.w3.org/2000/svg">
<path fill-rule="evenodd" clip-rule="evenodd" d="M1.43578 1.77401C1.43574 1.77401 1.43596 1.77346 1.4366 1.77236C1.43615 1.77346 1.43583 1.77401 1.43578 1.77401ZM1.45705 1.74782C1.46101 1.74382 1.46566 1.73935 1.47111 1.73443C1.52358 1.68699 1.6193 1.62616 1.7726 1.55912C2.07697 1.42599 2.5376 1.29841 3.13183 1.18848C4.31497 0.969617 5.9631 0.832225 7.79297 0.832225C9.62284 0.832225 11.271 0.969617 12.4541 1.18848C13.0483 1.29841 13.509 1.42599 13.8133 1.55912C13.9666 1.62616 14.0624 1.68699 14.1148 1.73443C14.1203 1.73935 14.1249 1.74382 14.1289 1.74782C14.1249 1.75182 14.1203 1.75628 14.1148 1.7612C14.0624 1.80864 13.9666 1.86947 13.8133 1.93652C13.509 2.06964 13.0483 2.19723 12.4541 2.30715C11.271 2.52602 9.62284 2.66341 7.79297 2.66341C5.9631 2.66341 4.31497 2.52602 3.13183 2.30715C2.5376 2.19723 2.07697 2.06964 1.7726 1.93652C1.6193 1.86947 1.52358 1.80864 1.47111 1.7612C1.46566 1.75628 1.46101 1.75182 1.45705 1.74782ZM14.1502 1.77401C14.1501 1.77401 14.1498 1.77345 14.1493 1.77233C14.15 1.77345 14.1502 1.77401 14.1502 1.77401ZM14.1493 1.72332C14.1498 1.72219 14.1501 1.72163 14.1502 1.72163C14.1502 1.72162 14.15 1.72219 14.1493 1.72332ZM1.4366 1.72327C1.43596 1.72217 1.43574 1.72163 1.43578 1.72163C1.43583 1.72163 1.43615 1.72218 1.4366 1.72327ZM3.01249 0.560561C4.24568 0.332437 5.93566 0.193359 7.79297 0.193359C9.65028 0.193359 11.3403 0.332437 12.5734 0.560561C13.1874 0.674131 13.7045 0.812673 14.0758 0.975065C14.2603 1.05577 14.4269 1.15005 14.5523 1.2634C14.6771 1.37621 14.793 1.53849 14.793 1.74782C14.793 1.95715 14.6771 2.11943 14.5523 2.23223C14.4269 2.34559 14.2603 2.43986 14.0758 2.52057C13.7045 2.68296 13.1874 2.8215 12.5734 2.93507C11.3403 3.1632 9.65028 3.30228 7.79297 3.30228C5.93566 3.30228 4.24568 3.1632 3.01249 2.93507C2.39856 2.8215 1.88148 2.68296 1.51018 2.52057C1.32564 2.43986 1.15904 2.34559 1.03365 2.23223C0.908865 2.11943 0.792969 1.95715 0.792969 1.74782C0.792969 1.53849 0.908865 1.37621 1.03365 1.2634C1.15904 1.15005 1.32564 1.05577 1.51018 0.975065C1.88148 0.812673 2.39856 0.674131 3.01249 0.560561ZM1.43578 6.22049C1.43574 6.22049 1.43596 6.21994 1.4366 6.21884L1.4363 6.21954L1.43578 6.22049ZM1.45705 6.1943C1.46101 6.19029 1.46566 6.18583 1.47111 6.18091C1.52358 6.13347 1.6193 6.07264 1.7726 6.00559C2.07697 5.87247 2.5376 5.74489 3.13183 5.63496C4.31497 5.41609 5.9631 5.2787 7.79297 5.2787C9.62284 5.2787 11.271 5.41609 12.4541 5.63496C13.0483 5.74489 13.509 5.87247 13.8133 6.00559C13.9666 6.07264 14.0624 6.13347 14.1148 6.18091C14.1203 6.18583 14.1249 6.19029 14.1289 6.1943C14.1249 6.1983 14.1203 6.20276 14.1148 6.20768C14.0624 6.25512 13.9666 6.31595 13.8133 6.383C13.509 6.51612 13.0483 6.6437 12.4541 6.75363C11.271 6.9725 9.62284 7.10989 7.79297 7.10989C5.9631 7.10989 4.31497 6.9725 3.13183 6.75363C2.5376 6.6437 2.07697 6.51612 1.7726 6.383C1.6193 6.31595 1.52358 6.25512 1.47111 6.20768C1.46566 6.20276 1.46101 6.1983 1.45705 6.1943ZM14.1502 6.22049C14.1501 6.22049 14.1498 6.21993 14.1493 6.2188L14.1498 6.21974C14.1501 6.22024 14.1502 6.22049 14.1502 6.22049ZM14.1493 6.1698C14.1498 6.16867 14.1501 6.1681 14.1502 6.1681C14.1502 6.1681 14.15 6.16867 14.1493 6.1698ZM1.4366 6.16975C1.43596 6.16865 1.43574 6.1681 1.43578 6.1681C1.43583 6.1681 1.43615 6.16865 1.4366 6.16975ZM3.01249 5.00704C4.24568 4.77891 5.93566 4.63984 7.79297 4.63984C9.65028 4.63984 11.3403 4.77891 12.5734 5.00704C13.1874 5.12061 13.7045 5.25915 14.0758 5.42154C14.2603 5.50225 14.4269 5.59652 14.5523 5.70988C14.6771 5.82268 14.793 5.98496 14.793 6.1943C14.793 6.40363 14.6771 6.56591 14.5523 6.67871C14.4269 6.79207 14.2603 6.88634 14.0758 6.96705C13.7045 7.12944 13.1874 7.26798 12.5734 7.38155C11.3403 7.60968 9.65028 7.74875 7.79297 7.74875C5.93566 7.74875 4.24568 7.60968 3.01249 7.38155C2.39856 7.26798 1.88148 7.12944 1.51018 6.96705C1.32564 6.88634 1.15904 6.79207 1.03365 6.67871C0.908865 6.56591 0.792969 6.40363 0.792969 6.1943C0.792969 5.98496 0.908865 5.82268 1.03365 5.70988C1.15904 5.59652 1.32564 5.50225 1.51018 5.42154C1.88148 5.25915 2.39856 5.12061 3.01249 5.00704ZM1.43578 10.6651C1.43574 10.6651 1.43596 10.6645 1.4366 10.6634C1.43615 10.6645 1.43583 10.6651 1.43578 10.6651ZM1.47111 10.6255C1.46566 10.6304 1.46101 10.6349 1.45705 10.6389C1.46101 10.6429 1.46566 10.6474 1.47111 10.6523C1.52358 10.6997 1.6193 10.7606 1.7726 10.8276C2.07697 10.9607 2.5376 11.0883 3.13183 11.1982C4.31497 11.4171 5.9631 11.5545 7.79297 11.5545C9.62284 11.5545 11.271 11.4171 12.4541 11.1982C13.0483 11.0883 13.509 10.9607 13.8133 10.8276C13.9666 10.7606 14.0624 10.6997 14.1148 10.6523C14.1203 10.6474 14.1249 10.6429 14.1289 10.6389C14.1249 10.6349 14.1203 10.6304 14.1148 10.6255C14.0624 10.5781 13.9666 10.5172 13.8133 10.4502C13.509 10.3171 13.0483 10.1895 12.4541 10.0796C11.271 9.8607 9.62284 9.72331 7.79297 9.72331C5.9631 9.72331 4.31497 9.8607 3.13183 10.0796C2.5376 10.1895 2.07697 10.3171 1.7726 10.4502C1.6193 10.5172 1.52358 10.5781 1.47111 10.6255ZM14.1502 10.6651C14.1501 10.6651 14.1498 10.6645 14.1493 10.6634C14.15 10.6645 14.1502 10.6651 14.1502 10.6651ZM14.1493 10.6144C14.1498 10.6133 14.1501 10.6127 14.1502 10.6127C14.1502 10.6127 14.15 10.6133 14.1493 10.6144ZM1.4366 10.6144C1.43596 10.6133 1.43574 10.6127 1.43578 10.6127C1.43583 10.6127 1.43615 10.6133 1.4366 10.6144ZM7.79297 9.08444C5.93566 9.08444 4.24568 9.22352 3.01249 9.45164C2.39856 9.56522 1.88148 9.70376 1.51018 9.86615C1.32564 9.94686 1.15904 10.0411 1.03365 10.1545C0.908865 10.2673 0.792969 10.4296 0.792969 10.6389C0.792969 10.8482 0.908865 11.0105 1.03365 11.1233C1.15904 11.2367 1.32564 11.3309 1.51018 11.4117C1.88148 11.574 2.39856 11.7126 3.01249 11.8262C4.24568 12.0543 5.93566 12.1934 7.79297 12.1934C9.65028 12.1934 11.3403 12.0543 12.5734 11.8262C13.1874 11.7126 13.7045 11.574 14.0758 11.4117C14.2603 11.3309 14.4269 11.2367 14.5523 11.1233C14.6771 11.0105 14.793 10.8482 14.793 10.6389C14.793 10.4296 14.6771 10.2673 14.5523 10.1545C14.4269 10.0411 14.2603 9.94686 14.0758 9.86615C13.7045 9.70376 13.1874 9.56522 12.5734 9.45164C11.3403 9.22352 9.65028 9.08444 7.79297 9.08444Z" fill="white"/>
</svg>
