<svg width="16" height="15" viewBox="0 0 16 15" fill="none"
    xmlns="http://www.w3.org/2000/svg">
    <mask id="path-1-inside-1_15740_251350" fill="white">
        <path fill-rule="evenodd" clip-rule="evenodd" d="M1.55579 2.4489C1.44267 2.49979 1.44267 2.64355 1.55579 2.69444C1.87315 2.8372 2.3606 2.97685 2.99803 3.09813C4.26548 3.33929 6.03565 3.49138 8.00415 3.49138C9.97264 3.49138 11.7428 3.33929 13.0103 3.09813C13.6477 2.97685 14.1351 2.8372 14.4525 2.69444C14.5656 2.64355 14.5656 2.49978 14.4525 2.4489C14.1351 2.30613 13.6477 2.16649 13.0103 2.0452C11.7428 1.80404 9.97264 1.65195 8.00415 1.65195C6.03565 1.65195 4.26548 1.80404 2.99803 2.0452C2.3606 2.16649 1.87315 2.30613 1.55579 2.4489ZM2.8298 1.16106C4.16776 0.906487 5.99692 0.751953 8.00415 0.751953C10.0114 0.751953 11.8405 0.906487 13.1785 1.16106C13.8438 1.28765 14.4105 1.44315 14.8217 1.62813C15.0259 1.71996 15.2166 1.82994 15.363 1.96607C15.509 2.1018 15.6528 2.30491 15.6528 2.57167C15.6528 2.83843 15.509 3.04153 15.363 3.17726C15.2166 3.31339 15.0259 3.42338 14.8217 3.51521C14.4105 3.70018 13.8438 3.85569 13.1785 3.98227C11.8405 4.23685 10.0114 4.39138 8.00415 4.39138C5.99692 4.39138 4.16776 4.23685 2.8298 3.98227C2.16452 3.85569 1.59775 3.70018 1.18656 3.51521C0.982427 3.42338 0.791693 3.31339 0.645293 3.17726C0.499323 3.04153 0.355469 2.83843 0.355469 2.57167C0.355469 2.30491 0.499323 2.1018 0.645293 1.96607C0.791693 1.82994 0.982427 1.71996 1.18656 1.62813C1.59775 1.44315 2.16452 1.28765 2.8298 1.16106ZM1.55579 7.37956C1.44268 7.43045 1.44268 7.57421 1.55579 7.6251C1.87315 7.76786 2.3606 7.90751 2.99803 8.0288C4.26548 8.26996 6.03565 8.42205 8.00415 8.42205C9.97264 8.42205 11.7428 8.26996 13.0103 8.0288C13.6477 7.90751 14.1351 7.76786 14.4525 7.6251C14.5656 7.57421 14.5656 7.43045 14.4525 7.37956C14.1351 7.2368 13.6477 7.09715 13.0103 6.97587C11.7428 6.7347 9.97264 6.58262 8.00415 6.58262C6.03565 6.58262 4.26548 6.7347 2.99803 6.97587C2.3606 7.09715 1.87315 7.2368 1.55579 7.37956ZM2.8298 6.09173C4.16776 5.83715 5.99692 5.68262 8.00415 5.68262C10.0114 5.68262 11.8405 5.83715 13.1785 6.09173C13.8438 6.21831 14.4105 6.37381 14.8217 6.55879C15.0259 6.65062 15.2166 6.76061 15.363 6.89674C15.509 7.03247 15.6528 7.23557 15.6528 7.50233C15.6528 7.76909 15.509 7.9722 15.363 8.10792C15.2166 8.24405 15.0259 8.35404 14.8217 8.44587C14.4105 8.63085 13.8438 8.78635 13.1785 8.91293C11.8405 9.16751 10.0114 9.32205 8.00415 9.32205C5.99692 9.32205 4.16776 9.16751 2.8298 8.91293C2.16452 8.78635 1.59775 8.63085 1.18656 8.44587C0.982427 8.35404 0.791693 8.24405 0.645293 8.10792C0.499323 7.9722 0.355469 7.76909 0.355469 7.50233C0.355469 7.23557 0.499323 7.03247 0.645293 6.89674C0.791693 6.76061 0.982427 6.65062 1.18656 6.55879C1.59775 6.37381 2.16452 6.21831 2.8298 6.09173ZM1.55579 12.5558C1.44268 12.5049 1.44268 12.3611 1.55579 12.3102C1.87315 12.1675 2.3606 12.0278 2.99803 11.9065C4.26548 11.6654 6.03565 11.5133 8.00415 11.5133C9.97264 11.5133 11.7428 11.6654 13.0103 11.9065C13.6477 12.0278 14.1351 12.1675 14.4525 12.3102C14.5656 12.3611 14.5656 12.5049 14.4525 12.5558C14.1351 12.6985 13.6477 12.8382 13.0103 12.9595C11.7428 13.2006 9.97264 13.3527 8.00415 13.3527C6.03565 13.3527 4.26548 13.2006 2.99803 12.9595C2.3606 12.8382 1.87315 12.6985 1.55579 12.5558ZM8.00415 10.6133C5.99692 10.6133 4.16776 10.7678 2.8298 11.0224C2.16452 11.149 1.59775 11.3045 1.18656 11.4895C0.982427 11.5813 0.791693 11.6913 0.645293 11.8274C0.499323 11.9631 0.355469 12.1662 0.355469 12.433C0.355469 12.6998 0.499323 12.9029 0.645293 13.0386C0.791693 13.1747 0.982427 13.2847 1.18656 13.3765C1.59775 13.5615 2.16452 13.717 2.8298 13.8436C4.16776 14.0982 5.99692 14.2527 8.00415 14.2527C10.0114 14.2527 11.8405 14.0982 13.1785 13.8436C13.8438 13.717 14.4105 13.5615 14.8217 13.3765C15.0259 13.2847 15.2166 13.1747 15.363 13.0386C15.509 12.9029 15.6528 12.6998 15.6528 12.433C15.6528 12.1662 15.509 11.9631 15.363 11.8274C15.2166 11.6913 15.0259 11.5813 14.8217 11.4895C14.4105 11.3045 13.8438 11.149 13.1785 11.0224C11.8405 10.7678 10.0114 10.6133 8.00415 10.6133Z"/>
    </mask>
    <path d="M2.99803 3.09813L3.26719 1.68351L2.99803 3.09813ZM13.0103 3.09813L12.7411 1.68351L13.0103 3.09813ZM13.0103 2.0452L13.2794 0.630581V0.630581L13.0103 2.0452ZM2.99803 2.0452L3.26719 3.45982L2.99803 2.0452ZM2.8298 1.16106L2.56063 -0.253556L2.8298 1.16106ZM13.1785 1.16106L13.4477 -0.253556L13.1785 1.16106ZM14.8217 1.62813L15.4125 0.314888V0.314888L14.8217 1.62813ZM15.363 1.96607L16.3436 0.911518L16.3436 0.911517L15.363 1.96607ZM15.363 3.17726L16.3436 4.23182L16.3436 4.23182L15.363 3.17726ZM14.8217 3.51521L14.231 2.20197L14.231 2.20197L14.8217 3.51521ZM13.1785 3.98227L12.9093 2.56765L13.1785 3.98227ZM2.8298 3.98227L3.09896 2.56765L2.8298 3.98227ZM1.18656 3.51521L1.77733 2.20197L1.77733 2.20197L1.18656 3.51521ZM0.645293 3.17726L-0.335276 4.23182L-0.335275 4.23182L0.645293 3.17726ZM0.645293 1.96607L-0.335276 0.911519L-0.335276 0.911519L0.645293 1.96607ZM1.18656 1.62813L0.595794 0.314888L0.595793 0.314888L1.18656 1.62813ZM2.99803 8.0288L2.72886 9.44342H2.72886L2.99803 8.0288ZM13.0103 8.0288L13.2794 9.44342V9.44342L13.0103 8.0288ZM13.0103 6.97587L13.2794 5.56125L13.0103 6.97587ZM2.99803 6.97587L2.72886 5.56125H2.72886L2.99803 6.97587ZM2.8298 6.09173L3.09896 7.50635L2.8298 6.09173ZM13.1785 6.09173L12.9093 7.50635L13.1785 6.09173ZM14.8217 6.55879L15.4125 5.24555L15.4125 5.24555L14.8217 6.55879ZM15.363 6.89674L16.3436 5.84218L16.3436 5.84218L15.363 6.89674ZM15.363 8.10792L16.3436 9.16248L16.3436 9.16248L15.363 8.10792ZM14.8217 8.44587L14.231 7.13263L14.231 7.13263L14.8217 8.44587ZM13.1785 8.91293L13.4477 10.3276L13.1785 8.91293ZM2.8298 8.91293L2.56063 10.3276H2.56064L2.8298 8.91293ZM1.18656 8.44587L1.77733 7.13263L1.77733 7.13263L1.18656 8.44587ZM0.645293 8.10792L-0.335276 9.16248L-0.335275 9.16248L0.645293 8.10792ZM0.645293 6.89674L-0.335275 5.84218L-0.335276 5.84218L0.645293 6.89674ZM1.18656 6.55879L0.595794 5.24555L0.595791 5.24555L1.18656 6.55879ZM2.99803 11.9065L3.26719 13.3212H3.26719L2.99803 11.9065ZM13.0103 11.9065L12.7411 13.3212L13.0103 11.9065ZM13.0103 12.9595L13.2794 14.3741H13.2794L13.0103 12.9595ZM2.99803 12.9595L2.72886 14.3741H2.72886L2.99803 12.9595ZM2.8298 11.0224L2.56064 9.60777H2.56063L2.8298 11.0224ZM1.18656 11.4895L1.77733 12.8027L1.77733 12.8027L1.18656 11.4895ZM0.645293 11.8274L1.62586 12.882L1.62586 12.882L0.645293 11.8274ZM0.645293 13.0386L1.62586 11.984L1.62586 11.984L0.645293 13.0386ZM1.18656 13.3765L1.77733 12.0633L1.77733 12.0633L1.18656 13.3765ZM2.8298 13.8436L2.56063 15.2582H2.56064L2.8298 13.8436ZM13.1785 13.8436L13.4477 15.2582L13.1785 13.8436ZM14.8217 13.3765L14.231 12.0633L14.231 12.0633L14.8217 13.3765ZM15.363 13.0386L14.3824 11.984L14.3824 11.984L15.363 13.0386ZM15.363 11.8274L16.3436 10.7728H16.3436L15.363 11.8274ZM14.8217 11.4895L14.231 12.8027L14.231 12.8027L14.8217 11.4895ZM13.1785 11.0224L13.4477 9.60777L13.1785 11.0224ZM3.26719 1.68351C2.67416 1.57068 2.31371 1.45639 2.14656 1.3812L0.965023 4.00767C1.43259 4.21801 2.04703 4.38302 2.72886 4.51275L3.26719 1.68351ZM8.00415 2.05138C6.09761 2.05138 4.42183 1.90321 3.26719 1.68351L2.72886 4.51275C4.10912 4.77538 5.97369 4.93138 8.00415 4.93138V2.05138ZM12.7411 1.68351C11.5865 1.90321 9.91068 2.05138 8.00415 2.05138V4.93138C10.0346 4.93138 11.8992 4.77538 13.2794 4.51275L12.7411 1.68351ZM13.8617 1.3812C13.6946 1.45639 13.3341 1.57068 12.7411 1.68351L13.2794 4.51275C13.9613 4.38302 14.5757 4.21801 15.0433 4.00767L13.8617 1.3812ZM12.7411 3.45982C13.3341 3.57266 13.6946 3.68695 13.8617 3.76214L15.0433 1.13566C14.5757 0.925322 13.9613 0.760315 13.2794 0.630581L12.7411 3.45982ZM8.00415 3.09195C9.91068 3.09195 11.5865 3.24012 12.7411 3.45982L13.2794 0.630581C11.8992 0.367955 10.0346 0.211953 8.00415 0.211953V3.09195ZM3.26719 3.45982C4.42183 3.24012 6.09761 3.09195 8.00415 3.09195V0.211953C5.97369 0.211953 4.10912 0.367955 2.72886 0.630581L3.26719 3.45982ZM2.14656 3.76214C2.31371 3.68695 2.67416 3.57266 3.26719 3.45982L2.72886 0.630581C2.04703 0.760315 1.43259 0.925322 0.965023 1.13566L2.14656 3.76214ZM8.00415 -0.688047C5.93496 -0.688047 4.0114 -0.529597 2.56063 -0.253556L3.09896 2.57568C4.32412 2.34257 6.05889 2.19195 8.00415 2.19195V-0.688047ZM13.4477 -0.253556C11.9969 -0.529597 10.0733 -0.688047 8.00415 -0.688047V2.19195C9.9494 2.19195 11.6842 2.34257 12.9093 2.57568L13.4477 -0.253556ZM15.4125 0.314888C14.8513 0.0624094 14.1576 -0.118469 13.4477 -0.253556L12.9093 2.57568C13.5299 2.69377 13.9698 2.82389 14.231 2.94136L15.4125 0.314888ZM16.3436 0.911517C16.0357 0.625241 15.6873 0.438518 15.4125 0.314888L14.231 2.94136C14.2915 2.96859 14.3342 2.99148 14.3624 3.00877C14.3912 3.02639 14.3943 3.0317 14.3824 3.02063L16.3436 0.911517ZM17.0928 2.57167C17.0928 1.75051 16.6462 1.19293 16.3436 0.911518L14.3824 3.02063C14.3717 3.01067 14.2128 2.8593 14.2128 2.57167H17.0928ZM16.3436 4.23182C16.6462 3.9504 17.0928 3.39283 17.0928 2.57167H14.2128C14.2128 2.28403 14.3717 2.13266 14.3824 2.12271L16.3436 4.23182ZM15.4125 4.82845C15.6873 4.70482 16.0357 4.51809 16.3436 4.23182L14.3824 2.1227C14.3943 2.11163 14.3912 2.11694 14.3624 2.13457C14.3342 2.15185 14.2915 2.17474 14.231 2.20197L15.4125 4.82845ZM13.4477 5.39689C14.1576 5.2618 14.8513 5.08092 15.4125 4.82845L14.231 2.20197C13.9698 2.31944 13.5299 2.44957 12.9093 2.56765L13.4477 5.39689ZM8.00415 5.83138C10.0733 5.83138 11.9969 5.67293 13.4477 5.39689L12.9093 2.56765C11.6842 2.80076 9.9494 2.95138 8.00415 2.95138V5.83138ZM2.56063 5.39689C4.0114 5.67293 5.93496 5.83138 8.00415 5.83138V2.95138C6.05889 2.95138 4.32412 2.80076 3.09896 2.56765L2.56063 5.39689ZM0.595794 4.82845C1.15704 5.08092 1.85067 5.2618 2.56063 5.39689L3.09896 2.56765C2.47838 2.44957 2.03846 2.31944 1.77733 2.20197L0.595794 4.82845ZM-0.335275 4.23182C-0.0273972 4.51809 0.320973 4.70482 0.595794 4.82845L1.77733 2.20197C1.7168 2.17474 1.67414 2.15185 1.6459 2.13457C1.61709 2.11694 1.61395 2.11163 1.62586 2.12271L-0.335275 4.23182ZM-1.08453 2.57167C-1.08453 3.39283 -0.637923 3.9504 -0.335276 4.23182L1.62586 2.12271C1.63657 2.13266 1.79547 2.28403 1.79547 2.57167H-1.08453ZM-0.335276 0.911519C-0.637923 1.19293 -1.08453 1.75051 -1.08453 2.57167H1.79547C1.79547 2.8593 1.63657 3.01067 1.62586 3.02063L-0.335276 0.911519ZM0.595793 0.314888C0.320973 0.438518 -0.0273975 0.625241 -0.335276 0.911519L1.62586 3.02063C1.61395 3.0317 1.61709 3.02639 1.6459 3.00877C1.67414 2.99148 1.7168 2.96859 1.77733 2.94136L0.595793 0.314888ZM2.56063 -0.253556C1.85067 -0.118469 1.15704 0.0624094 0.595794 0.314888L1.77733 2.94136C2.03846 2.82389 2.47838 2.69377 3.09896 2.57568L2.56063 -0.253556ZM3.26719 6.61418C2.67416 6.50134 2.31371 6.38705 2.14656 6.31186L0.965024 8.93834C1.43259 9.14868 2.04703 9.31368 2.72886 9.44342L3.26719 6.61418ZM8.00415 6.98205C6.09761 6.98205 4.42183 6.83387 3.26719 6.61418L2.72886 9.44342C4.10912 9.70604 5.97369 9.86205 8.00415 9.86205V6.98205ZM12.7411 6.61418C11.5865 6.83387 9.91068 6.98205 8.00415 6.98205V9.86205C10.0346 9.86205 11.8992 9.70604 13.2794 9.44342L12.7411 6.61418ZM13.8617 6.31186C13.6946 6.38705 13.3341 6.50134 12.7411 6.61418L13.2794 9.44342C13.9613 9.31368 14.5757 9.14868 15.0433 8.93834L13.8617 6.31186ZM12.7411 8.39049C13.3341 8.50332 13.6946 8.61761 13.8617 8.6928L15.0433 6.06633C14.5757 5.85599 13.9613 5.69098 13.2794 5.56125L12.7411 8.39049ZM8.00415 8.02262C9.91068 8.02262 11.5865 8.17079 12.7411 8.39049L13.2794 5.56125C11.8992 5.29862 10.0346 5.14262 8.00415 5.14262V8.02262ZM3.26719 8.39049C4.42183 8.17079 6.09761 8.02262 8.00415 8.02262V5.14262C5.97369 5.14262 4.10912 5.29862 2.72886 5.56125L3.26719 8.39049ZM2.14656 8.6928C2.31371 8.61761 2.67416 8.50332 3.26719 8.39049L2.72886 5.56125C2.04703 5.69098 1.43259 5.85599 0.965024 6.06633L2.14656 8.6928ZM8.00415 4.24262C5.93496 4.24262 4.0114 4.40107 2.56063 4.67711L3.09896 7.50635C4.32412 7.27324 6.05889 7.12262 8.00415 7.12262V4.24262ZM13.4477 4.67711C11.9969 4.40107 10.0733 4.24262 8.00415 4.24262V7.12262C9.9494 7.12262 11.6842 7.27324 12.9093 7.50635L13.4477 4.67711ZM15.4125 5.24555C14.8513 4.99307 14.1576 4.8122 13.4477 4.67711L12.9093 7.50635C13.5299 7.62443 13.9698 7.75456 14.231 7.87203L15.4125 5.24555ZM16.3436 5.84218C16.0357 5.5559 15.6873 5.36918 15.4125 5.24555L14.231 7.87203C14.2915 7.89926 14.3342 7.92215 14.3624 7.93943C14.3912 7.95706 14.3943 7.96237 14.3824 7.95129L16.3436 5.84218ZM17.0928 7.50233C17.0928 6.68117 16.6462 6.1236 16.3436 5.84218L14.3824 7.95129C14.3717 7.94133 14.2128 7.78997 14.2128 7.50233H17.0928ZM16.3436 9.16248C16.6462 8.88106 17.0928 8.32349 17.0928 7.50233H14.2128C14.2128 7.2147 14.3717 7.06333 14.3824 7.05337L16.3436 9.16248ZM15.4125 9.75911C15.6873 9.63548 16.0357 9.44876 16.3436 9.16248L14.3824 7.05337C14.3943 7.04229 14.3912 7.0476 14.3624 7.06523C14.3342 7.08251 14.2915 7.10541 14.231 7.13263L15.4125 9.75911ZM13.4477 10.3276C14.1576 10.1925 14.8513 10.0116 15.4125 9.75911L14.231 7.13263C13.9698 7.25011 13.5299 7.38023 12.9093 7.49831L13.4477 10.3276ZM8.00415 10.762C10.0733 10.762 11.9969 10.6036 13.4477 10.3276L12.9093 7.49831C11.6842 7.73143 9.9494 7.88205 8.00415 7.88205V10.762ZM2.56064 10.3276C4.0114 10.6036 5.93496 10.762 8.00415 10.762V7.88205C6.05889 7.88205 4.32412 7.73143 3.09896 7.49831L2.56064 10.3276ZM0.595793 9.75911C1.15704 10.0116 1.85067 10.1925 2.56063 10.3276L3.09896 7.49831C2.47838 7.38023 2.03846 7.25011 1.77733 7.13263L0.595793 9.75911ZM-0.335275 9.16248C-0.0273967 9.44876 0.320974 9.63548 0.595794 9.75911L1.77733 7.13263C1.7168 7.10541 1.67414 7.08251 1.6459 7.06523C1.61709 7.0476 1.61395 7.04229 1.62586 7.05337L-0.335275 9.16248ZM-1.08453 7.50233C-1.08453 8.32349 -0.637923 8.88107 -0.335276 9.16248L1.62586 7.05337C1.63657 7.06333 1.79547 7.21469 1.79547 7.50233H-1.08453ZM-0.335276 5.84218C-0.637923 6.1236 -1.08453 6.68117 -1.08453 7.50233H1.79547C1.79547 7.78997 1.63657 7.94133 1.62586 7.95129L-0.335276 5.84218ZM0.595791 5.24555C0.320974 5.36918 -0.0273969 5.5559 -0.335275 5.84218L1.62586 7.95129C1.61395 7.96237 1.61709 7.95706 1.6459 7.93943C1.67414 7.92215 1.7168 7.89926 1.77733 7.87203L0.595791 5.24555ZM2.56063 4.67711C1.85067 4.8122 1.15704 4.99307 0.595794 5.24555L1.77733 7.87203C2.03846 7.75456 2.47838 7.62443 3.09896 7.50635L2.56063 4.67711ZM2.72886 10.4919C2.04703 10.6216 1.43259 10.7867 0.965024 10.997L2.14656 13.6235C2.3137 13.5483 2.67416 13.434 3.26719 13.3212L2.72886 10.4919ZM8.00415 10.0733C5.97369 10.0733 4.10912 10.2293 2.72886 10.4919L3.26719 13.3212C4.42183 13.1015 6.09761 12.9533 8.00415 12.9533V10.0733ZM13.2794 10.4919C11.8992 10.2293 10.0346 10.0733 8.00415 10.0733V12.9533C9.91068 12.9533 11.5865 13.1015 12.7411 13.3212L13.2794 10.4919ZM15.0433 10.997C14.5757 10.7867 13.9613 10.6216 13.2794 10.4919L12.7411 13.3212C13.3341 13.434 13.6946 13.5483 13.8617 13.6235L15.0433 10.997ZM13.2794 14.3741C13.9613 14.2443 14.5757 14.0793 15.0433 13.869L13.8617 11.2425C13.6946 11.3177 13.3341 11.432 12.7411 11.5448L13.2794 14.3741ZM8.00415 14.7927C10.0346 14.7927 11.8992 14.6367 13.2794 14.3741L12.7411 11.5448C11.5865 11.7645 9.91068 11.9127 8.00415 11.9127V14.7927ZM2.72886 14.3741C4.10912 14.6367 5.97369 14.7927 8.00415 14.7927V11.9127C6.09761 11.9127 4.42183 11.7645 3.26719 11.5448L2.72886 14.3741ZM0.965024 13.869C1.43259 14.0793 2.04703 14.2443 2.72886 14.3741L3.26719 11.5448C2.67416 11.432 2.3137 11.3177 2.14656 11.2425L0.965024 13.869ZM3.09896 12.437C4.32412 12.2039 6.05889 12.0533 8.00415 12.0533V9.17328C5.93496 9.17328 4.0114 9.33173 2.56064 9.60777L3.09896 12.437ZM1.77733 12.8027C2.03846 12.6852 2.47838 12.5551 3.09896 12.437L2.56063 9.60777C1.85067 9.74286 1.15704 9.92374 0.595793 10.1762L1.77733 12.8027ZM1.62586 12.882C1.61395 12.893 1.61709 12.8877 1.6459 12.8701C1.67414 12.8528 1.7168 12.8299 1.77733 12.8027L0.595794 10.1762C0.320972 10.2998 -0.0273978 10.4866 -0.335275 10.7728L1.62586 12.882ZM1.79547 12.433C1.79547 12.7206 1.63657 12.872 1.62586 12.882L-0.335275 10.7728C-0.637923 11.0543 -1.08453 11.6118 -1.08453 12.433H1.79547ZM1.62586 11.984C1.63657 11.994 1.79547 12.1454 1.79547 12.433H-1.08453C-1.08453 13.2542 -0.637924 13.8117 -0.335275 14.0931L1.62586 11.984ZM1.77733 12.0633C1.7168 12.0361 1.67414 12.0132 1.6459 11.9959C1.61709 11.9783 1.61395 11.973 1.62586 11.984L-0.335279 14.0931C-0.0273977 14.3794 0.320976 14.5661 0.595794 14.6898L1.77733 12.0633ZM3.09896 12.429C2.47838 12.3109 2.03846 12.1808 1.77733 12.0633L0.595793 14.6898C1.15704 14.9423 1.85067 15.1231 2.56063 15.2582L3.09896 12.429ZM8.00415 12.8127C6.05889 12.8127 4.32412 12.6621 3.09896 12.429L2.56064 15.2582C4.0114 15.5343 5.93496 15.6927 8.00415 15.6927V12.8127ZM12.9093 12.429C11.6842 12.6621 9.9494 12.8127 8.00415 12.8127V15.6927C10.0733 15.6927 11.9969 15.5343 13.4477 15.2582L12.9093 12.429ZM14.231 12.0633C13.9698 12.1808 13.5299 12.3109 12.9093 12.429L13.4477 15.2582C14.1576 15.1231 14.8513 14.9423 15.4125 14.6898L14.231 12.0633ZM14.3824 11.984C14.3943 11.973 14.3912 11.9783 14.3624 11.9959C14.3342 12.0132 14.2915 12.0361 14.231 12.0633L15.4125 14.6898C15.6873 14.5661 16.0357 14.3794 16.3436 14.0931L14.3824 11.984ZM14.2128 12.433C14.2128 12.1454 14.3717 11.994 14.3824 11.984L16.3436 14.0931C16.6462 13.8117 17.0928 13.2542 17.0928 12.433H14.2128ZM14.3824 12.882C14.3717 12.872 14.2128 12.7206 14.2128 12.433H17.0928C17.0928 11.6118 16.6462 11.0543 16.3436 10.7728L14.3824 12.882ZM14.231 12.8027C14.2915 12.8299 14.3342 12.8528 14.3624 12.8701C14.3912 12.8877 14.3943 12.893 14.3824 12.882L16.3436 10.7728C16.0357 10.4866 15.6873 10.2998 15.4125 10.1762L14.231 12.8027ZM12.9093 12.437C13.5299 12.5551 13.9698 12.6852 14.231 12.8027L15.4125 10.1762C14.8513 9.92374 14.1576 9.74286 13.4477 9.60777L12.9093 12.437ZM8.00415 12.0533C9.9494 12.0533 11.6842 12.2039 12.9093 12.437L13.4477 9.60777C11.9969 9.33173 10.0733 9.17328 8.00415 9.17328V12.0533ZM13.8617 13.6235C13.4208 13.4251 13.0973 12.972 13.0973 12.433C13.0973 11.894 13.4208 11.4409 13.8617 11.2425L15.0433 13.869C15.5973 13.6198 15.9773 13.0693 15.9773 12.433C15.9773 11.7967 15.5973 11.2462 15.0433 10.997L13.8617 13.6235ZM2.14656 1.3812C2.58745 1.57953 2.91095 2.03266 2.91095 2.57167C2.91095 3.11068 2.58745 3.5638 2.14656 3.76214L0.965024 1.13566C0.411019 1.38488 0.030954 1.93533 0.030954 2.57167C0.030954 3.208 0.411019 3.75845 0.965024 4.00767L2.14656 1.3812ZM2.14656 11.2425C2.58745 11.4409 2.91095 11.894 2.91095 12.433C2.91095 12.972 2.58745 13.4251 2.14656 13.6235L0.965027 10.997C0.411013 11.2462 0.0309543 11.7967 0.0309543 12.433C0.0309543 13.0693 0.411013 13.6198 0.965027 13.869L2.14656 11.2425ZM15.0433 8.93834C15.5973 8.68911 15.9773 8.13865 15.9773 7.50233C15.9773 6.86601 15.5973 6.31555 15.0433 6.06633L13.8617 8.6928C13.4208 8.49446 13.0973 8.04132 13.0973 7.50233C13.0973 6.96334 13.4208 6.5102 13.8617 6.31186L15.0433 8.93834ZM2.14656 6.31186C2.58745 6.5102 2.91095 6.96333 2.91095 7.50233C2.91095 8.04134 2.58745 8.49446 2.14656 8.6928L0.965022 6.06633C0.411015 6.31555 0.0309544 6.866 0.0309544 7.50233C0.0309544 8.13866 0.411015 8.68911 0.965022 8.93834L2.14656 6.31186ZM15.0433 4.00767C15.5973 3.75845 15.9773 3.20799 15.9773 2.57167C15.9773 1.93535 15.5973 1.38489 15.0433 1.13566L13.8617 3.76214C13.4208 3.56379 13.0973 3.11066 13.0973 2.57167C13.0973 2.03267 13.4208 1.57954 13.8617 1.3812L15.0433 4.00767Z" fill="url(#paint0_linear_15740_251350)" mask="url(#path-1-inside-1_15740_251350)"/>
    <defs>
        <linearGradient id="paint0_linear_15740_251350" x1="8.00415" y1="0.751953" x2="8.00415" y2="14.2527" gradientUnits="userSpaceOnUse">
            <stop stop-color="#00BAFF"/>
            <stop offset="1" stop-color="#F2C678"/>
        </linearGradient>
    </defs>
</svg>
