<svg width="10" height="13" viewBox="0 0 10 13" fill="none" xmlns="http://www.w3.org/2000/svg">
<path d="M6.07031 1.02539H1.67031C1.37857 1.02539 1.09878 1.14128 0.892495 1.34757C0.686205 1.55386 0.570313 1.83365 0.570312 2.12539V10.9254C0.570313 11.2171 0.686205 11.4969 0.892495 11.7032C1.09878 11.9095 1.37857 12.0254 1.67031 12.0254H8.27031C8.56205 12.0254 8.84184 11.9095 9.04813 11.7032C9.25442 11.4969 9.37031 11.2171 9.37031 10.9254V4.32539L6.07031 1.02539Z" stroke="white" stroke-width="0.6875" stroke-linecap="round"/>
<path d="M6.07031 1.02539V4.32539H9.37031" stroke="white" stroke-width="0.6875" stroke-linecap="round"/>
<path d="M7.17344 7.07617H2.77344" stroke="white" stroke-width="0.6875" stroke-linecap="round"/>
<path d="M7.17344 9.27539H2.77344" stroke="white" stroke-width="0.6875" stroke-linecap="round"/>
<path d="M3.87344 4.875H3.32344H2.77344" stroke="white" stroke-width="0.6875" stroke-linecap="round"/>
</svg>
