<svg width="18" height="19" viewBox="0 0 18 19" fill="none" xmlns="http://www.w3.org/2000/svg">
<path d="M12.4304 15.4408C13.0117 15.1047 13.6806 15.0772 14.2602 15.3002C14.7438 15.4871 15.296 15.3328 15.6253 14.9315C16.2118 14.2164 16.6834 13.4069 17.0143 12.5272C17.2047 12.023 17.0246 11.4708 16.6131 11.1227C16.1535 10.7334 15.8602 10.152 15.8602 9.50035C15.8602 8.84868 16.1535 8.26732 16.6148 7.87804C17.0246 7.52991 17.2047 6.97771 17.0161 6.47352C16.6834 5.59377 16.2118 4.78262 15.627 4.06922C15.2977 3.66964 14.7455 3.5153 14.2619 3.70051C13.6823 3.92345 13.0117 3.89601 12.4321 3.55989C11.849 3.22376 11.4889 2.65441 11.3946 2.03876C11.3174 1.53458 10.9178 1.13157 10.4154 1.04582C9.95405 0.966939 9.48245 0.925781 9.00056 0.925781C8.51866 0.925781 8.04706 0.966939 7.58918 1.04582C7.08671 1.13157 6.68714 1.53458 6.60997 2.03876C6.51393 2.65441 6.1538 3.22376 5.57073 3.55989C4.98937 3.89601 4.32056 3.92345 3.74092 3.70051C3.25731 3.51358 2.70511 3.66793 2.37585 4.06922C1.78935 4.78434 1.31775 5.59377 0.986768 6.47352C0.796413 6.97771 0.976478 7.52991 1.38806 7.87804C1.84765 8.26732 2.1409 8.84868 2.1409 9.50035C2.1409 10.152 1.84765 10.7334 1.38634 11.1227C0.976478 11.4708 0.796413 12.023 0.985053 12.5272C1.31775 13.4069 1.78935 14.2181 2.37413 14.9315C2.7034 15.331 3.2556 15.4854 3.7392 15.3002C4.31884 15.0772 4.98937 15.1047 5.56901 15.4408C6.15208 15.7769 6.51222 16.3463 6.60654 16.9619C6.68371 17.4661 7.08328 17.8691 7.58575 17.9549C8.04706 18.0338 8.51866 18.0749 9.00056 18.0749C9.48245 18.0749 9.95405 18.0338 10.4119 17.9549C10.9144 17.8691 11.314 17.4661 11.3911 16.9619C11.4872 16.3463 11.8473 15.7769 12.4304 15.4408Z" stroke="white" stroke-width="1.2" stroke-linecap="round" stroke-linejoin="round"/>
</svg>
