<svg width="22" height="22" viewBox="0 0 22 22" fill="none" xmlns="http://www.w3.org/2000/svg">
<rect width="22" height="22" rx="4" fill="#313131"/>
<path d="M10.0235 5.79404C9.82662 5.79711 9.63901 5.87821 9.50188 6.0195C9.36476 6.1608 9.28932 6.35075 9.29215 6.54763V7.29059H6.7899C5.56105 7.29059 4.56104 8.29061 4.56104 9.51946V13.9772C4.56104 15.206 5.56105 16.2061 6.7899 16.2061H15.2101C16.4389 16.2061 17.4389 15.206 17.4389 13.9772V9.51946C17.4389 8.29061 16.4389 7.29059 15.2101 7.29059H12.7078V6.54763C12.7093 6.44819 12.6907 6.34948 12.6533 6.25734C12.6159 6.1652 12.5603 6.08151 12.4899 6.01124C12.4196 5.94096 12.3358 5.88552 12.2436 5.84821C12.1514 5.81091 10.1229 5.79248 10.0235 5.79404ZM8.77112 10.2624C9.45513 10.2624 10.0094 10.8167 10.0094 11.5007C10.0094 12.1847 9.45513 12.7389 8.77112 12.7389C8.0871 12.7389 7.53286 12.1847 7.53286 11.5007C7.53286 10.8167 8.0871 10.2624 8.77112 10.2624ZM13.2289 10.2624C13.9129 10.2624 14.4671 10.8167 14.4671 11.5007C14.4671 12.1847 13.9129 12.7389 13.2289 12.7389C12.5448 12.7389 11.9906 12.1847 11.9906 11.5007C11.9906 10.8167 12.5448 10.2624 13.2289 10.2624Z" stroke="white" stroke-linecap="round" stroke-linejoin="round"/>
</svg>
