<svg width="14" height="12" viewBox="0 0 14 12" fill="none" xmlns="http://www.w3.org/2000/svg">
<path d="M6.02349 0.794036C5.82662 0.797112 5.63901 0.878205 5.50188 1.0195C5.36476 1.1608 5.28932 1.35075 5.29215 1.54763V2.29059H2.7899C1.56105 2.29059 0.561035 3.29061 0.561035 4.51946V8.97719C0.561035 10.206 1.56105 11.2061 2.7899 11.2061H11.2101C12.4389 11.2061 13.4389 10.206 13.4389 8.97719V4.51946C13.4389 3.29061 12.4389 2.29059 11.2101 2.29059H8.70783V1.54763C8.70926 1.44819 8.69071 1.34948 8.65328 1.25734C8.61585 1.1652 8.56031 1.08151 8.48994 1.01124C8.41957 0.94096 8.33582 0.885524 8.24363 0.848215C8.15144 0.810906 6.12293 0.792482 6.02349 0.794036ZM4.77112 5.26241C5.45513 5.26241 6.00938 5.81666 6.00938 6.50067C6.00938 7.18469 5.45513 7.73893 4.77112 7.73893C4.0871 7.73893 3.53286 7.18469 3.53286 6.50067C3.53286 5.81666 4.0871 5.26241 4.77112 5.26241ZM9.22886 5.26241C9.91287 5.26241 10.4671 5.81666 10.4671 6.50067C10.4671 7.18469 9.91287 7.73893 9.22886 7.73893C8.54484 7.73893 7.9906 7.18469 7.9906 6.50067C7.9906 5.81666 8.54484 5.26241 9.22886 5.26241Z" stroke="white" stroke-linecap="round" stroke-linejoin="round"/>
</svg>
