<svg width="197" height="220" viewBox="0 0 197 220" fill="none" xmlns="http://www.w3.org/2000/svg">
<path d="M109.059 119.046V99.5066C109.059 78.3388 97.8924 73.4539 89.5197 73.4539H86.2632L83.0066 76.7105C71.6086 76.7105 69.9803 93.9639 69.9803 99.5066V119.046H109.059Z" fill="#424242"/>
<path d="M86.2632 121.782L96.0329 109.276C96.0329 109.276 109.059 109.276 125.342 119.046C135.411 125.087 144.882 132.072 157.908 132.072C170.934 132.072 180.704 125.559 180.704 125.559C180.704 125.559 180.704 151.612 164.421 171.151C154.404 183.171 141.264 187.434 131.855 187.434C86.2632 187.434 86.2632 121.782 86.2632 121.782Z" fill="#B71C1C"/>
<path d="M103.767 109.276L105.803 122.303L102.546 132.072V158.125H76.4934V132.072L73.2368 122.303V112.533C73.2368 112.533 77.7146 109.276 83.0066 109.276C89.5197 109.276 96.0329 109.276 96.0329 109.276H103.767Z" fill="#FF3D00"/>
<path d="M105.803 158.125L109.059 210.23H99.2895L89.5197 167.895L79.75 210.23H69.9803L73.2368 158.125H105.803Z" fill="#42A5F5"/>
<path d="M63.4671 164.638C63.4671 164.638 69.9803 171.151 89.5197 171.151C109.059 171.151 115.572 164.638 115.572 164.638L102.546 145.099H76.4934L63.4671 164.638Z" fill="#1E88E5"/>
<path d="M89.6533 115.789C82.8698 115.789 83.0066 109.276 83.0066 109.276V102.763H96.0329V109.276C96.0329 109.276 96.4367 115.789 89.6533 115.789Z" fill="#FF9800"/>
<path d="M83.0066 125.234L89.5197 132.072L96.0329 125.234L92.7763 122.303H86.2632L83.0066 125.234Z" fill="#FFCA28"/>
<path d="M86.2632 83.2237L79.75 89.7368V101.135C79.75 101.135 82.1924 106.521 89.5197 106.521C96.847 106.521 99.2895 101.135 99.2895 101.135V89.7368L86.2632 83.2237Z" fill="#FFB74D"/>
<path d="M114.846 82.2988L112.57 95.9602L103.067 109.263L105.773 122.283L121.177 100.718C121.61 100.109 121.9 99.4154 122.02 98.6826L124.469 83.989C124.469 83.989 123.505 81.895 119.799 81.4358C116.097 80.9766 114.846 82.2988 114.846 82.2988Z" fill="#42A5F5"/>
<path d="M125.274 79.1432C125.72 76.4826 123.919 73.962 121.262 73.5191C118.594 73.0827 116.08 74.8738 115.638 77.5312L114.843 82.2956L124.466 83.9857L125.274 79.1432Z" fill="#FFB74D"/>
<path d="M68.4204 130.854L74.1813 125.142L73.2369 112.533L58.4324 126.943C56.6283 128.695 56.4524 131.532 58.0254 133.499L67.9938 145.962C67.9938 145.962 70.3418 147.515 73.4844 144.949C76.627 142.383 75.5751 139.8 75.5751 139.8L68.4204 130.854Z" fill="#42A5F5"/>
<path d="M74.8684 151.612C75.9366 151.612 77.0145 151.263 77.9198 150.54C80.0236 148.854 80.3655 145.783 78.6786 143.676L75.5751 139.797L67.9938 145.958L71.0517 149.778C72.0156 150.987 73.4355 151.612 74.8684 151.612Z" fill="#FFB74D"/>
<path d="M150.128 39.0428H193.187V79.6414H150.128V39.0428Z" fill="#424E5C"/>
<path d="M192.572 39.6579V79.0263H150.743V39.6579H192.572ZM193.803 38.4276H149.513V80.2566H193.803V38.4276Z" fill="#AFC5D8"/>
<path d="M149.513 38.4276H193.803V45.8092H149.513V38.4276Z" fill="#AFC5D8"/>
<path d="M178.77 67.8002L185.498 61.8383L178.77 55.8765M174.734 53.4984L168.582 70.1069L174.734 53.4984ZM164.607 67.7645L157.817 61.8026L164.607 55.8408V67.7645Z" stroke="#BAE0BD" stroke-width="2" stroke-miterlimit="10"/>
<path d="M117.201 9.32951L113.51 5.63872C112.895 5.02359 111.972 5.02359 111.459 5.63872L109.717 7.38159L115.56 13.2253L117.303 11.4825C117.713 10.7648 117.713 9.84212 117.201 9.32951Z" fill="#E57373"/>
<path d="M80.6003 36.2928L106.743 10.2522L112.587 16.0959L86.4441 42.1365L80.6003 36.2928Z" fill="#4CAF50"/>
<path d="M109.05 11.5122L82.4451 38.118L84.62 40.2927L111.225 13.687L109.05 11.5122Z" fill="#388E3C"/>
<path d="M115.458 13.1228L112.485 15.9934L106.743 10.2522L109.614 7.38159L115.458 13.1228Z" fill="#B0BEC5"/>
<path d="M80.6003 36.2928L78.6524 44.0844L86.4441 42.1365L80.6003 36.2928Z" fill="#FFC107"/>
<path d="M79.6776 40.1886L78.6524 44.0844L82.5482 43.0592L79.6776 40.1886Z" fill="#37474F"/>
<path d="M80.2784 12.5107C87.6877 19.4556 93.8308 25.1209 101.323 32.1498L102.773 30.7002L109.144 37.0719C109.435 36.9561 109.739 36.7818 110.022 36.4988C110.109 36.4117 110.928 35.5638 110.747 34.3243C109.05 32.1498 107.369 29.9743 105.672 27.7998C98.6145 20.2768 92.9317 14.1142 85.9468 6.66289C85.5081 6.19436 84.9606 5.8017 84.3373 5.64997C82.9142 5.30345 81.3733 5.70328 80.2999 6.77669C80.0539 7.02274 79.8355 7.29852 79.6694 7.59584C79.1773 8.40986 78.9743 9.36024 79.0799 10.2911C79.1773 11.1462 79.6499 11.9223 80.2784 12.5107Z" fill="#EDB656"/>
<path d="M110.732 34.3397C113.732 34.5909 115.106 35.6233 115.806 36.5142C116.72 37.6768 116.692 38.8589 117.981 40.1394C118.929 41.0805 120.024 41.5132 120.762 41.7285C117.114 44.5509 112.552 44.5909 110.007 42.3149C108.086 40.5987 107.868 38.0592 107.832 37.2401" fill="#37474F"/>
<path d="M80.1923 12.4297C87.6405 19.4115 93.8021 25.0943 101.323 32.1498L102.773 30.7002L79.6694 7.59583C79.0881 8.55851 78.9097 9.71188 79.1691 10.7976C79.3198 11.4301 79.7176 11.9848 80.1923 12.4297Z" fill="#D19B43"/>
<path d="M101.323 32.1488C103.498 33.8456 105.673 35.5269 107.848 37.2236C107.935 37.238 108.5 37.3108 109.146 37.0709L102.774 30.6992L101.323 32.1488Z" fill="#90A4AE"/>
<path d="M102.773 30.6992L109.144 37.0709C109.435 36.955 109.739 36.7808 110.022 36.4978C110.109 36.4106 110.928 35.5628 110.747 34.3233C109.05 32.1488 107.369 29.9733 105.672 27.7988L102.773 30.6992Z" fill="#B0BEC5"/>
<path d="M27.6809 42.9386H37.9331V47.0395H27.6809V42.9386Z" fill="#37474F"/>
<path d="M27.6809 42.9386H17.7363C16.1985 42.9386 14.8657 43.7588 14.148 45.0915L10.7648 51.2429L14.3531 53.1908L17.7363 47.0395H27.6809V54.421H31.7818V47.0395C31.7818 44.784 29.9364 42.9386 27.6809 42.9386Z" fill="#607D8B"/>
<path d="M30.7566 75.7456H6.15131C3.89583 75.7456 2.05044 73.9002 2.05044 71.6447V55.2412C2.05044 52.9857 3.89583 51.1404 6.15131 51.1404H30.7566C33.0121 51.1404 34.8575 52.9857 34.8575 55.2412V71.6447C34.8575 73.9002 33.0121 75.7456 30.7566 75.7456ZM38.9583 70.6195L44.0844 75.7456H47.1601V53.1908H44.0844L38.9583 58.3169V70.6195Z" fill="#607D8B"/>
<path d="M22.5548 70.6195H8.20175C7.07401 70.6195 6.15131 69.6968 6.15131 68.5691V58.3169C6.15131 57.1891 7.07401 56.2664 8.20175 56.2664H22.5548C23.6826 56.2664 24.6053 57.1891 24.6053 58.3169V68.5691C24.6053 69.6968 23.6826 70.6195 22.5548 70.6195Z" fill="#546E7A"/>
<path d="M34.8575 58.3169H38.9583V70.6195H34.8575V58.3169Z" fill="#455A64"/>
<path d="M42.034 48.0647H37.9331C37.318 48.0647 36.9079 47.6546 36.9079 47.0395V42.9386C36.9079 42.3235 37.318 41.9134 37.9331 41.9134H42.034C43.7769 41.9134 45.1097 43.2462 45.1097 44.989C45.1097 46.7319 43.7769 48.0647 42.034 48.0647Z" fill="#263238"/>
<path d="M8.20175 58.3169H22.5548V68.5691H8.20175V58.3169Z" fill="#03A9F4"/>
<path d="M13.8405 60.8799L9.22697 67.5439H18.4539L13.8405 60.8799Z" fill="#4FC3F7"/>
<path d="M19.9918 59.3421C19.5839 59.3421 19.1928 59.5041 18.9044 59.7925C18.616 60.0809 18.4539 60.4721 18.4539 60.8799C18.4539 61.2878 18.616 61.6789 18.9044 61.9673C19.1928 62.2557 19.5839 62.4178 19.9918 62.4178C20.3996 62.4178 20.7908 62.2557 21.0792 61.9673C21.3676 61.6789 21.5296 61.2878 21.5296 60.8799C21.5296 60.4721 21.3676 60.0809 21.0792 59.7925C20.7908 59.5041 20.3996 59.3421 19.9918 59.3421ZM17.9413 63.0329L14.3531 67.5439H21.5296L17.9413 63.0329Z" fill="#B3E5FC"/>
</svg>
