<svg width="80" height="80" viewBox="0 0 80 80" fill="none" xmlns="http://www.w3.org/2000/svg">
<g clip-path="url(#clip0)">
<path d="M40.2838 50.8145L20.9945 31.5253L0.39998 75.0344C0.38123 75.0753 -0.701424 77.7444 0.777167 79.223C2.26107 80.7069 4.94575 79.6094 4.96653 79.5999L48.4747 59.0058L43.1602 53.691" fill="#FC3842"/>
<path d="M32.2883 42.8192C26.089 50.5473 22.8215 60.4068 23.5296 70.8133L48.4747 59.006C42.0076 52.5384 44.1674 54.6982 32.2883 42.8192Z" fill="#FC5162"/>
<path d="M3.6614 79.9405C3.93125 78.1853 19.4815 46.2326 24.6032 35.1343L20.9943 31.5253L0.399846 75.0344C0.259065 75.3422 -0.677652 78.0035 0.927188 79.3606C1.99016 80.2653 3.50578 79.9405 3.6614 79.9405Z" fill="#EF2235"/>
<path d="M30.209 17.8591C31.5076 17.8591 32.5604 16.8063 32.5604 15.5077C32.5604 14.209 31.5076 13.1562 30.209 13.1562C28.9104 13.1562 27.8576 14.209 27.8576 15.5077C27.8576 16.8063 28.9104 17.8591 30.209 17.8591Z" fill="#FFCA54"/>
<path d="M66.1121 27.344C67.4107 27.344 68.4635 26.2912 68.4635 24.9926C68.4635 23.6939 67.4107 22.6412 66.1121 22.6412C64.8134 22.6412 63.7607 23.6939 63.7607 24.9926C63.7607 26.2912 64.8134 27.344 66.1121 27.344Z" fill="#00CDB3"/>
<path d="M48.4749 59.0058L53.5602 56.6414C53.4043 56.4855 23.6092 26.6904 23.3637 26.4449L20.9943 31.5251" fill="#FFCA54"/>
<path d="M32.2884 42.8191L48.4749 59.006L53.5602 56.6416C53.069 56.1503 36.1521 39.2336 35.847 38.9285C34.5779 40.1457 33.3898 41.446 32.2884 42.8191Z" fill="#FCD27C"/>
<path d="M17.8095 38.2535L11.7281 51.1016C14.3262 52.2247 17.457 51.7268 19.5799 49.6037C22.976 46.2074 22.0984 40.4646 17.8095 38.2535Z" fill="#FFCA54"/>
<path d="M17.8095 38.2535C14.7889 44.6354 11.9159 50.7051 11.7281 51.1016C13.3923 51.821 15.274 51.8716 16.9707 51.2597L21.257 42.2041C20.6521 40.4898 19.4079 39.0776 17.8095 38.2535Z" fill="#F9B24B"/>
<path d="M29.0101 62.9087L29.0044 62.9056C26.7721 60.4283 24.0313 60.5833 24.0313 60.5833L24.0318 60.5861C17.4332 60.3211 14.0299 68.5018 18.9792 72.967L30.8477 67.3493C30.7685 65.6837 30.1087 64.1167 29.0101 62.9087Z" fill="#FFCA54"/>
<path d="M7.76656 59.4713L4.97906 65.3597C6.35266 66.9322 8.73062 66.9716 10.1666 65.5357C12.369 63.3333 10.862 59.5701 7.76656 59.4713Z" fill="#F9B24B"/>
<path d="M29.1523 53.8863C30.8307 53.8863 32.1913 52.5257 32.1913 50.8473C32.1913 49.1689 30.8307 47.8082 29.1523 47.8082C27.4739 47.8082 26.1132 49.1689 26.1132 50.8473C26.1132 52.5257 27.4739 53.8863 29.1523 53.8863Z" fill="#FFCA54"/>
<path d="M24.6032 35.1341L26.9354 30.1337C26.9079 30.0707 26.8832 30.0066 26.8609 29.9421C25.8123 28.8938 26.5206 29.6016 23.3638 26.4449L23.3374 26.5018L20.9946 31.5252L24.6032 35.1341Z" fill="#F9B24B"/>
<path d="M46.6807 32.6158C46.4648 31.9417 46.8362 31.2201 47.5104 31.0044C49.486 30.3716 54.119 28.3275 54.4712 23.0266C54.6798 19.882 55.8323 17.3896 57.8965 15.6185C61.6485 12.3992 67.0322 12.8249 67.2597 12.8446C67.9647 12.9057 68.4869 13.5267 68.4258 14.2321C68.3649 14.9364 67.7458 15.4583 67.0413 15.3986C66.9962 15.3949 62.4766 15.0555 59.554 17.5741C58.0393 18.8792 57.1899 20.771 57.0287 23.1964C56.7073 28.0347 53.523 31.7701 48.292 33.4456C47.6205 33.6609 46.8971 33.292 46.6807 32.6158Z" fill="#F9B732"/>
<path d="M49.0094 24.1266C49.9286 24.1266 50.6736 23.3815 50.6736 22.4623C50.6736 21.5432 49.9286 20.7981 49.0094 20.7981C48.0903 20.7981 47.3452 21.5432 47.3452 22.4623C47.3452 23.3815 48.0903 24.1266 49.0094 24.1266Z" fill="#FF4B4E"/>
<path d="M40.7149 4.58405C41.634 4.58405 42.3791 3.83895 42.3791 2.91983C42.3791 2.00071 41.634 1.25562 40.7149 1.25562C39.7958 1.25562 39.0507 2.00071 39.0507 2.91983C39.0507 3.83895 39.7958 4.58405 40.7149 4.58405Z" fill="#FF4B4E"/>
<path d="M58.1475 48.0925C58.1252 47.3851 58.6806 46.7935 59.3883 46.7713L61.9416 46.691C62.6494 46.6643 63.2405 47.2241 63.2627 47.9318C63.285 48.6393 62.7295 49.2308 62.0217 49.253L59.4686 49.3333C58.7677 49.3565 58.1697 48.805 58.1475 48.0925Z" fill="#00CDB3"/>
<path d="M35.0102 11.1008C34.3029 11.0786 33.7474 10.487 33.7694 9.77953L33.8497 7.22641C33.8721 6.51892 34.4624 5.96048 35.1711 5.98564C35.8786 6.00782 36.4341 6.59938 36.4119 7.30704L36.3316 9.86016C36.309 10.5816 35.6985 11.127 35.0102 11.1008Z" fill="#00CDB3"/>
<path d="M48.2576 13.1009C48.2354 12.3934 48.7907 11.8018 49.4984 11.7795L52.0513 11.6991C52.7584 11.6746 53.3504 12.2323 53.3726 12.9399C53.3949 13.6474 52.8395 14.239 52.1318 14.2612L49.5787 14.3415C48.8879 14.368 48.2801 13.8196 48.2576 13.1009Z" fill="#57BAE5"/>
<path d="M78.9411 29.9736C72.5663 28.8477 70.5475 33.0318 69.0738 36.0871C67.6074 39.1263 66.7997 40.801 63.0378 39.211C59.5466 37.7358 56.6344 37.5566 54.3811 38.6781C52.5844 39.5725 51.9247 40.9778 51.8552 41.135C51.4808 41.9849 52.1077 42.9338 53.0274 42.9338C53.5199 42.9338 53.9897 42.6483 54.201 42.1688C54.2155 42.1358 55.726 38.9046 62.0402 41.5721C67.868 44.035 69.7966 40.4877 71.3824 37.2008C72.8625 34.1327 74.0313 31.7091 78.4952 32.498C79.1927 32.6219 79.8572 32.156 79.9803 31.4588C80.1033 30.7618 79.638 30.0969 78.9411 29.9736Z" fill="#F9B732"/>
<path d="M48.5413 0.0201506C47.8443 0.143275 47.379 0.808274 47.5023 1.5053C48.7632 8.64435 41.3642 7.65701 38.5275 11.5856C37.342 13.2278 37.3095 15.3129 38.4281 17.9603C41.0168 24.0867 38.0126 25.7082 37.8187 25.8051C37.6789 25.866 36.4079 26.4507 36.8454 27.4268C37.4645 28.8079 38.8653 28.1451 38.8653 28.1451C40.3135 27.5068 43.937 24.4124 40.7892 16.9625C39.1995 13.2007 40.7748 12.4408 43.9129 10.9267C46.9682 9.45279 51.1524 7.43404 50.0263 1.05937C49.9034 0.362337 49.2387 -0.102037 48.5413 0.0201506Z" fill="#F9B732"/>
<path d="M56.4158 52.3893C53.6526 49.626 30.4193 26.3939 27.6111 23.5845C26.5825 22.5561 24.9148 22.5561 23.8861 23.5845C22.8575 24.6131 22.8575 26.2808 23.8861 27.3095L52.691 56.1143C53.7196 57.1427 55.3871 57.1427 56.416 56.1143C57.4443 55.0857 57.4443 53.4179 56.4158 52.3893Z" fill="#57BAE5"/>
<path d="M52.6909 56.114C53.7194 57.1424 55.387 57.1424 56.4159 56.114C57.4443 55.0857 57.4443 53.4179 56.4159 52.389L39.6962 35.6697C38.2807 36.724 36.9379 37.8703 35.674 39.0973L52.6909 56.114Z" fill="#70D1F2"/>
<path d="M23.3372 26.5019C23.5975 27.0976 23.5936 27.017 26.864 30.2872L26.9354 30.1339C26.1011 28.2253 27.7048 26.1525 29.7636 26.4808L29.7622 26.4781C29.7622 26.4781 30.5887 26.5634 30.0054 25.9797L27.6112 23.5845C26.523 22.4964 24.7211 22.5619 23.723 23.7655C23.0934 24.5191 22.9373 25.5897 23.3372 26.5019Z" fill="#34A9D1"/>
</g>
<defs>
<clipPath id="clip0">
<rect width="80" height="80" fill="white"/>
</clipPath>
</defs>
</svg>
