<svg width="416" height="185" viewBox="0 0 416 185" fill="none" xmlns="http://www.w3.org/2000/svg">
<g clip-path="url(#clip0_2334_111058)">
<rect y="0.265625" width="416" height="184" rx="16" fill="#AF9EFF"/>
<mask id="path-2-outside-1_2334_111058" maskUnits="userSpaceOnUse" x="95.3282" y="-21.2586" width="229.614" height="225.048" fill="black">
<rect fill="white" x="95.3282" y="-21.2586" width="229.614" height="225.048"/>
<path fill-rule="evenodd" clip-rule="evenodd" d="M253.209 18.0607C250.562 15.5671 249.487 11.7351 250.71 7.98641C252.398 2.8153 258.034 -0.0381266 263.234 1.64547C265.439 2.3594 267.377 3.89163 268.535 5.86488C268.562 5.9047 268.589 5.94483 268.613 5.98528C270.204 8.31938 270.542 11.2876 269.621 14.1082C268.198 18.4666 263.971 21.1786 259.564 20.9153L257.164 28.2682L258.34 28.649C258.173 28.6044 258.007 28.5609 257.84 28.5183C275.74 35.0226 287.704 51.3203 288.454 68.5243L291.208 60.0854C292.052 57.4998 294.87 56.0731 297.47 56.9149C300.07 57.7567 301.507 60.5609 300.663 63.1465L289.922 96.0536C289.078 98.6391 286.26 100.066 283.66 99.2241C282.798 98.9451 282.065 98.4507 281.499 97.8201L280.281 101.551L280.722 103.89L285.15 102.485C287.21 101.832 289.412 102.963 290.071 105.013L292.455 112.433C293.113 114.48 291.979 116.672 289.919 117.325L283.626 119.321L284.95 126.36L294.873 116.561C295.095 116.318 295.378 116.138 295.693 116.042C296.009 115.945 296.344 115.935 296.665 116.012C297.139 116.126 297.549 116.423 297.803 116.837C298.057 117.251 298.136 117.748 298.022 118.22C297.978 118.397 297.908 118.568 297.814 118.725L291.028 135.35L300.859 137.718C301.846 137.955 302.453 138.945 302.215 139.926C302.121 140.313 301.888 140.615 301.605 140.856L301.615 140.891L298.484 143.985L299.454 147.003C300.112 149.051 298.978 151.242 296.918 151.896L290.16 154.039L291.249 159.825C291.907 161.873 290.772 164.064 288.712 164.718L281.255 167.083C279.195 167.736 276.992 166.603 276.334 164.555L275.245 158.769L256.604 164.681L257.693 170.468C258.351 172.516 257.216 174.707 255.156 175.361L247.699 177.725C245.639 178.379 243.436 177.246 242.778 175.198L242.332 172.826C229.416 179.098 217.567 179.36 217.567 179.36L211.953 172.17C217.845 170.025 224.208 166.847 230.353 162.103L229.955 160.868C229.804 160.397 229.748 159.92 229.775 159.455C219.622 165.035 206.004 169.55 187.254 169.853C160.881 170.278 144.368 162.048 133.383 154.061C142.655 164.311 153.276 169.895 162.649 172.966L157.285 180.333C157.285 180.333 131.033 180.6 113.404 161.048C114.217 142.29 117.208 127.046 120.574 115.398L113.497 116.677C113.017 116.764 112.522 116.657 112.121 116.381C111.72 116.105 111.445 115.682 111.357 115.205C111.29 114.842 111.335 114.468 111.485 114.132L111.484 114.128L121.592 88.2959C121.695 87.9842 121.881 87.706 122.129 87.4904C122.378 87.2749 122.681 87.13 123.005 87.0709C123.485 86.9843 123.98 87.0907 124.381 87.3669C124.783 87.643 125.057 88.0663 125.145 88.5435C125.178 88.7235 125.183 88.9074 125.161 89.0889L125.544 100.966C129.196 91.9818 132.236 87.4348 132.236 87.4348C132.236 87.4348 146.502 75.6649 165.497 73.5689L167.187 76.7939C152.275 80.3968 143.436 86.8907 135.7 94.0433C149.128 86.9455 162.393 80.2835 185.706 79.9071C187.69 79.8751 189.604 79.8909 191.452 79.9508C189.87 78.2021 189.139 76.5167 189.629 75.0143L191.675 68.746C190.849 68.9217 189.968 68.8907 189.111 68.6132C186.511 67.7714 185.074 64.9672 185.918 62.3817L196.66 29.4746C197.504 26.889 200.321 25.4623 202.922 26.3041C205.522 27.1459 206.958 29.9501 206.115 32.5357L203.369 40.9458C207.919 35.2593 213.99 30.875 220.865 28.1012C221.375 27.8954 221.89 27.6984 222.409 27.5104C231.656 24.1595 242.217 23.667 252.434 26.7466L254.822 19.429C254.509 19.2541 254.214 19.0771 253.941 18.9076C253.65 18.6661 253.408 18.3803 253.209 18.0607ZM238.041 154.216L238.785 153.98L238.734 153.709C238.505 153.878 238.274 154.047 238.041 154.216ZM259.59 147.382C258.674 140.334 257.476 133.888 256.121 128.043L268.711 124.05L272.341 143.338L259.59 147.382ZM251.938 113.018C250.976 110.087 249.998 107.392 249.035 104.932C254.512 106.025 260.416 106.962 265.56 107.307L265.807 108.62L251.938 113.018Z"/>
</mask>
<path fill-rule="evenodd" clip-rule="evenodd" d="M253.209 18.0607C250.562 15.5671 249.487 11.7351 250.71 7.98641C252.398 2.8153 258.034 -0.0381266 263.234 1.64547C265.439 2.3594 267.377 3.89163 268.535 5.86488C268.562 5.9047 268.589 5.94483 268.613 5.98528C270.204 8.31938 270.542 11.2876 269.621 14.1082C268.198 18.4666 263.971 21.1786 259.564 20.9153L257.164 28.2682L258.34 28.649C258.173 28.6044 258.007 28.5609 257.84 28.5183C275.74 35.0226 287.704 51.3203 288.454 68.5243L291.208 60.0854C292.052 57.4998 294.87 56.0731 297.47 56.9149C300.07 57.7567 301.507 60.5609 300.663 63.1465L289.922 96.0536C289.078 98.6391 286.26 100.066 283.66 99.2241C282.798 98.9451 282.065 98.4507 281.499 97.8201L280.281 101.551L280.722 103.89L285.15 102.485C287.21 101.832 289.412 102.963 290.071 105.013L292.455 112.433C293.113 114.48 291.979 116.672 289.919 117.325L283.626 119.321L284.95 126.36L294.873 116.561C295.095 116.318 295.378 116.138 295.693 116.042C296.009 115.945 296.344 115.935 296.665 116.012C297.139 116.126 297.549 116.423 297.803 116.837C298.057 117.251 298.136 117.748 298.022 118.22C297.978 118.397 297.908 118.568 297.814 118.725L291.028 135.35L300.859 137.718C301.846 137.955 302.453 138.945 302.215 139.926C302.121 140.313 301.888 140.615 301.605 140.856L301.615 140.891L298.484 143.985L299.454 147.003C300.112 149.051 298.978 151.242 296.918 151.896L290.16 154.039L291.249 159.825C291.907 161.873 290.772 164.064 288.712 164.718L281.255 167.083C279.195 167.736 276.992 166.603 276.334 164.555L275.245 158.769L256.604 164.681L257.693 170.468C258.351 172.516 257.216 174.707 255.156 175.361L247.699 177.725C245.639 178.379 243.436 177.246 242.778 175.198L242.332 172.826C229.416 179.098 217.567 179.36 217.567 179.36L211.953 172.17C217.845 170.025 224.208 166.847 230.353 162.103L229.955 160.868C229.804 160.397 229.748 159.92 229.775 159.455C219.622 165.035 206.004 169.55 187.254 169.853C160.881 170.278 144.368 162.048 133.383 154.061C142.655 164.311 153.276 169.895 162.649 172.966L157.285 180.333C157.285 180.333 131.033 180.6 113.404 161.048C114.217 142.29 117.208 127.046 120.574 115.398L113.497 116.677C113.017 116.764 112.522 116.657 112.121 116.381C111.72 116.105 111.445 115.682 111.357 115.205C111.29 114.842 111.335 114.468 111.485 114.132L111.484 114.128L121.592 88.2959C121.695 87.9842 121.881 87.706 122.129 87.4904C122.378 87.2749 122.681 87.13 123.005 87.0709C123.485 86.9843 123.98 87.0907 124.381 87.3669C124.783 87.643 125.057 88.0663 125.145 88.5435C125.178 88.7235 125.183 88.9074 125.161 89.0889L125.544 100.966C129.196 91.9818 132.236 87.4348 132.236 87.4348C132.236 87.4348 146.502 75.6649 165.497 73.5689L167.187 76.7939C152.275 80.3968 143.436 86.8907 135.7 94.0433C149.128 86.9455 162.393 80.2835 185.706 79.9071C187.69 79.8751 189.604 79.8909 191.452 79.9508C189.87 78.2021 189.139 76.5167 189.629 75.0143L191.675 68.746C190.849 68.9217 189.968 68.8907 189.111 68.6132C186.511 67.7714 185.074 64.9672 185.918 62.3817L196.66 29.4746C197.504 26.889 200.321 25.4623 202.922 26.3041C205.522 27.1459 206.958 29.9501 206.115 32.5357L203.369 40.9458C207.919 35.2593 213.99 30.875 220.865 28.1012C221.375 27.8954 221.89 27.6984 222.409 27.5104C231.656 24.1595 242.217 23.667 252.434 26.7466L254.822 19.429C254.509 19.2541 254.214 19.0771 253.941 18.9076C253.65 18.6661 253.408 18.3803 253.209 18.0607ZM238.041 154.216L238.785 153.98L238.734 153.709C238.505 153.878 238.274 154.047 238.041 154.216ZM259.59 147.382C258.674 140.334 257.476 133.888 256.121 128.043L268.711 124.05L272.341 143.338L259.59 147.382ZM251.938 113.018C250.976 110.087 249.998 107.392 249.035 104.932C254.512 106.025 260.416 106.962 265.56 107.307L265.807 108.62L251.938 113.018Z" fill="white"/>
<path d="M250.71 7.98641L241.445 4.96226L241.445 4.96226L250.71 7.98641ZM253.209 18.0607L261.479 12.904C261.035 12.193 260.502 11.542 259.892 10.9674L253.209 18.0607ZM263.234 1.64547L260.232 10.9176L263.234 1.64547ZM268.535 5.86488L260.128 10.796C260.254 11.0108 260.388 11.2207 260.531 11.4252L268.535 5.86488ZM268.613 5.98528L260.308 11.0844C260.389 11.2159 260.472 11.3453 260.559 11.4728L268.613 5.98528ZM269.621 14.1082L278.886 17.1323L269.621 14.1082ZM259.564 20.9153L260.145 11.1868C255.721 10.9224 251.675 13.6773 250.299 17.8912L259.564 20.9153ZM257.164 28.2682L247.899 25.2441C247.096 27.7051 247.305 30.3847 248.48 32.6915C249.655 34.9983 251.699 36.7429 254.162 37.5403L257.164 28.2682ZM258.34 28.649L255.822 38.064C260.927 39.4293 266.19 36.4777 267.687 31.4099C269.184 26.3421 266.369 21.0045 261.342 19.3769L258.34 28.649ZM257.84 28.5183L260.249 19.0747C255.214 17.7908 250.058 20.6817 248.527 25.6464C246.996 30.6111 249.629 35.9039 254.512 37.6783L257.84 28.5183ZM288.454 68.5243L278.717 68.9486C278.922 73.6554 282.465 77.5416 287.133 78.1803C291.8 78.8189 296.257 76.0271 297.719 71.5484L288.454 68.5243ZM291.208 60.0854L281.943 57.0613L281.943 57.0613L291.208 60.0854ZM297.47 56.9149L294.468 66.187L294.468 66.187L297.47 56.9149ZM300.663 63.1465L309.928 66.1706L309.928 66.1706L300.663 63.1465ZM289.922 96.0536L299.187 99.0777L289.922 96.0536ZM283.66 99.2241L286.662 89.952L286.662 89.952L283.66 99.2241ZM281.499 97.8201L288.755 91.3134C286.429 88.7203 282.897 87.5653 279.489 88.2838C276.081 89.0022 273.315 91.4849 272.234 94.796L281.499 97.8201ZM280.281 101.551L271.017 98.5269C270.508 100.084 270.401 101.744 270.704 103.354L280.281 101.551ZM280.722 103.89L271.144 105.692C271.66 108.434 273.326 110.823 275.721 112.255C278.115 113.686 281.008 114.023 283.668 113.18L280.722 103.89ZM285.15 102.485L288.097 111.775L288.097 111.775L285.15 102.485ZM290.071 105.013L299.35 102.031L299.35 102.031L290.071 105.013ZM292.455 112.433L283.177 115.414L283.177 115.414L292.455 112.433ZM289.919 117.325L286.973 108.035L286.973 108.035L289.919 117.325ZM283.626 119.321L280.679 110.031C275.983 111.52 273.137 116.281 274.048 121.123L283.626 119.321ZM284.95 126.36L275.373 128.162C276.039 131.703 278.605 134.588 282.044 135.662C285.483 136.737 289.235 135.826 291.798 133.294L284.95 126.36ZM294.873 116.561L301.721 123.496C301.843 123.375 301.963 123.251 302.078 123.123L294.873 116.561ZM295.693 116.042L298.55 125.36L298.55 125.36L295.693 116.042ZM296.665 116.012L298.948 106.537L298.937 106.534L296.665 116.012ZM297.803 116.837L306.108 111.736L306.108 111.736L297.803 116.837ZM298.022 118.22L307.49 120.531L307.493 120.517L298.022 118.22ZM297.814 118.725L289.456 113.712C289.201 114.138 288.978 114.582 288.791 115.042L297.814 118.725ZM291.028 135.35L282.005 131.667C280.931 134.297 281.059 137.265 282.354 139.794C283.65 142.322 285.984 144.159 288.746 144.825L291.028 135.35ZM300.859 137.718L303.141 128.243L300.859 137.718ZM302.215 139.926L311.687 142.224L311.687 142.223L302.215 139.926ZM301.605 140.856L295.278 133.443C292.393 135.906 291.199 139.818 292.217 143.472L301.605 140.856ZM301.615 140.891L308.466 147.823C310.982 145.337 311.953 141.682 311.004 138.275L301.615 140.891ZM298.484 143.985L291.634 137.053C289.021 139.635 288.082 143.468 289.206 146.967L298.484 143.985ZM299.454 147.003L308.733 144.022L308.733 144.022L299.454 147.003ZM296.918 151.896L293.972 142.606L293.972 142.606L296.918 151.896ZM290.16 154.039L287.213 144.749C282.517 146.238 279.671 150.999 280.582 155.841L290.16 154.039ZM291.249 159.825L281.671 161.628C281.746 162.027 281.846 162.421 281.97 162.807L291.249 159.825ZM288.712 164.718L291.658 174.008L291.658 174.008L288.712 164.718ZM281.255 167.083L284.201 176.373L284.201 176.373L281.255 167.083ZM276.334 164.555L266.757 166.358C266.832 166.757 266.931 167.15 267.056 167.537L276.334 164.555ZM275.245 158.769L284.823 156.966C284.307 154.224 282.641 151.835 280.246 150.404C277.852 148.972 274.958 148.635 272.299 149.479L275.245 158.769ZM256.604 164.681L253.657 155.391C248.961 156.88 246.114 161.641 247.026 166.483L256.604 164.681ZM257.693 170.468L248.115 172.271C248.19 172.67 248.29 173.063 248.414 173.45L257.693 170.468ZM255.156 175.361L258.102 184.65L258.102 184.65L255.156 175.361ZM247.699 177.725L250.645 187.015L250.645 187.015L247.699 177.725ZM242.778 175.198L233.201 177.001C233.276 177.399 233.376 177.793 233.5 178.18L242.778 175.198ZM242.332 172.826L251.91 171.024C251.348 168.039 249.427 165.487 246.714 164.121C244.001 162.755 240.807 162.732 238.075 164.059L242.332 172.826ZM217.567 179.36L209.886 185.358C211.779 187.783 214.707 189.172 217.783 189.104L217.567 179.36ZM211.953 172.17L208.619 163.012C205.688 164.079 203.445 166.484 202.585 169.482C201.725 172.481 202.352 175.709 204.271 178.168L211.953 172.17ZM230.353 162.103L236.308 169.818C239.558 167.309 240.887 163.032 239.631 159.122L230.353 162.103ZM229.955 160.868L239.234 157.886L239.234 157.886L229.955 160.868ZM229.775 159.455L239.504 160.026C239.712 156.484 237.979 153.11 234.98 151.215C231.981 149.321 228.189 149.205 225.08 150.914L229.775 159.455ZM187.254 169.853L187.412 179.597L187.412 179.597L187.254 169.853ZM133.383 154.061L139.115 146.178C135.076 143.242 129.472 143.833 126.134 147.547C122.797 151.26 122.806 156.896 126.155 160.599L133.383 154.061ZM162.649 172.966L170.528 178.702C172.363 176.182 172.881 172.936 171.923 169.97C170.965 167.004 168.646 164.675 165.684 163.704L162.649 172.966ZM157.285 180.333L157.384 190.079C160.466 190.047 163.351 188.56 165.164 186.069L157.285 180.333ZM113.404 161.048L103.667 160.626C103.556 163.18 104.454 165.675 106.166 167.574L113.404 161.048ZM120.574 115.398L129.937 118.104C130.873 114.865 130.069 111.372 127.81 108.869C125.551 106.366 122.159 105.208 118.842 105.808L120.574 115.398ZM113.497 116.677L115.23 126.268L115.23 126.268L113.497 116.677ZM112.121 116.381L106.595 124.409L106.595 124.409L112.121 116.381ZM111.357 115.205L120.942 113.442L120.941 113.432L111.357 115.205ZM111.485 114.132L120.384 118.105C121.187 116.306 121.426 114.307 121.07 112.37L111.485 114.132ZM111.484 114.128L102.408 110.577C101.747 112.266 101.571 114.107 101.899 115.891L111.484 114.128ZM121.592 88.2959L130.668 91.8471C130.731 91.6863 130.789 91.5239 130.843 91.36L121.592 88.2959ZM123.005 87.0709L121.273 77.4803L121.262 77.4823L123.005 87.0709ZM124.381 87.3669L129.907 79.3387L129.907 79.3386L124.381 87.3669ZM125.145 88.5435L134.733 86.7952L134.73 86.7814L125.145 88.5435ZM125.161 89.0889L115.486 87.9158C115.426 88.4092 115.404 88.9063 115.421 89.403L125.161 89.0889ZM125.544 100.966L115.803 101.28C115.952 105.88 119.298 109.749 123.829 110.559C128.36 111.37 132.84 108.899 134.573 104.635L125.544 100.966ZM132.236 87.4348L126.034 79.9172C125.302 80.5211 124.662 81.2287 124.135 82.0175L132.236 87.4348ZM165.497 73.5689L174.129 69.0446C172.266 65.4908 168.416 63.4417 164.428 63.8818L165.497 73.5689ZM167.187 76.7939L169.476 86.2672C172.395 85.5621 174.825 83.5512 176.064 80.8166C177.303 78.082 177.213 74.9288 175.819 72.2695L167.187 76.7939ZM135.7 94.0433L129.084 86.8874C125.49 90.21 124.918 95.6823 127.747 99.6762C130.575 103.67 135.927 104.947 140.254 102.66L135.7 94.0433ZM185.706 79.9071L185.863 89.6518L185.706 79.9071ZM191.452 79.9508L191.136 89.6917C195.045 89.8183 198.651 87.5963 200.295 84.0478C201.939 80.4994 201.303 76.3119 198.679 73.412L191.452 79.9508ZM189.629 75.0143L198.894 78.0385L198.894 78.0384L189.629 75.0143ZM191.675 68.746L200.94 71.7701C202.021 68.4575 201.252 64.8196 198.921 62.2288C196.591 59.6379 193.055 58.4882 189.647 59.2135L191.675 68.746ZM189.111 68.6132L186.11 77.8853L186.11 77.8853L189.111 68.6132ZM185.918 62.3817L195.183 65.4058L195.183 65.4058L185.918 62.3817ZM196.66 29.4746L205.924 32.4987L205.925 32.4987L196.66 29.4746ZM202.922 26.3041L199.92 35.5762L202.922 26.3041ZM206.115 32.5357L196.85 29.5115L196.85 29.5115L206.115 32.5357ZM203.369 40.9458L194.105 37.9216C192.643 42.3999 194.593 47.2827 198.738 49.5212C202.883 51.7596 208.036 50.7129 210.979 47.0345L203.369 40.9458ZM220.865 28.1012L224.511 37.1393L224.511 37.1393L220.865 28.1012ZM222.409 27.5104L225.729 36.6733L225.729 36.6733L222.409 27.5104ZM252.434 26.7466L249.621 36.0778C254.692 37.6063 260.055 34.8055 261.699 29.7707L252.434 26.7466ZM254.822 19.429L264.087 22.4532C265.533 18.0228 263.64 13.1886 259.571 10.918L254.822 19.429ZM253.941 18.9076L247.721 26.41C248.059 26.6904 248.416 26.9477 248.789 27.18L253.941 18.9076ZM238.785 153.98L241.731 163.27C246.428 161.78 249.274 157.019 248.363 152.177L238.785 153.98ZM238.041 154.216L232.334 146.316C228.454 149.118 227.184 154.323 229.336 158.598C231.487 162.873 236.425 164.952 240.987 163.506L238.041 154.216ZM238.734 153.709L248.312 151.907C247.692 148.611 245.421 145.866 242.3 144.639C239.179 143.412 235.646 143.876 232.948 145.867L238.734 153.709ZM256.121 128.043L253.174 118.753C248.329 120.29 245.478 125.293 246.627 130.245L256.121 128.043ZM259.59 147.382L249.926 148.639C250.298 151.501 251.92 154.051 254.354 155.602C256.789 157.152 259.785 157.544 262.537 156.672L259.59 147.382ZM268.711 124.05L278.289 122.248C277.773 119.506 276.107 117.117 273.712 115.685C271.318 114.254 268.424 113.917 265.765 114.76L268.711 124.05ZM272.341 143.338L275.287 152.628C279.984 151.138 282.83 146.378 281.919 141.535L272.341 143.338ZM249.035 104.932L250.943 95.3743C247.449 94.6767 243.852 95.9416 241.564 98.673C239.276 101.404 238.661 105.167 239.96 108.485L249.035 104.932ZM251.938 113.018L242.678 116.058C244.345 121.136 249.79 123.923 254.884 122.308L251.938 113.018ZM265.56 107.307L275.138 105.505C274.316 101.138 270.645 97.8804 266.212 97.5831L265.56 107.307ZM265.807 108.62L268.753 117.91C273.45 116.42 276.296 111.659 275.385 106.817L265.807 108.62ZM241.445 4.96226C239.042 12.3247 241.152 20.091 246.526 25.154L259.892 10.9674C259.899 10.9733 259.91 10.9858 259.921 11.0054C259.933 11.0247 259.942 11.0463 259.947 11.068C259.95 11.0785 259.952 11.0877 259.952 11.095C259.953 11.1023 259.953 11.1061 259.953 11.1057C259.953 11.1053 259.953 11.0984 259.956 11.0841C259.958 11.07 259.964 11.0456 259.975 11.0106L241.445 4.96226ZM266.236 -7.62662C255.966 -10.9517 244.814 -5.35894 241.445 4.96226L259.975 11.0106C259.979 10.998 259.98 10.9976 259.984 10.9934C259.993 10.9835 260.016 10.9613 260.057 10.9404C260.099 10.9194 260.137 10.9105 260.163 10.9082C260.182 10.9066 260.2 10.9072 260.232 10.9176L266.236 -7.62662ZM276.941 0.933777C274.538 -3.16283 270.643 -6.1997 266.236 -7.62662L260.232 10.9176C260.211 10.9106 260.203 10.906 260.205 10.9072C260.207 10.9083 260.211 10.9109 260.214 10.9134C260.217 10.9159 260.212 10.9123 260.199 10.8977C260.186 10.883 260.16 10.8508 260.128 10.796L276.941 0.933777ZM276.919 0.886113C276.794 0.682435 276.667 0.488634 276.539 0.304592L260.531 11.4252C260.458 11.3208 260.383 11.2072 260.308 11.0844L276.919 0.886113ZM278.886 17.1323C280.649 11.7292 280.123 5.56914 276.668 0.497768L260.559 11.4728C260.442 11.3004 260.396 11.135 260.384 11.0379C260.373 10.9494 260.395 10.9651 260.356 11.084L278.886 17.1323ZM258.983 30.6439C267.65 31.1617 276.037 25.8593 278.886 17.1323L260.356 11.084C260.352 11.0968 260.35 11.0974 260.35 11.0979C260.347 11.1018 260.334 11.1166 260.307 11.1349C260.279 11.1538 260.245 11.1691 260.212 11.1782C260.181 11.1867 260.159 11.1876 260.145 11.1868L258.983 30.6439ZM266.429 31.2924L268.829 23.9395L250.299 17.8912L247.899 25.2441L266.429 31.2924ZM261.342 19.3769L260.166 18.9962L254.162 37.5403L255.338 37.921L261.342 19.3769ZM255.432 37.962C255.562 37.9952 255.692 38.0292 255.822 38.064L260.858 19.234C260.655 19.1796 260.452 19.1265 260.249 19.0747L255.432 37.962ZM298.19 68.1C297.259 46.7307 282.558 27.131 261.169 19.3584L254.512 37.6783C268.921 42.9141 278.149 55.9099 278.717 68.9486L298.19 68.1ZM281.943 57.0613L279.189 65.5001L297.719 71.5484L300.473 63.1095L281.943 57.0613ZM300.472 47.6429C292.802 45.1596 284.468 49.3256 281.943 57.0613L300.473 63.1096C299.636 65.6741 296.938 66.9867 294.468 66.187L300.472 47.6429ZM309.928 66.1706C312.459 58.4173 308.159 50.1316 300.472 47.6428L294.468 66.187C291.981 65.3818 290.555 62.7045 291.398 60.1224L309.928 66.1706ZM299.187 99.0777L309.928 66.1706L291.398 60.1223L280.657 93.0294L299.187 99.0777ZM280.658 108.496C288.328 110.979 296.662 106.813 299.187 99.0777L280.657 93.0294C281.494 90.4649 284.192 89.1523 286.662 89.952L280.658 108.496ZM274.243 104.327C275.922 106.198 278.109 107.671 280.658 108.496L286.662 89.952C287.488 90.2195 288.208 90.7031 288.755 91.3134L274.243 104.327ZM289.546 104.575L290.764 100.844L272.234 94.796L271.017 98.5269L289.546 104.575ZM290.299 102.087L289.859 99.7485L270.704 103.354L271.144 105.692L290.299 102.087ZM282.204 93.1953L277.775 94.5999L283.668 113.18L288.097 111.775L282.204 93.1953ZM299.35 102.031C297.038 94.8377 289.348 90.9298 282.204 93.1954L288.097 111.775C285.073 112.734 281.787 111.088 280.792 107.994L299.35 102.031ZM301.734 109.451L299.35 102.031L280.792 107.994L283.177 115.414L301.734 109.451ZM292.865 126.615C300.039 124.34 304.053 116.668 301.734 109.451L283.177 115.414C282.174 112.293 283.919 109.003 286.973 108.035L292.865 126.615ZM286.572 128.611L292.865 126.615L286.973 108.035L280.679 110.031L286.572 128.611ZM294.528 124.557L293.203 117.518L274.048 121.123L275.373 128.162L294.528 124.557ZM288.025 109.626L278.102 119.425L291.798 133.294L301.721 123.496L288.025 109.626ZM292.837 106.724C290.856 107.331 289.069 108.46 287.668 109.999L302.078 123.123C301.12 124.176 299.9 124.946 298.55 125.36L292.837 106.724ZM298.937 106.534C296.924 106.052 294.818 106.117 292.837 106.724L298.55 125.36C297.199 125.774 295.765 125.818 294.394 125.489L298.937 106.534ZM306.108 111.736C304.498 109.116 301.919 107.252 298.948 106.537L294.383 125.487C292.36 124.999 290.599 123.729 289.498 121.937L306.108 111.736ZM307.493 120.517C308.22 117.518 307.718 114.358 306.108 111.736L289.498 121.937C288.397 120.144 288.051 117.979 288.55 115.922L307.493 120.517ZM306.172 123.737C306.769 122.741 307.214 121.661 307.49 120.531L288.554 115.909C288.743 115.134 289.047 114.394 289.456 113.712L306.172 123.737ZM300.051 139.033L306.837 122.408L288.791 115.042L282.005 131.667L300.051 139.033ZM303.141 128.243L293.31 125.875L288.746 144.825L298.577 147.193L303.141 128.243ZM311.687 142.223C313.206 135.96 309.321 129.731 303.141 128.243L298.577 147.193C294.371 146.18 291.701 141.93 292.744 137.628L311.687 142.223ZM307.933 148.268C309.223 147.167 310.962 145.21 311.687 142.224L292.744 137.628C293.281 135.416 294.553 134.062 295.278 133.443L307.933 148.268ZM311.004 138.275L310.994 138.239L292.217 143.472L292.227 143.507L311.004 138.275ZM305.335 150.917L308.466 147.823L294.765 133.959L291.634 137.053L305.335 150.917ZM308.733 144.022L307.763 141.004L289.206 146.967L290.176 149.985L308.733 144.022ZM299.864 161.186C307.038 158.91 311.052 151.238 308.733 144.022L290.176 149.985C289.173 146.864 290.918 143.574 293.972 142.606L299.864 161.186ZM293.106 163.329L299.864 161.186L293.972 142.606L287.213 144.749L293.106 163.329ZM300.826 158.023L299.737 152.236L280.582 155.841L281.671 161.628L300.826 158.023ZM291.658 174.008C298.832 171.733 302.846 164.061 300.527 156.844L281.97 162.807C280.967 159.686 282.712 156.396 285.766 155.428L291.658 174.008ZM284.201 176.373L291.658 174.008L285.766 155.428L278.309 157.793L284.201 176.373ZM267.056 167.537C269.366 174.725 277.054 178.639 284.201 176.373L278.309 157.793C281.335 156.833 284.619 158.481 285.613 161.574L267.056 167.537ZM265.667 160.571L266.757 166.358L285.912 162.753L284.823 156.966L265.667 160.571ZM259.55 173.971L278.191 168.059L272.299 149.479L253.657 155.391L259.55 173.971ZM267.271 168.666L266.181 162.878L247.026 166.483L248.115 172.271L267.271 168.666ZM258.102 184.65C265.276 182.375 269.29 174.703 266.971 167.487L248.414 173.45C247.411 170.329 249.156 167.039 252.21 166.071L258.102 184.65ZM250.645 187.015L258.102 184.65L252.21 166.071L244.753 168.435L250.645 187.015ZM233.5 178.18C235.81 185.368 243.499 189.282 250.645 187.015L244.753 168.435C247.78 167.476 251.063 169.124 252.057 172.216L233.5 178.18ZM232.754 174.629L233.201 177.001L252.356 173.395L251.91 171.024L232.754 174.629ZM217.567 179.36C217.783 189.104 217.785 189.103 217.788 189.103C217.789 189.103 217.791 189.103 217.793 189.103C217.797 189.103 217.8 189.103 217.804 189.103C217.812 189.103 217.821 189.103 217.83 189.102C217.849 189.102 217.871 189.101 217.895 189.101C217.944 189.099 218.005 189.097 218.077 189.094C218.221 189.089 218.411 189.08 218.643 189.067C219.106 189.042 219.742 188.998 220.527 188.925C222.094 188.778 224.273 188.512 226.885 188.027C232.081 187.063 239.153 185.204 246.589 181.593L238.075 164.059C232.595 166.72 227.285 168.128 223.328 168.863C221.363 169.227 219.772 169.419 218.715 169.517C218.187 169.567 217.796 169.593 217.561 169.606C217.444 169.612 217.366 169.615 217.33 169.617C217.312 169.617 217.305 169.618 217.308 169.618C217.31 169.617 217.315 169.617 217.322 169.617C217.325 169.617 217.33 169.617 217.335 169.617C217.337 169.617 217.34 169.617 217.343 169.617C217.344 169.617 217.347 169.617 217.347 169.617C217.35 169.616 217.352 169.616 217.567 179.36ZM204.271 178.168L209.886 185.358L225.249 173.362L219.635 166.172L204.271 178.168ZM224.397 154.389C219.168 158.425 213.724 161.153 208.619 163.012L215.287 181.328C221.966 178.896 229.247 175.268 236.308 169.818L224.397 154.389ZM220.677 163.849L221.074 165.085L239.631 159.122L239.234 157.886L220.677 163.849ZM220.046 158.884C219.949 160.533 220.152 162.216 220.677 163.849L239.234 157.886C239.457 158.579 239.546 159.306 239.504 160.026L220.046 158.884ZM187.412 179.597C207.753 179.269 222.928 174.339 234.469 167.996L225.08 150.914C216.316 155.731 204.255 159.831 187.097 160.108L187.412 179.597ZM127.652 161.944C140.086 170.984 158.626 180.062 187.412 179.597L187.097 160.108C163.136 160.495 148.649 153.111 139.115 146.178L127.652 161.944ZM165.684 163.704C157.581 161.049 148.527 156.275 140.611 147.523L126.155 160.599C136.783 172.348 148.972 178.74 159.614 182.227L165.684 163.704ZM165.164 186.069L170.528 178.702L154.77 167.229L149.406 174.597L165.164 186.069ZM106.166 167.574C116.626 179.175 129.494 184.741 139.405 187.429C144.392 188.781 148.758 189.441 151.914 189.764C153.497 189.927 154.791 190.006 155.723 190.044C156.19 190.063 156.567 190.072 156.846 190.076C156.986 190.078 157.102 190.079 157.192 190.079C157.237 190.079 157.275 190.079 157.307 190.079C157.324 190.079 157.338 190.079 157.351 190.079C157.357 190.079 157.363 190.079 157.369 190.079C157.372 190.079 157.376 190.079 157.377 190.079C157.381 190.079 157.384 190.079 157.285 180.333C157.186 170.588 157.189 170.588 157.193 170.588C157.194 170.588 157.197 170.588 157.199 170.588C157.203 170.588 157.207 170.588 157.21 170.587C157.216 170.587 157.221 170.587 157.225 170.587C157.232 170.587 157.232 170.587 157.227 170.587C157.217 170.587 157.182 170.587 157.126 170.586C157.012 170.585 156.808 170.58 156.522 170.569C155.95 170.545 155.055 170.492 153.901 170.374C151.585 170.137 148.286 169.641 144.506 168.616C136.884 166.549 127.811 162.473 120.642 154.522L106.166 167.574ZM111.212 112.692C107.642 125.046 104.516 141.056 103.667 160.626L123.141 161.47C123.919 143.525 126.775 129.047 129.937 118.104L111.212 112.692ZM115.23 126.268L122.307 124.989L118.842 105.808L111.764 107.086L115.23 126.268ZM106.595 124.409C109.117 126.145 112.221 126.811 115.23 126.268L111.764 107.086C113.813 106.716 115.927 107.17 117.646 108.353L106.595 124.409ZM101.772 116.967C102.329 120 104.072 122.673 106.595 124.409L117.646 108.353C119.367 109.537 120.56 111.364 120.942 113.442L101.772 116.967ZM102.585 110.159C101.631 112.297 101.348 114.674 101.774 116.977L120.941 113.432C121.232 115.01 121.038 116.64 120.384 118.105L102.585 110.159ZM101.899 115.891L101.9 115.894L121.07 112.37L121.07 112.366L101.899 115.891ZM112.516 84.7448L102.408 110.577L120.56 117.68L130.668 91.8471L112.516 84.7448ZM115.747 80.1249C114.175 81.4869 112.996 83.25 112.34 85.2319L130.843 91.36C130.394 92.7184 129.586 93.925 128.512 94.856L115.747 80.1249ZM121.262 77.4823C119.224 77.8527 117.319 78.7632 115.747 80.1249L128.512 94.856C127.438 95.7865 126.137 96.4072 124.749 96.6596L121.262 77.4823ZM129.907 79.3386C127.385 77.6031 124.281 76.9368 121.273 77.4803L124.738 96.6616C122.69 97.0318 120.575 96.5783 118.856 95.3952L129.907 79.3386ZM134.73 86.7814C134.173 83.7483 132.43 81.0754 129.907 79.3387L118.856 95.3951C117.135 94.2107 115.942 92.3843 115.56 90.3056L134.73 86.7814ZM134.836 90.262C134.976 89.1074 134.941 87.9387 134.733 86.7952L115.557 90.2918C115.414 89.5084 115.39 88.7073 115.486 87.9158L134.836 90.262ZM135.285 100.652L134.902 88.7748L115.421 89.403L115.803 101.28L135.285 100.652ZM132.236 87.4348C124.135 82.0175 124.134 82.0189 124.133 82.0204C124.132 82.0209 124.131 82.0224 124.131 82.0234C124.129 82.0254 124.128 82.0275 124.127 82.0297C124.124 82.034 124.121 82.0387 124.117 82.0436C124.111 82.0534 124.104 82.0643 124.096 82.0764C124.08 82.1006 124.061 82.1293 124.039 82.1625C123.996 82.2289 123.941 82.3135 123.876 82.4161C123.745 82.6213 123.572 82.8989 123.361 83.2486C122.939 83.9481 122.365 84.9362 121.678 86.2114C120.305 88.7618 118.481 92.4613 116.516 97.2959L134.573 104.635C136.259 100.486 137.781 97.4203 138.841 95.4511C139.371 94.4666 139.786 93.7565 140.048 93.3226C140.179 93.1056 140.271 92.9578 140.321 92.8793C140.346 92.84 140.361 92.8181 140.363 92.8135C140.365 92.8112 140.364 92.8133 140.359 92.8197C140.357 92.8229 140.354 92.8272 140.351 92.8326C140.349 92.8353 140.347 92.8382 140.345 92.8415C140.344 92.8431 140.343 92.8448 140.342 92.8465C140.341 92.8474 140.34 92.8488 140.34 92.8492C140.339 92.8506 140.338 92.852 132.236 87.4348ZM164.428 63.8818C153.283 65.1115 143.74 69.1377 137.117 72.7102C133.773 74.5141 131.082 76.2514 129.199 77.561C128.255 78.2172 127.507 78.7704 126.975 79.1767C126.708 79.38 126.495 79.5469 126.338 79.672C126.259 79.7345 126.194 79.7867 126.143 79.8278C126.118 79.8483 126.096 79.8661 126.078 79.881C126.069 79.8885 126.061 79.8952 126.053 79.9013C126.05 79.9043 126.046 79.9071 126.043 79.9097C126.041 79.9111 126.039 79.9129 126.038 79.9136C126.036 79.9154 126.034 79.9172 132.236 87.4348C138.439 94.9523 138.437 94.954 138.435 94.9556C138.434 94.9561 138.432 94.9577 138.431 94.9587C138.429 94.9606 138.426 94.9624 138.425 94.964C138.421 94.9671 138.418 94.9696 138.415 94.9714C138.411 94.975 138.41 94.9759 138.412 94.9741C138.417 94.9705 138.434 94.9563 138.465 94.9322C138.525 94.8838 138.637 94.7958 138.798 94.6732C139.12 94.4276 139.635 94.0449 140.325 93.565C141.71 92.6022 143.774 91.266 146.37 89.8655C151.629 87.029 158.716 84.1223 166.566 83.256L164.428 63.8818ZM175.819 72.2695L174.129 69.0446L156.865 78.0932L158.555 81.3182L175.819 72.2695ZM142.316 101.199C149.261 94.7782 156.668 89.3619 169.476 86.2672L164.898 67.3205C147.883 71.4317 137.611 79.0033 129.084 86.8874L142.316 101.199ZM185.548 70.1625C159.938 70.5759 145.038 78.0839 131.146 85.427L140.254 102.66C153.219 95.807 164.848 89.991 185.863 89.6518L185.548 70.1625ZM191.768 70.21C189.757 70.1449 187.686 70.128 185.548 70.1625L185.863 89.6518C187.695 89.6222 189.45 89.637 191.136 89.6917L191.768 70.21ZM180.364 71.9901C178.156 78.7564 182.102 84.143 184.225 86.4897L198.679 73.412C198.365 73.0649 198.599 73.2165 198.856 73.8831C199.162 74.6768 199.487 76.2226 198.894 78.0385L180.364 71.9901ZM182.41 65.7218L180.364 71.9901L198.894 78.0384L200.94 71.7701L182.41 65.7218ZM186.11 77.8853C188.645 78.7062 191.263 78.7978 193.703 78.2785L189.647 59.2135C190.435 59.0456 191.292 59.0752 192.113 59.3411L186.11 77.8853ZM176.654 59.3575C174.123 67.1108 178.422 75.3965 186.11 77.8853L192.113 59.3411C194.6 60.1463 196.026 62.8236 195.183 65.4058L176.654 59.3575ZM187.395 26.4504L176.654 59.3575L195.183 65.4058L205.924 32.4987L187.395 26.4504ZM205.923 17.032C198.253 14.5487 189.92 18.7148 187.395 26.4504L205.925 32.4987C205.087 35.0633 202.39 36.3759 199.92 35.5762L205.923 17.032ZM215.379 35.5598C217.91 27.8065 213.611 19.5208 205.923 17.032L199.92 35.5762C197.433 34.771 196.007 32.0937 196.85 29.5115L215.379 35.5598ZM212.634 43.9699L215.379 35.5598L196.85 29.5115L194.105 37.9216L212.634 43.9699ZM217.218 19.0632C208.898 22.4201 201.425 27.7761 195.759 34.8571L210.979 47.0345C214.413 42.7424 219.082 39.3298 224.511 37.1393L217.218 19.0632ZM219.088 18.3474C218.46 18.575 217.837 18.8136 217.218 19.0632L224.511 37.1393C224.913 36.9771 225.319 36.8217 225.729 36.6733L219.088 18.3474ZM255.246 17.4153C242.975 13.7164 230.263 14.2982 219.088 18.3475L225.729 36.6733C233.048 34.0209 241.459 33.6176 249.621 36.0778L255.246 17.4153ZM245.557 16.4049L243.169 23.7224L261.699 29.7707L264.087 22.4532L245.557 16.4049ZM248.789 27.18C249.16 27.4115 249.593 27.6719 250.074 27.94L259.571 10.918C259.424 10.8364 259.267 10.7427 259.094 10.6353L248.789 27.18ZM244.939 23.2174C245.637 24.3365 246.549 25.4389 247.721 26.41L260.162 11.4053C260.751 11.8933 261.18 12.4241 261.479 12.904L244.939 23.2174ZM235.839 144.69L235.095 144.926L240.987 163.506L241.731 163.27L235.839 144.69ZM229.156 155.512L229.207 155.782L248.363 152.177L248.312 151.907L229.156 155.512ZM243.748 162.116C244.009 161.927 244.266 161.739 244.521 161.551L232.948 145.867C232.745 146.017 232.54 146.167 232.334 146.316L243.748 162.116ZM246.627 130.245C247.911 135.783 249.051 141.915 249.926 148.639L269.255 146.124C268.296 138.753 267.041 131.992 265.615 125.842L246.627 130.245ZM265.765 114.76L253.174 118.753L259.067 137.333L271.657 133.34L265.765 114.76ZM281.919 141.535L278.289 122.248L259.133 125.853L262.763 145.14L281.919 141.535ZM262.537 156.672L275.287 152.628L269.395 134.048L256.644 138.092L262.537 156.672ZM239.96 108.485C240.858 110.779 241.774 113.304 242.678 116.058L261.198 109.978C260.177 106.871 259.138 104.004 258.11 101.378L239.96 108.485ZM266.212 97.5831C261.658 97.2775 256.213 96.4265 250.943 95.3743L247.127 114.489C252.811 115.624 259.173 116.646 264.908 117.031L266.212 97.5831ZM275.385 106.817L275.138 105.505L255.982 109.11L256.229 110.422L275.385 106.817ZM254.884 122.308L268.753 117.91L262.861 99.3297L248.992 103.728L254.884 122.308Z" fill="white" mask="url(#path-2-outside-1_2334_111058)"/>
<path d="M259.877 6.42495L263.06 7.45517L255.124 31.7666L251.942 30.7364L259.877 6.42495ZM291.997 60.1516C292.701 57.996 295.058 56.7983 297.234 57.5031C299.411 58.2079 300.61 60.5568 299.907 62.7124L289.165 95.6195C288.462 97.7751 286.105 98.9728 283.928 98.2681C281.751 97.5633 280.552 95.2144 281.256 93.0587L291.997 60.1516ZM197.449 29.5408C198.152 27.3852 200.509 26.1875 202.686 26.8922C204.863 27.597 206.062 29.9459 205.358 32.1016L194.617 65.0087C193.913 67.1643 191.556 68.362 189.38 67.6572C187.203 66.9524 186.004 64.6035 186.707 62.4479L197.449 29.5408Z" fill="#C6BBFC" stroke="black" stroke-width="1.62432"/>
<mask id="path-5-inside-2_2334_111058" fill="white">
<path fill-rule="evenodd" clip-rule="evenodd" d="M253.224 17.889C250.578 15.3954 249.502 11.5633 250.726 7.81468C252.414 2.64357 258.049 -0.209856 263.249 1.47374C265.455 2.18767 267.393 3.7199 268.55 5.69315C268.578 5.73297 268.604 5.7731 268.629 5.81355C270.219 8.14765 270.557 11.1158 269.636 13.9364C267.949 19.1076 262.313 21.961 257.113 20.2774C255.931 19.8948 254.826 19.2771 253.957 18.7359C253.666 18.4943 253.424 18.2085 253.224 17.889ZM189.644 74.8426L196.78 52.9828C200.611 41.245 209.678 32.4491 220.88 27.9295C221.375 27.73 221.874 27.5388 222.376 27.3561C231.919 23.886 242.867 23.4619 253.393 26.8697L256.229 27.7881C256.312 27.8149 256.395 27.842 256.478 27.8692L258.356 28.4772C258.189 28.4327 258.022 28.3891 257.856 28.3466C280.501 36.5754 293.647 60.4796 286.602 82.0627L279.467 103.922C276.858 111.914 241.191 103.485 232.445 100.654L229.609 99.7355C223.361 97.7128 204.316 89.9554 194.896 82.7754L194.894 82.7796C191.1 79.9918 188.877 77.1931 189.644 74.8426Z"/>
</mask>
<path fill-rule="evenodd" clip-rule="evenodd" d="M253.224 17.889C250.578 15.3954 249.502 11.5633 250.726 7.81468C252.414 2.64357 258.049 -0.209856 263.249 1.47374C265.455 2.18767 267.393 3.7199 268.55 5.69315C268.578 5.73297 268.604 5.7731 268.629 5.81355C270.219 8.14765 270.557 11.1158 269.636 13.9364C267.949 19.1076 262.313 21.961 257.113 20.2774C255.931 19.8948 254.826 19.2771 253.957 18.7359C253.666 18.4943 253.424 18.2085 253.224 17.889ZM189.644 74.8426L196.78 52.9828C200.611 41.245 209.678 32.4491 220.88 27.9295C221.375 27.73 221.874 27.5388 222.376 27.3561C231.919 23.886 242.867 23.4619 253.393 26.8697L256.229 27.7881C256.312 27.8149 256.395 27.842 256.478 27.8692L258.356 28.4772C258.189 28.4327 258.022 28.3891 257.856 28.3466C280.501 36.5754 293.647 60.4796 286.602 82.0627L279.467 103.922C276.858 111.914 241.191 103.485 232.445 100.654L229.609 99.7355C223.361 97.7128 204.316 89.9554 194.896 82.7754L194.894 82.7796C191.1 79.9918 188.877 77.1931 189.644 74.8426Z" fill="#84BCFF"/>
<path d="M253.224 17.889L254.605 17.0291L254.494 16.8512L254.341 16.7074L253.224 17.889ZM268.55 5.69315L267.147 6.51558L267.179 6.56921L267.214 6.62028L268.55 5.69315ZM268.629 5.81355L267.243 6.66362L267.263 6.6965L267.284 6.72839L268.629 5.81355ZM253.957 18.7359L252.917 19.9855L253.002 20.0556L253.095 20.1136L253.957 18.7359ZM196.78 52.9828L198.325 53.4832L196.78 52.9828ZM189.644 74.8426L188.099 74.3422L189.644 74.8426ZM220.88 27.9295L221.487 29.4343L221.487 29.4343L220.88 27.9295ZM222.375 27.3566L222.928 28.8817L222.928 28.8817L222.375 27.3566ZM256.477 27.869L255.965 29.4105L255.973 29.4131L256.477 27.869ZM258.356 28.4772L257.932 30.0452L258.86 26.9331L258.356 28.4772ZM257.856 28.3466L258.261 26.7739L257.297 29.8721L257.856 28.3466ZM194.896 82.7754L195.883 81.4844L194.062 80.0959L193.35 82.2751L194.896 82.7754ZM194.894 82.7796L193.929 84.0877L195.741 85.419L196.44 83.2799L194.894 82.7796ZM254.341 16.7074C252.147 14.6403 251.244 11.4617 252.271 8.315L249.18 7.31437C247.76 11.6649 249.008 16.1504 252.108 19.0706L254.341 16.7074ZM252.271 8.315C253.678 4.00371 258.392 1.60833 262.745 3.01788L263.754 -0.0704032C257.707 -2.02804 251.149 1.28343 249.18 7.31437L252.271 8.315ZM262.745 3.01788C264.584 3.613 266.196 4.89482 267.147 6.51558L269.953 4.87072C268.589 2.54497 266.326 0.762349 263.754 -0.0704032L262.745 3.01788ZM267.214 6.62028C267.225 6.63597 267.234 6.65043 267.243 6.66362L270.015 4.96348C269.974 4.89577 269.931 4.82996 269.886 4.76602L267.214 6.62028ZM267.284 6.72839C268.565 8.60814 268.871 11.0459 268.091 13.4361L271.182 14.4368C272.243 11.1858 271.873 7.68715 269.973 4.89871L267.284 6.72839ZM268.091 13.4361C266.684 17.7474 261.97 20.1428 257.617 18.7332L256.609 21.8215C262.655 23.7792 269.213 20.4677 271.182 14.4368L268.091 13.4361ZM257.617 18.7332C256.621 18.411 255.647 17.8741 254.819 17.3582L253.095 20.1136C254.004 20.68 255.24 21.3785 256.609 21.8215L257.617 18.7332ZM254.997 17.4863C254.852 17.366 254.721 17.2159 254.605 17.0291L251.844 18.7489C252.126 19.2012 252.479 19.6227 252.917 19.9855L254.997 17.4863ZM195.234 52.4825L188.099 74.3422L191.19 75.3429L198.325 53.4832L195.234 52.4825ZM220.274 26.4247C208.679 31.1026 199.232 40.2357 195.234 52.4825L198.325 53.4832C201.99 42.2543 210.677 33.7956 221.487 29.4343L220.274 26.4247ZM221.821 25.8316C221.301 26.0205 220.786 26.2183 220.274 26.4247L221.487 29.4343C221.963 29.2421 222.444 29.0578 222.928 28.8817L221.821 25.8316ZM222.928 28.8817C232.139 25.5321 242.715 25.12 252.889 28.4139L253.897 25.3256C243.018 21.8034 231.697 22.2399 221.821 25.8316L222.928 28.8817ZM252.889 28.4139L255.725 29.3322L256.733 26.2439L253.897 25.3256L252.889 28.4139ZM255.725 29.3322C255.805 29.3581 255.885 29.3842 255.965 29.4104L256.989 26.3276C256.904 26.2995 256.819 26.2716 256.733 26.2439L255.725 29.3322ZM258.86 26.9331L256.981 26.3248L255.973 29.4131L257.852 30.0214L258.86 26.9331ZM257.45 29.9193C257.611 29.9603 257.772 30.0023 257.932 30.0452L258.779 26.9092C258.606 26.8631 258.433 26.8179 258.261 26.7739L257.45 29.9193ZM257.297 29.8721C279.24 37.8457 291.792 60.9269 285.057 81.5624L288.147 82.563C295.502 60.0323 281.762 35.3051 258.414 26.8211L257.297 29.8721ZM285.057 81.5624L277.921 103.422L281.012 104.423L288.147 82.563L285.057 81.5624ZM277.921 103.422C277.796 103.806 277.426 104.272 276.421 104.7C275.413 105.129 273.972 105.424 272.13 105.563C268.459 105.839 263.62 105.466 258.488 104.74C248.244 103.291 237.232 100.496 232.949 99.1096L231.941 102.198C236.404 103.643 247.598 106.479 258.026 107.954C263.231 108.69 268.345 109.103 272.368 108.8C274.373 108.649 276.215 108.314 277.691 107.686C279.171 107.056 280.485 106.036 281.012 104.423L277.921 103.422ZM232.949 99.1096L230.113 98.1913L229.105 101.28L231.941 102.198L232.949 99.1096ZM230.113 98.1913C227.066 97.2048 220.804 94.7859 214.124 91.7148C207.427 88.6354 200.445 84.9614 195.883 81.4844L193.908 84.0664C198.766 87.7695 206.018 91.5641 212.76 94.6641C219.52 97.7724 225.904 100.243 229.105 101.28L230.113 98.1913ZM196.44 83.2799L196.441 83.2757L193.35 82.2751L193.349 82.2793L196.44 83.2799ZM188.099 74.3422C187.491 76.2066 188.151 78.0338 189.223 79.5752C190.303 81.1266 191.968 82.6465 193.929 84.0877L195.859 81.4715C194.026 80.1249 192.682 78.8515 191.894 77.7189C191.099 76.5764 191.031 75.829 191.19 75.3429L188.099 74.3422Z" fill="black" mask="url(#path-5-inside-2_2334_111058)"/>
<g clip-path="url(#clip1_2334_111058)">
<path d="M261.743 90.6283C265.508 91.8472 269.273 90.6493 270.153 87.9528C271.033 85.2562 268.695 82.0821 264.93 80.8632C261.165 79.6444 257.4 80.8422 256.52 83.5388C255.639 86.2353 257.978 89.4094 261.743 90.6283Z" fill="#F8AFDB"/>
<path d="M211.838 74.4682C215.603 75.6871 219.368 74.4892 220.248 71.7926C221.129 69.0961 218.79 65.922 215.025 64.7031C211.26 63.4842 207.495 64.6821 206.615 67.3786C205.735 70.0752 208.073 73.2493 211.838 74.4682Z" fill="#F8AFDB"/>
<path d="M215.196 64.2836C218.708 65.4207 222.707 62.8158 224.127 58.4655C225.547 54.1151 223.851 49.6667 220.338 48.5296C216.826 47.3925 212.828 49.9974 211.408 54.3477C209.988 58.6981 211.684 63.1465 215.196 64.2836Z" fill="black"/>
<path d="M221.93 56.539C221.384 58.2118 219.898 59.2296 218.609 58.8122C217.319 58.3948 216.718 56.7013 217.264 55.0285C217.81 53.3556 219.296 52.3378 220.586 52.7553C221.875 53.1727 222.476 54.8661 221.93 56.539Z" fill="white"/>
<path d="M265.103 80.4418C268.615 81.5789 272.613 78.974 274.033 74.6237C275.453 70.2733 273.757 65.8249 270.245 64.6878C266.733 63.5507 262.735 66.1556 261.315 70.5059C259.895 74.8563 261.591 79.3047 265.103 80.4418Z" fill="black"/>
<path d="M264.23 70.2394C263.684 71.9122 264.285 73.6057 265.574 74.0231C266.864 74.4405 268.35 73.4227 268.896 71.7499C269.442 70.0771 268.841 68.3836 267.552 67.9662C266.262 67.5488 264.776 68.5666 264.23 70.2394Z" fill="white"/>
<path d="M252.834 77.1394C243.555 79.8761 233.529 76.6299 227.639 68.9822C227.043 68.2089 227.134 67.1988 227.783 66.7868C228.432 66.3747 229.334 66.6208 229.845 67.2831C235.035 74.024 243.871 76.8846 252.05 74.4721C252.858 74.2369 253.73 74.5611 254.011 75.2781C254.292 75.9913 253.769 76.8618 252.831 77.1382L252.834 77.1394Z" fill="black"/>
</g>
<path d="M239.423 85.5189L240.412 84.8088L240.303 84.6576L240.155 84.5457L239.423 85.5189ZM239.423 85.5189C240.412 84.8088 240.412 84.8093 240.413 84.8098L240.414 84.8115L240.418 84.8165L240.429 84.8332L240.472 84.8936C240.508 84.9458 240.561 85.0219 240.629 85.122C240.765 85.3221 240.962 85.6179 241.212 86.0094C241.712 86.7922 242.426 87.9576 243.291 89.5045C245.022 92.5985 247.361 97.2192 249.815 103.36C254.723 115.644 260.093 134.005 261.993 158.39L262.032 158.888L261.711 159.269C253.04 169.559 242.007 174.833 233.185 177.535C228.771 178.887 224.894 179.601 222.116 179.976C220.727 180.164 219.61 180.268 218.837 180.325C218.45 180.353 218.149 180.37 217.943 180.38C217.839 180.384 217.759 180.388 217.704 180.389L217.64 180.391L217.622 180.392L217.617 180.392L217.615 180.392C217.614 180.392 217.614 180.392 217.586 179.174L217.614 180.392L217.002 180.406L216.626 179.923L211.011 172.733L209.98 171.412L211.553 170.839C217.619 168.631 224.185 165.312 230.48 160.282C220.161 165.973 206.325 170.578 187.294 170.885C168.262 171.192 154.275 167.037 143.766 161.682C150.231 166.506 156.907 169.611 163.045 171.622L164.638 172.144L163.652 173.497L158.289 180.865L157.929 181.359L157.317 181.365L157.304 180.147C157.317 181.365 157.317 181.365 157.316 181.365L157.314 181.365L157.309 181.365L157.291 181.366L157.227 181.366C157.172 181.366 157.092 181.365 156.988 181.364C156.781 181.361 156.48 181.354 156.092 181.338C155.318 181.306 154.198 181.238 152.803 181.095C150.014 180.81 146.115 180.222 141.656 179.013C132.746 176.597 121.538 171.682 112.518 161.677L112.184 161.307L112.205 160.808C113.265 136.375 118 117.851 122.483 105.416C124.724 99.1989 126.902 94.5053 128.526 91.3572C129.337 89.7831 130.01 88.5954 130.484 87.7968C130.72 87.3975 130.907 87.0955 131.036 86.8911C131.1 86.7889 131.15 86.7111 131.185 86.6577L131.225 86.596L131.236 86.579L131.24 86.5739L131.241 86.5722C131.241 86.5716 131.242 86.5711 132.255 87.2489M239.423 85.5189C240.155 84.5457 240.154 84.5455 240.154 84.5452L240.153 84.5444L240.15 84.5421L240.139 84.5342L240.101 84.5061C240.069 84.4819 240.021 84.4469 239.959 84.4018C239.835 84.3117 239.653 84.1811 239.416 84.0156C238.943 83.6847 238.25 83.2139 237.363 82.6471C235.591 81.5138 233.04 79.9942 229.914 78.4407C223.675 75.3404 215.079 72.0715 205.774 71.5182L204.96 71.4698L204.606 72.2048L203.027 75.4826L202.363 76.862L203.857 77.2002C214.49 79.6065 221.352 82.7901 227.036 86.6164C216.099 81.8728 203.82 78.2108 185.703 78.5033C167.779 78.7926 155.699 82.766 145.017 87.7835C150.869 83.6398 157.896 80.1109 167.493 77.7922L169.009 77.4259L168.285 76.0434L166.594 72.8185L166.208 72.0809L165.38 72.1722C155.677 73.2429 147.209 76.7793 141.183 80.0297C138.166 81.6571 135.75 83.2189 134.084 84.3767C133.251 84.9558 132.605 85.4344 132.165 85.7703C131.945 85.9383 131.776 86.0707 131.661 86.1622C131.603 86.2079 131.559 86.2435 131.529 86.2682L131.493 86.2969L131.483 86.3051L131.48 86.3075L131.479 86.3084C131.479 86.3087 131.479 86.3089 132.255 87.2489M132.255 87.2489L131.479 86.3089L131.341 86.4226L131.242 86.5711L132.255 87.2489Z" fill="#F8AFDB" stroke="black" stroke-width="2.43648"/>
<g clip-path="url(#clip2_2334_111058)">
<path d="M218.547 104.621C218.204 104.626 217.916 104.354 217.903 104.01C217.811 100.967 216.454 98.4311 214.175 97.0571C211.753 95.5977 208.664 95.6611 205.479 97.2312C205.172 97.3847 204.793 97.2558 204.633 96.9411C204.479 96.6264 204.607 96.2463 204.921 96.0927C208.506 94.3203 212.027 94.277 214.823 95.9666C217.476 97.5641 219.055 100.482 219.162 103.97C219.168 104.321 218.897 104.608 218.554 104.621L218.547 104.621Z" fill="black"/>
<path d="M158.781 100.009C158.74 100.01 158.7 100.011 158.653 99.9979C158.308 99.9359 158.08 99.6021 158.148 99.2635C158.776 95.8378 160.777 93.1932 163.639 92.0198C166.661 90.7762 170.131 91.3615 173.409 93.6643C173.696 93.8622 173.763 94.2594 173.566 94.5461C173.369 94.8328 172.973 94.8999 172.687 94.702C169.77 92.6566 166.731 92.1251 164.117 93.1933C161.663 94.1982 159.939 96.5008 159.385 99.4933C159.329 99.7912 159.07 100.005 158.774 100.009L158.781 100.009Z" fill="black"/>
<path d="M158.022 131.455C165.808 132.368 170.528 137.463 188.285 138.83C201.977 139.885 208.16 135.33 215.94 135.933C223.72 136.537 211.921 162.89 185.803 160.875C155.048 158.503 147.728 130.251 158.022 131.455Z" fill="white"/>
<path d="M189.31 161.62C188.166 161.639 186.98 161.604 185.753 161.509C168.643 160.185 158.479 150.933 154.668 142.706C152.724 138.511 152.481 134.573 154.026 132.429C154.658 131.555 155.88 130.576 158.092 130.831C161.142 131.187 163.724 132.164 166.706 133.297C171.483 135.11 177.433 137.363 188.328 138.207C196.041 138.804 201.292 137.606 205.926 136.552C209.474 135.746 212.538 135.048 215.977 135.31C217.15 135.399 218.022 135.986 218.503 136.991C219.607 139.301 218.454 143.532 215.558 147.777C213.286 151.108 205.013 161.367 189.297 161.621L189.31 161.62ZM157.332 132.051C156.343 132.067 155.575 132.438 155.049 133.168C153.786 134.917 154.09 138.449 155.81 142.174C159.467 150.073 169.275 158.967 185.846 160.245C203.213 161.585 212.185 150.491 214.529 147.058C217.524 142.67 218.101 139.042 217.375 137.528C217.089 136.932 216.605 136.616 215.884 136.56C212.641 136.309 209.657 136.992 206.21 137.776C201.488 138.851 196.136 140.072 188.235 139.464C177.165 138.61 171.12 136.318 166.268 134.479C163.361 133.378 160.847 132.427 157.952 132.082C157.736 132.058 157.528 132.048 157.332 132.051Z" fill="black"/>
<path d="M205.991 122.18C209.881 122.482 213.454 123.565 216.438 125.198C217.324 123.044 217.908 120.611 218.105 118.009C218.818 108.581 214.142 100.53 207.663 100.027C201.184 99.5238 195.357 106.766 194.644 116.201C194.447 118.803 194.665 121.304 195.209 123.563C198.4 122.411 202.094 121.886 205.984 122.187L205.991 122.18Z" fill="white"/>
<path d="M216.756 126.095L216.138 125.76C213.134 124.121 209.608 123.105 205.948 122.82C202.28 122.535 198.639 122.998 195.427 124.164L194.765 124.404L194.598 123.718C194.011 121.311 193.819 118.763 194.017 116.154C194.374 111.464 195.962 107.145 198.5 103.999C201.091 100.778 204.348 99.1392 207.712 99.4022C211.056 99.6587 214.048 101.777 216.123 105.355C218.156 108.859 219.082 113.374 218.732 118.064C218.535 120.673 217.958 123.159 217.021 125.449L216.756 126.101L216.756 126.095ZM203.4 121.477C204.275 121.463 205.157 121.489 206.04 121.556C209.627 121.836 213.097 122.785 216.106 124.316C216.846 122.327 217.308 120.193 217.478 117.963C217.812 113.529 216.945 109.277 215.037 105.987C213.17 102.777 210.539 100.882 207.62 100.659C204.707 100.436 201.81 101.9 199.483 104.787C197.104 107.741 195.605 111.815 195.271 116.249C195.101 118.479 195.239 120.664 195.672 122.736C198.089 121.941 200.714 121.514 203.4 121.47L203.4 121.477Z" fill="black"/>
<path d="M209.145 113.032L212.618 109.047C211.434 106.346 209.558 104.561 207.334 104.387C203.16 104.063 199.35 109.552 198.812 116.634C198.653 118.723 198.802 120.718 199.189 122.508C201.337 122.129 203.624 122.004 205.984 122.182C208.343 122.367 210.587 122.837 212.652 123.546C213.31 121.841 213.754 119.89 213.907 117.802C214.011 116.443 213.982 115.121 213.839 113.874L209.132 113.032L209.145 113.032Z" fill="black"/>
<path d="M213.03 124.343L212.455 124.149C210.382 123.44 208.186 122.99 205.941 122.817C203.696 122.644 201.456 122.747 199.301 123.133L198.704 123.237L198.573 122.646C198.156 120.728 198.02 118.692 198.179 116.59C198.448 113.049 199.516 109.778 201.185 107.375C202.926 104.87 205.112 103.592 207.37 103.759C209.737 103.943 211.855 105.779 213.18 108.795L213.341 109.163L210.344 112.607L214.416 113.338L214.465 113.81C214.609 115.13 214.632 116.487 214.534 117.852C214.375 119.954 213.938 121.945 213.236 123.772L213.017 124.336L213.03 124.343ZM203.4 121.474C204.275 121.46 205.158 121.486 206.041 121.553C208.185 121.721 210.279 122.126 212.282 122.755C212.821 121.201 213.162 119.514 213.294 117.75C213.375 116.622 213.376 115.501 213.277 114.409L207.941 113.456L211.876 108.937C210.745 106.58 209.091 105.155 207.291 105.015C205.511 104.875 203.712 105.971 202.234 108.094C200.69 110.313 199.699 113.366 199.446 116.685C199.315 118.448 199.398 120.162 199.696 121.784C200.911 121.595 202.155 121.494 203.407 121.474L203.4 121.474Z" fill="black"/>
<path d="M205.991 122.18C209.881 122.482 213.454 123.565 216.438 125.198C217.324 123.044 217.908 120.611 218.105 118.009C218.818 108.581 214.142 100.53 207.663 100.027C201.184 99.5238 195.357 106.766 194.644 116.201C194.447 118.803 194.665 121.304 195.209 123.563C198.4 122.411 202.094 121.886 205.984 122.187L205.991 122.18Z" fill="white"/>
<path d="M216.756 126.095L216.138 125.76C213.134 124.121 209.608 123.105 205.948 122.82C202.28 122.535 198.639 122.998 195.427 124.164L194.765 124.404L194.598 123.718C194.011 121.311 193.819 118.763 194.017 116.154C194.374 111.464 195.962 107.145 198.5 103.999C201.091 100.778 204.348 99.1392 207.712 99.4022C211.056 99.6587 214.048 101.777 216.123 105.355C218.156 108.859 219.082 113.374 218.732 118.064C218.535 120.673 217.958 123.159 217.021 125.449L216.756 126.101L216.756 126.095ZM203.4 121.477C204.275 121.463 205.157 121.489 206.04 121.556C209.627 121.836 213.097 122.785 216.106 124.316C216.846 122.327 217.308 120.193 217.478 117.963C217.812 113.529 216.945 109.277 215.037 105.987C213.17 102.777 210.539 100.882 207.62 100.659C204.707 100.436 201.81 101.9 199.483 104.787C197.104 107.741 195.605 111.815 195.271 116.249C195.101 118.479 195.239 120.664 195.672 122.736C198.089 121.941 200.714 121.514 203.4 121.47L203.4 121.477Z" fill="black"/>
<path d="M209.201 112.376L212.618 109.047C211.434 106.346 209.558 104.561 207.334 104.387C203.16 104.063 199.35 109.552 198.812 116.634C198.653 118.723 198.802 120.718 199.189 122.508C201.337 122.129 203.624 122.004 205.984 122.182C208.343 122.367 210.587 122.837 212.652 123.546C213.31 121.841 213.754 119.89 213.907 117.802C214.011 116.443 213.982 115.121 213.839 113.874L209.181 112.377L209.201 112.376Z" fill="black"/>
<path d="M213.03 124.343L212.455 124.149C210.382 123.44 208.186 122.99 205.941 122.817C203.696 122.644 201.456 122.747 199.301 123.133L198.704 123.237L198.573 122.646C198.156 120.728 198.02 118.692 198.179 116.59C198.448 113.049 199.516 109.778 201.185 107.375C202.926 104.87 205.112 103.592 207.37 103.759C209.737 103.943 211.855 105.779 213.18 108.795L213.355 109.197L210.375 112.094L214.424 113.399L214.471 113.803C214.615 115.123 214.639 116.48 214.541 117.845C214.382 119.947 213.945 121.938 213.242 123.765L213.023 124.329L213.03 124.343ZM203.4 121.474C204.275 121.46 205.158 121.486 206.041 121.553C208.185 121.721 210.279 122.126 212.282 122.755C212.821 121.201 213.162 119.514 213.294 117.75C213.382 116.601 213.375 115.461 213.276 114.349L208.008 112.652L211.862 108.904C210.731 106.566 209.084 105.155 207.291 105.015C205.511 104.875 203.712 105.971 202.234 108.094C200.69 110.313 199.699 113.366 199.446 116.685C199.315 118.448 199.398 120.162 199.696 121.784C200.911 121.595 202.155 121.494 203.407 121.474L203.4 121.474Z" fill="black"/>
<path d="M168.5 119.291C172.39 119.592 175.964 120.676 178.948 122.308C179.833 120.154 180.417 117.721 180.615 115.113C181.328 105.685 176.651 97.6332 170.172 97.1302C163.694 96.6273 157.866 103.87 157.154 113.304C156.956 115.906 157.174 118.407 157.718 120.666C160.91 119.515 164.604 118.989 168.494 119.291L168.5 119.291Z" fill="white"/>
<path d="M179.259 123.199L178.641 122.865C175.637 121.226 172.111 120.21 168.451 119.925C164.783 119.64 161.142 120.103 157.93 121.269L157.268 121.509L157.101 120.823C156.514 118.416 156.322 115.868 156.52 113.259C156.877 108.569 158.465 104.25 161.003 101.097C163.594 97.8763 166.865 96.244 170.215 96.5004C173.559 96.7569 176.551 98.8754 178.626 102.453C180.659 105.957 181.585 110.472 181.235 115.162C181.037 117.771 180.461 120.251 179.524 122.547L179.259 123.199ZM165.903 118.582C166.778 118.568 167.66 118.594 168.543 118.661C172.13 118.941 175.6 119.89 178.609 121.421C179.349 119.431 179.811 117.298 179.981 115.067C180.315 110.634 179.448 106.382 177.54 103.092C175.673 99.8818 173.042 97.987 170.116 97.7642C167.197 97.5414 164.307 99.0055 161.98 101.892C159.6 104.846 158.102 108.92 157.767 113.354C157.597 115.584 157.735 117.769 158.168 119.841C160.585 119.046 163.21 118.619 165.896 118.575L165.903 118.582Z" fill="black"/>
<path d="M166.802 109.108L163.922 105.293C165.502 102.804 167.624 101.325 169.842 101.499C174.015 101.823 176.96 107.823 176.422 114.913C176.263 117.001 175.818 118.953 175.167 120.657C173.102 119.948 170.858 119.478 168.499 119.293C166.139 119.109 163.852 119.233 161.704 119.619C161.317 117.837 161.168 115.841 161.327 113.746C161.432 112.387 161.652 111.088 161.981 109.874L166.809 109.108L166.802 109.108Z" fill="black"/>
<path d="M175.54 121.453L174.965 121.26C172.892 120.551 170.696 120.1 168.451 119.927C166.206 119.754 163.973 119.858 161.812 120.243L161.214 120.348L161.083 119.756C160.666 117.839 160.53 115.802 160.689 113.7C160.793 112.329 161.019 110.988 161.361 109.714L161.469 109.321L165.665 108.652L163.157 105.331L163.393 104.963C165.157 102.187 167.521 100.698 169.894 100.875C172.139 101.048 174.126 102.656 175.466 105.396C176.757 108.028 177.32 111.427 177.051 114.969C176.892 117.07 176.455 119.062 175.753 120.889L175.534 121.453L175.54 121.453ZM165.91 118.584C166.785 118.57 167.668 118.596 168.551 118.663C170.695 118.831 172.789 119.236 174.793 119.865C175.331 118.304 175.673 116.624 175.804 114.861C176.056 111.542 175.537 108.378 174.337 105.947C173.2 103.623 171.588 102.265 169.801 102.132C168.021 101.992 166.169 103.136 164.698 105.272L167.943 109.567L162.484 110.438C162.22 111.522 162.038 112.653 161.957 113.802C161.825 115.565 161.909 117.279 162.206 118.901C163.428 118.712 164.665 118.611 165.917 118.591L165.91 118.584Z" fill="black"/>
<path d="M193.592 138.815L192.333 138.863L193.168 160.263L194.427 160.215L193.592 138.815Z" fill="black"/>
<path d="M205.648 136.481L204.409 136.707L207.579 154.064L208.818 153.838L205.648 136.481Z" fill="black"/>
<path d="M178.454 137.65L174.414 158.674L175.651 158.914L179.691 137.89L178.454 137.65Z" fill="black"/>
<path d="M166.315 133.49L160.568 150.158L161.758 150.572L167.505 133.904L166.315 133.49Z" fill="black"/>
<path d="M221.408 137.813C221.071 137.818 220.791 137.56 220.771 137.223C220.589 134.438 218.659 133.78 218.577 133.755C218.246 133.645 218.065 133.29 218.167 132.965C218.269 132.632 218.616 132.445 218.947 132.547C219.062 132.579 221.784 133.453 222.022 137.142C222.049 137.492 221.784 137.793 221.435 137.813C221.421 137.813 221.415 137.813 221.401 137.813L221.408 137.813Z" fill="black"/>
<path d="M222.814 134.642C222.484 134.648 222.204 134.396 222.178 134.065C222.111 133.29 221.597 133.137 221.59 133.137C221.252 133.048 221.051 132.7 221.139 132.368C221.227 132.029 221.567 131.828 221.905 131.917C222.412 132.051 223.311 132.63 223.428 133.958C223.461 134.308 223.204 134.609 222.854 134.642C222.841 134.642 222.821 134.642 222.807 134.642L222.814 134.642Z" fill="black"/>
<path d="M151.353 133.103C151.306 133.104 151.252 133.105 151.205 133.085C150.867 133.01 150.652 132.669 150.727 132.33C151.52 128.726 154.34 128.276 154.461 128.26C154.803 128.208 155.124 128.452 155.177 128.796C155.223 129.139 154.993 129.46 154.651 129.513C154.557 129.528 152.563 129.884 151.964 132.607C151.902 132.899 151.643 133.099 151.36 133.103L151.353 133.103Z" fill="black"/>
<path d="M150.439 129.755C150.385 129.756 150.331 129.757 150.277 129.738C149.939 129.655 149.731 129.315 149.813 128.976C150.127 127.682 151.102 127.248 151.626 127.192C151.955 127.139 152.283 127.411 152.316 127.754C152.349 128.098 152.105 128.406 151.769 128.445C151.709 128.453 151.212 128.555 151.036 129.273C150.967 129.558 150.715 129.751 150.432 129.755L150.439 129.755Z" fill="black"/>
</g>
<mask id="path-40-inside-3_2334_111058" fill="white">
<path fill-rule="evenodd" clip-rule="evenodd" d="M280.738 103.695L285.165 102.292C287.225 101.638 289.427 102.769 290.085 104.819L292.469 112.239C293.127 114.287 291.993 116.478 289.933 117.131L283.642 119.126L287.273 138.417L292.167 136.865C294.227 136.211 296.429 137.342 297.087 139.392L299.471 146.812C300.129 148.86 298.995 151.051 296.935 151.704L290.177 153.847L291.266 159.634C291.924 161.682 290.789 163.873 288.729 164.526L281.272 166.891C279.212 167.545 277.01 166.412 276.352 164.364L275.262 158.577L256.618 164.49L257.707 170.275C258.365 172.322 257.23 174.514 255.17 175.167L247.713 177.532C245.653 178.185 243.451 177.052 242.793 175.004L241.704 169.22L237.277 170.624C235.217 171.277 233.015 170.144 232.357 168.096L229.973 160.676C229.314 158.627 230.449 156.437 232.509 155.784L238.8 153.789L235.169 134.499L230.276 136.05C228.216 136.704 226.013 135.571 225.355 133.523L222.971 126.103C222.312 124.054 223.447 121.864 225.507 121.211L232.265 119.068L231.176 113.281C230.518 111.231 231.653 109.042 233.713 108.389L241.17 106.024C243.23 105.371 245.432 106.502 246.091 108.551L247.18 114.338L265.824 108.425L264.735 102.641C264.077 100.591 265.212 98.4016 267.272 97.7483L274.729 95.3834C276.789 94.7301 278.991 95.8612 279.65 97.9109L280.738 103.695ZM268.728 123.856L250.084 129.769L253.714 149.059L272.358 143.147L268.728 123.856Z"/>
</mask>
<path fill-rule="evenodd" clip-rule="evenodd" d="M280.738 103.695L285.165 102.292C287.225 101.638 289.427 102.769 290.085 104.819L292.469 112.239C293.127 114.287 291.993 116.478 289.933 117.131L283.642 119.126L287.273 138.417L292.167 136.865C294.227 136.211 296.429 137.342 297.087 139.392L299.471 146.812C300.129 148.86 298.995 151.051 296.935 151.704L290.177 153.847L291.266 159.634C291.924 161.682 290.789 163.873 288.729 164.526L281.272 166.891C279.212 167.545 277.01 166.412 276.352 164.364L275.262 158.577L256.618 164.49L257.707 170.275C258.365 172.322 257.23 174.514 255.17 175.167L247.713 177.532C245.653 178.185 243.451 177.052 242.793 175.004L241.704 169.22L237.277 170.624C235.217 171.277 233.015 170.144 232.357 168.096L229.973 160.676C229.314 158.627 230.449 156.437 232.509 155.784L238.8 153.789L235.169 134.499L230.276 136.05C228.216 136.704 226.013 135.571 225.355 133.523L222.971 126.103C222.312 124.054 223.447 121.864 225.507 121.211L232.265 119.068L231.176 113.281C230.518 111.231 231.653 109.042 233.713 108.389L241.17 106.024C243.23 105.371 245.432 106.502 246.091 108.551L247.18 114.338L265.824 108.425L264.735 102.641C264.077 100.591 265.212 98.4016 267.272 97.7483L274.729 95.3834C276.789 94.7301 278.991 95.8612 279.65 97.9109L280.738 103.695ZM268.728 123.856L250.084 129.769L253.714 149.059L272.358 143.147L268.728 123.856Z" fill="#2A8D5C"/>
<path d="M285.165 102.292L285.661 103.838L285.165 102.292ZM280.738 103.695L279.14 103.99L279.48 105.798L281.235 105.242L280.738 103.695ZM290.085 104.819L288.537 105.31L290.085 104.819ZM292.469 112.239L294.018 111.748L292.469 112.239ZM283.642 119.126L283.145 117.58L281.779 118.013L282.044 119.421L283.642 119.126ZM287.273 138.417L285.675 138.711L286.015 140.52L287.77 139.963L287.273 138.417ZM297.087 139.392L295.539 139.883L297.087 139.392ZM299.471 146.812L301.02 146.321L299.471 146.812ZM296.935 151.704L297.432 153.251L296.935 151.704ZM290.177 153.847L289.68 152.301L288.314 152.734L288.579 154.142L290.177 153.847ZM291.266 159.634L289.668 159.929L289.686 160.028L289.718 160.125L291.266 159.634ZM288.729 164.526L289.226 166.073L288.729 164.526ZM281.272 166.891L280.775 165.345L281.272 166.891ZM276.352 164.364L274.753 164.659L274.772 164.758L274.803 164.855L276.352 164.364ZM275.262 158.577L276.861 158.283L276.52 156.474L274.766 157.031L275.262 158.577ZM256.618 164.49L256.121 162.944L254.755 163.377L255.02 164.785L256.618 164.49ZM257.707 170.275L256.109 170.569L256.128 170.669L256.159 170.766L257.707 170.275ZM255.17 175.167L254.673 173.62L255.17 175.167ZM247.713 177.532L248.21 179.078L247.713 177.532ZM242.793 175.004L241.194 175.299L241.213 175.399L241.244 175.495L242.793 175.004ZM241.704 169.22L243.302 168.925L242.962 167.117L241.207 167.673L241.704 169.22ZM238.8 153.789L239.297 155.335L240.663 154.902L240.398 153.494L238.8 153.789ZM235.169 134.499L236.767 134.204L236.427 132.396L234.672 132.952L235.169 134.499ZM225.355 133.523L226.903 133.032L225.355 133.523ZM222.971 126.103L221.422 126.594L222.971 126.103ZM232.265 119.068L232.762 120.614L234.128 120.181L233.863 118.773L232.265 119.068ZM231.176 113.281L232.774 112.987L232.756 112.887L232.725 112.79L231.176 113.281ZM233.713 108.389L233.216 106.842L233.713 108.389ZM241.17 106.024L240.673 104.477L241.17 106.024ZM246.091 108.551L247.689 108.257L247.67 108.157L247.639 108.06L246.091 108.551ZM247.18 114.338L245.581 114.633L245.922 116.441L247.676 115.884L247.18 114.338ZM265.824 108.425L266.321 109.972L267.687 109.538L267.422 108.131L265.824 108.425ZM264.735 102.641L266.333 102.346L266.315 102.246L266.283 102.15L264.735 102.641ZM267.272 97.7483L267.769 99.2948L267.272 97.7483ZM274.729 95.3834L275.226 96.9299L274.729 95.3834ZM279.649 97.9109L281.248 97.6162L281.229 97.5165L281.198 97.4198L279.649 97.9109ZM250.084 129.769L249.587 128.222L248.221 128.656L248.486 130.063L250.084 129.769ZM268.728 123.856L270.326 123.561L269.986 121.753L268.231 122.31L268.728 123.856ZM253.714 149.059L252.116 149.354L252.456 151.162L254.211 150.606L253.714 149.059ZM272.358 143.147L272.855 144.693L274.221 144.26L273.957 142.852L272.358 143.147ZM284.668 100.745L280.241 102.149L281.235 105.242L285.661 103.838L284.668 100.745ZM291.634 104.328C290.699 101.419 287.577 99.8225 284.668 100.745L285.661 103.838C286.872 103.454 288.155 104.12 288.537 105.31L291.634 104.328ZM294.018 111.748L291.634 104.328L288.537 105.31L290.921 112.73L294.018 111.748ZM290.43 118.678C293.34 117.755 294.952 114.655 294.018 111.748L290.921 112.73C291.303 113.919 290.646 115.201 289.436 115.585L290.43 118.678ZM284.139 120.673L290.43 118.678L289.436 115.585L283.145 117.58L284.139 120.673ZM288.871 138.122L285.24 118.832L282.044 119.421L285.675 138.711L288.871 138.122ZM291.67 135.318L286.776 136.87L287.77 139.963L292.663 138.411L291.67 135.318ZM298.636 138.901C297.701 135.992 294.579 134.396 291.67 135.318L292.663 138.411C293.874 138.027 295.156 138.693 295.539 139.883L298.636 138.901ZM301.02 146.321L298.636 138.901L295.539 139.883L297.923 147.303L301.02 146.321ZM297.432 153.251C300.342 152.328 301.954 149.228 301.02 146.321L297.923 147.303C298.305 148.492 297.648 149.774 296.438 150.158L297.432 153.251ZM290.674 155.394L297.432 153.251L296.438 150.158L289.68 152.301L290.674 155.394ZM292.864 159.339L291.775 153.553L288.579 154.142L289.668 159.929L292.864 159.339ZM289.226 166.073C292.136 165.15 293.748 162.05 292.814 159.143L289.718 160.125C290.1 161.314 289.442 162.596 288.232 162.98L289.226 166.073ZM281.769 168.438L289.226 166.073L288.232 162.98L280.775 165.345L281.769 168.438ZM274.803 164.855C275.737 167.762 278.859 169.361 281.769 168.438L280.775 165.345C279.565 165.729 278.282 165.062 277.9 163.873L274.803 164.855ZM273.664 158.872L274.753 164.659L277.95 164.069L276.861 158.283L273.664 158.872ZM257.115 166.036L275.759 160.124L274.766 157.031L256.121 162.944L257.115 166.036ZM259.305 169.98L258.216 164.195L255.02 164.785L256.109 170.569L259.305 169.98ZM255.667 176.713C258.577 175.79 260.189 172.69 259.255 169.784L256.159 170.766C256.541 171.954 255.883 173.237 254.673 173.62L255.667 176.713ZM248.21 179.078L255.667 176.713L254.673 173.62L247.216 175.985L248.21 179.078ZM241.244 175.495C242.178 178.402 245.3 180.001 248.21 179.078L247.216 175.985C246.006 176.369 244.723 175.702 244.341 174.513L241.244 175.495ZM240.106 169.514L241.194 175.299L244.391 174.71L243.302 168.925L240.106 169.514ZM237.774 172.17L242.201 170.766L241.207 167.673L236.781 169.077L237.774 172.17ZM230.808 168.587C231.743 171.494 234.864 173.093 237.774 172.17L236.781 169.077C235.571 169.461 234.287 168.794 233.905 167.605L230.808 168.587ZM228.424 161.167L230.808 168.587L233.905 167.605L231.521 160.185L228.424 161.167ZM232.012 154.238C229.103 155.16 227.489 158.258 228.424 161.167L231.521 160.185C231.139 158.995 231.796 157.714 233.006 157.33L232.012 154.238ZM238.303 152.243L232.012 154.238L233.006 157.33L239.297 155.335L238.303 152.243ZM233.571 134.793L237.202 154.084L240.398 153.494L236.767 134.204L233.571 134.793ZM230.772 137.597L235.666 136.045L234.672 132.952L229.779 134.504L230.772 137.597ZM223.807 134.014C224.741 136.921 227.862 138.52 230.772 137.597L229.779 134.504C228.569 134.888 227.285 134.221 226.903 133.032L223.807 134.014ZM221.422 126.594L223.807 134.014L226.903 133.032L224.519 125.612L221.422 126.594ZM225.01 119.664C222.101 120.587 220.487 123.685 221.422 126.594L224.519 125.612C224.137 124.422 224.794 123.141 226.004 122.757L225.01 119.664ZM231.768 117.521L225.01 119.664L226.004 122.757L232.762 120.614L231.768 117.521ZM229.578 113.576L230.667 119.362L233.863 118.773L232.774 112.987L229.578 113.576ZM233.216 106.842C230.306 107.765 228.693 110.863 229.628 113.772L232.725 112.79C232.342 111.6 232.999 110.319 234.21 109.935L233.216 106.842ZM240.673 104.477L233.216 106.842L234.21 109.935L241.667 107.57L240.673 104.477ZM247.639 108.06C246.704 105.151 243.583 103.555 240.673 104.477L241.667 107.57C242.877 107.186 244.16 107.852 244.542 109.042L247.639 108.06ZM248.778 114.043L247.689 108.257L244.492 108.846L245.581 114.633L248.778 114.043ZM265.327 106.879L246.683 112.791L247.676 115.884L266.321 109.972L265.327 106.879ZM263.137 102.935L264.226 108.72L267.422 108.131L266.333 102.346L263.137 102.935ZM266.775 96.2019C263.865 97.1246 262.252 100.222 263.187 103.132L266.283 102.15C265.901 100.96 266.558 99.6787 267.769 99.2948L266.775 96.2019ZM274.232 93.837L266.775 96.2019L267.769 99.2948L275.226 96.9299L274.232 93.837ZM281.198 97.4198C280.263 94.5105 277.141 92.9143 274.232 93.837L275.226 96.9299C276.436 96.546 277.719 97.2118 278.101 98.4019L281.198 97.4198ZM282.336 103.401L281.248 97.6162L278.051 98.2055L279.14 103.99L282.336 103.401ZM250.581 131.315L269.225 125.402L268.231 122.31L249.587 128.222L250.581 131.315ZM255.312 148.765L251.682 129.474L248.486 130.063L252.116 149.354L255.312 148.765ZM271.861 141.6L253.217 147.513L254.211 150.606L272.855 144.693L271.861 141.6ZM267.13 124.151L270.76 143.441L273.957 142.852L270.326 123.561L267.13 124.151Z" fill="black" mask="url(#path-40-inside-3_2334_111058)"/>
<path d="M123.023 86.8761C122.698 86.9352 122.395 87.0801 122.147 87.2957C121.898 87.5113 121.712 87.7896 121.609 88.1014L111.498 113.937L111.499 113.941C111.348 114.277 111.304 114.651 111.371 115.013C111.458 115.49 111.733 115.914 112.134 116.19C112.535 116.466 113.03 116.572 113.51 116.485L123.458 114.686L124.019 132.807C124.017 132.929 124.028 133.051 124.05 133.172C124.138 133.649 124.412 134.072 124.813 134.348C125.215 134.625 125.71 134.731 126.189 134.644C126.518 134.584 126.824 134.436 127.074 134.216C127.324 133.996 127.51 133.713 127.61 133.396L127.613 133.395L137.686 107.632L137.663 107.603C137.823 107.269 137.913 106.899 137.841 106.507C137.659 105.514 136.7 104.854 135.702 105.035L125.754 106.834L125.178 88.8939C125.2 88.7123 125.195 88.5284 125.162 88.3484C125.074 87.8712 124.8 87.448 124.398 87.1718C123.997 86.8957 123.502 86.7893 123.023 86.8761Z" fill="#FFCB5D" stroke="black" stroke-width="2.43648"/>
<path d="M296.68 115.828C296.359 115.751 296.023 115.761 295.708 115.858C295.393 115.955 295.109 116.134 294.888 116.377L275.111 135.907L275.11 135.911C274.836 136.158 274.643 136.481 274.556 136.839C274.442 137.311 274.52 137.808 274.775 138.222C275.029 138.636 275.438 138.933 275.912 139.047L285.743 141.415L278.871 158.2C278.819 158.311 278.778 158.426 278.75 158.545C278.635 159.017 278.714 159.514 278.968 159.928C279.223 160.343 279.632 160.639 280.106 160.754C280.431 160.831 280.771 160.819 281.089 160.719C281.408 160.619 281.693 160.435 281.914 160.186L281.917 160.187L301.63 140.707L301.62 140.672C301.903 140.431 302.136 140.129 302.23 139.742C302.468 138.761 301.861 137.772 300.874 137.534L291.043 135.166L297.829 118.541C297.923 118.384 297.993 118.214 298.036 118.036C298.151 117.565 298.072 117.067 297.818 116.653C297.564 116.239 297.154 115.942 296.68 115.828Z" fill="#FFCB5D" stroke="black" stroke-width="2.43648"/>
<path fill-rule="evenodd" clip-rule="evenodd" d="M236.5 10.3944C236.429 10.5081 236.293 10.5695 236.126 10.5631C232.258 10.2663 228.483 11.9688 226.169 15.0323C226.054 15.186 225.869 15.2288 225.721 15.1733C225.572 15.1177 225.461 14.9638 225.476 14.7732C225.771 10.926 224.056 7.16879 220.94 4.87997C220.811 4.77525 220.749 4.63986 220.77 4.50764L220.746 4.49838L220.764 4.44919L220.783 4.40001L220.808 4.40926C220.879 4.29555 221.015 4.23421 221.182 4.24056C225.04 4.56191 228.816 2.85948 231.139 -0.228673C231.254 -0.382313 231.439 -0.42516 231.587 -0.369624C231.736 -0.314089 231.847 -0.160172 231.832 0.0304928C231.537 3.87763 233.252 7.63488 236.368 9.9237C236.497 10.0284 236.559 10.1638 236.537 10.296L236.562 10.3053L236.544 10.3545L236.525 10.4037L236.5 10.3944Z" fill="#FFCB5D"/>
<path fill-rule="evenodd" clip-rule="evenodd" d="M319.974 167.158C319.903 167.272 319.767 167.333 319.6 167.327C315.732 167.03 311.956 168.732 309.643 171.796C309.528 171.95 309.343 171.992 309.194 171.937C309.046 171.881 308.935 171.728 308.95 171.537C309.245 167.69 307.53 163.932 304.414 161.644C304.284 161.539 304.222 161.404 304.244 161.271L304.219 161.262L304.238 161.213L304.256 161.164L304.281 161.173C304.352 161.059 304.488 160.998 304.655 161.004C308.514 161.326 312.29 159.623 314.613 156.535C314.727 156.381 314.913 156.339 315.061 156.394C315.209 156.45 315.321 156.603 315.305 156.794C315.01 160.641 316.725 164.399 319.841 166.687C319.971 166.792 320.033 166.927 320.011 167.06L320.036 167.069L320.017 167.118L319.999 167.167L319.974 167.158Z" fill="#FFCB5D"/>
<path fill-rule="evenodd" clip-rule="evenodd" d="M106.271 89.4473C106.273 89.5812 106.191 89.7059 106.047 89.79C102.63 91.6135 100.374 95.0725 100.086 98.8949C100.073 99.0857 99.9402 99.2213 99.7852 99.254C99.6302 99.2868 99.4532 99.2167 99.3629 99.0477C97.5267 95.6472 94.0472 93.3998 90.1839 93.1412C90.0179 93.1226 89.8925 93.0416 89.8391 92.9185L89.8133 92.924L89.8022 92.8726L89.7912 92.8211L89.8171 92.8157C89.8153 92.6817 89.8967 92.5571 90.0407 92.4729C93.4632 90.6752 95.7194 87.2162 96.0017 83.3681C96.0148 83.1772 96.1478 83.0417 96.3028 83.0089C96.4578 82.9762 96.6349 83.0463 96.7251 83.2153C98.5613 86.6158 102.041 88.8631 105.904 89.1217C106.07 89.1404 106.196 89.2214 106.249 89.3444L106.275 89.339L106.286 89.3904L106.297 89.4418L106.271 89.4473Z" fill="#FFCB5D"/>
<path fill-rule="evenodd" clip-rule="evenodd" d="M206.801 192.33C206.719 192.437 206.578 192.485 206.413 192.463C202.589 191.812 198.67 193.159 196.081 195.996C195.953 196.138 195.764 196.164 195.622 196.095C195.479 196.026 195.382 195.863 195.416 195.674C196.067 191.871 194.71 187.972 191.82 185.406C191.7 185.29 191.651 185.15 191.685 185.02L191.661 185.009L191.685 184.961L191.708 184.914L191.731 184.926C191.813 184.819 191.954 184.77 192.12 184.792C195.932 185.467 199.85 184.12 202.451 181.26C202.579 181.117 202.768 181.092 202.911 181.161C203.053 181.23 203.15 181.393 203.117 181.581C202.465 185.385 203.823 189.283 206.712 191.849C206.832 191.965 206.881 192.106 206.847 192.235L206.871 192.247L206.848 192.294L206.825 192.341L206.801 192.33Z" fill="#FFCB5D"/>
</g>
<defs>
<clipPath id="clip0_2334_111058">
<rect y="0.265625" width="416" height="184" rx="16" fill="white"/>
</clipPath>
<clipPath id="clip1_2334_111058">
<rect width="66.7837" height="27.297" transform="matrix(0.951381 0.308017 -0.310299 0.950639 213.491 46.3145)" fill="white"/>
</clipPath>
<clipPath id="clip2_2334_111058">
<rect width="73.5442" height="70.59" fill="white" transform="matrix(0.99987 -0.0161405 0.0172132 0.999852 149.152 91.666)"/>
</clipPath>
</defs>
</svg>
