<svg width="417" height="787" viewBox="0 0 417 787" fill="none" xmlns="http://www.w3.org/2000/svg">
<rect width="60.3358" height="60.3053" rx="19.208" transform="matrix(0.944889 -0.32739 0.327164 0.944968 53.7979 164.969)" fill="#232323"/>
<path d="M85.432 185.958V185.958C88.7613 187.575 92.7713 186.186 94.3882 182.855L97.3639 176.727" stroke="#707070" stroke-width="1.372" stroke-linecap="round" stroke-linejoin="round" stroke-dasharray="5.74 5.74"/>
<rect width="29.5927" height="29.5927" rx="14.7964" transform="matrix(0.944889 -0.32739 0.327164 0.944968 73.3462 174.448)" fill="#232323" stroke="#707070" stroke-width="1.372" stroke-linecap="round" stroke-linejoin="round" stroke-dasharray="5.74 5.74"/>
<rect width="60.3358" height="60.3053" rx="19.208" transform="matrix(0.944889 -0.32739 0.327164 0.944968 53.7979 164.969)" stroke="#707070" stroke-width="1.372" stroke-linecap="round" stroke-linejoin="round" stroke-dasharray="5.74 5.74"/>
<rect width="60.3352" height="60.3059" rx="19.208" transform="matrix(0.965962 0.258684 -0.258954 0.96589 89.9033 199.206)" fill="#232323"/>
<path d="M96.7702 247.187L98.9131 239.194L104.238 219.334" stroke="#707070" stroke-width="1.372" stroke-linecap="round" stroke-linejoin="round"/>
<path d="M123.327 233.939C116.523 230.714 106.321 240.167 99.516 236.945L104.238 219.334C109.468 228.428 118.097 224.844 123.327 233.939Z" stroke="#707070" stroke-width="1.372" stroke-linecap="round" stroke-linejoin="round"/>
<rect width="60.3352" height="60.3059" rx="19.208" transform="matrix(0.965962 0.258684 -0.258954 0.96589 89.9033 199.206)" stroke="#707070" stroke-width="1.372" stroke-linecap="round" stroke-linejoin="round"/>
<path d="M113.572 331.195C109.732 331.195 105.893 330.921 102.327 330.373L113.572 331.195Z" fill="#232323"/>
<path d="M113.572 331.195C109.732 331.195 105.893 330.921 102.327 330.373" stroke="#707070" stroke-width="1.372" stroke-linecap="round" stroke-linejoin="round"/>
<path d="M124.837 330.373C121.272 330.921 117.432 331.195 113.592 331.195L124.837 330.373Z" fill="#232323"/>
<path d="M124.837 330.373C121.272 330.921 117.432 331.195 113.592 331.195" stroke="#707070" stroke-width="1.372" stroke-linecap="round" stroke-linejoin="round"/>
<path d="M122.072 272.812H105.343V279.939H122.072V272.812Z" fill="#232323" stroke="#707070" stroke-width="1.372" stroke-linecap="round" stroke-linejoin="round"/>
<path d="M114.392 443.577H62.0084L56.5232 420.004H120.152L114.392 443.577Z" fill="#232323" stroke="#707070" stroke-width="1.372" stroke-linecap="round" stroke-linejoin="round"/>
<path d="M124.8 333.11H31.5508L48.555 424.936H124.8V333.11Z" fill="#232323" stroke="#707070" stroke-width="1.372" stroke-linecap="round" stroke-linejoin="round"/>
<path d="M114.389 443.578H62.0052L51.3091 464.136H125.085L114.389 443.578Z" fill="#232323" stroke="#707070" stroke-width="1.372" stroke-linecap="round" stroke-linejoin="round"/>
<path d="M125.085 464.132H51.3087L25.2539 641.206H125.085V464.132Z" fill="#232323" stroke="#707070" stroke-width="1.372" stroke-linecap="round" stroke-linejoin="round"/>
<path d="M124.784 424.938L163.455 395.608V370.939L124.784 384.37V424.938Z" fill="#232323" stroke="#707070" stroke-width="1.372" stroke-linecap="round" stroke-linejoin="round"/>
<path d="M124.784 424.938L131.641 420.004L124.784 384.918V424.938Z" fill="#232323" stroke="#707070" stroke-width="1.372" stroke-linecap="round" stroke-linejoin="round"/>
<path d="M163.479 395.61V336.128L155.8 341.336C148.669 346.27 144.281 354.219 144.281 362.991V377.793L163.479 395.61Z" fill="#232323" stroke="#707070" stroke-width="1.372" stroke-linecap="round" stroke-linejoin="round"/>
<path d="M163.48 395.608V381.902L144.007 377.517L163.48 395.608Z" fill="#232323" stroke="#707070" stroke-width="1.372" stroke-linecap="round" stroke-linejoin="round"/>
<path d="M124.814 303.236H102.325V332.84H124.814V303.236Z" fill="#232323" stroke="#707070" stroke-width="1.372" stroke-linecap="round" stroke-linejoin="round"/>
<path d="M104.368 303.371H123.018V279.523H104.368V303.371Z" fill="#232323" stroke="#707070" stroke-width="1.372" stroke-linecap="round" stroke-linejoin="round"/>
<path d="M104.368 303.478H123.018V298.818H104.368V303.478Z" fill="#232323" stroke="#707070" stroke-width="1.372" stroke-linecap="round" stroke-linejoin="round"/>
<path d="M122.072 275.549H105.343V264.311C105.343 261.021 108.085 258.28 111.376 258.28H116.039C119.33 258.28 122.072 261.021 122.072 264.311V275.549Z" fill="#232323" stroke="#707070" stroke-width="1.372" stroke-linecap="round" stroke-linejoin="round"/>
<path d="M124.814 327.632H102.325V332.84H124.814V327.632Z" fill="#232323" stroke="#707070" stroke-width="1.372" stroke-linecap="round" stroke-linejoin="round"/>
<path d="M80.6569 312.001H96.2898C98.2097 312.001 99.5809 313.372 99.5809 315.291V332.834H77.0916V315.291C77.3658 313.646 78.7371 312.001 80.6569 312.001Z" fill="#232323" stroke="#707070" stroke-width="1.372" stroke-linecap="round" stroke-linejoin="round"/>
<path d="M99.8546 327.626H77.3652V332.834H99.8546V327.626Z" fill="#232323" stroke="#707070" stroke-width="1.372" stroke-linecap="round" stroke-linejoin="round"/>
<path d="M55.9999 318.585H71.9071C73.5527 318.585 74.6497 319.956 74.6497 321.326V332.839H53.2573V321.326C53.2573 319.956 54.3544 318.585 55.9999 318.585Z" fill="#232323" stroke="#707070" stroke-width="1.372" stroke-linecap="round" stroke-linejoin="round"/>
<path d="M74.6497 327.636H53.2573V332.844H74.6497V327.636Z" fill="#232323" stroke="#707070" stroke-width="1.372" stroke-linecap="round" stroke-linejoin="round"/>
<path d="M34.2812 322.42H47.72C49.0913 322.42 50.4626 323.517 50.4626 325.161V333.11H31.8129V325.161C31.5386 323.791 32.9099 322.42 34.2812 322.42Z" fill="#232323" stroke="#707070" stroke-width="1.372" stroke-linecap="round" stroke-linejoin="round"/>
<path d="M50.2005 327.632H31.5508V332.84H50.2005V327.632Z" fill="#232323" stroke="#707070" stroke-width="1.372" stroke-linecap="round" stroke-linejoin="round"/>
<path d="M107.516 375.87C109.333 375.87 110.807 374.398 110.807 372.581C110.807 370.764 109.333 369.292 107.516 369.292C105.698 369.292 104.225 370.764 104.225 372.581C104.225 374.398 105.698 375.87 107.516 375.87Z" fill="#232323" stroke="#707070" stroke-width="1.372" stroke-linecap="round" stroke-linejoin="round"/>
<path d="M82.0157 360.525C83.8333 360.525 85.3069 359.052 85.3069 357.235C85.3069 355.419 83.8333 353.946 82.0157 353.946C80.198 353.946 78.7246 355.419 78.7246 357.235C78.7246 359.052 80.198 360.525 82.0157 360.525Z" fill="#232323" stroke="#707070" stroke-width="1.372" stroke-linecap="round" stroke-linejoin="round"/>
<path d="M56.5155 375.33C58.3332 375.33 59.8066 373.857 59.8066 372.041C59.8066 370.224 58.3332 368.751 56.5155 368.751C54.6979 368.751 53.2244 370.224 53.2244 372.041C53.2244 373.857 54.6979 375.33 56.5155 375.33Z" fill="#232323" stroke="#707070" stroke-width="1.372" stroke-linecap="round" stroke-linejoin="round"/>
<path d="M72.4107 427.678L58.1492 377.517" stroke="#707070" stroke-width="1.372" stroke-linecap="round" stroke-linejoin="round"/>
<path d="M91.0837 427.678L105.345 377.517" stroke="#707070" stroke-width="1.372" stroke-linecap="round" stroke-linejoin="round"/>
<path d="M82.0312 427.68V364.087" stroke="#707070" stroke-width="1.372" stroke-linecap="round" stroke-linejoin="round"/>
<path d="M111.081 520.597V595.429" stroke="#707070" stroke-width="1.372" stroke-linecap="round" stroke-linejoin="round"/>
<path d="M111.081 483.869V497.3" stroke="#707070" stroke-width="1.372" stroke-linecap="round" stroke-linejoin="round"/>
<rect width="60.3358" height="60.3053" rx="19.208" transform="matrix(0.975852 0.218431 -0.218664 0.9758 159.921 239.252)" fill="#232323"/>
<path d="M175.791 273.739L179.379 279.4L190.794 272.162" stroke="#707070" stroke-width="1.372" stroke-linecap="round" stroke-linejoin="round"/>
<rect width="29.5927" height="29.5927" rx="7.74" transform="matrix(0.975852 0.218431 -0.218664 0.9758 171.564 257.594)" stroke="#707070" stroke-width="1.372" stroke-linecap="round" stroke-linejoin="round"/>
<rect width="60.3358" height="60.3053" rx="19.208" transform="matrix(0.975852 0.218431 -0.218664 0.9758 159.921 239.252)" stroke="#707070" stroke-width="1.372" stroke-linecap="round" stroke-linejoin="round"/>
<rect width="60.3358" height="60.3053" rx="19.208" transform="matrix(0.944889 -0.32739 0.327164 0.944968 164.398 178.788)" fill="#232323"/>
<path d="M196.032 199.776V199.776C199.362 201.393 203.372 200.004 204.989 196.674L207.964 190.545" stroke="#707070" stroke-width="1.372" stroke-linecap="round" stroke-linejoin="round" stroke-dasharray="5.74 5.74"/>
<rect width="29.5927" height="29.5927" rx="14.7964" transform="matrix(0.944889 -0.32739 0.327164 0.944968 183.947 188.266)" fill="#232323" stroke="#707070" stroke-width="1.372" stroke-linecap="round" stroke-linejoin="round" stroke-dasharray="5.74 5.74"/>
<rect width="60.3358" height="60.3053" rx="19.208" transform="matrix(0.944889 -0.32739 0.327164 0.944968 164.398 178.788)" stroke="#707070" stroke-width="1.372" stroke-linecap="round" stroke-linejoin="round" stroke-dasharray="5.74 5.74"/>
<path d="M355.384 245.072C356.828 244.711 358.295 245.566 358.693 246.999L359.685 250.568C360.191 252.388 358.749 254.163 356.863 254.041L350.67 253.637C349.227 253.543 348.104 252.345 348.104 250.899V249.034C348.104 247.775 348.961 246.677 350.183 246.372L355.384 245.072Z" fill="#232323" stroke="#707070" stroke-width="1.372" stroke-linecap="round" stroke-linejoin="round"/>
<path d="M356 271.833C357.636 271.833 358.908 273.255 358.728 274.88L358.561 276.379C358.388 277.934 356.952 279.03 355.406 278.786L344.484 277.063C343.365 276.886 342.485 276.014 342.299 274.897C342.031 273.293 343.268 271.833 344.894 271.833H356Z" fill="#232323" stroke="#707070" stroke-width="1.372" stroke-linecap="round" stroke-linejoin="round"/>
<path d="M343.996 270.495C344.105 271.767 345.148 272.737 346.422 272.841L358.324 273.816C359.802 273.937 361.108 272.862 361.274 271.388L363.102 255.156C363.285 253.529 362.012 252.105 360.375 252.105H348.125C347.398 252.105 346.777 252.454 346.499 253.127C345.473 255.606 343.295 262.315 343.996 270.495Z" fill="#232323" stroke="#707070" stroke-width="1.372" stroke-linecap="round" stroke-linejoin="round"/>
<path d="M359.681 243.424C360.247 244.758 359.657 246.249 358.322 246.816C355.65 247.95 351.348 249.76 348.715 250.867C347.414 251.413 345.898 250.876 345.302 249.597C338.76 235.555 346.756 230.183 350.861 228.436C352.075 227.919 353.382 228.586 353.898 229.801L359.681 243.424Z" fill="#232323" stroke="#707070" stroke-width="1.372" stroke-linecap="round" stroke-linejoin="round"/>
<path d="M352.466 301.901C353.329 301.611 353.992 300.912 354.236 300.035L359.82 279.941C360.279 278.289 359.129 276.626 357.422 276.473L338.402 274.764C337.159 274.652 335.998 275.393 335.575 276.567L324.779 306.513C324.001 308.672 326.059 310.776 328.235 310.045L352.466 301.901Z" fill="#232323" stroke="#707070" stroke-width="1.372" stroke-linecap="round" stroke-linejoin="round"/>
<path opacity="0.46" d="M335.572 276.574C335.996 275.397 337.164 274.656 338.41 274.773L342.223 275.13C343.776 275.276 344.895 276.685 344.686 278.23L341.185 304.128C341.044 305.165 340.326 306.033 339.333 306.364L328.221 310.065C326.047 310.79 323.996 308.687 324.773 306.531L335.572 276.574Z" fill="#232323" stroke="#707070" stroke-width="1.372" stroke-linecap="round" stroke-linejoin="round"/>
<path d="M299.755 248.055C298.725 246.955 298.774 245.23 299.866 244.191L301.741 242.405C302.809 241.389 304.489 241.398 305.546 242.425L320.47 256.933C321.937 258.359 321.383 260.832 319.447 261.496L315.754 262.761C314.732 263.112 313.6 262.83 312.862 262.042L299.755 248.055Z" fill="#232323" stroke="#707070" stroke-width="1.372" stroke-linecap="round" stroke-linejoin="round"/>
<path d="M208.478 332.25C207.566 333.413 207.738 335.089 208.868 336.042L213.985 340.356C214.946 341.167 216.335 341.221 217.355 340.487L228.227 332.671C229.729 331.591 229.755 329.366 228.279 328.252L219.963 321.976C218.769 321.076 217.074 321.296 216.151 322.473L208.478 332.25Z" fill="#232323" stroke="#707070" stroke-width="1.372" stroke-linecap="round" stroke-linejoin="round"/>
<path d="M314.756 231.068C315.619 229.945 317.195 229.662 318.394 230.417L320.622 231.819C322.16 232.787 322.35 234.954 321.004 236.175L313.584 242.901C312.603 243.79 311.127 243.852 310.075 243.048L309.413 242.542C308.207 241.621 307.979 239.895 308.903 238.691L314.756 231.068Z" fill="#232323" stroke="#707070" stroke-width="1.372" stroke-linecap="round" stroke-linejoin="round"/>
<path d="M305.332 239.171C306.441 239.841 307.866 239.644 308.752 238.7L316.662 230.268C318.026 228.813 317.432 226.434 315.543 225.792L292.149 217.843C289.406 217.02 286.389 218.117 285.018 220.584L283.651 222.905C282.889 224.201 283.311 225.869 284.597 226.646L305.332 239.171Z" fill="#232323" stroke="#707070" stroke-width="1.372" stroke-linecap="round" stroke-linejoin="round"/>
<path opacity="0.32" d="M284.627 226.64C283.327 225.869 282.895 224.191 283.662 222.888L285.018 220.585C285.045 220.53 285.076 220.474 285.109 220.419C285.71 219.412 287.096 219.287 288.149 219.803L310.982 230.989C312.653 231.808 313.042 234.017 311.751 235.357L308.74 238.482C307.857 239.399 306.459 239.588 305.364 238.939L284.627 226.64Z" fill="#232323" stroke="#707070" stroke-width="1.372" stroke-linecap="round" stroke-linejoin="round"/>
<path d="M336.676 258.493C338.137 258.293 339.495 259.282 339.752 260.735L340.45 264.688C340.718 266.205 339.685 267.645 338.162 267.878L320.697 270.547C319.066 270.797 317.585 269.56 317.539 267.911L317.42 263.609C317.381 262.209 318.402 261.005 319.789 260.814L336.676 258.493Z" fill="#232323" stroke="#707070" stroke-width="1.372" stroke-linecap="round" stroke-linejoin="round"/>
<path d="M313.214 303.14C312.93 304.626 313.903 306.062 315.389 306.349L334.143 309.97C335.63 310.257 337.069 309.285 337.357 307.798L344.765 269.586C345.072 268 343.951 266.494 342.344 266.333L323.151 264.415C321.737 264.274 320.45 265.235 320.183 266.631L313.214 303.14Z" fill="#232323" stroke="#707070" stroke-width="1.372" stroke-linecap="round" stroke-linejoin="round"/>
<path opacity="0.32" d="M315.406 306.337C313.913 306.057 312.932 304.617 313.216 303.125L320.183 266.631C320.45 265.235 321.737 264.274 323.151 264.415L323.888 264.489C325.195 264.619 326.226 265.658 326.348 266.966L329.918 305.499C330.086 307.314 328.471 308.785 326.68 308.449L315.406 306.337Z" fill="#232323" stroke="#707070" stroke-width="1.372" stroke-linecap="round" stroke-linejoin="round"/>
<path d="M308.326 244.721C307.561 243.481 307.899 241.859 309.095 241.028L313.27 238.125L323.172 231.527C324.493 230.647 326.282 231.068 327.073 232.444L340.561 255.927C341.538 257.627 340.468 259.773 338.522 260.016L329.452 261.15L321.071 262.281C319.997 262.427 318.937 261.925 318.368 261.003L308.326 244.721Z" fill="#232323" stroke="#707070" stroke-width="1.372" stroke-linecap="round" stroke-linejoin="round"/>
<path opacity="0.32" d="M321.071 262.289C319.997 262.434 318.937 261.933 318.368 261.01L308.326 244.728C307.561 243.488 307.899 241.867 309.095 241.035L313.27 238.132C314.179 237.526 315.407 237.772 316.013 238.68L330.047 259.719C330.417 260.274 330.105 261.026 329.452 261.157L321.071 262.289Z" fill="#232323" stroke="#707070" stroke-width="1.372" stroke-linecap="round" stroke-linejoin="round"/>
<path d="M304.627 260.319L317.399 258.601C318.901 258.399 319.955 257.018 319.753 255.516L319.534 253.891C319.332 252.389 317.95 251.336 316.448 251.538L303.675 253.256C302.173 253.458 301.12 254.839 301.322 256.341L301.541 257.966C301.743 259.468 303.125 260.521 304.627 260.319Z" fill="#232323" stroke="#707070" stroke-width="1.372" stroke-linecap="round" stroke-linejoin="round"/>
<path d="M295.587 239.409L300.109 228.529C300.69 227.129 300.027 225.524 298.628 224.943L292.552 222.42C291.152 221.839 289.546 222.503 288.964 223.902L284.443 234.782C283.861 236.181 284.524 237.787 285.924 238.368L292 240.89C293.399 241.471 295.005 240.808 295.587 239.409Z" fill="#232323" stroke="#707070" stroke-width="1.372" stroke-linecap="round" stroke-linejoin="round"/>
<path d="M319.709 257.683C321.263 257.482 322.67 258.622 322.796 260.184L326.399 304.838C326.542 306.604 325.004 308.032 323.26 307.721C315.626 306.358 297.742 302.732 296.235 298.43C292.968 288.884 297.072 270.129 298.836 262.209C299.088 261.077 300.02 260.23 301.17 260.081L319.709 257.683Z" fill="#232323" stroke="#707070" stroke-width="1.372" stroke-linecap="round" stroke-linejoin="round"/>
<path d="M322.587 289.383L320.393 264.165" stroke="#707070" stroke-width="1.372" stroke-linecap="round" stroke-linejoin="round"/>
<path d="M323.137 297.06L322.863 292.127" stroke="#707070" stroke-width="1.372" stroke-linecap="round" stroke-linejoin="round"/>
<path d="M297.591 225.413C298.644 223.767 301.031 223.717 302.152 225.318L318.862 249.207C320.045 250.899 319.006 253.243 316.958 253.502L300.42 255.594C300.012 255.646 299.596 255.609 299.212 255.462C292.708 252.966 289.075 246.028 287.728 242.99C287.369 242.181 287.467 241.251 287.944 240.505L297.591 225.413Z" fill="#232323" stroke="#707070" stroke-width="1.372" stroke-linecap="round" stroke-linejoin="round"/>
<path d="M315.457 248.818L300.099 226.615" stroke="#707070" stroke-width="1.372" stroke-linecap="round" stroke-linejoin="round"/>
<path d="M290.289 221.13C292.282 221.511 293.187 223.849 291.969 225.472L283.788 236.374C283.341 236.97 282.673 237.361 281.93 237.41C278.405 237.64 269.798 237.589 264.987 233.742C260.873 230.453 258.679 225.793 257.582 221.956C256.485 218.666 259.502 215.377 263.067 215.925L290.289 221.13Z" fill="#232323" stroke="#707070" stroke-width="1.372" stroke-linecap="round" stroke-linejoin="round"/>
<path d="M289.106 223.874L263.326 218.94" stroke="#707070" stroke-width="1.372" stroke-linecap="round" stroke-linejoin="round"/>
<path d="M336.841 295.69L336.293 299.527" stroke="#707070" stroke-width="1.372" stroke-linecap="round" stroke-linejoin="round"/>
<path d="M341.775 270.203L337.661 291.583" stroke="#707070" stroke-width="1.372" stroke-linecap="round" stroke-linejoin="round"/>
<path d="M248.887 409.21C248.546 407.589 249.708 406.037 251.359 405.908L309.767 401.36C310.875 401.273 311.925 401.864 312.428 402.855L319.999 417.79C320.925 419.616 319.598 421.775 317.552 421.775H253.761C252.463 421.775 251.343 420.866 251.075 419.597L248.887 409.21Z" fill="#232323" stroke="#707070" stroke-width="1.372" stroke-linecap="round" stroke-linejoin="round"/>
<path d="M320.352 421.775C321.384 421.775 322.33 422.355 322.798 423.276L390.22 555.938C391.147 557.763 389.821 559.925 387.773 559.925H283.928C282.638 559.925 281.523 559.027 281.247 557.767L252.277 425.104C251.903 423.393 253.207 421.775 254.958 421.775H320.352Z" fill="#232323" stroke="#707070" stroke-width="1.372" stroke-linecap="round" stroke-linejoin="round"/>
<path d="M275.09 277.186L283.197 266.139C284.094 264.917 283.83 263.2 282.608 262.304L273.765 255.822C272.543 254.927 270.826 255.191 269.929 256.412L261.822 267.459C260.925 268.681 261.189 270.397 262.411 271.293L271.254 277.775C272.476 278.671 274.194 278.407 275.09 277.186Z" fill="#232323" stroke="#707070" stroke-width="1.372" stroke-linecap="round" stroke-linejoin="round"/>
<path d="M250.463 256.688L252.936 245.17C253.254 243.688 252.311 242.229 250.829 241.912L241.715 239.957C240.234 239.639 238.775 240.583 238.456 242.064L235.983 253.583C235.665 255.064 236.609 256.523 238.09 256.841L247.204 258.795C248.686 259.113 250.145 258.17 250.463 256.688Z" fill="#232323" stroke="#707070" stroke-width="1.372" stroke-linecap="round" stroke-linejoin="round"/>
<path d="M226.338 324.396C225.78 324.411 225.28 324.681 224.886 325.076L212.183 337.771C211.178 338.776 211.106 340.382 212.018 341.472L223.988 355.785C224.967 356.956 226.713 357.102 227.874 356.111L250.008 337.216C251.161 336.232 251.305 334.488 250.191 333.461C242.525 326.401 230.378 324.286 226.338 324.396Z" fill="#232323" stroke="#707070" stroke-width="1.372" stroke-linecap="round" stroke-linejoin="round"/>
<path d="M244.685 332.692C241.119 329.951 234.811 327.758 229.052 327.21L244.685 332.692Z" fill="#232323"/>
<path d="M244.685 332.692C241.119 329.951 234.811 327.758 229.052 327.21" stroke="#707070" stroke-width="1.372" stroke-linecap="round" stroke-linejoin="round"/>
<path d="M187.527 320.737C186.486 319.884 186.223 318.412 187.048 317.349C190.469 312.945 200.318 303.3 214.518 314.871C216.626 316.627 219.071 318.495 220.773 319.827C221.907 320.715 222.014 322.293 221.071 323.381L210.231 335.881C209.258 337.003 207.569 337.147 206.42 336.206L187.527 320.737Z" fill="#232323" stroke="#707070" stroke-width="1.372" stroke-linecap="round" stroke-linejoin="round"/>
<path d="M213.417 317.34C202.995 308.843 195.042 312.407 190.379 317.615L213.417 317.34Z" fill="#232323"/>
<path d="M213.417 317.34C202.995 308.843 195.042 312.407 190.379 317.615" stroke="#707070" stroke-width="1.372" stroke-linecap="round" stroke-linejoin="round"/>
<path d="M283.242 262.777C284.516 261.885 286.276 262.228 287.121 263.534L310.067 298.997C311.096 300.588 310.248 302.704 308.393 303.091C300.645 304.707 283.404 307.828 279.815 304.452C271.5 296.646 267.121 285.138 264.975 277.793C264.651 276.685 265.086 275.504 266.031 274.841L283.242 262.777Z" fill="#232323" stroke="#707070" stroke-width="1.372" stroke-linecap="round" stroke-linejoin="round"/>
<path d="M300.114 289.377L285.579 266.626" stroke="#707070" stroke-width="1.372" stroke-linecap="round" stroke-linejoin="round"/>
<path d="M304.768 296.499L302.573 293.21" stroke="#707070" stroke-width="1.372" stroke-linecap="round" stroke-linejoin="round"/>
<path d="M247.161 243.067C247.568 241.283 249.575 240.389 251.174 241.281L276.964 255.673C278.756 256.673 278.856 259.214 277.149 260.352L263.32 269.567C262.968 269.801 262.568 269.956 262.147 269.986C255.121 270.49 247.17 264.667 244.172 262.158C243.449 261.552 243.166 260.592 243.376 259.672L247.161 243.067Z" fill="#232323" stroke="#707070" stroke-width="1.372" stroke-linecap="round" stroke-linejoin="round"/>
<path d="M273.209 256.492L252.091 244.98" stroke="#707070" stroke-width="1.372" stroke-linecap="round" stroke-linejoin="round"/>
<path d="M240.065 239.006C242.015 238.977 243.373 240.934 242.662 242.75L237.263 256.54C236.939 257.367 236.238 257.985 235.361 258.122C231.644 258.699 222.973 259.316 217.548 256.488C210.635 252.841 208.562 245.969 207.941 242.176C207.698 240.696 208.878 239.475 210.378 239.452L240.065 239.006Z" fill="#232323" stroke="#707070" stroke-width="1.372" stroke-linecap="round" stroke-linejoin="round"/>
<path d="M235.374 241.961L211.513 242.236" stroke="#707070" stroke-width="1.372" stroke-linecap="round" stroke-linejoin="round"/>
<path fill-rule="evenodd" clip-rule="evenodd" d="M352.156 305.293C352.95 303.48 351.622 301.447 349.642 301.447H279.168C277.919 301.447 276.828 302.291 276.513 303.499L269.072 332.047C268.761 333.24 267.692 334.08 266.459 334.099L252.033 334.324C251.363 334.335 250.72 334.59 250.225 335.042L227.415 355.878C226.335 356.865 226.218 358.525 227.15 359.652L240.296 375.557C240.818 376.188 241.593 376.553 242.411 376.553H244.435C242.747 376.655 241.535 378.264 241.937 379.934L247.746 404.05C248.043 405.283 249.146 406.151 250.413 406.151H311.894C313.17 406.151 314.279 405.271 314.567 404.026L320.152 379.911C320.538 378.247 319.327 376.654 317.649 376.553H319.136C320.225 376.553 321.212 375.908 321.649 374.91L352.156 305.293Z" fill="#232323"/>
<path d="M352.156 305.293L352.784 305.568L352.156 305.293ZM276.513 303.499L277.177 303.672V303.672L276.513 303.499ZM269.072 332.047L269.736 332.22V332.22L269.072 332.047ZM266.459 334.099L266.449 333.413L266.459 334.099ZM252.033 334.324L252.043 335.01L252.033 334.324ZM250.225 335.042L249.762 334.535L250.225 335.042ZM227.415 355.878L227.877 356.385H227.877L227.415 355.878ZM227.15 359.652L226.621 360.089H226.621L227.15 359.652ZM240.296 375.557L240.825 375.12H240.825L240.296 375.557ZM244.435 376.553L244.476 377.238C244.846 377.215 245.131 376.903 245.12 376.532C245.109 376.162 244.805 375.867 244.435 375.867V376.553ZM241.937 379.934L242.604 379.774L241.937 379.934ZM247.746 404.05L248.413 403.889L247.746 404.05ZM314.567 404.026L313.898 403.872L314.567 404.026ZM320.152 379.911L320.821 380.066L320.152 379.911ZM317.649 376.553V375.867C317.278 375.867 316.974 376.162 316.963 376.532C316.952 376.903 317.237 377.215 317.608 377.238L317.649 376.553ZM321.649 374.91L321.021 374.635L321.649 374.91ZM349.642 302.133C351.127 302.133 352.123 303.658 351.527 305.017L352.784 305.568C353.777 303.302 352.117 300.761 349.642 300.761V302.133ZM279.168 302.133H349.642V300.761H279.168V302.133ZM277.177 303.672C277.413 302.766 278.231 302.133 279.168 302.133V300.761C277.607 300.761 276.243 301.816 275.849 303.326L277.177 303.672ZM269.736 332.22L277.177 303.672L275.849 303.326L268.408 331.874L269.736 332.22ZM266.47 334.785C268.011 334.761 269.347 333.712 269.736 332.22L268.408 331.874C268.175 332.769 267.373 333.398 266.449 333.413L266.47 334.785ZM252.043 335.01L266.47 334.785L266.449 333.413L252.022 333.638L252.043 335.01ZM250.688 335.548C251.059 335.209 251.541 335.018 252.043 335.01L252.022 333.638C251.184 333.651 250.381 333.97 249.762 334.535L250.688 335.548ZM227.877 356.385L250.688 335.548L249.762 334.535L226.952 355.372L227.877 356.385ZM227.679 359.215C226.98 358.37 227.067 357.125 227.877 356.385L226.952 355.372C225.602 356.605 225.457 358.68 226.621 360.089L227.679 359.215ZM240.825 375.12L227.679 359.215L226.621 360.089L239.767 375.994L240.825 375.12ZM242.411 375.867C241.798 375.867 241.216 375.593 240.825 375.12L239.767 375.994C240.419 376.782 241.388 377.239 242.411 377.239V375.867ZM244.435 375.867H242.411V377.239H244.435V375.867ZM242.604 379.774C242.302 378.521 243.211 377.314 244.476 377.238L244.393 375.868C242.282 375.996 240.767 378.006 241.27 380.095L242.604 379.774ZM248.413 403.889L242.604 379.774L241.27 380.095L247.079 404.211L248.413 403.889ZM250.413 405.465C249.463 405.465 248.635 404.814 248.413 403.889L247.079 404.211C247.45 405.751 248.829 406.837 250.413 406.837V405.465ZM311.894 405.465H250.413V406.837H311.894V405.465ZM313.898 403.872C313.682 404.805 312.851 405.465 311.894 405.465V406.837C313.49 406.837 314.875 405.736 315.235 404.181L313.898 403.872ZM319.484 379.756L313.898 403.872L315.235 404.181L320.821 380.066L319.484 379.756ZM317.608 377.238C318.865 377.314 319.773 378.508 319.484 379.756L320.821 380.066C321.302 377.985 319.789 375.995 317.69 375.868L317.608 377.238ZM319.136 375.867H317.649V377.239H319.136V375.867ZM321.021 374.635C320.693 375.383 319.953 375.867 319.136 375.867V377.239C320.498 377.239 321.731 376.433 322.277 375.186L321.021 374.635ZM351.527 305.017L321.021 374.635L322.277 375.186L352.784 305.568L351.527 305.017Z" fill="#707070"/>
<path d="M283.64 393.82L285.834 341.191" stroke="#707070" stroke-width="1.372" stroke-linecap="round" stroke-linejoin="round"/>
<path d="M295.976 382.581L306.946 329.13" stroke="#707070" stroke-width="1.372" stroke-linecap="round" stroke-linejoin="round"/>
<path d="M307.483 384.221L324.487 346.12" stroke="#707070" stroke-width="1.372" stroke-linecap="round" stroke-linejoin="round"/>
<path d="M283.367 337.35C283.367 339.269 284.738 340.639 286.658 340.639C288.578 340.639 289.949 339.269 289.949 337.35C289.949 335.431 288.578 334.061 286.658 334.061C284.738 334.061 283.367 335.431 283.367 337.35Z" fill="#232323" stroke="#707070" stroke-width="1.372" stroke-linecap="round" stroke-linejoin="round"/>
<path d="M304.215 324.196C304.215 326.115 305.587 327.485 307.506 327.485C309.426 327.485 310.798 326.115 310.798 324.196C310.798 322.277 309.426 320.907 307.506 320.907C305.861 320.907 304.215 322.551 304.215 324.196Z" fill="#232323" stroke="#707070" stroke-width="1.372" stroke-linecap="round" stroke-linejoin="round"/>
<path d="M322.305 341.188C322.305 343.107 323.676 344.478 325.596 344.478C327.516 344.478 328.887 343.107 328.887 341.188C328.887 339.27 327.516 337.899 325.596 337.899C323.676 337.899 322.305 339.27 322.305 341.188Z" fill="#232323" stroke="#707070" stroke-width="1.372" stroke-linecap="round" stroke-linejoin="round"/>
<path d="M347.254 306.106L339.026 326.115" stroke="#707070" stroke-width="1.372" stroke-linecap="round" stroke-linejoin="round"/>
<path d="M362.347 517.434L373.044 538.815" stroke="#707070" stroke-width="1.372" stroke-linecap="round" stroke-linejoin="round"/>
<path d="M323.675 442.607L357.409 508.119" stroke="#707070" stroke-width="1.372" stroke-linecap="round" stroke-linejoin="round"/>
<path d="M325.606 235.108L336.302 253.199" stroke="#707070" stroke-width="1.372" stroke-linecap="round" stroke-linejoin="round"/>
<path d="M351.911 231.818L356.848 242.234" stroke="#707070" stroke-width="1.372" stroke-linecap="round" stroke-linejoin="round"/>
<path d="M359.621 267.448L359.072 270.189" stroke="#707070" stroke-width="1.372" stroke-linecap="round" stroke-linejoin="round"/>
<path d="M360.708 255.935L359.885 264.981" stroke="#707070" stroke-width="1.372" stroke-linecap="round" stroke-linejoin="round"/>
<path d="M352.735 294.038L351.638 297.601" stroke="#707070" stroke-width="1.372" stroke-linecap="round" stroke-linejoin="round"/>
<path d="M356.883 279.233L353.592 291.019" stroke="#707070" stroke-width="1.372" stroke-linecap="round" stroke-linejoin="round"/>
</svg>
