<svg width="33" height="33" viewBox="0 0 33 33" fill="none" xmlns="http://www.w3.org/2000/svg">
<rect x="0.75" y="0.210938" width="32" height="32" rx="16" fill="#313131"/>
<path d="M15.7735 11.005C15.5766 11.008 15.389 11.0891 15.2519 11.2304C15.1148 11.3717 15.0393 11.5617 15.0421 11.7586V12.5015H12.5399C11.3111 12.5015 10.311 13.5015 10.311 14.7304V19.1881C10.311 20.417 11.3111 21.417 12.5399 21.417H20.9601C22.1889 21.417 23.1889 20.417 23.1889 19.1881V14.7304C23.1889 13.5015 22.1889 12.5015 20.9601 12.5015H18.4578V11.7586C18.4593 11.6591 18.4407 11.5604 18.4033 11.4683C18.3659 11.3761 18.3103 11.2925 18.2399 11.2222C18.1696 11.1519 18.0858 11.0965 17.9936 11.0592C17.9014 11.0218 15.8729 11.0034 15.7735 11.005ZM14.5211 15.4734C15.2051 15.4734 15.7594 16.0276 15.7594 16.7116C15.7594 17.3956 15.2051 17.9499 14.5211 17.9499C13.8371 17.9499 13.2829 17.3956 13.2829 16.7116C13.2829 16.0276 13.8371 15.4734 14.5211 15.4734ZM18.9789 15.4734C19.6629 15.4734 20.2171 16.0276 20.2171 16.7116C20.2171 17.3956 19.6629 17.9499 18.9789 17.9499C18.2948 17.9499 17.7406 17.3956 17.7406 16.7116C17.7406 16.0276 18.2948 15.4734 18.9789 15.4734Z" stroke="white" stroke-linecap="round" stroke-linejoin="round"/>
</svg>
