<svg width="26" height="27" viewBox="0 0 26 27" fill="none" xmlns="http://www.w3.org/2000/svg">
<rect y="0.710938" width="26" height="26" rx="6" fill="#1D1D1D"/>
<path d="M7.15039 9.81166H8.45039H18.8504" stroke="#CCBBFF" stroke-linecap="round" stroke-linejoin="round"/>
<path d="M10.4026 9.81094V8.51094C10.4026 8.16616 10.5396 7.8355 10.7834 7.5917C11.0272 7.3479 11.3579 7.21094 11.7026 7.21094H14.3026C14.6474 7.21094 14.9781 7.3479 15.2219 7.5917C15.4657 7.8355 15.6026 8.16616 15.6026 8.51094V9.81094M17.5526 9.81094V18.9109C17.5526 19.2557 17.4157 19.5864 17.1719 19.8302C16.9281 20.074 16.5974 20.2109 16.2526 20.2109H9.75264C9.40786 20.2109 9.0772 20.074 8.8334 19.8302C8.5896 19.5864 8.45264 19.2557 8.45264 18.9109V9.81094H17.5526Z" stroke="#CCBBFF" stroke-linecap="round" stroke-linejoin="round"/>
<path d="M11.6987 13.0617V16.9617" stroke="#CCBBFF" stroke-linecap="round" stroke-linejoin="round"/>
<path d="M14.2998 13.0617V16.9617" stroke="#CCBBFF" stroke-linecap="round" stroke-linejoin="round"/>
</svg>
