<svg width="406" height="264" viewBox="0 0 406 264" fill="none" xmlns="http://www.w3.org/2000/svg">
<g filter="url(#filter0_f_2102_2543)">
<path d="M193.477 49.3053C193.518 49.781 193.766 50.2296 194.308 50.5348C206.775 56.886 215.204 69.2707 216.387 83.1945C216.444 83.9402 216.961 84.3742 217.476 84.4738C218.068 84.5214 218.646 84.299 218.963 83.6924C225.315 71.2249 237.687 62.8606 251.623 61.6127C252.24 61.5315 252.637 61.2074 252.853 60.7815L252.917 60.7939C252.929 60.7295 252.942 60.6651 252.954 60.6007C252.967 60.5363 252.979 60.4719 252.992 60.4075V60.4075C252.95 59.9318 252.703 59.4832 252.16 59.178C239.693 52.8268 231.264 40.4421 230.081 26.5183C230.025 25.7726 229.507 25.3386 228.992 25.239C228.4 25.1914 227.823 25.4138 227.505 26.0204C221.154 38.4879 208.781 46.8522 194.845 48.1001C194.228 48.1813 193.832 48.5054 193.616 48.9313L193.551 48.9189C193.539 48.9833 193.526 49.0477 193.514 49.1121C193.501 49.1765 193.425 49.2284 193.477 49.3053Z" fill="url(#paint0_linear_2102_2543)"/>
</g>
<path d="M196.197 95.402C195.48 90.9478 194.756 86.4565 194.739 86.3962C194.318 84.6412 192.819 83.2975 190.998 83.1307C189.85 83.0015 162.668 80.0978 142.91 90.3442C132.378 96.7547 105.287 140.9 97.332 182.056C97.1913 182.784 97.243 183.527 97.4908 184.23C105.721 207.969 138.329 220.069 145.957 221.792C146.005 221.809 146.047 221.817 146.089 221.825C147.442 222.086 148.836 221.693 149.853 220.772L160.295 211.31C146.974 206.606 145.015 203.45 144.517 202.919C141.853 200.076 140.172 196.489 143.716 193.058C146.447 190.388 151.122 190.238 154.22 192.638C157.425 194.931 165.834 201.941 193.805 207.204C221.571 212.485 234.859 209.121 235.057 209.032C240.118 207.866 243.588 209.42 245.264 212.92C247.159 217.609 244.688 220.058 241.171 221.7C240.511 222.007 238.882 222.91 223.482 223.494L229.538 236.166C230.13 237.406 231.285 238.284 232.639 238.546C232.688 238.555 232.729 238.564 232.773 238.565C240.501 239.809 275.269 240.732 291.746 221.769C292.237 221.209 292.562 220.538 292.703 219.81C300.656 178.661 291.967 127.6 284.393 117.505C270.064 100.862 243.757 93.4277 242.645 93.1131C240.888 92.6169 239 93.2846 237.957 94.7494C237.919 94.799 235.602 98.7736 233.362 102.607C233.362 102.607 222.299 98.7663 215.036 97.3624C207.772 95.9585 196.197 95.402 196.197 95.402ZM169.876 181.215C162.166 179.724 157.69 169.366 159.874 158.066C162.058 146.766 170.072 138.822 177.782 140.312C185.739 140.675 189.8 152.128 187.784 163.461C185.6 174.761 177.586 182.705 169.876 181.215ZM225.696 192.003C217.986 190.513 213.522 180.093 215.718 168.731C217.914 157.37 225.939 149.364 233.649 150.854C241.36 152.344 245.824 162.764 243.628 174.126C241.432 185.488 233.406 193.494 225.696 192.003Z" fill="url(#paint1_linear_2102_2543)"/>
<g style="mix-blend-mode:screen">
<path fill-rule="evenodd" clip-rule="evenodd" d="M194.308 50.5352C193.766 50.23 193.519 49.7814 193.477 49.3057C193.442 49.2544 193.465 49.2143 193.488 49.1741C193.499 49.154 193.51 49.1339 193.514 49.1125L193.552 48.9193L193.616 48.9317C193.832 48.5058 194.229 48.1817 194.846 48.1005C208.782 46.8526 221.154 38.4883 227.505 26.0208C227.823 25.4142 228.4 25.1917 228.992 25.2394C229.508 25.3389 230.025 25.773 230.081 26.5187C231.265 40.4425 239.693 52.8272 252.161 59.1784C252.703 59.4836 252.95 59.9322 252.992 60.4079L252.955 60.6011L252.917 60.7943L252.853 60.7819C252.637 61.2078 252.24 61.5319 251.624 61.6131C237.687 62.861 225.315 71.2253 218.964 83.6928C218.646 84.2994 218.069 84.5218 217.477 84.4742C216.962 84.3746 216.444 83.9406 216.388 83.1949C215.204 69.2711 206.776 56.8864 194.308 50.5352ZM236.714 141.169L266.809 106.435L296.904 71.7016C297.671 70.8477 297.199 69.4872 296.04 69.2631L295.524 69.1635C267.767 67.6065 241.655 79.6616 224.653 100.225C222.662 102.579 222.091 105.876 223.127 108.815L234.138 140.671C234.531 141.749 235.948 142.023 236.714 141.169ZM163.63 86.5581L178.614 130.005C179.007 131.083 180.424 131.357 181.126 130.49L203.215 105.032C205.271 102.69 205.958 99.4824 204.999 96.4914C196.885 71.0737 177.146 50.1563 150.807 41.2578L150.292 41.1582C149.197 40.9466 148.253 42.0333 148.581 43.0989L163.63 86.5581Z" fill="url(#paint2_linear_2102_2543)"/>
</g>
<g filter="url(#filter1_f_2102_2543)">
<path d="M323.873 219.516C324.132 219.917 324.56 220.198 325.182 220.215C339.172 220.012 352.408 227.03 359.954 238.791C360.352 239.425 361.012 239.567 361.514 239.415C362.06 239.18 362.467 238.714 362.464 238.029C362.261 224.039 369.299 210.866 381.041 203.258C381.549 202.898 381.748 202.426 381.74 201.949L381.803 201.929C381.784 201.867 381.765 201.804 381.746 201.741C381.727 201.678 381.708 201.616 381.689 201.553V201.553C381.43 201.152 381.002 200.87 380.38 200.854C366.389 201.056 353.154 194.038 345.608 182.277C345.21 181.644 344.55 181.501 344.048 181.654C343.502 181.888 343.095 182.354 343.097 183.039C343.3 197.03 336.263 210.202 324.521 217.811C324.013 218.171 323.814 218.642 323.821 219.12L323.759 219.139C323.778 219.202 323.797 219.264 323.816 219.327C323.835 219.39 323.791 219.472 323.873 219.516Z" fill="url(#paint3_linear_2102_2543)"/>
</g>
<path d="M323.873 219.516C324.132 219.917 324.56 220.198 325.182 220.215C339.172 220.012 352.408 227.03 359.954 238.791C360.352 239.425 361.012 239.567 361.514 239.415C362.06 239.18 362.467 238.714 362.464 238.029C362.261 224.039 369.299 210.866 381.041 203.258C381.549 202.898 381.748 202.426 381.74 201.949L381.803 201.929C381.784 201.867 381.765 201.804 381.746 201.741C381.727 201.678 381.708 201.616 381.689 201.553V201.553C381.43 201.152 381.002 200.87 380.38 200.854C366.389 201.056 353.154 194.038 345.608 182.277C345.21 181.644 344.55 181.501 344.048 181.654C343.502 181.888 343.095 182.354 343.097 183.039C343.3 197.03 336.263 210.202 324.521 217.811C324.013 218.171 323.814 218.642 323.821 219.12L323.759 219.139C323.778 219.202 323.797 219.264 323.816 219.327C323.835 219.39 323.791 219.472 323.873 219.516Z" fill="url(#paint4_linear_2102_2543)"/>
<g filter="url(#filter2_f_2102_2543)">
<path d="M24.7579 134.258C24.9463 134.697 25.3215 135.046 25.9321 135.166C39.7606 137.298 51.6406 146.424 57.1206 159.279C57.4073 159.97 58.0345 160.22 58.555 160.153C59.1322 160.014 59.6111 159.622 59.723 158.946C61.8552 145.117 70.9898 133.303 83.8361 127.758C84.3967 127.487 84.6721 127.055 84.7439 126.583L84.809 126.575C84.8007 126.51 84.7923 126.445 84.784 126.38C84.7757 126.315 84.7674 126.25 84.759 126.185V126.185C84.5706 125.746 84.1954 125.397 83.5849 125.277C69.7563 123.145 57.8763 114.018 52.3964 101.164C52.1096 100.473 51.4825 100.223 50.962 100.289C50.3847 100.429 49.9059 100.821 49.7939 101.497C47.6618 115.325 38.5272 127.14 25.6808 132.685C25.1202 132.955 24.8449 133.387 24.773 133.859L24.708 133.868C24.7163 133.933 24.7246 133.998 24.733 134.063C24.7413 134.128 24.6845 134.201 24.7579 134.258Z" fill="url(#paint5_linear_2102_2543)"/>
</g>
<path d="M24.7579 134.258C24.9463 134.697 25.3215 135.046 25.9321 135.166C39.7606 137.298 51.6406 146.424 57.1206 159.279C57.4073 159.97 58.0345 160.22 58.555 160.153C59.1322 160.014 59.6111 159.622 59.723 158.946C61.8552 145.117 70.9898 133.303 83.8361 127.758C84.3967 127.487 84.6721 127.055 84.7439 126.583L84.809 126.575C84.8007 126.51 84.7923 126.445 84.784 126.38C84.7757 126.315 84.7674 126.25 84.759 126.185V126.185C84.5706 125.746 84.1954 125.397 83.5849 125.277C69.7563 123.145 57.8763 114.018 52.3964 101.164C52.1096 100.473 51.4825 100.223 50.962 100.289C50.3847 100.429 49.9059 100.821 49.7939 101.497C47.6618 115.325 38.5272 127.14 25.6808 132.685C25.1202 132.955 24.8449 133.387 24.773 133.859L24.708 133.868C24.7163 133.933 24.7246 133.998 24.733 134.063C24.7413 134.128 24.6845 134.201 24.7579 134.258Z" fill="url(#paint6_linear_2102_2543)"/>
<path d="M321.022 145.059C317.15 144.31 314.908 139.077 316.011 133.371C317.113 127.665 321.144 123.644 325.016 124.392C328.889 125.141 331.131 130.374 330.028 136.08C328.925 141.786 324.894 145.807 321.022 145.059Z" fill="#232323"/>
<path d="M100.985 94.4801C96.2883 95.5692 91.1832 90.8398 89.5782 83.9193C87.9733 76.9988 90.4756 70.5051 95.1719 69.4159C99.8681 68.3268 104.973 73.0563 106.578 79.9768C108.183 86.8972 105.681 93.391 100.985 94.4801Z" fill="#232323"/>
<path d="M4.00821 189.869C2.35978 185.339 6.43796 179.7 13.1139 177.27C19.7898 174.841 26.5383 176.541 28.1867 181.071C29.8351 185.601 25.7569 191.241 19.081 193.67C12.4051 196.099 5.65663 194.399 4.00821 189.869Z" fill="#232323"/>
<path d="M246.356 16.7788C244.733 12.3163 248.75 6.76157 255.326 4.36875C261.902 1.97593 268.55 3.6501 270.173 8.11263C271.797 12.5752 267.78 18.1299 261.204 20.5227C254.628 22.9155 247.98 21.2414 246.356 16.7788Z" fill="#232323"/>
<defs>
<filter id="filter0_f_2102_2543" x="169.461" y="1.23291" width="107.531" height="107.247" filterUnits="userSpaceOnUse" color-interpolation-filters="sRGB">
<feFlood flood-opacity="0" result="BackgroundImageFix"/>
<feBlend mode="normal" in="SourceGraphic" in2="BackgroundImageFix" result="shape"/>
<feGaussianBlur stdDeviation="12" result="effect1_foregroundBlur_2102_2543"/>
</filter>
<filter id="filter1_f_2102_2543" x="299.758" y="157.598" width="106.047" height="105.873" filterUnits="userSpaceOnUse" color-interpolation-filters="sRGB">
<feFlood flood-opacity="0" result="BackgroundImageFix"/>
<feBlend mode="normal" in="SourceGraphic" in2="BackgroundImageFix" result="shape"/>
<feGaussianBlur stdDeviation="12" result="effect1_foregroundBlur_2102_2543"/>
</filter>
<filter id="filter2_f_2102_2543" x="0.710938" y="76.2788" width="108.102" height="107.885" filterUnits="userSpaceOnUse" color-interpolation-filters="sRGB">
<feFlood flood-opacity="0" result="BackgroundImageFix"/>
<feBlend mode="normal" in="SourceGraphic" in2="BackgroundImageFix" result="shape"/>
<feGaussianBlur stdDeviation="12" result="effect1_foregroundBlur_2102_2543"/>
</filter>
<linearGradient id="paint0_linear_2102_2543" x1="187.76" y1="97.4132" x2="243.204" y2="41.9438" gradientUnits="userSpaceOnUse">
<stop stop-color="#CCBBFF"/>
<stop offset="0.473958" stop-color="#7427FF"/>
<stop offset="1" stop-color="#00BAFF"/>
</linearGradient>
<linearGradient id="paint1_linear_2102_2543" x1="166.99" y1="181.076" x2="307.476" y2="89.0761" gradientUnits="userSpaceOnUse">
<stop offset="0.10614" stop-color="#232323"/>
<stop offset="1" stop-color="#7B7B7B"/>
</linearGradient>
<linearGradient id="paint2_linear_2102_2543" x1="228.977" y1="25.2365" x2="207.503" y2="136.34" gradientUnits="userSpaceOnUse">
<stop stop-color="#CCBBFF"/>
<stop offset="0.473958" stop-color="#7427FF"/>
<stop offset="1" stop-color="#00BAFF"/>
</linearGradient>
<linearGradient id="paint3_linear_2102_2543" x1="341.274" y1="264.729" x2="364.414" y2="189.793" gradientUnits="userSpaceOnUse">
<stop stop-color="#CCBBFF"/>
<stop offset="0.473958" stop-color="#7427FF"/>
<stop offset="1" stop-color="#00BAFF"/>
</linearGradient>
<linearGradient id="paint4_linear_2102_2543" x1="341.274" y1="264.729" x2="364.414" y2="189.793" gradientUnits="userSpaceOnUse">
<stop stop-color="#CCBBFF"/>
<stop offset="0.473958" stop-color="#7427FF"/>
<stop offset="1" stop-color="#00BAFF"/>
</linearGradient>
<linearGradient id="paint5_linear_2102_2543" x1="34.3779" y1="181.74" x2="69.6869" y2="111.71" gradientUnits="userSpaceOnUse">
<stop stop-color="#CCBBFF"/>
<stop offset="0.473958" stop-color="#7427FF"/>
<stop offset="1" stop-color="#00BAFF"/>
</linearGradient>
<linearGradient id="paint6_linear_2102_2543" x1="34.3779" y1="181.74" x2="69.6869" y2="111.71" gradientUnits="userSpaceOnUse">
<stop stop-color="#CCBBFF"/>
<stop offset="0.473958" stop-color="#7427FF"/>
<stop offset="1" stop-color="#00BAFF"/>
</linearGradient>
</defs>
</svg>
