<svg width="27" height="20" viewBox="0 0 27 20" fill="none" xmlns="http://www.w3.org/2000/svg">
<path d="M10.9479 1.54215C10.7402 0.974171 10.5306 0.401506 10.5268 0.394008C10.4268 0.173752 10.1953 0.0350379 9.95144 0.0594066C9.79712 0.0715909 6.14581 0.380886 3.80623 2.23197C2.58309 3.34356 0.140625 9.84251 0.140625 15.4614C0.140625 15.5607 0.166345 15.6573 0.216833 15.7435C1.90389 18.6584 6.50303 19.4213 7.55089 19.4541C7.55756 19.455 7.56328 19.455 7.56899 19.455C7.7538 19.455 7.92717 19.3679 8.03767 19.2207L9.17126 17.7098C7.29845 17.4296 6.96028 17.0641 6.88122 17.0069C6.45826 16.7004 6.14581 16.2712 6.52494 15.7294C6.81644 15.3086 7.42801 15.1699 7.89669 15.407C8.3768 15.6273 9.66185 16.3358 13.477 16.3171C17.2655 16.3058 18.9287 15.5251 18.9526 15.5082C19.5889 15.2261 20.0852 15.3423 20.3948 15.7604C20.7634 16.3293 20.5005 16.7145 20.0795 17.02C20.0004 17.0772 19.8089 17.2375 17.797 17.7061L18.9164 19.2198C19.0259 19.3679 19.2002 19.4541 19.385 19.4541C19.3917 19.4541 19.3974 19.4541 19.4031 19.4531C20.4519 19.4203 25.0511 18.6574 26.7372 15.7425C26.7877 15.6563 26.8134 15.5598 26.8134 15.4604C26.8134 9.84251 24.3709 3.34356 23.1173 2.2076C20.8082 0.381824 17.1569 0.0725282 17.0026 0.0594066C16.7587 0.0387869 16.5272 0.17469 16.4272 0.394008C16.4234 0.401506 16.2195 0.983543 16.0224 1.54496C16.0224 1.54496 14.4687 1.32096 13.477 1.32096C12.4854 1.32096 10.9479 1.54215 10.9479 1.54215ZM9.66662 13.5053C8.61399 13.5053 7.76142 12.2559 7.76142 10.7132C7.76142 9.17049 8.61399 7.92113 9.66662 7.92113C10.723 7.76648 11.549 9.17049 11.5718 10.7132C11.5718 12.2559 10.7192 13.5053 9.66662 13.5053ZM17.2874 13.5053C16.2348 13.5053 15.3822 12.2475 15.3822 10.6963C15.3822 9.14519 16.2348 7.88738 17.2874 7.88738C18.34 7.88738 19.1926 9.14519 19.1926 10.6963C19.1926 12.2475 18.34 13.5053 17.2874 13.5053Z" fill="#00BAFF"/>
</svg>
