<svg width="408" height="265" viewBox="0 0 408 265" fill="none" xmlns="http://www.w3.org/2000/svg">
<g filter="url(#filter0_f_2102_2603)">
<path d="M193.477 49.3268C193.518 49.8025 193.766 50.2511 194.308 50.5563C206.775 56.9075 215.204 69.2922 216.387 83.216C216.444 83.9617 216.961 84.3957 217.476 84.4953C218.068 84.5429 218.646 84.3205 218.963 83.7139C225.315 71.2464 237.687 62.8821 251.623 61.6342C252.24 61.553 252.637 61.2288 252.853 60.8029L252.917 60.8154C252.929 60.751 252.942 60.6866 252.954 60.6222C252.967 60.5578 252.979 60.4934 252.992 60.429C252.95 59.9533 252.703 59.5047 252.16 59.1995C239.693 52.8483 231.264 40.4636 230.081 26.5398C230.025 25.7941 229.507 25.36 228.992 25.2605C228.4 25.2128 227.823 25.4353 227.505 26.0419C221.154 38.5094 208.781 46.8737 194.845 48.1216C194.228 48.2028 193.832 48.5269 193.616 48.9528L193.551 48.9404C193.539 49.0048 193.526 49.0692 193.514 49.1336C193.501 49.198 193.425 49.2499 193.477 49.3268Z" fill="url(#paint0_linear_2102_2603)"/>
</g>
<g style="mix-blend-mode:screen">
<path d="M191.328 96.1399C190.272 91.7537 189.206 87.3311 189.184 87.2723C188.63 85.5548 187.032 84.3299 185.204 84.3031C184.05 84.2622 156.725 83.4497 137.81 95.1797C127.8 102.378 104.171 148.469 99.3927 190.114C99.3082 190.85 99.4168 191.588 99.7177 192.27C109.743 215.308 143.181 224.874 150.92 226.008C150.968 226.021 151.011 226.025 151.053 226.03C152.423 226.187 153.782 225.689 154.726 224.692L164.412 214.458C150.77 210.789 148.575 207.792 148.037 207.301C145.163 204.67 143.212 201.222 146.483 197.53C149.001 194.659 153.652 194.151 156.924 196.307C160.295 198.347 169.217 204.692 197.509 207.797C225.598 210.935 238.589 206.563 238.78 206.458C243.736 204.908 247.316 206.192 249.255 209.553C251.503 214.083 249.227 216.715 245.847 218.621C245.212 218.978 243.657 220.003 228.347 221.765L235.355 233.936C236.041 235.127 237.26 235.914 238.63 236.071C238.679 236.077 238.722 236.082 238.765 236.08C246.566 236.728 281.302 234.985 296.278 214.815C296.725 214.218 296.998 213.525 297.082 212.788C301.859 171.15 289.283 120.906 280.958 111.42C265.396 95.9248 238.597 90.5275 237.464 90.2991C235.674 89.9389 233.843 90.7493 232.915 92.2897C232.881 92.3421 230.875 96.4826 228.936 100.476C228.936 100.476 217.611 97.4945 210.261 96.6512C202.912 95.808 191.328 96.1399 191.328 96.1399ZM171.659 183.717C163.858 182.822 158.601 172.837 159.913 161.403C161.225 149.969 168.606 141.434 176.408 142.329C184.369 142.081 189.296 153.19 188.154 164.643C186.842 176.077 179.461 184.612 171.659 183.717ZM228.142 190.197C220.34 189.302 215.091 179.255 216.41 167.758C217.729 156.262 225.117 147.664 232.919 148.559C240.721 149.454 245.97 159.502 244.651 170.998C243.332 182.495 235.943 191.092 228.142 190.197Z" fill="url(#paint1_linear_2102_2603)"/>
</g>
<g style="mix-blend-mode:screen">
<path fill-rule="evenodd" clip-rule="evenodd" d="M194.308 50.5567C193.766 50.2515 193.519 49.8029 193.477 49.3272C193.442 49.2759 193.465 49.2358 193.488 49.1956C193.499 49.1755 193.51 49.1554 193.514 49.134L193.552 48.9408L193.616 48.9532C193.832 48.5273 194.229 48.2032 194.846 48.122C208.782 46.8741 221.154 38.5098 227.505 26.0423C227.823 25.4357 228.4 25.2132 228.992 25.2609C229.508 25.3604 230.025 25.7945 230.081 26.5402C231.265 40.464 239.693 52.8487 252.161 59.1998C252.703 59.5051 252.95 59.9537 252.992 60.4294L252.955 60.6226L252.917 60.8158L252.853 60.8033C252.637 61.2292 252.24 61.5534 251.624 61.6346C237.687 62.8825 225.315 71.2468 218.964 83.7142C218.646 84.3209 218.069 84.5433 217.477 84.4957C216.962 84.3961 216.444 83.9621 216.388 83.2164C215.204 69.2926 206.776 56.9079 194.308 50.5567ZM236.714 141.191L266.809 106.457L296.904 71.7231C297.671 70.8692 297.199 69.5086 296.04 69.2846L295.524 69.185C267.767 67.628 241.655 79.6831 224.653 100.246C222.662 102.601 222.091 105.897 223.127 108.836L234.138 140.693C234.531 141.771 235.948 142.045 236.714 141.191ZM163.63 86.5796L178.614 130.026C179.007 131.104 180.424 131.378 181.126 130.512L203.215 105.053C205.271 102.711 205.958 99.5039 204.999 96.5129C196.885 71.0952 177.146 50.1778 150.807 41.2793L150.292 41.1797C149.197 40.9681 148.253 42.0548 148.581 43.1204L163.63 86.5796Z" fill="url(#paint2_linear_2102_2603)"/>
</g>
<g filter="url(#filter1_f_2102_2603)">
<path d="M326.446 195.637C326.33 196.1 326.418 196.605 326.832 197.07C336.555 207.132 340.496 221.585 337.085 235.136C336.896 235.86 337.244 236.438 337.698 236.7C338.243 236.938 338.861 236.915 339.359 236.445C349.421 226.722 363.841 222.838 377.425 226.192C378.035 226.316 378.515 226.138 378.858 225.806L378.915 225.838C378.948 225.782 378.98 225.725 379.013 225.668C379.046 225.611 379.079 225.554 379.111 225.497C379.227 225.034 379.139 224.529 378.725 224.064C369.002 214.003 365.061 199.549 368.472 185.998C368.661 185.275 368.313 184.696 367.859 184.434C367.314 184.197 366.696 184.219 366.198 184.689C356.136 194.412 341.716 198.296 328.132 194.943C327.522 194.819 327.042 194.996 326.699 195.329L326.642 195.296C326.609 195.353 326.577 195.41 326.544 195.466C326.511 195.523 326.422 195.547 326.446 195.637Z" fill="url(#paint3_linear_2102_2603)"/>
</g>
<path d="M326.446 195.637C326.33 196.1 326.418 196.605 326.832 197.07C336.555 207.132 340.496 221.585 337.085 235.136C336.896 235.86 337.244 236.438 337.698 236.7C338.243 236.938 338.861 236.915 339.359 236.445C349.421 226.722 363.841 222.838 377.425 226.192C378.035 226.316 378.515 226.138 378.858 225.806L378.915 225.838C378.948 225.782 378.98 225.725 379.013 225.668C379.046 225.611 379.079 225.554 379.111 225.497C379.227 225.034 379.139 224.529 378.725 224.064C369.002 214.003 365.061 199.549 368.472 185.998C368.661 185.275 368.313 184.696 367.859 184.434C367.314 184.197 366.696 184.219 366.198 184.689C356.136 194.412 341.716 198.296 328.132 194.943C327.522 194.819 327.042 194.996 326.699 195.329L326.642 195.296C326.609 195.353 326.577 195.41 326.544 195.466C326.511 195.523 326.422 195.547 326.446 195.637Z" fill="url(#paint4_linear_2102_2603)"/>
<g filter="url(#filter2_f_2102_2603)">
<path d="M24.7579 134.28C24.9463 134.718 25.3215 135.067 25.9321 135.187C39.7606 137.32 51.6406 146.446 57.1206 159.3C57.4073 159.991 58.0345 160.242 58.555 160.175C59.1322 160.035 59.6111 159.643 59.723 158.968C61.8552 145.139 70.9898 133.324 83.8361 127.779C84.3967 127.509 84.6721 127.077 84.7439 126.605L84.809 126.597C84.8007 126.531 84.7923 126.466 84.784 126.401C84.7757 126.336 84.7674 126.271 84.759 126.206C84.5706 125.767 84.1954 125.419 83.5849 125.298C69.7563 123.166 57.8763 114.04 52.3964 101.185C52.1096 100.495 51.4825 100.244 50.962 100.311C50.3847 100.451 49.9059 100.843 49.7939 101.518C47.6618 115.347 38.5272 127.162 25.6808 132.707C25.1202 132.977 24.8449 133.409 24.773 133.881L24.708 133.889C24.7163 133.954 24.7246 134.019 24.733 134.084C24.7413 134.149 24.6845 134.223 24.7579 134.28Z" fill="url(#paint5_linear_2102_2603)"/>
</g>
<path d="M24.7579 134.28C24.9463 134.718 25.3215 135.067 25.9321 135.187C39.7606 137.32 51.6406 146.446 57.1206 159.3C57.4073 159.991 58.0345 160.242 58.555 160.175C59.1322 160.035 59.6111 159.643 59.723 158.968C61.8552 145.139 70.9898 133.324 83.8361 127.779C84.3967 127.509 84.6721 127.077 84.7439 126.605L84.809 126.597C84.8007 126.531 84.7923 126.466 84.784 126.401C84.7757 126.336 84.7674 126.271 84.759 126.206C84.5706 125.767 84.1954 125.419 83.5849 125.298C69.7563 123.166 57.8763 114.04 52.3964 101.185C52.1096 100.495 51.4825 100.244 50.962 100.311C50.3847 100.451 49.9059 100.843 49.7939 101.518C47.6618 115.347 38.5272 127.162 25.6808 132.707C25.1202 132.977 24.8449 133.409 24.773 133.881L24.708 133.889C24.7163 133.954 24.7246 134.019 24.733 134.084C24.7413 134.149 24.6845 134.223 24.7579 134.28Z" fill="url(#paint6_linear_2102_2603)"/>
<path d="M321.022 145.08C317.15 144.332 314.908 139.099 316.011 133.392C317.113 127.686 321.144 123.665 325.016 124.414C328.889 125.162 331.131 130.395 330.028 136.102C328.925 141.808 324.894 145.829 321.022 145.08Z" fill="#232323"/>
<path d="M100.985 94.5016C96.2883 95.5907 91.1832 90.8612 89.5782 83.9408C87.9733 77.0203 90.4756 70.5266 95.1719 69.4374C99.8681 68.3483 104.973 73.0778 106.578 79.9983C108.183 86.9187 105.681 93.4125 100.985 94.5016Z" fill="#232323"/>
<path d="M4.00821 189.89C2.35978 185.36 6.43796 179.721 13.1139 177.292C19.7898 174.863 26.5383 176.562 28.1867 181.093C29.8351 185.623 25.7569 191.262 19.081 193.691C12.4051 196.12 5.65663 194.421 4.00821 189.89Z" fill="#232323"/>
<path d="M246.356 16.8003C244.733 12.3378 248.75 6.78306 255.326 4.39023C261.902 1.99741 268.55 3.67158 270.173 8.13412C271.797 12.5967 267.78 18.1514 261.204 20.5442C254.628 22.937 247.98 21.2629 246.356 16.8003Z" fill="#232323"/>
<defs>
<filter id="filter0_f_2102_2603" x="169.461" y="1.25415" width="107.531" height="107.247" filterUnits="userSpaceOnUse" color-interpolation-filters="sRGB">
<feFlood flood-opacity="0" result="BackgroundImageFix"/>
<feBlend mode="normal" in="SourceGraphic" in2="BackgroundImageFix" result="shape"/>
<feGaussianBlur stdDeviation="12" result="effect1_foregroundBlur_2102_2603"/>
</filter>
<filter id="filter1_f_2102_2603" x="302.398" y="160.286" width="100.758" height="100.562" filterUnits="userSpaceOnUse" color-interpolation-filters="sRGB">
<feFlood flood-opacity="0" result="BackgroundImageFix"/>
<feBlend mode="normal" in="SourceGraphic" in2="BackgroundImageFix" result="shape"/>
<feGaussianBlur stdDeviation="12" result="effect1_foregroundBlur_2102_2603"/>
</filter>
<filter id="filter2_f_2102_2603" x="0.710938" y="76.3005" width="108.102" height="107.885" filterUnits="userSpaceOnUse" color-interpolation-filters="sRGB">
<feFlood flood-opacity="0" result="BackgroundImageFix"/>
<feBlend mode="normal" in="SourceGraphic" in2="BackgroundImageFix" result="shape"/>
<feGaussianBlur stdDeviation="12" result="effect1_foregroundBlur_2102_2603"/>
</filter>
<linearGradient id="paint0_linear_2102_2603" x1="187.76" y1="97.4347" x2="243.204" y2="41.9653" gradientUnits="userSpaceOnUse">
<stop stop-color="#CCBBFF"/>
<stop offset="0.473958" stop-color="#7427FF"/>
<stop offset="1" stop-color="#00BAFF"/>
</linearGradient>
<linearGradient id="paint1_linear_2102_2603" x1="211.337" y1="87.2806" x2="194.841" y2="231.054" gradientUnits="userSpaceOnUse">
<stop stop-color="white"/>
<stop offset="1" stop-color="#7000FF"/>
</linearGradient>
<linearGradient id="paint2_linear_2102_2603" x1="228.977" y1="25.258" x2="207.503" y2="136.362" gradientUnits="userSpaceOnUse">
<stop stop-color="white"/>
<stop offset="1" stop-color="#06FFA5"/>
</linearGradient>
<linearGradient id="paint3_linear_2102_2603" x1="367.818" y1="184.411" x2="337.714" y2="236.709" gradientUnits="userSpaceOnUse">
<stop stop-color="white"/>
<stop offset="1" stop-color="#06FFA5"/>
</linearGradient>
<linearGradient id="paint4_linear_2102_2603" x1="367.818" y1="184.411" x2="337.714" y2="236.709" gradientUnits="userSpaceOnUse">
<stop stop-color="white"/>
<stop offset="1" stop-color="#06FFA5"/>
</linearGradient>
<linearGradient id="paint5_linear_2102_2603" x1="50.915" y1="100.317" x2="58.5731" y2="160.173" gradientUnits="userSpaceOnUse">
<stop stop-color="white"/>
<stop offset="1" stop-color="#06FFA5"/>
</linearGradient>
<linearGradient id="paint6_linear_2102_2603" x1="50.915" y1="100.317" x2="58.5731" y2="160.173" gradientUnits="userSpaceOnUse">
<stop stop-color="white"/>
<stop offset="1" stop-color="#06FFA5"/>
</linearGradient>
</defs>
</svg>
