<svg width="406" height="224" viewBox="0 0 406 224" fill="none" xmlns="http://www.w3.org/2000/svg">
<g filter="url(#filter0_f_11384_248967)">
<path d="M211.328 48.5597C211.37 49.0354 211.617 49.484 212.159 49.7892C224.627 56.1404 233.056 68.5251 234.239 82.4489C234.295 83.1946 234.813 83.6286 235.328 83.7282C235.92 83.7758 236.497 83.5534 236.815 82.9468C243.166 70.4793 255.538 62.115 269.475 60.8671C270.092 60.7859 270.488 60.4618 270.704 60.0359L270.769 60.0483C270.781 59.9839 270.794 59.9195 270.806 59.8551C270.818 59.7907 270.831 59.7263 270.843 59.6619C270.802 59.1862 270.554 58.7376 270.012 58.4324C257.545 52.0812 249.116 39.6965 247.932 25.7727C247.876 25.027 247.359 24.5929 246.844 24.4934C246.252 24.4457 245.674 24.6682 245.356 25.2748C239.005 37.7423 226.633 46.1066 212.697 47.3545C212.08 47.4357 211.683 47.7598 211.467 48.1857L211.403 48.1733C211.39 48.2377 211.378 48.3021 211.365 48.3665C211.353 48.4309 211.276 48.4828 211.328 48.5597Z" fill="url(#paint0_linear_11384_248967)"/>
</g>
<g filter="url(#filter1_f_11384_248967)">
<path d="M323.943 179.979C324.202 180.38 324.63 180.661 325.252 180.678C339.243 180.475 352.478 187.494 360.024 199.255C360.422 199.888 361.082 200.03 361.584 199.878C362.13 199.644 362.537 199.178 362.535 198.493C362.332 184.502 369.369 171.33 381.111 163.721C381.619 163.361 381.818 162.889 381.811 162.412L381.873 162.393C381.854 162.33 381.835 162.267 381.816 162.205C381.797 162.142 381.778 162.079 381.759 162.016C381.5 161.615 381.072 161.334 380.45 161.317C366.459 161.52 353.224 154.502 345.678 142.74C345.28 142.107 344.62 141.965 344.118 142.117C343.572 142.351 343.165 142.818 343.168 143.502C343.371 157.493 336.333 170.665 324.591 178.274C324.083 178.634 323.884 179.106 323.892 179.583L323.829 179.602C323.848 179.665 323.867 179.728 323.886 179.791C323.905 179.853 323.861 179.935 323.943 179.979Z" fill="url(#paint1_linear_11384_248967)"/>
</g>
<path d="M323.943 179.979C324.202 180.38 324.63 180.661 325.252 180.678C339.243 180.475 352.478 187.494 360.024 199.255C360.422 199.888 361.082 200.03 361.584 199.878C362.13 199.644 362.537 199.178 362.535 198.493C362.332 184.502 369.369 171.33 381.111 163.721C381.619 163.361 381.818 162.889 381.811 162.412L381.873 162.393C381.854 162.33 381.835 162.267 381.816 162.205C381.797 162.142 381.778 162.079 381.759 162.016C381.5 161.615 381.072 161.334 380.45 161.317C366.459 161.52 353.224 154.502 345.678 142.74C345.28 142.107 344.62 141.965 344.118 142.117C343.572 142.351 343.165 142.818 343.168 143.502C343.371 157.493 336.333 170.665 324.591 178.274C324.083 178.634 323.884 179.106 323.892 179.583L323.829 179.602C323.848 179.665 323.867 179.728 323.886 179.791C323.905 179.853 323.861 179.935 323.943 179.979Z" fill="url(#paint2_linear_11384_248967)"/>
<g filter="url(#filter2_f_11384_248967)">
<path d="M24.8282 94.7237C25.0166 95.1625 25.3919 95.5112 26.0024 95.6315C39.8309 97.7636 51.7109 106.89 57.1909 119.745C57.4776 120.435 58.1048 120.686 58.6253 120.619C59.2025 120.479 59.6814 120.087 59.7933 119.412C61.9255 105.583 71.0601 93.7681 83.9064 88.2231C84.467 87.953 84.7424 87.521 84.8142 87.049L84.8793 87.0406C84.871 86.9756 84.8626 86.9105 84.8543 86.8454C84.846 86.7804 84.8377 86.7153 84.8293 86.6503C84.641 86.2115 84.2657 85.8627 83.6552 85.7425C69.8266 83.6103 57.9466 74.484 52.4667 61.6294C52.1799 60.9387 51.5528 60.6883 51.0323 60.7549C50.4551 60.8948 49.9762 61.2867 49.8642 61.9623C47.7321 75.7909 38.5975 87.6058 25.7511 93.1508C25.1906 93.4209 24.9152 93.8529 24.8433 94.325L24.7783 94.3333C24.7866 94.3984 24.7949 94.4634 24.8033 94.5285C24.8116 94.5935 24.7549 94.6669 24.8282 94.7237Z" fill="url(#paint3_linear_11384_248967)"/>
</g>
<path d="M24.8282 94.7237C25.0166 95.1625 25.3919 95.5112 26.0024 95.6315C39.8309 97.7636 51.7109 106.89 57.1909 119.745C57.4776 120.435 58.1048 120.686 58.6253 120.619C59.2025 120.479 59.6814 120.087 59.7933 119.412C61.9255 105.583 71.0601 93.7681 83.9064 88.2231C84.467 87.953 84.7424 87.521 84.8142 87.049L84.8793 87.0406C84.871 86.9756 84.8626 86.9105 84.8543 86.8454C84.846 86.7804 84.8377 86.7153 84.8293 86.6503C84.641 86.2115 84.2657 85.8627 83.6552 85.7425C69.8266 83.6103 57.9466 74.484 52.4667 61.6294C52.1799 60.9387 51.5528 60.6883 51.0323 60.7549C50.4551 60.8948 49.9762 61.2867 49.8642 61.9623C47.7321 75.7909 38.5975 87.6058 25.7511 93.1508C25.1906 93.4209 24.9152 93.8529 24.8433 94.325L24.7783 94.3333C24.7866 94.3984 24.7949 94.4634 24.8033 94.5285C24.8116 94.5935 24.7549 94.6669 24.8282 94.7237Z" fill="url(#paint4_linear_11384_248967)"/>
<path d="M321.092 105.524C317.22 104.775 314.978 99.542 316.081 93.8357C317.184 88.1295 321.214 84.1086 325.087 84.8571C328.959 85.6055 331.201 90.8387 330.098 96.545C328.995 102.251 324.965 106.272 321.092 105.524Z" fill="#232323"/>
<path d="M300.417 74.0284C293.815 76.9527 286.714 78.904 279.223 79.8272C286.839 75.3059 292.697 68.0949 295.447 59.5764C288.321 63.7533 280.426 66.8223 272.027 68.4392C265.32 61.328 255.754 56.9165 245.154 56.9165C224.794 56.9165 208.291 73.2749 208.291 93.4458C208.291 96.3003 208.625 99.0799 209.254 101.78C178.623 100.243 151.456 85.6809 133.281 63.5836C130.087 68.9832 128.29 75.3059 128.29 81.978C128.29 94.6585 134.783 105.822 144.684 112.399C138.64 112.215 132.951 110.533 127.971 107.838C127.971 107.948 127.971 108.112 127.971 108.267C127.971 125.988 140.681 140.744 157.529 144.103C154.45 144.946 151.196 145.415 147.843 145.415C145.462 145.415 143.142 145.146 140.896 144.742C145.587 159.224 159.196 169.808 175.319 170.122C162.704 179.904 146.815 185.762 129.538 185.762C126.554 185.762 123.634 185.593 120.75 185.243C137.073 195.578 156.456 201.637 177.261 201.637C245.054 201.637 282.143 145.964 282.143 97.6677C282.143 96.0857 282.093 94.5088 282.018 92.9518C289.254 87.8417 295.492 81.3941 300.417 74.0284Z" fill="url(#paint5_linear_11384_248967)"/>
<path d="M101.055 54.9469C96.3587 56.036 91.2535 51.3065 89.6486 44.3861C88.0436 37.4656 90.5459 30.9719 95.2422 29.8827C99.9384 28.7936 105.044 33.5231 106.649 40.4436C108.253 47.364 105.751 53.8578 101.055 54.9469Z" fill="#232323"/>
<path d="M4.07852 150.336C2.43009 145.805 6.50828 140.166 13.1842 137.737C19.8601 135.308 26.6086 137.008 28.257 141.538C29.9054 146.068 25.8273 151.707 19.1513 154.137C12.4754 156.566 5.72695 154.866 4.07852 150.336Z" fill="#232323"/>
<path d="M318.036 47.0235C316.412 42.5609 320.43 37.0062 327.006 34.6134C333.582 32.2206 340.229 33.8947 341.853 38.3573C343.477 42.8198 339.46 48.3745 332.884 50.7674C326.307 53.1602 319.66 51.486 318.036 47.0235Z" fill="#232323"/>
<g style="mix-blend-mode:screen">
<path fill-rule="evenodd" clip-rule="evenodd" d="M212.871 49.9035C212.329 49.5983 212.082 49.1497 212.04 48.674C212.006 48.6227 212.028 48.5826 212.051 48.5424C212.062 48.5223 212.073 48.5022 212.077 48.4808L212.115 48.2876L212.179 48.3C212.395 47.8741 212.792 47.55 213.409 47.4688C227.345 46.2209 239.717 37.8566 246.068 25.3891C246.386 24.7825 246.964 24.56 247.556 24.6077C248.071 24.7072 248.588 25.1413 248.644 25.887C249.828 39.8108 258.257 52.1955 270.724 58.5467C271.266 58.8519 271.514 59.3005 271.555 59.7762L271.518 59.9694L271.481 60.1626L271.416 60.1501C271.2 60.576 270.804 60.9002 270.187 60.9814C256.25 62.2293 243.878 70.5936 237.527 83.0611C237.209 83.6677 236.632 83.8901 236.04 83.8425C235.525 83.7429 235.007 83.3089 234.951 82.5632C233.768 68.6394 225.339 56.2547 212.871 49.9035ZM255.279 140.537L285.374 105.804L315.469 71.0696C316.235 70.2157 315.763 68.8552 314.604 68.6311L314.089 68.5316C286.332 66.9745 260.219 79.0296 243.218 99.5929C241.226 101.947 240.656 105.244 241.691 108.183L252.703 140.039C253.096 141.118 254.512 141.391 255.279 140.537ZM182.193 85.9242L197.177 129.371C197.57 130.449 198.987 130.723 199.689 129.856L221.778 104.398C223.834 102.056 224.521 98.8485 223.562 95.8574C215.448 70.4398 195.708 49.5224 169.37 40.6239L168.855 40.5243C167.76 40.3127 166.815 41.3994 167.144 42.4649L182.193 85.9242Z" fill="url(#paint6_linear_11384_248967)"/>
</g>
<defs>
<filter id="filter0_f_11384_248967" x="187.312" y="0.487061" width="107.531" height="107.247" filterUnits="userSpaceOnUse" color-interpolation-filters="sRGB">
<feFlood flood-opacity="0" result="BackgroundImageFix"/>
<feBlend mode="normal" in="SourceGraphic" in2="BackgroundImageFix" result="shape"/>
<feGaussianBlur stdDeviation="12" result="effect1_foregroundBlur_11384_248967"/>
</filter>
<filter id="filter1_f_11384_248967" x="299.828" y="118.061" width="106.047" height="105.873" filterUnits="userSpaceOnUse" color-interpolation-filters="sRGB">
<feFlood flood-opacity="0" result="BackgroundImageFix"/>
<feBlend mode="normal" in="SourceGraphic" in2="BackgroundImageFix" result="shape"/>
<feGaussianBlur stdDeviation="12" result="effect1_foregroundBlur_11384_248967"/>
</filter>
<filter id="filter2_f_11384_248967" x="0.78125" y="36.7446" width="108.102" height="107.885" filterUnits="userSpaceOnUse" color-interpolation-filters="sRGB">
<feFlood flood-opacity="0" result="BackgroundImageFix"/>
<feBlend mode="normal" in="SourceGraphic" in2="BackgroundImageFix" result="shape"/>
<feGaussianBlur stdDeviation="12" result="effect1_foregroundBlur_11384_248967"/>
</filter>
<linearGradient id="paint0_linear_11384_248967" x1="205.611" y1="96.6676" x2="261.056" y2="41.1982" gradientUnits="userSpaceOnUse">
<stop stop-color="#CCBBFF"/>
<stop offset="0.473958" stop-color="#7427FF"/>
<stop offset="1" stop-color="#00BAFF"/>
</linearGradient>
<linearGradient id="paint1_linear_11384_248967" x1="341.344" y1="225.193" x2="364.485" y2="150.256" gradientUnits="userSpaceOnUse">
<stop stop-color="#CCBBFF"/>
<stop offset="0.473958" stop-color="#7427FF"/>
<stop offset="1" stop-color="#00BAFF"/>
</linearGradient>
<linearGradient id="paint2_linear_11384_248967" x1="341.344" y1="225.193" x2="364.485" y2="150.256" gradientUnits="userSpaceOnUse">
<stop stop-color="#CCBBFF"/>
<stop offset="0.473958" stop-color="#7427FF"/>
<stop offset="1" stop-color="#00BAFF"/>
</linearGradient>
<linearGradient id="paint3_linear_11384_248967" x1="34.4482" y1="142.205" x2="69.7572" y2="72.1751" gradientUnits="userSpaceOnUse">
<stop stop-color="#CCBBFF"/>
<stop offset="0.473958" stop-color="#7427FF"/>
<stop offset="1" stop-color="#00BAFF"/>
</linearGradient>
<linearGradient id="paint4_linear_11384_248967" x1="34.4482" y1="142.205" x2="69.7572" y2="72.1751" gradientUnits="userSpaceOnUse">
<stop stop-color="#CCBBFF"/>
<stop offset="0.473958" stop-color="#7427FF"/>
<stop offset="1" stop-color="#00BAFF"/>
</linearGradient>
<linearGradient id="paint5_linear_11384_248967" x1="182.335" y1="157.66" x2="301.829" y2="52.8924" gradientUnits="userSpaceOnUse">
<stop offset="0.10614" stop-color="#232323"/>
<stop offset="1" stop-color="#7B7B7B"/>
</linearGradient>
<linearGradient id="paint6_linear_11384_248967" x1="247.541" y1="24.6048" x2="226.067" y2="135.706" gradientUnits="userSpaceOnUse">
<stop stop-color="#CCBBFF"/>
<stop offset="0.473958" stop-color="#7427FF"/>
<stop offset="1" stop-color="#00BAFF"/>
</linearGradient>
</defs>
</svg>
