<svg width="24" height="20" viewBox="0 0 24 20" fill="none" xmlns="http://www.w3.org/2000/svg">
<path d="M23.6115 2.85911C22.7631 3.23491 21.8506 3.48565 20.888 3.60428C21.8666 3.02328 22.6195 2.09663 22.9728 1.00196C22.0571 1.53871 21.0425 1.9331 19.9633 2.14088C19.1014 1.22705 17.872 0.660156 16.51 0.660156C13.8935 0.660156 11.7728 2.76228 11.7728 5.35434C11.7728 5.72116 11.8158 6.07835 11.8966 6.42528C7.96039 6.22777 4.46925 4.35651 2.1337 1.51691C1.72328 2.21078 1.49241 3.02328 1.49241 3.88068C1.49241 5.51018 2.32672 6.94472 3.59903 7.78993C2.82243 7.76621 2.09137 7.55009 1.45137 7.2038C1.45137 7.21791 1.45137 7.23907 1.45137 7.25895C1.45137 9.53615 3.08472 11.4324 5.24969 11.864C4.85402 11.9724 4.4359 12.0327 4.00496 12.0327C3.69907 12.0327 3.40087 11.998 3.11229 11.9461C3.7151 13.8071 5.46388 15.1672 7.53586 15.2076C5.9147 16.4646 3.87285 17.2174 1.65274 17.2174C1.26925 17.2174 0.894099 17.1956 0.523438 17.1507C2.62107 18.4788 5.11181 19.2573 7.78532 19.2573C16.4971 19.2573 21.2631 12.1032 21.2631 5.89687C21.2631 5.69358 21.2567 5.49094 21.2471 5.29086C22.177 4.63418 22.9786 3.80565 23.6115 2.85911Z" fill="#03A9F4"/>
</svg>
