<svg width="132" height="116" viewBox="0 0 132 116" fill="none" xmlns="http://www.w3.org/2000/svg">
    <path d="M131.361 13.4441V63.1179H0.640625V13.4441C0.640625 6.22835 6.4969 0.37207 13.7127 0.37207H118.289C125.505 0.37207 131.361 6.22835 131.361 13.4441Z" fill="#636363"/>
    <path d="M131.361 60.5049V102.335C131.361 109.551 125.505 115.407 118.289 115.407H13.7127C6.4969 115.407 0.640625 109.551 0.640625 102.335V60.5049H131.361Z" fill="#474747"/>
    <path d="M123.518 16.059V31.7455H8.48438V16.059C8.48438 11.7453 12.0138 8.21582 16.3276 8.21582H115.675C119.989 8.21582 123.518 11.7453 123.518 16.059Z" fill="url(#paint0_linear_11379_250286)"/>
    <path d="M123.518 29.1294V44.8158H8.48438V29.1294C8.48438 24.7973 11.9955 21.2861 16.3276 21.2861H115.675C120.007 21.2861 123.518 24.7973 123.518 29.1294Z" fill="url(#paint1_linear_11379_250286)"/>
    <path d="M123.518 42.2036V57.89H8.48438V42.2036C8.48438 37.8715 11.9955 34.3604 16.3276 34.3604H115.675C120.007 34.3604 123.518 37.8715 123.518 42.2036Z" fill="url(#paint2_linear_11379_250286)"/>
    <path d="M123.518 55.2608V60.5027H91.4657C87.1781 60.5027 83.2826 62.6727 80.7466 66.0975C77.4263 70.6466 72.0668 73.5748 66.0014 73.5748C59.9359 73.5748 54.5764 70.6466 51.2561 66.0975C48.7201 62.6727 44.8247 60.5027 40.537 60.5027H8.48438V55.2608C8.48438 50.9366 11.9903 47.4307 16.3145 47.4307H115.686C120.012 47.4307 123.518 50.9366 123.518 55.2608Z" fill="url(#paint3_linear_11379_250286)"/>
    <path d="M84.5592 46.6448C84.9219 46.7657 85.1637 47.0075 85.2241 47.3097H85.2846C85.2846 47.3702 85.2846 47.3702 85.2846 47.4306C85.2846 47.4911 85.2846 47.4911 85.2846 47.5515H85.2241C85.1637 47.8538 84.9219 48.0956 84.5592 48.2165C76.036 50.6344 69.3263 57.3441 66.8479 65.8673C66.727 66.2904 66.3644 66.5322 66.0017 66.5322C65.639 66.5322 65.2763 66.2904 65.1554 65.8673C62.677 57.3441 55.9673 50.6344 47.4441 48.2165C47.0814 48.0956 46.8396 47.8538 46.7792 47.5515H46.7188C46.7188 47.4911 46.7188 47.4911 46.7188 47.4306C46.7188 47.3702 46.7188 47.3702 46.7188 47.3097H46.7792C46.8396 47.0075 47.0814 46.7657 47.4441 46.6448C55.9673 44.2269 62.677 37.5172 65.1554 28.994C65.2763 28.5709 65.639 28.3291 66.0017 28.3291C66.3644 28.3291 66.727 28.5709 66.8479 28.994C69.3263 37.4567 76.036 44.1665 84.5592 46.6448Z" fill="white"/>
    <defs>
        <linearGradient id="paint0_linear_11379_250286" x1="66.0014" y1="8.21582" x2="66.0014" y2="31.7455" gradientUnits="userSpaceOnUse">
            <stop stop-color="white"/>
            <stop offset="1" stop-color="#06FFA5"/>
        </linearGradient>
        <linearGradient id="paint1_linear_11379_250286" x1="66.0014" y1="21.2861" x2="66.0014" y2="44.8158" gradientUnits="userSpaceOnUse">
            <stop stop-color="white"/>
            <stop offset="1" stop-color="#00BAFF"/>
        </linearGradient>
        <linearGradient id="paint2_linear_11379_250286" x1="37.1264" y1="59.9111" x2="47.9849" y2="10.2661" gradientUnits="userSpaceOnUse">
            <stop stop-color="#B820FF"/>
            <stop offset="1" stop-color="white"/>
        </linearGradient>
        <linearGradient id="paint3_linear_11379_250286" x1="117.505" y1="30.451" x2="114.28" y2="77.5782" gradientUnits="userSpaceOnUse">
            <stop stop-color="white"/>
            <stop offset="1" stop-color="#FF6DD7"/>
        </linearGradient>
    </defs>
</svg>
