<svg width="154" height="137" viewBox="0 0 154 137" fill="none" xmlns="http://www.w3.org/2000/svg">
<path d="M153.973 16.2344V74.7338H0.0273438V16.2344C0.0273438 7.73661 6.92411 0.839844 15.4219 0.839844H138.579C147.076 0.839844 153.973 7.73661 153.973 16.2344Z" fill="#363636"/>
<path d="M153.973 71.6562V120.919C153.973 129.417 147.076 136.313 138.579 136.313H15.4219C6.92411 136.313 0.0273438 129.417 0.0273438 120.919V71.6562H153.973Z" fill="#4A4A4A"/>
<path d="M144.736 19.3149V37.7884H9.26367V19.3149C9.26367 14.2347 13.4202 10.0781 18.5004 10.0781H135.499C140.579 10.0781 144.736 14.2347 144.736 19.3149Z" fill="url(#paint0_linear_11341_256827)"/>
<path d="M144.736 34.7055V53.179H9.26367V34.7055C9.26367 29.6037 13.3987 25.4688 18.5004 25.4688H135.499C140.601 25.4688 144.736 29.6037 144.736 34.7055Z" fill="url(#paint1_linear_11341_256827)"/>
<path d="M144.736 50.1039V68.5774H9.26367V50.1039C9.26367 45.0022 13.3987 40.8672 18.5004 40.8672H135.499C140.601 40.8672 144.736 45.0022 144.736 50.1039Z" fill="url(#paint2_linear_11341_256827)"/>
<path d="M144.736 65.4831V71.6563H106.988C101.939 71.6563 97.3514 74.2118 94.3649 78.2452C90.4547 83.6025 84.1429 87.0509 76.9998 87.0509C69.8567 87.0509 63.545 83.6025 59.6347 78.2452C56.6482 74.2118 52.0606 71.6563 47.0112 71.6563H9.26367V65.4831C9.26367 60.3905 13.3925 56.2617 18.485 56.2617H135.512C140.607 56.2617 144.736 60.3905 144.736 65.4831Z" fill="url(#paint3_linear_11341_256827)"/>
<g filter="url(#filter0_d_11341_256827)">
<path d="M98.8546 55.3331C99.2818 55.4754 99.5665 55.7602 99.6377 56.1161H99.7089C99.7089 56.1873 99.7089 56.1873 99.7089 56.2585C99.7089 56.3297 99.7089 56.3297 99.7089 56.4009H99.6377C99.5665 56.7568 99.2818 57.0416 98.8546 57.1839C88.8171 60.0315 80.9153 67.9333 77.9966 77.9708C77.8542 78.4691 77.4271 78.7539 77 78.7539C76.5728 78.7539 76.1457 78.4691 76.0033 77.9708C73.0846 67.9333 65.1828 60.0315 55.1453 57.1839C54.7181 57.0416 54.4334 56.7568 54.3622 56.4009H54.291C54.291 56.3297 54.291 56.3297 54.291 56.2585C54.291 56.1873 54.291 56.1873 54.291 56.1161H54.3622C54.4334 55.7602 54.7181 55.4754 55.1453 55.3331C65.1828 52.4856 73.0846 44.5837 76.0033 34.5462C76.1457 34.0479 76.5728 33.7631 77 33.7631C77.4271 33.7631 77.8542 34.0479 77.9966 34.5462C80.9153 44.5125 88.8171 52.4144 98.8546 55.3331Z" fill="white"/>
</g>
<defs>
<filter id="filter0_d_11341_256827" x="20.291" y="9.76172" width="113.418" height="112.992" filterUnits="userSpaceOnUse" color-interpolation-filters="sRGB">
<feFlood flood-opacity="0" result="BackgroundImageFix"/>
<feColorMatrix in="SourceAlpha" type="matrix" values="0 0 0 0 0 0 0 0 0 0 0 0 0 0 0 0 0 0 127 0" result="hardAlpha"/>
<feOffset dy="10"/>
<feGaussianBlur stdDeviation="17"/>
<feComposite in2="hardAlpha" operator="out"/>
<feColorMatrix type="matrix" values="0 0 0 0 0.290196 0 0 0 0 0.290196 0 0 0 0 0.290196 0 0 0 1 0"/>
<feBlend mode="normal" in2="BackgroundImageFix" result="effect1_dropShadow_11341_256827"/>
<feBlend mode="normal" in="SourceGraphic" in2="effect1_dropShadow_11341_256827" result="shape"/>
</filter>
<linearGradient id="paint0_linear_11341_256827" x1="144.736" y1="-15.1918" x2="99.2913" y2="29.7927" gradientUnits="userSpaceOnUse">
<stop stop-color="white"/>
<stop offset="1" stop-color="#06FFA5"/>
</linearGradient>
<linearGradient id="paint1_linear_11341_256827" x1="138.805" y1="0.496736" x2="81.4606" y2="39.3242" gradientUnits="userSpaceOnUse">
<stop stop-color="white"/>
<stop offset="1" stop-color="#00BAFF"/>
</linearGradient>
<linearGradient id="paint2_linear_11341_256827" x1="157.129" y1="14.9259" x2="59.6621" y2="68.5781" gradientUnits="userSpaceOnUse">
<stop stop-color="white"/>
<stop offset="1" stop-color="#FFD653"/>
</linearGradient>
<linearGradient id="paint3_linear_11341_256827" x1="137.654" y1="36.2653" x2="133.856" y2="91.7656" gradientUnits="userSpaceOnUse">
<stop stop-color="white"/>
<stop offset="1" stop-color="#F93701"/>
</linearGradient>
</defs>
</svg>
