<svg version="1.2" xmlns="http://www.w3.org/2000/svg" viewBox="0 0 46 34" width="46" height="34">
	<title>wonder-logo-solid-svg</title>
	<style>
		.s0 { fill: #7427ff } 
	</style>
	<path id="Layer" fill-rule="evenodd" class="s0" d="m31.7 9.5q0 0.2-0.3 0.3c-4 1.1-7.1 4.3-8.3 8.2 0 0.2-0.2 0.3-0.4 0.3-0.1 0-0.3-0.1-0.4-0.3-1.1-3.9-4.3-7.1-8.2-8.2q-0.3-0.1-0.3-0.3h-0.1v-0.1h0.1q0-0.3 0.3-0.3c3.9-1.2 7.1-4.3 8.2-8.3 0.1-0.2 0.3-0.3 0.4-0.3 0.2 0 0.4 0.1 0.4 0.3 1.2 4 4.3 7.1 8.3 8.3q0.3 0 0.3 0.3v0.1zm13.4 0.7l-6.8 11.8-6.8 11.8c-0.2 0.2-0.6 0.2-0.7 0l-5-8.7c-0.5-0.8-0.5-1.8-0.1-2.5 3.8-7 10.7-12 18.9-13.1h0.1c0.4 0 0.6 0.4 0.4 0.7zm-25.3 12.3c0.4 0.8 0.4 1.8-0.1 2.6l-4.9 8.6c-0.2 0.3-0.6 0.3-0.8 0l-13.6-23.5c-0.2-0.3 0.1-0.7 0.4-0.7h0.2c8.1 1.2 15 6.1 18.8 13z"/>
</svg>