<svg width="42" height="32" viewBox="0 0 42 32" fill="none" xmlns="http://www.w3.org/2000/svg">
<path fill-rule="evenodd" clip-rule="evenodd" d="M29.177 8.77635C29.1508 8.9071 29.0462 9.01169 28.8893 9.06399C25.2023 10.1361 22.2998 13.0386 21.2277 16.6995C21.1754 16.8826 21.0185 16.9872 20.8616 16.9872C20.7047 16.9872 20.5478 16.8826 20.4955 16.6995C19.4234 13.0125 16.5208 10.11 12.8338 9.06399C12.6769 9.01169 12.5723 8.9071 12.5462 8.77635H12.52V8.72405V8.67175H12.5462C12.5723 8.54101 12.6769 8.43642 12.8338 8.38412C16.5208 7.33815 19.4234 4.43561 20.4955 0.748587C20.5478 0.565543 20.7047 0.460938 20.8616 0.460938C21.0185 0.460938 21.1754 0.565543 21.2277 0.748587C22.2998 4.43561 25.2023 7.33815 28.8893 8.38412C29.0462 8.43642 29.1508 8.54101 29.177 8.67175H29.2031V8.72405V8.77635H29.177ZM0.675944 8.82812H0.519052C0.205264 8.82812 -0.00393138 9.16808 0.152963 9.42957L6.45489 20.3337L12.7568 31.2379C12.9137 31.4994 13.3059 31.4994 13.4628 31.2379L18.0651 23.2363C18.4835 22.5041 18.5096 21.5889 18.0912 20.8567C14.6134 14.4763 8.20688 9.87409 0.675944 8.82812ZM41.207 8.82812H41.0501C33.5191 9.84794 27.1126 14.4502 23.6086 20.8829C23.1903 21.615 23.2164 22.5302 23.6348 23.2624L28.2632 31.264C28.4201 31.5255 28.8123 31.5255 28.9692 31.264L35.2711 20.3599L41.573 9.45571C41.7299 9.16807 41.5207 8.82812 41.207 8.82812Z" fill="url(#paint0_linear_1310_34429)"/>
<defs>
<linearGradient id="paint0_linear_1310_34429" x1="36.2781" y1="31.4601" x2="35.5824" y2="0.460935" gradientUnits="userSpaceOnUse">
<stop stop-color="#CCBBFF"/>
<stop offset="0.473958" stop-color="#7427FF"/>
<stop offset="1" stop-color="#00BAFF"/>
</linearGradient>
</defs>
</svg>
