<svg width="28" height="25" viewBox="0 0 28 25" fill="none" xmlns="http://www.w3.org/2000/svg">
<mask id="path-1-outside-1_4392_96066" maskUnits="userSpaceOnUse" x="0.800781" y="2.90625" width="26" height="20" fill="black">
<rect fill="white" x="0.800781" y="2.90625" width="26" height="20"/>
<path d="M22.2354 6.07828C22.2242 6.06141 22.2132 6.05014 22.1971 6.03791C21.945 5.84673 19.6684 4.17116 16.9808 3.91768C16.8999 3.91005 16.8229 3.95375 16.7866 4.02642L16.6965 4.20656C16.6391 4.32137 16.7032 4.4597 16.8275 4.492C18.5174 4.93134 19.599 5.49288 20.5058 6.15659C20.6947 6.29483 20.5246 6.55298 20.3123 6.45428C18.5451 5.63239 16.5833 4.98096 13.6226 4.98096C10.6618 4.98096 8.69999 5.63239 6.93278 6.45428C6.72056 6.55298 6.55587 6.30148 6.74553 6.16433C7.7052 5.47039 8.84818 4.87475 10.412 4.48939C10.538 4.45833 10.6046 4.31851 10.5465 4.20238L10.4597 4.02882C10.4228 3.95494 10.3438 3.9112 10.2617 3.92027C7.44855 4.23117 5.28662 5.85266 5.047 6.03834C5.03163 6.05025 5.02107 6.06115 5.01032 6.07735C4.79549 6.4012 2.27165 10.3498 1.80585 17.7949C1.80258 17.8471 1.82034 17.9002 1.85498 17.9393C4.37585 20.7902 8.03886 21.0711 8.68665 21.0986C8.74996 21.1013 8.8088 21.0717 8.84683 21.021L9.5028 20.1465C9.58408 20.0381 9.53653 19.882 9.40968 19.8346C8.44193 19.4723 7.40513 18.9357 6.40939 18.1359C6.22197 17.9854 6.42588 17.7344 6.63674 17.8498C8.29505 18.7577 10.53 19.4895 13.6226 19.4895C16.7151 19.4895 18.9501 18.7577 20.6084 17.8498C20.8192 17.7344 21.0231 17.9854 20.8357 18.1359C19.84 18.9357 18.8032 19.4723 17.8354 19.8346C17.7086 19.882 17.661 20.0381 17.7423 20.1465L18.3983 21.021C18.4363 21.0717 18.4952 21.1013 18.5585 21.0986C19.2063 21.0711 22.8693 20.7902 25.3901 17.9393C25.4248 17.9002 25.4425 17.8471 25.4393 17.7949C24.9739 10.3568 22.4544 6.40866 22.2354 6.07828ZM10.1298 15.728C9.09106 15.728 8.24902 14.7656 8.24902 13.5786C8.24902 12.3916 9.09106 11.4292 10.1298 11.4292C11.1685 11.4292 12.0105 12.3916 12.0105 13.5786C12.0105 14.7656 11.1685 15.728 10.1298 15.728ZM17.1154 15.728C16.0767 15.728 15.2346 14.7656 15.2346 13.5786C15.2346 12.3916 16.0767 11.4292 17.1154 11.4292C18.1541 11.4292 18.9961 12.3916 18.9961 13.5786C18.9961 14.7656 18.1541 15.728 17.1154 15.728Z"/>
</mask>
<path d="M22.2354 6.07828C22.2242 6.06141 22.2132 6.05014 22.1971 6.03791C21.945 5.84673 19.6684 4.17116 16.9808 3.91768C16.8999 3.91005 16.8229 3.95375 16.7866 4.02642L16.6965 4.20656C16.6391 4.32137 16.7032 4.4597 16.8275 4.492C18.5174 4.93134 19.599 5.49288 20.5058 6.15659C20.6947 6.29483 20.5246 6.55298 20.3123 6.45428C18.5451 5.63239 16.5833 4.98096 13.6226 4.98096C10.6618 4.98096 8.69999 5.63239 6.93278 6.45428C6.72056 6.55298 6.55587 6.30148 6.74553 6.16433C7.7052 5.47039 8.84818 4.87475 10.412 4.48939C10.538 4.45833 10.6046 4.31851 10.5465 4.20238L10.4597 4.02882C10.4228 3.95494 10.3438 3.9112 10.2617 3.92027C7.44855 4.23117 5.28662 5.85266 5.047 6.03834C5.03163 6.05025 5.02107 6.06115 5.01032 6.07735C4.79549 6.4012 2.27165 10.3498 1.80585 17.7949C1.80258 17.8471 1.82034 17.9002 1.85498 17.9393C4.37585 20.7902 8.03886 21.0711 8.68665 21.0986C8.74996 21.1013 8.8088 21.0717 8.84683 21.021L9.5028 20.1465C9.58408 20.0381 9.53653 19.882 9.40968 19.8346C8.44193 19.4723 7.40513 18.9357 6.40939 18.1359C6.22197 17.9854 6.42588 17.7344 6.63674 17.8498C8.29505 18.7577 10.53 19.4895 13.6226 19.4895C16.7151 19.4895 18.9501 18.7577 20.6084 17.8498C20.8192 17.7344 21.0231 17.9854 20.8357 18.1359C19.84 18.9357 18.8032 19.4723 17.8354 19.8346C17.7086 19.882 17.661 20.0381 17.7423 20.1465L18.3983 21.021C18.4363 21.0717 18.4952 21.1013 18.5585 21.0986C19.2063 21.0711 22.8693 20.7902 25.3901 17.9393C25.4248 17.9002 25.4425 17.8471 25.4393 17.7949C24.9739 10.3568 22.4544 6.40866 22.2354 6.07828ZM10.1298 15.728C9.09106 15.728 8.24902 14.7656 8.24902 13.5786C8.24902 12.3916 9.09106 11.4292 10.1298 11.4292C11.1685 11.4292 12.0105 12.3916 12.0105 13.5786C12.0105 14.7656 11.1685 15.728 10.1298 15.728ZM17.1154 15.728C16.0767 15.728 15.2346 14.7656 15.2346 13.5786C15.2346 12.3916 16.0767 11.4292 17.1154 11.4292C18.1541 11.4292 18.9961 12.3916 18.9961 13.5786C18.9961 14.7656 18.1541 15.728 17.1154 15.728Z" fill="#84BCFF"/>
<path d="M25.3901 17.9393L24.641 17.2769L25.3901 17.9393ZM25.4393 17.7949L24.4412 17.8574L25.4393 17.7949ZM18.3983 21.021L17.5983 21.621L18.3983 21.021ZM18.5585 21.0986L18.516 20.0995L18.5585 21.0986ZM17.7423 20.1465L16.9424 20.7465L17.7423 20.1465ZM20.6084 17.8498L20.1282 16.9727L20.6084 17.8498ZM20.8357 18.1359L20.2095 17.3563L20.8357 18.1359ZM6.63674 17.8498L7.11694 16.9727L6.63674 17.8498ZM8.68665 21.0986L8.64421 22.0977L8.68665 21.0986ZM8.84683 21.021L8.04687 20.4209L8.84683 21.021ZM1.80585 17.7949L0.807801 17.7325L1.80585 17.7949ZM1.85498 17.9393L2.60411 17.2769L1.85498 17.9393ZM5.047 6.03834L4.43448 5.24788L5.047 6.03834ZM5.01032 6.07735L4.17701 5.52455L5.01032 6.07735ZM10.4597 4.02882L11.3541 3.5816L10.4597 4.02882ZM10.2617 3.92027L10.1518 2.92632L10.2617 3.92027ZM10.412 4.48939L10.6512 5.46035L10.412 4.48939ZM10.5465 4.20238L9.65208 4.6496L10.5465 4.20238ZM20.5058 6.15659L21.0964 5.34964L20.5058 6.15659ZM20.3123 6.45428L20.734 5.54755L20.3123 6.45428ZM16.6965 4.20656L17.591 4.65377L16.6965 4.20656ZM16.8275 4.492L16.5758 5.45983L16.8275 4.492ZM16.7866 4.02642L15.8922 3.57921L16.7866 4.02642ZM6.74553 6.16433L7.33149 6.97467L6.74553 6.16433ZM9.5028 20.1465L10.3028 20.7465L9.5028 20.1465ZM9.40968 19.8346L9.76023 18.898L9.40968 19.8346ZM22.1971 6.03791L22.8014 5.24115L22.1971 6.03791ZM22.2354 6.07828L21.4019 6.63076L22.2354 6.07828ZM22.8014 5.24115C22.5268 5.03294 20.0589 3.20355 17.0747 2.9221L16.8869 4.91326C19.2779 5.13877 21.3631 6.66051 21.5927 6.83466L22.8014 5.24115ZM15.8922 3.57921L15.8021 3.75934L17.591 4.65377L17.681 4.47364L15.8922 3.57921ZM16.5758 5.45983C18.1511 5.86936 19.1163 6.37881 19.9152 6.96355L21.0964 5.34964C20.0817 4.60694 18.8836 3.99331 17.0791 3.52417L16.5758 5.45983ZM20.734 5.54755C18.8649 4.67826 16.7589 3.98096 13.6226 3.98096V5.98096C16.4076 5.98096 18.2253 6.58653 19.8906 7.36102L20.734 5.54755ZM13.6226 3.98096C10.4862 3.98096 8.3802 4.67826 6.51108 5.54755L7.35448 7.36102C9.01977 6.58653 10.8375 5.98096 13.6226 5.98096V3.98096ZM7.33149 6.97467C8.19512 6.35017 9.22164 5.81263 10.6512 5.46035L10.1727 3.51844C8.47471 3.93686 7.21527 4.5906 6.15957 5.354L7.33149 6.97467ZM11.4409 3.75517L11.3541 3.5816L9.56529 4.47603L9.65208 4.6496L11.4409 3.75517ZM10.1518 2.92632C7.0568 3.26838 4.71338 5.03176 4.43448 5.24788L5.65953 6.82879C5.85985 6.67356 7.84029 5.19397 10.3715 4.91422L10.1518 2.92632ZM4.17701 5.52455C3.88638 5.96266 1.28672 10.0777 0.807801 17.7325L2.8039 17.8574C3.25658 10.622 5.7046 6.83975 5.84364 6.63015L4.17701 5.52455ZM1.10584 18.6018C3.9107 21.7738 7.93724 22.0677 8.64421 22.0977L8.72909 20.0995C8.14048 20.0745 4.841 19.8067 2.60411 17.2769L1.10584 18.6018ZM9.64678 21.621L10.3028 20.7465L8.70285 19.5464L8.04687 20.4209L9.64678 21.621ZM9.76023 18.898C8.87673 18.5673 7.93647 18.0798 7.0356 17.3563L5.78318 18.9156C6.8738 19.7915 8.00713 20.3773 9.05914 20.7711L9.76023 18.898ZM6.15654 18.727C7.96051 19.7146 10.3604 20.4895 13.6226 20.4895V18.4895C10.6997 18.4895 8.62959 17.8008 7.11694 16.9727L6.15654 18.727ZM13.6226 20.4895C16.8847 20.4895 19.2846 19.7146 21.0886 18.727L20.1282 16.9727C18.6155 17.8008 16.5455 18.4895 13.6226 18.4895V20.4895ZM20.2095 17.3563C19.3086 18.0798 18.3684 18.5673 17.4849 18.898L18.186 20.7711C19.238 20.3773 20.3713 19.7915 21.4619 18.9156L20.2095 17.3563ZM16.9424 20.7465L17.5983 21.621L19.1982 20.4209L18.5423 19.5464L16.9424 20.7465ZM18.6009 22.0977C19.3079 22.0677 23.3344 21.7738 26.1393 18.6018L24.641 17.2769C22.4041 19.8067 19.1046 20.0745 18.516 20.0995L18.6009 22.0977ZM26.4373 17.7325C25.9589 10.0849 23.3636 5.97043 23.0689 5.5258L21.4019 6.63076C21.5451 6.84689 23.989 10.6288 24.4412 17.8574L26.4373 17.7325ZM10.1298 14.728C9.76462 14.728 9.24902 14.343 9.24902 13.5786H7.24902C7.24902 15.1883 8.4175 16.728 10.1298 16.728V14.728ZM9.24902 13.5786C9.24902 12.8143 9.76462 12.4292 10.1298 12.4292V10.4292C8.4175 10.4292 7.24902 11.9689 7.24902 13.5786H9.24902ZM10.1298 12.4292C10.4949 12.4292 11.0105 12.8143 11.0105 13.5786H13.0105C13.0105 11.9689 11.842 10.4292 10.1298 10.4292V12.4292ZM11.0105 13.5786C11.0105 14.343 10.4949 14.728 10.1298 14.728V16.728C11.842 16.728 13.0105 15.1883 13.0105 13.5786H11.0105ZM17.1154 14.728C16.7502 14.728 16.2346 14.343 16.2346 13.5786H14.2346C14.2346 15.1883 15.4031 16.728 17.1154 16.728V14.728ZM16.2346 13.5786C16.2346 12.8143 16.7502 12.4292 17.1154 12.4292V10.4292C15.4031 10.4292 14.2346 11.9689 14.2346 13.5786H16.2346ZM17.1154 12.4292C17.4805 12.4292 17.9961 12.8143 17.9961 13.5786H19.9961C19.9961 11.9689 18.8276 10.4292 17.1154 10.4292V12.4292ZM17.9961 13.5786C17.9961 14.343 17.4805 14.728 17.1154 14.728V16.728C18.8276 16.728 19.9961 15.1883 19.9961 13.5786H17.9961ZM26.1393 18.6018C26.3538 18.3591 26.4568 18.0438 26.4373 17.7325L24.4412 17.8574C24.4283 17.6505 24.4958 17.4412 24.641 17.2769L26.1393 18.6018ZM17.5983 21.621C17.8224 21.9197 18.189 22.1152 18.6009 22.0977L18.516 20.0995C18.8013 20.0874 19.0502 20.2236 19.1982 20.4209L17.5983 21.621ZM17.4849 18.898C16.7486 19.1736 16.4507 20.0911 16.9424 20.7465L18.5423 19.5464C18.8713 19.9851 18.6686 20.5905 18.186 20.7711L17.4849 18.898ZM21.0886 18.727C20.7524 18.9111 20.3296 18.8155 20.0917 18.5193C19.9762 18.3755 19.8906 18.1652 19.9131 17.9199C19.937 17.6598 20.0723 17.4665 20.2095 17.3563L21.4619 18.9156C21.6929 18.7301 21.8729 18.4489 21.9047 18.103C21.9352 17.7719 21.8205 17.4779 21.6511 17.267C21.3054 16.8365 20.6752 16.6732 20.1282 16.9727L21.0886 18.727ZM7.0356 17.3563C7.17283 17.4665 7.30808 17.6598 7.33199 17.9199C7.35455 18.1652 7.26891 18.3755 7.15343 18.5193C6.91556 18.8155 6.49274 18.9111 6.15654 18.727L7.11694 16.9727C6.56989 16.6732 5.93968 16.8365 5.594 17.267C5.4246 17.478 5.30995 17.7719 5.3404 18.1031C5.3722 18.4489 5.55224 18.7301 5.78318 18.9156L7.0356 17.3563ZM8.64421 22.0977C9.05614 22.1152 9.42273 21.9197 9.64678 21.621L8.04687 20.4209C8.19487 20.2236 8.44379 20.0874 8.72909 20.0995L8.64421 22.0977ZM0.807801 17.7325C0.788327 18.0438 0.891311 18.3591 1.10584 18.6018L2.60411 17.2769C2.74936 17.4412 2.81684 17.6505 2.8039 17.8574L0.807801 17.7325ZM4.43448 5.24788C4.34318 5.31864 4.25462 5.40757 4.17701 5.52455L5.84364 6.63015C5.82143 6.66364 5.79165 6.70301 5.75325 6.74359C5.7157 6.78327 5.68165 6.81164 5.65953 6.82879L4.43448 5.24788ZM11.3541 3.5816C11.1329 3.13915 10.6567 2.87052 10.1518 2.92632L10.3715 4.91422C10.0308 4.95187 9.71265 4.77074 9.56529 4.47603L11.3541 3.5816ZM10.6512 5.46035C11.3843 5.27969 11.7928 4.45891 11.4409 3.75517L9.65208 4.6496C9.41633 4.17811 9.69175 3.63696 10.1727 3.51844L10.6512 5.46035ZM19.9152 6.96355C19.7763 6.86187 19.6413 6.68573 19.5998 6.44604C19.5603 6.21803 19.6186 6.00595 19.7226 5.84688C19.9439 5.50856 20.381 5.38335 20.734 5.54755L19.8906 7.36102C20.4559 7.62391 21.0841 7.41897 21.3963 6.94169C21.5458 6.71315 21.6245 6.41678 21.5704 6.10457C21.5143 5.78068 21.3298 5.52043 21.0964 5.34964L19.9152 6.96355ZM15.8021 3.75934C15.4557 4.45223 15.8463 5.27016 16.5758 5.45983L17.0791 3.52417C17.5602 3.64925 17.8226 4.19051 17.591 4.65377L15.8021 3.75934ZM17.0747 2.9221C16.5738 2.87486 16.1091 3.14535 15.8922 3.57921L17.681 4.47364C17.5368 4.76214 17.226 4.94524 16.8869 4.91326L17.0747 2.9221ZM6.51108 5.54755C6.84572 5.39191 7.29308 5.49303 7.5269 5.85276C7.63568 6.02012 7.69112 6.23954 7.64708 6.46949C7.60129 6.70855 7.46439 6.87857 7.33149 6.97467L6.15957 5.354C5.93185 5.51866 5.74441 5.77155 5.68279 6.09325C5.62291 6.40585 5.69723 6.70769 5.85001 6.94273C6.17181 7.43782 6.80762 7.61535 7.35448 7.36102L6.51108 5.54755ZM10.3028 20.7465C10.7944 20.0911 10.4965 19.1736 9.76023 18.898L9.05914 20.7711C8.57653 20.5905 8.37377 19.9851 8.70285 19.5464L10.3028 20.7465ZM21.5927 6.83466C21.5699 6.8173 21.5345 6.78837 21.4955 6.74761C21.4556 6.70591 21.4248 6.6653 21.4019 6.63076L23.0689 5.5258C22.9887 5.40468 22.8964 5.31327 22.8014 5.24115L21.5927 6.83466Z" fill="black" mask="url(#path-1-outside-1_4392_96066)"/>
</svg>
