<svg width="31" height="31" viewBox="0 0 31 31" fill="none" xmlns="http://www.w3.org/2000/svg">
<g clip-path="url(#clip0_2323_112357)">
<rect x="0.715332" y="0.335938" width="30" height="30" rx="4" fill="#C1B6F6"/>
<path d="M15.3204 11.7962C15.4252 11.9017 15.5673 11.9609 15.7154 11.9609C15.8636 11.9609 16.0057 11.9017 16.1105 11.7962C16.2153 11.6907 16.2741 11.5476 16.2741 11.3984C16.2741 11.2493 16.2153 11.1062 16.1105 11.0007C16.0057 10.8952 15.8636 10.8359 15.7154 10.8359C15.5673 10.8359 15.4252 10.8952 15.3204 11.0007C15.2156 11.1062 15.1567 11.2493 15.1567 11.3984C15.1567 11.5476 15.2156 11.6907 15.3204 11.7962Z" fill="black"/>
<path d="M15.3204 15.7337C15.4252 15.8392 15.5673 15.8984 15.7154 15.8984C15.8636 15.8984 16.0057 15.8392 16.1105 15.7337C16.2153 15.6282 16.2741 15.4851 16.2741 15.3359C16.2741 15.1868 16.2153 15.0437 16.1105 14.9382C16.0057 14.8327 15.8636 14.7734 15.7154 14.7734C15.5673 14.7734 15.4252 14.8327 15.3204 14.9382C15.2156 15.0437 15.1567 15.1868 15.1567 15.3359C15.1567 15.4851 15.2156 15.6282 15.3204 15.7337Z" fill="black"/>
<path d="M15.3204 19.6712C15.4252 19.7767 15.5673 19.8359 15.7154 19.8359C15.8636 19.8359 16.0057 19.7767 16.1105 19.6712C16.2153 19.5657 16.2741 19.4226 16.2741 19.2734C16.2741 19.1243 16.2153 18.9812 16.1105 18.8757C16.0057 18.7702 15.8636 18.7109 15.7154 18.7109C15.5673 18.7109 15.4252 18.7702 15.3204 18.8757C15.2156 18.9812 15.1567 19.1243 15.1567 19.2734C15.1567 19.4226 15.2156 19.5657 15.3204 19.6712Z" fill="black"/>
<path d="M15.7154 11.3984V11.4041M15.7154 15.3359V15.3416M15.7154 19.2734V19.2791M15.7154 11.9609C15.5673 11.9609 15.4252 11.9017 15.3204 11.7962C15.2156 11.6907 15.1567 11.5476 15.1567 11.3984C15.1567 11.2493 15.2156 11.1062 15.3204 11.0007C15.4252 10.8952 15.5673 10.8359 15.7154 10.8359C15.8636 10.8359 16.0057 10.8952 16.1105 11.0007C16.2153 11.1062 16.2741 11.2493 16.2741 11.3984C16.2741 11.5476 16.2153 11.6907 16.1105 11.7962C16.0057 11.9017 15.8636 11.9609 15.7154 11.9609ZM15.7154 15.8984C15.5673 15.8984 15.4252 15.8392 15.3204 15.7337C15.2156 15.6282 15.1567 15.4851 15.1567 15.3359C15.1567 15.1868 15.2156 15.0437 15.3204 14.9382C15.4252 14.8327 15.5673 14.7734 15.7154 14.7734C15.8636 14.7734 16.0057 14.8327 16.1105 14.9382C16.2153 15.0437 16.2741 15.1868 16.2741 15.3359C16.2741 15.4851 16.2153 15.6282 16.1105 15.7337C16.0057 15.8392 15.8636 15.8984 15.7154 15.8984ZM15.7154 19.8359C15.5673 19.8359 15.4252 19.7767 15.3204 19.6712C15.2156 19.5657 15.1567 19.4226 15.1567 19.2734C15.1567 19.1243 15.2156 18.9812 15.3204 18.8757C15.4252 18.7702 15.5673 18.7109 15.7154 18.7109C15.8636 18.7109 16.0057 18.7702 16.1105 18.8757C16.2153 18.9812 16.2741 19.1243 16.2741 19.2734C16.2741 19.4226 16.2153 19.5657 16.1105 19.6712C16.0057 19.7767 15.8636 19.8359 15.7154 19.8359Z" stroke="black" stroke-linecap="round" stroke-linejoin="round"/>
</g>
<defs>
<clipPath id="clip0_2323_112357">
<rect x="0.715332" y="0.335938" width="30" height="30" rx="4" fill="white"/>
</clipPath>
</defs>
</svg>
