<svg width="436" height="121" viewBox="0 0 436 121" fill="none" xmlns="http://www.w3.org/2000/svg">
<g clip-path="url(#clip0_7138_115044)">
<rect width="436" height="120" transform="translate(0 0.71875)" fill="#2A8D5C"/>
<g clip-path="url(#clip1_7138_115044)">
<rect width="550" height="120" transform="translate(-57 0.71875)" fill="#84BCFF"/>
<path d="M365.003 -9.75661L431.742 -7.9913L395.683 -65.3241L440.435 -38.8643L448.145 -102.034L475.872 -70.3322L511.99 -112.631L532.584 -65.8473L574.565 -95.0104L572.497 -44.3825L623.498 -52.6549L591.933 -5.33651L634.441 9.97217L607.314 35.4865L646.271 69.4477L571.822 66.0781L610.194 120.472L571.685 98.4577L562.35 178.03L536.723 122.123L510.52 182.898L478.696 125.519L436.71 154.702L438.782 104.054L387.776 112.346L424.22 79.062L381.714 39.8813L403.966 24.1852L365.003 -9.75661Z" fill="#9DCAFF"/>
<path d="M152.096 181.384L218.834 183.149L182.776 125.817L227.528 152.276L235.238 89.1067L262.965 120.808L299.083 78.5092L319.677 125.293L361.658 96.1302L359.59 146.758L410.591 138.486L379.025 185.804L421.534 201.113L394.407 226.627L433.364 260.588L358.915 257.219L397.287 311.613L358.778 289.598L349.443 369.17L323.815 313.263L297.613 374.039L265.789 316.66L223.802 345.842L225.875 295.195L174.869 303.487L211.312 270.203L168.807 231.022L191.059 215.326L152.096 181.384Z" fill="#9DCAFF"/>
<path d="M-35.3297 43.4791C-42.9972 50.6578 -46.3654 60.5588 -48.514 70.1028C-51.4801 83.2836 -52.6343 97.0562 -48.2187 109.408C-43.8031 121.759 -32.9455 132.447 -18.6207 134.559C-1.95693 137.013 15.5876 127.414 26.2375 114.641C36.8874 101.868 42.0697 86.3861 47.0146 71.3015C48.2602 79.656 49.7876 88.118 53.962 95.4809C58.1363 102.844 65.3861 109.064 74.5765 110.454C84.755 111.995 95.7292 107.28 103.118 100.119C110.505 92.954 114.763 83.6762 117.482 74.3968C121.085 62.1033 122.281 49.3857 120.99 37.0397C131.431 54.5359 147.072 89.1511 175.732 97.2579C199.177 103.887 231.088 86.5098 246.528 64.4382C257.52 48.7236 259.538 24.0859 256.331 2.66017C254.597 -8.93022 247.576 -29.0043 241.823 -39.1635C236.066 -49.3213 226.529 -57.8405 214.399 -61.3641C194.611 -67.1146 170.996 -58.3574 156.243 -43.5788C141.49 -28.8002 134.432 -9.15066 131.657 10.0283C125.708 -1.1585 117.913 -13.6079 104.042 -15.3157C96.5118 -16.2433 88.5628 -13.5966 82.0981 -9.4137C71.0202 -2.25051 63.8502 9.10623 60.1819 20.7464C56.5137 32.3866 55.9944 44.4233 55.7462 56.306C51.9259 35.0558 38.7864 16.8009 15.8351 11.4312C12.5808 10.6679 5.49184 12.3588 2.56623 14.1598C0.774485 15.2638 -2.77317 18.8217 -3.52011 20.6339C-6.38524 27.5971 -2.79601 32.073 2.27027 37.1158C-10.1758 33.4202 -24.8629 33.6748 -35.3371 43.4821L-35.3297 43.4791Z" fill="#9DCAFF"/>
<path d="M-65.2378 34.9157L-17.7315 23.5833C-13.6953 22.6205 -9.63699 25.0905 -8.66772 29.0998L3.61819 79.9199C4.58746 83.9292 2.10087 87.9605 -1.93534 88.9233L-34.8243 96.7688C-38.8605 97.7316 -42.9188 95.2616 -43.8881 91.2523L-56.174 40.4322C-57.1433 36.4229 -61.2016 33.9529 -65.2378 34.9157Z" fill="white"/>
<path d="M-34.8255 96.9834C-34.8255 96.9834 4.99028 87.4855 9.02649 86.5227C13.0627 85.5599 15.5493 81.5286 14.58 77.5192L13.5645 73.3184C13.3983 72.6312 12.7062 72.2072 12.0186 72.3712L-30.5883 82.5349L-29.2719 87.9799C-28.3027 91.9892 -30.7893 96.0205 -34.8255 96.9834Z" fill="#AF9EFF"/>
<mask id="path-6-outside-1_7138_115044" maskUnits="userSpaceOnUse" x="-73.1992" y="21.3789" width="90" height="77" fill="black">
<rect fill="white" x="-73.1992" y="21.3789" width="90" height="77"/>
<path fill-rule="evenodd" clip-rule="evenodd" d="M-17.7258 23.587L-65.232 34.9194C-65.1773 34.9063 -65.1227 34.8939 -65.0681 34.8821L-65.2326 34.9214C-69.2688 35.8842 -71.7554 39.9155 -70.7861 43.9248L-70.4569 45.2866C-69.6694 48.5441 -66.3884 50.5544 -63.1285 49.7768L-54.4128 47.6977L-43.8824 91.256C-42.9132 95.2653 -38.8548 97.7353 -34.8186 96.7725L-34.566 96.7122C-34.6481 96.7347 -34.7308 96.7559 -34.8142 96.7758L9.03777 86.3151C13.074 85.3523 15.5606 81.321 14.5913 77.3117L13.5757 73.1109C13.4096 72.4237 12.7175 71.9997 12.0299 72.1637L2.30852 74.4827L-8.66204 29.1035C-9.63131 25.0942 -13.6896 22.6242 -17.7258 23.587Z"/>
</mask>
<path d="M-65.232 34.9194L-64.935 36.1644L-65.529 33.6743L-65.232 34.9194ZM-17.7258 23.587L-17.4288 24.8321L-17.4288 24.8321L-17.7258 23.587ZM-65.0681 34.8821L-65.3379 33.6309L-64.7711 36.1272L-65.0681 34.8821ZM-65.2326 34.9214L-65.5296 33.6763L-65.5296 33.6763L-65.2326 34.9214ZM-70.7861 43.9248L-69.542 43.6241L-69.542 43.6241L-70.7861 43.9248ZM-70.4569 45.2866L-71.7011 45.5874L-71.7011 45.5874L-70.4569 45.2866ZM-63.1285 49.7768L-63.4255 48.5318L-63.4255 48.5318L-63.1285 49.7768ZM-54.4128 47.6977L-54.7098 46.4527L-53.4685 46.1566L-53.1686 47.3969L-54.4128 47.6977ZM-43.8824 91.256L-42.6383 90.9552L-42.6383 90.9552L-43.8824 91.256ZM-34.8186 96.7725L-34.5216 98.0176L-34.5216 98.0176L-34.8186 96.7725ZM-34.566 96.7122L-34.863 95.4672L-34.2277 97.9467L-34.566 96.7122ZM-34.8142 96.7758L-34.5172 98.0209L-35.1112 95.5308L-34.8142 96.7758ZM9.03777 86.3151L8.74077 85.0701L8.74077 85.0701L9.03777 86.3151ZM14.5913 77.3117L13.3471 77.6125L13.3471 77.6125L14.5913 77.3117ZM13.5757 73.1109L14.8199 72.8101L14.8199 72.8101L13.5757 73.1109ZM12.0299 72.1637L12.3269 73.4088L12.3269 73.4088L12.0299 72.1637ZM2.30852 74.4827L2.60552 75.7278L1.36423 76.0239L1.06436 74.7835L2.30852 74.4827ZM-8.66204 29.1035L-7.41788 28.8028L-7.41788 28.8028L-8.66204 29.1035ZM-65.529 33.6743L-18.0228 22.3419L-17.4288 24.8321L-64.935 36.1644L-65.529 33.6743ZM-64.7983 36.1334C-64.8439 36.1432 -64.8894 36.1536 -64.935 36.1644L-65.5289 33.6743C-65.4653 33.6591 -65.4016 33.6446 -65.3379 33.6309L-64.7983 36.1334ZM-65.5296 33.6763L-65.3651 33.6371L-64.7711 36.1272L-64.9356 36.1665L-65.5296 33.6763ZM-72.0303 44.2256C-73.1677 39.5207 -70.2479 34.8019 -65.5296 33.6763L-64.9356 36.1665C-68.2897 36.9666 -70.3431 40.3103 -69.542 43.6241L-72.0303 44.2256ZM-71.7011 45.5874L-72.0303 44.2256L-69.542 43.6241L-69.2128 44.9858L-71.7011 45.5874ZM-62.8315 51.0219C-66.7775 51.9632 -70.7478 49.5305 -71.7011 45.5874L-69.2128 44.9858C-68.591 47.5577 -65.9992 49.1457 -63.4255 48.5318L-62.8315 51.0219ZM-54.1158 48.9428L-62.8315 51.0219L-63.4255 48.5318L-54.7098 46.4527L-54.1158 48.9428ZM-45.1266 91.5567L-55.6569 47.9985L-53.1686 47.3969L-42.6383 90.9552L-45.1266 91.5567ZM-34.5216 98.0176C-39.237 99.1424 -43.9899 96.2587 -45.1266 91.5567L-42.6383 90.9552C-41.8364 94.2719 -38.4727 96.3282 -35.1156 95.5274L-34.5216 98.0176ZM-34.269 97.9573L-34.5216 98.0176L-35.1157 95.5274L-34.863 95.4672L-34.269 97.9573ZM-34.2277 97.9467C-34.3234 97.973 -34.4199 97.9977 -34.5172 98.0209L-35.1112 95.5308C-35.0417 95.5142 -34.9727 95.4965 -34.9043 95.4778L-34.2277 97.9467ZM-35.1112 95.5308L8.74077 85.0701L9.33478 87.5602L-34.5172 98.0209L-35.1112 95.5308ZM8.74077 85.0701C12.0949 84.27 14.1482 80.9262 13.3471 77.6125L15.8355 77.0109C16.9729 81.7159 14.0531 86.4347 9.33478 87.5602L8.74077 85.0701ZM13.3471 77.6125L12.3316 73.4116L14.8199 72.8101L15.8355 77.0109L13.3471 77.6125ZM12.3316 73.4116C12.3312 73.41 12.3309 73.4097 12.3312 73.4101C12.3313 73.4105 12.3316 73.4109 12.3318 73.4111C12.332 73.4115 12.3314 73.4106 12.3297 73.4095C12.3279 73.4084 12.3268 73.4083 12.3273 73.4084C12.3276 73.4084 12.328 73.4085 12.3285 73.4084C12.3289 73.4084 12.3285 73.4084 12.3269 73.4088L11.7329 70.9186C13.1067 70.5909 14.488 71.4373 14.8199 72.8101L12.3316 73.4116ZM12.3269 73.4088L2.60552 75.7278L2.01151 73.2376L11.7329 70.9186L12.3269 73.4088ZM-7.41788 28.8028L3.55268 74.1819L1.06436 74.7835L-9.9062 29.4043L-7.41788 28.8028ZM-18.0228 22.3419C-13.3074 21.2171 -8.55459 24.1008 -7.41788 28.8028L-9.9062 29.4043C-10.708 26.0876 -14.0718 24.0313 -17.4288 24.8321L-18.0228 22.3419Z" fill="black" mask="url(#path-6-outside-1_7138_115044)"/>
<path d="M-14.4291 38.7548L-13.8969 39.5505L-13.365 38.7547C-11.4206 35.8459 -8.09382 33.9252 -4.3137 33.9252C1.68777 33.9252 6.54634 38.7575 6.54634 44.7086C6.54634 48.9561 3.43538 53.3111 -0.533199 57.1045C-4.46894 60.8665 -9.09848 63.9359 -11.8426 65.6149C-13.1137 66.3926 -14.6763 66.39 -15.9455 65.6085C-18.6886 63.9194 -23.3198 60.8331 -27.2575 57.0656C-31.229 53.2659 -34.3405 48.9181 -34.3405 44.7086C-34.3405 38.7575 -29.4819 33.9252 -23.4804 33.9252C-19.7004 33.9252 -16.3745 35.8458 -14.4291 38.7548Z" fill="#F8AFDB" stroke="black" stroke-width="1.28"/>
<path d="M77.6724 45.5161L59.8218 49.7743C56.5619 50.5519 53.2808 48.5416 52.4933 45.2841L52.1641 43.9223C51.1948 39.913 53.6814 35.8817 57.7176 34.9189L74.1621 30.9961L77.6724 45.5161Z" fill="#AF9EFF"/>
<path d="M57.7241 34.9157L105.23 23.5833C109.267 22.6205 113.325 25.0905 114.294 29.0998L126.58 79.9199C127.549 83.9292 125.063 87.9605 121.027 88.9233L88.1376 96.7688C84.1014 97.7316 80.0431 95.2616 79.0738 91.2523L66.7879 40.4322C65.8186 36.4229 61.7603 33.9529 57.7241 34.9157Z" fill="white"/>
<path d="M88.1364 96.9834C88.1364 96.9834 127.952 87.4855 131.988 86.5227C136.025 85.5599 138.511 81.5286 137.542 77.5192L136.526 73.3184C136.36 72.6312 135.668 72.2072 134.981 72.3712L92.3736 82.5349L93.69 87.9799C94.6592 91.9892 92.1726 96.0205 88.1364 96.9834Z" fill="#AF9EFF"/>
<mask id="path-12-outside-2_7138_115044" maskUnits="userSpaceOnUse" x="49.7627" y="21.3789" width="90" height="77" fill="black">
<rect fill="white" x="49.7627" y="21.3789" width="90" height="77"/>
<path fill-rule="evenodd" clip-rule="evenodd" d="M57.7298 34.9194L105.236 23.587C109.272 22.6242 113.331 25.0942 114.3 29.1035L125.27 74.4827L134.992 72.1637C135.679 71.9997 136.372 72.4237 136.538 73.1109L137.553 77.3117C138.522 81.321 136.036 85.3523 132 86.3151L88.1477 96.7758C88.2311 96.7559 88.3138 96.7347 88.3959 96.7122L88.1433 96.7725C84.1071 97.7353 80.0488 95.2653 79.0795 91.256L68.5491 47.6977L59.8334 49.7768C56.5736 50.5544 53.2925 48.5441 52.505 45.2866L52.1758 43.9248C51.2065 39.9155 53.6931 35.8842 57.7293 34.9214L57.8937 34.8822C57.8391 34.8939 57.7844 34.9064 57.7298 34.9194Z"/>
</mask>
<path d="M105.236 23.587L104.939 22.3419L104.939 22.3419L105.236 23.587ZM57.7298 34.9194L58.0268 36.1645L57.4328 33.6743L57.7298 34.9194ZM114.3 29.1035L115.544 28.8028L115.544 28.8028L114.3 29.1035ZM125.27 74.4827L125.567 75.7278L124.326 76.0239L124.026 74.7835L125.27 74.4827ZM134.992 72.1637L135.289 73.4088L135.289 73.4088L134.992 72.1637ZM136.538 73.1109L137.782 72.8101L137.782 72.8101L136.538 73.1109ZM137.553 77.3117L136.309 77.6125L136.309 77.6125L137.553 77.3117ZM132 86.3151L131.703 85.0701L131.703 85.0701L132 86.3151ZM88.1477 96.7758L88.4447 98.0209L87.8507 95.5308L88.1477 96.7758ZM88.3959 96.7122L88.0989 95.4672L88.7342 97.9467L88.3959 96.7122ZM88.1433 96.7725L88.4403 98.0176L88.4403 98.0176L88.1433 96.7725ZM79.0795 91.256L77.8353 91.5567L77.8353 91.5567L79.0795 91.256ZM68.5491 47.6977L68.2521 46.4527L69.4934 46.1566L69.7933 47.3969L68.5491 47.6977ZM59.8334 49.7768L59.5364 48.5318L59.5364 48.5318L59.8334 49.7768ZM52.505 45.2866L53.7491 44.9858L53.7491 44.9858L52.505 45.2866ZM52.1758 43.9248L50.9316 44.2256L50.9316 44.2256L52.1758 43.9248ZM57.7293 34.9214L58.0263 36.1665L58.0263 36.1665L57.7293 34.9214ZM57.8937 34.8822L57.624 33.6309L58.1907 36.1272L57.8937 34.8822ZM105.533 24.8321L58.0268 36.1645L57.4328 33.6743L104.939 22.3419L105.533 24.8321ZM113.056 29.4043C112.254 26.0876 108.89 24.0313 105.533 24.8321L104.939 22.3419C109.654 21.2171 114.407 24.1008 115.544 28.8028L113.056 29.4043ZM124.026 74.7835L113.056 29.4043L115.544 28.8028L126.515 74.1819L124.026 74.7835ZM135.289 73.4088L125.567 75.7278L124.973 73.2376L134.695 70.9186L135.289 73.4088ZM135.293 73.4116C135.293 73.41 135.293 73.4097 135.293 73.4101C135.293 73.4105 135.293 73.4109 135.294 73.4111C135.294 73.4115 135.293 73.4106 135.292 73.4095C135.29 73.4084 135.289 73.4083 135.289 73.4084C135.289 73.4084 135.29 73.4085 135.29 73.4084C135.291 73.4084 135.29 73.4084 135.289 73.4088L134.695 70.9186C136.069 70.5909 137.45 71.4373 137.782 72.8101L135.293 73.4116ZM136.309 77.6125L135.293 73.4116L137.782 72.8101L138.797 77.0109L136.309 77.6125ZM131.703 85.0701C135.057 84.27 137.11 80.9262 136.309 77.6125L138.797 77.0109C139.935 81.7159 137.015 86.4347 132.297 87.5602L131.703 85.0701ZM87.8507 95.5308L131.703 85.0701L132.297 87.5602L88.4447 98.0209L87.8507 95.5308ZM88.7342 97.9467C88.6385 97.973 88.542 97.9977 88.4447 98.0209L87.8508 95.5308C87.9202 95.5142 87.9892 95.4965 88.0576 95.4778L88.7342 97.9467ZM87.8463 95.5274L88.0989 95.4672L88.6929 97.9573L88.4403 98.0176L87.8463 95.5274ZM80.3236 90.9552C81.1255 94.2719 84.4893 96.3282 87.8463 95.5274L88.4403 98.0176C83.7249 99.1424 78.972 96.2587 77.8353 91.5567L80.3236 90.9552ZM69.7933 47.3969L80.3236 90.9552L77.8353 91.5567L67.305 47.9985L69.7933 47.3969ZM59.5364 48.5318L68.2521 46.4527L68.8461 48.9428L60.1304 51.0219L59.5364 48.5318ZM53.7491 44.9858C54.3709 47.5577 56.9627 49.1457 59.5364 48.5318L60.1304 51.0219C56.1844 51.9632 52.2141 49.5305 51.2608 45.5874L53.7491 44.9858ZM53.4199 43.6241L53.7491 44.9858L51.2608 45.5874L50.9316 44.2256L53.4199 43.6241ZM58.0263 36.1665C54.6722 36.9666 52.6188 40.3103 53.4199 43.6241L50.9316 44.2256C49.7942 39.5207 52.714 34.8019 57.4323 33.6763L58.0263 36.1665ZM58.1907 36.1272L58.0263 36.1665L57.4323 33.6763L57.5967 33.6371L58.1907 36.1272ZM57.4328 33.6743C57.4965 33.6591 57.5602 33.6447 57.624 33.6309L58.1635 36.1334C58.118 36.1432 58.0724 36.1536 58.0268 36.1645L57.4328 33.6743Z" fill="black" mask="url(#path-12-outside-2_7138_115044)"/>
<path fill-rule="evenodd" clip-rule="evenodd" d="M97.9119 36.9576C98.1188 37.4686 97.8694 38.0495 97.3549 38.2549C96.5564 38.5738 95.8328 39.0476 95.2032 39.673C94.5245 40.3471 94.017 41.1481 93.6949 42.0363C93.507 42.5545 92.9318 42.8233 92.4101 42.6367C91.8885 42.45 91.6179 41.8787 91.8058 41.3605C92.2267 40.1996 92.8931 39.1469 93.7833 38.2626C94.6021 37.4493 95.5532 36.8247 96.6059 36.4043C97.1204 36.1988 97.7051 36.4466 97.9119 36.9576Z" fill="white"/>
<mask id="path-15-outside-3_7138_115044" maskUnits="userSpaceOnUse" x="91.0283" y="29" width="39" height="39" fill="black">
<rect fill="white" x="91.0283" y="29" width="39" height="39"/>
<path fill-rule="evenodd" clip-rule="evenodd" d="M93.0283 44.6221H108.595V44.6227H94.9742V64.0802C94.9742 65.1503 95.8498 66.0259 96.92 66.0259H124.16C125.231 66.0259 126.106 65.1503 126.106 64.0802V44.6227H112.487V44.6221H128.052V38.7849C128.052 37.7147 127.176 36.8391 126.106 36.8391H112.485V36.8372H112.487L115.975 33.3487C116.842 32.482 116.228 31 115.003 31C114.638 31 114.288 31.145 114.03 31.403L110.54 34.8924L107.051 31.403C106.793 31.145 106.443 31 106.078 31C104.852 31 104.238 32.482 105.105 33.3487L108.594 36.8372V36.8391H94.9741C93.9039 36.8391 93.0283 37.7147 93.0283 38.7849V44.6221Z"/>
</mask>
<path fill-rule="evenodd" clip-rule="evenodd" d="M93.0283 44.6221H108.595V44.6227H94.9742V64.0802C94.9742 65.1503 95.8498 66.0259 96.92 66.0259H124.16C125.231 66.0259 126.106 65.1503 126.106 64.0802V44.6227H112.487V44.6221H128.052V38.7849C128.052 37.7147 127.176 36.8391 126.106 36.8391H112.485V36.8372H112.487L115.975 33.3487C116.842 32.482 116.228 31 115.003 31C114.638 31 114.288 31.145 114.03 31.403L110.54 34.8924L107.051 31.403C106.793 31.145 106.443 31 106.078 31C104.852 31 104.238 32.482 105.105 33.3487L108.594 36.8372V36.8391H94.9741C93.9039 36.8391 93.0283 37.7147 93.0283 38.7849V44.6221Z" fill="white"/>
<path d="M108.595 44.6221H109.87C109.87 43.9185 109.299 43.348 108.595 43.348V44.6221ZM93.0283 44.6221H91.7542C91.7542 45.3258 92.3247 45.8962 93.0283 45.8962V44.6221ZM108.595 44.6227V45.8968C109.299 45.8968 109.87 45.3263 109.87 44.6227H108.595ZM94.9742 44.6227V43.3486C94.2706 43.3486 93.7001 43.919 93.7001 44.6227H94.9742ZM126.106 44.6227H127.38C127.38 43.919 126.81 43.3486 126.106 43.3486V44.6227ZM112.487 44.6227H111.213C111.213 45.3263 111.783 45.8968 112.487 45.8968V44.6227ZM112.487 44.6221V43.348C111.783 43.348 111.213 43.9185 111.213 44.6221H112.487ZM128.052 44.6221V45.8962C128.755 45.8962 129.326 45.3258 129.326 44.6221H128.052ZM112.485 36.8391H111.211C111.211 37.5428 111.781 38.1132 112.485 38.1132V36.8391ZM112.485 36.8372V35.5632C111.781 35.5632 111.211 36.1336 111.211 36.8372H112.485ZM112.487 36.8372V38.1113C112.825 38.1113 113.149 37.9771 113.388 37.7382L112.487 36.8372ZM115.975 33.3487L116.876 34.2496L116.876 34.2496L115.975 33.3487ZM114.03 31.403L113.129 30.5021L113.129 30.5021L114.03 31.403ZM110.54 34.8924L109.639 35.7933C109.878 36.0323 110.202 36.1665 110.54 36.1665C110.878 36.1665 111.202 36.0323 111.441 35.7933L110.54 34.8924ZM107.051 31.403L107.952 30.5021L107.952 30.5021L107.051 31.403ZM105.105 33.3487L106.006 32.4478L106.006 32.4478L105.105 33.3487ZM108.594 36.8372H109.868C109.868 36.4993 109.733 36.1753 109.494 35.9363L108.594 36.8372ZM108.594 36.8391V38.1132C109.297 38.1132 109.868 37.5428 109.868 36.8391H108.594ZM108.595 43.348H93.0283V45.8962H108.595V43.348ZM109.87 44.6227V44.6221H107.321V44.6227H109.87ZM94.9742 45.8968H108.595V43.3486H94.9742V45.8968ZM96.2483 64.0802V44.6227H93.7001V64.0802H96.2483ZM96.92 64.7518C96.5535 64.7518 96.2483 64.4467 96.2483 64.0802H93.7001C93.7001 65.854 95.1461 67.3 96.92 67.3V64.7518ZM124.16 64.7518H96.92V67.3H124.16V64.7518ZM124.832 64.0802C124.832 64.4467 124.527 64.7518 124.16 64.7518V67.3C125.934 67.3 127.38 65.854 127.38 64.0802H124.832ZM124.832 44.6227V64.0802H127.38V44.6227H124.832ZM112.487 45.8968H126.106V43.3486H112.487V45.8968ZM111.213 44.6221V44.6227H113.761V44.6221H111.213ZM128.052 43.348H112.487V45.8962H128.052V43.348ZM126.778 38.7849V44.6221H129.326V38.7849H126.778ZM126.106 38.1132C126.473 38.1132 126.778 38.4184 126.778 38.7849H129.326C129.326 37.0111 127.88 35.565 126.106 35.565V38.1132ZM112.485 38.1132H126.106V35.565H112.485V38.1132ZM113.759 36.8391V36.8372H111.211V36.8391H113.759ZM112.487 35.5632H112.485V38.1113H112.487V35.5632ZM115.075 32.4478L111.586 35.9363L113.388 37.7382L116.876 34.2496L115.075 32.4478ZM115.003 32.2741C115.026 32.2741 115.039 32.2775 115.045 32.2792C115.051 32.2811 115.055 32.2835 115.06 32.2866C115.07 32.2935 115.085 32.3096 115.097 32.3369C115.108 32.3642 115.108 32.3867 115.106 32.3986C115.105 32.4039 115.104 32.4088 115.101 32.4143C115.098 32.4195 115.091 32.4311 115.075 32.4478L116.876 34.2496C118.546 32.5803 117.363 29.7259 115.003 29.7259V32.2741ZM114.931 32.3039C114.95 32.2848 114.976 32.2741 115.003 32.2741V29.7259C114.3 29.7259 113.626 30.0051 113.129 30.5021L114.931 32.3039ZM111.441 35.7933L114.931 32.3039L113.129 30.5021L109.639 33.9915L111.441 35.7933ZM111.441 33.9915L107.952 30.5021L106.15 32.3039L109.639 35.7933L111.441 33.9915ZM107.952 30.5021C107.455 30.0051 106.781 29.7259 106.078 29.7259V32.2741C106.105 32.2741 106.131 32.2848 106.15 32.3039L107.952 30.5021ZM106.078 29.7259C103.717 29.7259 102.535 32.5803 104.204 34.2496L106.006 32.4478C105.989 32.4311 105.982 32.4195 105.98 32.4143C105.977 32.4088 105.975 32.4039 105.974 32.3986C105.972 32.3867 105.973 32.3642 105.984 32.3369C105.995 32.3096 106.011 32.2935 106.021 32.2866C106.025 32.2835 106.03 32.2811 106.036 32.2792C106.041 32.2775 106.054 32.2741 106.078 32.2741V29.7259ZM104.204 34.2496L107.693 37.7382L109.494 35.9363L106.006 32.4478L104.204 34.2496ZM107.32 36.8372V36.8391H109.868V36.8372H107.32ZM94.9741 38.1132H108.594V35.565H94.9741V38.1132ZM94.3024 38.7849C94.3024 38.4184 94.6076 38.1132 94.9741 38.1132V35.565C93.2003 35.565 91.7542 37.0111 91.7542 38.7849H94.3024ZM94.3024 44.6221V38.7849H91.7542V44.6221H94.3024Z" fill="black" mask="url(#path-15-outside-3_7138_115044)"/>
<path d="M124.161 66.0243H96.9204C95.8502 66.0243 94.9746 65.1487 94.9746 64.0786V44.6211H126.107V64.0786C126.107 65.1487 125.231 66.0243 124.161 66.0243Z" fill="#F8642D"/>
<path d="M128.052 44.6228H93.0283V38.7856C93.0283 37.7154 93.9039 36.8398 94.9741 36.8398H126.106C127.176 36.8398 128.052 37.7154 128.052 38.7856V44.6228Z" fill="#FF8253"/>
<mask id="path-19-outside-4_7138_115044" maskUnits="userSpaceOnUse" x="102.699" y="29" width="15" height="39" fill="black">
<rect fill="white" x="102.699" y="29" width="15" height="39"/>
<path fill-rule="evenodd" clip-rule="evenodd" d="M106.078 31C106.443 31 106.793 31.145 107.051 31.403L110.54 34.8924L114.03 31.403C114.288 31.145 114.638 31 115.002 31C116.228 31 116.842 32.482 115.975 33.3487L112.487 36.8372H112.485V44.6202L112.487 44.6202V66.0235H108.595V44.6202L108.593 44.6202V36.8372L105.105 33.3487C104.238 32.482 104.852 31 106.078 31Z"/>
</mask>
<path fill-rule="evenodd" clip-rule="evenodd" d="M106.078 31C106.443 31 106.793 31.145 107.051 31.403L110.54 34.8924L114.03 31.403C114.288 31.145 114.638 31 115.002 31C116.228 31 116.842 32.482 115.975 33.3487L112.487 36.8372H112.485V44.6202L112.487 44.6202V66.0235H108.595V44.6202L108.593 44.6202V36.8372L105.105 33.3487C104.238 32.482 104.852 31 106.078 31Z" fill="#F8AFDB"/>
<path d="M107.051 31.403L107.952 30.5021L107.952 30.5021L107.051 31.403ZM110.54 34.8924L109.639 35.7933L110.54 36.6942L111.441 35.7933L110.54 34.8924ZM114.03 31.403L113.129 30.5021L113.129 30.5021L114.03 31.403ZM115.975 33.3487L115.074 32.4478L115.074 32.4478L115.975 33.3487ZM112.487 36.8372V38.1113H113.015L113.388 37.7382L112.487 36.8372ZM112.485 36.8372V35.5632H111.211V36.8372H112.485ZM112.485 44.6202H111.211V45.895L112.486 45.8943L112.485 44.6202ZM112.487 44.6202H113.761V43.3455L112.486 43.3462L112.487 44.6202ZM112.487 66.0235V67.2975H113.761V66.0235H112.487ZM108.595 66.0235H107.321V67.2975H108.595V66.0235ZM108.595 44.6202H109.869V43.3455L108.595 43.3462L108.595 44.6202ZM108.593 44.6202H107.319V45.895L108.594 45.8943L108.593 44.6202ZM108.593 36.8372H109.868V36.3095L109.494 35.9363L108.593 36.8372ZM105.105 33.3487L104.204 34.2496L105.105 33.3487ZM107.952 30.5021C107.455 30.0051 106.781 29.7259 106.078 29.7259V32.2741C106.105 32.2741 106.131 32.2848 106.15 32.3039L107.952 30.5021ZM111.441 33.9915L107.952 30.5021L106.15 32.3039L109.639 35.7933L111.441 33.9915ZM113.129 30.5021L109.639 33.9915L111.441 35.7933L114.931 32.3039L113.129 30.5021ZM115.002 29.7259C114.3 29.7259 113.626 30.0051 113.129 30.5021L114.931 32.3039C114.95 32.2848 114.975 32.2741 115.002 32.2741V29.7259ZM116.876 34.2496C118.546 32.5803 117.363 29.7259 115.002 29.7259V32.2741C115.026 32.2741 115.039 32.2775 115.045 32.2792C115.051 32.2811 115.055 32.2835 115.06 32.2866C115.069 32.2935 115.085 32.3096 115.097 32.3369C115.108 32.3642 115.108 32.3867 115.106 32.3986C115.105 32.4039 115.104 32.4088 115.101 32.4143C115.098 32.4195 115.091 32.4311 115.074 32.4478L116.876 34.2496ZM113.388 37.7382L116.876 34.2496L115.074 32.4478L111.586 35.9363L113.388 37.7382ZM112.485 38.1113H112.487V35.5632H112.485V38.1113ZM113.759 44.6202V36.8372H111.211V44.6202H113.759ZM112.486 45.8943L112.487 45.8943L112.486 43.3462L112.484 43.3462L112.486 45.8943ZM111.213 44.6202V66.0235H113.761V44.6202H111.213ZM112.487 64.7494H108.595V67.2975H112.487V64.7494ZM109.869 66.0235V44.6202H107.321V66.0235H109.869ZM108.594 45.8943L108.596 45.8943L108.595 43.3462L108.593 43.3462L108.594 45.8943ZM107.319 36.8372V44.6202H109.868V36.8372H107.319ZM104.204 34.2496L107.693 37.7382L109.494 35.9363L106.006 32.4478L104.204 34.2496ZM106.078 29.7259C103.717 29.7259 102.535 32.5803 104.204 34.2496L106.006 32.4478C105.989 32.4311 105.982 32.4195 105.98 32.4143C105.977 32.4088 105.975 32.4039 105.974 32.3986C105.972 32.3867 105.972 32.3642 105.984 32.3369C105.995 32.3096 106.011 32.2935 106.021 32.2866C106.025 32.2835 106.03 32.2811 106.036 32.2792C106.041 32.2775 106.054 32.2741 106.078 32.2741V29.7259Z" fill="black" mask="url(#path-19-outside-4_7138_115044)"/>
<path d="M200.634 45.5161L182.784 49.7743C179.524 50.5519 176.243 48.5416 175.455 45.2841L175.126 43.9223C174.157 39.913 176.643 35.8817 180.68 34.9189L197.124 30.9961L200.634 45.5161Z" fill="#AF9EFF"/>
<path d="M180.686 34.9157L228.192 23.5833C232.229 22.6205 236.287 25.0905 237.256 29.0998L249.542 79.9199C250.511 83.9292 248.025 87.9605 243.988 88.9233L211.1 96.7688C207.063 97.7316 203.005 95.2616 202.036 91.2523L189.75 40.4322C188.781 36.4229 184.722 33.9529 180.686 34.9157Z" fill="white"/>
<path d="M211.098 96.9834C211.098 96.9834 250.914 87.4855 254.95 86.5227C258.987 85.5599 261.473 81.5286 260.504 77.5192L259.488 73.3184C259.322 72.6312 258.63 72.2072 257.942 72.3712L215.336 82.5349L216.652 87.9799C217.621 91.9892 215.135 96.0205 211.098 96.9834Z" fill="#AF9EFF"/>
<mask id="path-24-outside-5_7138_115044" maskUnits="userSpaceOnUse" x="172.725" y="21.3789" width="90" height="77" fill="black">
<rect fill="white" x="172.725" y="21.3789" width="90" height="77"/>
<path fill-rule="evenodd" clip-rule="evenodd" d="M228.198 23.587L180.692 34.9194C180.746 34.9064 180.801 34.8939 180.856 34.8822L180.691 34.9214C176.655 35.8842 174.168 39.9155 175.138 43.9248L175.467 45.2866C176.254 48.5441 179.535 50.5544 182.795 49.7768L191.511 47.6977L202.041 91.256C203.011 95.2653 207.069 97.7353 211.105 96.7725L211.358 96.7122C211.276 96.7347 211.193 96.7559 211.11 96.7758L254.962 86.3151C258.998 85.3523 261.484 81.321 260.515 77.3117L259.5 73.1109C259.333 72.4237 258.641 71.9997 257.954 72.1637L248.232 74.4827L237.262 29.1035C236.293 25.0942 232.234 22.6242 228.198 23.587Z"/>
</mask>
<path d="M180.692 34.9194L180.989 36.1645L180.395 33.6743L180.692 34.9194ZM228.198 23.587L227.901 22.3419L227.901 22.3419L228.198 23.587ZM180.856 34.8822L180.586 33.6309L181.153 36.1272L180.856 34.8822ZM180.691 34.9214L180.988 36.1665L180.988 36.1665L180.691 34.9214ZM175.138 43.9248L173.894 44.2256L173.894 44.2256L175.138 43.9248ZM175.467 45.2866L176.711 44.9858L176.711 44.9858L175.467 45.2866ZM182.795 49.7768L182.498 48.5318L182.498 48.5318L182.795 49.7768ZM191.511 47.6977L191.214 46.4527L192.455 46.1566L192.755 47.3969L191.511 47.6977ZM202.041 91.256L200.797 91.5567L200.797 91.5567L202.041 91.256ZM211.105 96.7725L211.402 98.0176L211.402 98.0176L211.105 96.7725ZM211.358 96.7122L211.061 95.4672L211.696 97.9467L211.358 96.7122ZM211.11 96.7758L211.407 98.0209L210.813 95.5308L211.11 96.7758ZM254.962 86.3151L254.665 85.0701L254.665 85.0701L254.962 86.3151ZM260.515 77.3117L259.271 77.6125L259.271 77.6125L260.515 77.3117ZM259.5 73.1109L260.744 72.8101L260.744 72.8101L259.5 73.1109ZM257.954 72.1637L258.251 73.4088L258.251 73.4088L257.954 72.1637ZM248.232 74.4827L248.529 75.7278L247.288 76.0239L246.988 74.7835L248.232 74.4827ZM237.262 29.1035L238.506 28.8028L238.506 28.8028L237.262 29.1035ZM180.395 33.6743L227.901 22.3419L228.495 24.8321L180.989 36.1645L180.395 33.6743ZM181.125 36.1334C181.08 36.1432 181.034 36.1536 180.989 36.1645L180.395 33.6743C180.458 33.6591 180.522 33.6447 180.586 33.6309L181.125 36.1334ZM180.394 33.6763L180.559 33.6371L181.153 36.1272L180.988 36.1665L180.394 33.6763ZM173.894 44.2256C172.756 39.5207 175.676 34.8019 180.394 33.6763L180.988 36.1665C177.634 36.9666 175.581 40.3103 176.382 43.6241L173.894 44.2256ZM174.223 45.5874L173.894 44.2256L176.382 43.6241L176.711 44.9858L174.223 45.5874ZM183.092 51.0219C179.146 51.9632 175.176 49.5305 174.223 45.5874L176.711 44.9858C177.333 47.5577 179.925 49.1457 182.498 48.5318L183.092 51.0219ZM191.808 48.9428L183.092 51.0219L182.498 48.5318L191.214 46.4527L191.808 48.9428ZM200.797 91.5567L190.267 47.9985L192.755 47.3969L203.286 90.9552L200.797 91.5567ZM211.402 98.0176C206.687 99.1424 201.934 96.2587 200.797 91.5567L203.286 90.9552C204.087 94.2719 207.451 96.3282 210.808 95.5274L211.402 98.0176ZM211.655 97.9573L211.402 98.0176L210.808 95.5274L211.061 95.4672L211.655 97.9573ZM211.696 97.9467C211.6 97.973 211.504 97.9977 211.407 98.0209L210.813 95.5308C210.882 95.5142 210.951 95.4965 211.02 95.4778L211.696 97.9467ZM210.813 95.5308L254.665 85.0701L255.259 87.5602L211.407 98.0209L210.813 95.5308ZM254.665 85.0701C258.019 84.27 260.072 80.9262 259.271 77.6125L261.759 77.0109C262.897 81.7159 259.977 86.4347 255.259 87.5602L254.665 85.0701ZM259.271 77.6125L258.255 73.4116L260.744 72.8101L261.759 77.0109L259.271 77.6125ZM258.255 73.4116C258.255 73.41 258.255 73.4097 258.255 73.4101C258.255 73.4105 258.255 73.4109 258.256 73.4111C258.256 73.4115 258.255 73.4106 258.253 73.4095C258.252 73.4084 258.251 73.4083 258.251 73.4084C258.251 73.4084 258.252 73.4085 258.252 73.4084C258.253 73.4084 258.252 73.4084 258.251 73.4088L257.657 70.9186C259.031 70.5909 260.412 71.4373 260.744 72.8101L258.255 73.4116ZM258.251 73.4088L248.529 75.7278L247.935 73.2376L257.657 70.9186L258.251 73.4088ZM238.506 28.8028L249.477 74.1819L246.988 74.7835L236.018 29.4043L238.506 28.8028ZM227.901 22.3419C232.616 21.2171 237.369 24.1008 238.506 28.8028L236.018 29.4043C235.216 26.0876 231.852 24.0313 228.495 24.8321L227.901 22.3419Z" fill="black" mask="url(#path-24-outside-5_7138_115044)"/>
<mask id="path-26-outside-6_7138_115044" maskUnits="userSpaceOnUse" x="207.551" y="28.4766" width="30" height="39" fill="black">
<rect fill="white" x="207.551" y="28.4766" width="30" height="39"/>
<path fill-rule="evenodd" clip-rule="evenodd" d="M235.51 32.4668C234.424 31.9031 233.273 31.4481 232.071 31.1161V30.4766H229.059V30.5597C228.49 30.5047 227.912 30.4766 227.329 30.4766C217.51 30.4766 209.551 38.4359 209.551 48.2543C209.551 58.0727 217.51 66.0321 227.329 66.0321C227.912 66.0321 228.49 66.004 229.059 65.949V66.0321H232.071V65.3926C233.273 65.0606 234.424 64.6056 235.51 64.0419V32.4668Z"/>
</mask>
<path fill-rule="evenodd" clip-rule="evenodd" d="M235.51 32.4668C234.424 31.9031 233.273 31.4481 232.071 31.1161V30.4766H229.059V30.5597C228.49 30.5047 227.912 30.4766 227.329 30.4766C217.51 30.4766 209.551 38.4359 209.551 48.2543C209.551 58.0727 217.51 66.0321 227.329 66.0321C227.912 66.0321 228.49 66.004 229.059 65.949V66.0321H232.071V65.3926C233.273 65.0606 234.424 64.6056 235.51 64.0419V32.4668Z" fill="#FAD414"/>
<path d="M235.51 32.4668H236.784V31.6928L236.097 31.3361L235.51 32.4668ZM232.071 31.1161H230.797V32.0861L231.732 32.3443L232.071 31.1161ZM232.071 30.4766H233.345V29.2025H232.071V30.4766ZM229.059 30.4766V29.2025H227.785V30.4766H229.059ZM229.059 30.5597L228.936 31.8279L230.333 31.9628V30.5597H229.059ZM229.059 65.949H230.333V64.5459L228.936 64.6808L229.059 65.949ZM229.059 66.0321H227.785V67.3061H229.059V66.0321ZM232.071 66.0321V67.3061H233.345V66.0321H232.071ZM232.071 65.3926L231.732 64.1644L230.797 64.4226V65.3926H232.071ZM235.51 64.0419L236.097 65.1726L236.784 64.8159V64.0419H235.51ZM236.097 31.3361C234.933 30.7318 233.699 30.2439 232.41 29.888L231.732 32.3443C232.847 32.6522 233.915 33.0743 234.923 33.5975L236.097 31.3361ZM233.345 31.1161V30.4766H230.797V31.1161H233.345ZM232.071 29.2025H229.059V31.7506H232.071V29.2025ZM227.785 30.4766V30.5597H230.333V30.4766H227.785ZM229.181 29.2915C228.571 29.2326 227.953 29.2025 227.329 29.2025V31.7506C227.871 31.7506 228.408 31.7768 228.936 31.8279L229.181 29.2915ZM227.329 29.2025C216.807 29.2025 208.277 37.7323 208.277 48.2543H210.825C210.825 39.1396 218.214 31.7506 227.329 31.7506V29.2025ZM208.277 48.2543C208.277 58.7764 216.807 67.3062 227.329 67.3062V64.758C218.214 64.758 210.825 57.3691 210.825 48.2543H208.277ZM227.329 67.3062C227.953 67.3062 228.571 67.2761 229.181 67.2172L228.936 64.6808C228.408 64.7319 227.871 64.758 227.329 64.758V67.3062ZM227.785 65.949V66.0321H230.333V65.949H227.785ZM229.059 67.3061H232.071V64.758H229.059V67.3061ZM233.345 66.0321V65.3926H230.797V66.0321H233.345ZM232.41 66.6207C233.699 66.2648 234.933 65.7769 236.097 65.1726L234.923 62.9112C233.915 63.4343 232.847 63.8565 231.732 64.1644L232.41 66.6207ZM236.784 64.0419V32.4668H234.236V64.0419H236.784Z" fill="black" mask="url(#path-26-outside-6_7138_115044)"/>
<circle cx="233.517" cy="48.2504" r="18.4148" fill="#E9FF90" stroke="black" stroke-width="1.27407"/>
<circle cx="233.517" cy="48.2509" r="12.247" fill="#FAD414"/>
<mask id="path-30-outside-7_7138_115044" maskUnits="userSpaceOnUse" x="225.69" y="40.168" width="16" height="16" fill="black">
<rect fill="white" x="225.69" y="40.168" width="16" height="16"/>
<path fill-rule="evenodd" clip-rule="evenodd" d="M232.094 43.5712C232.094 42.7961 232.732 42.168 233.519 42.168C234.306 42.168 234.944 42.7961 234.944 43.5712V46.8439H238.266C239.053 46.8439 239.69 47.4721 239.69 48.2471C239.69 49.0221 239.053 49.6503 238.266 49.6503H234.944V52.9259C234.944 53.7009 234.306 54.3291 233.519 54.3291C232.732 54.3291 232.094 53.7009 232.094 52.9259V49.6503H228.768C227.981 49.6503 227.343 49.0221 227.343 48.2471C227.343 47.4721 227.981 46.8439 228.768 46.8439H232.094V43.5712Z"/>
</mask>
<path fill-rule="evenodd" clip-rule="evenodd" d="M232.094 43.5712C232.094 42.7961 232.732 42.168 233.519 42.168C234.306 42.168 234.944 42.7961 234.944 43.5712V46.8439H238.266C239.053 46.8439 239.69 47.4721 239.69 48.2471C239.69 49.0221 239.053 49.6503 238.266 49.6503H234.944V52.9259C234.944 53.7009 234.306 54.3291 233.519 54.3291C232.732 54.3291 232.094 53.7009 232.094 52.9259V49.6503H228.768C227.981 49.6503 227.343 49.0221 227.343 48.2471C227.343 47.4721 227.981 46.8439 228.768 46.8439H232.094V43.5712Z" fill="#E9FF90"/>
<path d="M234.944 46.8439V48.118H233.67V46.8439H234.944ZM234.944 49.6503H233.67V48.3762H234.944V49.6503ZM232.094 49.6503V48.3762H233.368V49.6503H232.094ZM232.094 46.8439H233.368V48.118H232.094V46.8439ZM233.519 43.442C233.417 43.442 233.368 43.518 233.368 43.5712H230.82C230.82 42.0743 232.047 40.8939 233.519 40.8939V43.442ZM233.67 43.5712C233.67 43.518 233.62 43.442 233.519 43.442V40.8939C234.991 40.8939 236.218 42.0743 236.218 43.5712H233.67ZM233.67 46.8439V43.5712H236.218V46.8439H233.67ZM238.266 48.118H234.944V45.5698H238.266V48.118ZM238.416 48.2471C238.416 48.1939 238.367 48.118 238.266 48.118V45.5698C239.738 45.5698 240.965 46.7502 240.965 48.2471H238.416ZM238.266 48.3762C238.367 48.3762 238.416 48.3003 238.416 48.2471H240.965C240.965 49.744 239.738 50.9244 238.266 50.9244V48.3762ZM234.944 48.3762H238.266V50.9244H234.944V48.3762ZM233.67 52.9259V49.6503H236.218V52.9259H233.67ZM233.519 53.055C233.62 53.055 233.67 52.9791 233.67 52.9259H236.218C236.218 54.4227 234.991 55.6031 233.519 55.6031V53.055ZM233.368 52.9259C233.368 52.9791 233.417 53.055 233.519 53.055V55.6031C232.047 55.6031 230.82 54.4227 230.82 52.9259H233.368ZM233.368 49.6503V52.9259H230.82V49.6503H233.368ZM228.768 48.3762H232.094V50.9244H228.768V48.3762ZM228.617 48.2471C228.617 48.3003 228.666 48.3762 228.768 48.3762V50.9244C227.296 50.9244 226.069 49.744 226.069 48.2471H228.617ZM228.768 48.118C228.666 48.118 228.617 48.1939 228.617 48.2471H226.069C226.069 46.7502 227.296 45.5698 228.768 45.5698V48.118ZM232.094 48.118H228.768V45.5698H232.094V48.118ZM233.368 43.5712V46.8439H230.82V43.5712H233.368Z" fill="black" mask="url(#path-30-outside-7_7138_115044)"/>
<path d="M323.596 45.5161L305.746 49.7743C302.486 50.5519 299.205 48.5416 298.417 45.2841L298.088 43.9223C297.119 39.913 299.605 35.8817 303.641 34.9189L320.086 30.9961L323.596 45.5161Z" fill="#AF9EFF"/>
<path d="M303.648 34.9157L351.154 23.5833C355.19 22.6205 359.249 25.0905 360.218 29.0998L372.504 79.9199C373.473 83.9292 370.987 87.9605 366.95 88.9233L334.061 96.7688C330.025 97.7316 325.967 95.2616 324.998 91.2523L312.712 40.4322C311.742 36.4229 307.684 33.9529 303.648 34.9157Z" fill="white"/>
<path d="M334.06 96.9834C334.06 96.9834 373.876 87.4855 377.912 86.5227C381.948 85.5599 384.435 81.5286 383.466 77.5192L382.45 73.3184C382.284 72.6312 381.592 72.2072 380.904 72.3712L338.297 82.5349L339.614 87.9799C340.583 91.9892 338.096 96.0205 334.06 96.9834Z" fill="#AF9EFF"/>
<mask id="path-35-outside-8_7138_115044" maskUnits="userSpaceOnUse" x="295.687" y="21.3789" width="90" height="77" fill="black">
<rect fill="white" x="295.687" y="21.3789" width="90" height="77"/>
<path fill-rule="evenodd" clip-rule="evenodd" d="M303.654 34.9194L351.16 23.587C355.196 22.6242 359.254 25.0942 360.224 29.1035L371.194 74.4827L380.916 72.1637C381.603 71.9997 382.295 72.4237 382.461 73.1109L383.477 77.3117C384.446 81.321 381.96 85.3523 377.924 86.3151L334.072 96.7758C334.155 96.7559 334.238 96.7347 334.32 96.7122L334.067 96.7725C330.031 97.7353 325.973 95.2653 325.003 91.256L314.473 47.6977L305.757 49.7768C302.497 50.5544 299.216 48.5441 298.429 45.2866L298.1 43.9248C297.13 39.9155 299.617 35.8842 303.653 34.9214L303.818 34.8822C303.763 34.8939 303.708 34.9064 303.654 34.9194Z"/>
</mask>
<path d="M351.16 23.587L350.863 22.3419L350.863 22.3419L351.16 23.587ZM303.654 34.9194L303.951 36.1645L303.357 33.6743L303.654 34.9194ZM360.224 29.1035L361.468 28.8028L361.468 28.8028L360.224 29.1035ZM371.194 74.4827L371.491 75.7278L370.25 76.0239L369.95 74.7835L371.194 74.4827ZM380.916 72.1637L381.213 73.4088L381.213 73.4088L380.916 72.1637ZM382.461 73.1109L383.706 72.8101L383.706 72.8101L382.461 73.1109ZM383.477 77.3117L382.233 77.6125L382.233 77.6125L383.477 77.3117ZM377.924 86.3151L377.627 85.0701L377.627 85.0701L377.924 86.3151ZM334.072 96.7758L334.369 98.0209L333.775 95.5308L334.072 96.7758ZM334.32 96.7122L334.023 95.4672L334.658 97.9467L334.32 96.7122ZM334.067 96.7725L334.364 98.0176L334.364 98.0176L334.067 96.7725ZM325.003 91.256L323.759 91.5567L323.759 91.5567L325.003 91.256ZM314.473 47.6977L314.176 46.4527L315.417 46.1566L315.717 47.3969L314.473 47.6977ZM305.757 49.7768L305.46 48.5318L305.46 48.5318L305.757 49.7768ZM298.429 45.2866L299.673 44.9858L299.673 44.9858L298.429 45.2866ZM298.1 43.9248L296.855 44.2256L296.855 44.2256L298.1 43.9248ZM303.653 34.9214L303.95 36.1665L303.95 36.1665L303.653 34.9214ZM303.818 34.8822L303.548 33.6309L304.115 36.1272L303.818 34.8822ZM351.457 24.8321L303.951 36.1645L303.357 33.6743L350.863 22.3419L351.457 24.8321ZM358.98 29.4043C358.178 26.0876 354.814 24.0313 351.457 24.8321L350.863 22.3419C355.578 21.2171 360.331 24.1008 361.468 28.8028L358.98 29.4043ZM369.95 74.7835L358.98 29.4043L361.468 28.8028L372.438 74.1819L369.95 74.7835ZM381.213 73.4088L371.491 75.7278L370.897 73.2376L380.619 70.9186L381.213 73.4088ZM381.217 73.4116C381.217 73.41 381.217 73.4097 381.217 73.4101C381.217 73.4105 381.217 73.4109 381.217 73.4111C381.218 73.4115 381.217 73.4106 381.215 73.4095C381.214 73.4084 381.213 73.4083 381.213 73.4084C381.213 73.4084 381.214 73.4085 381.214 73.4084C381.215 73.4084 381.214 73.4084 381.213 73.4088L380.619 70.9186C381.992 70.5909 383.374 71.4373 383.706 72.8101L381.217 73.4116ZM382.233 77.6125L381.217 73.4116L383.706 72.8101L384.721 77.0109L382.233 77.6125ZM377.627 85.0701C380.981 84.27 383.034 80.9262 382.233 77.6125L384.721 77.0109C385.859 81.7159 382.939 86.4347 378.221 87.5602L377.627 85.0701ZM333.775 95.5308L377.627 85.0701L378.221 87.5602L334.369 98.0209L333.775 95.5308ZM334.658 97.9467C334.562 97.973 334.466 97.9977 334.369 98.0209L333.775 95.5308C333.844 95.5142 333.913 95.4965 333.981 95.4778L334.658 97.9467ZM333.77 95.5274L334.023 95.4672L334.617 97.9573L334.364 98.0176L333.77 95.5274ZM326.247 90.9552C327.049 94.2719 330.413 96.3282 333.77 95.5274L334.364 98.0176C329.649 99.1424 324.896 96.2587 323.759 91.5567L326.247 90.9552ZM315.717 47.3969L326.247 90.9552L323.759 91.5567L313.229 47.9985L315.717 47.3969ZM305.46 48.5318L314.176 46.4527L314.77 48.9428L306.054 51.0219L305.46 48.5318ZM299.673 44.9858C300.295 47.5577 302.887 49.1457 305.46 48.5318L306.054 51.0219C302.108 51.9632 298.138 49.5305 297.185 45.5874L299.673 44.9858ZM299.344 43.6241L299.673 44.9858L297.185 45.5874L296.855 44.2256L299.344 43.6241ZM303.95 36.1665C300.596 36.9666 298.543 40.3103 299.344 43.6241L296.855 44.2256C295.718 39.5207 298.638 34.8019 303.356 33.6763L303.95 36.1665ZM304.115 36.1272L303.95 36.1665L303.356 33.6763L303.521 33.6371L304.115 36.1272ZM303.357 33.6743C303.42 33.6591 303.484 33.6447 303.548 33.6309L304.087 36.1334C304.042 36.1432 303.996 36.1536 303.951 36.1645L303.357 33.6743Z" fill="black" mask="url(#path-35-outside-8_7138_115044)"/>
<path fill-rule="evenodd" clip-rule="evenodd" d="M343.836 36.9576C344.043 37.4686 343.793 38.0495 343.279 38.2549C342.48 38.5738 341.757 39.0476 341.127 39.673C340.448 40.3471 339.941 41.1481 339.619 42.0363C339.431 42.5545 338.856 42.8233 338.334 42.6367C337.812 42.45 337.542 41.8787 337.73 41.3605C338.15 40.1996 338.817 39.1469 339.707 38.2626C340.526 37.4493 341.477 36.8247 342.53 36.4043C343.044 36.1988 343.629 36.4466 343.836 36.9576Z" fill="white"/>
<mask id="path-38-outside-9_7138_115044" maskUnits="userSpaceOnUse" x="336.952" y="29" width="39" height="39" fill="black">
<rect fill="white" x="336.952" y="29" width="39" height="39"/>
<path fill-rule="evenodd" clip-rule="evenodd" d="M338.952 44.6221H354.519V44.6227H340.898V64.0802C340.898 65.1503 341.774 66.0259 342.844 66.0259H370.084C371.154 66.0259 372.03 65.1503 372.03 64.0802V44.6227H358.411V44.6221H373.976V38.7849C373.976 37.7147 373.1 36.8391 372.03 36.8391H358.409V36.8372H358.411L361.899 33.3487C362.766 32.482 362.152 31 360.926 31C360.562 31 360.212 31.145 359.954 31.403L356.464 34.8924L352.975 31.403C352.717 31.145 352.367 31 352.002 31C350.776 31 350.162 32.482 351.029 33.3487L354.517 36.8372V36.8391H340.898C339.828 36.8391 338.952 37.7147 338.952 38.7849V44.6221Z"/>
</mask>
<path fill-rule="evenodd" clip-rule="evenodd" d="M338.952 44.6221H354.519V44.6227H340.898V64.0802C340.898 65.1503 341.774 66.0259 342.844 66.0259H370.084C371.154 66.0259 372.03 65.1503 372.03 64.0802V44.6227H358.411V44.6221H373.976V38.7849C373.976 37.7147 373.1 36.8391 372.03 36.8391H358.409V36.8372H358.411L361.899 33.3487C362.766 32.482 362.152 31 360.926 31C360.562 31 360.212 31.145 359.954 31.403L356.464 34.8924L352.975 31.403C352.717 31.145 352.367 31 352.002 31C350.776 31 350.162 32.482 351.029 33.3487L354.517 36.8372V36.8391H340.898C339.828 36.8391 338.952 37.7147 338.952 38.7849V44.6221Z" fill="white"/>
<path d="M354.519 44.6221H355.793C355.793 43.9185 355.223 43.348 354.519 43.348V44.6221ZM338.952 44.6221H337.678C337.678 45.3258 338.248 45.8962 338.952 45.8962V44.6221ZM354.519 44.6227V45.8968C355.223 45.8968 355.793 45.3263 355.793 44.6227H354.519ZM340.898 44.6227V43.3486C340.194 43.3486 339.624 43.919 339.624 44.6227H340.898ZM372.03 44.6227H373.304C373.304 43.919 372.734 43.3486 372.03 43.3486V44.6227ZM358.411 44.6227H357.137C357.137 45.3263 357.707 45.8968 358.411 45.8968V44.6227ZM358.411 44.6221V43.348C357.707 43.348 357.137 43.9185 357.137 44.6221H358.411ZM373.976 44.6221V45.8962C374.679 45.8962 375.25 45.3258 375.25 44.6221H373.976ZM358.409 36.8391H357.135C357.135 37.5428 357.705 38.1132 358.409 38.1132V36.8391ZM358.409 36.8372V35.5632C357.705 35.5632 357.135 36.1336 357.135 36.8372H358.409ZM358.411 36.8372V38.1113C358.749 38.1113 359.073 37.9771 359.312 37.7382L358.411 36.8372ZM361.899 33.3487L362.8 34.2496L362.8 34.2496L361.899 33.3487ZM359.954 31.403L359.053 30.5021L359.053 30.5021L359.954 31.403ZM356.464 34.8924L355.563 35.7933C355.802 36.0323 356.126 36.1665 356.464 36.1665C356.802 36.1665 357.126 36.0323 357.365 35.7933L356.464 34.8924ZM352.975 31.403L353.876 30.5021L353.876 30.5021L352.975 31.403ZM351.029 33.3487L351.93 32.4478L351.93 32.4478L351.029 33.3487ZM354.517 36.8372H355.791C355.791 36.4993 355.657 36.1753 355.418 35.9363L354.517 36.8372ZM354.517 36.8391V38.1132C355.221 38.1132 355.791 37.5428 355.791 36.8391H354.517ZM354.519 43.348H338.952V45.8962H354.519V43.348ZM355.793 44.6227V44.6221H353.245V44.6227H355.793ZM340.898 45.8968H354.519V43.3486H340.898V45.8968ZM342.172 64.0802V44.6227H339.624V64.0802H342.172ZM342.844 64.7518C342.477 64.7518 342.172 64.4467 342.172 64.0802H339.624C339.624 65.854 341.07 67.3 342.844 67.3V64.7518ZM370.084 64.7518H342.844V67.3H370.084V64.7518ZM370.756 64.0802C370.756 64.4467 370.451 64.7518 370.084 64.7518V67.3C371.858 67.3 373.304 65.854 373.304 64.0802H370.756ZM370.756 44.6227V64.0802H373.304V44.6227H370.756ZM358.411 45.8968H372.03V43.3486H358.411V45.8968ZM357.137 44.6221V44.6227H359.685V44.6221H357.137ZM373.976 43.348H358.411V45.8962H373.976V43.348ZM372.702 38.7849V44.6221H375.25V38.7849H372.702ZM372.03 38.1132C372.396 38.1132 372.702 38.4184 372.702 38.7849H375.25C375.25 37.0111 373.804 35.565 372.03 35.565V38.1132ZM358.409 38.1132H372.03V35.565H358.409V38.1132ZM359.683 36.8391V36.8372H357.135V36.8391H359.683ZM358.411 35.5632H358.409V38.1113H358.411V35.5632ZM360.998 32.4478L357.51 35.9363L359.312 37.7382L362.8 34.2496L360.998 32.4478ZM360.926 32.2741C360.95 32.2741 360.963 32.2775 360.969 32.2792C360.975 32.2811 360.979 32.2835 360.984 32.2866C360.993 32.2935 361.009 32.3096 361.02 32.3369C361.032 32.3642 361.032 32.3867 361.03 32.3986C361.029 32.4039 361.027 32.4088 361.025 32.4143C361.022 32.4195 361.015 32.4311 360.998 32.4478L362.8 34.2496C364.47 32.5803 363.287 29.7259 360.926 29.7259V32.2741ZM360.854 32.3039C360.874 32.2848 360.899 32.2741 360.926 32.2741V29.7259C360.224 29.7259 359.55 30.0051 359.053 30.5021L360.854 32.3039ZM357.365 35.7933L360.854 32.3039L359.053 30.5021L355.563 33.9915L357.365 35.7933ZM357.365 33.9915L353.876 30.5021L352.074 32.3039L355.563 35.7933L357.365 33.9915ZM353.876 30.5021C353.379 30.0051 352.705 29.7259 352.002 29.7259V32.2741C352.029 32.2741 352.055 32.2848 352.074 32.3039L353.876 30.5021ZM352.002 29.7259C349.641 29.7259 348.459 32.5803 350.128 34.2496L351.93 32.4478C351.913 32.4311 351.906 32.4195 351.904 32.4143C351.901 32.4088 351.899 32.4039 351.898 32.3986C351.896 32.3867 351.896 32.3642 351.908 32.3369C351.919 32.3096 351.935 32.2935 351.945 32.2866C351.949 32.2835 351.954 32.2811 351.96 32.2792C351.965 32.2775 351.978 32.2741 352.002 32.2741V29.7259ZM350.128 34.2496L353.616 37.7382L355.418 35.9363L351.93 32.4478L350.128 34.2496ZM353.243 36.8372V36.8391H355.791V36.8372H353.243ZM340.898 38.1132H354.517V35.565H340.898V38.1132ZM340.226 38.7849C340.226 38.4184 340.531 38.1132 340.898 38.1132V35.565C339.124 35.565 337.678 37.0111 337.678 38.7849H340.226ZM340.226 44.6221V38.7849H337.678V44.6221H340.226Z" fill="black" mask="url(#path-38-outside-9_7138_115044)"/>
<path d="M370.085 66.0243H342.844C341.774 66.0243 340.898 65.1487 340.898 64.0786V44.6211H372.03V64.0786C372.03 65.1487 371.155 66.0243 370.085 66.0243Z" fill="#2A8D5C"/>
<path d="M373.976 44.6228H338.952V38.7856C338.952 37.7154 339.828 36.8398 340.898 36.8398H372.03C373.1 36.8398 373.976 37.7154 373.976 38.7856V44.6228Z" fill="#31A66C"/>
<mask id="path-42-outside-10_7138_115044" maskUnits="userSpaceOnUse" x="348.624" y="29" width="15" height="39" fill="black">
<rect fill="white" x="348.624" y="29" width="15" height="39"/>
<path fill-rule="evenodd" clip-rule="evenodd" d="M352.003 31C352.368 31 352.717 31.145 352.976 31.403L356.465 34.8924L359.954 31.403C360.212 31.145 360.562 31 360.927 31C362.153 31 362.767 32.482 361.9 33.3487L358.412 36.8372H358.41V44.6202L358.412 44.6202V66.0235H354.52V44.6202L354.518 44.6202V36.8372L351.03 33.3487C350.163 32.482 350.777 31 352.003 31Z"/>
</mask>
<path fill-rule="evenodd" clip-rule="evenodd" d="M352.003 31C352.368 31 352.717 31.145 352.976 31.403L356.465 34.8924L359.954 31.403C360.212 31.145 360.562 31 360.927 31C362.153 31 362.767 32.482 361.9 33.3487L358.412 36.8372H358.41V44.6202L358.412 44.6202V66.0235H354.52V44.6202L354.518 44.6202V36.8372L351.03 33.3487C350.163 32.482 350.777 31 352.003 31Z" fill="#FFCB5D"/>
<path d="M352.976 31.403L353.876 30.5021L353.876 30.5021L352.976 31.403ZM356.465 34.8924L355.564 35.7933L356.465 36.6942L357.366 35.7933L356.465 34.8924ZM359.954 31.403L359.054 30.5021L359.054 30.5021L359.954 31.403ZM361.9 33.3487L360.999 32.4478L360.999 32.4478L361.9 33.3487ZM358.412 36.8372V38.1113H358.939L359.313 37.7382L358.412 36.8372ZM358.41 36.8372V35.5632H357.136V36.8372H358.41ZM358.41 44.6202H357.136V45.895L358.41 45.8943L358.41 44.6202ZM358.412 44.6202H359.686V43.3455L358.411 43.3462L358.412 44.6202ZM358.412 66.0235V67.2975H359.686V66.0235H358.412ZM354.52 66.0235H353.246V67.2975H354.52V66.0235ZM354.52 44.6202H355.794V43.3455L354.52 43.3462L354.52 44.6202ZM354.518 44.6202H353.244V45.895L354.519 45.8943L354.518 44.6202ZM354.518 36.8372H355.792V36.3095L355.419 35.9363L354.518 36.8372ZM351.03 33.3487L350.129 34.2496L351.03 33.3487ZM353.876 30.5021C353.379 30.0051 352.705 29.7259 352.003 29.7259V32.2741C352.03 32.2741 352.056 32.2848 352.075 32.3039L353.876 30.5021ZM357.366 33.9915L353.876 30.5021L352.075 32.3039L355.564 35.7933L357.366 33.9915ZM359.054 30.5021L355.564 33.9915L357.366 35.7933L360.855 32.3039L359.054 30.5021ZM360.927 29.7259C360.224 29.7259 359.55 30.0051 359.054 30.5021L360.855 32.3039C360.874 32.2848 360.9 32.2741 360.927 32.2741V29.7259ZM362.801 34.2496C364.47 32.5803 363.288 29.7259 360.927 29.7259V32.2741C360.951 32.2741 360.964 32.2775 360.97 32.2792C360.975 32.2811 360.98 32.2835 360.984 32.2866C360.994 32.2935 361.01 32.3096 361.021 32.3369C361.033 32.3642 361.033 32.3867 361.031 32.3986C361.03 32.4039 361.028 32.4088 361.025 32.4143C361.023 32.4195 361.016 32.4311 360.999 32.4478L362.801 34.2496ZM359.313 37.7382L362.801 34.2496L360.999 32.4478L357.511 35.9363L359.313 37.7382ZM358.41 38.1113H358.412V35.5632H358.41V38.1113ZM359.684 44.6202V36.8372H357.136V44.6202H359.684ZM358.41 45.8943L358.412 45.8943L358.411 43.3462L358.409 43.3462L358.41 45.8943ZM357.138 44.6202V66.0235H359.686V44.6202H357.138ZM358.412 64.7494H354.52V67.2975H358.412V64.7494ZM355.794 66.0235V44.6202H353.246V66.0235H355.794ZM354.519 45.8943L354.521 45.8943L354.52 43.3462L354.518 43.3462L354.519 45.8943ZM353.244 36.8372V44.6202H355.792V36.8372H353.244ZM350.129 34.2496L353.617 37.7382L355.419 35.9363L351.931 32.4478L350.129 34.2496ZM352.003 29.7259C349.642 29.7259 348.459 32.5803 350.129 34.2496L351.931 32.4478C351.914 32.4311 351.907 32.4195 351.904 32.4143C351.902 32.4088 351.9 32.4039 351.899 32.3986C351.897 32.3867 351.897 32.3642 351.909 32.3369C351.92 32.3096 351.936 32.2935 351.946 32.2866C351.95 32.2835 351.954 32.2811 351.96 32.2792C351.966 32.2775 351.979 32.2741 352.003 32.2741V29.7259Z" fill="black" mask="url(#path-42-outside-10_7138_115044)"/>
<path d="M446.558 45.5161L428.707 49.7743C425.448 50.5519 422.167 48.5416 421.379 45.2841L421.05 43.9223C420.081 39.913 422.567 35.8817 426.603 34.9189L443.048 30.9961L446.558 45.5161Z" fill="#AF9EFF"/>
<path d="M426.61 34.9157L474.116 23.5833C478.152 22.6205 482.211 25.0905 483.18 29.0998L495.466 79.9199C496.435 83.9292 493.949 87.9605 489.912 88.9233L457.023 96.7688C452.987 97.7316 448.929 95.2616 447.96 91.2523L435.674 40.4322C434.704 36.4229 430.646 33.9529 426.61 34.9157Z" fill="white"/>
<mask id="path-46-outside-11_7138_115044" maskUnits="userSpaceOnUse" x="418.647" y="21.3789" width="90" height="77" fill="black">
<rect fill="white" x="418.647" y="21.3789" width="90" height="77"/>
<path fill-rule="evenodd" clip-rule="evenodd" d="M474.121 23.587L426.615 34.9194C426.669 34.9063 426.724 34.8939 426.779 34.8821L426.614 34.9214C422.578 35.8842 420.091 39.9155 421.061 43.9248L421.39 45.2866C422.177 48.5441 425.458 50.5544 428.718 49.7768L437.434 47.6977L447.964 91.256C448.934 95.2653 452.992 97.7353 457.028 96.7725L457.281 96.7122C457.199 96.7347 457.116 96.7559 457.032 96.7758L500.884 86.3151C504.921 85.3523 507.407 81.321 506.438 77.3117L505.422 73.1109C505.256 72.4237 504.564 71.9997 503.877 72.1637L494.155 74.4827L483.185 29.1035C482.215 25.0942 478.157 22.6242 474.121 23.587Z"/>
</mask>
<path d="M426.615 34.9194L426.912 36.1644L426.318 33.6743L426.615 34.9194ZM474.121 23.587L474.418 24.8321L474.418 24.8321L474.121 23.587ZM426.779 34.8821L426.509 33.6309L427.076 36.1272L426.779 34.8821ZM426.614 34.9214L426.317 33.6763L426.317 33.6763L426.614 34.9214ZM421.061 43.9248L419.816 44.2256L419.816 44.2256L421.061 43.9248ZM421.39 45.2866L422.634 44.9858L422.634 44.9858L421.39 45.2866ZM428.718 49.7768L428.421 48.5318L428.421 48.5318L428.718 49.7768ZM437.434 47.6977L437.137 46.4527L438.378 46.1566L438.678 47.3969L437.434 47.6977ZM447.964 91.256L449.208 90.9552L449.208 90.9552L447.964 91.256ZM457.028 96.7725L457.325 98.0176L457.325 98.0176L457.028 96.7725ZM457.281 96.7122L456.984 95.4672L457.619 97.9467L457.281 96.7122ZM457.032 96.7758L457.329 98.0209L456.735 95.5308L457.032 96.7758ZM500.884 86.3151L500.587 85.0701L500.587 85.0701L500.884 86.3151ZM506.438 77.3117L505.194 77.6125L505.194 77.6125L506.438 77.3117ZM505.422 73.1109L506.667 72.8101L506.667 72.8101L505.422 73.1109ZM503.877 72.1637L504.174 73.4088L504.174 73.4088L503.877 72.1637ZM494.155 74.4827L494.452 75.7278L493.211 76.0239L492.911 74.7835L494.155 74.4827ZM483.185 29.1035L484.429 28.8028L484.429 28.8028L483.185 29.1035ZM426.318 33.6743L473.824 22.3419L474.418 24.8321L426.912 36.1644L426.318 33.6743ZM427.048 36.1334C427.003 36.1432 426.957 36.1536 426.912 36.1644L426.318 33.6743C426.381 33.6591 426.445 33.6446 426.509 33.6309L427.048 36.1334ZM426.317 33.6763L426.482 33.6371L427.076 36.1272L426.911 36.1665L426.317 33.6763ZM419.816 44.2256C418.679 39.5207 421.599 34.8019 426.317 33.6763L426.911 36.1665C423.557 36.9666 421.504 40.3103 422.305 43.6241L419.816 44.2256ZM420.146 45.5874L419.816 44.2256L422.305 43.6241L422.634 44.9858L420.146 45.5874ZM429.015 51.0219C425.069 51.9632 421.099 49.5305 420.146 45.5874L422.634 44.9858C423.256 47.5577 425.847 49.1457 428.421 48.5318L429.015 51.0219ZM437.731 48.9428L429.015 51.0219L428.421 48.5318L437.137 46.4527L437.731 48.9428ZM446.72 91.5567L436.19 47.9985L438.678 47.3969L449.208 90.9552L446.72 91.5567ZM457.325 98.0176C452.61 99.1424 447.857 96.2587 446.72 91.5567L449.208 90.9552C450.01 94.2719 453.374 96.3282 456.731 95.5274L457.325 98.0176ZM457.578 97.9573L457.325 98.0176L456.731 95.5274L456.984 95.4672L457.578 97.9573ZM457.619 97.9467C457.523 97.973 457.427 97.9977 457.329 98.0209L456.736 95.5308C456.805 95.5142 456.874 95.4965 456.942 95.4778L457.619 97.9467ZM456.735 95.5308L500.587 85.0701L501.181 87.5602L457.329 98.0209L456.735 95.5308ZM500.587 85.0701C503.942 84.27 505.995 80.9262 505.194 77.6125L507.682 77.0109C508.82 81.7159 505.9 86.4347 501.181 87.5602L500.587 85.0701ZM505.194 77.6125L504.178 73.4116L506.667 72.8101L507.682 77.0109L505.194 77.6125ZM504.178 73.4116C504.178 73.41 504.178 73.4097 504.178 73.4101C504.178 73.4105 504.178 73.4109 504.178 73.4111C504.179 73.4115 504.178 73.4106 504.176 73.4095C504.175 73.4084 504.174 73.4083 504.174 73.4084C504.174 73.4084 504.175 73.4085 504.175 73.4084C504.176 73.4084 504.175 73.4084 504.174 73.4088L503.58 70.9186C504.953 70.5909 506.335 71.4373 506.667 72.8101L504.178 73.4116ZM504.174 73.4088L494.452 75.7278L493.858 73.2376L503.58 70.9186L504.174 73.4088ZM484.429 28.8028L495.399 74.1819L492.911 74.7835L481.94 29.4043L484.429 28.8028ZM473.824 22.3419C478.539 21.2171 483.292 24.1008 484.429 28.8028L481.94 29.4043C481.139 26.0876 477.775 24.0313 474.418 24.8321L473.824 22.3419Z" fill="black" mask="url(#path-46-outside-11_7138_115044)"/>
</g>
<path fill-rule="evenodd" clip-rule="evenodd" d="M253.019 35.185C252.943 35.1744 252.879 35.1176 252.843 35.0286C252.093 32.932 250.311 31.3533 248.153 30.8605C248.045 30.8366 247.979 30.7495 247.973 30.6586C247.968 30.5678 248.023 30.4734 248.127 30.4367C250.225 29.6875 251.805 27.9063 252.282 25.7357C252.307 25.6431 252.364 25.5789 252.439 25.5592L252.438 25.5441L252.468 25.5423L252.498 25.5404L252.499 25.5556C252.576 25.5661 252.64 25.623 252.676 25.712C253.41 27.8095 255.193 29.3882 257.366 29.8801C257.474 29.904 257.54 29.9911 257.545 30.0819C257.551 30.1728 257.496 30.2672 257.391 30.3039C255.293 31.0531 253.714 32.8343 253.237 35.0048C253.212 35.0975 253.155 35.1617 253.08 35.1814L253.081 35.1965L253.051 35.1983L253.02 35.2002L253.019 35.185Z" fill="white"/>
<path fill-rule="evenodd" clip-rule="evenodd" d="M428.361 65.8027C428.287 65.8234 428.205 65.7967 428.137 65.7292C426.616 64.1023 424.353 63.3605 422.177 63.7642C422.068 63.7851 421.973 63.7313 421.932 63.6501C421.891 63.5689 421.904 63.4604 421.985 63.3854C423.613 61.8655 424.355 59.6039 423.931 57.4224C423.917 57.3276 423.944 57.2461 424.004 57.1983L423.998 57.1848L424.025 57.1711L424.052 57.1574L424.059 57.1709C424.133 57.1502 424.215 57.177 424.283 57.2444C425.79 58.8782 428.053 59.62 430.243 59.2095C430.352 59.1886 430.447 59.2424 430.488 59.3236C430.529 59.4047 430.516 59.5133 430.435 59.5883C428.807 61.1082 428.065 63.3698 428.489 65.5512C428.503 65.6461 428.476 65.7276 428.415 65.7753L428.422 65.7889L428.395 65.8026L428.368 65.8163L428.361 65.8027Z" fill="white"/>
<path fill-rule="evenodd" clip-rule="evenodd" d="M8.41004 32.2241C8.3334 32.2135 8.26917 32.1566 8.2334 32.0676C7.4837 29.971 5.70124 28.3923 3.54349 27.8996C3.43565 27.8757 3.36959 27.7885 3.36411 27.6977C3.35863 27.6069 3.41373 27.5124 3.51792 27.4758C5.61594 26.7266 7.19569 24.9453 7.67275 22.7748C7.69756 22.6822 7.75448 22.618 7.82929 22.5983L7.82838 22.5831L7.85867 22.5813L7.88897 22.5795L7.88988 22.5946C7.96652 22.6052 8.03075 22.6621 8.06652 22.7511C8.80107 24.8486 10.5835 26.4273 12.7564 26.9192C12.8643 26.943 12.9303 27.0302 12.9358 27.121C12.9413 27.2118 12.8862 27.3063 12.782 27.3429C10.684 28.0921 9.10422 29.8734 8.62717 32.0439C8.60236 32.1365 8.54543 32.2007 8.47062 32.2204L8.47154 32.2356L8.44124 32.2374L8.41095 32.2392L8.41004 32.2241Z" fill="white"/>
<path fill-rule="evenodd" clip-rule="evenodd" d="M119.629 54.305C119.559 54.2721 119.515 54.1986 119.507 54.103C119.418 51.8783 118.188 49.8399 116.276 48.7259C116.18 48.671 116.143 48.5681 116.165 48.4798C116.187 48.3915 116.268 48.3178 116.378 48.3139C118.604 48.2247 120.644 46.9959 121.748 45.0666C121.799 44.9856 121.873 44.9413 121.95 44.9448L121.953 44.9301L121.983 44.9374L122.012 44.9447L122.009 44.9594C122.079 44.9924 122.123 45.0658 122.131 45.1614C122.205 47.3824 123.435 49.4209 125.362 50.5385C125.457 50.5935 125.494 50.6963 125.473 50.7847C125.451 50.873 125.37 50.9467 125.259 50.9506C123.033 51.0398 120.994 52.2686 119.89 54.1978C119.838 54.2788 119.765 54.3231 119.688 54.3196L119.684 54.3343L119.655 54.327L119.625 54.3197L119.629 54.305Z" fill="white"/>
<path fill-rule="evenodd" clip-rule="evenodd" d="M371.649 29.1175C371.579 29.0846 371.535 29.0111 371.527 28.9155C371.438 26.6908 370.209 24.6524 368.296 23.5384C368.201 23.4835 368.164 23.3806 368.185 23.2923C368.207 23.204 368.288 23.1303 368.399 23.1264C370.625 23.0372 372.665 21.8084 373.768 19.8791C373.82 19.7981 373.893 19.7538 373.97 19.7573L373.974 19.7426L374.003 19.7499L374.033 19.7572L374.029 19.7719C374.099 19.8049 374.144 19.8783 374.151 19.9739C374.226 22.1949 375.455 24.2334 377.382 25.351C377.478 25.406 377.515 25.5088 377.493 25.5972C377.471 25.6855 377.39 25.7592 377.28 25.7631C375.054 25.8523 373.014 27.0811 371.91 29.0103C371.859 29.0913 371.786 29.1356 371.708 29.1321L371.705 29.1468L371.675 29.1395L371.646 29.1322L371.649 29.1175Z" fill="white"/>
</g>
<defs>
<clipPath id="clip0_7138_115044">
<rect width="436" height="120" fill="white" transform="translate(0 0.71875)"/>
</clipPath>
<clipPath id="clip1_7138_115044">
<rect width="550" height="120" fill="white" transform="translate(-57 0.71875)"/>
</clipPath>
</defs>
</svg>
