<svg width="436" height="121" viewBox="0 0 436 121" fill="none" xmlns="http://www.w3.org/2000/svg">
<g clip-path="url(#clip0_7138_115019)">
<rect width="436" height="120" transform="translate(0 0.71875)" fill="#2A8D5C"/>
<g clip-path="url(#clip1_7138_115019)">
<rect width="436" height="120" transform="translate(0 0.71875)" fill="#2A8D5C"/>
<g opacity="0.2">
<path d="M15.05 115.972C33.3537 120.877 52.1675 110.014 57.0719 91.7108C61.9764 73.4072 51.1142 54.5933 32.8106 49.6889C14.507 44.7844 -4.30689 55.6466 -9.21133 73.9502C-14.1158 92.2539 -3.25358 111.068 15.05 115.972Z" fill="#31A26A"/>
<path d="M14.9599 116.309C-3.5003 111.363 -14.4954 92.3188 -9.54899 73.8586C-4.6026 55.3985 14.4414 44.4034 32.9016 49.3498C51.3618 54.2962 62.3569 73.3402 57.4105 91.8004C52.4641 110.261 33.4201 121.256 14.9599 116.309ZM32.721 50.024C14.6327 45.1772 -4.02552 55.9496 -8.87226 74.0378C-13.719 92.1261 -2.94667 110.784 15.1416 115.631C33.2299 120.478 51.8881 109.705 56.7348 91.6172C61.581 73.5309 50.8093 54.8707 32.721 50.024Z" fill="black"/>
<path d="M-10.3898 83.0504C-10.4077 80.0464 -10.0276 76.9892 -9.21231 73.9463C-4.30801 55.6433 14.5065 44.7807 32.8096 49.685C48.4497 53.8757 58.6552 68.2211 58.2371 83.7274L-10.3898 83.0504Z" fill="#31A26A"/>
<path d="M39.6396 92.1412C41.9466 91.7107 43.5607 89.9892 43.2448 88.296C42.9288 86.6028 40.8025 85.5792 38.4955 86.0096C36.1885 86.4401 34.5745 88.1617 34.8904 89.8548C35.2063 91.548 37.3326 92.5717 39.6396 92.1412Z" fill="#F8AFDB"/>
<path d="M9.05663 97.8443C11.3636 97.4139 12.9777 95.6923 12.6618 93.9991C12.3458 92.3059 10.2195 91.2823 7.91253 91.7128C5.60554 92.1432 3.99147 93.8648 4.3074 95.558C4.62333 97.2512 6.74964 98.2748 9.05663 97.8443Z" fill="#F8AFDB"/>
<path d="M31.0149 86.5328C26.9757 90.6602 20.8316 91.8066 15.5758 89.4136C15.044 89.1718 14.8018 88.606 15.0208 88.1996C15.2399 87.7931 15.7795 87.6654 16.2352 87.8724C20.8675 89.9818 26.2819 88.9716 29.8417 85.3335C30.1945 84.9757 30.7411 84.8983 31.0924 85.2008C31.4433 85.5009 31.4214 86.1159 31.0126 86.5332L31.0149 86.5328Z" fill="black"/>
<path d="M38.4071 85.3027C40.828 84.8509 42.4157 82.4763 41.9534 79.9987C41.4911 77.5211 39.1538 75.8788 36.733 76.3305C34.3121 76.7823 32.7244 79.1569 33.1867 81.6345C33.649 84.1121 35.9862 85.7544 38.4071 85.3027Z" fill="black"/>
<path d="M36.7526 82.3732C37.8491 82.1686 38.5683 81.093 38.3589 79.9707C38.1495 78.8485 37.0908 78.1046 35.9943 78.3092C34.8977 78.5138 34.1785 79.5894 34.3879 80.7117C34.5973 81.8339 35.656 82.5778 36.7526 82.3732Z" fill="white"/>
<path d="M40.3813 81.3273C40.4145 81.5051 40.3005 81.6785 40.1243 81.7114C39.9482 81.7442 39.7798 81.626 39.7461 81.4459C39.7125 81.2657 39.827 81.0947 40.0031 81.0618C40.1793 81.029 40.3477 81.1472 40.3813 81.3273Z" fill="white"/>
<path d="M38.9969 83.9134C39.4281 83.8329 39.7109 83.4099 39.6286 82.9686C39.5462 82.5273 39.1299 82.2348 38.6987 82.3153C38.2675 82.3957 37.9847 82.8187 38.0671 83.26C38.1494 83.7013 38.5657 83.9938 38.9969 83.9134Z" fill="white"/>
<path d="M7.36119 91.0956C9.78205 90.6439 11.3698 88.2692 10.9075 85.7917C10.4452 83.3141 8.10794 81.6718 5.68707 82.1235C3.26621 82.5752 1.67847 84.9499 2.14077 87.4275C2.60306 89.905 4.94032 91.5473 7.36119 91.0956Z" fill="black"/>
<path d="M5.70766 88.1662C6.80422 87.9616 7.5234 86.886 7.314 85.7637C7.1046 84.6415 6.04591 83.8976 4.94936 84.1022C3.8528 84.3068 3.13362 85.3824 3.34302 86.5047C3.55242 87.6269 4.61111 88.3708 5.70766 88.1662Z" fill="white"/>
<path d="M38.4071 85.3027C40.828 84.8509 42.4157 82.4763 41.9534 79.9987C41.4911 77.5211 39.1538 75.8788 36.733 76.3305C34.3121 76.7823 32.7244 79.1569 33.1867 81.6345C33.649 84.1121 35.9862 85.7544 38.4071 85.3027Z" fill="black"/>
<path d="M36.7526 82.3732C37.8491 82.1686 38.5683 81.093 38.3589 79.9707C38.1495 78.8485 37.0908 78.1046 35.9943 78.3092C34.8977 78.5138 34.1785 79.5894 34.3879 80.7117C34.5973 81.8339 35.656 82.5778 36.7526 82.3732Z" fill="white"/>
<path d="M40.3813 81.3273C40.4145 81.5051 40.3005 81.6785 40.1243 81.7114C39.9482 81.7442 39.7798 81.626 39.7461 81.4459C39.7125 81.2657 39.827 81.0947 40.0031 81.0618C40.1793 81.029 40.3477 81.1472 40.3813 81.3273Z" fill="white"/>
<path d="M38.9969 83.9134C39.4281 83.8329 39.7109 83.4099 39.6286 82.9686C39.5462 82.5273 39.1299 82.2348 38.6987 82.3153C38.2675 82.3957 37.9847 82.8187 38.0671 83.26C38.1494 83.7013 38.5657 83.9938 38.9969 83.9134Z" fill="white"/>
<path d="M7.36119 91.0956C9.78205 90.6439 11.3698 88.2692 10.9075 85.7917C10.4452 83.3141 8.10794 81.6718 5.68707 82.1235C3.26621 82.5752 1.67847 84.9499 2.14077 87.4275C2.60306 89.905 4.94032 91.5473 7.36119 91.0956Z" fill="black"/>
<path d="M5.70766 88.1662C6.80422 87.9616 7.5234 86.886 7.314 85.7637C7.1046 84.6415 6.04591 83.8976 4.94936 84.1022C3.8528 84.3068 3.13362 85.3824 3.34302 86.5047C3.55242 87.6269 4.61111 88.3708 5.70766 88.1662Z" fill="white"/>
<path d="M9.33641 87.1164C9.36959 87.2942 9.2556 87.4676 9.07942 87.5004C8.90323 87.5333 8.73484 87.4151 8.70122 87.2349C8.66761 87.0548 8.78203 86.8838 8.95822 86.8509C9.1344 86.818 9.30279 86.9362 9.33641 87.1164Z" fill="white"/>
<path d="M7.95395 89.7063C8.38515 89.6259 8.66795 89.2029 8.58561 88.7616C8.50327 88.3203 8.08696 88.0278 7.65576 88.1082C7.22456 88.1887 6.94175 88.6117 7.0241 89.053C7.10644 89.4943 7.52275 89.7868 7.95395 89.7063Z" fill="white"/>
<path d="M-10.48 83.3875C-10.6291 83.3475 -10.7377 83.2118 -10.7395 83.0515C-10.758 79.9621 -10.3573 76.8678 -9.54997 73.8547C-4.60358 55.3945 14.4405 44.3995 32.9007 49.3459C40.5795 51.4034 47.1236 55.8662 51.8277 62.2553C56.3927 68.4558 58.7931 76.0842 58.5864 83.7367C58.5817 83.9295 58.4213 84.0826 58.2266 84.0773C58.0339 84.0726 57.8808 83.9122 57.886 83.7175C58.3129 67.9642 47.9632 54.1088 32.7189 50.0241C14.6306 45.1773 -4.02756 55.9496 -8.8743 74.0379C-9.66513 76.9893 -10.0578 80.0218 -10.0398 83.0493C-10.0385 83.2436 -10.1935 83.4003 -10.3878 83.4015C-10.4192 83.3995 -10.4501 83.3955 -10.48 83.3875Z" fill="black"/>
<path d="M45.7703 69.8184C46.0346 70.4072 46.3099 71.0501 46.8683 71.3767C47.2111 71.5772 47.6192 71.629 48.0156 71.6372C49.4231 71.6669 50.9931 71.026 51.452 69.6952C51.953 68.2393 50.952 66.7326 50.0055 65.5155C48.2123 63.2104 43.3986 56.5062 39.8294 58.6258C37.0335 60.2853 40.3287 62.1638 41.5915 63.521C43.3144 65.3725 44.7348 67.5095 45.7703 69.8184Z" fill="white"/>
<path d="M49.4167 73.4219C48.8702 73.544 48.2908 73.7256 47.9557 74.1729C47.7503 74.4462 47.6611 74.7868 47.5926 75.1223C47.4749 75.7047 47.412 76.2974 47.4045 76.8901C47.4006 77.2707 47.4195 77.6615 47.5715 78.0092C47.8672 78.6874 48.5842 79.0586 49.1831 79.4962C49.4007 79.6547 49.6135 79.8311 49.8625 79.9362C50.5082 80.2072 51.2851 79.9251 51.7701 79.4199C52.255 78.9146 52.5043 78.231 52.6914 77.5564C52.8259 77.0703 52.9372 76.5757 53.0215 76.0781C53.1196 75.4969 53.1824 74.8807 52.9624 74.3336C52.3601 72.8186 50.6635 73.1442 49.4167 73.4219Z" fill="white"/>
</g>
<path d="M309.229 -7.71488C315.282 -25.6715 305.632 -45.135 287.676 -51.1879C269.719 -57.2407 250.256 -47.5909 244.203 -29.6344C238.15 -11.6778 247.8 7.78575 265.756 13.8386C283.713 19.8915 303.177 10.2417 309.229 -7.71488Z" fill="#31A26A"/>
<path d="M309.561 -7.60422C303.457 10.506 283.755 20.2739 265.645 14.1692C247.535 8.06453 237.767 -11.6371 243.871 -29.7473C249.976 -47.8575 269.678 -57.6254 287.788 -51.5207C305.898 -45.416 315.666 -25.7144 309.561 -7.60422ZM244.533 -29.5243C238.551 -11.779 248.121 7.52348 265.866 13.5052C283.612 19.4868 302.914 9.91683 308.896 -7.82849C314.878 -25.5738 305.308 -44.8763 287.562 -50.858C269.819 -56.839 250.514 -47.2697 244.533 -29.5243Z" fill="black"/>
<path d="M274.765 15.5899C271.766 15.4177 268.739 14.8449 265.753 13.8386C247.797 7.78593 238.147 -11.6783 244.2 -29.6344C249.372 -44.9779 264.335 -54.2552 279.783 -52.8566L274.765 15.5899Z" fill="#31A26A"/>
<path d="M275.097 15.7006C275.047 15.8469 274.905 15.9467 274.745 15.9383C271.661 15.7613 268.598 15.1656 265.642 14.1692C247.532 8.06453 237.764 -11.6371 243.868 -29.7473C246.408 -37.2805 251.276 -43.5291 257.95 -47.8195C264.427 -51.983 272.192 -53.8958 279.816 -53.2053C280.008 -53.1884 280.151 -53.0186 280.133 -52.8246C280.116 -52.6326 279.946 -52.4899 279.752 -52.5075C264.058 -53.9304 249.575 -44.4783 244.534 -29.523C238.552 -11.7777 248.122 7.52479 265.867 13.5065C268.763 14.4825 271.764 15.0662 274.787 15.2399C274.981 15.2509 275.128 15.4155 275.116 15.6095C275.112 15.6407 275.106 15.6713 275.097 15.7006Z" fill="black"/>
<path d="M295.995 -23.6311C294.016 -25.0089 291.295 -24.5226 289.917 -22.5438C286.014 -16.9393 276.935 -12.7107 270.092 -13.3115C267.691 -13.5216 265.571 -11.7455 265.361 -9.34465C265.149 -6.94275 266.927 -4.82441 269.328 -4.61438C274.279 -4.1799 279.799 -5.3822 284.791 -7.70778C289.787 -10.0354 294.253 -13.4899 297.083 -17.5533C298.462 -19.5331 297.974 -22.2533 295.995 -23.6311Z" fill="#FF2F18"/>
<path d="M288.111 -9.05829C287.095 -8.45812 286.036 -7.8992 284.941 -7.38854C279.704 -4.94702 274.148 -3.83822 269.3 -4.26424C268.046 -4.37473 266.907 -4.96681 266.098 -5.93098C265.288 -6.89691 264.904 -8.11883 265.014 -9.37271C265.125 -10.6266 265.718 -11.7639 266.682 -12.5728C267.648 -13.3827 268.87 -13.7675 270.124 -13.657C276.858 -13.066 285.791 -17.2253 289.631 -22.7396C290.351 -23.7722 291.429 -24.4644 292.671 -24.6863C293.911 -24.9071 295.163 -24.6332 296.196 -23.9136C298.329 -22.4285 298.857 -19.4831 297.37 -17.349C295.177 -14.2044 291.958 -11.3312 288.111 -9.05829ZM267.676 -12.4237C267.487 -12.3117 267.305 -12.1826 267.132 -12.0376C266.31 -11.3485 265.805 -10.3808 265.712 -9.31187C265.619 -8.2429 265.947 -7.20253 266.636 -6.38042C267.325 -5.55831 268.293 -5.05387 269.362 -4.96087C274.09 -4.54484 279.518 -5.63369 284.645 -8.02227C289.778 -10.414 294.094 -13.8681 296.797 -17.7519C298.063 -19.5686 297.613 -22.0774 295.797 -23.3428C294.915 -23.9558 293.85 -24.1893 292.794 -24.0008C291.738 -23.8123 290.819 -23.2235 290.206 -22.3423C286.24 -16.6485 277.015 -12.3506 270.063 -12.9614C269.218 -13.0359 268.392 -12.8469 267.676 -12.4237Z" fill="black"/>
<path d="M177.447 -44.5397C177.271 -45.0032 177.086 -45.4594 176.892 -45.9165C174.01 -52.685 169.212 -58.2939 163.388 -61.7132C156.541 -65.732 148.674 -66.6775 140.638 -64.4503C125.633 -60.2883 112.206 -50.8528 102.713 -37.8231C102.534 -38.0413 102.358 -38.2575 102.185 -38.4783C90.21 -53.5738 86.2571 -69.0062 90.7555 -83.1071C96.1002 -99.8631 113.264 -113.929 136.665 -120.737C141.541 -122.156 144.342 -127.252 142.923 -132.126C141.502 -136.994 136.4 -139.798 131.523 -138.381C117.353 -134.262 104.607 -127.693 94.6647 -119.393C84.2882 -110.728 76.8763 -100.113 73.2333 -88.6938C70.1027 -78.882 69.708 -68.66 72.0555 -58.3169C74.4674 -47.6923 79.7576 -37.18 87.7763 -27.0716C89.5091 -24.8875 91.4448 -22.761 93.5455 -20.7203C90.4487 -12.2258 89.2613 -3.48778 90.2281 4.65001C91.5328 15.6635 96.621 25.064 104.939 31.8423C113.801 39.0644 125.839 42.9918 140.72 43.518C165.577 44.3993 184.685 51.7729 195.983 64.8415C207.614 78.2985 208.583 94.3594 207.35 105.464C206.189 115.911 199.416 125.119 188.278 131.394C166.751 143.522 134.842 141.96 102.921 127.214C99.6032 125.681 95.6349 123.629 91.4299 121.453C87.7109 119.527 83.8245 117.517 79.8396 115.564C83.3513 99.081 80.7768 82.5568 72.5351 68.8556C58.2426 45.0969 39.0876 42.2159 23.6996 39.8998C7.65084 37.4859 -3.94464 35.7404 -13.0782 14.3026C-15.0662 9.63337 -20.4679 7.4588 -25.1405 9.44385C-29.8131 11.4289 -31.98 16.8262 -30 21.4945C-24.1668 35.188 -16.3502 44.6221 -6.10698 50.3411C2.86196 55.3472 12.0651 56.7303 20.965 58.0698C35.4809 60.2522 46.9449 61.9778 56.7743 78.3169C62.0583 87.1012 63.7745 97.6993 62.3971 107.996C50.0164 103.533 37.6401 101.476 27.1416 105.775C18.7982 109.191 12.908 116.023 9.63264 126.076C5.97191 137.316 9.6244 148.697 19.1664 155.781C23.8245 159.24 29.5871 161.355 35.394 161.743C41.8399 162.17 47.9264 160.532 53.004 157.003C61.5646 151.051 68.6814 142.696 73.6421 133.011C76.9457 134.65 80.1001 136.283 82.9779 137.77C87.3715 140.044 91.5192 142.191 95.2118 143.895C114.665 152.879 133.848 157.577 152.234 157.854C169.139 158.108 184.729 154.495 197.319 147.402C205.285 142.913 211.793 137.217 216.659 130.471C221.695 123.49 224.714 115.76 225.633 107.499C227.951 86.6617 222.365 67.2499 209.907 52.8327C202.724 44.5248 193.407 37.9513 182.214 33.3009C170.523 28.4407 156.783 25.7008 141.375 25.1539C121.828 24.4616 110.151 16.4099 108.502 2.49233C108.075 -1.09672 108.334 -4.96124 109.212 -8.89811C113.464 -6.4153 117.926 -4.30646 122.442 -2.68998C138.327 3.00274 153.468 2.36613 165.069 -4.48409C172.254 -8.7264 177.233 -15.6121 179.091 -23.8691C180.594 -30.5551 180.016 -37.8419 177.468 -44.544L177.447 -44.5397ZM116.714 -25.7872C123.183 -35.2239 133.106 -43.2881 145.561 -46.742C154.683 -49.2724 158.897 -41.2437 159.972 -38.7211C162.576 -32.6054 162.351 -24.2287 155.691 -20.2976C146.507 -14.875 134.795 -17.7725 128.628 -19.9821C124.525 -21.4529 120.486 -23.4359 116.717 -25.7885L116.714 -25.7872ZM27.0574 137.235C26.4388 135.608 26.4539 133.783 27.1079 131.773C29.1741 125.439 32.0924 123.608 34.11 122.781C39.6038 120.531 47.9357 122.271 56.7782 125.549C53.3489 132.017 48.5298 137.723 42.4873 141.924C38.7 144.556 33.3983 143.47 30.118 141.037C28.6174 139.922 27.5963 138.652 27.0574 137.235Z" fill="#31A26A"/>
<g opacity="0.2">
<path d="M420.463 74.4135C438.767 79.318 457.581 68.4558 462.485 50.1522C467.389 31.8486 456.527 13.0347 438.224 8.13028C419.92 3.22584 401.106 14.088 396.202 32.3916C391.297 50.6953 402.16 69.5091 420.463 74.4135Z" fill="#31A26A"/>
<path d="M420.373 74.7507C401.913 69.8043 390.918 50.7602 395.864 32.3001C400.81 13.8399 419.855 2.84479 438.315 7.79119C456.775 12.7376 467.77 31.7816 462.824 50.2418C457.877 68.702 438.833 79.6971 420.373 74.7507ZM438.134 8.4654C420.046 3.61866 401.388 14.391 396.541 32.4792C391.694 50.5675 402.466 69.2257 420.555 74.0725C438.643 78.9192 457.301 68.1469 462.148 50.0586C466.994 31.9723 456.222 13.3121 438.134 8.4654Z" fill="black"/>
<path d="M395.023 41.4918C395.005 38.4878 395.385 35.4306 396.201 32.3877C401.105 14.0847 419.92 3.22208 438.223 8.12637C453.863 12.3171 464.068 26.6625 463.65 42.1688L395.023 41.4918Z" fill="#31A26A"/>
<path d="M414.47 56.2857C416.777 55.8553 418.391 54.1337 418.075 52.4405C417.759 50.7473 415.633 49.7237 413.326 50.1542C411.019 50.5846 409.405 52.3062 409.72 53.9994C410.036 55.6926 412.163 56.7162 414.47 56.2857Z" fill="#F8AFDB"/>
<path d="M436.428 44.9742C432.389 49.1016 426.245 50.248 420.989 47.855C420.457 47.6132 420.215 47.0474 420.434 46.641C420.653 46.2345 421.193 46.1069 421.648 46.3138C426.281 48.4232 431.695 47.413 435.255 43.7749C435.608 43.4171 436.154 43.3397 436.505 43.6422C436.856 43.9423 436.834 44.5573 436.426 44.9746L436.428 44.9742Z" fill="black"/>
<path d="M412.774 49.537C415.195 49.0853 416.783 46.7106 416.321 44.2331C415.858 41.7555 413.521 40.1132 411.1 40.5649C408.679 41.0166 407.092 43.3913 407.554 45.8689C408.016 48.3464 410.353 49.9887 412.774 49.537Z" fill="black"/>
<path d="M411.121 46.6076C412.217 46.403 412.936 45.3274 412.727 44.2051C412.518 43.0829 411.459 42.339 410.362 42.5436C409.266 42.7482 408.547 43.8238 408.756 44.9461C408.966 46.0683 410.024 46.8122 411.121 46.6076Z" fill="white"/>
<path d="M412.774 49.537C415.195 49.0853 416.783 46.7106 416.321 44.2331C415.858 41.7555 413.521 40.1132 411.1 40.5649C408.679 41.0166 407.092 43.3913 407.554 45.8689C408.016 48.3464 410.353 49.9887 412.774 49.537Z" fill="black"/>
<path d="M411.121 46.6076C412.217 46.403 412.936 45.3274 412.727 44.2051C412.518 43.0829 411.459 42.339 410.362 42.5436C409.266 42.7482 408.547 43.8238 408.756 44.9461C408.966 46.0683 410.024 46.8122 411.121 46.6076Z" fill="white"/>
<path d="M414.749 45.5578C414.783 45.7356 414.669 45.909 414.493 45.9418C414.316 45.9747 414.148 45.8565 414.114 45.6763C414.081 45.4962 414.195 45.3252 414.371 45.2923C414.547 45.2594 414.716 45.3776 414.749 45.5578Z" fill="white"/>
<path d="M413.367 48.1477C413.798 48.0673 414.081 47.6443 413.999 47.203C413.916 46.7617 413.5 46.4692 413.069 46.5496C412.638 46.6301 412.355 47.0531 412.437 47.4944C412.52 47.9357 412.936 48.2282 413.367 48.1477Z" fill="white"/>
<path d="M394.933 41.8289C394.784 41.7889 394.675 41.6533 394.674 41.4929C394.655 38.4035 395.056 35.3092 395.863 32.2962C400.81 13.836 419.854 2.84089 438.314 7.78728C445.993 9.84481 452.537 14.3076 457.241 20.6967C461.806 26.8972 464.206 34.5256 464 42.1782C463.995 42.3709 463.834 42.524 463.64 42.5187C463.447 42.514 463.294 42.3536 463.299 42.1589C463.726 26.4056 453.376 12.5502 438.132 8.46547C420.044 3.61873 401.386 14.391 396.539 32.4793C395.748 35.4307 395.355 38.4632 395.373 41.4907C395.375 41.685 395.22 41.8417 395.025 41.8429C394.994 41.8409 394.963 41.8369 394.933 41.8289Z" fill="black"/>
</g>
<path d="M28.0619 -82.7911C24.951 -83.0494 21.7315 -81.8822 19.7034 -79.1784L15.756 -73.9086C14.0551 -71.641 11.4261 -70.2321 8.51209 -69.7329C8.47899 -69.7295 8.44141 -69.7208 8.40831 -69.7174C5.46072 -69.2086 2.41095 -69.6945 -0.116249 -71.2818L-5.93706 -74.9259C-11.8962 -78.6759 -19.8156 -75.1737 -20.4126 -68.5278L-21.0007 -61.9656C-21.2533 -59.1886 -22.7541 -56.7168 -24.9858 -54.9256L-25.0539 -54.8709C-27.2861 -53.0736 -30.1208 -52.0656 -33.0829 -52.2683L-40.0691 -52.7399C-47.1646 -53.2118 -52.0854 -46.4196 -49.0624 -40.3131L-46.1174 -34.3382C-44.8503 -31.7685 -44.8173 -28.8773 -45.8022 -26.2413C-45.8188 -26.1933 -45.8405 -26.1491 -45.8636 -26.1016C-46.8333 -23.4953 -48.6989 -21.2798 -51.3293 -20.0652L-57.5154 -17.2131C-63.8368 -14.2915 -64.4329 -6.01547 -58.6046 -2.09107L-52.9005 1.74841C-50.4753 3.38279 -48.9426 5.88056 -48.3642 8.61544C-48.3547 8.66564 -48.3396 8.71284 -48.3236 8.76358C-47.7278 11.5308 -48.1745 14.3822 -49.7945 16.7121L-53.5609 22.1417C-57.4159 27.6771 -53.5267 35.2071 -46.4541 35.9056L-39.4834 36.593C-36.528 36.8878 -33.8713 38.3518 -31.9226 40.4902L-31.8631 40.5554C-29.9079 42.6943 -28.7789 45.3845 -28.9336 48.1697L-29.2912 54.7389C-29.653 61.4044 -22.3298 66.1782 -15.9049 63.4628L-9.61702 60.8001C-6.91959 59.659 -3.84223 59.6878 -1.0217 60.6694C-0.970334 60.686 -0.922999 60.7073 -0.87207 60.7301C1.91668 61.6967 4.30782 63.5109 5.65207 66.0129L8.80979 71.8848C12.0433 77.8977 20.8411 78.6282 24.8972 73.2207L28.8582 67.94C30.5447 65.6897 33.1549 64.2846 36.0485 63.796C36.1016 63.7881 36.1642 63.7759 36.2178 63.7618C39.1388 63.257 42.1709 63.7356 44.6794 65.309L50.5113 68.9781C56.4709 72.7219 64.3907 69.2139 64.9876 62.568L65.5749 56.0178C65.8275 53.2408 67.3283 50.769 69.56 48.9778L69.6281 48.9231C71.8603 47.1257 74.6951 46.1178 77.6571 46.3205L84.6561 46.7932C91.7446 47.2706 96.6659 40.4723 93.6494 34.3663L90.6916 28.3904C89.4245 25.8207 89.3915 22.9295 90.3765 20.2935C90.3931 20.2455 90.4147 20.2013 90.4379 20.1538C91.4075 17.5475 93.2859 15.333 95.9163 14.1185L102.09 11.2653C108.431 8.34528 109.027 0.0633891 103.205 -3.86661L97.5139 -7.70503C95.0886 -9.33941 93.5424 -11.8262 92.964 -14.5611C92.9545 -14.6113 92.9402 -14.6705 92.9242 -14.7213C92.328 -17.4823 92.7742 -20.3279 94.3942 -22.6578L98.1725 -28.0744C102.028 -33.6097 98.1383 -41.1397 91.0657 -41.8382L84.0823 -42.5267C81.1269 -42.8215 78.4701 -44.2855 76.5214 -46.4239L76.462 -46.4891C74.5067 -48.628 73.3778 -51.3182 73.5324 -54.1034L73.8909 -60.6846C74.2471 -67.3629 66.93 -72.13 60.5047 -69.4085L54.2176 -66.7578C51.5202 -65.6167 48.4428 -65.6455 45.6223 -66.6271C45.5709 -66.6437 45.5236 -66.665 45.4727 -66.6878C42.6839 -67.6544 40.2919 -69.4566 38.9477 -71.9586L35.7908 -77.8425C34.174 -80.8489 31.1727 -82.5328 28.0619 -82.7911Z" fill="#C6BBFC"/>
<path d="M452.158 -106.108C449.047 -106.366 445.827 -105.199 443.799 -102.495L439.852 -97.225C438.151 -94.9574 435.522 -93.5485 432.608 -93.0493C432.575 -93.0459 432.537 -93.0372 432.504 -93.0338C429.556 -92.525 426.507 -93.0109 423.979 -94.5982L418.159 -98.2423C412.199 -101.992 404.28 -98.4901 403.683 -91.8442L403.095 -85.282C402.842 -82.505 401.342 -80.0332 399.11 -78.242L399.042 -78.1873C396.81 -76.39 393.975 -75.382 391.013 -75.5848L384.027 -76.0563C376.931 -76.5282 372.01 -69.736 375.033 -63.6295L377.978 -57.6546C379.245 -55.0849 379.278 -52.1937 378.293 -49.5577C378.277 -49.5097 378.255 -49.4655 378.232 -49.4181C377.262 -46.8117 375.397 -44.5962 372.766 -43.3816L366.58 -40.5295C360.259 -37.6079 359.663 -29.3319 365.491 -25.4075L371.195 -21.568C373.62 -19.9336 375.153 -17.4358 375.731 -14.701C375.741 -14.6508 375.756 -14.6036 375.772 -14.5528C376.368 -11.7856 375.921 -8.93424 374.301 -6.60428L370.535 -1.17467C366.68 4.36069 370.569 11.8907 377.642 12.5892L384.612 13.2766C387.568 13.5714 390.224 15.0354 392.173 17.1738L392.233 17.239C394.188 19.3779 395.317 22.0681 395.162 24.8533L394.804 31.4225C394.443 38.088 401.766 42.8618 408.191 40.1464L414.479 37.4837C417.176 36.3426 420.253 36.3714 423.074 37.353C423.125 37.3696 423.173 37.3909 423.224 37.4137C426.012 38.3803 428.404 40.1945 429.748 42.6965L432.905 48.5684C436.139 54.5812 444.937 55.3118 448.993 49.9043L452.954 44.6236C454.64 42.3733 457.251 40.9682 460.144 40.4796C460.197 40.4717 460.26 40.4595 460.314 40.4454C463.235 39.9406 466.267 40.4192 468.775 41.9926L474.607 45.6617C480.567 49.4055 488.486 45.8975 489.083 39.2515L489.671 32.7014C489.923 29.9244 491.424 27.4526 493.656 25.6613L493.724 25.6067C495.956 23.8093 498.791 22.8014 501.753 23.0041L508.752 23.4768C515.84 23.9542 520.762 17.1559 517.745 11.0499L514.787 5.07397C513.52 2.50425 513.487 -0.386952 514.472 -3.0229C514.489 -3.07092 514.51 -3.11507 514.534 -3.16256C515.503 -5.76889 517.382 -7.9834 520.012 -9.19795L526.185 -12.0511C532.526 -14.9711 533.122 -23.253 527.301 -27.183L521.61 -31.0214C519.184 -32.6558 517.638 -35.1427 517.06 -37.8775C517.05 -37.9277 517.036 -37.9869 517.02 -38.0377C516.424 -40.7987 516.87 -43.6443 518.49 -45.9742L522.268 -51.3908C526.123 -56.9261 522.234 -64.4561 515.161 -65.1546L508.178 -65.8431C505.223 -66.1379 502.566 -67.6019 500.617 -69.7403L500.558 -69.8055C498.602 -71.9444 497.474 -74.6346 497.628 -77.4198L497.987 -84.001C498.343 -90.6793 491.026 -95.4464 484.6 -92.7249L478.313 -90.0742C475.616 -88.9331 472.539 -88.9619 469.718 -89.9435C469.667 -89.9601 469.619 -89.9814 469.568 -90.0042C466.78 -90.9708 464.388 -92.773 463.043 -95.275L459.886 -101.159C458.27 -104.165 455.268 -105.849 452.158 -106.108Z" fill="#31A26A"/>
<path d="M399.538 -64.9494C400.049 -65.0888 400.559 -65.216 401.075 -65.3368C408.734 -67.1049 416.595 -66.4904 423.211 -63.6116C430.988 -60.2275 436.753 -54.0289 439.885 -45.6886C445.73 -30.1129 446.028 -12.5832 440.748 3.80975C441.049 3.82773 441.346 3.843 441.646 3.85352C462.214 4.69904 478.027 -1.59494 487.373 -14.3494C498.481 -29.5047 499.83 -53.1738 490.989 -77.664C489.148 -82.7675 491.786 -88.3912 496.887 -90.2317C501.985 -92.0673 507.615 -89.4247 509.46 -84.3223C514.816 -69.4952 517.162 -54.3565 516.249 -40.5503C515.293 -26.1389 510.789 -13.0614 503.22 -2.73266C496.716 6.14262 488.138 12.9134 477.729 17.3924C467.038 21.9928 454.632 24.0373 440.859 23.4714C437.883 23.3489 434.829 23.015 431.746 22.4848C426.359 30.5022 419.56 37.0241 411.925 41.3081C401.594 47.1093 390.275 48.6287 379.19 45.7099C367.379 42.6 356.415 34.6757 346.6 22.1559C330.203 1.24611 311.817 -10.6159 293.425 -12.1513C274.488 -13.7305 260.009 -4.46431 251.195 3.58561C242.905 11.16 239.214 22.8006 240.801 36.366C243.869 62.5834 265.29 89.1557 298.104 107.444C301.514 109.345 305.783 111.481 310.306 113.743C314.309 115.743 318.489 117.835 322.682 120.047C334.707 106.647 350.595 98.4754 367.611 96.9738C397.118 94.3708 411.655 109.099 423.334 120.93C435.514 133.271 444.315 142.186 468.572 136.588C473.855 135.367 479.131 138.664 480.356 143.947C481.581 149.231 478.283 154.497 473.006 155.724C457.512 159.3 444.449 158.485 433.067 153.237C423.102 148.641 416.119 141.564 409.364 134.721C398.349 123.559 389.647 114.745 369.355 116.535C358.446 117.498 348.214 122.682 340.189 130.349C351.831 138.232 361.393 147.626 364.284 159.396C366.583 168.749 364.388 178.133 357.767 187.285C350.364 197.517 338.239 201.522 326.119 197.738C320.202 195.892 314.751 192.246 310.763 187.475C306.34 182.178 303.926 175.891 303.779 169.287C303.534 158.151 306.272 146.75 311.515 136.374C308.022 134.552 304.627 132.855 301.533 131.305C296.805 128.942 292.343 126.711 288.548 124.594C268.553 113.447 252.43 99.8371 240.625 84.1347C229.772 69.6966 223.085 53.9614 221.292 38.628C220.156 28.9252 220.982 19.7221 223.746 11.2772C226.607 2.53746 231.382 -4.93217 237.937 -10.9225C254.474 -26.0308 274.75 -33.418 295.036 -31.7295C306.728 -30.7526 318.265 -26.8422 329.322 -20.1022C340.872 -13.0639 351.881 -2.92255 362.046 10.0393C374.94 26.4833 389.237 31.5012 402.293 24.1709C405.661 22.2819 408.835 19.6277 411.683 16.393C406.864 14.283 402.236 11.7561 398 8.87372C383.091 -1.26264 374.117 -14.7377 372.735 -29.0647C371.879 -37.9374 374.693 -46.5682 380.654 -53.3669C385.482 -58.8701 392.138 -62.9551 399.528 -64.9708L399.538 -64.9494ZM421.548 -0.709056C425.627 -12.2313 426.349 -25.873 421.497 -38.8004C417.944 -48.2689 408.36 -46.8577 405.506 -46.1994C398.587 -44.6009 391.494 -39.1377 392.289 -30.9139C393.384 -19.572 403.253 -11.2811 409.04 -7.34605C412.891 -4.72758 417.144 -2.48732 421.547 -0.712791L421.548 -0.709056ZM337.171 179.258C338.965 178.768 340.531 177.607 341.855 175.779C346.026 170.01 345.771 166.338 345.216 164.076C343.703 157.916 336.959 151.816 328.567 146.242C325.138 153.272 323.242 161.023 323.416 168.883C323.525 173.809 327.798 177.704 331.962 179.006C333.869 179.601 335.608 179.684 337.171 179.258Z" fill="#C6BBFC"/>
<path d="M294.716 94.9574C313.665 94.9574 329.027 79.596 329.027 60.6467C329.027 41.6974 313.665 26.3359 294.716 26.3359C275.767 26.3359 260.405 41.6974 260.405 60.6467C260.405 79.596 275.767 94.9574 294.716 94.9574Z" fill="#F8AFDB"/>
<path d="M294.716 95.3059C275.605 95.3059 260.056 79.7566 260.056 60.6452C260.056 41.5338 275.605 25.9844 294.716 25.9844C313.828 25.9844 329.377 41.5338 329.377 60.6452C329.377 79.7566 313.828 95.3059 294.716 95.3059ZM294.716 26.6824C275.99 26.6824 260.756 41.9167 260.756 60.6431C260.756 79.3695 275.99 94.6038 294.716 94.6038C313.443 94.6038 328.677 79.3695 328.677 60.6431C328.677 41.9188 313.443 26.6824 294.716 26.6824Z" fill="black"/>
<path d="M256.43 81.144C246.302 81.144 239.114 79.1097 237.751 74.2793C234.815 63.8671 261.747 50.3891 289.866 42.4579C304.565 38.3111 318.819 35.8486 329.997 35.5253C342.508 35.1629 349.545 37.4608 350.927 42.3591C352.308 47.2574 347.505 52.8969 336.652 59.1212C326.95 64.6866 313.511 70.0337 298.812 74.1805C283.743 78.4302 268.127 81.144 256.43 81.144ZM332.456 40.0942C331.717 40.0942 330.945 40.1045 330.133 40.1292C319.32 40.4442 305.465 42.845 291.118 46.8909C259.282 55.8701 240.873 68.368 242.186 73.0275C243.5 77.6869 265.729 78.7226 297.562 69.7434C311.909 65.6975 324.978 60.5048 334.36 55.1227C344.812 49.129 346.904 45.0646 346.492 43.6068C346.111 42.2479 342.685 40.0942 332.456 40.0942Z" fill="#FFD724"/>
<path d="M256.426 81.4941C245.304 81.4941 238.729 79.0316 237.416 74.3742C236.005 69.3688 241.044 63.406 251.989 57.1344C261.504 51.6822 275.274 46.2095 289.771 42.1203C304.497 37.9674 318.78 35.4987 329.989 35.1734C342.679 34.8069 349.836 37.1912 351.267 42.2624C352.698 47.3337 347.841 53.1091 336.829 59.424C327.105 65.0017 313.639 70.3612 298.911 74.5162C283.189 78.9513 267.705 81.4941 256.432 81.4941C256.428 81.4941 256.426 81.4941 256.426 81.4941ZM332.501 35.8363C331.696 35.8363 330.866 35.8487 330.01 35.8734C318.858 36.1967 304.635 38.6551 289.963 42.7936C275.519 46.8683 261.804 52.3164 252.337 57.7418C244.921 61.9915 236.427 68.2961 238.089 74.1847C239.31 78.5086 245.652 80.794 256.426 80.794C256.428 80.794 256.428 80.794 256.43 80.794C267.641 80.794 283.057 78.2595 298.72 73.8409C313.394 69.7024 326.804 64.3655 336.479 58.8145C347.175 52.6788 351.923 47.1731 350.591 42.4498C349.352 38.058 343.27 35.8363 332.501 35.8363ZM256.068 76.8861C247.778 76.8861 242.524 75.5169 241.851 73.1244C241.114 70.5115 245.674 66.0827 254.048 61.277C263.538 55.8331 276.67 50.6033 291.025 46.5554C305.399 42.5012 319.285 40.0943 330.125 39.7793C330.924 39.7566 331.708 39.7443 332.458 39.7443C342.285 39.7443 346.344 41.7744 346.834 43.5122C347.377 45.4415 344.484 49.7221 334.54 55.4254C325.132 60.822 312.035 66.025 297.663 70.0792C283.31 74.1271 269.381 76.532 258.444 76.8491C257.624 76.8738 256.832 76.8861 256.068 76.8861ZM332.456 40.4443C331.713 40.4443 330.934 40.4567 330.144 40.4793C319.359 40.7923 305.533 43.1889 291.213 47.2287C276.913 51.2622 263.836 56.4673 254.394 61.8844C244.871 67.3469 242.048 71.2507 242.522 72.9329C242.998 74.6151 247.445 76.4682 258.417 76.1511C269.299 75.836 283.166 73.4415 297.466 69.4079C311.786 65.3682 324.825 60.1878 334.185 54.8201C344.47 48.9211 346.512 44.97 346.154 43.7037C345.839 42.5754 342.567 40.4443 332.456 40.4443Z" fill="black"/>
<path d="M261.622 69.7414C260.827 66.8444 260.403 63.793 260.403 60.6428C260.403 41.694 275.765 26.332 294.714 26.332C310.906 26.332 324.477 37.5473 328.086 52.6334L261.622 69.7414Z" fill="#F8AFDB"/>
<path d="M293.523 51.3085C296.729 58.0047 296.6 64.7383 293.235 66.3494C289.87 67.9605 284.544 63.8384 281.338 57.1423C278.132 50.4461 283.139 53.9025 286.504 52.2914C289.869 50.6803 290.316 44.6124 293.523 51.3085Z" fill="black"/>
<path d="M292.717 65.2585C290.338 66.3973 285.517 63.1328 282.403 56.6302C281.599 54.9508 281.495 54.2596 281.493 54.02C281.79 53.9473 282.418 53.9597 282.934 53.9722C284.144 53.9999 285.649 54.0333 287.026 53.3738C288.404 52.7143 289.322 51.5207 290.059 50.5607C290.374 50.1502 290.755 49.6523 290.999 49.4686C291.184 49.6206 291.658 50.1347 292.462 51.8142C295.576 58.3189 295.095 64.1196 292.717 65.2585Z" fill="#800E00"/>
<path d="M294.645 60.6677C293.365 60.2192 291.929 60.2543 290.623 60.8792C289.318 61.5041 288.386 62.6082 287.933 63.8893C289.788 65.3173 291.548 65.8224 292.715 65.2637C293.882 64.7049 294.593 63.014 294.643 60.6687L294.645 60.6677Z" fill="#FF1C00"/>
<path d="M304.18 53.8533C306.296 52.8398 307.409 50.7589 306.665 49.2054C305.922 47.6518 303.603 47.214 301.486 48.2275C299.369 49.2409 298.256 51.3219 299 52.8754C299.744 54.4289 302.063 54.8667 304.18 53.8533Z" fill="#F8AFDB"/>
<path d="M276.12 67.2869C278.237 66.2734 279.35 64.1925 278.606 62.639C277.862 61.0854 275.543 60.6476 273.426 61.6611C271.31 62.6745 270.197 64.7555 270.941 66.309C271.684 67.8625 274.003 68.3003 276.12 67.2869Z" fill="#F8AFDB"/>
<path d="M275.696 60.542C275.503 60.6346 275.283 60.6782 275.064 60.6681L272.939 60.5679L271.684 62.2863C271.555 62.4633 271.383 62.607 271.19 62.6996C270.833 62.8706 270.418 62.8714 270.051 62.6996C269.688 62.531 269.417 62.2113 269.304 61.8217L268.704 59.7395L266.684 59.0299C266.194 58.858 265.844 58.4267 265.771 57.9082C265.696 57.3875 265.916 56.8864 266.343 56.5991L268.099 55.4137L268.105 53.2552C268.107 52.7301 268.396 52.2684 268.859 52.0465C269.322 51.8246 269.865 51.8884 270.273 52.2171L271.959 53.5654L273.983 52.9413C274.474 52.7889 275.004 52.9339 275.362 53.316C275.721 53.7004 275.836 54.2415 275.663 54.7309L274.949 56.7494L276.195 58.5221C276.428 58.8548 276.507 59.266 276.411 59.6544C276.314 60.0482 276.054 60.371 275.696 60.542Z" fill="black"/>
<path d="M269.842 52.7808L271.821 54.3657L274.2 53.6328C274.703 53.4775 275.173 53.9775 274.995 54.4797L274.156 56.8525L275.621 58.9349C275.93 59.3749 275.613 59.9733 275.087 59.9497L272.588 59.8332L271.112 61.8529C270.802 62.2797 270.136 62.1493 269.987 61.632L269.284 59.1852L266.909 58.3513C266.406 58.1747 266.311 57.4956 266.748 57.201L268.811 55.8068L268.817 53.2713C268.819 52.7355 269.425 52.4454 269.842 52.7808Z" fill="#FFCB5D"/>
<path d="M271.675 54.8522C272.245 55.138 272.539 55.7246 272.335 56.1595C272.128 56.5955 271.498 56.7152 270.928 56.4295C270.357 56.1437 270.063 55.5571 270.268 55.1222C270.474 54.6863 271.104 54.5665 271.675 54.8522Z" fill="white"/>
<path d="M272.174 57.1721C272.515 57.3432 272.657 57.7614 272.495 58.1041C272.332 58.4467 271.924 58.5885 271.583 58.4175C271.242 58.2464 271.1 57.8281 271.262 57.4855C271.425 57.1429 271.833 57.001 272.174 57.1721Z" fill="white"/>
<path d="M275.696 60.542C275.503 60.6346 275.283 60.6782 275.064 60.6681L272.939 60.5679L271.684 62.2863C271.555 62.4633 271.383 62.607 271.19 62.6996C270.833 62.8706 270.418 62.8714 270.051 62.6996C269.688 62.531 269.417 62.2113 269.304 61.8217L268.704 59.7395L266.684 59.0299C266.194 58.858 265.844 58.4267 265.771 57.9082C265.696 57.3875 265.916 56.8864 266.343 56.5991L268.099 55.4137L268.105 53.2552C268.107 52.7301 268.396 52.2684 268.859 52.0465C269.322 51.8246 269.865 51.8884 270.273 52.2171L271.959 53.5654L273.983 52.9413C274.474 52.7889 275.004 52.9339 275.362 53.316C275.721 53.7004 275.836 54.2415 275.663 54.7309L274.949 56.7494L276.195 58.5221C276.428 58.8548 276.507 59.266 276.411 59.6544C276.314 60.0482 276.054 60.371 275.696 60.542Z" fill="black"/>
<path d="M269.842 52.7808L271.821 54.3657L274.2 53.6328C274.703 53.4775 275.173 53.9775 274.995 54.4797L274.156 56.8525L275.621 58.9349C275.93 59.3749 275.613 59.9733 275.087 59.9497L272.588 59.8332L271.112 61.8529C270.802 62.2797 270.136 62.1493 269.987 61.632L269.284 59.1852L266.909 58.3513C266.406 58.1747 266.311 57.4956 266.748 57.201L268.811 55.8068L268.817 53.2713C268.819 52.7355 269.425 52.4454 269.842 52.7808Z" fill="#FFCB5D"/>
<path d="M271.675 54.8522C272.245 55.138 272.539 55.7246 272.335 56.1595C272.128 56.5955 271.498 56.7152 270.928 56.4295C270.357 56.1437 270.063 55.5571 270.268 55.1222C270.474 54.6863 271.104 54.5665 271.675 54.8522Z" fill="white"/>
<path d="M272.174 57.1721C272.515 57.3432 272.657 57.7614 272.495 58.1041C272.332 58.4467 271.924 58.5885 271.583 58.4175C271.242 58.2464 271.1 57.8281 271.262 57.4855C271.425 57.1429 271.833 57.001 272.174 57.1721Z" fill="white"/>
<path d="M303.756 47.1084C303.563 47.201 303.343 47.2446 303.124 47.2345L300.999 47.1343L299.744 48.8527C299.615 49.0297 299.443 49.1734 299.25 49.266C298.892 49.437 298.477 49.4378 298.11 49.266C297.747 49.0974 297.477 48.7777 297.363 48.3881L296.764 46.3059L294.744 45.5963C294.254 45.4244 293.903 44.9931 293.83 44.4746C293.756 43.9539 293.976 43.4528 294.403 43.1655L296.158 41.9801L296.165 39.8216C296.167 39.2965 296.455 38.8348 296.919 38.6129C297.382 38.391 297.925 38.4548 298.333 38.7835L300.018 40.1318L302.043 39.5077C302.534 39.3553 303.063 39.5003 303.421 39.8825C303.78 40.2668 303.896 40.8079 303.723 41.2973L303.009 43.3158L304.255 45.0885C304.487 45.4212 304.567 45.8325 304.47 46.2208C304.374 46.6146 304.113 46.9374 303.756 47.1084Z" fill="black"/>
<path d="M297.899 39.3433L299.878 40.9282L302.258 40.1953C302.761 40.04 303.23 40.54 303.053 41.0422L302.213 43.415L303.678 45.4974C303.988 45.9374 303.671 46.5358 303.145 46.5122L300.646 46.3957L299.17 48.4154C298.859 48.8422 298.193 48.7118 298.045 48.1945L297.341 45.7477L294.967 44.9138C294.464 44.7372 294.369 44.0581 294.805 43.7635L296.868 42.3693L296.875 39.8338C296.877 39.298 297.483 39.0079 297.899 39.3433Z" fill="#FFCB5D"/>
<path d="M299.735 41.4186C300.306 41.7044 300.6 42.291 300.395 42.7259C300.189 43.1619 299.559 43.2816 298.988 42.9959C298.418 42.7101 298.124 42.1235 298.328 41.6886C298.535 41.2527 299.165 41.1329 299.735 41.4186Z" fill="white"/>
<path d="M300.233 43.7385C300.574 43.9096 300.717 44.3278 300.554 44.6705C300.391 45.0131 299.983 45.1549 299.643 44.9839C299.302 44.8128 299.159 44.3945 299.322 44.0519C299.485 43.7093 299.893 43.5674 300.233 43.7385Z" fill="white"/>
<path d="M261.623 70.0899C261.468 70.0899 261.328 69.9869 261.285 69.8325C260.468 66.8532 260.054 63.7606 260.054 60.6413C260.054 41.5298 275.603 25.9805 294.715 25.9805C302.664 25.9805 310.14 28.5974 316.338 33.5513C322.352 38.359 326.645 45.1063 328.426 52.5515C328.471 52.7389 328.356 52.9283 328.167 52.9736C327.979 53.0189 327.79 52.9036 327.745 52.7142C324.08 37.3872 310.497 26.6826 294.715 26.6826C275.988 26.6826 260.754 41.9169 260.754 60.6433C260.754 63.6988 261.159 66.7296 261.96 69.6493C262.012 69.8366 261.903 70.0281 261.715 70.0796C261.684 70.0858 261.654 70.0899 261.623 70.0899Z" fill="black"/>
<path d="M312.445 42.4226C312.852 42.9229 313.285 43.4727 313.909 43.6436C314.292 43.7486 314.699 43.693 315.084 43.5983C316.451 43.2627 317.802 42.2373 317.901 40.8331C318.008 39.2971 316.651 38.1008 315.422 37.1702C313.093 35.4077 306.708 30.1779 303.809 33.149C301.538 35.4756 305.207 36.4372 306.778 37.4214C308.922 38.7638 310.847 40.4604 312.445 42.4226Z" fill="white"/>
<path d="M316.9 44.9623C316.404 45.2217 315.891 45.547 315.683 46.0659C315.555 46.383 315.557 46.7351 315.578 47.0768C315.615 47.6698 315.708 48.2587 315.854 48.8331C315.949 49.2017 316.068 49.5744 316.305 49.8709C316.766 50.4495 317.555 50.6224 318.246 50.8901C318.498 50.9868 318.749 51.1021 319.016 51.1392C319.71 51.2339 320.388 50.7603 320.725 50.1468C321.063 49.5332 321.127 48.8084 321.133 48.1084C321.137 47.6039 321.117 47.0974 321.069 46.595C321.014 46.0082 320.915 45.3967 320.561 44.9252C319.587 43.6178 318.032 44.3714 316.9 44.9623Z" fill="white"/>
<path d="M203.611 69.3949C222.56 69.3949 237.921 54.0335 237.921 35.0842C237.921 16.1349 222.56 0.773438 203.611 0.773438C184.661 0.773438 169.3 16.1349 169.3 35.0842C169.3 54.0335 184.661 69.3949 203.611 69.3949Z" fill="#AF9EFF"/>
<path d="M203.611 69.7434C184.5 69.7434 168.95 54.1941 168.95 35.0827C168.95 15.9713 184.5 0.421875 203.611 0.421875C222.722 0.421875 238.272 15.9713 238.272 35.0827C238.272 54.1941 222.722 69.7434 203.611 69.7434ZM203.611 1.11987C184.885 1.11987 169.65 16.3542 169.65 35.0806C169.65 53.807 184.885 69.0413 203.611 69.0413C222.337 69.0413 237.572 53.807 237.572 35.0806C237.572 16.3563 222.337 1.11987 203.611 1.11987Z" fill="black"/>
<path d="M170.517 44.1789C169.722 41.2819 169.298 38.2305 169.298 35.0803C169.298 16.1315 184.66 0.769531 203.609 0.769531C219.8 0.769531 233.371 11.9848 236.98 27.0709L170.517 44.1789Z" fill="#AF9EFF"/>
<path d="M170.517 44.5274C170.363 44.5274 170.223 44.4244 170.18 44.27C169.362 41.2907 168.948 38.1981 168.948 35.0788C168.948 15.9673 184.498 0.417969 203.609 0.417969C211.559 0.417969 219.035 3.03493 225.232 7.98882C231.247 12.7965 235.54 19.5438 237.321 26.989C237.366 27.1764 237.251 27.3658 237.061 27.4111C236.874 27.4564 236.684 27.3411 236.639 27.1517C232.974 11.8247 219.391 1.12009 203.609 1.12009C184.883 1.12009 169.648 16.3544 169.648 35.0808C169.648 38.1363 170.054 41.1671 170.855 44.0868C170.906 44.2741 170.797 44.4656 170.61 44.5171C170.579 44.5233 170.548 44.5274 170.517 44.5274Z" fill="black"/>
<path d="M214.461 51.7668C215.135 49.4516 213.805 47.0282 211.49 46.3547C204.932 44.4457 198.025 37.1932 196.408 30.5165C195.84 28.1743 193.48 26.7333 191.138 27.3012C188.794 27.8677 187.355 30.229 187.923 32.5712C189.093 37.4019 191.995 42.2483 195.793 46.2361C199.595 50.2265 204.295 53.3553 209.049 54.7385C211.366 55.4134 213.788 54.082 214.461 51.7668Z" fill="#FF2F18"/>
<path d="M198.134 48.9503C197.241 48.1795 196.373 47.3543 195.54 46.4798C191.553 42.2971 188.728 37.3867 187.583 32.6563C187.287 31.4328 187.484 30.1643 188.14 29.0898C188.796 28.0138 189.831 27.2589 191.055 26.9631C192.278 26.6673 193.545 26.866 194.62 27.5213C195.696 28.1779 196.451 29.2129 196.747 30.4364C198.338 37.0069 205.133 44.1437 211.585 46.021C212.793 46.373 213.794 47.1739 214.4 48.2796C215.006 49.384 215.146 50.6583 214.794 51.8667C214.068 54.3624 211.446 55.8034 208.948 55.0761C205.268 54.0023 201.517 51.8694 198.134 48.9503ZM194.796 28.5112C194.629 28.3673 194.449 28.2361 194.256 28.1188C193.341 27.5599 192.263 27.391 191.22 27.6443C190.177 27.8977 189.296 28.5406 188.737 29.4561C188.178 30.3717 188.009 31.4498 188.263 32.4925C189.379 37.1053 192.145 41.9018 196.046 45.9974C199.952 50.097 204.603 53.0833 209.147 54.4046C211.273 55.0234 213.507 53.7964 214.126 51.6706C214.425 50.6398 214.306 49.5551 213.79 48.615C213.274 47.6748 212.422 46.9915 211.392 46.6921C204.729 44.7529 197.71 37.3845 196.068 30.6016C195.869 29.7769 195.426 29.0547 194.796 28.5112Z" fill="black"/>
<path d="M200.992 45.6464C196.579 41.8381 193.044 36.6631 191.825 31.6301C191.781 31.4421 191.895 31.2527 192.083 31.2082C192.271 31.1637 192.461 31.2783 192.505 31.4662C194.451 39.5041 202.464 47.9148 210.367 50.2152C210.552 50.2688 210.658 50.4639 210.605 50.6489C210.551 50.8338 210.356 50.9401 210.171 50.8866C207.004 49.9619 203.818 48.0853 200.992 45.6464Z" fill="black"/>
<path d="M205.243 29.5068C207.969 28.6605 209.493 25.7648 208.646 23.039C207.8 20.3132 204.904 18.7895 202.179 19.6357C199.453 20.482 197.929 23.3777 198.775 26.1035C199.622 28.8293 202.517 30.353 205.243 29.5068Z" fill="white"/>
<path d="M200.117 28.7588C199.986 28.6458 199.861 28.5266 199.737 28.3984C198.716 27.3348 198.171 25.937 198.201 24.4647C198.233 22.9908 198.834 21.6167 199.898 20.5954C202.093 18.4894 205.595 18.5604 207.701 20.7558C208.722 21.8194 209.267 23.2173 209.237 24.6896C209.205 26.1634 208.604 27.5376 207.54 28.5588C205.472 30.546 202.245 30.595 200.117 28.7588ZM206.864 20.9283C205.006 19.3249 202.188 19.3685 200.382 21.1029C199.453 21.9931 198.928 23.1937 198.9 24.4804C198.874 25.7685 199.35 26.9874 200.24 27.9161C201.131 28.8448 202.331 29.3696 203.618 29.3976C204.906 29.4241 206.125 28.9476 207.054 28.0574C207.982 27.1672 208.507 25.9666 208.535 24.6799C208.562 23.3918 208.085 22.1728 207.195 21.2441C207.089 21.1308 206.978 21.0265 206.864 20.9283Z" fill="black"/>
<path d="M205.71 26.6515C204.564 27.7518 202.743 27.7135 201.644 26.5666C200.543 25.4212 200.582 23.5994 201.729 22.5005C202.874 21.4002 204.696 21.4385 205.795 22.5854C206.894 23.7323 206.857 25.5525 205.71 26.6515Z" fill="black"/>
<path d="M202.346 31.6079C203.36 29.7172 203.1 27.3144 201.535 25.6836C199.97 24.0527 197.578 23.6943 195.649 24.6289L202.346 31.6079Z" fill="#AF9EFF"/>
<path d="M202.117 31.8738C201.996 31.7689 201.959 31.5906 202.037 31.4432C203.01 29.6286 202.707 27.4115 201.283 25.9265C199.857 24.4401 197.654 24.0459 195.802 24.9442C195.628 25.0284 195.419 24.9563 195.334 24.7829C195.25 24.6095 195.322 24.3999 195.496 24.3156C197.623 23.2847 200.151 23.7367 201.787 25.4427C203.424 27.1486 203.771 29.6923 202.654 31.7745C202.562 31.9448 202.352 32.0084 202.18 31.9174C202.157 31.9059 202.136 31.89 202.117 31.8738Z" fill="black"/>
<path d="M207.618 25.029L204.152 24.7393L206.278 26.9567L207.618 25.029Z" fill="white"/>
<path d="M219.712 45.0343C222.505 44.4434 224.289 41.7008 223.698 38.9084C223.108 36.1161 220.365 34.3314 217.573 34.9223C214.78 35.5132 212.996 38.2558 213.586 41.0482C214.177 43.8405 216.92 45.6252 219.712 45.0343Z" fill="white"/>
<path d="M215.043 44.1728C214.912 44.0598 214.786 43.9406 214.663 43.8125C212.557 41.617 212.628 38.1154 214.823 36.0095C215.887 34.9882 217.285 34.443 218.757 34.4734C220.229 34.5038 221.605 35.1063 222.626 36.1699C224.732 38.3654 224.661 41.8669 222.466 43.9729C220.398 45.96 217.172 46.0104 215.043 44.1728ZM221.788 36.3381C220.941 35.6077 219.878 35.1983 218.745 35.1751C217.456 35.1487 216.238 35.6252 215.309 36.5154C214.38 37.4056 213.855 38.6062 213.827 39.8929C213.801 41.181 214.277 42.3999 215.168 43.3286C217.008 45.2458 220.063 45.3073 221.979 43.4685C223.896 41.6283 223.958 38.5727 222.121 36.6553C222.015 36.5448 221.903 36.4377 221.788 36.3381Z" fill="black"/>
<path d="M217.183 42.9188C218.59 43.6555 220.329 43.1119 221.065 41.7045C221.802 40.2971 221.258 38.559 219.851 37.8223C218.444 37.0855 216.705 37.6292 215.969 39.0365C215.232 40.4439 215.776 42.182 217.183 42.9188Z" fill="black"/>
<path d="M218.774 49.4544C219.731 47.5796 219.457 45.2275 217.916 43.6226C216.374 42.0178 214.037 41.6466 212.124 42.5274L218.774 49.4544Z" fill="#AF9EFF"/>
<path d="M218.545 49.7186C218.425 49.615 218.387 49.4411 218.463 49.294C219.379 47.4982 219.059 45.3158 217.666 43.8635C216.273 42.4112 214.106 42.0013 212.273 42.8427C212.098 42.9227 211.889 42.8461 211.809 42.6709C211.729 42.4958 211.806 42.2872 211.981 42.2072C214.085 41.2408 216.572 41.7119 218.172 43.3782C219.772 45.0444 220.14 47.5516 219.089 49.6114C219.001 49.7829 218.791 49.8523 218.617 49.7644C218.59 49.7518 218.567 49.7374 218.545 49.7186Z" fill="black"/>
<path d="M222.412 40.3077L218.944 40.0182L221.072 42.2354L222.412 40.3077Z" fill="white"/>
<path d="M221.339 16.8601C221.747 17.3604 222.179 17.9102 222.803 18.0811C223.186 18.1861 223.594 18.1305 223.979 18.0358C225.346 17.7002 226.697 16.6748 226.795 15.2706C226.903 13.7346 225.546 12.5383 224.316 11.6077C221.988 9.8452 215.603 4.6154 212.704 7.5865C210.433 9.91314 214.102 10.8747 215.673 11.8589C217.816 13.2013 219.741 14.8979 221.339 16.8601Z" fill="white"/>
<path d="M225.794 19.3998C225.298 19.6592 224.785 19.9845 224.577 20.5034C224.45 20.8205 224.452 21.1726 224.472 21.5143C224.51 22.1073 224.602 22.6962 224.748 23.2706C224.843 23.6392 224.962 24.0119 225.199 24.3084C225.66 24.887 226.449 25.0599 227.141 25.3276C227.392 25.4243 227.643 25.5396 227.911 25.5767C228.605 25.6714 229.282 25.1978 229.62 24.5843C229.958 23.9707 230.021 23.2459 230.028 22.5459C230.032 22.0414 230.011 21.5349 229.964 21.0325C229.908 20.4457 229.809 19.8342 229.455 19.3627C228.481 18.0553 226.927 18.8089 225.794 19.3998Z" fill="white"/>
<path d="M122.111 127.692C141.06 127.692 156.421 112.33 156.421 93.3811C156.421 74.4318 141.06 59.0703 122.111 59.0703C103.161 59.0703 87.7998 74.4318 87.7998 93.3811C87.7998 112.33 103.161 127.692 122.111 127.692Z" fill="#F8642D"/>
<path d="M122.111 128.04C103 128.04 87.4502 112.491 87.4502 93.3795C87.4502 74.2681 103 58.7188 122.111 58.7188C141.222 58.7188 156.772 74.2681 156.772 93.3795C156.772 112.491 141.222 128.04 122.111 128.04ZM122.111 59.4167C103.385 59.4167 88.1503 74.6511 88.1503 93.3775C88.1503 112.104 103.385 127.338 122.111 127.338C140.837 127.338 156.072 112.104 156.072 93.3775C156.072 74.6532 140.837 59.4167 122.111 59.4167Z" fill="black"/>
<path d="M89.0167 102.476C88.222 99.5788 87.7979 96.5274 87.7979 93.3772C87.7979 74.4284 103.16 59.0664 122.109 59.0664C138.3 59.0664 151.871 70.2816 155.48 85.3677L89.0167 102.476Z" fill="#F8642D"/>
<path d="M89.0172 102.824C88.8628 102.824 88.7228 102.721 88.6795 102.567C87.8621 99.5875 87.4482 96.495 87.4482 93.3756C87.4482 74.2642 102.998 58.7148 122.109 58.7148C130.059 58.7148 137.535 61.3318 143.732 66.2857C149.747 71.0934 154.04 77.8407 155.821 85.2859C155.866 85.4733 155.751 85.6627 155.561 85.708C155.374 85.7533 155.184 85.638 155.139 85.4486C151.474 70.1216 137.891 59.417 122.109 59.417C103.383 59.417 88.1483 74.6513 88.1483 93.3777C88.1483 96.4332 88.5539 99.464 89.3549 102.384C89.4063 102.571 89.2972 102.762 89.1098 102.814C89.079 102.82 89.0481 102.824 89.0172 102.824Z" fill="black"/>
<path d="M139.839 75.157C140.247 75.6573 140.679 76.2071 141.303 76.378C141.686 76.483 142.094 76.4274 142.479 76.3327C143.846 75.9971 145.197 74.9717 145.295 73.5675C145.403 72.0315 144.046 70.8352 142.816 69.9046C140.488 68.1421 134.103 62.9123 131.204 65.8834C128.933 68.21 132.602 69.1716 134.173 70.1557C136.316 71.4982 138.241 73.1948 139.839 75.157Z" fill="white"/>
<path d="M144.294 77.6967C143.798 77.9561 143.285 78.2814 143.077 78.8003C142.95 79.1173 142.952 79.4694 142.972 79.8112C143.01 80.4042 143.102 80.9931 143.248 81.5675C143.343 81.9361 143.462 82.3088 143.699 82.6053C144.16 83.1838 144.949 83.3568 145.641 83.6244C145.892 83.7212 146.143 83.8365 146.411 83.8736C147.105 83.9683 147.782 83.4947 148.12 82.8811C148.458 82.2676 148.521 81.5428 148.528 80.8428C148.532 80.3383 148.511 79.8318 148.464 79.3294C148.408 78.7426 148.309 78.1311 147.955 77.6596C146.981 76.3521 145.427 77.1057 144.294 77.6967Z" fill="white"/>
<path d="M136.658 101.793C139.004 101.717 140.86 100.26 140.805 98.5386C140.749 96.817 138.803 95.4828 136.457 95.5584C134.111 95.634 132.255 97.0909 132.31 98.8124C132.366 100.534 134.312 101.868 136.658 101.793Z" fill="#F8AFDB"/>
<path d="M105.564 102.796C107.91 102.721 109.766 101.264 109.711 99.5425C109.655 97.8209 107.709 96.4867 105.363 96.5623C103.018 96.6379 101.161 98.0948 101.217 99.8163C101.272 101.538 103.219 102.872 105.564 102.796Z" fill="#F8AFDB"/>
<path d="M127.167 97.4909C123.371 100.343 118.234 100.508 114.259 97.9071C113.857 97.6426 113.768 97.1 114.047 96.7315C114.325 96.3629 114.81 96.2676 115.145 96.4861C118.543 98.7101 122.941 98.5683 126.19 96.13C126.51 95.8904 127 95.9543 127.301 96.3041C127.603 96.654 127.552 97.2034 127.165 97.491L127.167 97.4909Z" fill="black"/>
<path d="M126.081 86.168L139.833 85.7246L140.021 91.561C140.042 92.2215 139.537 92.7736 138.891 92.7944L127.476 93.1624C126.831 93.1832 126.291 92.6649 126.269 92.0043L126.081 86.168Z" fill="black"/>
<path d="M100.808 86.9805L114.559 86.5371L114.746 92.3132C114.767 92.9738 114.261 93.5258 113.616 93.5466L102.201 93.9146C101.555 93.9354 101.015 93.4171 100.994 92.7566L100.808 86.9805Z" fill="black"/>
<path d="M139.771 83.8363L96.4053 85.2344L96.4675 87.1654L139.833 85.7673L139.771 83.8363Z" fill="black"/>
<path d="M130.22 93.0265L136.675 85.82L134.706 85.8835L128.169 93.0927L130.22 93.0265Z" fill="white"/>
<path d="M132.34 92.9593L138.795 85.7528L137.768 85.7859L131.23 92.995L132.34 92.9593Z" fill="white"/>
<path d="M100.876 86.9805L114.628 86.5371L114.816 92.3735C114.837 93.034 114.331 93.5861 113.686 93.6069L102.271 93.9749C101.626 93.9957 101.085 93.4774 101.064 92.8168L100.876 86.9805Z" fill="black"/>
<path d="M105.015 93.839L111.47 86.6325L109.501 86.696L102.964 93.9052L105.015 93.839Z" fill="white"/>
<path d="M107.135 93.7718L113.59 86.5653L112.563 86.5984L106.025 93.8075L107.135 93.7718Z" fill="white"/>
<path d="M130.951 85.0386L130.603 85.8028C130.528 85.9669 130.534 86.1597 130.619 86.3187L131.016 87.0588C131.116 87.2438 130.927 87.4502 130.74 87.3597L129.993 87.0025C129.833 86.9256 129.644 86.9317 129.489 87.0188L128.766 87.4233C128.586 87.5257 128.384 87.3319 128.472 87.1408L128.82 86.3767C128.895 86.2126 128.888 86.0197 128.803 85.8608L128.407 85.1207C128.306 84.9357 128.496 84.7293 128.682 84.8198L129.43 85.177C129.59 85.2538 129.778 85.2478 129.934 85.1607L130.656 84.7561C130.837 84.6538 131.039 84.8476 130.951 85.0386Z" fill="white"/>
<path d="M200.683 143.026C218.66 149.02 238.092 139.307 244.086 121.331C250.081 103.355 240.368 83.9228 222.391 77.9282C204.415 71.9337 184.983 81.6468 178.989 99.6229C172.994 117.599 182.707 137.031 200.683 143.026Z" fill="#84BCFF"/>
<path d="M200.572 143.359C182.442 137.313 172.611 117.643 178.656 99.5136C184.702 81.3836 204.372 71.5518 222.502 77.5976C240.632 83.6434 250.464 103.313 244.418 121.443C238.372 139.573 218.702 149.405 200.572 143.359ZM222.281 78.2597C204.516 72.3357 185.245 81.9684 179.321 99.7331C173.397 117.498 183.03 136.769 200.794 142.693C218.559 148.617 237.83 138.984 243.754 121.22C249.678 103.457 240.046 84.1837 222.281 78.2597Z" fill="black"/>
<path d="M177.266 108.636C177.428 105.636 177.991 102.607 178.988 99.619C184.982 81.6434 204.415 71.93 222.39 77.9243C237.751 83.0465 247.077 97.9788 245.728 113.432L177.266 108.636Z" fill="#84BCFF"/>
<path d="M216.356 105.232C211.738 108.699 205.491 108.901 200.659 105.738C200.17 105.418 200.016 104.822 200.294 104.454C200.572 104.085 201.125 104.041 201.544 104.315C205.803 107.102 211.308 106.925 215.378 103.869C215.781 103.569 216.333 103.575 216.635 103.927C216.936 104.277 216.821 104.882 216.354 105.232L216.356 105.232Z" fill="black"/>
<path d="M225.143 113.043C227.489 112.967 229.345 111.51 229.29 109.789C229.234 108.067 227.288 106.733 224.942 106.808C222.597 106.884 220.74 108.341 220.796 110.062C220.851 111.784 222.798 113.118 225.143 113.043Z" fill="#F8AFDB"/>
<path d="M194.05 114.046C196.395 113.971 198.252 112.514 198.196 110.792C198.141 109.071 196.194 107.737 193.849 107.812C191.503 107.888 189.647 109.345 189.702 111.066C189.758 112.788 191.704 114.122 194.05 114.046Z" fill="#F8AFDB"/>
<path d="M192.919 105.973C192.345 105.384 191.708 104.774 191.09 104.186C190.458 103.584 189.806 102.961 189.201 102.338L189.04 102.172L188.95 101.958C188.293 100.372 188.757 98.5178 190.005 97.7391C190.396 97.4948 190.863 97.3591 191.353 97.3433C192.071 97.3202 192.895 97.5663 193.578 98.1259C194.18 97.5611 194.905 97.2288 195.657 97.2046C196.123 97.1895 196.584 97.2977 196.989 97.5139C198.271 98.2038 198.841 100.024 198.283 101.657L198.208 101.876L198.058 102.053C197.524 102.678 196.925 103.342 196.347 103.983C195.716 104.684 195.117 105.345 194.65 105.908L193.821 106.9L192.919 105.973Z" fill="black"/>
<path d="M196.445 98.5828C195.553 98.1024 194.279 98.6212 193.595 100.142C193.04 98.6612 191.482 98.2336 190.622 98.7705C189.922 99.2082 189.583 100.39 190.038 101.49C191.216 102.702 192.578 103.913 193.756 105.125C194.682 104.019 196.075 102.545 197.173 101.26C197.556 100.132 197.17 98.9721 196.445 98.5828Z" fill="#FF1C00"/>
<path d="M224.012 104.969C223.439 104.38 222.802 103.77 222.184 103.182C221.551 102.58 220.899 101.957 220.294 101.334L220.134 101.168L220.044 100.954C219.387 99.3677 219.851 97.5139 221.099 96.7352C221.489 96.4909 221.957 96.3552 222.447 96.3394C223.165 96.3162 223.989 96.5624 224.672 97.122C225.274 96.5572 225.999 96.2249 226.75 96.2007C227.217 96.1856 227.678 96.2938 228.083 96.51C229.364 97.1999 229.935 99.0204 229.377 100.653L229.301 100.873L229.151 101.049C228.617 101.674 228.019 102.338 227.44 102.979C226.81 103.68 226.211 104.341 225.743 104.904L224.915 105.896L224.012 104.969Z" fill="black"/>
<path d="M227.537 97.5828C226.644 97.1024 225.371 97.6212 224.687 99.1419C224.132 97.6612 222.574 97.2336 221.714 97.7705C221.014 98.2082 220.675 99.3895 221.13 100.49C222.308 101.702 223.67 102.913 224.848 104.125C225.774 103.019 227.167 101.545 228.265 100.26C228.648 99.1325 228.262 97.9721 227.537 97.5828Z" fill="#FF1C00"/>
<path d="M227.865 98.9171C227.88 99.3727 227.531 99.7532 227.086 99.7675C226.641 99.7819 226.269 99.4246 226.254 98.969C226.239 98.5134 226.588 98.1329 227.033 98.1186C227.478 98.1042 227.851 98.4614 227.865 98.9171Z" fill="white"/>
<path d="M225.954 101.212C226.247 101.203 226.476 100.952 226.467 100.653C226.457 100.353 226.212 100.118 225.919 100.127C225.626 100.137 225.396 100.387 225.406 100.687C225.416 100.986 225.661 101.221 225.954 101.212Z" fill="white"/>
<path d="M192.919 105.973C192.345 105.384 191.708 104.774 191.09 104.186C190.458 103.584 189.806 102.961 189.201 102.338L189.04 102.172L188.95 101.958C188.293 100.372 188.757 98.5178 190.005 97.7391C190.396 97.4948 190.863 97.3591 191.353 97.3433C192.071 97.3202 192.895 97.5663 193.578 98.1259C194.18 97.5611 194.905 97.2288 195.657 97.2046C196.123 97.1895 196.584 97.2977 196.989 97.5139C198.271 98.2038 198.841 100.024 198.283 101.657L198.208 101.876L198.058 102.053C197.524 102.678 196.925 103.342 196.347 103.983C195.716 104.684 195.117 105.345 194.65 105.908L193.821 106.9L192.919 105.973Z" fill="black"/>
<path d="M196.445 98.5828C195.553 98.1024 194.279 98.6212 193.595 100.142C193.04 98.6612 191.482 98.2336 190.622 98.7705C189.922 99.2082 189.583 100.39 190.038 101.49C191.216 102.702 192.578 103.913 193.756 105.125C194.682 104.019 196.075 102.545 197.173 101.26C197.556 100.132 197.17 98.9721 196.445 98.5828Z" fill="#FF1C00"/>
<path d="M196.774 99.9171C196.788 100.373 196.44 100.753 195.994 100.768C195.549 100.782 195.177 100.425 195.162 99.969C195.148 99.5134 195.496 99.1329 195.941 99.1186C196.387 99.1042 196.759 99.4614 196.774 99.9171Z" fill="white"/>
<path d="M194.862 102.212C195.155 102.203 195.385 101.952 195.375 101.653C195.365 101.353 195.12 101.118 194.827 101.127C194.534 101.137 194.305 101.387 194.314 101.687C194.324 101.986 194.569 102.221 194.862 102.212Z" fill="white"/>
<path d="M177.155 108.969C177.008 108.921 176.908 108.779 176.916 108.618C177.083 105.533 177.669 102.469 178.655 99.5097C184.701 81.3797 204.371 71.5479 222.501 77.5937C230.042 80.1085 236.307 84.9561 240.619 91.6161C244.803 98.0795 246.741 105.838 246.076 113.465C246.059 113.657 245.89 113.8 245.696 113.783C245.504 113.767 245.361 113.597 245.378 113.403C246.749 97.7041 237.25 83.2523 222.279 78.2597C204.514 72.3357 185.243 81.9684 179.319 99.7331C178.352 102.632 177.778 105.635 177.614 108.658C177.604 108.852 177.44 108.999 177.246 108.989C177.215 108.985 177.184 108.979 177.155 108.969Z" fill="black"/>
<path d="M234.118 98.8021C234.347 99.4057 234.583 100.064 235.121 100.423C235.451 100.644 235.855 100.72 236.25 100.752C237.654 100.867 239.259 100.321 239.797 99.0202C240.385 97.597 239.476 96.0329 238.604 94.7612C236.953 92.3526 232.55 85.3715 228.86 87.273C225.97 88.7617 229.146 90.8345 230.325 92.2652C231.934 94.2167 233.223 96.4352 234.118 98.8021Z" fill="white"/>
<path d="M237.542 102.618C236.99 102.707 236.4 102.854 236.039 103.28C235.817 103.541 235.708 103.875 235.619 104.206C235.467 104.78 235.369 105.368 235.326 105.959C235.299 106.339 235.294 106.73 235.425 107.087C235.68 107.781 236.373 108.195 236.945 108.668C237.152 108.839 237.354 109.028 237.596 109.148C238.225 109.457 239.017 109.222 239.531 108.747C240.046 108.271 240.336 107.604 240.563 106.942C240.726 106.465 240.867 105.978 240.981 105.486C241.114 104.912 241.214 104.3 241.027 103.741C240.517 102.193 238.804 102.416 237.542 102.618Z" fill="white"/>
<path d="M64.6106 57.8754C83.5599 57.8754 98.9213 42.514 98.9213 23.5647C98.9213 4.61535 83.5599 -10.7461 64.6106 -10.7461C45.6613 -10.7461 30.2998 4.61535 30.2998 23.5647C30.2998 42.514 45.6613 57.8754 64.6106 57.8754Z" fill="#99CCB8"/>
<path d="M64.611 58.2239C45.4996 58.2239 29.9502 42.6745 29.9502 23.5631C29.9502 4.45172 45.4996 -11.0977 64.611 -11.0977C83.7224 -11.0977 99.2718 4.45172 99.2718 23.5631C99.2718 42.6745 83.7224 58.2239 64.611 58.2239ZM64.611 -10.3997C45.8846 -10.3997 30.6503 4.83469 30.6503 23.5611C30.6503 42.2874 45.8846 57.5218 64.611 57.5218C83.3374 57.5218 98.5717 42.2874 98.5717 23.5611C98.5717 4.83675 83.3374 -10.3997 64.611 -10.3997Z" fill="black"/>
<path d="M31.5167 32.6594C30.722 29.7624 30.2979 26.711 30.2979 23.5608C30.2979 4.61201 45.6599 -10.75 64.6086 -10.75C80.8004 -10.75 94.3711 0.465232 97.9805 15.5513L31.5167 32.6594Z" fill="#99CCB8"/>
<path d="M79.0603 36.7959C81.0927 37.9693 83.4384 37.7113 84.2996 36.2197C85.1608 34.728 84.2114 32.5676 82.179 31.3942C80.1466 30.2208 77.8009 30.4788 76.9397 31.9704C76.0785 33.4621 77.0279 35.6225 79.0603 36.7959Z" fill="#F8AFDB"/>
<path d="M52.1209 21.2412C54.1532 22.4146 56.499 22.1566 57.3602 20.665C58.2214 19.1733 57.2719 17.0129 55.2395 15.8395C53.2072 14.6661 50.8614 14.9241 50.0002 16.4157C49.139 17.9074 50.0885 20.0678 52.1209 21.2412Z" fill="#F8AFDB"/>
<path d="M55.3909 15.6108C57.2869 16.7054 59.9502 15.642 61.3396 13.2355C62.729 10.829 62.3183 7.99077 60.4223 6.89611C58.5263 5.80146 55.8629 6.8649 54.4736 9.27138C53.0842 11.6779 53.4949 14.5161 55.3909 15.6108Z" fill="black"/>
<path d="M60.3112 11.8325C59.7769 12.7579 58.7807 13.1825 58.0847 12.7807C57.3887 12.3789 57.2583 11.3037 57.7926 10.3784C58.3268 9.45302 59.3231 9.02836 60.0191 9.43019C60.7151 9.83202 60.8454 10.9072 60.3112 11.8325Z" fill="white"/>
<path d="M82.3332 31.1654C84.2292 32.2601 86.8926 31.1967 88.282 28.7902C89.6713 26.3837 89.2606 23.5454 87.3646 22.4508C85.4686 21.3561 82.8053 22.4196 81.4159 24.8261C80.0266 27.2326 80.4372 30.0708 82.3332 31.1654Z" fill="black"/>
<path d="M83.1451 25.0151C82.6108 25.9405 82.7412 27.0156 83.4372 27.4174C84.1332 27.8192 85.1295 27.3946 85.6637 26.4692C86.198 25.5439 86.0676 24.4687 85.3716 24.0669C84.6756 23.6651 83.6794 24.0897 83.1451 25.0151Z" fill="white"/>
<path d="M75.376 26.1489C71.664 32.5784 66.0364 36.2782 62.8054 34.4128C59.5745 32.5474 59.9648 25.8239 63.6769 19.3944C67.3889 12.965 67.3676 19.0493 70.5986 20.9147C73.8295 22.7801 79.0881 19.7195 75.376 26.1489Z" fill="black"/>
<path d="M63.4117 33.3694C61.1278 32.0508 61.0959 26.2282 64.7006 19.9847C65.6316 18.3721 66.1433 17.896 66.3396 17.7587C66.5674 17.9626 66.9121 18.4875 67.1931 18.9199C67.8541 19.9338 68.6774 21.1945 70 21.9581C71.3226 22.7217 72.8261 22.8043 74.0346 22.8698C74.5516 22.8982 75.1777 22.931 75.467 23.0284C75.4463 23.2671 75.2898 23.9482 74.3588 25.5608C70.7528 31.8064 65.6956 34.688 63.4117 33.3694Z" fill="#800E00"/>
<path d="M68.2898 32.3662C67.9359 31.0561 67.0953 29.8913 65.8421 29.1677C64.5889 28.4442 63.1513 28.2993 61.8386 28.6499C61.7086 30.9868 62.2866 32.7242 63.4071 33.3711C64.5276 34.018 66.3246 33.649 68.2878 32.365L68.2898 32.3662Z" fill="#FF1C00"/>
<path d="M31.5172 33.0078C31.3628 33.0078 31.2228 32.9049 31.1795 32.7505C30.3621 29.7711 29.9482 26.6786 29.9482 23.5592C29.9482 4.44782 45.4976 -11.1016 64.609 -11.1016C72.5587 -11.1016 80.0349 -8.4846 86.2324 -3.53071C92.2467 1.277 96.5396 8.02425 98.3206 15.4695C98.3659 15.6569 98.2506 15.8463 98.0612 15.8916C97.8738 15.9369 97.6844 15.8216 97.6391 15.6322C93.9741 0.305161 80.3911 -10.3994 64.609 -10.3994C45.8827 -10.3994 30.6483 4.83491 30.6483 23.5613C30.6483 26.6168 31.0539 29.6476 31.8549 32.5672C31.9063 32.7546 31.7972 32.9461 31.6098 32.9976C31.579 33.0037 31.5481 33.0078 31.5172 33.0078Z" fill="black"/>
<path d="M82.3392 5.34059C82.7468 5.84092 83.1792 6.39068 83.8031 6.56157C84.1861 6.66658 84.5937 6.61098 84.9788 6.51627C86.3459 6.18065 87.6966 5.15529 87.7954 3.75107C87.9025 2.21507 86.5456 1.01881 85.3164 0.0881546C82.9877 -1.67433 76.6028 -6.90413 73.7038 -3.93303C71.4328 -1.60639 75.1019 -0.644846 76.6729 0.339343C78.8163 1.68179 80.7414 3.37838 82.3392 5.34059Z" fill="white"/>
<path d="M86.7943 7.88025C86.2981 8.13968 85.7854 8.46499 85.5775 8.98385C85.4498 9.30094 85.4519 9.65303 85.4724 9.99482C85.5095 10.5878 85.6022 11.1767 85.7483 11.7511C85.8431 12.1197 85.9625 12.4924 86.1993 12.7888C86.6605 13.3674 87.4491 13.5404 88.1409 13.808C88.3921 13.9048 88.6433 14.0201 88.9109 14.0572C89.6048 14.1519 90.2822 13.6783 90.6199 13.0647C90.9576 12.4512 91.0214 11.7264 91.0276 11.0264C91.0317 10.5219 91.0111 10.0154 90.9637 9.51301C90.9081 8.9262 90.8093 8.31469 90.4552 7.84319C89.4813 6.53574 87.9267 7.28932 86.7943 7.88025Z" fill="white"/>
<path d="M381.111 131.289C400.06 131.289 415.421 115.928 415.421 96.9787C415.421 78.0294 400.06 62.668 381.111 62.668C362.161 62.668 346.8 78.0294 346.8 96.9787C346.8 115.928 362.161 131.289 381.111 131.289Z" fill="#84BCFF"/>
<path d="M381.111 131.638C362 131.638 346.45 116.089 346.45 96.9772C346.45 77.8658 362 62.3164 381.111 62.3164C400.222 62.3164 415.772 77.8658 415.772 96.9772C415.772 116.089 400.222 131.638 381.111 131.638ZM381.111 63.0144C362.385 63.0144 347.15 78.2488 347.15 96.9751C347.15 115.701 362.385 130.936 381.111 130.936C399.837 130.936 415.072 115.701 415.072 96.9751C415.072 78.2508 399.837 63.0144 381.111 63.0144Z" fill="black"/>
<path d="M348.017 106.073C347.222 103.176 346.798 100.125 346.798 96.9748C346.798 78.0261 362.16 62.6641 381.109 62.6641C397.3 62.6641 410.871 73.8793 414.48 88.9654L348.017 106.073Z" fill="#84BCFF"/>
<path d="M393.611 105.141C395.918 104.711 397.532 102.989 397.216 101.296C396.901 99.6028 394.774 98.5792 392.467 99.0096C390.16 99.4401 388.546 101.162 388.862 102.855C389.178 104.548 391.304 105.572 393.611 105.141Z" fill="#F8AFDB"/>
<path d="M363.028 110.844C365.335 110.414 366.949 108.692 366.633 106.999C366.318 105.306 364.191 104.282 361.884 104.713C359.577 105.143 357.963 106.865 358.279 108.558C358.595 110.251 360.721 111.275 363.028 110.844Z" fill="#F8AFDB"/>
<path d="M384.987 99.5328C380.947 103.66 374.803 104.807 369.547 102.414C369.016 102.172 368.773 101.606 368.993 101.2C369.212 100.793 369.751 100.665 370.207 100.872C374.839 102.982 380.254 101.972 383.813 98.3335C384.166 97.9757 384.713 97.8983 385.064 98.2008C385.415 98.5009 385.393 99.1159 384.984 99.5332L384.987 99.5328Z" fill="black"/>
<path d="M392.379 98.3027C394.8 97.8509 396.387 95.4763 395.925 92.9987C395.463 90.5211 393.126 88.8788 390.705 89.3305C388.284 89.7823 386.696 92.1569 387.158 94.6345C387.621 97.1121 389.958 98.7544 392.379 98.3027Z" fill="black"/>
<path d="M390.724 95.3732C391.821 95.1686 392.54 94.093 392.331 92.9707C392.121 91.8485 391.063 91.1046 389.966 91.3092C388.869 91.5138 388.15 92.5894 388.36 93.7117C388.569 94.8339 389.628 95.5778 390.724 95.3732Z" fill="white"/>
<path d="M394.353 94.3273C394.386 94.5051 394.272 94.6785 394.096 94.7114C393.92 94.7442 393.751 94.626 393.718 94.4459C393.684 94.2657 393.799 94.0947 393.975 94.0618C394.151 94.029 394.319 94.1472 394.353 94.3273Z" fill="white"/>
<path d="M392.969 96.9134C393.4 96.8329 393.683 96.4099 393.6 95.9686C393.518 95.5273 393.102 95.2348 392.67 95.3153C392.239 95.3957 391.956 95.8187 392.039 96.26C392.121 96.7013 392.537 96.9938 392.969 96.9134Z" fill="white"/>
<path d="M361.333 104.096C363.754 103.644 365.341 101.269 364.879 98.7917C364.417 96.3141 362.08 94.6718 359.659 95.1235C357.238 95.5752 355.65 97.9499 356.112 100.427C356.575 102.905 358.912 104.547 361.333 104.096Z" fill="black"/>
<path d="M359.679 101.166C360.776 100.962 361.495 99.886 361.286 98.7637C361.076 97.6415 360.018 96.8976 358.921 97.1022C357.824 97.3068 357.105 98.3824 357.315 99.5047C357.524 100.627 358.583 101.371 359.679 101.166Z" fill="white"/>
<path d="M392.379 98.3027C394.8 97.8509 396.387 95.4763 395.925 92.9987C395.463 90.5211 393.126 88.8788 390.705 89.3305C388.284 89.7823 386.696 92.1569 387.158 94.6345C387.621 97.1121 389.958 98.7544 392.379 98.3027Z" fill="black"/>
<path d="M390.724 95.3732C391.821 95.1686 392.54 94.093 392.331 92.9707C392.121 91.8485 391.063 91.1046 389.966 91.3092C388.869 91.5138 388.15 92.5894 388.36 93.7117C388.569 94.8339 389.628 95.5778 390.724 95.3732Z" fill="white"/>
<path d="M394.353 94.3273C394.386 94.5051 394.272 94.6785 394.096 94.7114C393.92 94.7442 393.751 94.626 393.718 94.4459C393.684 94.2657 393.799 94.0947 393.975 94.0618C394.151 94.029 394.319 94.1472 394.353 94.3273Z" fill="white"/>
<path d="M392.969 96.9134C393.4 96.8329 393.683 96.4099 393.6 95.9686C393.518 95.5273 393.102 95.2348 392.67 95.3153C392.239 95.3957 391.956 95.8187 392.039 96.26C392.121 96.7013 392.537 96.9938 392.969 96.9134Z" fill="white"/>
<path d="M361.333 104.096C363.754 103.644 365.341 101.269 364.879 98.7917C364.417 96.3141 362.08 94.6718 359.659 95.1235C357.238 95.5752 355.65 97.9499 356.112 100.427C356.575 102.905 358.912 104.547 361.333 104.096Z" fill="black"/>
<path d="M359.679 101.166C360.776 100.962 361.495 99.886 361.286 98.7637C361.076 97.6415 360.018 96.8976 358.921 97.1022C357.824 97.3068 357.105 98.3824 357.315 99.5047C357.524 100.627 358.583 101.371 359.679 101.166Z" fill="white"/>
<path d="M363.308 100.116C363.341 100.294 363.227 100.468 363.051 100.5C362.875 100.533 362.707 100.415 362.673 100.235C362.639 100.055 362.754 99.8838 362.93 99.8509C363.106 99.818 363.274 99.9362 363.308 100.116Z" fill="white"/>
<path d="M361.926 102.706C362.357 102.626 362.64 102.203 362.557 101.762C362.475 101.32 362.059 101.028 361.627 101.108C361.196 101.189 360.913 101.612 360.996 102.053C361.078 102.494 361.494 102.787 361.926 102.706Z" fill="white"/>
<path d="M348.017 106.422C347.863 106.422 347.723 106.319 347.68 106.165C346.862 103.185 346.448 100.093 346.448 96.9733C346.448 77.8619 361.998 62.3125 381.109 62.3125C389.059 62.3125 396.535 64.9295 402.732 69.8834C408.747 74.6911 413.04 81.4383 414.821 88.8836C414.866 89.0709 414.751 89.2604 414.561 89.3057C414.374 89.351 414.184 89.2357 414.139 89.0462C410.474 73.7192 396.891 63.0146 381.109 63.0146C362.383 63.0146 347.148 78.249 347.148 96.9753C347.148 100.031 347.554 103.062 348.355 105.981C348.406 106.169 348.297 106.36 348.11 106.412C348.079 106.418 348.048 106.422 348.017 106.422Z" fill="black"/>
<path d="M398.839 78.7547C399.247 79.255 399.679 79.8047 400.303 79.9756C400.686 80.0806 401.094 80.025 401.479 79.9303C402.846 79.5947 404.197 78.5693 404.295 77.1651C404.403 75.6291 403.046 74.4329 401.816 73.5022C399.488 71.7397 393.103 66.5099 390.204 69.481C387.933 71.8077 391.602 72.7692 393.173 73.7534C395.316 75.0959 397.241 76.7924 398.839 78.7547Z" fill="white"/>
<path d="M403.294 81.2943C402.798 81.5537 402.285 81.8791 402.077 82.3979C401.95 82.715 401.952 83.0671 401.972 83.4089C402.01 84.0019 402.102 84.5907 402.248 85.1652C402.343 85.5337 402.462 85.9064 402.699 86.2029C403.16 86.7815 403.949 86.9544 404.641 87.2221C404.892 87.3189 405.143 87.4342 405.411 87.4712C406.105 87.5659 406.782 87.0924 407.12 86.4788C407.458 85.8652 407.521 85.1405 407.528 84.4404C407.532 83.936 407.511 83.4295 407.464 82.9271C407.408 82.3403 407.309 81.7288 406.955 81.2572C405.981 79.9498 404.427 80.7034 403.294 81.2943Z" fill="white"/>
<path fill-rule="evenodd" clip-rule="evenodd" d="M140.489 56.3054C140.5 56.3589 140.543 56.4017 140.607 56.4231C142.117 56.8616 143.306 58.0497 143.745 59.5486C143.767 59.6235 143.831 59.6664 143.895 59.6663C143.959 59.6663 144.024 59.6235 144.045 59.5485C144.483 58.0387 145.672 56.8498 147.181 56.4211C147.245 56.3997 147.288 56.3568 147.299 56.3033L147.31 56.3033L147.31 56.2819L147.31 56.2605L147.299 56.2605C147.288 56.2069 147.245 56.1641 147.181 56.1427C145.671 55.7149 144.482 54.5268 144.043 53.0172C144.022 52.9423 143.957 52.8995 143.893 52.8995C143.829 52.8995 143.765 52.9423 143.743 53.0173C143.305 54.5271 142.117 55.716 140.607 56.1447C140.543 56.1661 140.5 56.209 140.489 56.2625L140.479 56.2625L140.479 56.2839L140.479 56.3054L140.489 56.3054Z" fill="white"/>
<path fill-rule="evenodd" clip-rule="evenodd" d="M253.489 44.3054C253.5 44.3589 253.543 44.4017 253.607 44.4231C255.117 44.8616 256.306 46.0497 256.745 47.5486C256.767 47.6235 256.831 47.6664 256.895 47.6663C256.959 47.6663 257.024 47.6235 257.045 47.5485C257.483 46.0387 258.672 44.8498 260.181 44.4211C260.245 44.3997 260.288 44.3568 260.299 44.3033L260.31 44.3033L260.31 44.2819L260.31 44.2605L260.299 44.2605C260.288 44.2069 260.245 44.1641 260.181 44.1427C258.671 43.7149 257.482 42.5268 257.043 41.0172C257.022 40.9423 256.957 40.8995 256.893 40.8995C256.829 40.8995 256.765 40.9423 256.743 41.0173C256.305 42.5271 255.117 43.716 253.607 44.1447C253.543 44.1661 253.5 44.209 253.489 44.2625L253.479 44.2625L253.479 44.2839L253.479 44.3054L253.489 44.3054Z" fill="#FFD724"/>
<path fill-rule="evenodd" clip-rule="evenodd" d="M303.489 14.3054C303.5 14.3589 303.543 14.4017 303.607 14.4231C305.117 14.8616 306.306 16.0497 306.745 17.5486C306.767 17.6235 306.831 17.6664 306.895 17.6663C306.959 17.6663 307.024 17.6235 307.045 17.5485C307.483 16.0387 308.672 14.8498 310.181 14.4211C310.245 14.3997 310.288 14.3568 310.299 14.3033L310.31 14.3033L310.31 14.2819L310.31 14.2605L310.299 14.2605C310.288 14.2069 310.245 14.1641 310.181 14.1427C308.671 13.7149 307.482 12.5268 307.043 11.0172C307.022 10.9423 306.957 10.8995 306.893 10.8995C306.829 10.8995 306.765 10.9423 306.743 11.0173C306.305 12.5271 305.117 13.716 303.607 14.1447C303.543 14.1661 303.5 14.209 303.489 14.2625L303.479 14.2625L303.479 14.2839L303.479 14.3054L303.489 14.3054Z" fill="white"/>
<path fill-rule="evenodd" clip-rule="evenodd" d="M233.489 10.3054C233.5 10.3589 233.543 10.4017 233.607 10.4231C235.117 10.8616 236.306 12.0497 236.745 13.5486C236.767 13.6235 236.831 13.6664 236.895 13.6663C236.959 13.6663 237.024 13.6235 237.045 13.5485C237.483 12.0387 238.672 10.8498 240.181 10.4211C240.245 10.3997 240.288 10.3568 240.299 10.3033L240.31 10.3033L240.31 10.2819L240.31 10.2605L240.299 10.2605C240.288 10.2069 240.245 10.1641 240.181 10.1427C238.671 9.71489 237.482 8.52677 237.043 7.01721C237.022 6.94227 236.957 6.89946 236.893 6.89947C236.829 6.89949 236.765 6.94235 236.743 7.0173C236.305 8.52713 235.117 9.71597 233.607 10.1447C233.543 10.1661 233.5 10.209 233.489 10.2625L233.479 10.2625L233.479 10.2839L233.479 10.3054L233.489 10.3054Z" fill="white"/>
<path fill-rule="evenodd" clip-rule="evenodd" d="M249.489 90.3054C249.5 90.3589 249.543 90.4017 249.607 90.4231C251.117 90.8616 252.306 92.0497 252.745 93.5486C252.767 93.6235 252.831 93.6664 252.895 93.6663C252.959 93.6663 253.024 93.6235 253.045 93.5485C253.483 92.0387 254.672 90.8498 256.181 90.4211C256.245 90.3997 256.288 90.3568 256.299 90.3033L256.31 90.3033L256.31 90.2819L256.31 90.2605L256.299 90.2605C256.288 90.2069 256.245 90.1641 256.181 90.1427C254.671 89.7149 253.482 88.5268 253.043 87.0172C253.022 86.9423 252.957 86.8995 252.893 86.8995C252.829 86.8995 252.765 86.9423 252.743 87.0173C252.305 88.5271 251.117 89.716 249.607 90.1447C249.543 90.1661 249.5 90.209 249.489 90.2625L249.479 90.2625L249.479 90.2839L249.479 90.3054L249.489 90.3054Z" fill="white"/>
<path fill-rule="evenodd" clip-rule="evenodd" d="M233.489 10.3054C233.5 10.3589 233.543 10.4017 233.607 10.4231C235.117 10.8616 236.306 12.0497 236.745 13.5486C236.767 13.6235 236.831 13.6664 236.895 13.6663C236.959 13.6663 237.024 13.6235 237.045 13.5485C237.483 12.0387 238.672 10.8498 240.181 10.4211C240.245 10.3997 240.288 10.3568 240.299 10.3033L240.31 10.3033L240.31 10.2819L240.31 10.2605L240.299 10.2605C240.288 10.2069 240.245 10.1641 240.181 10.1427C238.671 9.71489 237.482 8.52677 237.043 7.01721C237.022 6.94227 236.957 6.89946 236.893 6.89947C236.829 6.89949 236.765 6.94235 236.743 7.0173C236.305 8.52713 235.117 9.71597 233.607 10.1447C233.543 10.1661 233.5 10.209 233.489 10.2625L233.479 10.2625L233.479 10.2839L233.479 10.3054L233.489 10.3054Z" fill="white"/>
<path fill-rule="evenodd" clip-rule="evenodd" d="M344.489 59.3054C344.5 59.3589 344.543 59.4017 344.607 59.4231C346.117 59.8616 347.306 61.0497 347.745 62.5486C347.767 62.6235 347.831 62.6664 347.895 62.6663C347.959 62.6663 348.024 62.6235 348.045 62.5485C348.483 61.0387 349.672 59.8498 351.181 59.4211C351.245 59.3997 351.288 59.3568 351.299 59.3033L351.31 59.3033L351.31 59.2819L351.31 59.2605L351.299 59.2605C351.288 59.2069 351.245 59.1641 351.181 59.1427C349.671 58.7149 348.482 57.5268 348.043 56.0172C348.022 55.9423 347.957 55.8995 347.893 55.8995C347.829 55.8995 347.765 55.9423 347.743 56.0173C347.305 57.5271 346.117 58.716 344.607 59.1447C344.543 59.1661 344.5 59.209 344.489 59.2625L344.479 59.2625L344.479 59.2839L344.479 59.3054L344.489 59.3054Z" fill="#FFD724"/>
<path d="M25.7471 43.6851C26.1143 43.3691 26.6943 43.5918 26.7489 44.081L25.7471 43.6851ZM25.7471 43.6851L25.7228 43.7085L21.8281 47.4454L21.8277 47.4458C21.4456 47.8115 20.9092 47.9665 20.3898 47.8594L20.3893 47.8593L15.1035 46.7647C14.6094 46.6625 14.2122 47.1721 14.4317 47.6272L16.7817 52.4915L16.7818 52.4917C17.0119 52.9685 16.9946 53.5282 16.731 53.9894C16.731 53.9895 16.731 53.9895 16.731 53.9895L14.0613 58.6822L14.0613 58.6823C13.8115 59.1211 14.1726 59.6561 14.6734 59.5879C14.6735 59.5879 14.6735 59.5879 14.6736 59.5879L20.0203 58.8567L20.0208 58.8566C20.5447 58.7855 21.0712 58.9768 21.4278 59.3679L21.4281 59.3682L25.0637 63.3633L25.0638 63.3634C25.4033 63.7366 26.0241 63.558 26.1131 63.0615L26.1131 63.0613L27.0675 57.7444L27.0676 57.7439C27.1616 57.2232 27.5041 56.7818 27.9869 56.5632L27.9871 56.5631L32.9038 54.339L32.9039 54.339C33.3639 54.1311 33.3858 53.4852 32.9401 53.2458L28.1828 50.6912L28.1822 50.6909C27.7165 50.44 27.4027 49.9765 27.3435 49.4501L27.3434 49.4492L26.7489 44.0813L25.7471 43.6851Z" fill="#E9FF90" stroke="black"/>
<path d="M177.9 54.6886C178.146 54.2713 178.766 54.2956 178.976 54.7414L177.9 54.6886ZM177.9 54.6886L177.884 54.7185L175.398 59.5094L175.398 59.5099C175.153 59.979 174.695 60.2983 174.169 60.3639L174.169 60.364L168.812 61.0271C168.311 61.0892 168.099 61.6995 168.453 62.0599L172.242 65.9101L172.242 65.9103C172.613 66.2878 172.777 66.8233 172.676 67.3448C172.676 67.3449 172.676 67.3449 172.676 67.3449L171.657 72.6468L171.657 72.6469C171.561 73.1427 172.075 73.5332 172.528 73.3076C172.528 73.3076 172.528 73.3076 172.528 73.3075L177.355 70.8959L177.356 70.8957C177.829 70.6598 178.389 70.6717 178.853 70.9273L178.853 70.9276L183.58 73.5415L183.58 73.5415C184.022 73.7857 184.552 73.4169 184.477 72.9182L184.477 72.918L183.671 67.5766L183.671 67.5761C183.592 67.0528 183.775 66.5248 184.161 66.1625L184.162 66.1623L188.102 62.4754L188.102 62.4753C188.471 62.1305 188.284 61.5119 187.785 61.4286L182.459 60.5394L182.458 60.5393C181.937 60.4515 181.49 60.1135 181.265 59.634L181.265 59.6333L178.976 54.7416L177.9 54.6886Z" fill="#E9FF90" stroke="black"/>
<path d="M323.109 12.7388C323.215 12.2661 323.814 12.0986 324.149 12.4587L323.109 12.7388ZM323.109 12.7388L323.104 12.772L322.209 18.0948L322.208 18.0954C322.12 18.6168 321.782 19.0613 321.301 19.2853L321.301 19.2855L316.406 21.5615C315.949 21.7743 315.934 22.4203 316.382 22.6544L321.17 25.1553L321.171 25.1554C321.64 25.4007 321.96 25.8602 322.024 26.3876C322.024 26.3876 322.024 26.3876 322.024 26.3876L322.682 31.7463L322.682 31.7464C322.743 32.2476 323.352 32.4614 323.713 32.1078C323.713 32.1078 323.714 32.1077 323.714 32.1077L327.568 28.3303L327.568 28.33C327.946 27.9602 328.482 27.7995 329.002 27.9006L329.002 27.9007L334.304 28.9369L334.304 28.9369C334.799 29.0338 335.191 28.5199 334.966 28.0685L334.966 28.0683L332.559 23.2323L332.558 23.2319C332.323 22.758 332.335 22.1994 332.592 21.7359L332.592 21.7357L335.21 17.017L335.21 17.0169C335.455 16.5756 335.087 16.0442 334.586 16.1181L329.245 16.9071L329.244 16.9072C328.721 16.9838 328.192 16.7991 327.831 16.4121L327.83 16.4114L324.15 12.4588L323.109 12.7388Z" fill="#E9FF90" stroke="black"/>
<path d="M119.798 60.9689C118.708 63.0338 117.107 64.8522 115.715 66.4311L111.349 67.5834C109.358 66.8972 107.069 66.1057 105.102 64.8474C103.146 63.5962 101.546 61.9057 100.893 59.432C100.105 56.4483 101.893 53.3791 104.877 52.5916C106.498 52.1637 108.207 52.4848 109.556 53.4492L110.046 53.8001L110.3 53.2527C110.997 51.7484 112.325 50.6259 113.947 50.198C116.93 49.4106 120 51.1981 120.787 54.1818C121.44 56.6554 120.882 58.9157 119.798 60.9689Z" fill="#F8AFDB" stroke="black"/>
<path d="M117.144 54.4831C117.406 54.9305 117.912 55.2392 118.413 55.1069V55.1069C118.915 54.9746 119.221 54.4556 119.003 53.9851C118.264 52.3894 116.736 51.1735 114.736 51.311C114.219 51.3466 113.918 51.8726 114.05 52.374V52.374C114.183 52.8754 114.703 53.1474 115.22 53.1857C116.147 53.2545 116.771 53.8473 117.144 54.4831Z" fill="#EDF7F5"/>
<path d="M378.921 45.4013C377.157 46.9311 375.006 48.0458 373.136 49.0129L368.649 48.5048C367.042 47.1441 365.195 45.5767 363.818 43.6913C362.448 41.8166 361.569 39.6609 361.857 37.1188C362.204 34.0526 364.982 31.8395 368.048 32.1867C369.715 32.3754 371.191 33.2938 372.099 34.6814L372.429 35.1863L372.864 34.768C374.059 33.6185 375.703 33.0534 377.369 33.2421C380.436 33.5893 382.649 36.3674 382.301 39.4336C382.014 41.9758 380.675 43.8802 378.921 45.4013Z" fill="#F8AFDB" stroke="black"/>
<path d="M378.798 38.3929C378.88 38.9049 379.239 39.3758 379.755 39.4342V39.4342C380.27 39.4925 380.744 39.1198 380.711 38.6023C380.6 36.8472 379.617 35.1603 377.703 34.5639C377.208 34.4097 376.737 34.7909 376.679 35.3062V35.3062C376.62 35.8215 377.007 36.2636 377.475 36.4867C378.314 36.8865 378.681 37.6651 378.798 38.3929Z" fill="#EDF7F5"/>
<path d="M151.265 24.5731L150.937 24.2451L150.585 24.5475L135.164 37.8089C134.896 37.8265 134.54 37.7415 134.126 37.5347C133.661 37.3026 133.185 36.947 132.783 36.5456C132.344 36.1066 132.007 35.6093 131.791 35.1404C131.606 34.7398 131.524 34.3895 131.519 34.1292L144.764 18.7268L145.067 18.3751L144.739 18.0472L141.314 14.6228C141.196 14.5045 141.137 14.3892 141.112 14.2739C141.087 14.1556 141.092 14.0033 141.156 13.8043L141.166 13.7734L141.172 13.7415C141.184 13.6773 141.223 13.603 141.338 13.5153C141.455 13.4266 141.626 13.3438 141.85 13.2695C144.866 12.7069 148.226 12.64 150.878 12.7283C152.207 12.7726 153.352 12.8555 154.18 12.933C154.594 12.9718 154.927 13.009 155.163 13.0391C155.282 13.0542 155.373 13.0673 155.437 13.0775C155.476 13.0837 155.496 13.0876 155.503 13.089L155.562 13.1099L155.631 13.1099C155.636 13.111 155.643 13.1131 155.654 13.1165C155.685 13.1267 155.727 13.144 155.775 13.1686C155.857 13.2103 155.928 13.2585 155.974 13.2976C155.977 13.3004 155.979 13.3032 155.981 13.3061C155.989 13.3154 155.998 13.3263 156.009 13.3381C156.112 13.4467 156.251 13.6965 156.324 13.9063C156.325 13.9132 156.329 13.9332 156.334 13.9723C156.344 14.0365 156.356 14.1286 156.37 14.2479C156.398 14.4857 156.431 14.8215 156.466 15.2386C156.536 16.0725 156.61 17.225 156.647 18.5582C156.722 21.2291 156.651 24.6014 156.125 27.5864C156.086 27.7956 155.914 28.0223 155.582 28.2367C155.122 28.2815 154.882 28.1906 154.689 27.9974L151.265 24.5731Z" fill="#31A26A" stroke="black"/>
<path d="M306.85 85.9534L306.618 86.355L307.001 86.6164L323.802 98.0797C323.889 98.3344 323.899 98.7002 323.806 99.1536C323.702 99.6624 323.482 100.215 323.198 100.706C322.888 101.244 322.495 101.699 322.098 102.029C321.758 102.31 321.441 102.481 321.191 102.553L302.886 93.7454L302.468 93.5443L302.236 93.9459L299.814 98.1399C299.731 98.2848 299.635 98.3721 299.53 98.4255C299.422 98.4803 299.273 98.515 299.065 98.5045L299.032 98.5028L299 98.5054C298.935 98.5106 298.853 98.4926 298.738 98.4037C298.622 98.3138 298.498 98.1695 298.369 97.9729C297.044 95.205 296.11 91.9775 295.509 89.392C295.208 88.0973 294.992 86.9695 294.852 86.1498C294.782 85.7398 294.732 85.4083 294.7 85.1727C294.684 85.0546 294.673 84.9628 294.666 84.8984C294.662 84.8595 294.661 84.839 294.66 84.8316L294.665 84.7692L294.647 84.7023C294.647 84.6976 294.647 84.6898 294.648 84.6788C294.65 84.646 294.656 84.601 294.667 84.5483C294.686 84.4588 294.714 84.3776 294.74 84.3224C294.742 84.3196 294.744 84.3167 294.746 84.3136C294.753 84.304 294.762 84.2921 294.77 84.2782C294.848 84.1504 295.054 83.9522 295.238 83.8275C295.244 83.8246 295.262 83.8158 295.298 83.8C295.358 83.7742 295.444 83.7387 295.555 83.6944C295.778 83.6061 296.094 83.4865 296.488 83.3448C297.275 83.0616 298.369 82.6923 299.647 82.3111C302.208 81.5473 305.483 80.7428 308.503 80.4788C308.715 80.4626 308.979 80.5702 309.271 80.8347C309.434 81.2676 309.408 81.5228 309.272 81.7594L306.85 85.9534Z" fill="#84BCFF" stroke="black"/>
</g>
</g>
<defs>
<clipPath id="clip0_7138_115019">
<rect width="436" height="120" fill="white" transform="translate(0 0.71875)"/>
</clipPath>
<clipPath id="clip1_7138_115019">
<rect width="436" height="120" fill="white" transform="translate(0 0.71875)"/>
</clipPath>
</defs>
</svg>
