<svg width="14" height="14" viewBox="0 0 14 14" fill="none" xmlns="http://www.w3.org/2000/svg">
<path d="M6.83544 3.60938C6.63056 3.60938 6.43407 3.69076 6.28919 3.83564C6.14432 3.98051 6.06293 4.17701 6.06293 4.38189C6.06293 4.58677 6.14432 4.78327 6.28919 4.92814C6.43407 5.07302 6.63056 5.15441 6.83544 5.15441C7.04033 5.15441 7.23682 5.07302 7.38169 4.92814C7.52657 4.78327 7.60796 4.58677 7.60796 4.38189C7.60796 4.17701 7.52657 3.98051 7.38169 3.83564C7.23682 3.69076 7.04033 3.60938 6.83544 3.60938ZM6.82639 5.93139C6.67286 5.93379 6.52656 5.99703 6.41962 6.10722C6.31268 6.21741 6.25385 6.36555 6.25606 6.51908L6.25497 10.3047C6.25388 10.3815 6.26807 10.4577 6.2967 10.529C6.32533 10.6002 6.36783 10.665 6.42174 10.7197C6.47565 10.7744 6.53989 10.8178 6.61072 10.8475C6.68156 10.8771 6.75757 10.8923 6.83436 10.8923C6.91114 10.8923 6.98716 10.8771 7.05799 10.8475C7.12883 10.8178 7.19306 10.7744 7.24697 10.7197C7.30088 10.665 7.34338 10.6002 7.37201 10.529C7.40064 10.4577 7.41483 10.3815 7.41374 10.3047L7.41483 6.51908C7.41594 6.44153 7.40147 6.36455 7.37229 6.2927C7.3431 6.22084 7.29978 6.15558 7.24491 6.10078C7.19003 6.04597 7.12472 6.00274 7.05283 5.97365C6.98093 5.94455 6.90394 5.93018 6.82639 5.93139Z" fill="#9F9F9F"/>
<circle cx="6.83551" cy="7.25" r="6" stroke="#9F9F9F" stroke-linejoin="round"/>
</svg>
