<svg width="19" height="18" viewBox="0 0 19 18" fill="none" xmlns="http://www.w3.org/2000/svg">
<path d="M9.24414 18C14.2147 18 18.2441 13.9706 18.2441 9C18.2441 4.02944 14.2147 0 9.24414 0C4.27358 0 0.244141 4.02944 0.244141 9C0.244141 13.9706 4.27358 18 9.24414 18Z" fill="#C1B6F6"/>
<path d="M8.34375 13.5016V9.00156C8.34375 8.50476 8.74695 8.10156 9.24375 8.10156C9.74055 8.10156 10.1438 8.50476 10.1438 9.00156V13.5016C10.1438 13.9984 9.74055 14.4016 9.24375 14.4016C8.74695 14.4016 8.34375 13.9984 8.34375 13.5016Z" fill="white"/>
<path d="M9.24453 6.30156C9.99012 6.30156 10.5945 5.69715 10.5945 4.95156C10.5945 4.20598 9.99012 3.60156 9.24453 3.60156C8.49895 3.60156 7.89453 4.20598 7.89453 4.95156C7.89453 5.69715 8.49895 6.30156 9.24453 6.30156Z" fill="white"/>
</svg>
