<svg width="17" height="17" viewBox="0 0 17 17" fill="none" xmlns="http://www.w3.org/2000/svg">
<path d="M8.87402 16C13.0162 16 16.374 12.6421 16.374 8.5C16.374 4.35786 13.0162 1 8.87402 1C4.73189 1 1.37402 4.35786 1.37402 8.5C1.37402 12.6421 4.73189 16 8.87402 16Z" stroke="#828282"/>
<path d="M8.17383 12.0047V8.50469C8.17383 8.11829 8.48743 7.80469 8.87383 7.80469C9.26023 7.80469 9.57383 8.11829 9.57383 8.50469V12.0047C9.57383 12.3911 9.26023 12.7047 8.87383 12.7047C8.48743 12.7047 8.17383 12.3911 8.17383 12.0047Z" fill="#828282"/>
<path d="M8.87422 6.40469C9.45412 6.40469 9.92422 5.93459 9.92422 5.35469C9.92422 4.77479 9.45412 4.30469 8.87422 4.30469C8.29432 4.30469 7.82422 4.77479 7.82422 5.35469C7.82422 5.93459 8.29432 6.40469 8.87422 6.40469Z" fill="#828282"/>
</svg>
