<svg width="23" height="25" viewBox="0 0 23 25" fill="none" xmlns="http://www.w3.org/2000/svg">
<path d="M2.17843 5.65616L2.17776 5.65655C1.43225 6.08841 0.970703 6.88495 0.970703 7.7479V17.2577C0.970703 18.1206 1.43225 18.9172 2.17776 19.349L2.17836 19.3494L10.4138 24.1049C11.1607 24.5375 12.0836 24.5375 12.8304 24.1049L21.0659 19.3494L21.0665 19.349C21.812 18.9172 22.2736 18.1206 22.2736 17.2577V7.7479C22.2736 6.88495 21.812 6.08841 21.0665 5.65655L21.0658 5.65616L12.8304 0.902613C12.8303 0.902555 12.8302 0.902496 12.8301 0.902437C12.0834 0.470021 11.1608 0.470021 10.4141 0.902437C10.414 0.902496 10.4139 0.902555 10.4138 0.902613L2.17843 5.65616Z" fill="#F8AFDB" stroke="black"/>
<path d="M8.36654 18.8211C8.14244 18.8211 7.93366 18.6889 7.83981 18.4782L4.72734 11.4029V16.3311C4.72734 16.6491 4.47068 16.9057 4.15273 16.9057C3.83478 16.9057 3.57812 16.6491 3.57812 16.3311V8.66966C3.57812 8.39768 3.76775 8.16401 4.03398 8.10654C4.30213 8.051 4.56837 8.18891 4.67754 8.4379L7.79193 15.5133V6.7543C7.79193 6.43635 8.04859 6.17969 8.36654 6.17969C8.68449 6.17969 8.94115 6.43635 8.94115 6.7543V18.2465C8.94115 18.5185 8.75152 18.7521 8.48529 18.8096C8.44507 18.8173 8.40484 18.8211 8.36654 18.8211Z" fill="black"/>
<path d="M19.7618 7.91593L11.9088 3.38226C11.7307 3.27883 11.5123 3.27883 11.3342 3.38226C11.1561 3.48569 11.0469 3.67531 11.0469 3.88025V21.1319C11.0469 21.4499 11.3035 21.7066 11.6215 21.7066C11.9394 21.7066 12.1961 21.4499 12.1961 21.1319V13.0798H14.4945C14.8125 13.0798 15.0691 12.8231 15.0691 12.5051C15.0691 12.1872 14.8125 11.9305 14.4945 11.9305H12.1961V4.87433L16.9922 7.64395C16.9883 7.66885 16.9845 7.69183 16.9845 7.71673V17.2936C16.9845 17.6115 17.2412 17.8682 17.5591 17.8682C17.8771 17.8682 18.1337 17.6115 18.1337 17.2936V8.30283L19.1872 8.91192C19.463 9.07089 19.8135 8.97704 19.9725 8.70123C20.1315 8.42542 20.0357 8.0749 19.7618 7.91593Z" fill="black"/>
</svg>
