<svg width="29" height="25" viewBox="0 0 29 25" fill="none" xmlns="http://www.w3.org/2000/svg">
<path d="M28.0227 12.4964C28.0227 19.0702 22.5796 24.399 15.8649 24.399H13.3795C13.3795 24.399 3.70703 18.6034 3.70703 12.4964C3.70815 6.76531 13.3806 0.59375 13.3806 0.59375L15.866 0.59375C22.5808 0.59375 28.0238 5.92254 28.0238 12.4964H28.0227Z" fill="#FAD414"/>
<path d="M15.8666 24.4998H13.3533L13.3298 24.4856C13.2327 24.4276 3.60937 18.5906 3.60937 12.4999C3.60937 6.78087 12.9301 0.768899 13.3265 0.515303L13.351 0.5L15.8655 0.5C22.6238 0.5 28.1227 5.88345 28.1227 12.4999C28.1227 19.1163 22.6238 24.4998 15.8655 24.4998H15.8666ZM13.4102 24.3041H15.8666C22.5155 24.3041 27.9239 19.0081 27.9239 12.4999C27.9239 5.99166 22.5144 0.695662 15.8666 0.695662L13.4113 0.695662C12.8709 1.04764 3.80923 7.02791 3.80923 12.4999C3.80923 18.3359 12.8776 23.9784 13.4102 24.3041Z" fill="black" stroke="black" stroke-width="0.298442"/>
<path d="M22.4297 2.67113L17.6677 2.67113C17.613 2.67113 17.5684 2.62741 17.5684 2.57385C17.5684 2.52029 17.613 2.47656 17.6677 2.47656L22.4297 2.47656C22.4844 2.47656 22.5291 2.52029 22.5291 2.57385C22.5291 2.62741 22.4844 2.67113 22.4297 2.67113Z" fill="black" stroke="black" stroke-width="0.298442"/>
<path d="M25.0702 5.01488H20.6677C20.613 5.01488 20.5684 4.97116 20.5684 4.9176C20.5684 4.86404 20.613 4.82031 20.6677 4.82031H25.0702C25.1249 4.82031 25.1696 4.86404 25.1696 4.9176C25.1696 4.97116 25.1249 5.01488 25.0702 5.01488Z" fill="black" stroke="black" stroke-width="0.298442"/>
<path d="M26.7404 7.36644H21.6189C21.5642 7.36644 21.5195 7.32272 21.5195 7.26916C21.5195 7.2156 21.5642 7.17188 21.6189 7.17188H26.7404C26.7951 7.17188 26.8398 7.2156 26.8398 7.26916C26.8398 7.32272 26.7951 7.36644 26.7404 7.36644Z" fill="black" stroke="black" stroke-width="0.298442"/>
<path d="M27.9246 12.0539H21.9646C21.9099 12.0539 21.8652 12.0102 21.8652 11.9567C21.8652 11.9031 21.9099 11.8594 21.9646 11.8594H27.9246C27.9793 11.8594 28.024 11.9031 28.024 11.9567C28.024 12.0102 27.9793 12.0539 27.9246 12.0539Z" fill="black" stroke="black" stroke-width="0.298442"/>
<path d="M27.2194 16.7414H21.6189C21.5642 16.7414 21.5195 16.6977 21.5195 16.6442C21.5195 16.5906 21.5642 16.5469 21.6189 16.5469H27.2194C27.2741 16.5469 27.3188 16.5906 27.3188 16.6442C27.3188 16.6977 27.2741 16.7414 27.2194 16.7414Z" fill="black" stroke="black" stroke-width="0.298442"/>
<path d="M25.0383 20.2571H19.5584C19.5036 20.2571 19.459 20.2133 19.459 20.1598C19.459 20.1062 19.5036 20.0625 19.5584 20.0625H25.0383C25.093 20.0625 25.1376 20.1062 25.1376 20.1598C25.1376 20.2133 25.093 20.2571 25.0383 20.2571Z" fill="black" stroke="black" stroke-width="0.298442"/>
<path fill-rule="evenodd" clip-rule="evenodd" d="M22.6146 22.4062L22.2766 22.6008H19.3342C19.2481 22.6008 19.1777 22.5571 19.1777 22.5035C19.1777 22.45 19.2481 22.4062 19.3342 22.4062H22.6146Z" fill="black"/>
<path d="M22.6146 22.4062L22.689 22.5356L23.173 22.257H22.6146V22.4062ZM22.2766 22.6008V22.75H22.3164L22.351 22.7301L22.2766 22.6008ZM22.5402 22.2769L22.2021 22.4715L22.351 22.7301L22.689 22.5356L22.5402 22.2769ZM22.2766 22.4516H19.3342V22.75H22.2766V22.4516ZM19.3342 22.4516C19.3252 22.4516 19.3174 22.4504 19.3115 22.4489C19.3086 22.4481 19.3063 22.4473 19.3047 22.4466C19.3031 22.4459 19.3024 22.4455 19.3025 22.4455C19.3025 22.4456 19.3036 22.4463 19.3055 22.448C19.3073 22.4497 19.3102 22.4526 19.3133 22.4572C19.3199 22.4668 19.327 22.4829 19.327 22.5035H19.0285C19.0285 22.601 19.0919 22.666 19.1449 22.699C19.2003 22.7334 19.2676 22.75 19.3342 22.75V22.4516ZM19.327 22.5035C19.327 22.5242 19.3199 22.5403 19.3133 22.5499C19.3102 22.5544 19.3073 22.5574 19.3055 22.5591C19.3036 22.5608 19.3025 22.5615 19.3025 22.5615C19.3024 22.5616 19.3031 22.5611 19.3047 22.5605C19.3063 22.5598 19.3086 22.559 19.3115 22.5582C19.3174 22.5566 19.3252 22.5555 19.3342 22.5555V22.257C19.2676 22.257 19.2003 22.2736 19.1449 22.3081C19.0919 22.341 19.0285 22.4061 19.0285 22.5035H19.327ZM19.3342 22.5555H22.6146V22.257H19.3342V22.5555Z" fill="black"/>
<path d="M13.3805 24.399C20.0951 24.399 25.5383 19.07 25.5383 12.4964C25.5383 5.92273 20.0951 0.59375 13.3805 0.59375C6.6659 0.59375 1.22266 5.92273 1.22266 12.4964C1.22266 19.07 6.6659 24.399 13.3805 24.399Z" fill="#E9FF90"/>
<path d="M13.3802 24.4998C6.62193 24.4998 1.12305 19.1163 1.12305 12.4999C1.12305 5.88345 6.62193 0.5 13.3802 0.5C20.1386 0.5 25.6375 5.88345 25.6375 12.4999C25.6375 19.1163 20.1386 24.4998 13.3802 24.4998ZM13.3802 0.695662C6.73135 0.695662 1.32179 5.99166 1.32179 12.4999C1.32179 19.0081 6.73135 24.3041 13.3802 24.3041C20.0292 24.3041 25.4376 19.0081 25.4376 12.4999C25.4376 5.99166 20.0292 0.695662 13.3802 0.695662Z" fill="black" stroke="black" stroke-width="0.298442"/>
<path d="M13.3799 21.6938C18.5646 21.6938 22.7677 17.579 22.7677 12.5032C22.7677 7.4273 18.5646 3.3125 13.3799 3.3125C8.19522 3.3125 3.99219 7.4273 3.99219 12.5032C3.99219 17.579 8.19522 21.6938 13.3799 21.6938Z" fill="#FAD414"/>
<mask id="path-14-outside-1_4392_96026" maskUnits="userSpaceOnUse" x="7.16797" y="6.35938" width="12" height="12" fill="black">
<rect fill="white" x="7.16797" y="6.35938" width="12" height="12"/>
<path fill-rule="evenodd" clip-rule="evenodd" d="M14.5869 8.54491C14.5869 7.8901 14.0481 7.35938 13.3833 7.35938C12.7184 7.35938 12.1796 7.8901 12.1796 8.54491V11.3105H9.37164C8.70681 11.3105 8.16797 11.8413 8.16797 12.4961C8.16797 13.1509 8.70681 13.6816 9.37164 13.6816H12.1796V16.4485C12.1796 17.1033 12.7184 17.634 13.3833 17.634C14.0481 17.634 14.5869 17.1033 14.5869 16.4485V13.6816H17.3961C18.0609 13.6816 18.5998 13.1509 18.5998 12.4961C18.5998 11.8413 18.0609 11.3105 17.3961 11.3105H14.5869V8.54491Z"/>
</mask>
<path fill-rule="evenodd" clip-rule="evenodd" d="M14.5869 8.54491C14.5869 7.8901 14.0481 7.35938 13.3833 7.35938C12.7184 7.35938 12.1796 7.8901 12.1796 8.54491V11.3105H9.37164C8.70681 11.3105 8.16797 11.8413 8.16797 12.4961C8.16797 13.1509 8.70681 13.6816 9.37164 13.6816H12.1796V16.4485C12.1796 17.1033 12.7184 17.634 13.3833 17.634C14.0481 17.634 14.5869 17.1033 14.5869 16.4485V13.6816H17.3961C18.0609 13.6816 18.5998 13.1509 18.5998 12.4961C18.5998 11.8413 18.0609 11.3105 17.3961 11.3105H14.5869V8.54491Z" fill="#E9FF90"/>
<path d="M12.1796 11.3105V11.7597H12.6287V11.3105H12.1796ZM12.1796 13.6816H12.6287V13.2325H12.1796V13.6816ZM14.5869 13.6816V13.2325H14.1378V13.6816H14.5869ZM14.5869 11.3105H14.1378V11.7597H14.5869V11.3105ZM13.3833 7.80852C13.8065 7.80852 14.1378 8.14456 14.1378 8.54491H15.0361C15.0361 7.63564 14.2897 6.91023 13.3833 6.91023V7.80852ZM12.6287 8.54491C12.6287 8.14456 12.96 7.80852 13.3833 7.80852V6.91023C12.4768 6.91023 11.7304 7.63564 11.7304 8.54491H12.6287ZM12.6287 11.3105V8.54491H11.7304V11.3105H12.6287ZM9.37164 11.7597H12.1796V10.8614H9.37164V11.7597ZM8.61711 12.4961C8.61711 12.0957 8.94841 11.7597 9.37164 11.7597V10.8614C8.46521 10.8614 7.71882 11.5868 7.71882 12.4961H8.61711ZM9.37164 13.2325C8.94841 13.2325 8.61711 12.8964 8.61711 12.4961H7.71882C7.71882 13.4053 8.46521 14.1308 9.37164 14.1308V13.2325ZM12.1796 13.2325H9.37164V14.1308H12.1796V13.2325ZM12.6287 16.4485V13.6816H11.7304V16.4485H12.6287ZM13.3833 17.1849C12.96 17.1849 12.6287 16.8488 12.6287 16.4485H11.7304C11.7304 17.3577 12.4768 18.0831 13.3833 18.0831V17.1849ZM14.1378 16.4485C14.1378 16.8488 13.8065 17.1849 13.3833 17.1849V18.0831C14.2897 18.0831 15.0361 17.3577 15.0361 16.4485H14.1378ZM14.1378 13.6816V16.4485H15.0361V13.6816H14.1378ZM17.3961 13.2325H14.5869V14.1308H17.3961V13.2325ZM18.1506 12.4961C18.1506 12.8964 17.8193 13.2325 17.3961 13.2325V14.1308C18.3025 14.1308 19.0489 13.4054 19.0489 12.4961H18.1506ZM17.3961 11.7597C17.8193 11.7597 18.1506 12.0957 18.1506 12.4961H19.0489C19.0489 11.5868 18.3025 10.8614 17.3961 10.8614V11.7597ZM14.5869 11.7597H17.3961V10.8614H14.5869V11.7597ZM14.1378 8.54491V11.3105H15.0361V8.54491H14.1378Z" fill="black" mask="url(#path-14-outside-1_4392_96026)"/>
<path d="M13.3808 21.7879C8.14877 21.7879 3.89258 17.6211 3.89258 12.4989C3.89258 7.37669 8.14877 3.21094 13.3808 3.21094C18.6128 3.21094 22.8679 7.37778 22.8679 12.4989C22.8679 17.62 18.6117 21.7879 13.3808 21.7879ZM13.3808 3.4066C8.2593 3.4066 4.09244 7.48599 4.09244 12.5C4.09244 17.514 8.2593 21.5934 13.3808 21.5934C18.5023 21.5934 22.6692 17.514 22.6692 12.5C22.6692 7.48599 18.5023 3.4066 13.3808 3.4066Z" fill="black" stroke="black" stroke-width="0.298442"/>
</svg>
