<svg width="19" height="21" viewBox="0 0 19 21" fill="none" xmlns="http://www.w3.org/2000/svg">
<path d="M10.6304 12.4425L5.59043 20.3625L4.15043 16.4025L0.19043 16.7625L4.51043 9.92249L10.6304 12.4425Z" fill="#961B20"/>
<path d="M1.86035 16.6109L4.1504 16.4025L4.99955 18.738L9.1904 12.0825L5.5904 10.6425L1.86035 16.6109Z" fill="#0276B4"/>
<path d="M7.75049 12.4425L12.7905 20.3625L14.2305 16.4025L18.1905 16.7625L13.8705 9.92249L7.75049 12.4425Z" fill="#E82F3E"/>
<path d="M16.5205 16.6109L14.2304 16.4025L13.3813 18.738L9.19043 12.0825L12.7904 10.6425L16.5205 16.6109Z" fill="#0292C9"/>
<path d="M9.1908 12.8025C12.5708 12.8025 15.3108 10.0625 15.3108 6.6825C15.3108 3.30252 12.5708 0.5625 9.1908 0.5625C5.81082 0.5625 3.0708 3.30252 3.0708 6.6825C3.0708 10.0625 5.81082 12.8025 9.1908 12.8025Z" fill="#D18D28"/>
<path d="M9.19025 11.3625C11.7749 11.3625 13.8703 9.26719 13.8703 6.6825C13.8703 4.09781 11.7749 2.0025 9.19025 2.0025C6.60556 2.0025 4.51025 4.09781 4.51025 6.6825C4.51025 9.26719 6.60556 11.3625 9.19025 11.3625Z" fill="#FBB540"/>
<path d="M8.20741 5.42605L6.05029 5.74416L7.6149 7.26282L7.25085 9.41269L9.17869 8.39394L11.1109 9.4045L10.7377 7.2562L12.2959 5.73093L10.1374 5.42196L9.1683 3.46869L8.20741 5.42605Z" fill="#D18D28"/>
</svg>
