<svg width="24" height="24" viewBox="0 0 24 24" fill="none" xmlns="http://www.w3.org/2000/svg">
<g clip-path="url(#clip0)">
<path d="M19.4217 12.6566C19.4217 17.1158 15.8066 20.7307 11.3475 20.7307C6.88831 20.7307 3.27344 17.1158 3.27344 12.6566C3.27344 8.19745 6.88831 4.58258 11.3475 4.58258C15.8066 4.58258 19.4217 8.19745 19.4217 12.6566V12.6566Z" fill="#D9D9D9"/>
<path d="M12.6572 12.6528C12.6572 13.3759 12.071 13.962 11.3478 13.962C10.6247 13.962 10.0386 13.3759 10.0386 12.6528C10.0386 11.9295 10.6247 11.3434 11.3478 11.3434C12.071 11.3434 12.6572 11.9295 12.6572 12.6528Z" fill="#EA6B65"/>
<path d="M11.347 7.85193C8.69568 7.85193 6.54639 10.0012 6.54639 12.6528C6.54639 15.3041 8.69568 17.4534 11.347 17.4534C13.9986 17.4534 16.1479 15.3041 16.1479 12.6528C16.1479 10.0012 13.9986 7.85193 11.347 7.85193V7.85193ZM11.347 15.7077C9.65991 15.7077 8.29211 14.3399 8.29211 12.6528C8.29211 10.9655 9.65991 9.59766 11.347 9.59766C13.0344 9.59766 14.4022 10.9655 14.4022 12.6528C14.4022 14.3399 13.0344 15.7077 11.347 15.7077Z" fill="#EA6B65"/>
<path d="M11.3473 4.36047C6.76764 4.36047 3.05518 8.07294 3.05518 12.6528C3.05518 17.2324 6.76764 20.9449 11.3473 20.9449C15.9271 20.9449 19.6396 17.2324 19.6396 12.6528C19.6396 8.07294 15.9271 4.36047 11.3473 4.36047V4.36047ZM11.3473 19.1992C7.73187 19.1992 4.8009 16.2682 4.8009 12.6528C4.8009 9.03717 7.73187 6.1062 11.3473 6.1062C14.9629 6.1062 17.8939 9.03717 17.8939 12.6528C17.8939 16.2682 14.9629 19.1992 11.3473 19.1992Z" fill="#EA6B65"/>
<path d="M11.3473 4.36047C6.76764 4.36047 3.05518 8.07294 3.05518 12.6528C3.05518 17.2324 6.76764 20.9449 11.3473 20.9449C15.9271 20.9449 19.6396 17.2324 19.6396 12.6528C19.6396 8.07294 15.9271 4.36047 11.3473 4.36047V4.36047ZM11.3473 19.1992C7.73187 19.1992 4.8009 16.2682 4.8009 12.6528C4.8009 9.03717 7.73187 6.1062 11.3473 6.1062C14.9629 6.1062 17.8939 9.03717 17.8939 12.6528C17.8939 16.2682 14.9629 19.1992 11.3473 19.1992Z" fill="#EA6B65"/>
<path d="M11.347 12.2162C11.106 12.2162 10.9106 12.4116 10.9106 12.6528V20.9271C11.056 20.9344 11.1996 20.9489 11.347 20.9489C11.4946 20.9489 11.6381 20.9344 11.7835 20.9271V12.6528C11.7835 12.4116 11.5881 12.2162 11.347 12.2162V12.2162Z" fill="#B6534F"/>
<path d="M10.9106 1.30536H11.7835V3.05109H10.9106V1.30536Z" fill="#69B0BB"/>
<path d="M0 12.2162H1.74573V13.0891H0V12.2162Z" fill="#69B0BB"/>
<path d="M10.9106 22.2543H11.7835V24H10.9106V22.2543Z" fill="#69B0BB"/>
<path d="M20.9487 12.2162H22.6945V13.0891H20.9487V12.2162Z" fill="#69B0BB"/>
<path d="M11.347 13.0891C11.106 13.0891 10.9106 12.8935 10.9106 12.6526C10.9108 12.5369 10.9568 12.4259 11.0385 12.344L18.8944 4.49047C19.0499 4.30627 19.3251 4.28302 19.5093 4.43847C19.6935 4.59393 19.7169 4.86932 19.5615 5.05352C19.5453 5.07257 19.5276 5.09033 19.5084 5.10626L11.6526 12.9622C11.5715 13.0431 11.4616 13.0889 11.347 13.0891V13.0891Z" fill="#F3AF3E"/>
<path d="M20.9141 5.55487L18.7542 5.24634L18.4453 3.08606L21.5317 0L21.8403 2.16028L24.0002 2.46899L20.9141 5.55487Z" fill="#69B0BB"/>
<path d="M18.4453 3.08606L18.7542 5.24634L20.9141 5.55487L22.4573 4.01166L20.2971 3.70312L19.9885 1.54321" fill="#DC4D41"/>
<path d="M21.843 2.16083L18.7544 5.24634L20.9143 5.55487L24.0004 2.46899L21.843 2.16083Z" fill="#69B0BB"/>
<path d="M21.843 2.16083L18.7544 5.24634L20.9143 5.55487L24.0004 2.46899L21.843 2.16083Z" fill="#60A0AA"/>
<path d="M20.2985 3.70367L18.7544 5.24634L20.9143 5.55487L22.4575 4.01166L20.2985 3.70367Z" fill="#C7463B"/>
</g>
<defs>
<clipPath id="clip0">
<rect width="24" height="24" fill="white"/>
</clipPath>
</defs>
</svg>
