<svg width="20" height="20" viewBox="0 0 20 20" fill="none" xmlns="http://www.w3.org/2000/svg">
<path d="M17.5 4.6875V17.8125C17.5 18.144 17.3683 18.462 17.1339 18.6964C16.8995 18.9308 16.5815 19.0625 16.25 19.0625H5.625C5.35454 19.0625 5.09137 18.9748 4.875 18.8125C4.78928 18.7492 4.71254 18.6746 4.64687 18.5906C4.47145 18.3691 4.37568 18.095 4.375 17.8125V4.6875C4.375 4.35598 4.5067 4.03804 4.74112 3.80362C4.97554 3.5692 5.29348 3.4375 5.625 3.4375H16.25C16.5815 3.4375 16.8995 3.5692 17.1339 3.80362C17.3683 4.03804 17.5 4.35598 17.5 4.6875Z" fill="#A97C50"/>
<path d="M16.25 5V15.3125H14.375C14.2094 15.313 14.0507 15.379 13.9336 15.4961C13.8165 15.6132 13.7505 15.7719 13.75 15.9375V17.8125H5.9375C5.85462 17.8125 5.77513 17.7796 5.71653 17.721C5.65792 17.6624 5.625 17.5829 5.625 17.5V5C5.625 4.91712 5.65792 4.83763 5.71653 4.77903C5.77513 4.72042 5.85462 4.6875 5.9375 4.6875H15.9375C16.0204 4.6875 16.0999 4.72042 16.1585 4.77903C16.2171 4.83763 16.25 4.91712 16.25 5Z" fill="#E6E7E8"/>
<path d="M12.1345 13.5969L11.9126 14.7032L11.2501 15.3657C11.134 15.4836 11.0688 15.6424 11.0688 15.8079C11.0688 15.9734 11.134 16.1322 11.2501 16.2501C11.3081 16.3082 11.3771 16.3543 11.453 16.3857C11.5288 16.4172 11.6102 16.4334 11.6923 16.4334C11.7744 16.4334 11.8558 16.4172 11.9316 16.3857C12.0075 16.3543 12.0764 16.3082 12.1345 16.2501L12.797 15.5876L13.9032 15.3657L14.122 15.1438L16.2501 13.0157V9.48444L12.1345 13.5969Z" fill="#D8D7DA"/>
<path d="M17.5 8.23444L16.25 9.48381V13.0157L17.5 11.7657V8.23444Z" fill="#8B5E3C"/>
<path d="M8.65 16.3969C8.57678 16.6849 8.46204 16.9607 8.30938 17.2156L8.75625 17.8125H5.9375C5.85462 17.8125 5.77513 17.7796 5.71653 17.721C5.65792 17.6624 5.625 17.5829 5.625 17.5V11.5625H6.25L6.39687 12.6C6.68487 12.6732 6.96068 12.788 7.21563 12.9406L8.05625 12.3094L8.94063 13.1938L8.30938 14.0344C8.46204 14.2893 8.57678 14.5651 8.65 14.8531L9.6875 15V16.25L8.65 16.3969Z" fill="#D8D7DA"/>
<path d="M18.8002 7.45005C18.6848 7.33362 18.5475 7.24112 18.3963 7.17784C18.2451 7.11456 18.0829 7.08175 17.9189 7.0813C17.776 7.08106 17.6342 7.10646 17.5002 7.1563C17.3247 7.21766 17.1655 7.31811 17.0346 7.45005L16.5908 7.89068L17.5002 8.80005L18.3596 9.65943L18.8002 9.21568C18.9168 9.1001 19.0093 8.96259 19.0724 8.81107C19.1356 8.65954 19.1681 8.49702 19.1681 8.33286C19.1681 8.16871 19.1356 8.00618 19.0724 7.85466C19.0093 7.70314 18.9168 7.56562 18.8002 7.45005Z" fill="#E6E7E8"/>
<path d="M17.4999 8.8L16.5905 7.89062L16.2499 8.23125V8.23438L15.928 8.55313L16.2499 8.875L16.8124 9.4375L17.4999 10.125L17.6967 10.3219L18.3592 9.65937L17.4999 8.8Z" fill="#FFA733"/>
<path d="M16.25 15.3125L13.75 17.8125V15.9375C13.7505 15.7719 13.8165 15.6132 13.9336 15.4961C14.0507 15.379 14.2094 15.313 14.375 15.3125H16.25Z" fill="#D1D3D4"/>
<path d="M16.25 15.3125V17.5C16.25 17.5829 16.2171 17.6624 16.1585 17.721C16.0999 17.7796 16.0204 17.8125 15.9375 17.8125H13.75L16.25 15.3125Z" fill="#E6E7E8"/>
<path d="M12.172 14.9625L11.5095 15.625C11.4219 15.7121 11.3105 15.7712 11.1893 15.795C11.0681 15.8188 10.9426 15.8062 10.8286 15.7587C10.7146 15.7112 10.6172 15.6311 10.5487 15.5283C10.4802 15.4255 10.4438 15.3047 10.4439 15.1813C10.4435 15.0995 10.4593 15.0184 10.4904 14.9428C10.5215 14.8672 10.5673 14.7985 10.6251 14.7406L11.2876 14.0781L12.172 14.9625Z" fill="#787680"/>
<path d="M13.497 14.5187L13.2782 14.7406L12.172 14.9625L11.2876 14.0781L11.5095 12.9719L11.7313 12.7531L12.6126 13.6375H12.6157L13.497 14.5187Z" fill="#898890"/>
<path d="M16.2502 8.87498L15.9283 8.5531L11.7314 12.7531L12.6127 13.6375H12.6158L16.2502 9.99998L16.8127 9.43748L16.2502 8.87498Z" fill="#00CCB3"/>
<path d="M17.5001 10.125L16.8126 9.4375L16.2501 10L12.6157 13.6375L13.497 14.5187L16.2501 11.7656L17.5001 10.5156L17.697 10.3219L17.5001 10.125Z" fill="#00B39D"/>
<path d="M9.77486 8.35C9.93428 8.57981 10.012 8.85645 9.99566 9.13566C9.97929 9.41487 9.86975 9.68053 9.68456 9.89013C9.49937 10.0997 9.24924 10.2412 8.97417 10.2918C8.6991 10.3425 8.41499 10.2994 8.16729 10.1695C7.91959 10.0396 7.72261 9.83041 7.60785 9.57535C7.4931 9.32028 7.46721 9.03409 7.53432 8.76257C7.60143 8.49105 7.75767 8.24988 7.97803 8.07764C8.1984 7.9054 8.47017 7.81204 8.74986 7.8125C8.95134 7.81307 9.14971 7.86222 9.32815 7.95579C9.50658 8.04936 9.65982 8.18459 9.77486 8.35Z" fill="#FF5023"/>
<path d="M7.5 5H14.375V5.9375H7.5V5Z" fill="#FFA733"/>
<path d="M13.95 3.4375C13.7221 3.23653 13.4288 3.12544 13.125 3.125H12.1875V2.1875C12.1875 1.85598 12.0558 1.53804 11.8214 1.30362C11.587 1.0692 11.269 0.9375 10.9375 0.9375C10.606 0.9375 10.288 1.0692 10.0536 1.30362C9.8192 1.53804 9.6875 1.85598 9.6875 2.1875V3.125H8.75C8.41871 3.12574 8.1012 3.25768 7.86694 3.49194C7.63268 3.7262 7.50074 4.04371 7.5 4.375V5H14.375V4.375C14.3751 4.19747 14.3372 4.02197 14.2639 3.86027C14.1906 3.69858 14.0836 3.55443 13.95 3.4375Z" fill="#FF9811"/>
<path d="M8.94063 18.0562L8.55937 18.4375L8.05625 18.9406L7.3875 18.4375L7.21563 18.3094C7.13776 18.3564 7.05744 18.3991 6.975 18.4375C6.79019 18.5282 6.59644 18.5994 6.39687 18.65L6.3375 19.0625H5.625C5.35454 19.0625 5.09137 18.9748 4.875 18.8125L4.85312 18.65C4.78437 18.6312 4.7125 18.6125 4.64687 18.5906C4.47145 18.3691 4.37568 18.095 4.375 17.8125V12.7688C4.52894 12.6981 4.68897 12.6417 4.85312 12.6L5 11.5625H5.625V17.5C5.625 17.5829 5.65792 17.6624 5.71653 17.721C5.77513 17.7796 5.85462 17.8125 5.9375 17.8125H8.75625L8.94063 18.0562Z" fill="#8B5E3C"/>
<path d="M8.025 15.7719C7.95178 16.0599 7.83704 16.3357 7.68437 16.5906L8.31563 17.4312L7.93437 17.8125L7.43125 18.3156L6.7625 17.8125L6.59062 17.6844C6.51276 17.7314 6.43244 17.7741 6.35 17.8125C6.16519 17.9032 5.97144 17.9744 5.77187 18.025L5.625 19.0625H4.375L4.22812 18.025C3.94013 17.9518 3.66432 17.837 3.40937 17.6844L2.56875 18.3156L1.68437 17.4312L2.31562 16.5906C2.16296 16.3357 2.04822 16.0599 1.975 15.7719L0.9375 15.625V14.375L1.975 14.2281C2.04822 13.9401 2.16296 13.6643 2.31562 13.4094L1.68437 12.5688L2.56875 11.6844L3.40937 12.3156C3.66432 12.163 3.94013 12.0482 4.22812 11.975L4.375 10.9375H5.625L5.77187 11.975C6.05987 12.0482 6.33568 12.163 6.59062 12.3156L7.43125 11.6844L8.31563 12.5688L7.68437 13.4094C7.83704 13.6643 7.95178 13.9401 8.025 14.2281L9.0625 14.375V15.625L8.025 15.7719Z" fill="#FF9811"/>
<path d="M5.62516 13.5656C5.42764 13.4811 5.21502 13.4375 5.00016 13.4375C4.78531 13.4375 4.57269 13.4811 4.37516 13.5656C4.09639 13.6877 3.85924 13.8884 3.69271 14.1432C3.52619 14.3979 3.4375 14.6957 3.4375 15C3.4375 15.3043 3.52619 15.6021 3.69271 15.8568C3.85924 16.1116 4.09639 16.3123 4.37516 16.4344C4.57269 16.5189 4.78531 16.5625 5.00016 16.5625C5.21502 16.5625 5.42764 16.5189 5.62516 16.4344C5.90394 16.3123 6.14109 16.1116 6.30761 15.8568C6.47414 15.6021 6.56283 15.3043 6.56283 15C6.56283 14.6957 6.47414 14.3979 6.30761 14.1432C6.14109 13.8884 5.90394 13.6877 5.62516 13.5656Z" fill="#FFD422"/>
<path d="M10.625 1.875H11.25V2.5H10.625V1.875Z" fill="#CC7400"/>
<path d="M4.6875 11.875H5.3125V12.5H4.6875V11.875Z" fill="#EE8700"/>
<path d="M2.56763 13.0103L3.00957 12.5684L3.45151 13.0103L3.00957 13.4523L2.56763 13.0103Z" fill="#EE8700"/>
<path d="M1.875 14.6875H2.5V15.3125H1.875V14.6875Z" fill="#EE8700"/>
<path d="M2.56738 16.9874L3.00932 16.5455L3.45127 16.9874L3.00932 17.4294L2.56738 16.9874Z" fill="#EE8700"/>
<path d="M4.6875 17.5H5.3125V18.125H4.6875V17.5Z" fill="#EE8700"/>
<path d="M6.54443 16.9878L6.98638 16.5459L7.42832 16.9878L6.98638 17.4297L6.54443 16.9878Z" fill="#EE8700"/>
<path d="M7.5 14.6875H8.125V15.3125H7.5V14.6875Z" fill="#EE8700"/>
<path d="M6.54492 13.0107L6.98686 12.5688L7.42881 13.0107L6.98686 13.4527L6.54492 13.0107Z" fill="#EE8700"/>
<path d="M8.5271 9.15399L10.0893 7.59174L10.5312 8.03362L8.96897 9.59587L8.5271 9.15399Z" fill="#D80027"/>
<path d="M10.9375 8.125H11.5625V8.75H10.9375V8.125Z" fill="#C6C5CA"/>
<path d="M12.1875 8.125H13.4375V8.75H12.1875V8.125Z" fill="#C6C5CA"/>
<path d="M10.9375 9.375H12.8125V10H10.9375V9.375Z" fill="#C6C5CA"/>
</svg>
