<svg xmlns="http://www.w3.org/2000/svg" xmlns:xlink="http://www.w3.org/1999/xlink" style="margin:auto;display:block;z-index:1;position:relative" width="2000" height="1000" preserveAspectRatio="xMidYMid" viewBox="0 0 2000 1000">
<g transform="translate(1000,500) scale(1,1) translate(-1000,-500)"><g transform="translate(1647.213595499958,29.771798166021483) scale(100)" opacity="0.30000000000000004">
  <path d="M7.52 0 C7.52 1.8399999999999999 8.26389542409204 2.6465132570366325 7.34389542409204 4.239999999999999 S5.3534867429633675 5.592511036458978 3.7600000000000007 6.512511036458978 S1.8400000000000003 8.48 5.192502428384778e-16 8.48 S-2.1665132570366312 7.432511036458978 -3.759999999999998 6.512511036458979 S-6.423895424092038 5.83348674296337 -7.343895424092039 4.240000000000003 S-7.52 1.8400000000000007 -7.52 9.209343929588095e-16 S-8.263895424092041 -2.6465132570366303 -7.343895424092041 -4.2399999999999975 S-5.35348674296337 -5.592511036458976 -3.7600000000000033 -6.512511036458977 S-1.8400000000000014 -8.48 -1.5577507285154332e-15 -8.48 S2.1665132570366272 -7.432511036458981 3.759999999999995 -6.5125110364589816 S6.423895424092037 -5.8334867429633706 7.343895424092038 -4.240000000000004 S7.519999999999999 -1.8400000000000016 7.52 -1.841868785917619e-15" fill="#00042d" stroke-width="0">
    <animateTransform attributeName="transform" type="rotate" dur="100s" repeatCount="indefinite" values="0;60"></animateTransform>
  </path>
</g><g transform="translate(1776.6563145999496,-64.2738422007742) scale(100)" opacity="0.30000000000000004">
  <path d="M9.024 0 C9.024 2.2079999999999997 9.916674508910448 3.175815908443959 8.81267450891045 5.087999999999999 S6.42418409155604 6.711013243750773 4.5120000000000005 7.815013243750773 S2.208 10.176 6.231002914061733e-16 10.176 S-2.5998159084439574 8.919013243750774 -4.511999999999998 7.815013243750774 S-7.708674508910445 7.000184091556044 -8.812674508910446 5.088000000000004 S-9.024 2.2080000000000006 -9.024 1.1051212715505715e-15 S-9.916674508910448 -3.1758159084439566 -8.81267450891045 -5.087999999999997 S-6.424184091556044 -6.711013243750771 -4.512000000000004 -7.815013243750772 S-2.2080000000000015 -10.176 -1.8693008742185197e-15 -10.176 S2.5998159084439525 -8.919013243750776 4.511999999999993 -7.815013243750777 S7.708674508910445 -7.0001840915560445 8.812674508910446 -5.0880000000000045 S9.024 -2.208000000000002 9.024 -2.210242543101143e-15" fill="#232a65" stroke-width="0">
    <animateTransform attributeName="transform" type="rotate" dur="50s" repeatCount="indefinite" values="0;60"></animateTransform>
  </path>
</g><g transform="translate(2087.3188404399293,-289.98337908108385) scale(100)" opacity="0.30000000000000004">
  <path d="M12.6336 0 C12.6336 3.0911999999999997 13.883344312474627 4.446142271821542 12.337744312474626 7.123199999999999 S8.993857728178458 9.395418541251082 6.3168000000000015 10.941018541251083 S3.0912000000000006 14.2464 8.723404079686426e-16 14.2464 S-3.6397422718215404 12.486618541251083 -6.316799999999997 10.941018541251085 S-10.792144312474624 9.80025772817846 -12.337744312474625 7.123200000000004 S-12.6336 3.091200000000001 -12.6336 1.5471697801708001e-15 S-13.883344312474627 -4.4461422718215395 -12.337744312474628 -7.123199999999996 S-8.993857728178462 -9.395418541251079 -6.316800000000005 -10.941018541251081 S-3.0912000000000024 -14.2464 -2.6170212239059275e-15 -14.2464 S3.639742271821534 -12.486618541251087 6.316799999999992 -10.941018541251088 S10.792144312474623 -9.800257728178462 12.337744312474623 -7.123200000000006 S12.6336 -3.091200000000003 12.6336 -3.0943395603416002e-15" fill="#514ca3" stroke-width="0">
    <animateTransform attributeName="transform" type="rotate" dur="33.333333333333336s" repeatCount="indefinite" values="0;60"></animateTransform>
  </path>
</g><g transform="translate(2739.710144703887,-763.9734065297343) scale(100)" opacity="0.30000000000000004">
  <path d="M20.21376 0 C20.21376 4.94592 22.213350899959405 7.113827634914468 19.740390899959404 11.39712 S14.390172365085533 15.032669666001734 10.106880000000002 17.505629666001735 S4.945920000000002 22.794240000000002 1.3957446527498283e-15 22.794240000000002 S-5.823587634914464 19.978589666001735 -10.106879999999995 17.505629666001735 S-17.2674308999594 15.680412365085537 -19.7403908999594 11.397120000000008 S-20.21376 4.945920000000003 -20.21376 2.47547164827328e-15 S-22.21335089995941 -7.113827634914462 -19.740390899959408 -11.397119999999994 S-14.39017236508554 -15.032669666001729 -10.10688000000001 -17.50562966600173 S-4.9459200000000045 -22.794240000000002 -4.1872339582494846e-15 -22.794240000000002 S5.823587634914453 -19.97858966600174 10.106879999999986 -17.50562966600174 S17.267430899959393 -15.680412365085541 19.740390899959397 -11.397120000000012 S20.21376 -4.945920000000005 20.21376 -4.95094329654656e-15" fill="#8570e4" stroke-width="0">
    <animateTransform attributeName="transform" type="rotate" dur="25s" repeatCount="indefinite" values="0;60"></animateTransform>
  </path>
</g></g>
</svg>