<svg width="25" height="29" viewBox="0 0 25 29" fill="none" xmlns="http://www.w3.org/2000/svg">
<rect x="0.411621" y="0.0234375" width="23.7544" height="28" rx="4" fill="#313131"/>
<path d="M13.0043 12.8583C13.2512 12.8799 13.4233 12.9069 13.5955 12.9078C14.9174 12.9114 16.2385 12.9024 17.5604 12.9186C17.7632 12.9214 17.9641 13.0322 18.166 13.0926C18.066 13.2899 18.0137 13.5413 17.8596 13.6765C15.8005 15.4716 13.727 17.2513 11.6562 19.0337C10.9281 19.6609 10.2072 20.2971 9.46015 20.9C9.32138 21.0117 9.07086 20.9856 8.87262 21.0234C8.87802 20.8315 8.82125 20.608 8.89965 20.453C9.69445 18.8706 10.5118 17.3 11.321 15.7257C11.4003 15.5716 11.4679 15.4112 11.5715 15.1886C11.3255 15.167 11.1534 15.139 10.9813 15.139C9.6593 15.1354 8.33824 15.1444 7.01628 15.1282C6.81352 15.1255 6.61257 15.0147 6.41162 14.9534C6.51165 14.7561 6.56391 14.5046 6.718 14.3695C8.99426 12.3888 11.2831 10.4225 13.5702 8.45354C14.0821 8.01288 14.584 7.55781 15.1184 7.14599C15.2607 7.03605 15.5077 7.06038 15.7059 7.02344C15.6996 7.21538 15.7564 7.43886 15.678 7.59386C14.8832 9.17625 14.0658 10.7469 13.2566 12.3212C13.1764 12.4753 13.1088 12.6348 13.0043 12.8583Z" fill="#FFA700"/>
</svg>
