<svg width="25" height="29" viewBox="0 0 25 29" fill="none" xmlns="http://www.w3.org/2000/svg">
<rect x="0.411621" y="0.0234375" width="23.75" height="28" rx="4" fill="#313131"/>
<path fill-rule="evenodd" clip-rule="evenodd" d="M14.997 11.6796C14.9947 11.6796 14.9928 11.6811 14.9923 11.6833C14.9826 11.7242 14.949 11.7568 14.8993 11.7733C13.6974 12.1228 12.7512 13.0691 12.4017 14.2625C12.3846 14.3222 12.3335 14.3563 12.2823 14.3563C12.2312 14.3563 12.18 14.3222 12.163 14.2625C11.8135 13.0605 10.8672 12.1143 9.66528 11.7733C9.61564 11.7568 9.58207 11.7242 9.57233 11.6833C9.57182 11.6811 9.56991 11.6796 9.56767 11.6796C9.56509 11.6796 9.56299 11.6775 9.56299 11.6749V11.6625V11.6501C9.56299 11.6476 9.56509 11.6455 9.56767 11.6455C9.56991 11.6455 9.57182 11.6439 9.57233 11.6417C9.58207 11.6008 9.61564 11.5682 9.66528 11.5517C10.8672 11.2107 11.8135 10.2645 12.163 9.06252C12.18 9.00285 12.2312 8.96875 12.2823 8.96875C12.3335 8.96875 12.3846 9.00285 12.4017 9.06252C12.7512 10.2645 13.6974 11.2107 14.8993 11.5517C14.949 11.5682 14.9826 11.6008 14.9923 11.6417C14.9928 11.6439 14.9947 11.6455 14.997 11.6455C14.9995 11.6455 15.0016 11.6476 15.0016 11.6501V11.6625V11.6749C15.0016 11.6775 14.9995 11.6796 14.997 11.6796ZM5.7079 11.6992H5.65676C5.55446 11.6992 5.48627 11.81 5.53741 11.8953L7.59182 15.45L9.64624 19.0047C9.69738 19.09 9.82525 19.09 9.8764 19.0047L11.3767 16.3962C11.5131 16.1575 11.5216 15.8592 11.3852 15.6205C10.2515 13.5405 8.16297 12.0402 5.7079 11.6992ZM18.9167 11.6992H18.8655C16.4105 12.0317 14.322 13.532 13.1797 15.629C13.0433 15.8677 13.0518 16.1661 13.1882 16.4048L14.697 19.0133C14.7482 19.0985 14.8761 19.0985 14.9272 19.0133L16.9816 15.4585L19.036 11.9038C19.0872 11.81 19.019 11.6992 18.9167 11.6992Z" fill="white"/>
</svg>
