<svg width="31" height="26" viewBox="0 0 31 26" fill="none" xmlns="http://www.w3.org/2000/svg">
<g style="mix-blend-mode:screen">
<path d="M30.625 3.64807C29.4978 4.14087 28.287 4.4725 27.0161 4.62208C28.3141 3.85678 29.3094 2.64506 29.7781 1.20027C28.565 1.90875 27.2199 2.42359 25.7876 2.70188C24.6416 1.49943 23.0091 0.748047 21.2023 0.748047C17.7324 0.748047 14.9197 3.5182 14.9197 6.93305C14.9197 7.41774 14.9762 7.89084 15.0822 8.3419C9.86087 8.08448 5.23196 5.62161 2.13189 1.8786C1.59244 2.79232 1.28267 3.85446 1.28267 4.98966C1.28267 7.13481 2.39101 9.02835 4.0765 10.1369C3.04707 10.1044 2.07771 9.82611 1.23084 9.36346C1.23084 9.39013 1.23084 9.41448 1.23084 9.44114C1.23084 12.4386 3.39571 14.9385 6.27082 15.5056C5.74432 15.647 5.18838 15.7224 4.61477 15.7224C4.21078 15.7224 3.8162 15.683 3.4334 15.6122C4.23315 18.0693 6.5535 19.8585 9.30258 19.9083C7.15302 21.5677 4.44399 22.5567 1.49939 22.5567C0.992919 22.5567 0.492337 22.5278 0 22.4698C2.78088 24.2242 6.08236 25.248 9.63119 25.248C21.1882 25.248 27.5061 15.8233 27.5061 7.64965C27.5061 7.3818 27.5002 7.1151 27.4884 6.84957C28.7169 5.97643 29.7828 4.88762 30.625 3.64807Z" fill="url(#gradient1)"/>
</g>
<defs>
<linearGradient id="gradient1" x1="15.3125" y1="0.748047" x2="15.3125" y2="25.248" gradientUnits="userSpaceOnUse">
<stop stop-color="#CCBBFF"/>
<stop offset="0.473958" stop-color="#7427FF"/>
<stop offset="1" stop-color="#00BAFF"/>
</linearGradient>
</defs>
</svg>
