<svg width="84" height="84" viewBox="0 0 84 84" fill="none" xmlns="http://www.w3.org/2000/svg">
<path d="M81.93 41.8847C81.93 64.2958 63.8771 82.4495 41.625 82.4495C19.3729 82.4495 1.32 64.2958 1.32 41.8847C1.32 19.4737 19.3729 1.32 41.625 1.32C63.8771 1.32 81.93 19.4737 81.93 41.8847Z" fill="#7427FF" stroke="url(#gradient1)" stroke-width="2.64"/>
<path fill-rule="evenodd" clip-rule="evenodd" d="M53.0607 31.9417C53.0247 32.1226 52.8809 32.2674 52.6651 32.3397C47.5941 33.8235 43.602 37.8405 42.1275 42.9069C42.0556 43.1602 41.8398 43.305 41.624 43.305C41.4082 43.305 41.1924 43.1602 41.1205 42.9069C39.6459 37.8043 35.6539 33.7873 30.5829 32.3397C30.3671 32.2674 30.2232 32.1226 30.1873 31.9417H30.1513V31.8693V31.7969H30.1873C30.2232 31.616 30.3671 31.4712 30.5829 31.3988C35.6539 29.9513 39.6459 25.9343 41.1205 20.8317C41.1924 20.5784 41.4082 20.4336 41.624 20.4336C41.8398 20.4336 42.0556 20.5784 42.1275 20.8317C43.602 25.9343 47.5941 29.9513 52.6651 31.3988C52.8809 31.4712 53.0247 31.616 53.0607 31.7969H53.0966V31.8693V31.9417H53.0607ZM13.8591 32.0146H13.6433C13.2117 32.0146 12.924 32.4851 13.1398 32.847L21.8072 47.9377L30.4747 63.0285C30.6905 63.3904 31.2299 63.3904 31.4457 63.0285L37.7754 51.9547C38.3509 50.9414 38.3868 49.6748 37.8114 48.6615C33.0281 39.8314 24.2168 33.4622 13.8591 32.0146ZM69.6035 32.0146H69.3877C59.03 33.426 50.2187 39.7952 45.3994 48.6977C44.824 49.711 44.86 50.9776 45.4354 51.9909L51.8011 63.0647C52.0169 63.4266 52.5564 63.4266 52.7722 63.0647L61.4396 47.9739L70.107 32.8832C70.3228 32.4851 70.0351 32.0146 69.6035 32.0146Z" fill="white"/>
<defs>
<linearGradient id="gradient1" x1="87.9328" y1="41.8847" x2="-2.60156" y2="41.8847" gradientUnits="userSpaceOnUse">
<stop stop-color="#CCBBFF"/>
<stop offset="0.473958" stop-color="#7427FF"/>
<stop offset="1" stop-color="#00BAFF"/>
</linearGradient>
</defs>
</svg>
