<svg width="575" height="117" viewBox="0 0 575 117" fill="none" xmlns="http://www.w3.org/2000/svg">
<rect width="574" height="117" transform="translate(0.289062)" fill="#E2FFFA"/>
<rect width="574" height="117" transform="translate(0.289062)" fill="url(#paint0_linear_16103_247587)"/>
<path d="M40.1331 38.728H49.0071C48.8711 40.53 46.4911 43.114 40.5751 43.114C32.6531 43.114 31.5311 38.626 31.5311 35.736C31.5311 32.88 32.6191 28.494 40.5751 28.494C47.0351 28.494 48.6671 31.18 49.0071 32.982H55.2291C54.8551 27.066 50.0951 23.36 40.5751 23.36C30.7831 23.36 25.4111 27.712 25.4111 35.6C25.4111 43.488 30.7831 47.84 39.5551 47.84C44.6211 47.84 48.1911 46.208 50.4351 43.76L50.7071 47.5H55.2291V34.75H40.1331V38.728ZM87.1381 32.438C87.1381 27.134 83.4321 23.7 78.0261 23.7H59.3261V47.5H65.4461V41.142H75.3061L79.1481 47.5H86.3561L81.9701 40.428C85.1661 39.17 87.1381 36.314 87.1381 32.438ZM65.4461 28.834H76.3261C78.1621 28.834 81.0181 28.834 81.0181 32.438C81.0181 36.008 78.1621 36.008 76.3261 36.008H65.4461V28.834ZM105.687 42.366V23.7H99.5669C99.5669 28.256 94.9089 28.256 91.4069 28.256V33.424C93.8889 33.424 97.0509 33.424 99.6349 31.146L99.6009 42.366H91.4069V47.5H113.847V42.366H105.687ZM133.844 31.452C129.968 31.452 127.418 32.132 123.916 33.628L125.446 28.562H141.936V23.7H120.89L117.83 36.076L122.862 37.062C126.942 35.43 129.288 34.954 131.634 34.954C136.292 34.954 137.516 36.518 137.516 38.762C137.516 41.176 135.884 42.706 130.818 42.706C125.582 42.706 122.76 41.924 122.76 39.238H116.64C116.64 46.276 122.76 47.84 130.648 47.84C138.604 47.84 143.636 45.358 143.636 39.442C143.636 34.342 139.998 31.452 133.844 31.452Z" fill="#E2FFFA"/>
<path d="M40.1331 38.728H49.0071C48.8711 40.53 46.4911 43.114 40.5751 43.114C32.6531 43.114 31.5311 38.626 31.5311 35.736C31.5311 32.88 32.6191 28.494 40.5751 28.494C47.0351 28.494 48.6671 31.18 49.0071 32.982H55.2291C54.8551 27.066 50.0951 23.36 40.5751 23.36C30.7831 23.36 25.4111 27.712 25.4111 35.6C25.4111 43.488 30.7831 47.84 39.5551 47.84C44.6211 47.84 48.1911 46.208 50.4351 43.76L50.7071 47.5H55.2291V34.75H40.1331V38.728ZM87.1381 32.438C87.1381 27.134 83.4321 23.7 78.0261 23.7H59.3261V47.5H65.4461V41.142H75.3061L79.1481 47.5H86.3561L81.9701 40.428C85.1661 39.17 87.1381 36.314 87.1381 32.438ZM65.4461 28.834H76.3261C78.1621 28.834 81.0181 28.834 81.0181 32.438C81.0181 36.008 78.1621 36.008 76.3261 36.008H65.4461V28.834ZM105.687 42.366V23.7H99.5669C99.5669 28.256 94.9089 28.256 91.4069 28.256V33.424C93.8889 33.424 97.0509 33.424 99.6349 31.146L99.6009 42.366H91.4069V47.5H113.847V42.366H105.687ZM133.844 31.452C129.968 31.452 127.418 32.132 123.916 33.628L125.446 28.562H141.936V23.7H120.89L117.83 36.076L122.862 37.062C126.942 35.43 129.288 34.954 131.634 34.954C136.292 34.954 137.516 36.518 137.516 38.762C137.516 41.176 135.884 42.706 130.818 42.706C125.582 42.706 122.76 41.924 122.76 39.238H116.64C116.64 46.276 122.76 47.84 130.648 47.84C138.604 47.84 143.636 45.358 143.636 39.442C143.636 34.342 139.998 31.452 133.844 31.452Z" fill="#2D2D2D"/>
<path d="M32.5771 66.1C34.3477 66.1 35.9371 66.6013 37.3451 67.604C38.7531 68.6067 39.8304 69.9613 40.5771 71.668C41.3451 73.3747 41.7291 75.252 41.7291 77.3C41.7291 79.348 41.3451 81.2253 40.5771 82.932C39.8304 84.6387 38.7531 85.9933 37.3451 86.996C35.9371 87.9987 34.3477 88.5 32.5771 88.5H25.9531C25.8037 88.5 25.6757 88.4573 25.5691 88.372C25.4837 88.2653 25.4411 88.148 25.4411 88.02C25.4411 87.8707 25.4837 87.7427 25.5691 87.636C25.6757 87.5293 25.8037 87.476 25.9531 87.476C26.1024 87.476 26.2197 87.4333 26.3051 87.348C26.3904 87.2627 26.4331 87.1773 26.4331 87.092L26.4651 86.964V67.636C26.4651 67.2947 26.2944 67.124 25.9531 67.124C25.8037 67.124 25.6757 67.0813 25.5691 66.996C25.4837 66.8893 25.4411 66.7613 25.4411 66.612C25.4411 66.4627 25.4837 66.3453 25.5691 66.26C25.6757 66.1533 25.8037 66.1 25.9531 66.1H32.5771ZM32.5771 87.476C34.2411 87.476 35.5851 86.5053 36.6091 84.564C37.6544 82.6227 38.1771 80.2013 38.1771 77.3C38.1771 74.3987 37.6544 71.9773 36.6091 70.036C35.5851 68.0947 34.2411 67.124 32.5771 67.124H29.5051V87.476H32.5771ZM48.7098 87.476C48.8591 87.476 48.9765 87.5293 49.0618 87.636C49.1685 87.7213 49.2218 87.8387 49.2218 87.988C49.2218 88.1373 49.1685 88.2653 49.0618 88.372C48.9765 88.4573 48.8591 88.5 48.7098 88.5H44.6458C44.4965 88.5 44.3685 88.4573 44.2618 88.372C44.1765 88.2653 44.1338 88.1373 44.1338 87.988C44.1338 87.8387 44.1765 87.7213 44.2618 87.636C44.3685 87.5293 44.4965 87.476 44.6458 87.476C44.7951 87.476 44.9125 87.4333 44.9978 87.348C45.0831 87.2627 45.1258 87.1773 45.1258 87.092L45.1578 86.964V73.748C45.1578 73.4067 44.9871 73.236 44.6458 73.236C44.4965 73.236 44.3685 73.1827 44.2618 73.076C44.1765 72.9693 44.1338 72.852 44.1338 72.724C44.1338 72.5747 44.1765 72.4573 44.2618 72.372C44.3685 72.2653 44.4965 72.212 44.6458 72.212H47.1738C47.4938 72.212 47.7391 72.2973 47.9098 72.468C48.0805 72.6387 48.1658 72.8093 48.1658 72.98L48.1978 73.236V86.964C48.1978 87.3053 48.3685 87.476 48.7098 87.476ZM47.9418 70.42C47.6005 70.7613 47.1738 70.932 46.6618 70.932C46.1711 70.932 45.7551 70.7613 45.4138 70.42C45.0725 70.0787 44.9018 69.652 44.9018 69.14C44.9018 68.82 44.9765 68.532 45.1258 68.276C45.2965 67.9987 45.5098 67.7853 45.7658 67.636C46.0431 67.4653 46.3525 67.38 46.6938 67.38C47.1845 67.38 47.6005 67.5507 47.9418 67.892C48.2831 68.2333 48.4538 68.66 48.4538 69.172C48.4538 69.6627 48.2831 70.0787 47.9418 70.42ZM66.4901 72.212C66.6394 72.212 66.7567 72.2653 66.8421 72.372C66.9487 72.4573 67.0021 72.5747 67.0021 72.724C67.0021 72.8733 66.9487 73.0013 66.8421 73.108C66.7567 73.1933 66.6394 73.236 66.4901 73.236C65.9781 73.236 65.6474 73.4067 65.4981 73.748L59.3541 88.5H58.3621L52.2181 73.716C52.0901 73.396 51.7594 73.236 51.2261 73.236C51.0767 73.236 50.9487 73.1933 50.8421 73.108C50.7567 73.0013 50.7141 72.8733 50.7141 72.724C50.7141 72.5747 50.7567 72.4573 50.8421 72.372C50.9487 72.2653 51.0767 72.212 51.2261 72.212H55.2901C55.3754 72.212 55.4607 72.2333 55.5461 72.276C55.6314 72.3187 55.6954 72.3827 55.7381 72.468C55.7807 72.5533 55.8021 72.6387 55.8021 72.724C55.8021 72.8733 55.7487 73.0013 55.6421 73.108C55.5567 73.1933 55.4394 73.236 55.2901 73.236C55.1621 73.236 55.1621 73.4067 55.2901 73.748L59.8661 84.82L64.4741 73.748V73.684C64.6021 73.3853 64.5914 73.236 64.4421 73.236C64.3141 73.236 64.1967 73.1933 64.0901 73.108C64.0047 73.0013 63.9621 72.8733 63.9621 72.724C63.9621 72.5747 64.0047 72.4573 64.0901 72.372C64.1967 72.2653 64.3247 72.212 64.4741 72.212H66.4901ZM75.9421 87.732C78.4167 87.732 79.9847 86.42 80.6461 83.796V87.476C80.0274 87.9667 79.3341 88.3187 78.5661 88.532C77.7981 88.7667 76.7527 88.884 75.4301 88.884C72.9554 88.884 70.9927 88.0733 69.5421 86.452C68.1127 84.8307 67.3981 82.7933 67.3981 80.34C67.3981 77.9933 68.1127 75.9987 69.5421 74.356C70.9714 72.692 72.6994 71.8493 74.7261 71.828C76.6034 71.8707 78.1714 72.4573 79.4301 73.588C80.7101 74.7187 81.3501 76.148 81.3501 77.876C81.3501 79.6467 80.6887 81.0973 79.3661 82.228C78.0647 83.3587 76.4541 83.924 74.5341 83.924C73.3394 83.924 72.2834 83.7427 71.3661 83.38C71.6434 84.2547 71.9954 85.0227 72.4221 85.684C72.8487 86.324 73.3607 86.8253 73.9581 87.188C74.5767 87.5507 75.2381 87.732 75.9421 87.732ZM70.9501 77.684C70.8221 79.0707 71.0461 80.2653 71.6221 81.268C72.2194 82.2707 73.0087 82.804 73.9901 82.868C74.6514 82.9107 75.2701 82.7507 75.8461 82.388C76.4221 82.004 76.9127 81.4387 77.3181 80.692C77.7234 79.9453 77.9901 79.0813 78.1181 78.1C78.2887 76.9053 78.1394 75.8387 77.6701 74.9C77.2007 73.94 76.5607 73.3 75.7501 72.98C75.4941 72.8733 75.1741 72.8093 74.7901 72.788C74.4274 72.7667 73.9794 72.852 73.4461 73.044C72.8914 73.3213 72.3687 73.8867 71.8781 74.74C71.4087 75.572 71.0994 76.5533 70.9501 77.684ZM92.6743 71.828C94.189 71.828 95.469 72.2973 96.5143 73.236V76.916C96.493 76.8093 96.4503 76.6707 96.3863 76.5C96.3436 76.3293 96.205 76.0307 95.9703 75.604C95.757 75.156 95.501 74.7613 95.2023 74.42C94.925 74.0787 94.5196 73.78 93.9863 73.524C93.4743 73.2467 92.909 73.108 92.2903 73.108C91.6716 73.108 91.085 73.236 90.5303 73.492C89.997 73.748 89.5596 74.0787 89.2183 74.484C88.877 74.868 88.5996 75.2093 88.3863 75.508C88.1943 75.8067 88.0556 76.0627 87.9703 76.276V86.964C87.9703 87.3053 88.141 87.476 88.4823 87.476C88.6316 87.476 88.749 87.5293 88.8343 87.636C88.941 87.7213 88.9943 87.8387 88.9943 87.988C88.9943 88.1373 88.941 88.2653 88.8343 88.372C88.749 88.4573 88.6316 88.5 88.4823 88.5H84.4183C84.269 88.5 84.141 88.4573 84.0343 88.372C83.949 88.2653 83.9063 88.1373 83.9063 87.988C83.9063 87.8387 83.949 87.7213 84.0343 87.636C84.141 87.5293 84.269 87.476 84.4183 87.476C84.5676 87.476 84.685 87.4333 84.7703 87.348C84.8556 87.2627 84.8983 87.1773 84.8983 87.092L84.9303 86.964V73.748C84.9303 73.4067 84.7596 73.236 84.4183 73.236C84.269 73.236 84.141 73.1827 84.0343 73.076C83.949 72.9693 83.9063 72.852 83.9063 72.724C83.9063 72.5747 83.949 72.4573 84.0343 72.372C84.141 72.2653 84.269 72.212 84.4183 72.212H86.9463C87.2663 72.212 87.5116 72.2973 87.6823 72.468C87.853 72.6387 87.9383 72.8093 87.9383 72.98L87.9703 73.236V74.836C88.3543 74.068 88.941 73.3747 89.7303 72.756C90.5196 72.1373 91.501 71.828 92.6743 71.828ZM101.005 75.124C101.005 75.6787 101.25 76.212 101.741 76.724C102.253 77.236 102.882 77.684 103.629 78.068C104.376 78.4307 105.176 78.8467 106.029 79.316C106.904 79.7853 107.714 80.244 108.461 80.692C109.208 81.14 109.826 81.7053 110.317 82.388C110.829 83.0493 111.085 83.7747 111.085 84.564C111.085 85.524 110.744 86.3453 110.061 87.028C109.4 87.6893 108.61 88.1693 107.693 88.468C106.797 88.7453 105.848 88.884 104.845 88.884C102.456 88.884 100.632 88.4147 99.3731 87.476V84.372C99.4371 84.4787 99.5224 84.6173 99.6291 84.788C99.7357 84.9373 99.9704 85.2253 100.333 85.652C100.696 86.0573 101.08 86.42 101.485 86.74C101.89 87.06 102.392 87.348 102.989 87.604C103.608 87.86 104.226 87.988 104.845 87.988C105.762 87.988 106.584 87.7533 107.309 87.284C108.034 86.8147 108.397 86.2387 108.397 85.556C108.397 85.236 108.28 84.916 108.045 84.596C107.832 84.276 107.533 83.988 107.149 83.732C106.765 83.4547 106.317 83.1773 105.805 82.9C105.293 82.6227 104.76 82.3453 104.205 82.068C103.65 81.7907 103.096 81.5027 102.541 81.204C101.986 80.884 101.453 80.5427 100.941 80.18C100.45 79.8173 100.013 79.4333 99.6291 79.028C99.2451 78.6013 98.9357 78.1213 98.7011 77.588C98.4664 77.0547 98.3491 76.4893 98.3491 75.892C98.3491 75.2307 98.5197 74.6333 98.8611 74.1C99.2237 73.5667 99.6931 73.14 100.269 72.82C100.866 72.5 101.506 72.2547 102.189 72.084C102.893 71.9133 103.608 71.828 104.333 71.828C104.738 71.828 105.165 71.8493 105.613 71.892C106.061 71.9347 106.616 72.0733 107.277 72.308C107.938 72.5427 108.44 72.852 108.781 73.236V76.5C108.738 76.3933 108.674 76.2547 108.589 76.084C108.525 75.9133 108.344 75.6147 108.045 75.188C107.768 74.74 107.469 74.356 107.149 74.036C106.85 73.6947 106.445 73.396 105.933 73.14C105.421 72.8627 104.888 72.724 104.333 72.724C103.416 72.724 102.626 72.9587 101.965 73.428C101.325 73.876 101.005 74.4413 101.005 75.124ZM117.779 87.476C117.928 87.476 118.045 87.5293 118.131 87.636C118.237 87.7213 118.291 87.8387 118.291 87.988C118.291 88.1373 118.237 88.2653 118.131 88.372C118.045 88.4573 117.928 88.5 117.779 88.5H113.715C113.565 88.5 113.437 88.4573 113.331 88.372C113.245 88.2653 113.203 88.1373 113.203 87.988C113.203 87.8387 113.245 87.7213 113.331 87.636C113.437 87.5293 113.565 87.476 113.715 87.476C113.864 87.476 113.981 87.4333 114.067 87.348C114.152 87.2627 114.195 87.1773 114.195 87.092L114.227 86.964V73.748C114.227 73.4067 114.056 73.236 113.715 73.236C113.565 73.236 113.437 73.1827 113.331 73.076C113.245 72.9693 113.203 72.852 113.203 72.724C113.203 72.5747 113.245 72.4573 113.331 72.372C113.437 72.2653 113.565 72.212 113.715 72.212H116.243C116.563 72.212 116.808 72.2973 116.979 72.468C117.149 72.6387 117.235 72.8093 117.235 72.98L117.267 73.236V86.964C117.267 87.3053 117.437 87.476 117.779 87.476ZM117.011 70.42C116.669 70.7613 116.243 70.932 115.731 70.932C115.24 70.932 114.824 70.7613 114.483 70.42C114.141 70.0787 113.971 69.652 113.971 69.14C113.971 68.82 114.045 68.532 114.195 68.276C114.365 67.9987 114.579 67.7853 114.835 67.636C115.112 67.4653 115.421 67.38 115.763 67.38C116.253 67.38 116.669 67.5507 117.011 67.892C117.352 68.2333 117.523 68.66 117.523 69.172C117.523 69.6627 117.352 70.0787 117.011 70.42ZM125.191 87.476C125.34 87.476 125.457 87.5293 125.543 87.636C125.649 87.7427 125.703 87.8707 125.703 88.02C125.703 88.148 125.649 88.2653 125.543 88.372C125.457 88.4573 125.34 88.5 125.191 88.5H122.663C122.343 88.5 122.097 88.4573 121.927 88.372C121.777 88.2653 121.692 88.1587 121.671 88.052L121.639 87.892V73.236H121.127C120.977 73.236 120.849 73.1933 120.743 73.108C120.657 73.0013 120.615 72.8733 120.615 72.724C120.615 72.5747 120.657 72.4573 120.743 72.372C120.849 72.2653 120.977 72.212 121.127 72.212H121.639V70.164C121.639 69.844 121.468 69.684 121.127 69.684C120.977 69.684 120.849 69.6307 120.743 69.524C120.657 69.4173 120.615 69.3 120.615 69.172C120.615 69.0227 120.657 68.9053 120.743 68.82C120.849 68.7133 120.977 68.66 121.127 68.66H123.655C123.975 68.66 124.22 68.7133 124.391 68.82C124.561 68.9053 124.647 69.0013 124.647 69.108L124.679 69.236V72.212H125.191C125.297 72.212 125.383 72.2333 125.447 72.276C125.532 72.3187 125.596 72.3827 125.639 72.468C125.681 72.5533 125.703 72.6387 125.703 72.724C125.703 72.8733 125.649 73.0013 125.543 73.108C125.457 73.1933 125.34 73.236 125.191 73.236H124.679V86.964C124.679 87.3053 124.849 87.476 125.191 87.476ZM143.067 72.212C143.216 72.212 143.334 72.2653 143.419 72.372C143.526 72.4573 143.579 72.5747 143.579 72.724C143.579 72.8733 143.526 73.0013 143.419 73.108C143.334 73.1933 143.216 73.236 143.067 73.236C142.832 73.236 142.63 73.2787 142.459 73.364C142.288 73.4493 142.182 73.5347 142.139 73.62L142.043 73.748L133.819 93.588C133.542 94.228 133.147 94.7187 132.635 95.06C132.144 95.4013 131.707 95.5827 131.323 95.604L130.779 95.636C129.008 95.636 127.718 94.8253 126.907 93.204V89.14C126.95 89.2893 127.035 89.6093 127.163 90.1C127.312 90.612 127.43 90.9853 127.515 91.22C127.6 91.4547 127.718 91.7853 127.867 92.212C128.038 92.66 128.208 93.0013 128.379 93.236C128.55 93.4707 128.752 93.716 128.987 93.972C129.222 94.2493 129.488 94.4413 129.787 94.548C130.107 94.676 130.448 94.74 130.811 94.74H130.843C131.248 94.74 131.611 94.6227 131.931 94.388C132.272 94.1747 132.507 93.972 132.635 93.78C132.763 93.588 132.87 93.4067 132.955 93.236L132.987 93.14L134.907 88.468L128.795 73.716C128.667 73.396 128.336 73.236 127.803 73.236C127.654 73.236 127.526 73.1933 127.419 73.108C127.334 73.0013 127.291 72.8733 127.291 72.724C127.291 72.5747 127.334 72.4573 127.419 72.372C127.526 72.2653 127.654 72.212 127.803 72.212H131.867C131.952 72.212 132.038 72.2333 132.123 72.276C132.208 72.3187 132.272 72.3827 132.315 72.468C132.358 72.5533 132.379 72.6387 132.379 72.724C132.379 72.8733 132.326 73.0013 132.219 73.108C132.134 73.1933 132.016 73.236 131.867 73.236C131.739 73.236 131.739 73.4067 131.867 73.748L136.443 84.788L141.083 73.652C141.168 73.3747 141.147 73.236 141.019 73.236C140.891 73.236 140.774 73.1933 140.667 73.108C140.582 73.0013 140.539 72.8733 140.539 72.724C140.539 72.5747 140.582 72.4573 140.667 72.372C140.774 72.2653 140.891 72.212 141.019 72.212H143.067ZM147.217 86.708C147.238 86.7933 147.238 86.9107 147.217 87.06C147.217 87.2093 147.163 87.4653 147.057 87.828C146.971 88.1907 146.843 88.5107 146.673 88.788C146.502 89.0653 146.214 89.3213 145.809 89.556C145.425 89.7907 144.966 89.908 144.433 89.908C144.454 89.8867 144.486 89.8547 144.529 89.812C144.593 89.7907 144.689 89.7267 144.817 89.62C144.945 89.5133 145.03 89.4067 145.073 89.3C145.137 89.2147 145.19 89.0867 145.233 88.916C145.275 88.7667 145.233 88.6173 145.105 88.468C144.699 88.3827 144.358 88.18 144.081 87.86C143.803 87.54 143.665 87.156 143.665 86.708C143.665 86.2173 143.835 85.8013 144.177 85.46C144.539 85.1187 144.966 84.948 145.457 84.948C145.947 84.948 146.363 85.1187 146.705 85.46C147.046 85.8013 147.217 86.2173 147.217 86.708ZM160.536 66.1H174.264V68.276C174.264 68.404 174.21 68.5213 174.104 68.628C174.018 68.7347 173.901 68.788 173.752 68.788C173.624 68.788 173.506 68.7347 173.4 68.628C173.314 68.5213 173.272 68.404 173.272 68.276C173.272 68.0627 173.218 67.8813 173.112 67.732C173.026 67.5613 172.909 67.444 172.76 67.38C172.632 67.2947 172.493 67.2307 172.344 67.188C172.216 67.1453 172.098 67.124 171.992 67.124H171.864H164.088V82.452C164.408 81.8333 164.781 81.2573 165.208 80.724C166.061 79.6787 167.117 78.868 168.376 78.292C168.824 78.0787 169.304 77.8973 169.816 77.748C169.922 77.7267 170.05 77.684 170.2 77.62C170.37 77.5347 170.584 77.364 170.84 77.108C171.096 76.8307 171.224 76.532 171.224 76.212C171.224 76.0627 171.266 75.9453 171.352 75.86C171.458 75.7533 171.586 75.7 171.736 75.7C171.821 75.7 171.906 75.7213 171.992 75.764C172.077 75.8067 172.141 75.8707 172.184 75.956C172.226 76.02 172.248 76.1053 172.248 76.212V79.508C172.248 79.6573 172.194 79.7853 172.088 79.892C171.981 79.9773 171.853 80.02 171.704 80.02C171.576 80.02 171.458 79.9773 171.352 79.892C171.266 79.7853 171.224 79.6573 171.224 79.508C171.224 79.2733 171.16 79.092 171.032 78.964C170.925 78.8147 170.776 78.74 170.584 78.74C170.413 78.7187 170.264 78.7187 170.136 78.74C170.029 78.7613 169.933 78.7827 169.848 78.804C168.29 79.2947 167.01 80.148 166.008 81.364C165.346 82.1747 164.856 83.0493 164.536 83.988C164.237 84.9267 164.088 85.7907 164.088 86.58V87.476H171.864C171.906 87.476 171.96 87.476 172.024 87.476C172.088 87.476 172.194 87.4547 172.344 87.412C172.514 87.3693 172.653 87.316 172.76 87.252C172.888 87.1667 173.005 87.0493 173.112 86.9C173.218 86.7293 173.272 86.5373 173.272 86.324C173.272 86.196 173.314 86.0787 173.4 85.972C173.506 85.8653 173.624 85.812 173.752 85.812C173.901 85.812 174.018 85.8653 174.104 85.972C174.21 86.0787 174.264 86.196 174.264 86.324V88.5H160.536C160.386 88.5 160.258 88.4573 160.152 88.372C160.066 88.2653 160.024 88.148 160.024 88.02C160.024 87.8707 160.066 87.7427 160.152 87.636C160.258 87.5293 160.386 87.476 160.536 87.476C160.685 87.476 160.802 87.4333 160.888 87.348C160.973 87.2627 161.016 87.1773 161.016 87.092L161.048 86.964V67.636C161.048 67.2947 160.877 67.124 160.536 67.124C160.386 67.124 160.258 67.0813 160.152 66.996C160.066 66.8893 160.024 66.7613 160.024 66.612C160.024 66.4627 160.066 66.3453 160.152 66.26C160.258 66.1533 160.386 66.1 160.536 66.1ZM191.104 93.588C191.253 93.588 191.37 93.6413 191.456 93.748C191.562 93.8547 191.616 93.972 191.616 94.1C191.616 94.1853 191.594 94.2707 191.552 94.356C191.509 94.4413 191.445 94.5053 191.36 94.548C191.296 94.5907 191.21 94.612 191.104 94.612H188.576C188.426 94.612 188.298 94.6013 188.192 94.58C188.085 94.5587 187.989 94.5267 187.904 94.484C187.84 94.4413 187.776 94.3987 187.712 94.356C187.669 94.3133 187.637 94.2707 187.616 94.228C187.594 94.1853 187.573 94.1427 187.552 94.1C187.552 94.0573 187.552 94.0253 187.552 94.004V93.972V87.284C186.272 88.3507 184.832 88.884 183.232 88.884C181.184 88.884 179.434 88.052 177.984 86.388C176.554 84.724 175.84 82.7187 175.84 80.372C175.84 78.004 176.554 75.988 177.984 74.324C179.434 72.66 181.184 71.828 183.232 71.828C184.832 71.828 186.272 72.372 187.552 73.46V72.852C187.552 72.8307 187.552 72.8093 187.552 72.788C187.552 72.7667 187.573 72.724 187.616 72.66C187.658 72.5747 187.712 72.5 187.776 72.436C187.84 72.372 187.936 72.3187 188.064 72.276C188.213 72.2333 188.384 72.212 188.576 72.212H191.104C191.253 72.212 191.37 72.2653 191.456 72.372C191.562 72.4573 191.616 72.5747 191.616 72.724C191.616 72.8733 191.562 73.0013 191.456 73.108C191.37 73.1933 191.253 73.236 191.104 73.236C191.018 73.236 190.933 73.2573 190.848 73.3C190.784 73.3213 190.73 73.364 190.688 73.428C190.666 73.4707 190.645 73.524 190.624 73.588C190.624 73.6307 190.613 73.6627 190.592 73.684V73.748V80.084C190.592 80.1907 190.592 80.2867 190.592 80.372C190.592 80.4573 190.592 80.5427 190.592 80.628V93.076C190.592 93.4173 190.762 93.588 191.104 93.588ZM185.536 85.908C186.432 84.5 186.954 82.7613 187.104 80.692C187.274 78.6227 187.04 76.82 186.4 75.284C185.76 73.748 184.896 72.9373 183.808 72.852C182.741 72.7667 181.77 73.428 180.896 74.836C180.021 76.2227 179.498 77.9613 179.328 80.052C179.157 82.1213 179.392 83.924 180.032 85.46C180.672 86.9747 181.525 87.7747 182.592 87.86C183.68 87.9453 184.661 87.2947 185.536 85.908ZM208.629 87.476C208.778 87.476 208.896 87.5293 208.981 87.636C209.088 87.7427 209.141 87.8707 209.141 88.02C209.141 88.148 209.088 88.2653 208.981 88.372C208.896 88.4573 208.778 88.5 208.629 88.5H206.101C205.909 88.5 205.738 88.4787 205.589 88.436C205.461 88.3933 205.365 88.34 205.301 88.276C205.237 88.212 205.184 88.148 205.141 88.084C205.098 87.9987 205.077 87.9347 205.077 87.892V87.828V85.876C204.693 86.644 204.096 87.3373 203.285 87.956C202.474 88.5747 201.461 88.884 200.245 88.884C198.688 88.884 197.408 88.5747 196.405 87.956C195.402 87.316 194.901 86.3133 194.901 84.948V73.748C194.901 73.4067 194.73 73.236 194.389 73.236C194.24 73.236 194.112 73.1933 194.005 73.108C193.92 73.0013 193.877 72.8733 193.877 72.724C193.877 72.5747 193.92 72.4573 194.005 72.372C194.112 72.2653 194.24 72.212 194.389 72.212H196.917C197.237 72.212 197.482 72.2973 197.653 72.468C197.824 72.6387 197.909 72.8093 197.909 72.98L197.941 73.236V84.564C197.941 84.628 197.941 84.724 197.941 84.852C197.962 84.98 198.026 85.204 198.133 85.524C198.261 85.844 198.421 86.132 198.613 86.388C198.805 86.6227 199.104 86.8467 199.509 87.06C199.936 87.252 200.437 87.348 201.013 87.348C201.632 87.348 202.197 87.2413 202.709 87.028C203.221 86.7933 203.637 86.4947 203.957 86.132C204.277 85.748 204.522 85.428 204.693 85.172C204.864 84.916 204.992 84.6707 205.077 84.436V73.748C205.077 73.4067 204.906 73.236 204.565 73.236C204.416 73.236 204.288 73.1933 204.181 73.108C204.096 73.0013 204.053 72.8733 204.053 72.724C204.053 72.5747 204.096 72.4573 204.181 72.372C204.288 72.2653 204.416 72.212 204.565 72.212H207.125C207.424 72.212 207.658 72.276 207.829 72.404C208 72.5107 208.096 72.6173 208.117 72.724V72.884V86.964C208.117 87.3053 208.288 87.476 208.629 87.476ZM216.12 87.476C216.269 87.476 216.386 87.5293 216.472 87.636C216.578 87.7213 216.632 87.8387 216.632 87.988C216.632 88.1373 216.578 88.2653 216.472 88.372C216.386 88.4573 216.269 88.5 216.12 88.5H212.056C211.906 88.5 211.778 88.4573 211.672 88.372C211.586 88.2653 211.544 88.1373 211.544 87.988C211.544 87.8387 211.586 87.7213 211.672 87.636C211.778 87.5293 211.906 87.476 212.056 87.476C212.205 87.476 212.322 87.4333 212.408 87.348C212.493 87.2627 212.536 87.1773 212.536 87.092L212.568 86.964V73.748C212.568 73.4067 212.397 73.236 212.056 73.236C211.906 73.236 211.778 73.1827 211.672 73.076C211.586 72.9693 211.544 72.852 211.544 72.724C211.544 72.5747 211.586 72.4573 211.672 72.372C211.778 72.2653 211.906 72.212 212.056 72.212H214.584C214.904 72.212 215.149 72.2973 215.32 72.468C215.49 72.6387 215.576 72.8093 215.576 72.98L215.608 73.236V86.964C215.608 87.3053 215.778 87.476 216.12 87.476ZM215.352 70.42C215.01 70.7613 214.584 70.932 214.072 70.932C213.581 70.932 213.165 70.7613 212.824 70.42C212.482 70.0787 212.312 69.652 212.312 69.14C212.312 68.82 212.386 68.532 212.536 68.276C212.706 67.9987 212.92 67.7853 213.176 67.636C213.453 67.4653 213.762 67.38 214.104 67.38C214.594 67.38 215.01 67.5507 215.352 67.892C215.693 68.2333 215.864 68.66 215.864 69.172C215.864 69.6627 215.693 70.0787 215.352 70.42ZM223.532 87.476C223.681 87.476 223.799 87.5293 223.884 87.636C223.991 87.7427 224.044 87.8707 224.044 88.02C224.044 88.148 223.991 88.2653 223.884 88.372C223.799 88.4573 223.681 88.5 223.532 88.5H221.004C220.684 88.5 220.439 88.4573 220.268 88.372C220.119 88.2653 220.033 88.1587 220.012 88.052L219.98 87.892V73.236H219.468C219.319 73.236 219.191 73.1933 219.084 73.108C218.999 73.0013 218.956 72.8733 218.956 72.724C218.956 72.5747 218.999 72.4573 219.084 72.372C219.191 72.2653 219.319 72.212 219.468 72.212H219.98V70.164C219.98 69.844 219.809 69.684 219.468 69.684C219.319 69.684 219.191 69.6307 219.084 69.524C218.999 69.4173 218.956 69.3 218.956 69.172C218.956 69.0227 218.999 68.9053 219.084 68.82C219.191 68.7133 219.319 68.66 219.468 68.66H221.996C222.316 68.66 222.561 68.7133 222.732 68.82C222.903 68.9053 222.988 69.0013 222.988 69.108L223.02 69.236V72.212H223.532C223.639 72.212 223.724 72.2333 223.788 72.276C223.873 72.3187 223.937 72.3827 223.98 72.468C224.023 72.5533 224.044 72.6387 224.044 72.724C224.044 72.8733 223.991 73.0013 223.884 73.108C223.799 73.1933 223.681 73.236 223.532 73.236H223.02V86.964C223.02 87.3053 223.191 87.476 223.532 87.476ZM241.408 72.212C241.558 72.212 241.675 72.2653 241.76 72.372C241.867 72.4573 241.92 72.5747 241.92 72.724C241.92 72.8733 241.867 73.0013 241.76 73.108C241.675 73.1933 241.558 73.236 241.408 73.236C241.174 73.236 240.971 73.2787 240.8 73.364C240.63 73.4493 240.523 73.5347 240.48 73.62L240.384 73.748L232.16 93.588C231.883 94.228 231.488 94.7187 230.976 95.06C230.486 95.4013 230.048 95.5827 229.664 95.604L229.12 95.636C227.35 95.636 226.059 94.8253 225.248 93.204V89.14C225.291 89.2893 225.376 89.6093 225.504 90.1C225.654 90.612 225.771 90.9853 225.856 91.22C225.942 91.4547 226.059 91.7853 226.208 92.212C226.379 92.66 226.55 93.0013 226.72 93.236C226.891 93.4707 227.094 93.716 227.328 93.972C227.563 94.2493 227.83 94.4413 228.128 94.548C228.448 94.676 228.79 94.74 229.152 94.74H229.184C229.59 94.74 229.952 94.6227 230.272 94.388C230.614 94.1747 230.848 93.972 230.976 93.78C231.104 93.588 231.211 93.4067 231.296 93.236L231.328 93.14L233.248 88.468L227.136 73.716C227.008 73.396 226.678 73.236 226.144 73.236C225.995 73.236 225.867 73.1933 225.76 73.108C225.675 73.0013 225.632 72.8733 225.632 72.724C225.632 72.5747 225.675 72.4573 225.76 72.372C225.867 72.2653 225.995 72.212 226.144 72.212H230.208C230.294 72.212 230.379 72.2333 230.464 72.276C230.55 72.3187 230.614 72.3827 230.656 72.468C230.699 72.5533 230.72 72.6387 230.72 72.724C230.72 72.8733 230.667 73.0013 230.56 73.108C230.475 73.1933 230.358 73.236 230.208 73.236C230.08 73.236 230.08 73.4067 230.208 73.748L234.784 84.788L239.424 73.652C239.51 73.3747 239.488 73.236 239.36 73.236C239.232 73.236 239.115 73.1933 239.008 73.108C238.923 73.0013 238.88 72.8733 238.88 72.724C238.88 72.5747 238.923 72.4573 239.008 72.372C239.115 72.2653 239.232 72.212 239.36 72.212H241.408ZM268.005 87.476C268.154 87.476 268.272 87.5293 268.357 87.636C268.464 87.7427 268.517 87.8707 268.517 88.02C268.517 88.148 268.464 88.2653 268.357 88.372C268.272 88.4573 268.154 88.5 268.005 88.5H265.477C265.178 88.5 264.944 88.4573 264.773 88.372C264.602 88.2867 264.506 88.2013 264.485 88.116L264.453 87.956V87.828C263.258 88.532 261.946 88.884 260.517 88.884C258.426 88.884 256.73 88.3293 255.429 87.22C254.149 86.1107 253.509 84.6493 253.509 82.836C253.509 81.0867 254.16 79.6467 255.461 78.516C256.762 77.364 258.448 76.788 260.517 76.788C261.946 76.788 263.258 77.14 264.453 77.844V76.788C264.453 75.6147 264.101 74.6867 263.397 74.004C262.714 73.3213 261.925 72.9373 261.029 72.852C259.578 72.7027 258.341 73.0333 257.317 73.844C256.314 74.6547 255.642 75.6787 255.301 76.916V73.236C255.301 73.2147 255.354 73.172 255.461 73.108C255.589 73.0227 255.685 72.9587 255.749 72.916C255.834 72.852 255.973 72.7773 256.165 72.692C256.357 72.5853 256.538 72.5 256.709 72.436C256.88 72.372 257.104 72.2973 257.381 72.212C257.658 72.1267 257.946 72.0627 258.245 72.02C258.544 71.956 258.885 71.9133 259.269 71.892C259.674 71.8493 260.09 71.828 260.517 71.828C261.328 71.828 262.117 71.9133 262.885 72.084C263.674 72.2547 264.421 72.5213 265.125 72.884C265.85 73.2253 266.426 73.7373 266.853 74.42C267.301 75.1027 267.525 75.892 267.525 76.788V86.964C267.525 87.3053 267.685 87.476 268.005 87.476ZM262.693 86.516C263.525 85.5773 264.016 84.4253 264.165 83.06C264.336 81.6733 264.112 80.4787 263.493 79.476C262.896 78.452 262.096 77.908 261.093 77.844C260.41 77.8013 259.76 77.9933 259.141 78.42C258.544 78.8253 258.032 79.4013 257.605 80.148C257.178 80.8947 256.922 81.716 256.837 82.612C256.666 83.9987 256.88 85.204 257.477 86.228C258.096 87.2307 258.917 87.764 259.941 87.828C260.965 87.892 261.882 87.4547 262.693 86.516ZM285.615 87.476C285.7 87.476 285.764 87.4973 285.807 87.54C285.871 87.5613 285.924 87.5933 285.967 87.636C286.031 87.6787 286.073 87.732 286.095 87.796C286.116 87.86 286.127 87.924 286.127 87.988C286.127 88.1373 286.073 88.2653 285.967 88.372C285.881 88.4573 285.764 88.5 285.615 88.5H281.551C281.401 88.5 281.273 88.4573 281.167 88.372C281.081 88.2653 281.039 88.1373 281.039 87.988C281.039 87.8387 281.081 87.7213 281.167 87.636C281.273 87.5293 281.401 87.476 281.551 87.476C281.7 87.476 281.817 87.4333 281.903 87.348C281.988 87.2627 282.041 87.1773 282.063 87.092V86.964V76.148C282.063 76.084 282.052 75.988 282.031 75.86C282.031 75.732 281.977 75.508 281.871 75.188C281.764 74.868 281.615 74.5907 281.423 74.356C281.231 74.1 280.921 73.876 280.495 73.684C280.068 73.4707 279.577 73.364 279.023 73.364C278.511 73.364 278.031 73.4493 277.583 73.62C277.135 73.7693 276.772 73.9613 276.495 74.196C276.217 74.4307 275.951 74.6973 275.695 74.996C275.46 75.2947 275.289 75.54 275.183 75.732C275.097 75.924 275.012 76.1053 274.927 76.276V86.964C274.927 87.3053 275.097 87.476 275.439 87.476C275.545 87.476 275.631 87.4973 275.695 87.54C275.78 87.5827 275.844 87.6467 275.887 87.732C275.929 87.8173 275.951 87.9027 275.951 87.988C275.951 88.1373 275.897 88.2653 275.791 88.372C275.705 88.4573 275.588 88.5 275.439 88.5H271.375C271.225 88.5 271.097 88.4573 270.991 88.372C270.905 88.2653 270.863 88.1373 270.863 87.988C270.863 87.8387 270.905 87.7213 270.991 87.636C271.097 87.5293 271.225 87.476 271.375 87.476C271.524 87.476 271.641 87.4333 271.727 87.348C271.812 87.2627 271.855 87.1773 271.855 87.092L271.887 86.964V73.748C271.887 73.4067 271.716 73.236 271.375 73.236C271.225 73.236 271.097 73.1827 270.991 73.076C270.905 72.9693 270.863 72.852 270.863 72.724C270.863 72.5747 270.905 72.4573 270.991 72.372C271.097 72.2653 271.225 72.212 271.375 72.212H273.903C274.223 72.212 274.468 72.2973 274.639 72.468C274.809 72.6387 274.895 72.8093 274.895 72.98L274.927 73.236V74.836C275.311 74.068 275.908 73.3747 276.719 72.756C277.529 72.1373 278.543 71.828 279.759 71.828C280.761 71.828 281.647 71.9453 282.415 72.18C283.183 72.4147 283.823 72.8413 284.335 73.46C284.847 74.0787 285.103 74.8467 285.103 75.764V86.964C285.103 87.3053 285.273 87.476 285.615 87.476ZM303.664 87.476C303.813 87.476 303.93 87.5293 304.016 87.636C304.122 87.7213 304.176 87.8387 304.176 87.988C304.176 88.1373 304.122 88.2653 304.016 88.372C303.93 88.4573 303.813 88.5 303.664 88.5H301.136C300.944 88.5 300.773 88.4787 300.624 88.436C300.496 88.3933 300.4 88.34 300.336 88.276C300.272 88.212 300.218 88.148 300.176 88.084C300.133 88.02 300.112 87.9667 300.112 87.924V87.86V87.252C298.832 88.34 297.392 88.884 295.792 88.884C293.744 88.884 291.994 88.052 290.544 86.388C289.114 84.724 288.4 82.7187 288.4 80.372C288.4 78.004 289.114 75.988 290.544 74.324C291.994 72.66 293.744 71.828 295.792 71.828C297.392 71.828 298.832 72.3613 300.112 73.428V66.74C300.112 66.6973 300.122 66.644 300.144 66.58C300.165 66.4947 300.261 66.3987 300.432 66.292C300.602 66.164 300.837 66.1 301.136 66.1H303.664C303.813 66.1 303.93 66.1533 304.016 66.26C304.122 66.3453 304.176 66.4627 304.176 66.612C304.176 66.74 304.122 66.8573 304.016 66.964C303.93 67.0707 303.813 67.124 303.664 67.124C303.344 67.124 303.173 67.2947 303.152 67.636V80.084C303.152 80.1907 303.152 80.2867 303.152 80.372C303.152 80.436 303.152 80.5213 303.152 80.628V86.964C303.152 87.3053 303.322 87.476 303.664 87.476ZM299.696 80.692C299.802 79.3267 299.728 78.0573 299.472 76.884C299.216 75.6893 298.81 74.74 298.256 74.036C297.722 73.3107 297.104 72.916 296.4 72.852C295.312 72.7667 294.33 73.428 293.456 74.836C292.581 76.2227 292.058 77.9507 291.888 80.02C291.781 81.3853 291.856 82.6653 292.112 83.86C292.368 85.0333 292.762 85.9827 293.296 86.708C293.85 87.412 294.48 87.796 295.184 87.86C296.25 87.9453 297.221 87.2947 298.096 85.908C298.992 84.5 299.525 82.7613 299.696 80.692ZM321.401 87.476C321.55 87.476 321.667 87.5293 321.753 87.636C321.859 87.7213 321.913 87.8387 321.913 87.988C321.913 88.1373 321.859 88.2653 321.753 88.372C321.667 88.4573 321.55 88.5 321.401 88.5H317.337C317.187 88.5 317.059 88.4573 316.953 88.372C316.867 88.2653 316.825 88.1373 316.825 87.988C316.825 87.8387 316.867 87.7213 316.953 87.636C317.059 87.5293 317.187 87.476 317.337 87.476C317.486 87.476 317.603 87.4333 317.689 87.348C317.774 87.2627 317.817 87.1773 317.817 87.092L317.849 86.964V67.636C317.849 67.2947 317.678 67.124 317.337 67.124C317.187 67.124 317.059 67.0813 316.953 66.996C316.867 66.8893 316.825 66.7613 316.825 66.612C316.825 66.4627 316.867 66.3453 316.953 66.26C317.059 66.1533 317.187 66.1 317.337 66.1H321.401C321.507 66.1 321.593 66.1213 321.657 66.164C321.742 66.2067 321.806 66.2707 321.849 66.356C321.891 66.4413 321.913 66.5267 321.913 66.612C321.913 66.7613 321.859 66.8893 321.753 66.996C321.667 67.0813 321.55 67.124 321.401 67.124C321.251 67.124 321.134 67.1667 321.049 67.252C320.963 67.3373 320.921 67.4227 320.921 67.508L320.889 67.636V86.964C320.889 87.3053 321.059 87.476 321.401 87.476ZM339.238 87.476C339.324 87.476 339.388 87.4973 339.43 87.54C339.494 87.5613 339.548 87.5933 339.59 87.636C339.654 87.6787 339.697 87.732 339.718 87.796C339.74 87.86 339.75 87.924 339.75 87.988C339.75 88.1373 339.697 88.2653 339.59 88.372C339.505 88.4573 339.388 88.5 339.238 88.5H335.174C335.025 88.5 334.897 88.4573 334.79 88.372C334.705 88.2653 334.662 88.1373 334.662 87.988C334.662 87.8387 334.705 87.7213 334.79 87.636C334.897 87.5293 335.025 87.476 335.174 87.476C335.324 87.476 335.441 87.4333 335.526 87.348C335.612 87.2627 335.665 87.1773 335.686 87.092V86.964V76.148C335.686 76.084 335.676 75.988 335.654 75.86C335.654 75.732 335.601 75.508 335.494 75.188C335.388 74.868 335.238 74.5907 335.046 74.356C334.854 74.1 334.545 73.876 334.118 73.684C333.692 73.4707 333.201 73.364 332.646 73.364C332.134 73.364 331.654 73.4493 331.206 73.62C330.758 73.7693 330.396 73.9613 330.118 74.196C329.841 74.4307 329.574 74.6973 329.318 74.996C329.084 75.2947 328.913 75.54 328.806 75.732C328.721 75.924 328.636 76.1053 328.55 76.276V86.964C328.55 87.3053 328.721 87.476 329.062 87.476C329.169 87.476 329.254 87.4973 329.318 87.54C329.404 87.5827 329.468 87.6467 329.51 87.732C329.553 87.8173 329.574 87.9027 329.574 87.988C329.574 88.1373 329.521 88.2653 329.414 88.372C329.329 88.4573 329.212 88.5 329.062 88.5H324.998C324.849 88.5 324.721 88.4573 324.614 88.372C324.529 88.2653 324.486 88.1373 324.486 87.988C324.486 87.8387 324.529 87.7213 324.614 87.636C324.721 87.5293 324.849 87.476 324.998 87.476C325.148 87.476 325.265 87.4333 325.35 87.348C325.436 87.2627 325.478 87.1773 325.478 87.092L325.51 86.964V73.748C325.51 73.4067 325.34 73.236 324.998 73.236C324.849 73.236 324.721 73.1827 324.614 73.076C324.529 72.9693 324.486 72.852 324.486 72.724C324.486 72.5747 324.529 72.4573 324.614 72.372C324.721 72.2653 324.849 72.212 324.998 72.212H327.526C327.846 72.212 328.092 72.2973 328.262 72.468C328.433 72.6387 328.518 72.8093 328.518 72.98L328.55 73.236V74.836C328.934 74.068 329.532 73.3747 330.342 72.756C331.153 72.1373 332.166 71.828 333.382 71.828C334.385 71.828 335.27 71.9453 336.038 72.18C336.806 72.4147 337.446 72.8413 337.958 73.46C338.47 74.0787 338.726 74.8467 338.726 75.764V86.964C338.726 87.3053 338.897 87.476 339.238 87.476ZM350.6 87.732C353.074 87.732 354.642 86.42 355.304 83.796V87.476C354.685 87.9667 353.992 88.3187 353.224 88.532C352.456 88.7667 351.41 88.884 350.088 88.884C347.613 88.884 345.65 88.0733 344.2 86.452C342.77 84.8307 342.056 82.804 342.056 80.372C342.056 78.004 342.77 75.988 344.2 74.324C345.65 72.66 347.442 71.828 349.576 71.828C349.917 71.828 350.248 71.8387 350.568 71.86C350.888 71.8813 351.176 71.9133 351.432 71.956C351.688 71.9773 351.933 72.02 352.168 72.084C352.424 72.148 352.637 72.212 352.808 72.276C353 72.3187 353.181 72.372 353.352 72.436C353.544 72.5 353.693 72.564 353.8 72.628C353.928 72.692 354.045 72.756 354.152 72.82C354.28 72.884 354.376 72.9373 354.44 72.98C354.504 73.0227 354.568 73.076 354.632 73.14C354.717 73.1827 354.77 73.2147 354.792 73.236V76.916C354.45 75.6787 353.768 74.6547 352.744 73.844C351.72 73.0333 350.493 72.7027 349.064 72.852C347.762 72.98 346.802 73.78 346.184 75.252C345.586 76.724 345.373 78.5373 345.544 80.692C345.714 82.7827 346.248 84.4787 347.144 85.78C348.061 87.0813 349.213 87.732 350.6 87.732ZM362.295 87.476C362.444 87.476 362.561 87.5293 362.647 87.636C362.753 87.7213 362.807 87.8387 362.807 87.988C362.807 88.1373 362.753 88.2653 362.647 88.372C362.561 88.4573 362.444 88.5 362.295 88.5H358.231C358.081 88.5 357.953 88.4573 357.847 88.372C357.761 88.2653 357.719 88.1373 357.719 87.988C357.719 87.8387 357.761 87.7213 357.847 87.636C357.953 87.5293 358.081 87.476 358.231 87.476C358.38 87.476 358.497 87.4333 358.583 87.348C358.668 87.2627 358.711 87.1773 358.711 87.092L358.743 86.964V67.636C358.743 67.2947 358.572 67.124 358.231 67.124C358.081 67.124 357.953 67.0707 357.847 66.964C357.761 66.8573 357.719 66.74 357.719 66.612C357.719 66.4627 357.761 66.3453 357.847 66.26C357.953 66.1533 358.081 66.1 358.231 66.1H360.759C361.079 66.1 361.324 66.1853 361.495 66.356C361.665 66.5267 361.751 66.6973 361.751 66.868L361.783 67.124V86.964C361.783 87.3053 361.953 87.476 362.295 87.476ZM379.633 87.476C379.782 87.476 379.899 87.5293 379.985 87.636C380.091 87.7427 380.145 87.8707 380.145 88.02C380.145 88.148 380.091 88.2653 379.985 88.372C379.899 88.4573 379.782 88.5 379.633 88.5H377.105C376.913 88.5 376.742 88.4787 376.593 88.436C376.465 88.3933 376.369 88.34 376.305 88.276C376.241 88.212 376.187 88.148 376.145 88.084C376.102 87.9987 376.081 87.9347 376.081 87.892V87.828V85.876C375.697 86.644 375.099 87.3373 374.289 87.956C373.478 88.5747 372.465 88.884 371.249 88.884C369.691 88.884 368.411 88.5747 367.409 87.956C366.406 87.316 365.905 86.3133 365.905 84.948V73.748C365.905 73.4067 365.734 73.236 365.393 73.236C365.243 73.236 365.115 73.1933 365.009 73.108C364.923 73.0013 364.881 72.8733 364.881 72.724C364.881 72.5747 364.923 72.4573 365.009 72.372C365.115 72.2653 365.243 72.212 365.393 72.212H367.921C368.241 72.212 368.486 72.2973 368.657 72.468C368.827 72.6387 368.913 72.8093 368.913 72.98L368.945 73.236V84.564C368.945 84.628 368.945 84.724 368.945 84.852C368.966 84.98 369.03 85.204 369.137 85.524C369.265 85.844 369.425 86.132 369.617 86.388C369.809 86.6227 370.107 86.8467 370.513 87.06C370.939 87.252 371.441 87.348 372.017 87.348C372.635 87.348 373.201 87.2413 373.713 87.028C374.225 86.7933 374.641 86.4947 374.961 86.132C375.281 85.748 375.526 85.428 375.697 85.172C375.867 84.916 375.995 84.6707 376.081 84.436V73.748C376.081 73.4067 375.91 73.236 375.569 73.236C375.419 73.236 375.291 73.1933 375.185 73.108C375.099 73.0013 375.057 72.8733 375.057 72.724C375.057 72.5747 375.099 72.4573 375.185 72.372C375.291 72.2653 375.419 72.212 375.569 72.212H378.129C378.427 72.212 378.662 72.276 378.833 72.404C379.003 72.5107 379.099 72.6173 379.121 72.724V72.884V86.964C379.121 87.3053 379.291 87.476 379.633 87.476ZM385.108 75.124C385.108 75.6787 385.353 76.212 385.844 76.724C386.356 77.236 386.985 77.684 387.732 78.068C388.478 78.4307 389.278 78.8467 390.132 79.316C391.006 79.7853 391.817 80.244 392.564 80.692C393.31 81.14 393.929 81.7053 394.42 82.388C394.932 83.0493 395.188 83.7747 395.188 84.564C395.188 85.524 394.846 86.3453 394.164 87.028C393.502 87.6893 392.713 88.1693 391.796 88.468C390.9 88.7453 389.95 88.884 388.948 88.884C386.558 88.884 384.734 88.4147 383.476 87.476V84.372C383.54 84.4787 383.625 84.6173 383.732 84.788C383.838 84.9373 384.073 85.2253 384.436 85.652C384.798 86.0573 385.182 86.42 385.588 86.74C385.993 87.06 386.494 87.348 387.092 87.604C387.71 87.86 388.329 87.988 388.948 87.988C389.865 87.988 390.686 87.7533 391.412 87.284C392.137 86.8147 392.5 86.2387 392.5 85.556C392.5 85.236 392.382 84.916 392.148 84.596C391.934 84.276 391.636 83.988 391.252 83.732C390.868 83.4547 390.42 83.1773 389.908 82.9C389.396 82.6227 388.862 82.3453 388.308 82.068C387.753 81.7907 387.198 81.5027 386.644 81.204C386.089 80.884 385.556 80.5427 385.044 80.18C384.553 79.8173 384.116 79.4333 383.732 79.028C383.348 78.6013 383.038 78.1213 382.804 77.588C382.569 77.0547 382.452 76.4893 382.452 75.892C382.452 75.2307 382.622 74.6333 382.964 74.1C383.326 73.5667 383.796 73.14 384.372 72.82C384.969 72.5 385.609 72.2547 386.292 72.084C386.996 71.9133 387.71 71.828 388.436 71.828C388.841 71.828 389.268 71.8493 389.716 71.892C390.164 71.9347 390.718 72.0733 391.38 72.308C392.041 72.5427 392.542 72.852 392.884 73.236V76.5C392.841 76.3933 392.777 76.2547 392.692 76.084C392.628 75.9133 392.446 75.6147 392.148 75.188C391.87 74.74 391.572 74.356 391.252 74.036C390.953 73.6947 390.548 73.396 390.036 73.14C389.524 72.8627 388.99 72.724 388.436 72.724C387.518 72.724 386.729 72.9587 386.068 73.428C385.428 73.876 385.108 74.4413 385.108 75.124ZM401.881 87.476C402.03 87.476 402.148 87.5293 402.233 87.636C402.34 87.7213 402.393 87.8387 402.393 87.988C402.393 88.1373 402.34 88.2653 402.233 88.372C402.148 88.4573 402.03 88.5 401.881 88.5H397.817C397.668 88.5 397.54 88.4573 397.433 88.372C397.348 88.2653 397.305 88.1373 397.305 87.988C397.305 87.8387 397.348 87.7213 397.433 87.636C397.54 87.5293 397.668 87.476 397.817 87.476C397.966 87.476 398.084 87.4333 398.169 87.348C398.254 87.2627 398.297 87.1773 398.297 87.092L398.329 86.964V73.748C398.329 73.4067 398.158 73.236 397.817 73.236C397.668 73.236 397.54 73.1827 397.433 73.076C397.348 72.9693 397.305 72.852 397.305 72.724C397.305 72.5747 397.348 72.4573 397.433 72.372C397.54 72.2653 397.668 72.212 397.817 72.212H400.345C400.665 72.212 400.91 72.2973 401.081 72.468C401.252 72.6387 401.337 72.8093 401.337 72.98L401.369 73.236V86.964C401.369 87.3053 401.54 87.476 401.881 87.476ZM401.113 70.42C400.772 70.7613 400.345 70.932 399.833 70.932C399.342 70.932 398.926 70.7613 398.585 70.42C398.244 70.0787 398.073 69.652 398.073 69.14C398.073 68.82 398.148 68.532 398.297 68.276C398.468 67.9987 398.681 67.7853 398.937 67.636C399.214 67.4653 399.524 67.38 399.865 67.38C400.356 67.38 400.772 67.5507 401.113 67.892C401.454 68.2333 401.625 68.66 401.625 69.172C401.625 69.6627 401.454 70.0787 401.113 70.42ZM406.861 74.324C408.312 72.66 410.051 71.828 412.077 71.828C414.125 71.828 415.864 72.66 417.293 74.324C418.744 75.988 419.469 78.004 419.469 80.372C419.469 82.7187 418.744 84.724 417.293 86.388C415.864 88.052 414.125 88.884 412.077 88.884C410.051 88.884 408.312 88.052 406.861 86.388C405.432 84.724 404.717 82.7187 404.717 80.372C404.717 78.004 405.432 75.988 406.861 74.324ZM409.773 85.908C410.648 87.2947 411.619 87.9453 412.685 87.86C413.773 87.7747 414.637 86.9747 415.277 85.46C415.917 83.924 416.152 82.1213 415.981 80.052C415.832 77.9613 415.309 76.2227 414.413 74.836C413.539 73.428 412.557 72.7667 411.469 72.852C410.403 72.9373 409.549 73.748 408.909 75.284C408.269 76.82 408.035 78.6227 408.205 80.692C408.376 82.7613 408.899 84.5 409.773 85.908ZM436.635 87.476C436.72 87.476 436.784 87.4973 436.827 87.54C436.891 87.5613 436.944 87.5933 436.987 87.636C437.051 87.6787 437.093 87.732 437.115 87.796C437.136 87.86 437.147 87.924 437.147 87.988C437.147 88.1373 437.093 88.2653 436.987 88.372C436.901 88.4573 436.784 88.5 436.635 88.5H432.571C432.421 88.5 432.293 88.4573 432.187 88.372C432.101 88.2653 432.059 88.1373 432.059 87.988C432.059 87.8387 432.101 87.7213 432.187 87.636C432.293 87.5293 432.421 87.476 432.571 87.476C432.72 87.476 432.837 87.4333 432.923 87.348C433.008 87.2627 433.061 87.1773 433.083 87.092V86.964V76.148C433.083 76.084 433.072 75.988 433.051 75.86C433.051 75.732 432.997 75.508 432.891 75.188C432.784 74.868 432.635 74.5907 432.443 74.356C432.251 74.1 431.941 73.876 431.515 73.684C431.088 73.4707 430.597 73.364 430.043 73.364C429.531 73.364 429.051 73.4493 428.603 73.62C428.155 73.7693 427.792 73.9613 427.515 74.196C427.237 74.4307 426.971 74.6973 426.715 74.996C426.48 75.2947 426.309 75.54 426.203 75.732C426.117 75.924 426.032 76.1053 425.947 76.276V86.964C425.947 87.3053 426.117 87.476 426.459 87.476C426.565 87.476 426.651 87.4973 426.715 87.54C426.8 87.5827 426.864 87.6467 426.907 87.732C426.949 87.8173 426.971 87.9027 426.971 87.988C426.971 88.1373 426.917 88.2653 426.811 88.372C426.725 88.4573 426.608 88.5 426.459 88.5H422.395C422.245 88.5 422.117 88.4573 422.011 88.372C421.925 88.2653 421.883 88.1373 421.883 87.988C421.883 87.8387 421.925 87.7213 422.011 87.636C422.117 87.5293 422.245 87.476 422.395 87.476C422.544 87.476 422.661 87.4333 422.747 87.348C422.832 87.2627 422.875 87.1773 422.875 87.092L422.907 86.964V73.748C422.907 73.4067 422.736 73.236 422.395 73.236C422.245 73.236 422.117 73.1827 422.011 73.076C421.925 72.9693 421.883 72.852 421.883 72.724C421.883 72.5747 421.925 72.4573 422.011 72.372C422.117 72.2653 422.245 72.212 422.395 72.212H424.923C425.243 72.212 425.488 72.2973 425.659 72.468C425.829 72.6387 425.915 72.8093 425.915 72.98L425.947 73.236V74.836C426.331 74.068 426.928 73.3747 427.739 72.756C428.549 72.1373 429.563 71.828 430.779 71.828C431.781 71.828 432.667 71.9453 433.435 72.18C434.203 72.4147 434.843 72.8413 435.355 73.46C435.867 74.0787 436.123 74.8467 436.123 75.764V86.964C436.123 87.3053 436.293 87.476 436.635 87.476Z" fill="white"/>
<defs>
<linearGradient id="paint0_linear_16103_247587" x1="7.28423e-06" y1="117.121" x2="569.516" y2="117.087" gradientUnits="userSpaceOnUse">
<stop stop-color="#C1ADFE"/>
<stop offset="0.359375" stop-color="#83CCB9"/>
<stop offset="0.75" stop-color="#FBA3B8"/>
<stop offset="1" stop-color="#FFE98A"/>
</linearGradient>
</defs>
</svg>
